<!-- Generated by IcoMoon.io -->
<svg version="1.1" xmlns="http://www.w3.org/2000/svg" width="32" height="32" viewBox="0 0 32 32">
<title>AA-diamong-rating</title>
<path fill="#fff" d="M31.473 11.289c0-0.008 0.008-0.015 0.008-0.015 0.015-0.046 0.015-0.093 0.015-0.139 0-0.015 0-0.023-0.008-0.031-0.008-0.039-0.015-0.077-0.031-0.108 0-0.008-0.008-0.015-0.008-0.023v-0.008l-5.036-8.717c-0.031-0.062-0.085-0.101-0.139-0.132l-0.008-0.008h-0.008c-0.062-0.031-0.124-0.054-0.194-0.054h-9.995c-0.023 0-0.047-0.008-0.070-0.008h-10.065c-0.147 0-0.279 0.077-0.356 0.201-0.008 0.023-0.016 0.039-0.023 0.062l-4.998 8.647v0.008c-0.008 0.008-0.008 0.015-0.008 0.023-0.015 0.039-0.031 0.070-0.031 0.108 0 0.015-0.008 0.023-0.008 0.031 0 0.046 0 0.093 0.015 0.139 0 0.008 0.008 0.015 0.008 0.015 0.008 0.023 0.015 0.054 0.031 0.077 0.008 0.015 0.015 0.023 0.031 0.039 0.008 0.008 0.008 0.015 0.008 0.015l15.078 18.402c0.008 0.008 0.015 0.008 0.023 0.015 0.031 0.031 0.062 0.054 0.101 0.077 0.015 0.008 0.023 0.015 0.039 0.023 0.046 0.023 0.101 0.039 0.155 0.039s0.108-0.015 0.155-0.039c0.015-0.008 0.023-0.015 0.039-0.023 0.039-0.023 0.070-0.047 0.101-0.077 0.008-0.008 0.015-0.008 0.023-0.015l15.101-18.402c0.008-0.008 0.008-0.015 0.008-0.015 0.008-0.015 0.023-0.023 0.031-0.039 0-0.015 0.008-0.046 0.015-0.070zM12.537 11.568l7.95 0.008-4.494 16.426-4.486-16.434h0.395c0.186 0 0.395 0 0.635 0zM11.677 10.754l4.316-7.477 4.316 7.477h-8.631zM21.021 10.336l-4.316-7.477h8.639l-4.323 7.477zM10.971 10.321l-4.316-7.469h8.631l-4.316 7.469zM10.654 11.568l4.44 16.248-13.319-16.248h8.879zM21.338 11.568h8.887l-13.335 16.248 4.447-16.248zM21.741 10.754l4.323-7.485 4.323 7.485h-8.647zM5.943 3.27l4.316 7.485h-8.639l4.324-7.485z"></path>
</svg>
