<!-- Generated by IcoMoon.io -->
<svg version="1.1" xmlns="http://www.w3.org/2000/svg" width="32" height="32" viewBox="0 0 32 32">
<title>access-control</title>
<path fill="#fff" d="M28.738 8.089h-6.106v-2.557c0-0.659-0.535-1.193-1.193-1.193h-0.891c-0.24-2.139-2.061-3.812-4.262-3.812s-4.021 1.674-4.261 3.812h-0.891c-0.659 0-1.193 0.535-1.193 1.193v2.557h-6.663c-1.519 0-2.758 1.24-2.758 2.758v17.867c0 1.519 1.24 2.758 2.758 2.758h25.468c1.519 0 2.758-1.24 2.758-2.758v-17.86c-0.008-1.526-1.247-2.766-2.766-2.766zM10.878 5.532c0-0.132 0.108-0.248 0.248-0.248h1.821v-0.473c0-1.836 1.495-3.339 3.339-3.339 1.836 0 3.339 1.495 3.339 3.339v0.473h1.821c0.132 0 0.248 0.108 0.248 0.248v3.618c0 0.062-0.047 0.108-0.108 0.108h-10.6c-0.062 0-0.108-0.046-0.108-0.108v-3.618zM30.543 28.715c0 1-0.814 1.813-1.813 1.813h-25.468c-1 0-1.813-0.814-1.813-1.813v-17.86c0-1 0.814-1.813 1.813-1.813h6.663v0.108c0 0.581 0.473 1.062 1.062 1.062h10.584c0.581 0 1.061-0.473 1.061-1.062v-0.108h6.106c1 0 1.813 0.814 1.813 1.813v17.86h-0.008z"></path>
<path fill="#fff" d="M13.11 15.675h-8.732c-0.263 0-0.473 0.209-0.473 0.473s0.209 0.473 0.473 0.473h8.732c0.263 0 0.473-0.209 0.473-0.473s-0.209-0.473-0.473-0.473z"></path>
<path fill="#fff" d="M13.11 19.332h-8.732c-0.263 0-0.473 0.209-0.473 0.473s0.209 0.473 0.473 0.473h8.732c0.263 0 0.473-0.209 0.473-0.473s-0.209-0.473-0.473-0.473z"></path>
<path fill="#fff" d="M13.11 22.981h-8.732c-0.263 0-0.473 0.209-0.473 0.473s0.209 0.473 0.473 0.473h8.732c0.263 0 0.473-0.209 0.473-0.473s-0.209-0.473-0.473-0.473z"></path>
<path fill="#fff" d="M22.88 19.247c1.891 0 3.432-1.542 3.432-3.432s-1.542-3.432-3.432-3.432-3.432 1.542-3.432 3.432 1.542 3.432 3.432 3.432zM22.88 13.327c1.371 0 2.487 1.116 2.487 2.487s-1.116 2.487-2.487 2.487-2.487-1.116-2.487-2.487c0.008-1.371 1.123-2.487 2.487-2.487z"></path>
<path fill="#fff" d="M24.918 19.37h-4.006c-2.386 0-4.331 1.875-4.331 4.184v4.316c0 0.263 0.209 0.473 0.473 0.473h11.568c0.263 0 0.473-0.209 0.473-0.473v-4.316c0.008-2.348-1.829-4.184-4.176-4.184zM28.149 27.39h-10.615v-3.843c0-1.782 1.519-3.231 3.378-3.231h4.006c1.813 0 3.231 1.418 3.231 3.231v3.843z"></path>
<path fill="#fff" d="M16.279 6.439c0.961 0 1.743-0.783 1.743-1.743s-0.783-1.751-1.743-1.751-1.743 0.783-1.743 1.743 0.783 1.751 1.743 1.751zM16.279 3.897c0.442 0 0.798 0.356 0.798 0.798s-0.356 0.798-0.798 0.798-0.798-0.356-0.798-0.798 0.364-0.798 0.798-0.798z"></path>
</svg>
