<!-- Generated by IcoMoon.io -->
<svg version="1.1" xmlns="http://www.w3.org/2000/svg" width="32" height="32" viewBox="0 0 32 32">
<title>ad-exchange</title>
<path fill="#fff" d="M29.761 1.798h-27.522c-0.953 0-1.736 0.775-1.736 1.736v18.921c0 0.953 0.775 1.736 1.736 1.736h9.453v1.705c0 0.302-0.163 0.845-0.333 1.093l-0.767 1.147c-0.31 0.465-0.356 0.976-0.124 1.402 0.225 0.426 0.682 0.674 1.24 0.674h8.6c0.558 0 1.007-0.248 1.24-0.674 0.225-0.426 0.186-0.938-0.124-1.402l-0.767-1.147c-0.163-0.248-0.333-0.79-0.333-1.093v-1.705h9.453c0.953 0 1.736-0.775 1.736-1.736v-18.929c-0.015-0.953-0.79-1.728-1.751-1.728zM2.239 2.51h27.529c0.566 0 1.023 0.457 1.023 1.023v15.093c-0.039-0.015-0.077-0.023-0.116-0.023h-29.443v-15.078c-0.016-0.558 0.442-1.015 1.007-1.015zM20.819 28.529c0.093 0.139 0.232 0.411 0.093 0.666-0.101 0.194-0.318 0.294-0.604 0.294h-8.608c-0.17 0-0.473-0.039-0.604-0.294s0-0.527 0.093-0.666l0.767-1.147c0.24-0.364 0.449-1.046 0.449-1.488v-1.712h7.198v1.712c0 0.442 0.209 1.123 0.449 1.488l0.767 1.147zM29.761 23.469h-1.232c-0.008 0-0.015 0-0.015 0h-24.771c-0.008 0-0.015 0-0.015 0h-1.488c-0.566 0-1.023-0.457-1.023-1.023v-3.146h29.443c0.039 0 0.077-0.008 0.116-0.023v3.169c0.008 0.566-0.449 1.023-1.015 1.023z"></path>
<path fill="#fff" d="M16.86 21.594c0 0.475-0.385 0.86-0.86 0.86s-0.86-0.385-0.86-0.86c0-0.475 0.385-0.86 0.86-0.86s0.86 0.385 0.86 0.86z"></path>
<path fill="#fff" d="M12.684 10.328h4.835c0.085 0 0.108-0.046 0.108-0.108v-0.38c0-0.108-0.023-0.132-0.116-0.132h-3.239c0.108-1.302 0.527-2.317 2.030-2.317 0.705 0 1.472 0.093 1.991 0.17 0.155 0.023 0.201-0.046 0.225-0.132l0.070-0.333c0.023-0.108 0.015-0.194-0.155-0.263-0.635-0.248-1.674-0.31-2.139-0.31-2.169 0-2.844 1.457-2.999 3.185h-0.612c-0.093 0-0.132 0.046-0.132 0.108v0.403c0.015 0.093 0.062 0.108 0.132 0.108z"></path>
<path fill="#fff" d="M12.684 11.483l0.62-0.015c0.147 1.72 0.837 3.138 2.999 3.138 0.465 0 1.573-0.085 2.146-0.325 0.155-0.062 0.155-0.147 0.132-0.263l-0.062-0.31c-0.023-0.085-0.070-0.17-0.24-0.139-0.558 0.070-1.255 0.17-1.984 0.17-1.441 0-1.898-1.015-2.015-2.27h3.239c0.085 0 0.108-0.039 0.108-0.093v-0.38c0-0.108-0.039-0.139-0.132-0.139h-4.804c-0.093 0-0.132 0.062-0.132 0.108v0.403c0.008 0.093 0.054 0.116 0.124 0.116z"></path>
<path fill="#fff" d="M6.044 7.229c0 0.046 0.008 0.093 0.031 0.132 0.016 0.046 0.046 0.085 0.077 0.116l2.526 2.526c0.070 0.070 0.163 0.108 0.256 0.108s0.186-0.031 0.256-0.101c0.139-0.139 0.139-0.364 0-0.504l-1.922-1.922h4.587c0.194 0 0.356-0.163 0.356-0.356s-0.163-0.356-0.356-0.356h-4.587l1.922-1.922c0.139-0.139 0.139-0.364 0-0.504s-0.364-0.139-0.504 0l-2.534 2.526c0 0-0.008 0.008-0.008 0.016-0.031 0.031-0.054 0.062-0.070 0.101-0.016 0.046-0.031 0.093-0.031 0.139v0 0z"></path>
<path fill="#fff" d="M20.145 14.458h4.587l-1.922 1.922c-0.139 0.139-0.139 0.364 0 0.504 0.070 0.070 0.163 0.101 0.256 0.101s0.186-0.031 0.256-0.101l2.526-2.526c0 0 0.008-0.008 0.008-0.015 0.031-0.031 0.054-0.062 0.070-0.101 0.015-0.046 0.031-0.093 0.031-0.139v0 0c0-0.046-0.008-0.093-0.031-0.132-0.015-0.046-0.047-0.085-0.077-0.116l-2.526-2.534c-0.139-0.139-0.364-0.139-0.504 0s-0.139 0.364 0 0.504l1.922 1.922h-4.595c-0.194 0-0.356 0.163-0.356 0.356s0.163 0.356 0.356 0.356z"></path>
</svg>
