<!-- Generated by IcoMoon.io -->
<svg version="1.1" xmlns="http://www.w3.org/2000/svg" width="32" height="32" viewBox="0 0 32 32">
<title>aDDS</title>
<path fill="#fff" d="M10.266 11.545h11.661c0.194 0 0.356-0.155 0.356-0.356v-4.068c0-0.194-0.155-0.356-0.356-0.356h-11.661c-0.194 0-0.356 0.155-0.356 0.356v4.076c0.008 0.186 0.163 0.349 0.356 0.349zM10.623 7.469h10.956v3.37h-10.956v-3.37z"></path>
<path fill="#fff" d="M20.083 8.802h-5.277c-0.194 0-0.356 0.155-0.356 0.356 0 0.194 0.155 0.356 0.356 0.356h5.277c0.194 0 0.356-0.155 0.356-0.356-0.008-0.201-0.163-0.356-0.356-0.356z"></path>
<path fill="#fff" d="M12.862 9.151c0 0.308-0.25 0.558-0.558 0.558s-0.558-0.25-0.558-0.558c0-0.308 0.25-0.558 0.558-0.558s0.558 0.25 0.558 0.558z"></path>
<path fill="#fff" d="M10.266 17.464h11.661c0.194 0 0.356-0.155 0.356-0.356v-4.076c0-0.194-0.155-0.356-0.356-0.356h-11.661c-0.194 0-0.356 0.155-0.356 0.356v4.076c0.008 0.201 0.163 0.356 0.356 0.356zM10.623 13.397h10.956v3.37h-10.956v-3.37z"></path>
<path fill="#fff" d="M20.083 14.722h-5.277c-0.194 0-0.356 0.155-0.356 0.356s0.155 0.356 0.356 0.356h5.277c0.194 0 0.356-0.155 0.356-0.356s-0.163-0.356-0.356-0.356z"></path>
<path fill="#fff" d="M12.862 15.078c0 0.308-0.25 0.558-0.558 0.558s-0.558-0.25-0.558-0.558c0-0.308 0.25-0.558 0.558-0.558s0.558 0.25 0.558 0.558z"></path>
<path fill="#fff" d="M10.266 23.392h11.661c0.194 0 0.356-0.155 0.356-0.356v-4.076c0-0.194-0.155-0.356-0.356-0.356h-11.661c-0.194 0-0.356 0.155-0.356 0.356v4.076c0.008 0.194 0.163 0.356 0.356 0.356zM10.623 19.316h10.956v3.37h-10.956v-3.37z"></path>
<path fill="#fff" d="M20.083 20.649h-5.277c-0.194 0-0.356 0.155-0.356 0.356s0.155 0.356 0.356 0.356h5.277c0.194 0 0.356-0.155 0.356-0.356s-0.163-0.356-0.356-0.356z"></path>
<path fill="#fff" d="M12.862 20.998c0 0.308-0.25 0.558-0.558 0.558s-0.558-0.25-0.558-0.558c0-0.308 0.25-0.558 0.558-0.558s0.558 0.25 0.558 0.558z"></path>
<path fill="#fff" d="M22.299 24.531h-12.273c-0.194 0-0.356 0.155-0.356 0.356s0.155 0.356 0.356 0.356h12.281c0.194 0 0.356-0.155 0.356-0.356s-0.17-0.356-0.364-0.356z"></path>
<path fill="#fff" d="M14.179 3.332l1.643-1.627v3.812c0 0.194 0.155 0.356 0.356 0.356 0.194 0 0.356-0.155 0.356-0.356v-3.797l1.619 1.635c0.070 0.070 0.163 0.101 0.248 0.101 0.093 0 0.178-0.031 0.248-0.101 0.139-0.139 0.139-0.356 0-0.496l-2.224-2.255c-0.031-0.031-0.070-0.062-0.116-0.077s-0.085-0.023-0.132-0.023v0c-0.015 0-0.023 0.008-0.031 0.008-0.031 0-0.070 0.008-0.101 0.023-0.039 0.015-0.070 0.039-0.101 0.062-0.008 0.008-0.008 0.008-0.015 0.008v0 0l-2.239 2.224c-0.139 0.139-0.139 0.356 0 0.496 0.124 0.139 0.349 0.139 0.488 0.008z"></path>
<path fill="#fff" d="M18.146 28.668l-1.643 1.627v-3.812c0-0.194-0.155-0.356-0.356-0.356-0.194 0-0.356 0.155-0.356 0.356v3.797l-1.612-1.627c-0.139-0.139-0.356-0.139-0.496 0s-0.139 0.356 0 0.496l2.224 2.247c0.031 0.031 0.070 0.062 0.116 0.077s0.085 0.031 0.132 0.031c0.047 0 0.093-0.008 0.132-0.023s0.070-0.039 0.093-0.062c0.008-0.008 0.015-0.008 0.015-0.008v0 0l2.239-2.224c0.139-0.139 0.139-0.356 0-0.496-0.124-0.155-0.349-0.163-0.488-0.023z"></path>
<path fill="#fff" d="M8.6 14.714h-3.797l1.627-1.619c0.139-0.139 0.139-0.356 0-0.496s-0.356-0.139-0.496 0l-2.247 2.224c-0.031 0.031-0.062 0.070-0.077 0.116s-0.023 0.085-0.023 0.132v0c0 0.015 0.008 0.023 0.008 0.039 0 0.031 0.008 0.062 0.015 0.093 0.015 0.039 0.039 0.070 0.070 0.101 0 0.008 0.008 0.008 0.008 0.015v0 0l2.224 2.239c0.070 0.070 0.163 0.101 0.248 0.101 0.093 0 0.178-0.031 0.248-0.101 0.139-0.139 0.139-0.356 0-0.496l-1.627-1.643h3.82c0.194 0 0.356-0.155 0.356-0.356s-0.163-0.349-0.356-0.349z"></path>
<path fill="#fff" d="M28.413 15.086v0c0-0.015-0.008-0.031-0.008-0.046-0.008-0.031-0.008-0.062-0.015-0.085-0.015-0.039-0.039-0.062-0.062-0.093-0.008-0.008-0.008-0.015-0.015-0.015v0 0l-2.224-2.239c-0.139-0.139-0.356-0.139-0.496 0s-0.139 0.356 0 0.496l1.627 1.643h-3.82c-0.194 0-0.356 0.155-0.356 0.356s0.155 0.356 0.356 0.356h3.797l-1.627 1.604c-0.139 0.139-0.139 0.356 0 0.496 0.070 0.070 0.163 0.101 0.248 0.101 0.093 0 0.178-0.031 0.248-0.101l2.247-2.224c0.039-0.039 0.062-0.085 0.085-0.139 0-0.031 0.015-0.070 0.015-0.108v0z"></path>
</svg>
