<!-- Generated by IcoMoon.io -->
<svg version="1.1" xmlns="http://www.w3.org/2000/svg" width="32" height="32" viewBox="0 0 32 32">
<title>adserver</title>
<path fill="#fff" d="M12.304 7.136h-11.32c-0.132 0-0.24 0.108-0.24 0.24v3.952c0 0.132 0.108 0.24 0.24 0.24h11.32c0.132 0 0.24-0.108 0.24-0.24v-3.952c0-0.132-0.108-0.24-0.24-0.24zM12.064 11.088h-10.84v-3.463h10.832l0.008 3.463z"></path>
<path fill="#fff" d="M5.385 9.6h5.122c0.132 0 0.24-0.108 0.24-0.24s-0.108-0.24-0.24-0.24h-5.122c-0.132 0-0.24 0.108-0.24 0.24s0.108 0.24 0.24 0.24z"></path>
<path fill="#fff" d="M3.502 9.36c0 0.3-0.243 0.542-0.542 0.542s-0.542-0.243-0.542-0.542c0-0.3 0.243-0.542 0.542-0.542s0.542 0.243 0.542 0.542z"></path>
<path fill="#fff" d="M12.304 12.885h-11.32c-0.132 0-0.24 0.108-0.24 0.24v3.952c0 0.132 0.108 0.24 0.24 0.24h11.32c0.132 0 0.24-0.108 0.24-0.24v-3.952c0-0.132-0.108-0.24-0.24-0.24zM12.064 16.837h-10.84v-3.471h10.832l0.008 3.471z"></path>
<path fill="#fff" d="M5.385 15.349h5.122c0.132 0 0.24-0.108 0.24-0.24s-0.108-0.24-0.24-0.24h-5.122c-0.132 0-0.24 0.108-0.24 0.24s0.108 0.24 0.24 0.24z"></path>
<path fill="#fff" d="M3.502 15.101c0 0.3-0.243 0.542-0.542 0.542s-0.542-0.243-0.542-0.542c0-0.3 0.243-0.542 0.542-0.542s0.542 0.243 0.542 0.542z"></path>
<path fill="#fff" d="M12.304 18.634h-11.32c-0.132 0-0.24 0.108-0.24 0.24v3.952c0 0.132 0.108 0.24 0.24 0.24h11.32c0.132 0 0.24-0.108 0.24-0.24v-3.952c0-0.132-0.108-0.24-0.24-0.24zM12.064 22.586h-10.84v-3.471h10.832l0.008 3.471z"></path>
<path fill="#fff" d="M5.385 21.098h5.122c0.132 0 0.24-0.108 0.24-0.24s-0.108-0.24-0.24-0.24h-5.122c-0.132 0-0.24 0.108-0.24 0.24s0.108 0.24 0.24 0.24z"></path>
<path fill="#fff" d="M3.502 20.85c0 0.3-0.243 0.542-0.542 0.542s-0.542-0.243-0.542-0.542c0-0.3 0.243-0.542 0.542-0.542s0.542 0.243 0.542 0.542z"></path>
<path fill="#fff" d="M12.304 24.376h-11.56c-0.132 0-0.24 0.108-0.24 0.24s0.108 0.24 0.24 0.24h11.56c0.132 0 0.24-0.108 0.24-0.24s-0.108-0.24-0.24-0.24z"></path>
<path fill="#fff" d="M20.742 18.208h3.727c0.132 0 0.24-0.108 0.24-0.24s-0.108-0.24-0.24-0.24h-3.727c-0.132 0-0.24 0.108-0.24 0.24s0.108 0.24 0.24 0.24z"></path>
<path fill="#fff" d="M20.742 19.711h3.727c0.132 0 0.24-0.108 0.24-0.24s-0.108-0.24-0.24-0.24h-3.727c-0.132 0-0.24 0.108-0.24 0.24s0.108 0.24 0.24 0.24z"></path>
<path fill="#fff" d="M20.742 21.207h3.727c0.132 0 0.24-0.108 0.24-0.24s-0.108-0.24-0.24-0.24h-3.727c-0.132 0-0.24 0.108-0.24 0.24s0.108 0.24 0.24 0.24z"></path>
<path fill="#fff" d="M29.273 17.728h-3.727c-0.132 0-0.24 0.108-0.24 0.24s0.108 0.24 0.24 0.24h3.727c0.132 0 0.24-0.108 0.24-0.24s-0.108-0.24-0.24-0.24z"></path>
<path fill="#fff" d="M29.273 19.223h-3.727c-0.132 0-0.24 0.108-0.24 0.24s0.108 0.24 0.24 0.24h3.727c0.132 0 0.24-0.108 0.24-0.24s-0.108-0.24-0.24-0.24z"></path>
<path fill="#fff" d="M29.273 20.719h-3.727c-0.132 0-0.24 0.108-0.24 0.24s0.108 0.24 0.24 0.24h3.727c0.132 0 0.24-0.108 0.24-0.24s-0.108-0.24-0.24-0.24z"></path>
<path fill="#fff" d="M20.742 16.744h8.531c0.132 0 0.24-0.108 0.24-0.24v-7.144c0-0.132-0.108-0.24-0.24-0.24h-8.531c-0.132 0-0.24 0.108-0.24 0.24v7.144c0 0.132 0.108 0.24 0.24 0.24zM20.982 9.6h8.043v6.656h-8.043v-6.656z"></path>
<path fill="#fff" d="M31.256 7.136h-12.715c-0.132 0-0.24 0.108-0.24 0.24v15.45c0 0.132 0.108 0.24 0.24 0.24h12.715c0.132 0 0.24-0.108 0.24-0.24v-15.45c0-0.132-0.108-0.24-0.24-0.24zM31.008 22.586h-12.227v-14.962h12.227v14.962z"></path>
<path fill="#fff" d="M14.567 12.901c-0.093-0.093-0.248-0.093-0.341 0s-0.093 0.248 0 0.341l1.86 1.86-1.86 1.86c-0.093 0.093-0.093 0.248 0 0.341 0.046 0.047 0.108 0.070 0.17 0.070s0.124-0.023 0.17-0.070l2.030-2.030c0.093-0.093 0.093-0.248 0-0.341l-2.030-2.030z"></path>
</svg>
