<!-- Generated by IcoMoon.io -->
<svg version="1.1" xmlns="http://www.w3.org/2000/svg" width="32" height="32" viewBox="0 0 32 32">
<title>advertiser</title>
<path fill="#fff" d="M5.966 14.636c1.364 0 2.658-0.496 3.665-1.418 1.077-0.984 1.712-2.324 1.782-3.781 0.139-3.006-2.185-5.571-5.191-5.71s-5.571 2.185-5.71 5.191c-0.139 3.006 2.185 5.571 5.191 5.71 0.093 0.008 0.178 0.008 0.263 0.008zM1.232 8.949c0.124-2.534 2.224-4.517 4.734-4.517 0.077 0 0.147 0 0.225 0.008 1.263 0.062 2.433 0.612 3.285 1.542 0.852 0.938 1.286 2.146 1.224 3.417v0c-0.062 1.263-0.612 2.433-1.542 3.285-0.938 0.852-2.146 1.286-3.417 1.232-2.611-0.132-4.633-2.355-4.509-4.967z"></path>
<path fill="#fff" d="M21.168 14.574c-0.17-0.101-0.395-0.039-0.496 0.132l-3.665 6.284c-0.294 0.511-0.814 0.752-1.309 0.62l-3.766-1.023-0.496-3.828c-0.062-0.449-0.287-0.852-0.643-1.123-0.356-0.279-0.806-0.395-1.255-0.341l-4.765 0.612c-0.449 0.062-0.852 0.287-1.123 0.643-0.279 0.356-0.395 0.806-0.341 1.255l1.379 10.716c0.016 0.108 0.077 0.209 0.178 0.263 2.2 1.286 4.719 1.96 7.283 1.96 0.232 0 0.465 0 0.697-0.015 0.101-0.008 0.194-0.054 0.256-0.132s0.093-0.178 0.077-0.279l-1.154-8.965 3.494 0.938c0.147 0.039 0.302 0.062 0.457 0.062 0.659 0 1.286-0.372 1.658-1.015l3.665-6.284c0.101-0.163 0.039-0.38-0.132-0.48zM12.42 30.024c-2.479 0.039-4.905-0.566-7.035-1.774l-1.356-10.538c-0.031-0.256 0.039-0.511 0.194-0.721s0.387-0.341 0.651-0.372l4.765-0.612c0.535-0.070 1.023 0.31 1.092 0.845l0.457 3.533-4.138-1.108c-0.194-0.047-0.387 0.062-0.442 0.256s0.062 0.387 0.256 0.442l4.416 1.185 1.139 8.864z"></path>
<path fill="#fff" d="M25.631 1.867c-0.031-0.232-0.17-0.426-0.38-0.535s-0.449-0.108-0.659-0.008l-9.863 4.959-1.395-0.101c-0.132-0.023-0.279 0.008-0.387 0.101-0.139 0.116-0.209 0.302-0.178 0.496l0.55 3.897c0.023 0.186 0.147 0.349 0.31 0.426 0.062 0.023 0.124 0.039 0.186 0.039 0.070 0 0.147-0.015 0.217-0.054l1.317-0.488 1.472 0.271 0.333 2.379c0.101 0.697 0.697 1.201 1.379 1.201 0.062 0 0.132-0.008 0.194-0.015l3.417-0.488c0.372-0.054 0.697-0.248 0.922-0.542s0.318-0.666 0.263-1.030l-0.039-0.294 2.906 0.542c0.047 0.008 0.085 0.015 0.132 0.015 0.186 0 0.364-0.070 0.496-0.201 0.17-0.163 0.248-0.395 0.217-0.62l-1.41-9.949zM14.001 10.328l-0.48-3.409 0.976 0.070 0.426 2.999-0.922 0.341zM22.617 12.467c0.023 0.178-0.023 0.356-0.132 0.504s-0.263 0.24-0.442 0.263l-3.417 0.488c-0.178 0.023-0.356-0.023-0.504-0.132s-0.24-0.263-0.263-0.442l-0.302-2.139 4.99 0.922 0.070 0.535zM26.328 11.901v0l-10.693-1.984-0.434-3.061 7.245-3.634 0.581 4.091c0.023 0.178 0.178 0.31 0.356 0.31 0.015 0 0.031 0 0.054 0 0.194-0.031 0.333-0.209 0.302-0.403l-0.612-4.331 1.798-0.907 1.402 9.918z"></path>
<path fill="#fff" d="M29.195 1.309c-0.163-0.108-0.387-0.062-0.496 0.101l-1.782 2.696c-0.108 0.163-0.062 0.387 0.101 0.496 0.062 0.039 0.132 0.062 0.201 0.062 0.116 0 0.232-0.054 0.302-0.163l1.782-2.696c0.101-0.163 0.054-0.387-0.108-0.496z"></path>
<path fill="#fff" d="M31.070 5.881l-3.177 0.604c-0.194 0.039-0.325 0.225-0.287 0.418 0.031 0.17 0.186 0.294 0.356 0.294 0.023 0 0.047 0 0.070-0.008l3.169-0.604c0.194-0.039 0.325-0.225 0.287-0.418-0.039-0.201-0.225-0.325-0.418-0.287z"></path>
<path fill="#fff" d="M28.079 9.228c-0.163-0.108-0.387-0.070-0.496 0.101-0.108 0.163-0.070 0.387 0.101 0.496l2.681 1.798c0.062 0.039 0.132 0.062 0.201 0.062 0.116 0 0.232-0.054 0.302-0.163 0.108-0.163 0.070-0.387-0.101-0.496l-2.689-1.798z"></path>
</svg>
