<!-- Generated by IcoMoon.io -->
<svg version="1.1" xmlns="http://www.w3.org/2000/svg" width="32" height="32" viewBox="0 0 32 32">
<title>advertising</title>
<path fill="#fff" d="M27.754 4.308h-1.728v-1.201h0.604c0.511 0 0.922-0.411 0.922-0.922v-0.759c0-0.511-0.411-0.922-0.922-0.922h-1.96c-0.511 0-0.922 0.411-0.922 0.922v0.759c0 0.511 0.411 0.922 0.922 0.922h0.604v1.201h-8.903v-1.201h0.604c0.511 0 0.922-0.411 0.922-0.922v-0.759c0-0.511-0.411-0.922-0.922-0.922h-1.96c-0.511 0-0.922 0.411-0.922 0.922v0.759c0 0.511 0.411 0.922 0.922 0.922h0.604v1.201h-8.895v-1.201h0.604c0.511 0 0.922-0.411 0.922-0.922v-0.759c0-0.511-0.411-0.922-0.922-0.922h-1.96c-0.511 0-0.922 0.411-0.922 0.922v0.759c0 0.511 0.411 0.922 0.922 0.922h0.604v1.201h-1.728c-1.588 0-2.89 1.294-2.89 2.89v11.653c0 1.588 1.294 2.89 2.89 2.89h8.81v8.143c0 0.891 0.728 1.619 1.619 1.619h2.634c0.891 0 1.619-0.728 1.619-1.619v-8.151h8.81c1.588 0 2.89-1.294 2.89-2.89v-11.653c0.008-1.588-1.286-2.882-2.875-2.882zM24.492 2.185v-0.759c0-0.093 0.077-0.178 0.178-0.178h1.96c0.093 0 0.178 0.077 0.178 0.178v0.759c0 0.093-0.077 0.178-0.178 0.178h-1.96c-0.101 0-0.178-0.077-0.178-0.178zM14.846 2.185v-0.759c0-0.093 0.077-0.178 0.178-0.178h1.96c0.093 0 0.178 0.077 0.178 0.178v0.759c0 0.093-0.077 0.178-0.178 0.178h-1.96c-0.101 0-0.178-0.077-0.178-0.178zM5.199 2.185v-0.759c0-0.093 0.077-0.178 0.178-0.178h1.96c0.093 0 0.178 0.077 0.178 0.178v0.759c0 0.093-0.077 0.178-0.178 0.178h-1.968c-0.093 0-0.17-0.077-0.17-0.178zM18.193 29.877c0 0.48-0.395 0.876-0.876 0.876h-2.634c-0.48 0-0.876-0.395-0.876-0.876v-8.143h4.385v8.143zM29.892 18.844c0 1.178-0.961 2.139-2.139 2.139h-23.508c-1.178 0-2.139-0.961-2.139-2.139v-11.653c0-1.178 0.961-2.139 2.139-2.139h23.5c1.178 0 2.139 0.961 2.139 2.139v11.653h0.008z"></path>
<path fill="#fff" d="M19.030 8.050c-0.031-0.217-0.163-0.411-0.356-0.511s-0.426-0.101-0.62-0.008l-8.415 4.231-1.17-0.085c-0.132-0.023-0.271 0.008-0.38 0.101-0.132 0.108-0.201 0.294-0.178 0.48l0.473 3.332c0.023 0.186 0.139 0.341 0.302 0.411 0.062 0.023 0.124 0.039 0.186 0.039 0.070 0 0.139-0.015 0.209-0.046l1.1-0.411 1.193 0.225 0.279 1.984c0.093 0.628 0.628 1.077 1.247 1.077 0.062 0 0.116-0.008 0.178-0.015l2.921-0.418c0.69-0.101 1.162-0.736 1.069-1.418l-0.023-0.163 2.394 0.442c0.039 0.008 0.085 0.008 0.124 0.008 0.178 0 0.341-0.070 0.473-0.186 0.155-0.155 0.232-0.372 0.201-0.589l-1.209-8.476zM9.073 15.194l-0.395-2.751 0.705 0.054 0.349 2.456-0.659 0.24zM16.325 17.123c0.039 0.279-0.155 0.542-0.434 0.581l-2.921 0.418c-0.132 0.015-0.271-0.015-0.38-0.101s-0.178-0.201-0.201-0.333l-0.248-1.736 4.122 0.767 0.062 0.403zM16.697 16.031c0 0-0.008 0 0 0l-6.222-1.154-0.356-2.526 6.067-3.053 0.48 3.409c0.023 0.186 0.186 0.318 0.372 0.318 0.015 0 0.039 0 0.054-0.008 0.201-0.031 0.349-0.217 0.318-0.418l-0.519-3.657 1.418-0.713 1.178 8.306-2.789-0.504z"></path>
<path fill="#fff" d="M20.633 10.344l1.519-2.301c0.116-0.17 0.070-0.403-0.108-0.519-0.17-0.116-0.403-0.070-0.519 0.108l-1.519 2.301c-0.116 0.17-0.070 0.403 0.108 0.519 0.062 0.039 0.132 0.062 0.201 0.062 0.124 0 0.248-0.062 0.318-0.17z"></path>
<path fill="#fff" d="M23.601 11.421l-2.712 0.519c-0.201 0.039-0.333 0.232-0.294 0.434 0.031 0.178 0.194 0.302 0.364 0.302 0.023 0 0.047 0 0.070-0.008l2.712-0.519c0.201-0.039 0.333-0.232 0.294-0.434-0.031-0.201-0.225-0.333-0.434-0.294z"></path>
<path fill="#fff" d="M21.098 14.295c-0.17-0.116-0.403-0.070-0.519 0.101s-0.070 0.403 0.101 0.519l2.293 1.542c0.062 0.039 0.139 0.062 0.209 0.062 0.124 0 0.24-0.054 0.31-0.163 0.116-0.17 0.070-0.403-0.101-0.519l-2.293-1.542z"></path>
</svg>
