<!-- Generated by IcoMoon.io -->
<svg version="1.1" xmlns="http://www.w3.org/2000/svg" width="32" height="32" viewBox="0 0 32 32">
<title>affiliate-network</title>
<path fill="#fff" d="M5.036 7.771c1.24 0 2.255-1.007 2.255-2.255s-1.015-2.255-2.255-2.255-2.255 1.007-2.255 2.255 1.015 2.255 2.255 2.255zM5.036 3.913c0.883 0 1.604 0.721 1.604 1.604s-0.721 1.604-1.604 1.604-1.604-0.721-1.604-1.604 0.721-1.604 1.604-1.604z"></path>
<path fill="#fff" d="M7.291 21.408c0-1.24-1.007-2.255-2.255-2.255s-2.255 1.007-2.255 2.255c0 1.24 1.007 2.255 2.255 2.255s2.255-1.007 2.255-2.255zM3.432 21.408c0-0.883 0.721-1.604 1.604-1.604s1.604 0.721 1.604 1.604-0.721 1.604-1.604 1.604-1.604-0.713-1.604-1.604z"></path>
<path fill="#fff" d="M26.964 7.771c1.24 0 2.255-1.007 2.255-2.255s-1.007-2.255-2.255-2.255c-1.24 0-2.255 1.007-2.255 2.255s1.015 2.255 2.255 2.255zM26.964 3.913c0.883 0 1.604 0.721 1.604 1.604s-0.721 1.604-1.604 1.604-1.604-0.721-1.604-1.604 0.721-1.604 1.604-1.604z"></path>
<path fill="#fff" d="M31.496 12.521v-1.821c0-0.783-0.225-1.41-0.674-1.844-0.659-0.643-1.557-0.635-1.588-0.635h-4.533c-0.039-0.008-0.938-0.015-1.596 0.635-0.449 0.442-0.674 1.062-0.674 1.844v1.821c0 0.178 0.147 0.325 0.325 0.325h0.473l-5.153 3.735h-4.277c-0.008-0.008-0.008-0.015-0.015-0.023l-5.060-3.711h0.511c0.178 0 0.325-0.147 0.325-0.325v-1.821c0-0.783-0.225-1.41-0.674-1.844-0.659-0.643-1.557-0.635-1.588-0.635h-4.533c-0.039-0.008-0.938-0.015-1.596 0.635-0.449 0.442-0.674 1.062-0.674 1.844v1.821c0 0.178 0.147 0.325 0.325 0.325h6.811l5.284 3.882c-0.256 0.093-0.535 0.24-0.775 0.48-0.449 0.442-0.674 1.061-0.674 1.844v1.821c0 0.155 0.108 0.271 0.248 0.31l-4.083 2.96c-0.194-0.031-0.318-0.031-0.325-0.031h-4.533c-0.039 0-0.938-0.015-1.596 0.635-0.449 0.434-0.674 1.061-0.674 1.844v1.821c0 0.178 0.147 0.325 0.325 0.325h8.415c0.178 0 0.325-0.147 0.325-0.325v-1.821c0-0.783-0.225-1.41-0.674-1.844-0.155-0.155-0.325-0.271-0.496-0.356l4.401-3.192c0 0 0 0 0.008-0.008h2.224c-0.077 1.123-0.147 2.169-0.147 2.231 0 0.17 0.015 0.263 0.139 0.426 0.108 0.147 0.597 0.697 0.643 0.744 0.031 0.039 0.139 0.155 0.333 0.155 0.178 0 0.287-0.101 0.325-0.147 0.054-0.062 0.542-0.612 0.651-0.759 0.132-0.178 0.139-0.279 0.139-0.434 0-0.054-0.070-1.1-0.147-2.224h1.999c0 0 0 0 0 0.008l4.478 3.277c-0.116 0.077-0.24 0.163-0.349 0.271-0.449 0.434-0.674 1.061-0.674 1.844v1.821c0 0.178 0.147 0.325 0.325 0.325h8.415c0.178 0 0.325-0.147 0.325-0.325v-1.821c0-0.783-0.225-1.41-0.674-1.844-0.659-0.643-1.557-0.628-1.588-0.635h-4.533c-0.015 0-0.24-0.008-0.55 0.070l-4.076-2.975h0.139c0.178 0 0.325-0.147 0.325-0.325v-1.821c0-0.783-0.225-1.41-0.674-1.844-0.271-0.263-0.581-0.418-0.852-0.504l5.323-3.859h6.842c0.178-0.008 0.325-0.147 0.325-0.325zM1.154 12.196v-1.495c0-0.604 0.163-1.069 0.473-1.379 0.465-0.457 1.131-0.449 1.139-0.449h4.548c0-0.008 0.666 0 1.131 0.449 0.318 0.31 0.48 0.775 0.48 1.379v1.495h-1.069l-2.619-1.922c-0.147-0.108-0.349-0.077-0.449 0.070-0.108 0.147-0.077 0.349 0.070 0.449l1.914 1.402h-5.617zM8.446 25.213c0.318 0.31 0.473 0.775 0.473 1.379v1.495h-7.764v-1.495c0-0.604 0.163-1.069 0.473-1.379 0.465-0.457 1.131-0.449 1.139-0.449h4.014l-1.937 1.402c-0.147 0.108-0.178 0.31-0.070 0.449 0.062 0.085 0.163 0.132 0.263 0.132 0.062 0 0.132-0.023 0.186-0.062l2.549-1.852c0.217 0.070 0.465 0.178 0.674 0.38zM29.242 24.763c-0.008 0 0.674-0.008 1.131 0.449 0.318 0.31 0.473 0.775 0.473 1.379v1.495h-7.764v-1.495c0-0.604 0.163-1.069 0.473-1.379 0.155-0.147 0.325-0.248 0.488-0.31l2.735 1.999c0.054 0.039 0.124 0.062 0.194 0.062 0.101 0 0.201-0.047 0.263-0.132 0.108-0.147 0.077-0.349-0.070-0.449l-2.216-1.619h4.293zM16.457 23.477c-0.054 0.070-0.263 0.318-0.457 0.535-0.186-0.217-0.403-0.465-0.457-0.535-0.008-0.008-0.008-0.008-0.015-0.015 0-0.008 0-0.015 0-0.031 0.008-0.186 0.31-4.711 0.333-4.936 0-0.008 0-0.015 0-0.023 0.077-0.015 0.178-0.015 0.256 0 0 0.008 0 0.015 0 0.023 0.023 0.225 0.333 4.75 0.333 4.943 0 0.008 0 0.023 0 0.031 0.015-0.008 0.015 0 0.008 0.008zM19.89 19.053v1.495h-2.96c-0.070-1.054-0.139-2.015-0.147-2.123-0.023-0.263-0.093-0.449-0.349-0.55-0.062-0.023-0.24-0.070-0.426-0.070s-0.356 0.047-0.434 0.077c-0.248 0.093-0.31 0.279-0.341 0.542-0.008 0.108-0.077 1.077-0.147 2.123h-2.96v-1.495c0-0.604 0.163-1.069 0.473-1.379 0.465-0.457 1.123-0.457 1.139-0.449h4.54c0 0.008 0.674-0.008 1.131 0.449 0.318 0.31 0.48 0.775 0.48 1.379zM30.846 12.196h-5.625l1.937-1.402c0.147-0.108 0.178-0.31 0.070-0.449-0.108-0.147-0.31-0.178-0.449-0.070l-2.658 1.929h-1.038v-1.495c0-0.604 0.163-1.069 0.473-1.379 0.465-0.457 1.139-0.449 1.139-0.449h4.548c0.008-0.008 0.666 0 1.131 0.449 0.318 0.31 0.48 0.775 0.48 1.379v1.488h-0.008z"></path>
<path fill="#fff" d="M24.717 21.408c0 1.24 1.007 2.255 2.255 2.255 1.24 0 2.255-1.007 2.255-2.255 0-1.24-1.007-2.255-2.255-2.255-1.247 0.008-2.255 1.015-2.255 2.255zM28.575 21.408c0 0.883-0.721 1.604-1.604 1.604s-1.604-0.721-1.604-1.604 0.721-1.604 1.604-1.604 1.604 0.721 1.604 1.604z"></path>
<path fill="#fff" d="M16 16.124c1.24 0 2.255-1.007 2.255-2.255s-1.007-2.255-2.255-2.255-2.255 1.007-2.255 2.255 1.015 2.255 2.255 2.255zM16 12.265c0.883 0 1.604 0.721 1.604 1.604s-0.721 1.604-1.604 1.604-1.604-0.721-1.604-1.604 0.721-1.604 1.604-1.604z"></path>
</svg>
