<!-- Generated by IcoMoon.io -->
<svg version="1.1" xmlns="http://www.w3.org/2000/svg" width="32" height="32" viewBox="0 0 32 32">
<title>agenda</title>
<path fill="#fff" d="M19.611 14.938c1.72 0 3.115-1.395 3.115-3.115s-1.395-3.115-3.115-3.115-3.115 1.395-3.115 3.115 1.402 3.115 3.115 3.115zM19.611 9.507c1.278 0 2.317 1.038 2.317 2.317s-1.038 2.317-2.317 2.317-2.317-1.038-2.317-2.317 1.038-2.317 2.317-2.317z"></path>
<path fill="#fff" d="M21.478 15.132h-3.673c-2.169 0-3.936 1.705-3.936 3.797v3.959c0 0.217 0.178 0.395 0.395 0.395h10.615c0.217 0 0.395-0.178 0.395-0.395v-3.959c0.008-2.131-1.666-3.797-3.797-3.797zM24.484 22.493h-9.825v-3.564c0-1.658 1.41-3.006 3.138-3.006h3.673c1.689 0 3.006 1.317 3.006 3.006v3.564h0.008z"></path>
<path fill="#fff" d="M28.444 0.504h-22.098c-0.976 0-1.774 0.798-1.774 1.774v2.673h-2.394c-0.217 0-0.395 0.178-0.395 0.395s0.178 0.395 0.395 0.395h2.394v4.54h-2.394c-0.217 0-0.395 0.178-0.395 0.395s0.178 0.395 0.395 0.395h2.394v4.54h-2.394c-0.217 0-0.395 0.178-0.395 0.395s0.178 0.395 0.395 0.395h2.394v4.54h-2.394c-0.217 0-0.395 0.178-0.395 0.395s0.178 0.395 0.395 0.395h2.394v4.533h-2.394c-0.217 0-0.395 0.178-0.395 0.395s0.178 0.395 0.395 0.395h2.394v2.673c0 0.976 0.798 1.774 1.774 1.774h22.098c0.976 0 1.774-0.798 1.774-1.774v-27.452c0-0.976-0.79-1.774-1.774-1.774zM5.37 29.722v-2.673h0.868c0.217 0 0.395-0.178 0.395-0.395s-0.178-0.395-0.395-0.395h-0.868v-4.54h0.868c0.217 0 0.395-0.178 0.395-0.395s-0.178-0.395-0.395-0.395h-0.868v-4.54h0.868c0.217 0 0.395-0.178 0.395-0.395s-0.178-0.395-0.395-0.395h-0.868v-4.54h0.868c0.217 0 0.395-0.178 0.395-0.395s-0.178-0.395-0.395-0.395h-0.868v-4.533h0.868c0.217 0 0.395-0.178 0.395-0.395s-0.178-0.395-0.395-0.395h-0.868v-2.665c0-0.542 0.442-0.976 0.976-0.976h3.006v29.412h-3.006c-0.542-0.008-0.976-0.449-0.976-0.992zM29.428 29.722c0 0.542-0.442 0.976-0.976 0.976h-18.309v-29.404h18.301c0.542 0 0.976 0.442 0.976 0.976v27.452h0.008z"></path>
</svg>
