<!-- Generated by IcoMoon.io -->
<svg version="1.1" xmlns="http://www.w3.org/2000/svg" width="32" height="32" viewBox="0 0 32 32">
<title>agency</title>
<path fill="#fff" d="M23.957 7.097c1.488 0 2.696-1.209 2.696-2.696s-1.209-2.696-2.696-2.696c-1.488 0-2.696 1.209-2.696 2.696s1.209 2.696 2.696 2.696zM23.957 2.487c1.054 0 1.914 0.86 1.914 1.914s-0.86 1.914-1.914 1.914-1.914-0.86-1.914-1.914 0.86-1.914 1.914-1.914z"></path>
<path fill="#fff" d="M8.043 7.097c1.488 0 2.696-1.209 2.696-2.696s-1.209-2.696-2.696-2.696-2.696 1.209-2.696 2.696 1.209 2.696 2.696 2.696zM8.043 2.487c1.054 0 1.914 0.86 1.914 1.914s-0.86 1.914-1.914 1.914-1.914-0.86-1.914-1.914 0.86-1.914 1.914-1.914z"></path>
<path fill="#fff" d="M15.946 7.547c1.945 0 3.518-1.581 3.518-3.518s-1.581-3.525-3.518-3.525-3.518 1.581-3.518 3.518 1.573 3.525 3.518 3.525zM15.946 1.286c1.511 0 2.735 1.224 2.735 2.735s-1.224 2.735-2.735 2.735-2.735-1.224-2.735-2.735 1.224-2.735 2.735-2.735z"></path>
<path fill="#fff" d="M29.707 18.906h-6.725v-6.702c0-1.55-0.806-2.944-2.092-3.711 0.465-0.364 1.038-0.566 1.65-0.566h2.882c1.402 0 2.495 1.093 2.495 2.495v3.363c0 0.217 0.178 0.395 0.395 0.395s0.395-0.178 0.395-0.395v-3.363c0-1.836-1.441-3.277-3.277-3.277h-2.882c-0.922 0-1.79 0.364-2.425 0.992-0.457-0.163-0.945-0.248-1.441-0.248h-5.3c-0.504 0-1 0.085-1.472 0.248-0.597-0.628-1.488-0.992-2.441-0.992h-2.89c-1.836 0-3.277 1.441-3.277 3.277v3.363c0 0.217 0.178 0.395 0.395 0.395s0.395-0.178 0.395-0.395v-3.363c0-1.395 1.093-2.495 2.495-2.495h2.882c0.635 0 1.224 0.201 1.666 0.558-1.364 0.767-2.216 2.169-2.216 3.719v6.671h-3.084c-0.016 0-0.023-0.008-0.031-0.008h-3.51c-0.217 0-0.395 0.178-0.395 0.395v9.050c0 0.217 0.178 0.395 0.395 0.395h3.51c0.217 0 0.395-0.178 0.395-0.395v-1.356h0.868l6.082 3.882c0.744 0.442 1.557 0.659 2.448 0.659 0.62 0 1.278-0.108 1.984-0.318l4.432-1.503 0.24 0.217c0.325 0.294 0.744 0.457 1.185 0.457 0.504 0 0.976-0.217 1.309-0.581 0.318-0.349 0.48-0.798 0.457-1.271s-0.232-0.907-0.581-1.224l-0.194-0.17 0.511-0.465h0.86v1.658c0 0.217 0.178 0.395 0.395 0.395h3.51c0.217 0 0.395-0.178 0.395-0.395v-8.996c0-0.217-0.178-0.395-0.395-0.395zM5.408 26.561v1.356h-2.72v-8.267h2.72v6.911zM9.693 12.203c0-1.418 0.883-2.689 2.247-3.246 0.457-0.186 0.938-0.279 1.433-0.279h5.3c0.488 0 0.961 0.093 1.402 0.279 1.294 0.542 2.131 1.821 2.131 3.247v6.702h-1.418c0.155-0.279 0.248-0.597 0.248-0.938v-0.674c0-0.217-0.178-0.395-0.395-0.395h-6.919c-0.070 0-0.139 0.015-0.201 0.054l-3.2 1.906h-0.628v-6.656zM24.167 29.242v0c-0.349 0.387-1 0.426-1.387 0.070l-0.411-0.372c-0.108-0.093-0.256-0.124-0.387-0.077l-4.641 1.573c-1.495 0.449-2.735 0.356-3.781-0.271l-6.168-3.944c-0.062-0.039-0.139-0.062-0.209-0.062h-0.992v-6.508h4.238c0.070 0 0.139-0.015 0.201-0.054l3.2-1.906h6.416v0.279c0 0.659-0.535 1.185-1.185 1.185h-2.921c-0.077 0-0.147 0.023-0.209 0.062l-5.904 3.781c-0.101 0.062-0.163 0.163-0.178 0.279s0.023 0.232 0.101 0.318l0.473 0.511c0.806 0.868 2.076 1.061 3.092 0.473l2.162-1.162h3.525l4.897 4.424c0.194 0.178 0.31 0.418 0.325 0.682 0.008 0.271-0.077 0.527-0.256 0.721zM25.809 25.848h-1.015c-0.093 0-0.194 0.039-0.263 0.101l-0.69 0.62-3.479-3.146h1.24c0.217 0 0.395-0.178 0.395-0.395s-0.178-0.395-0.395-0.395h-6.028c-0.046 0-0.093 0.008-0.132 0.031-0.008 0-0.015 0.008-0.031 0.008-0.008 0-0.015 0.008-0.023 0.008l-2.262 1.209c-0.705 0.403-1.581 0.271-2.139-0.325l-0.155-0.17 5.416-3.463h2.813c0.372 0 0.713-0.108 1.007-0.287 0.047 0.023 0.101 0.031 0.155 0.031h5.586v6.175zM29.311 27.901h-2.72v-8.213h2.72v8.213z"></path>
</svg>
