<!-- Generated by IcoMoon.io -->
<svg version="1.1" xmlns="http://www.w3.org/2000/svg" width="32" height="32" viewBox="0 0 32 32">
<title>air-conditioning</title>
<path fill="#fff" d="M28.699 16.411h2.379c0.232 0 0.411-0.186 0.411-0.411 0-0.232-0.186-0.411-0.411-0.411h-2.379l2.603-2.417c0.17-0.155 0.178-0.418 0.023-0.589s-0.418-0.178-0.589-0.023l-3.177 2.944c-0.023 0.023-0.047 0.046-0.062 0.077h-1.364l2.596-2.41c0.17-0.155 0.178-0.418 0.023-0.589s-0.418-0.178-0.589-0.023l-3.169 2.944c-0.023 0.023-0.047 0.046-0.070 0.077h-7.981l5.687-5.687c0.023 0 0.047 0.008 0.070 0.008 0.008 0 0.023 0 0.031 0l4.323-0.163c0.225-0.008 0.411-0.201 0.395-0.426-0.008-0.225-0.186-0.411-0.426-0.395l-3.541 0.132 0.961-0.961c0.023 0 0.047 0.008 0.070 0.008 0.008 0 0.023 0 0.031 0l4.323-0.163c0.225-0.008 0.411-0.201 0.395-0.426-0.008-0.225-0.194-0.411-0.426-0.395l-3.541 0.132 1.681-1.681c0.163-0.163 0.163-0.426 0-0.589s-0.426-0.163-0.589 0l-1.681 1.681 0.132-3.541c0.008-0.225-0.17-0.418-0.395-0.426-0.232-0.008-0.418 0.17-0.426 0.395l-0.163 4.323c0 0.031 0 0.070 0.008 0.101l-0.961 0.961 0.132-3.541c0.008-0.225-0.17-0.418-0.395-0.426-0.232-0.008-0.418 0.17-0.426 0.395l-0.163 4.323c0 0.031 0 0.070 0.008 0.101l-5.687 5.687v-8.004c0.023-0.023 0.054-0.039 0.077-0.070l2.944-3.177c0.155-0.17 0.147-0.426-0.023-0.589-0.17-0.155-0.426-0.147-0.589 0.023l-2.41 2.596v-1.348c0.023-0.023 0.054-0.039 0.077-0.070l2.944-3.177c0.155-0.17 0.147-0.426-0.023-0.589-0.17-0.155-0.426-0.147-0.589 0.023l-2.41 2.596v-2.146c0-0.232-0.186-0.411-0.411-0.411-0.232 0-0.411 0.186-0.411 0.411v2.162l-2.433-2.603c-0.155-0.17-0.418-0.178-0.589-0.023s-0.178 0.418-0.023 0.589l2.944 3.177c0.023 0.023 0.046 0.046 0.077 0.070v1.364l-2.41-2.596c-0.155-0.17-0.418-0.178-0.589-0.023s-0.178 0.418-0.023 0.589l2.944 3.177c0.023 0.023 0.046 0.046 0.077 0.070v8.058l-5.687-5.718c0-0.031 0.008-0.062 0.008-0.101l-0.163-4.324c-0.008-0.225-0.194-0.411-0.426-0.395-0.225 0.008-0.411 0.201-0.395 0.426l0.132 3.541-0.961-0.961c0-0.031 0.008-0.062 0.008-0.101l-0.163-4.324c-0.008-0.225-0.186-0.411-0.426-0.395-0.225 0.008-0.411 0.201-0.395 0.426l0.132 3.541-1.697-1.681c-0.163-0.163-0.426-0.163-0.589 0s-0.163 0.426 0 0.589l1.681 1.681-3.541-0.132c-0.217 0-0.418 0.17-0.426 0.395s0.17 0.418 0.395 0.426l4.324 0.163c0.008 0 0.016 0 0.031 0 0.023 0 0.046-0.008 0.070-0.008l0.961 0.961-3.541-0.132c-0.225-0.008-0.418 0.17-0.426 0.395s0.17 0.418 0.395 0.426l4.324 0.163c0.008 0 0.015 0 0.031 0 0.023 0 0.046-0.008 0.070-0.008l5.633 5.633h-7.88c-0.023-0.023-0.039-0.054-0.062-0.077l-3.177-2.944c-0.17-0.155-0.426-0.147-0.589 0.023-0.155 0.17-0.147 0.426 0.023 0.589l2.596 2.41h-1.356c-0.023-0.023-0.039-0.054-0.062-0.077l-3.177-2.944c-0.17-0.155-0.426-0.147-0.589 0.023-0.155 0.17-0.147 0.426 0.023 0.589l2.596 2.41h-2.154c-0.232 0-0.411 0.186-0.411 0.411 0 0.232 0.186 0.411 0.411 0.411h2.162l-2.603 2.433c-0.17 0.155-0.178 0.418-0.023 0.589 0.085 0.085 0.194 0.132 0.302 0.132 0.101 0 0.201-0.039 0.279-0.108l3.169-2.944c0.023-0.023 0.046-0.047 0.070-0.077h1.364l-2.596 2.41c-0.17 0.155-0.178 0.418-0.023 0.589 0.085 0.085 0.194 0.132 0.302 0.132 0.101 0 0.201-0.039 0.279-0.108l3.177-2.944c0.023-0.023 0.046-0.047 0.070-0.077h7.942l-5.579 5.579c-0.031 0-0.062-0.008-0.101-0.008l-4.324 0.163c-0.225 0.008-0.411 0.201-0.395 0.426 0.008 0.225 0.194 0.411 0.426 0.395l3.541-0.132-0.961 0.961c-0.031 0-0.062-0.008-0.101-0.008l-4.324 0.163c-0.225 0.008-0.411 0.201-0.395 0.426s0.194 0.411 0.426 0.395l3.541-0.132-1.526 1.526c-0.163 0.163-0.163 0.426 0 0.589 0.077 0.077 0.186 0.124 0.294 0.124s0.209-0.039 0.294-0.124l1.526-1.526-0.132 3.541c-0.008 0.225 0.17 0.418 0.395 0.426 0.008 0 0.008 0 0.016 0 0.225 0 0.403-0.178 0.411-0.395l0.163-4.323c0-0.031 0-0.070-0.008-0.101l0.961-0.961-0.132 3.541c-0.008 0.225 0.17 0.418 0.395 0.426 0.008 0 0.008 0 0.015 0 0.225 0 0.403-0.178 0.411-0.395l0.163-4.323c0-0.031 0-0.070-0.008-0.101l5.579-5.579v7.934c-0.023 0.023-0.054 0.039-0.077 0.062l-2.944 3.177c-0.155 0.17-0.147 0.426 0.023 0.589 0.17 0.155 0.426 0.147 0.589-0.023l2.41-2.596v1.364c-0.023 0.023-0.054 0.039-0.077 0.062l-2.944 3.177c-0.155 0.17-0.147 0.426 0.023 0.589 0.17 0.155 0.426 0.147 0.589-0.023l2.41-2.603v2.379c0 0.232 0.186 0.411 0.411 0.411 0.232 0 0.411-0.186 0.411-0.411v-2.379l2.41 2.603c0.085 0.085 0.194 0.132 0.302 0.132 0.101 0 0.201-0.039 0.279-0.108 0.17-0.155 0.178-0.418 0.023-0.589l-2.944-3.177c-0.023-0.023-0.047-0.047-0.077-0.062v-1.364l2.41 2.596c0.085 0.085 0.194 0.132 0.302 0.132 0.101 0 0.201-0.039 0.279-0.108 0.17-0.155 0.178-0.418 0.023-0.589l-2.944-3.169c-0.023-0.023-0.047-0.047-0.077-0.062v-7.88l5.571 5.571c0 0.031-0.008 0.062-0.008 0.101l0.163 4.323c0.008 0.225 0.194 0.395 0.411 0.395 0.008 0 0.008 0 0.015 0 0.225-0.008 0.411-0.201 0.395-0.426l-0.132-3.541 0.961 0.961c0 0.031-0.008 0.062-0.008 0.101l0.163 4.323c0.008 0.225 0.194 0.395 0.411 0.395 0.008 0 0.008 0 0.015 0 0.225-0.008 0.411-0.201 0.395-0.426l-0.132-3.541 1.526 1.526c0.077 0.077 0.186 0.124 0.294 0.124s0.209-0.039 0.294-0.124c0.163-0.163 0.163-0.426 0-0.589l-1.48-1.519 3.541 0.132c0.225 0.008 0.418-0.17 0.426-0.395s-0.17-0.418-0.395-0.426l-4.323-0.163c-0.031 0-0.070 0-0.101 0.008l-0.961-0.961 3.541 0.132c0.232 0.008 0.418-0.17 0.426-0.395s-0.17-0.418-0.395-0.426l-4.323-0.163c-0.031 0-0.070 0-0.101 0.008l-5.633-5.633h8.050c0.023 0.023 0.039 0.054 0.070 0.077l3.177 2.944c0.077 0.077 0.178 0.108 0.279 0.108 0.108 0 0.225-0.047 0.302-0.132 0.155-0.17 0.147-0.426-0.023-0.589l-2.596-2.41h1.356c0.023 0.023 0.039 0.054 0.062 0.077l3.177 2.944c0.077 0.077 0.178 0.108 0.279 0.108 0.108 0 0.225-0.047 0.302-0.132 0.155-0.17 0.147-0.426-0.023-0.589l-2.596-2.425z"></path>
</svg>
