<!-- Generated by IcoMoon.io -->
<svg version="1.1" xmlns="http://www.w3.org/2000/svg" width="32" height="32" viewBox="0 0 32 32">
<title>airplane-01</title>
<path fill="#fff" d="M16 19.324c-0.767 0-1.387 0.62-1.387 1.387s0.62 1.387 1.387 1.387 1.387-0.62 1.387-1.387-0.62-1.387-1.387-1.387zM16 21.664c-0.527 0-0.953-0.426-0.953-0.953s0.426-0.953 0.953-0.953 0.953 0.426 0.953 0.953-0.426 0.953-0.953 0.953z"></path>
<path fill="#fff" d="M16 14.714c-1.41 0-3.363 0.705-3.363 2.022 0 0.178 0.070 0.349 0.209 0.48 0.496 0.496 1.798 0.55 3.022 0.55h0.263c0.039 0 0.077 0 0.116 0 1.185 0 2.425-0.070 2.906-0.55 0.139-0.132 0.209-0.302 0.209-0.48 0-1.317-1.953-2.022-3.363-2.022zM18.851 16.914c-0.434 0.434-2.092 0.426-2.72 0.426h-0.263c-0.628 0-2.286 0.008-2.72-0.426-0.070-0.070-0.077-0.139-0.077-0.178 0-0.914 1.55-1.588 2.929-1.588s2.929 0.682 2.929 1.588c0 0.047-0.008 0.108-0.077 0.178z"></path>
<path fill="#fff" d="M30.605 18.665c-0.015-0.015-0.039-0.023-0.062-0.023l-9.36-2.185c-0.666-1.953-2.348-3.332-4.347-3.634v-3.673c0-0.473-0.38-0.852-0.852-0.852s-0.852 0.38-0.852 0.852v3.68c-1.984 0.318-3.642 1.689-4.308 3.634l-9.368 2.177c-0.023 0.008-0.039 0.015-0.062 0.023-0.527 0.116-0.899 0.573-0.899 1.116 0 0.628 0.511 1.147 1.162 1.147v0l3.456-0.318c-0.194 0.302-0.31 0.651-0.31 1.023 0 1.030 0.837 1.875 1.875 1.875s1.875-0.837 1.875-1.875c0-0.488-0.194-0.953-0.519-1.294l2.805-0.256c0.775 2.177 2.828 3.626 5.153 3.626s4.378-1.449 5.153-3.626l2.72 0.248c-0.333 0.341-0.527 0.806-0.527 1.302 0 1.030 0.837 1.875 1.875 1.875s1.875-0.837 1.875-1.875c0-0.372-0.108-0.728-0.31-1.030l3.556 0.325c0.008 0 0.015 0 0.023 0 0.635 0 1.147-0.511 1.147-1.147-0.008-0.542-0.38-1-0.899-1.116zM15.558 9.151c0-0.232 0.186-0.418 0.418-0.418s0.418 0.186 0.418 0.418v3.626c-0.132-0.008-0.263-0.015-0.403-0.015-0.147 0-0.294 0.008-0.442 0.015v-3.626c0 0 0.008 0 0.008 0zM8.136 21.633c0 0.798-0.643 1.441-1.441 1.441s-1.441-0.643-1.441-1.441c0-0.418 0.178-0.806 0.488-1.077l1.689-0.155c0.434 0.256 0.705 0.721 0.705 1.232zM26.654 21.633c0 0.798-0.643 1.441-1.441 1.441s-1.441-0.643-1.441-1.441c0-0.519 0.271-0.984 0.721-1.247l1.666 0.155c0.31 0.271 0.496 0.666 0.496 1.093zM30.357 20.494l-9.337-0.86c-0.101-0.008-0.194 0.054-0.225 0.147-0.674 2.092-2.603 3.494-4.796 3.494-2.2 0-4.122-1.402-4.796-3.494-0.031-0.093-0.116-0.147-0.201-0.147-0.008 0-0.023 0-0.031 0h-0.008l-9.313 0.86c-0.395 0-0.713-0.318-0.713-0.713 0-0.356 0.256-0.651 0.604-0.705 0.031-0.008 0.054-0.015 0.085-0.031l9.391-2.193c0.085-0.008 0.155-0.070 0.178-0.147 0.666-2.107 2.596-3.518 4.804-3.518s4.138 1.41 4.804 3.518c0.023 0.070 0.085 0.124 0.155 0.147l9.414 2.193c0.023 0.015 0.054 0.031 0.085 0.031 0.349 0.054 0.604 0.349 0.604 0.705 0 0.387-0.31 0.705-0.705 0.713z"></path>
</svg>
