<!-- Generated by IcoMoon.io -->
<svg version="1.1" xmlns="http://www.w3.org/2000/svg" width="32" height="32" viewBox="0 0 32 32">
<title>airport</title>
<path fill="#fff" d="M31.442 11.831c-0.054-0.077-0.147-0.124-0.24-0.124h-3.13l1.093-4.99c0.015-0.085 0-0.178-0.062-0.256-0.054-0.070-0.139-0.108-0.232-0.108h-4.85v-2.557h1.96c0.163 0 0.302-0.132 0.302-0.302 0-0.163-0.132-0.302-0.302-0.302h-4.556c-0.163 0-0.302 0.132-0.302 0.302 0 0.163 0.132 0.302 0.302 0.302h1.999v2.557h-4.843c-0.093 0-0.178 0.039-0.232 0.108s-0.077 0.163-0.062 0.256l1.085 4.99h-3.146c-0.093 0-0.186 0.046-0.24 0.124s-0.070 0.178-0.046 0.271l1.697 5.292c0.039 0.124 0.155 0.209 0.287 0.209h1.309v9.693c0 0.163 0.132 0.302 0.302 0.302h8.337c0.163 0 0.302-0.132 0.302-0.302v-9.701h1.34c0.132 0 0.248-0.085 0.287-0.209l1.697-5.292c0.015-0.085 0-0.186-0.054-0.263zM18.944 6.958h9.538l-1.038 4.75h-7.469l-1.030-4.75zM16.635 12.312h6.78v4.688h-5.276l-1.503-4.688zM27.56 26.987h-7.733v-9.391h7.733v9.391zM29.28 17h-5.261v-4.688h6.764l-1.503 4.688z"></path>
<path fill="#fff" d="M29.063 28.196h-10.708c-0.163 0-0.302 0.132-0.302 0.302s0.132 0.302 0.302 0.302h10.708c0.163 0 0.302-0.132 0.302-0.302s-0.139-0.302-0.302-0.302z"></path>
<path fill="#fff" d="M16.852 19.301c-0.294-0.263-0.682-0.256-0.922-0.17-0.178 0.062-2.216 0.829-2.309 0.86-0.155 0.062-0.395 0.108-0.488 0.085l-0.783-0.248c-0.023-0.008-0.108-0.047-0.132-0.093-0.008-0.031 0.031-0.116 0.062-0.163 0 0 1.728-2.046 1.883-2.239 0.426-0.511 0.178-0.868-0.008-1.030-0.124-0.108-0.225-0.194-0.349-0.287l-0.17-0.132c-0.356-0.287-0.852-0.124-0.907-0.108-0.054 0.023-5.656 1.968-5.927 2.053-0.139 0.047-0.333-0.008-0.395-0.023-0.008 0-0.008 0-0.016-0.008l-3.742-1.201c-0.201-0.062-0.411-0.062-0.604 0.008l-1.139 0.38c-0.186 0.062-0.325 0.209-0.387 0.403s-0.031 0.395 0.085 0.55l0.721 0.961c0.124 0.17 0.294 0.294 0.496 0.356l11.622 3.719c0.124 0.039 0.24 0.054 0.356 0.054 0.209 0 0.411-0.062 0.566-0.194 0.201-0.17 2.518-2.131 2.689-2.286 0.434-0.403 0.302-0.728 0.116-0.938-0.077-0.093-0.17-0.178-0.318-0.31zM16.659 20.114c-0.155 0.147-2.464 2.107-2.658 2.262-0.116 0.093-0.302 0.047-0.356 0.023l-11.622-3.719c-0.077-0.023-0.147-0.077-0.194-0.147l-0.721-0.945 0.008-0.031 1.139-0.38c0.039-0.015 0.085-0.023 0.124-0.023s0.077 0.008 0.108 0.015l3.735 1.201c0.070 0.023 0.442 0.147 0.79 0.031 0.271-0.093 5.703-1.976 5.935-2.061 0.077-0.023 0.256-0.054 0.333 0.008l0.17 0.139c0.108 0.085 0.209 0.163 0.318 0.263 0.031 0.023 0.039 0.047 0.039 0.047 0 0.008-0.015 0.054-0.101 0.163-0.155 0.194-1.883 2.231-1.891 2.247-0.031 0.039-0.302 0.411-0.147 0.767 0.139 0.333 0.488 0.434 0.511 0.442l0.775 0.248c0.341 0.108 0.806-0.062 0.891-0.093 0.728-0.279 2.154-0.806 2.286-0.852 0.077-0.023 0.232-0.039 0.325 0.047 0.139 0.124 0.217 0.194 0.287 0.271 0 0 0 0 0 0.008-0.015 0-0.039 0.023-0.085 0.070z"></path>
</svg>
