<!-- Generated by IcoMoon.io -->
<svg version="1.1" xmlns="http://www.w3.org/2000/svg" width="32" height="32" viewBox="0 0 32 32">
<title>airport-tower</title>
<path fill="#fff" d="M25.825 11.475c-0.070-0.101-0.186-0.155-0.31-0.155h-3.983l1.387-6.338c0.023-0.116 0-0.232-0.077-0.318-0.070-0.093-0.178-0.139-0.294-0.139h-6.152v-3.254h2.487c0.209 0 0.38-0.17 0.38-0.38s-0.17-0.38-0.38-0.38h-5.796c-0.209 0-0.38 0.17-0.38 0.38s0.17 0.38 0.38 0.38h2.541v3.247h-6.152c-0.116 0-0.225 0.054-0.294 0.139-0.070 0.093-0.101 0.209-0.077 0.318l1.379 6.338h-3.998c-0.124 0-0.24 0.062-0.31 0.155s-0.093 0.225-0.054 0.341l2.154 6.718c0.054 0.155 0.201 0.263 0.364 0.263h1.658v12.312c0 0.209 0.17 0.38 0.38 0.38h10.592c0.209 0 0.38-0.17 0.38-0.38v-12.304h1.705c0.163 0 0.31-0.108 0.364-0.263l2.154-6.718c0.047-0.116 0.023-0.248-0.047-0.341zM9.949 5.277h12.118l-1.317 6.036h-9.484l-1.317-6.036zM7.012 12.079h8.616v5.958h-6.71l-1.906-5.958zM20.889 30.729h-9.825v-11.932h9.825v11.932zM23.074 18.038h-6.687v-5.958h8.593l-1.906 5.958z"></path>
</svg>
