<!-- Generated by IcoMoon.io -->
<svg version="1.1" xmlns="http://www.w3.org/2000/svg" width="32" height="32" viewBox="0 0 32 32">
<title>airplane-05</title>
<path fill="#fff" d="M31.489 10.065c0.031-0.62-0.108-1.092-0.434-1.441-0.666-0.721-1.953-0.752-3.89-0.798-0.31-0.008-0.635-0.016-0.976-0.023-1.658-0.054-3.541 0.62-5.71 1.402-0.589 0.209-1.201 0.434-1.821 0.643-0.031 0.008-0.054 0.031-0.077 0.046l-10.886-3.626c-1.495-0.411-3.061-0.341-4.517 0.201l-0.186 0.070c-0.38 0.139-0.643 0.48-0.682 0.883s0.155 0.783 0.504 1l7.849 4.711c-1.503 0.752-2.929 1.55-4.192 2.348l-3.13-1.79c-0.55-0.318-1.209-0.426-1.829-0.31-0.395 0.070-0.736 0.333-0.899 0.705-0.17 0.364-0.147 0.79 0.062 1.139l1.898 3.239c-0.767 0.806-1.062 1.457-0.883 1.96 0.256 0.721 1.325 1.030 2.898 1.030 2.906 0 7.547-1.061 12.025-2.549l-0.38 5.935c-0.023 0.418 0.186 0.806 0.55 1.015 0.17 0.093 0.349 0.139 0.535 0.139 0.217 0 0.434-0.062 0.62-0.194l0.17-0.116c1.34-0.93 2.332-2.231 2.875-3.766l1.953-5.199c0.023-0.054 0.023-0.108 0.015-0.17 5.896-2.425 8.438-4.401 8.539-6.485zM27.157 8.5c1.635 0.039 2.836 0.070 3.347 0.535-0.511-0.015-1.116 0-1.658 0.116-0.426 0.093-0.891 0.24-1.387 0.434-0.442 0.17-0.953-0.023-1.185-0.442l-0.364-0.659c0.085 0 0.178-0.008 0.263-0.008 0.349 0.008 0.674 0.015 0.984 0.023zM20.362 21.695c-0.496 1.402-1.41 2.596-2.627 3.44l-0.17 0.124c-0.132 0.093-0.302 0.101-0.442 0.023-0.147-0.077-0.225-0.225-0.209-0.395l0.395-6.144c0-0.023-0.008-0.039-0.008-0.062 0.155-0.054 0.318-0.108 0.473-0.163 1.635-0.573 3.099-1.123 4.416-1.65l-1.829 4.827zM17.534 17.883c-8.833 3.115-14.815 3.448-15.21 2.317-0.093-0.256 0.263-0.945 1.557-2.046 0.139-0.116 0.155-0.325 0.039-0.473-0.116-0.139-0.333-0.155-0.473-0.039-0.132 0.116-0.256 0.225-0.38 0.333l-1.821-3.092c-0.093-0.163-0.108-0.356-0.023-0.527 0.077-0.17 0.232-0.294 0.418-0.325 0.473-0.085 0.961-0.008 1.379 0.232l2.828 1.612c-0.186 0.124-0.364 0.24-0.535 0.356-0.155 0.101-0.194 0.31-0.085 0.465 0.062 0.093 0.17 0.147 0.271 0.147 0.062 0 0.132-0.015 0.186-0.062 1.542-1.054 3.432-2.146 5.47-3.161 0.062-0.031 0.101-0.077 0.132-0.132l2.2 1.325c0.054 0.031 0.116 0.046 0.17 0.046 0.116 0 0.225-0.054 0.287-0.163 0.093-0.155 0.046-0.364-0.116-0.457l-10.669-6.392c-0.132-0.077-0.194-0.217-0.186-0.364 0.015-0.147 0.108-0.271 0.248-0.325l0.186-0.070c1.325-0.496 2.743-0.558 4.091-0.186l13.738 4.571c0.178 0.062 0.364-0.039 0.418-0.209 0.062-0.178-0.039-0.364-0.209-0.418l-1.852-0.62c0.38-0.132 0.752-0.263 1.116-0.395 1.666-0.604 3.154-1.131 4.471-1.302l0.511 0.93c0.294 0.535 0.86 0.845 1.433 0.845 0.194 0 0.38-0.031 0.566-0.108 0.465-0.178 0.907-0.318 1.294-0.403 0.597-0.132 1.309-0.124 1.821-0.085 0.008 0.101 0.015 0.201 0.008 0.325-0.124 2.867-7.167 5.703-13.28 7.849z"></path>
</svg>
