<!-- Generated by IcoMoon.io -->
<svg version="1.1" xmlns="http://www.w3.org/2000/svg" width="32" height="32" viewBox="0 0 32 32">
<title>airplane-04</title>
<path fill="#fff" d="M31.465 12.234c-0.070-0.263-0.248-0.473-0.496-0.566l-1.999-0.775c-0.294-0.116-0.612-0.132-0.922-0.054l-21.23 5.687-3.27-4.114c-0.496-0.635-1.317-0.914-2.092-0.705-0.325 0.085-0.62 0.256-0.868 0.496-0.070 0.070-0.101 0.17-0.077 0.271l1.511 5.625c0.496 1.852 2.2 3.123 3.983 3.123 0.318 0 0.643-0.039 0.961-0.124l4.571-1.224c0.395 0.201 1 0.294 1.72 0.294 1.139 0 2.58-0.232 3.967-0.604 2.27-0.612 4.463-1.612 5.083-2.588l6.88-1.844c0.302-0.085 0.573-0.256 0.767-0.504l1.379-1.658c0.147-0.201 0.201-0.473 0.132-0.736zM17.077 19.030c-3.161 0.845-5.37 0.659-5.501 0.155s1.681-1.774 4.843-2.619c1.402-0.38 2.758-0.581 3.835-0.581 0.015 0 0.039 0 0.054 0 1.185 0.008 1.573 0.271 1.612 0.426 0.139 0.504-1.681 1.774-4.843 2.619zM30.9 12.622l-1.379 1.658c-0.124 0.155-0.294 0.271-0.488 0.318l-6.563 1.767c-0.008-0.031-0.008-0.062-0.015-0.093-0.147-0.542-0.868-0.829-2.139-0.837-1.123 0-2.557 0.201-4.037 0.604-2.836 0.759-5.54 2.131-5.23 3.293 0.008 0.031 0.023 0.062 0.031 0.093l-4.254 1.139c-1.805 0.488-3.766-0.713-4.269-2.603v0l-1.472-5.47c0.155-0.116 0.325-0.209 0.511-0.256 0.566-0.155 1.162 0.046 1.519 0.511l3.378 4.254c0.070 0.085 0.178 0.124 0.287 0.093l21.408-5.741c0.194-0.046 0.395-0.039 0.581 0.031l1.999 0.775c0.077 0.031 0.139 0.101 0.163 0.201 0.031 0.108 0.015 0.201-0.031 0.263z"></path>
</svg>
