<!-- Generated by IcoMoon.io -->
<svg version="1.1" xmlns="http://www.w3.org/2000/svg" width="32" height="32" viewBox="0 0 32 32">
<title>airport-express-train</title>
<path fill="#fff" d="M26.359 2.162c-0.047-0.24-0.201-0.434-0.411-0.527l-1.286-0.581c-0.225-0.101-0.473-0.132-0.721-0.085l-14.047 2.906-1.914-2.712c-0.341-0.504-0.953-0.744-1.55-0.62-0.248 0.054-0.48 0.17-0.674 0.333-0.101 0.085-0.147 0.225-0.124 0.356l0.775 3.75c0.147 0.728 0.597 1.402 1.216 1.836 0.488 0.341 1.046 0.519 1.604 0.519 0.178 0 0.356-0.016 0.542-0.054l2.983-0.62c0.372 0.186 0.914 0.256 1.511 0.256 0.783 0 1.65-0.124 2.309-0.256 1.154-0.24 2.89-0.783 3.502-1.519l4.525-0.938c0.24-0.054 0.457-0.178 0.62-0.356l0.969-1.038c0.155-0.17 0.217-0.411 0.17-0.651zM16.418 5.935c-1.991 0.411-3.146 0.217-3.37 0.046l-0.008-0.008c0.132-0.24 1.108-0.891 3.115-1.302 2.015-0.418 3.169-0.209 3.378-0.039-0.124 0.24-1.1 0.891-3.115 1.302zM24.67 3.347c-0.062 0.070-0.139 0.116-0.225 0.132l-4.207 0.876c-0.163-0.38-0.666-0.604-1.511-0.659-0.759-0.054-1.728 0.039-2.727 0.248-1.426 0.294-3.727 1.054-3.719 2.061l-2.665 0.55c-0.535 0.108-1.092-0.016-1.565-0.349-0.465-0.325-0.806-0.829-0.914-1.379l-0.728-3.51c0.054-0.023 0.108-0.046 0.163-0.054 0.302-0.062 0.604 0.062 0.783 0.318l2.061 2.921c0.085 0.124 0.24 0.186 0.38 0.147l14.295-2.944c0.085-0.016 0.178-0.008 0.263 0.031l1.286 0.573-0.969 1.038z"></path>
<path fill="#fff" d="M23.857 20.688v-0.039c0.008-6.098 0-6.129 0-6.152-0.364-3.409-3.673-6.020-7.686-6.075h-0.124c-4.021 0.054-7.33 2.665-7.694 6.075 0 0.023-0.008 0.054 0 6.152v0.039c0.023 0.24 0.728 5.873 6.447 6.904 0.48 0.085 0.883 0.132 1.232 0.132h0.132c0.341 0 0.79-0.047 1.247-0.132 5.71-1.023 6.423-6.663 6.447-6.904zM17.278 26.855c-0.411 0.077-0.814 0.116-1.108 0.116h-0.132c-0.302 0-0.666-0.039-1.1-0.116-5.067-0.907-5.78-5.819-5.834-6.23 0-2.053 0-5.943 0-6.051 0.325-3.037 3.316-5.362 6.95-5.408 0.023 0 0.047 0 0.047 0h0.054c3.642 0.046 6.632 2.371 6.958 5.377 0 0.139 0 4.021 0 6.082-0.077 0.635-0.806 5.331-5.834 6.23z"></path>
<path fill="#fff" d="M13.164 22.059c-0.814 0-1.48 0.666-1.48 1.48 0 0.821 0.666 1.48 1.48 1.48 0.821 0 1.48-0.666 1.48-1.48s-0.666-1.48-1.48-1.48zM13.164 24.283c-0.403 0-0.736-0.333-0.736-0.736s0.333-0.736 0.736-0.736 0.736 0.333 0.736 0.736c-0.008 0.403-0.333 0.736-0.736 0.736z"></path>
<path fill="#fff" d="M19.076 22.059c-0.814 0-1.48 0.666-1.48 1.48 0 0.821 0.666 1.48 1.48 1.48s1.48-0.666 1.48-1.48c0-0.814-0.666-1.48-1.48-1.48zM19.076 24.283c-0.403 0-0.736-0.333-0.736-0.736s0.333-0.736 0.736-0.736 0.736 0.333 0.736 0.736c-0.008 0.403-0.333 0.736-0.736 0.736z"></path>
<path fill="#fff" d="M16.085 11.033c-2.131 0-4.037 0.527-4.974 1.379-0.775 0.713-0.984 1.852-0.558 3.045 0.55 1.55 2.309 3.417 5.47 3.587h0.101c3.092-0.17 4.835-1.999 5.4-3.51 0.449-1.209 0.256-2.379-0.519-3.123-0.907-0.86-2.743-1.379-4.92-1.379zM20.819 15.279c-0.48 1.302-2.015 2.875-4.719 3.022h-0.062c-2.774-0.155-4.308-1.759-4.781-3.092-0.325-0.907-0.186-1.743 0.356-2.247 0.79-0.721 2.541-1.185 4.471-1.185s3.657 0.457 4.401 1.178c0.55 0.535 0.674 1.402 0.333 2.324z"></path>
<path fill="#fff" d="M10.553 26.708l-4.076 4.076c-0.147 0.147-0.147 0.38 0 0.527 0.070 0.070 0.17 0.108 0.263 0.108s0.194-0.039 0.263-0.108l4.076-4.076c0.147-0.147 0.147-0.38 0-0.527-0.139-0.139-0.38-0.139-0.527 0z"></path>
<path fill="#fff" d="M21.439 26.785c-0.147-0.147-0.38-0.147-0.527 0s-0.147 0.38 0 0.527l4.076 4.076c0.070 0.070 0.17 0.108 0.263 0.108s0.194-0.039 0.263-0.108c0.147-0.147 0.147-0.38 0-0.527l-4.076-4.076z"></path>
</svg>
