<!-- Generated by IcoMoon.io -->
<svg version="1.1" xmlns="http://www.w3.org/2000/svg" width="32" height="32" viewBox="0 0 32 32">
<title>airplane-03</title>
<path fill="#fff" d="M29.993 21.408l-12.025-10.754v-8.19c0-1.085-0.883-1.96-1.976-1.96-1.085 0-1.96 0.883-1.96 1.96v8.19l-12.025 10.754c-0.403 0.356-0.62 0.837-0.628 1.356 0 0.511 0.217 1 0.62 1.356 0.085 0.077 0.201 0.093 0.302 0.039l11.731-5.749v8.182c-3.045 2.603-3.053 2.603-3.068 2.627-0.426 0.465-0.465 1.116-0.093 1.65 0.279 0.403 0.721 0.62 1.17 0.62 0.178 0 0.356-0.031 0.527-0.108l3.432-1.418 3.432 1.418c0.612 0.256 1.309 0.039 1.697-0.519 0.372-0.535 0.333-1.178-0.093-1.65-0.015-0.015-0.015-0.015-3.068-2.619v-8.182l11.731 5.749c0.101 0.047 0.217 0.031 0.302-0.039 0.403-0.364 0.62-0.845 0.62-1.356s-0.225-0.992-0.628-1.356zM29.761 23.585l-11.948-5.85c-0.085-0.039-0.186-0.039-0.263 0.015-0.077 0.047-0.132 0.139-0.132 0.232v8.748c0 0.077 0.039 0.155 0.093 0.209 1.030 0.876 2.96 2.526 3.123 2.673 0.287 0.325 0.209 0.705 0.039 0.953-0.201 0.294-0.604 0.504-1.038 0.325l-3.533-1.457c-0.070-0.031-0.139-0.031-0.209 0l-3.533 1.457c-0.434 0.178-0.837-0.031-1.038-0.325-0.17-0.248-0.256-0.628 0.039-0.953 0.163-0.139 2.1-1.79 3.123-2.673 0.062-0.054 0.093-0.132 0.093-0.209v-8.748c0-0.093-0.046-0.186-0.132-0.232-0.077-0.047-0.178-0.054-0.263-0.015l-11.94 5.85c-0.201-0.232-0.318-0.519-0.31-0.821 0-0.356 0.155-0.69 0.442-0.945l12.118-10.832c0.054-0.054 0.093-0.124 0.093-0.201v-8.314c0-0.783 0.635-1.41 1.426-1.41 0.783 0 1.41 0.635 1.41 1.41v8.314c0 0.077 0.031 0.155 0.093 0.201l12.118 10.832c0.287 0.256 0.442 0.589 0.442 0.945 0 0.302-0.108 0.589-0.31 0.821z"></path>
</svg>
