<!-- Generated by IcoMoon.io -->
<svg version="1.1" xmlns="http://www.w3.org/2000/svg" width="32" height="32" viewBox="0 0 32 32">
<title>airplane-02</title>
<path fill="#fff" d="M29.18 22.144h-23.655c-0.271 0-0.953-0.062-1.317-0.628-0.256-0.395-3.277-5.246-3.487-5.61-0.139-0.248-0.511-0.914 0.217-1.333 0.209-0.116 0.418-0.217 0.744-0.356 0.519-0.232 1.1-0.070 1.449 0.194 0.279 0.209 3.471 2.743 3.611 2.851 0.24 0.194 0.721 0.496 1.015 0.496h1.526c0.015 0 0.349 0.008 0.535-0.209 0.139-0.163 0.062-0.527 0.023-0.635-0.077-0.178-1.914-4.633-2.084-5.060-0.108-0.263-0.426-1.069 0.449-1.464 0.271-0.124 0.496-0.209 0.759-0.302 0.116-0.046 0.248-0.093 0.387-0.147 0.659-0.256 1.364 0.271 1.395 0.294 0.085 0.070 8.98 6.741 9.414 7.059 0.356 0.263 0.899 0.232 0.907 0.24h8.128c1.278 0 2.317 1.038 2.317 2.317s-1.054 2.293-2.332 2.293zM2.216 14.636c-0.108 0-0.217 0.015-0.318 0.062-0.318 0.139-0.504 0.225-0.69 0.333-0.201 0.116-0.256 0.194-0.023 0.612 0.201 0.364 3.216 5.191 3.463 5.579 0.225 0.349 0.682 0.387 0.868 0.387h23.663c0.984 0 1.774-0.798 1.774-1.774 0-0.984-0.798-1.774-1.774-1.774h-8.112c-0.015 0-0.728 0.039-1.24-0.341-0.434-0.318-9.329-6.997-9.414-7.066-0.139-0.101-0.558-0.341-0.876-0.217-0.139 0.054-0.271 0.101-0.387 0.147-0.256 0.093-0.473 0.178-0.728 0.294-0.24 0.108-0.387 0.225-0.17 0.775 0.17 0.426 2.069 5.021 2.084 5.067 0.031 0.085 0.256 0.752-0.116 1.178-0.356 0.418-0.93 0.395-0.953 0.395h-1.511c-0.589 0-1.278-0.55-1.348-0.612-0.031-0.023-3.324-2.634-3.595-2.836-0.147-0.124-0.364-0.209-0.597-0.209z"></path>
</svg>
