<!-- Generated by IcoMoon.io -->
<svg version="1.1" xmlns="http://www.w3.org/2000/svg" width="32" height="32" viewBox="0 0 32 32">
<title>alarm</title>
<path fill="#fff" d="M28.932 26.080c-2.758-3.983-4.277-8.655-4.401-13.497 0-4.006-2.766-7.369-6.485-8.298v-1.712c0-1.139-0.93-2.069-2.069-2.069s-2.069 0.93-2.069 2.069v1.705c-3.727 0.922-6.508 4.293-6.508 8.306-0.124 4.843-1.65 9.515-4.416 13.513-0.186 0.263-0.279 0.581-0.279 0.907 0 0.883 0.721 1.604 1.604 1.604h8.391c0.201 1.627 1.596 2.89 3.277 2.89s3.068-1.263 3.277-2.89h8.368c0.883 0 1.604-0.721 1.604-1.604 0-0.325-0.101-0.635-0.263-0.883-0.008-0.008-0.023-0.031-0.031-0.039zM14.737 2.572c0-0.682 0.558-1.24 1.24-1.24s1.24 0.558 1.24 1.24v1.55c-0.411-0.062-0.821-0.101-1.247-0.101-0.418 0-0.829 0.039-1.232 0.101v-1.55zM15.977 30.667c-1.224 0-2.239-0.891-2.441-2.061h4.881c-0.201 1.17-1.216 2.061-2.441 2.061zM27.622 27.777h-23.307c-0.426 0-0.775-0.349-0.775-0.775 0-0.155 0.046-0.31 0.147-0.457 2.844-4.114 4.416-8.941 4.548-13.97 0-4.269 3.471-7.733 7.733-7.733s7.733 3.471 7.74 7.756c0.132 5.005 1.705 9.825 4.533 13.916 0.008 0.008 0.023 0.039 0.023 0.047 0.085 0.132 0.132 0.279 0.132 0.434 0 0.434-0.349 0.783-0.775 0.783z"></path>
<path fill="#fff" d="M4.021 17.697c0.232 0 0.411-0.186 0.411-0.411 0-2.417 0.736-4.726 2.131-6.687 0.132-0.186 0.085-0.442-0.101-0.573s-0.442-0.085-0.573 0.101c-1.495 2.1-2.286 4.579-2.286 7.167 0.008 0.217 0.194 0.403 0.418 0.403z"></path>
<path fill="#fff" d="M27.56 17.286c0 0.232 0.186 0.411 0.411 0.411s0.411-0.186 0.411-0.411c0-2.572-0.783-5.044-2.262-7.136-0.132-0.186-0.387-0.232-0.573-0.101s-0.232 0.387-0.101 0.573c1.387 1.953 2.115 4.261 2.115 6.663z"></path>
<path fill="#fff" d="M3.308 9.995c-0.201-0.108-0.449-0.031-0.558 0.17-1.17 2.177-1.79 4.633-1.79 7.121 0 0.232 0.186 0.411 0.411 0.411s0.411-0.186 0.411-0.411c0-2.348 0.581-4.672 1.689-6.733 0.108-0.201 0.039-0.449-0.163-0.558z"></path>
<path fill="#fff" d="M29.226 10.111c-0.108-0.201-0.356-0.279-0.558-0.163-0.201 0.108-0.271 0.364-0.163 0.558 1.123 2.069 1.712 4.409 1.712 6.78 0 0.232 0.186 0.411 0.411 0.411s0.411-0.186 0.411-0.411c0.008-2.503-0.62-4.99-1.813-7.175z"></path>
</svg>
