<!-- Generated by IcoMoon.io -->
<svg version="1.1" xmlns="http://www.w3.org/2000/svg" width="32" height="32" viewBox="0 0 32 32">
<title>algorithm</title>
<path fill="#fff" d="M30.466 20.796h-2.983v-2.371c0-1.519-1.1-2.751-2.448-2.751h-8.717v-4.478h2.983c0.573 0 1.038-0.465 1.038-1.030v-5.602c0-0.573-0.465-1.030-1.038-1.030h-6.609c-0.573 0-1.030 0.465-1.030 1.030v5.602c0 0.573 0.465 1.030 1.030 1.030h2.983v4.478h-8.709c-1.348 0-2.448 1.232-2.448 2.751v2.371h-2.983c-0.573 0-1.030 0.465-1.030 1.038v5.602c0 0.573 0.465 1.038 1.030 1.038h6.609c0.573 0 1.030-0.465 1.030-1.038v-5.602c0-0.573-0.465-1.038-1.030-1.038h-2.975v-2.371c0-1.162 0.806-2.108 1.805-2.108h8.709v4.478h-2.983c-0.573 0-1.030 0.465-1.030 1.038v5.602c0 0.573 0.465 1.038 1.030 1.038h6.609c0.573 0 1.038-0.465 1.038-1.038v-5.602c0-0.573-0.465-1.038-1.038-1.038h-2.983v-4.478h8.709c0.992 0 1.805 0.945 1.805 2.108v2.371h-2.983c-0.573 0-1.038 0.465-1.038 1.038v5.602c0 0.573 0.465 1.038 1.038 1.038h6.609c0.573 0 1.030-0.465 1.030-1.038v-5.602c0-0.573-0.465-1.038-1.030-1.038zM12.304 10.166v-5.602c0-0.217 0.178-0.395 0.395-0.395h6.609c0.217 0 0.395 0.178 0.395 0.395v5.602c0 0.217-0.178 0.395-0.395 0.395h-6.609c-0.225 0-0.395-0.178-0.395-0.395zM8.539 21.834v5.602c0 0.217-0.178 0.395-0.395 0.395h-6.609c-0.217 0-0.395-0.178-0.395-0.395v-5.602c0-0.217 0.178-0.395 0.395-0.395h6.609c0.225 0 0.395 0.178 0.395 0.395zM19.696 21.834v5.602c0 0.217-0.178 0.395-0.395 0.395h-6.609c-0.217 0-0.395-0.178-0.395-0.395v-5.602c0-0.217 0.178-0.395 0.395-0.395h6.609c0.225 0 0.395 0.178 0.395 0.395zM30.853 27.436c0 0.217-0.178 0.395-0.395 0.395h-6.609c-0.217 0-0.395-0.178-0.395-0.395v-5.602c0-0.217 0.178-0.395 0.395-0.395h6.609c0.217 0 0.395 0.178 0.395 0.395v5.602z"></path>
</svg>
