<!-- Generated by IcoMoon.io -->
<svg version="1.1" xmlns="http://www.w3.org/2000/svg" width="32" height="32" viewBox="0 0 32 32">
<title>amadeus</title>
<path fill="#fff" d="M22.183 9.894c0.232 0 0.426-0.194 0.426-0.426v-2.27c0-0.232-0.194-0.426-0.426-0.426h-6.044v-1.55c0-0.232-0.194-0.426-0.426-0.426h-4.788c-0.232 0-0.426 0.194-0.426 0.426v1.55h-0.674c-0.232 0-0.426 0.194-0.426 0.426v2.278c0 0.232 0.194 0.426 0.426 0.426h0.287v19.115h-0.287c-0.232 0-0.426 0.194-0.426 0.426v1.627c0 0.232 0.194 0.426 0.426 0.426h12.358c0.232 0 0.426-0.194 0.426-0.426v-1.635c0-0.232-0.194-0.426-0.426-0.426h-0.287v-19.115h0.287zM21.757 9.050h-0.287c-0.232 0-0.426 0.194-0.426 0.426v19.967c0 0.232 0.194 0.426 0.426 0.426h0.287v0.783h-11.514v-0.783h0.287c0.232 0 0.426-0.194 0.426-0.426v-19.967c0-0.232-0.194-0.426-0.426-0.426h-0.287v-1.426h0.674c0.232 0 0.426-0.194 0.426-0.426v-1.542h3.936v1.55c0 0.232 0.194 0.426 0.426 0.426h6.044l0.008 1.418z"></path>
<path fill="#fff" d="M12.614 3.758c0.325 0 0.829-0.124 1.17-0.434l0.015 0.008c0.085 0.341 0.356 0.418 0.674 0.418 0.139 0 0.279-0.015 0.403-0.046 0.124-0.023 0.186-0.070 0.186-0.163v-0.411c0-0.077-0.023-0.101-0.139-0.108-0.201-0.023-0.24-0.039-0.24-0.31v-1.007c0-0.759-0.17-1.201-1.402-1.201-0.302 0-0.829 0.046-1.131 0.155-0.201 0.077-0.232 0.139-0.209 0.248l0.070 0.333c0.031 0.124 0.062 0.124 0.248 0.108 0.256-0.023 0.666-0.054 0.86-0.054 0.488 0 0.573 0.108 0.573 0.38v0.101h-0.752c-0.775 0-1.271 0.271-1.255 1.062 0.008 0.473 0.163 0.922 0.93 0.922zM13.094 2.386h0.589v0.426c-0.186 0.108-0.488 0.225-0.69 0.225-0.225 0-0.294-0.062-0.294-0.263 0-0.302 0.155-0.387 0.395-0.387z"></path>
<path fill="#fff" d="M14.838 10.15h-2.123c-0.232 0-0.426 0.194-0.426 0.426s0.194 0.426 0.426 0.426h2.123c0.232 0 0.426-0.194 0.426-0.426s-0.194-0.426-0.426-0.426z"></path>
<path fill="#fff" d="M16.961 11.002h2.123c0.232 0 0.426-0.194 0.426-0.426s-0.194-0.426-0.426-0.426h-2.123c-0.232 0-0.426 0.194-0.426 0.426s0.194 0.426 0.426 0.426z"></path>
<path fill="#fff" d="M14.838 13.071h-2.123c-0.232 0-0.426 0.194-0.426 0.426s0.194 0.426 0.426 0.426h2.123c0.232 0 0.426-0.194 0.426-0.426s-0.194-0.426-0.426-0.426z"></path>
<path fill="#fff" d="M16.961 13.924h2.123c0.232 0 0.426-0.194 0.426-0.426s-0.194-0.426-0.426-0.426h-2.123c-0.232 0-0.426 0.194-0.426 0.426s0.194 0.426 0.426 0.426z"></path>
<path fill="#fff" d="M14.838 15.992h-2.123c-0.232 0-0.426 0.194-0.426 0.426s0.194 0.426 0.426 0.426h2.123c0.232 0 0.426-0.194 0.426-0.426s-0.194-0.426-0.426-0.426z"></path>
<path fill="#fff" d="M16.961 16.845h2.123c0.232 0 0.426-0.194 0.426-0.426s-0.194-0.426-0.426-0.426h-2.123c-0.232 0-0.426 0.194-0.426 0.426 0 0.24 0.194 0.426 0.426 0.426z"></path>
<path fill="#fff" d="M14.838 18.913h-2.123c-0.232 0-0.426 0.194-0.426 0.426s0.194 0.426 0.426 0.426h2.123c0.232 0 0.426-0.194 0.426-0.426s-0.194-0.426-0.426-0.426z"></path>
<path fill="#fff" d="M16.961 19.766h2.123c0.232 0 0.426-0.194 0.426-0.426s-0.194-0.426-0.426-0.426h-2.123c-0.232 0-0.426 0.194-0.426 0.426s0.194 0.426 0.426 0.426z"></path>
<path fill="#fff" d="M14.838 21.842h-2.123c-0.232 0-0.426 0.194-0.426 0.426s0.194 0.426 0.426 0.426h2.123c0.232 0 0.426-0.194 0.426-0.426 0-0.24-0.194-0.426-0.426-0.426z"></path>
<path fill="#fff" d="M16.961 22.687h2.123c0.232 0 0.426-0.194 0.426-0.426s-0.194-0.426-0.426-0.426h-2.123c-0.232 0-0.426 0.194-0.426 0.426 0 0.24 0.194 0.426 0.426 0.426z"></path>
<path fill="#fff" d="M14.838 24.763h-2.123c-0.232 0-0.426 0.194-0.426 0.426s0.194 0.426 0.426 0.426h2.123c0.232 0 0.426-0.194 0.426-0.426 0-0.24-0.194-0.426-0.426-0.426z"></path>
<path fill="#fff" d="M16.961 25.616h2.123c0.232 0 0.426-0.194 0.426-0.426s-0.194-0.426-0.426-0.426h-2.123c-0.232 0-0.426 0.194-0.426 0.426s0.194 0.426 0.426 0.426z"></path>
</svg>
