<!-- Generated by IcoMoon.io -->
<svg version="1.1" xmlns="http://www.w3.org/2000/svg" width="32" height="32" viewBox="0 0 32 32">
<title>amadeus-workshop</title>
<path fill="#fff" d="M13.118 18.743l-2.479 0.093c-1.441 0.047-2.17 0.666-2.17 1.844 0 0.79 0.356 1.736 2.038 1.736 0.93 0 2.154-0.387 2.735-0.62 0.132-0.054 0.217-0.178 0.217-0.318v-2.402c0-0.093-0.039-0.178-0.101-0.24s-0.147-0.093-0.24-0.093zM12.792 21.253c-0.566 0.201-1.55 0.488-2.278 0.488-1.201 0-1.364-0.535-1.364-1.061 0-0.581 0.186-1.123 1.511-1.17l2.131-0.077v1.821z"></path>
<path fill="#fff" d="M11.731 12.645c-2.193 0-3.882 0.55-4.533 0.876-0.147 0.070-0.217 0.24-0.17 0.395l0.504 1.767c0.023 0.093 0.085 0.163 0.17 0.209s0.178 0.046 0.271 0.015c0.016-0.008 1.573-0.558 3.076-0.558 1.294 0 1.712 0.333 1.712 1.379v0.418h-1.712c-4.223 0-4.85 2.317-4.85 3.696 0 2.526 1.976 3.425 3.82 3.425 1.604 0 2.673-0.527 3.13-0.752 0.023-0.008 0.039-0.023 0.062-0.031 0.263 0.132 0.852 0.395 2.27 0.395 0.186 0 0.341-0.155 0.341-0.341v-7.446c-0.015-2.286-1.387-3.448-4.091-3.448zM15.132 23.206c-1.085-0.039-1.503-0.256-1.666-0.341-0.077-0.039-0.155-0.077-0.263-0.077s-0.186 0.039-0.364 0.124c-0.411 0.201-1.379 0.682-2.828 0.682-0.945 0-3.146-0.271-3.146-2.751 0-2.007 1.402-3.022 4.176-3.022h2.053c0.186 0 0.341-0.155 0.341-0.341v-0.759c0-1.821-1.278-2.053-2.386-2.053-1.201 0-2.394 0.31-2.968 0.488l-0.325-1.147c0.705-0.287 2.154-0.69 3.975-0.69 2.324 0 3.401 0.883 3.401 2.782v7.105z"></path>
<path fill="#fff" d="M31.117 11.080l-1.061-1.1c-0.519-0.535-1.379-0.55-1.922-0.031l-1.069 1.030-5.563 5.377v-12.149c0-0.488-0.403-0.891-0.891-0.891h-13.645c-0.008 0-0.016 0.008-0.023 0.008-0.031 0-0.062 0.008-0.085 0.015-0.008 0-0.023 0.008-0.031 0.008-0.039 0.015-0.070 0.039-0.101 0.062l-6.121 6.121c-0.031 0.031-0.046 0.062-0.062 0.101-0.008 0.008-0.008 0.023-0.008 0.031-0.008 0.031-0.015 0.062-0.015 0.085 0 0.008-0.008 0.015-0.008 0.023v18.022c0 0.488 0.403 0.891 0.891 0.891h19.215c0.488 0 0.891-0.403 0.891-0.891v-5.524l9.585-9.267c0.527-0.519 0.542-1.379 0.023-1.922zM19.711 23.059l-2.015-2.076 9.592-9.282 0.767 0.798-7.903 7.64c-0.132 0.132-0.139 0.341-0.008 0.48 0.070 0.070 0.155 0.101 0.24 0.101s0.17-0.031 0.232-0.093l7.903-7.64 0.767 0.798-9.577 9.275zM18.929 23.221l-1.526 0.047 0.101-1.519 1.426 1.472zM6.625 4.471v4.967h-4.967l4.967-4.967zM20.819 27.793c0 0.116-0.101 0.217-0.217 0.217h-19.208c-0.116 0-0.217-0.101-0.217-0.217v-17.681h5.78c0.186 0 0.341-0.155 0.341-0.341v-5.78h13.311c0.116 0 0.217 0.101 0.217 0.217v12.8c0 0 0 0 0 0.008l-3.835 3.711c-0.008 0.008-0.008 0.008-0.008 0.015-0.023 0.023-0.039 0.047-0.054 0.077-0.008 0.008-0.008 0.015-0.015 0.023-0.015 0.031-0.023 0.070-0.023 0.108l-0.178 2.65c-0.008 0.093 0.031 0.186 0.093 0.256s0.155 0.101 0.24 0.101h0.008l2.658-0.085c0.039 0 0.070-0.008 0.108-0.023 0.008 0 0.015-0.008 0.023-0.015 0.031-0.015 0.054-0.031 0.077-0.047 0.008-0.008 0.008-0.008 0.015-0.008l0.883-0.852v4.866zM30.613 12.513l-0.821 0.798-2.015-2.076 0.821-0.798c0.132-0.124 0.294-0.209 0.488-0.194 0.178 0 0.349 0.077 0.48 0.209l1.061 1.1c0.124 0.132 0.194 0.302 0.194 0.488-0.008 0.178-0.077 0.349-0.209 0.473z"></path>
</svg>
