<!-- Generated by IcoMoon.io -->
<svg version="1.1" xmlns="http://www.w3.org/2000/svg" width="32" height="32" viewBox="0 0 32 32">
<title>API</title>
<path fill="#fff" d="M27.491 12.18l-0.294 0.015c-1.162 0.062-2.193 0.411-3.061 1.030-0.302 0.217-0.767 0.69-0.969 0.984-0.139 0.209-0.294 0.488-0.387 0.713h-0.992v-1.852c0-0.752-0.511-1.356-1.147-1.356h-9.337c-0.635 0-1.147 0.612-1.147 1.356v1.86h-0.93c-0.093-0.225-0.24-0.504-0.387-0.713-0.201-0.294-0.666-0.767-0.969-0.984-0.868-0.62-1.891-0.969-3.061-1.030l-0.294-0.015c-0.116-0.008-0.217 0.031-0.302 0.108-0.077 0.077-0.124 0.186-0.124 0.294v7.004c0 0.108 0.046 0.209 0.124 0.287s0.178 0.116 0.279 0.116h0.008l0.17-0.008c0.101 0 0.232-0.008 0.294-0.015 1.65-0.124 3.138-0.914 3.897-2.046 0.139-0.209 0.271-0.457 0.364-0.682h0.938v1.681c0 0.752 0.511 1.356 1.147 1.356h9.329c0.635 0 1.147-0.612 1.147-1.356v-1.674h0.992c0.085 0.217 0.225 0.465 0.364 0.674 0.759 1.131 2.247 1.922 3.897 2.046 0.062 0.008 0.194 0.008 0.294 0.015l0.17 0.008h0.008c0.108 0 0.209-0.039 0.279-0.116 0.077-0.077 0.124-0.178 0.124-0.287v-7.004c0-0.108-0.047-0.217-0.124-0.294-0.085-0.085-0.194-0.124-0.302-0.116zM8.934 16.442c-0.178 0-0.325 0.116-0.38 0.279l-0.039 0.124c-0.054 0.178-0.186 0.434-0.325 0.635-0.62 0.93-1.883 1.581-3.285 1.689 0 0 0 0-0.008 0v-6.152c0.953 0.070 1.798 0.364 2.503 0.876 0.225 0.163 0.628 0.566 0.775 0.783s0.302 0.519 0.341 0.659l0.039 0.124c0.054 0.17 0.209 0.287 0.387 0.287l1.224 0.008v0.697l-1.232-0.008zM20.633 19.471h-9.329c-0.163 0-0.341-0.232-0.341-0.55v-5.842c0-0.318 0.178-0.55 0.341-0.55h9.329c0.163 0 0.341 0.232 0.341 0.55v5.842c0 0.318-0.178 0.55-0.341 0.55zM27.103 19.169v0c-1.41-0.108-2.673-0.759-3.293-1.689-0.132-0.201-0.263-0.457-0.325-0.635l-0.039-0.124c-0.054-0.17-0.209-0.279-0.387-0.279h-1.286v-0.705h1.278c0.178 0 0.333-0.116 0.387-0.287l0.039-0.124c0.047-0.139 0.194-0.442 0.341-0.659s0.55-0.62 0.775-0.783c0.705-0.511 1.55-0.798 2.503-0.868v6.152h0.008z"></path>
<path fill="#fff" d="M31.093 17.255h-1.86v-2.658h1.86c0.225 0 0.403-0.178 0.403-0.403s-0.178-0.403-0.403-0.403h-1.86v-1.34c0-0.225-0.178-0.403-0.403-0.403s-0.403 0.178-0.403 0.403v7.175c0 0.225 0.178 0.403 0.403 0.403s0.403-0.178 0.403-0.403v-1.565h1.86c0.225 0 0.403-0.178 0.403-0.403s-0.178-0.403-0.403-0.403z"></path>
<path fill="#fff" d="M3.169 12.041c-0.225 0-0.403 0.178-0.403 0.403v1.348h-1.86c-0.225 0-0.403 0.178-0.403 0.403s0.178 0.403 0.403 0.403h1.86v2.658h-1.86c-0.225 0-0.403 0.178-0.403 0.403s0.178 0.403 0.403 0.403h1.86v1.565c0 0.225 0.178 0.403 0.403 0.403s0.403-0.178 0.403-0.403v-7.175c0-0.232-0.178-0.411-0.403-0.411z"></path>
<path fill="#fff" d="M13.947 13.784h-0.194c-0.093 0.008-0.155 0.046-0.178 0.132l-1.325 3.959-0.031 0.101 0.039 0.062c0.046 0.070 0.132 0.070 0.155 0.070h0.155c0.139 0 0.178-0.108 0.178-0.139l0.325-1.007h1.557l0.325 1.007c0.015 0.054 0.062 0.132 0.186 0.132h0.163c0.023 0 0.101 0 0.147-0.070l0.039-0.093-1.356-4.037c-0.015-0.015-0.054-0.116-0.186-0.116zM13.234 16.488l0.612-1.867 0.62 1.867h-1.232z"></path>
<path fill="#fff" d="M17.054 13.784h-1.162c-0.101 0-0.186 0.077-0.186 0.178v3.967c0 0.108 0.077 0.186 0.186 0.186h0.147c0.101 0 0.178-0.077 0.178-0.186v-1.565h0.86c0.883 0 1.286-0.666 1.286-1.317-0.008-0.783-0.504-1.263-1.309-1.263zM16.217 14.272h0.767c0.395 0 0.86 0.132 0.86 0.775 0 0.767-0.589 0.829-0.775 0.829h-0.852v-1.604z"></path>
<path fill="#fff" d="M19.154 13.784h-0.155c-0.108 0-0.17 0.070-0.17 0.178v3.975c0 0.132 0.093 0.178 0.17 0.178h0.155c0.077 0 0.17-0.047 0.17-0.178v-3.975c0-0.132-0.093-0.178-0.17-0.178z"></path>
</svg>
