<!-- Generated by IcoMoon.io -->
<svg version="1.1" xmlns="http://www.w3.org/2000/svg" width="32" height="32" viewBox="0 0 32 32">
<title>approved</title>
<path fill="#fff" d="M21.447 18.162c2.549-1.743 4.223-4.672 4.223-7.988 0-5.331-4.339-9.67-9.67-9.67s-9.67 4.339-9.67 9.67c0 3.061 1.433 5.796 3.665 7.57l-3.231 11.235c-0.039 0.147 0 0.302 0.116 0.411 0.116 0.101 0.279 0.132 0.418 0.077l3.967-1.511 2.565 3.386c0.077 0.101 0.194 0.163 0.325 0.163 0.023 0 0.046 0 0.077-0.008 0.147-0.031 0.271-0.139 0.318-0.287l1.116-3.921 1.123 3.921c0.039 0.147 0.163 0.256 0.318 0.287 0.023 0.008 0.047 0.008 0.077 0.008 0.124 0 0.248-0.062 0.325-0.163l2.565-3.386 3.967 1.511c0.139 0.054 0.302 0.023 0.418-0.077s0.155-0.263 0.116-0.411l-3.13-10.816zM7.136 10.173c0-4.889 3.975-8.864 8.864-8.864s8.864 3.975 8.864 8.864-3.975 8.864-8.864 8.864c-1.976 0-3.804-0.651-5.284-1.751-0.008-0.008-0.015-0.015-0.023-0.015-2.154-1.619-3.556-4.2-3.556-7.097zM13.985 30.202l-2.255-2.983c-0.108-0.139-0.302-0.201-0.465-0.132l-3.494 1.333 2.921-10.173c0.829 0.55 1.751 0.969 2.735 1.247l1.805 6.315-1.247 4.393zM20.052 27.088c-0.17-0.062-0.356-0.008-0.465 0.132l-2.255 2.983-3.006-10.507c0.542 0.093 1.108 0.147 1.681 0.147 1.72 0 3.332-0.449 4.734-1.24l2.813 9.817-3.502-1.333z"></path>
<path fill="#fff" d="M16 17.255c3.905 0 7.082-3.177 7.082-7.082s-3.177-7.074-7.082-7.074-7.082 3.177-7.082 7.082 3.177 7.074 7.082 7.074zM16 3.905c3.456 0 6.268 2.813 6.268 6.268s-2.813 6.268-6.268 6.268-6.268-2.813-6.268-6.268 2.813-6.268 6.268-6.268z"></path>
<path fill="#fff" d="M12.087 9.894l1.658 1.255-0.604 1.929c-0.008 0.015-0.008 0.031-0.015 0.054-0.046 0.263 0.062 0.519 0.279 0.682 0.124 0.093 0.271 0.139 0.411 0.139 0.108 0 0.225-0.023 0.325-0.077 0.015-0.008 0.031-0.015 0.039-0.023l1.705-1.154 1.705 1.154c0.015 0.008 0.023 0.015 0.039 0.023 0.24 0.124 0.519 0.101 0.736-0.054s0.318-0.418 0.271-0.682c0-0.015-0.008-0.031-0.015-0.054l-0.604-1.929 1.658-1.255c0.015-0.008 0.023-0.023 0.039-0.031 0.194-0.186 0.263-0.457 0.178-0.713s-0.302-0.442-0.566-0.48c-0.015 0-0.039-0.008-0.054-0.008l-2.069-0.015-0.674-1.96c-0.008-0.016-0.015-0.031-0.023-0.046-0.116-0.24-0.356-0.387-0.628-0.387s-0.511 0.147-0.628 0.387c-0.008 0.016-0.015 0.031-0.023 0.046l-0.674 1.96-2.069 0.015c-0.015 0-0.039 0-0.054 0.008-0.263 0.039-0.488 0.225-0.566 0.48-0.085 0.256-0.015 0.527 0.178 0.713 0.023 0 0.031 0.008 0.046 0.023zM14.714 9.461c0.015 0 0.039 0 0.054-0.008 0.217-0.031 0.395-0.163 0.496-0.356 0.008-0.015 0.015-0.031 0.023-0.046l0.604-1.759 0.604 1.759c0.008 0.015 0.015 0.031 0.023 0.046 0.093 0.194 0.279 0.325 0.496 0.356 0.015 0 0.039 0 0.054 0.008l1.844 0.015-1.472 1.116c-0.015 0.008-0.023 0.023-0.039 0.031-0.155 0.147-0.225 0.372-0.194 0.581 0 0.015 0.008 0.031 0.015 0.054l0.542 1.728-1.526-1.030c-0.015-0.008-0.023-0.015-0.039-0.023-0.186-0.101-0.418-0.101-0.604 0-0.015 0.008-0.031 0.015-0.039 0.023l-1.526 1.030 0.542-1.728c0.008-0.015 0.008-0.031 0.015-0.054 0.039-0.209-0.039-0.426-0.194-0.581-0.008-0.008-0.023-0.023-0.039-0.031l-1.472-1.116 1.829-0.015z"></path>
</svg>
