<!-- Generated by IcoMoon.io -->
<svg version="1.1" xmlns="http://www.w3.org/2000/svg" width="32" height="32" viewBox="0 0 32 32">
<title>approved-idea</title>
<path fill="#fff" d="M20.378 6.609l-5.943 8.67-2.596-3.727c-0.139-0.201-0.418-0.248-0.612-0.108-0.201 0.139-0.248 0.411-0.108 0.612l2.96 4.254c0.085 0.116 0.217 0.186 0.364 0.186v0c0.147 0 0.279-0.070 0.364-0.194l6.307-9.197c0.139-0.201 0.085-0.473-0.116-0.612-0.209-0.139-0.48-0.085-0.62 0.116z"></path>
<path fill="#fff" d="M16 0.504c-5.71 0-10.359 4.649-10.359 10.359 0 3.231 1.534 6.299 4.114 8.252v8.399c0 0.24 0.201 0.442 0.442 0.442h1.836c0.217 1.991 1.914 3.541 3.959 3.541s3.742-1.557 3.959-3.541h1.689c0.24 0 0.442-0.201 0.442-0.442v-8.283c2.673-1.953 4.269-5.060 4.269-8.368 0.008-5.71-4.641-10.359-10.352-10.359zM16 30.613c-1.557 0-2.851-1.162-3.068-2.658h6.137c-0.217 1.495-1.511 2.658-3.068 2.658zM10.638 27.072v-2.239h10.569v2.239h-10.569zM21.393 18.642c-0.116 0.085-0.186 0.217-0.186 0.364v1.79h-8.283c-0.24 0-0.442 0.201-0.442 0.442s0.201 0.442 0.442 0.442h8.283v2.262h-10.569v-5.060c0-0.139-0.070-0.271-0.186-0.356-2.464-1.782-3.928-4.649-3.928-7.671 0-5.222 4.246-9.476 9.476-9.476s9.476 4.246 9.476 9.476c0 3.099-1.526 6.013-4.083 7.787z"></path>
</svg>
