<!-- Generated by IcoMoon.io -->
<svg version="1.1" xmlns="http://www.w3.org/2000/svg" width="32" height="32" viewBox="0 0 32 32">
<title>attachment</title>
<path fill="#fff" d="M27.413 10.964c0-0.039-0.008-0.077-0.023-0.116-0.008-0.015-0.008-0.031-0.015-0.046-0.023-0.046-0.047-0.093-0.085-0.132l-6.609-6.609c-0.039-0.039-0.085-0.070-0.132-0.085-0.015-0.008-0.031-0.008-0.039-0.015-0.039-0.015-0.077-0.023-0.124-0.023-0.008 0-0.015-0.008-0.031-0.008h-3.673v-0.062c0-1.852-1.511-3.363-3.363-3.363s-3.363 1.511-3.363 3.363v0.062h-4.331c-0.581 0-1.046 0.473-1.046 1.046v25.476c0 0.581 0.473 1.046 1.046 1.046h20.75c0.581 0 1.046-0.473 1.046-1.046v-19.456c0-0.015-0.008-0.023-0.008-0.031zM20.812 5.478l5.067 5.060h-5.060v-5.060h-0.008zM10.871 3.866c0-1.356 1.1-2.456 2.456-2.456s2.456 1.1 2.456 2.456v0.062h-4.912v-0.062zM26.375 30.59h-20.75c-0.077 0-0.139-0.062-0.139-0.139v-25.468c0-0.077 0.062-0.139 0.139-0.139h4.331v10.204c0 1.356 1.1 2.456 2.456 2.456s2.456-1.1 2.456-2.456v-4.052c0-0.248-0.201-0.449-0.449-0.449s-0.449 0.201-0.449 0.449v4.052c0 0.852-0.697 1.55-1.55 1.55s-1.55-0.697-1.55-1.55v-10.212h9.042v6.152c0 0.248 0.201 0.449 0.449 0.449h6.152v19.014c0 0.077-0.062 0.139-0.139 0.139z"></path>
</svg>
