<!-- Generated by IcoMoon.io -->
<svg version="1.1" xmlns="http://www.w3.org/2000/svg" width="32" height="32" viewBox="0 0 32 32">
<title>audience</title>
<path fill="#fff" d="M24.159 11.862c-1.48 0-2.689 1.209-2.689 2.689s1.209 2.689 2.689 2.689 2.689-1.209 2.689-2.689-1.209-2.689-2.689-2.689zM24.159 16.589c-1.123 0-2.030-0.914-2.030-2.030s0.914-2.030 2.030-2.030 2.030 0.914 2.030 2.030-0.907 2.030-2.030 2.030z"></path>
<path fill="#fff" d="M7.841 11.862c-1.48 0-2.689 1.209-2.689 2.689s1.209 2.689 2.689 2.689 2.689-1.209 2.689-2.689-1.201-2.689-2.689-2.689zM7.841 16.589c-1.123 0-2.030-0.914-2.030-2.030s0.914-2.030 2.030-2.030c1.123 0 2.030 0.914 2.030 2.030s-0.907 2.030-2.030 2.030z"></path>
<path fill="#fff" d="M15.946 10.638c-1.953 0-3.533 1.588-3.533 3.533 0 1.953 1.588 3.533 3.533 3.533 1.953 0 3.533-1.588 3.533-3.533 0-1.953-1.588-3.533-3.533-3.533zM15.946 17.046c-1.588 0-2.875-1.294-2.875-2.875 0-1.588 1.294-2.875 2.875-2.875 1.588 0 2.875 1.294 2.875 2.875 0 1.588-1.294 2.875-2.875 2.875z"></path>
<path fill="#fff" d="M27.754 4.44h-23.508c-2.061 0-3.742 1.681-3.742 3.742v12.575c0 1.705 1.147 3.192 2.797 3.626 0.031 0.008 0.054 0.008 0.085 0.008 0.039 0 0.085-0.008 0.124-0.023 0.008 0 0.015-0.008 0.023-0.008 0.031-0.015 0.054-0.031 0.077-0.054 0.008-0.008 0.015-0.015 0.023-0.023 0.023-0.023 0.039-0.047 0.046-0.070 0.008-0.008 0.008-0.023 0.015-0.031 0-0.008 0.008-0.015 0.015-0.031s0-0.031 0-0.047 0.008-0.023 0.008-0.039v-3.332c0-1.472 1.154-2.627 2.627-2.627h2.952c0.705 0 1.364 0.24 1.829 0.659-1.426 0.759-2.324 2.2-2.324 3.797v4.68c0 0.178 0.147 0.325 0.325 0.325h13.621c0.178 0 0.325-0.147 0.325-0.325v-4.68c0-1.596-0.852-3.037-2.2-3.789 0.496-0.426 1.139-0.666 1.821-0.666h2.952c1.472 0 2.627 1.154 2.627 2.627v3.332c0 0.015 0.008 0.031 0.008 0.047s0 0.023 0 0.039c0 0.008 0.008 0.015 0.008 0.023 0.008 0.023 0.015 0.047 0.031 0.062 0.008 0.015 0.015 0.031 0.031 0.047s0.031 0.031 0.047 0.047 0.031 0.023 0.047 0.031 0.039 0.015 0.054 0.023c0.023 0.008 0.047 0.015 0.070 0.015 0.008 0 0.015 0.008 0.023 0.008 0.015 0 0.023-0.008 0.039-0.008s0.031 0 0.047 0c1.643-0.434 2.797-1.922 2.797-3.626v-12.591c0.023-2.061-1.658-3.742-3.719-3.742zM22.423 22.555v4.347h-12.963v-4.347c0-1.48 0.922-2.813 2.348-3.394 0.473-0.194 0.976-0.294 1.503-0.294h5.431c0.511 0 1 0.101 1.464 0.287 1.348 0.573 2.216 1.906 2.216 3.401zM30.838 20.757c0 1.255-0.759 2.371-1.891 2.844v-2.875c0-1.844-1.441-3.285-3.285-3.285h-2.96c-0.945 0-1.829 0.372-2.472 1.030-0.48-0.17-0.976-0.263-1.495-0.263h-5.431c-0.527 0-1.038 0.093-1.526 0.263-0.597-0.651-1.503-1.030-2.479-1.030h-2.96c-1.844 0-3.285 1.441-3.285 3.285v2.875c-1.131-0.473-1.891-1.588-1.891-2.844v-12.575c0-1.705 1.387-3.084 3.084-3.084h23.5c1.705 0 3.084 1.387 3.084 3.084v12.575h0.008z"></path>
</svg>
