<!-- Generated by IcoMoon.io -->
<svg version="1.1" xmlns="http://www.w3.org/2000/svg" width="32" height="32" viewBox="0 0 32 32">
<title>automatic-transmission</title>
<path fill="#fff" d="M21.129 5.641h4.432c0.186 0 0.341-0.155 0.341-0.341s-0.155-0.341-0.341-0.341h-4.432c-0.186 0-0.341 0.155-0.341 0.341 0 0.194 0.155 0.341 0.341 0.341z"></path>
<path fill="#fff" d="M25.561 9.182h-4.432c-0.186 0-0.341 0.155-0.341 0.341s0.155 0.341 0.341 0.341h4.432c0.186 0 0.341-0.155 0.341-0.341s-0.155-0.341-0.341-0.341z"></path>
<path fill="#fff" d="M25.561 13.397h-4.432c-0.186 0-0.341 0.155-0.341 0.341s0.155 0.341 0.341 0.341h4.432c0.186 0 0.341-0.155 0.341-0.341s-0.155-0.341-0.341-0.341z"></path>
<path fill="#fff" d="M25.561 18.022h-4.432c-0.186 0-0.341 0.155-0.341 0.341s0.155 0.341 0.341 0.341h4.432c0.186 0 0.341-0.155 0.341-0.341-0.008-0.194-0.155-0.341-0.341-0.341z"></path>
<path fill="#fff" d="M25.561 25.918h-4.432c-0.186 0-0.341 0.155-0.341 0.341s0.155 0.341 0.341 0.341h4.432c0.186 0 0.341-0.155 0.341-0.341s-0.155-0.341-0.341-0.341z"></path>
<path fill="#fff" d="M18.34 15.551h-2.518v-14.164c0-0.488-0.395-0.883-0.883-0.883h-4.114c-0.488 0-0.883 0.395-0.883 0.883v14.171h-2.518c-0.728 0-1.325 0.597-1.325 1.325v2.968c0 0.728 0.597 1.325 1.325 1.325h2.518v9.453c0 0.488 0.395 0.883 0.883 0.883h4.114c0.488 0 0.883-0.395 0.883-0.883v-9.453h2.518c0.728 0 1.325-0.597 1.325-1.325v-2.968c0-0.736-0.597-1.333-1.325-1.333zM10.623 1.387c0-0.108 0.093-0.201 0.201-0.201h4.114c0.108 0 0.201 0.093 0.201 0.201v14.171h-1.922v-1.030c0.31-0.132 0.519-0.434 0.519-0.79s-0.217-0.659-0.519-0.79v-2.634c0.31-0.132 0.519-0.434 0.519-0.79s-0.217-0.659-0.519-0.79v-2.634c0.31-0.132 0.519-0.434 0.519-0.79s-0.217-0.659-0.519-0.79v-1.34c0-0.186-0.155-0.341-0.341-0.341s-0.341 0.155-0.341 0.341v1.34c-0.31 0.132-0.519 0.434-0.519 0.79s0.217 0.659 0.519 0.79v2.634c-0.31 0.132-0.519 0.434-0.519 0.79s0.217 0.659 0.519 0.79v2.634c-0.31 0.132-0.519 0.434-0.519 0.79s0.217 0.659 0.519 0.79v1.030h-1.922l0.008-14.171zM15.14 30.613c0 0.108-0.093 0.201-0.201 0.201h-4.114c-0.108 0-0.201-0.093-0.201-0.201v-9.453h1.922v4.3c-0.31 0.132-0.519 0.434-0.519 0.79s0.217 0.659 0.519 0.79v1.759c0 0.186 0.155 0.341 0.341 0.341s0.341-0.155 0.341-0.341v-1.759c0.31-0.132 0.519-0.434 0.519-0.79s-0.217-0.659-0.519-0.79v-4.3h1.922l-0.008 9.453zM18.983 19.843c0 0.356-0.287 0.643-0.643 0.643h-10.917c-0.356 0-0.643-0.287-0.643-0.643v-2.968c0-0.356 0.287-0.643 0.643-0.643h10.917c0.356 0 0.643 0.287 0.643 0.643v2.968z"></path>
</svg>
