<!-- Generated by IcoMoon.io -->
<svg version="1.1" xmlns="http://www.w3.org/2000/svg" width="32" height="32" viewBox="0 0 32 32">
<title>backpacker</title>
<path fill="#fff" d="M12.444 16.163c0.023 0 0.039 0 0.062 0 0.403 0 0.744-0.31 0.783-0.721l0.55-6.826c0.008-0.054 0-0.116-0.008-0.17l0.116-1.782c0.015-0.201-0.139-0.38-0.341-0.387-0.201-0.016-0.38 0.139-0.387 0.341l-0.077 1.162c-0.008 0-0.015 0-0.023-0.008l-4.207-0.333c-0.426-0.039-0.806 0.287-0.845 0.721l-0.55 6.826c-0.031 0.426 0.287 0.806 0.721 0.845l4.207 0.333zM8.252 15.047l0.55-6.826c0-0.031 0.031-0.046 0.054-0.046l4.2 0.333c0.015 0 0.023 0.008 0.031 0.015l-0.085 1.309-0.442 5.555c0 0.031-0.031 0.046-0.054 0.046l-4.2-0.333c-0.031-0.008-0.054-0.031-0.054-0.054z"></path>
<path fill="#fff" d="M16.589 6.315c0.232 0.054 0.457 0.085 0.69 0.085 1.333 0 2.541-0.907 2.859-2.255v0c0.38-1.581-0.597-3.169-2.177-3.549s-3.169 0.597-3.549 2.177c-0.38 1.565 0.597 3.161 2.177 3.541zM15.124 2.929c0.248-1.007 1.154-1.689 2.154-1.689 0.17 0 0.341 0.023 0.519 0.062 1.185 0.287 1.922 1.48 1.635 2.665v0c-0.287 1.185-1.48 1.922-2.665 1.635-1.193-0.287-1.929-1.488-1.643-2.673z"></path>
<path fill="#fff" d="M18.317 16.852l0.256-2.937c0.015-0.201-0.132-0.38-0.333-0.395-0.194-0.015-0.38 0.132-0.395 0.333l-0.232 2.642-2.937-0.256 0.287-4.44 0.248-3.549c0.008-0.101 0.054-0.194 0.132-0.256s0.17-0.093 0.279-0.085l2.34 0.201c0.101 0.008 0.194 0.054 0.256 0.132s0.093 0.178 0.085 0.279l-0.093 1.062c-0.015 0.201 0.132 0.38 0.333 0.395s0.38-0.132 0.395-0.333l0.093-1.062c0.023-0.294-0.062-0.581-0.256-0.814s-0.457-0.364-0.752-0.395l-2.34-0.201c-0.294-0.023-0.581 0.062-0.814 0.256-0.225 0.194-0.364 0.457-0.395 0.759l-0.566 8.345-0.752 6.656c-0.062 0.666-0.232 1.302-0.527 1.906l-2.092 4.354c-0.008 0.023-0.015 0.039-0.023 0.062-0.077 0.294 0.077 0.604 0.364 0.713l2.239 0.837c0.155 0.062 0.333 0.047 0.488-0.031 0.139-0.070 0.24-0.194 0.287-0.341l2.324-5.207c0.139-0.318 0.232-0.659 0.256-1.007l0.101-1.193 0.31 1.224-0.093 6.299c0 0.38 0.31 0.69 0.69 0.69h2.030c0.38 0 0.69-0.31 0.69-0.69v-6.439c0-0.697-0.101-1.395-0.294-2.061l-1.588-5.455zM19.487 30.76h-1.937l0.093-6.292c0-0.031 0-0.062-0.008-0.093l-0.86-3.425c-0.047-0.17-0.209-0.294-0.387-0.279s-0.318 0.155-0.333 0.333l-0.279 3.401c-0.023 0.263-0.085 0.527-0.201 0.767l-2.293 5.145-1.976-0.736 2.007-4.184c0.325-0.682 0.527-1.402 0.589-2.162l0.705-6.284 3.053 0.263 1.557 5.284c0.178 0.604 0.271 1.224 0.263 1.86l0.008 6.4z"></path>
<path fill="#fff" d="M24.438 11.281c-0.093-0.178-0.31-0.248-0.496-0.155l-3.394 1.743c-0.341 0.178-0.767 0.085-1-0.225l-2.774-3.603c-0.124-0.163-0.356-0.194-0.511-0.070-0.163 0.124-0.194 0.356-0.070 0.511l2.774 3.603c0.302 0.387 0.752 0.597 1.216 0.597 0.24 0 0.48-0.054 0.697-0.17l3.394-1.743c0.186-0.085 0.256-0.31 0.163-0.488z"></path>
</svg>
