<!-- Generated by IcoMoon.io -->
<svg version="1.1" xmlns="http://www.w3.org/2000/svg" width="32" height="32" viewBox="0 0 32 32">
<title>bad-weather-conditions</title>
<path fill="#fff" d="M25.182 6.609c-1.681-3.665-5.47-6.106-9.515-6.106-5.060 0-9.329 3.549-10.266 8.477-2.727 0.24-4.819 2.495-4.819 5.261 0 2.72 2.115 5.029 4.819 5.261 0.186 0.039 0.349 0.039 0.473 0.039h8.817l-2.007 4.92c-0.046 0.116-0.031 0.256 0.039 0.356 0.070 0.108 0.194 0.17 0.318 0.17h2.534l-2.472 5.982c-0.070 0.17-0.008 0.372 0.147 0.473 0.062 0.039 0.132 0.062 0.201 0.062 0.108 0 0.209-0.047 0.287-0.124l7.95-8.779c0.101-0.108 0.124-0.271 0.070-0.411-0.062-0.139-0.201-0.225-0.349-0.225h-3.045l1.007-2.425h5.602c0.194 0 0.38-0.015 0.55-0.031 3.308-0.271 5.904-3.099 5.904-6.431-0.008-3.494-2.774-6.338-6.245-6.47zM17.433 22.191c-0.047 0.116-0.039 0.256 0.039 0.356 0.070 0.108 0.194 0.17 0.318 0.17h2.758l-5.896 6.508 1.852-4.478c0.047-0.116 0.039-0.256-0.039-0.356-0.070-0.108-0.194-0.17-0.318-0.17h-2.549l1.914-4.688h3.022l-1.1 2.658zM25.453 18.743c-0.147 0.015-0.318 0.023-0.488 0.031h-19.099c-0.108 0-0.225 0-0.341-0.023-0.016 0-0.031-0.008-0.046-0.008-2.317-0.194-4.138-2.169-4.138-4.502 0-2.417 1.968-4.44 4.393-4.517 0.186-0.008 0.333-0.139 0.364-0.318 0.759-4.711 4.781-8.136 9.569-8.136 3.828 0 7.407 2.355 8.918 5.865 0.062 0.139 0.225 0.232 0.372 0.232 3.146 0 5.703 2.557 5.703 5.703 0 2.937-2.286 5.431-5.207 5.672z"></path>
</svg>
