<!-- Generated by IcoMoon.io -->
<svg version="1.1" xmlns="http://www.w3.org/2000/svg" width="32" height="32" viewBox="0 0 32 32">
<title>banner</title>
<path fill="#fff" d="M29.761 1.798h-27.522c-0.953 0-1.736 0.775-1.736 1.736v18.921c0 0.953 0.775 1.736 1.736 1.736h9.453v1.705c0 0.294-0.17 0.845-0.333 1.093l-0.767 1.147c-0.31 0.465-0.356 0.976-0.124 1.402 0.225 0.426 0.682 0.674 1.24 0.674h8.6c0.558 0 1.007-0.248 1.24-0.674s0.186-0.938-0.124-1.402l-0.767-1.147c-0.163-0.248-0.333-0.798-0.333-1.093v-1.705h9.453c0.953 0 1.736-0.775 1.736-1.736v-18.929c-0.015-0.953-0.79-1.728-1.751-1.728zM2.239 2.51h27.529c0.566 0 1.023 0.457 1.023 1.023v15.093c-0.039-0.015-0.077-0.023-0.116-0.023h-29.459v-15.078c0-0.558 0.457-1.015 1.023-1.015zM20.819 28.529c0.093 0.139 0.232 0.411 0.093 0.666-0.101 0.194-0.318 0.294-0.604 0.294h-8.608c-0.17 0-0.473-0.039-0.604-0.294-0.139-0.256 0-0.527 0.093-0.666l0.767-1.147c0.248-0.364 0.449-1.046 0.449-1.488v-1.712h7.198v1.712c0 0.442 0.209 1.123 0.449 1.488l0.767 1.147zM29.761 23.469h-1.232c-0.008 0-0.015 0-0.015 0h-24.771c-0.008 0-0.015 0-0.015 0h-1.488c-0.566 0-1.023-0.457-1.023-1.023v-3.146h29.451c0.039 0 0.077-0.008 0.116-0.023v3.169c0 0.566-0.457 1.023-1.023 1.023z"></path>
<path fill="#fff" d="M16.86 21.594c0 0.475-0.385 0.86-0.86 0.86s-0.86-0.385-0.86-0.86c0-0.475 0.385-0.86 0.86-0.86s0.86 0.385 0.86 0.86z"></path>
<path fill="#fff" d="M3.944 8.748h23.857c0.194 0 0.356-0.163 0.356-0.356v-3.386c0-0.194-0.163-0.356-0.356-0.356h-23.857c-0.194 0-0.356 0.163-0.356 0.356v3.386c0 0.194 0.155 0.356 0.356 0.356zM4.3 5.362h23.144v2.673h-23.144v-2.673z"></path>
<path fill="#fff" d="M3.944 16.612h7.105c0.194 0 0.356-0.163 0.356-0.356v-5.122c0-0.194-0.163-0.356-0.356-0.356h-7.105c-0.194 0-0.356 0.163-0.356 0.356v5.122c0 0.201 0.155 0.356 0.356 0.356zM4.3 11.491h6.392v4.409h-6.392v-4.409z"></path>
</svg>
