<!-- Generated by IcoMoon.io -->
<svg version="1.1" xmlns="http://www.w3.org/2000/svg" width="32" height="32" viewBox="0 0 32 32">
<title>bar</title>
<path fill="#fff" d="M26.538 3.014c-2.565 0-4.657 2.038-4.757 4.579h-11.785l-2.239-4.246c-0.054-0.101-0.139-0.178-0.24-0.217l-6.144-2.588c-0.248-0.101-0.527 0.015-0.635 0.256-0.101 0.248 0.015 0.527 0.256 0.635l5.989 2.51 1.922 3.642h-4.571c-0.263 0-0.48 0.217-0.48 0.48 0 6.338 5.029 11.522 11.305 11.77v10.693h-4.695c-0.263 0-0.48 0.217-0.48 0.48s0.217 0.48 0.48 0.48h10.197c0.263 0 0.48-0.217 0.48-0.48s-0.217-0.48-0.48-0.48h-4.54v-10.685c4.711-0.194 8.709-3.154 10.421-7.299v0c2.627 0 4.765-2.139 4.765-4.765s-2.139-4.765-4.765-4.765zM15.636 18.89c-5.803 0-10.553-4.595-10.809-10.336h4.587l1.883 3.572h-2.046c-0.263 0-0.48 0.217-0.48 0.48s0.217 0.48 0.48 0.48h13.063c0.263 0 0.48-0.217 0.48-0.48s-0.217-0.48-0.48-0.48h-9.925l-1.883-3.572h15.93c-0.248 5.741-4.998 10.336-10.801 10.336zM26.894 11.56c0.225-0.728 0.387-1.495 0.465-2.278l0.705 0.705c0.093 0.093 0.217 0.139 0.341 0.139s0.248-0.046 0.341-0.139c0.186-0.186 0.186-0.496 0-0.682l-0.899-0.899c-0.116-0.116-0.279-0.155-0.434-0.124 0-0.070 0.008-0.139 0.008-0.209 0-0.263-0.217-0.48-0.48-0.48h-4.184c0.101-2.007 1.759-3.611 3.789-3.611 2.092 0 3.797 1.705 3.797 3.797-0.008 1.968-1.519 3.595-3.448 3.781z"></path>
<path fill="#fff" d="M25.011 5.571c-0.186-0.186-0.496-0.186-0.682 0s-0.186 0.496 0 0.682l0.899 0.899c0.093 0.093 0.217 0.139 0.341 0.139s0.248-0.046 0.341-0.139c0.186-0.186 0.186-0.496 0-0.682l-0.899-0.899z"></path>
<path fill="#fff" d="M28.048 5.586l-0.93 0.93c-0.186 0.186-0.186 0.496 0 0.682 0.093 0.093 0.217 0.139 0.341 0.139s0.248-0.046 0.341-0.139l0.93-0.93c0.186-0.186 0.186-0.496 0-0.682-0.186-0.194-0.488-0.194-0.682 0z"></path>
</svg>
