<!-- Generated by IcoMoon.io -->
<svg version="1.1" xmlns="http://www.w3.org/2000/svg" width="32" height="32" viewBox="0 0 32 32">
<title>bay</title>
<path fill="#fff" d="M0.922 16.736c0.426 0 0.62 0.201 0.899 0.473 0.318 0.318 0.721 0.721 1.48 0.721 0.767 0 1.162-0.395 1.48-0.721 0.271-0.271 0.473-0.473 0.899-0.473s0.62 0.201 0.899 0.473c0.318 0.318 0.721 0.713 1.488 0.713s1.162-0.395 1.488-0.713c0.279-0.271 0.473-0.473 0.899-0.473s0.62 0.201 0.899 0.473c0.318 0.318 0.713 0.713 1.488 0.713 0.232 0 0.418-0.186 0.418-0.418s-0.186-0.418-0.418-0.418c-0.426 0-0.62-0.201-0.899-0.473-0.318-0.318-0.721-0.721-1.488-0.721s-1.162 0.395-1.488 0.721c-0.279 0.271-0.473 0.473-0.899 0.473s-0.62-0.201-0.899-0.473c-0.318-0.318-0.721-0.721-1.488-0.721s-1.162 0.395-1.48 0.721c-0.271 0.271-0.473 0.473-0.899 0.473s-0.62-0.201-0.899-0.473c-0.318-0.318-0.721-0.721-1.48-0.721-0.232 0-0.418 0.186-0.418 0.418s0.186 0.426 0.418 0.426z"></path>
<path fill="#fff" d="M31.078 13.9h-2.448v-3.2l0.395 0.395c0.085 0.077 0.186 0.124 0.294 0.124s0.209-0.039 0.294-0.124c0.163-0.163 0.163-0.426 0-0.589l-1.1-1.1c0 0 0 0 0-0.008l-3.432-3.432c-0.008-0.008-0.023-0.023-0.039-0.031-0.031-0.023-0.070-0.046-0.101-0.062-0.008 0-0.015 0-0.023-0.008-0.023-0.008-0.047-0.016-0.070-0.023-0.008 0-0.023 0-0.031 0-0.031 0-0.062 0-0.093 0.008-0.023 0-0.047 0.008-0.070 0.016-0.031 0.008-0.054 0.023-0.077 0.039-0.015 0.008-0.039 0.016-0.054 0.031-0.008 0.008-0.023 0.023-0.039 0.031l-3.432 3.432c0 0 0 0.008-0.008 0.008l-1.1 1.1c-0.163 0.163-0.163 0.426 0 0.589 0.085 0.077 0.186 0.124 0.294 0.124s0.209-0.039 0.294-0.124l0.395-0.395v3.192c-0.62 0-1.232 0-1.309 0-0.186 0.015-0.341 0.155-0.372 0.341-0.077 0.449-2.123 11.080-16.992 11.080-0.031 0-0.070-0.015-0.093 0-0.232 0-0.418 0.186-0.418 0.411 0 0.232 0.186 0.418 0.411 0.418 0.031 0 0.062 0 0.093 0 14.071 0 17.232-9.492 17.728-11.421 0.325 0 0.852 0 1.34 0 0.008 0 0.015 0.008 0.023 0.008h9.739c0.232 0 0.418-0.186 0.418-0.418 0-0.225-0.186-0.411-0.418-0.411zM21.757 9.871l3.022-3.022 3.022 3.022v4.029h-1.216v-2.030c0-0.333-0.271-0.604-0.597-0.604h-2.417c-0.333 0-0.604 0.271-0.604 0.604v2.030h-1.216v-4.029c0 0 0.008 0 0.008 0zM25.755 13.9h-1.953v-1.805h1.953v1.805z"></path>
<path fill="#fff" d="M3.301 20.734c0.767 0 1.162-0.395 1.48-0.713 0.271-0.271 0.473-0.473 0.899-0.473s0.62 0.201 0.899 0.473c0.318 0.318 0.721 0.713 1.48 0.713 0.767 0 1.162-0.395 1.488-0.713 0.279-0.271 0.473-0.473 0.899-0.473s0.62 0.201 0.899 0.473c0.318 0.318 0.713 0.713 1.488 0.713 0.232 0 0.418-0.186 0.418-0.418s-0.186-0.418-0.418-0.418c-0.426 0-0.62-0.201-0.899-0.473-0.318-0.318-0.721-0.721-1.488-0.721s-1.162 0.395-1.488 0.721c-0.279 0.271-0.473 0.473-0.899 0.473s-0.62-0.201-0.899-0.473c-0.318-0.318-0.721-0.721-1.48-0.721-0.767 0-1.162 0.395-1.48 0.721-0.271 0.271-0.473 0.473-0.899 0.473s-0.62-0.201-0.899-0.473c-0.318-0.318-0.721-0.721-1.48-0.721-0.232 0-0.418 0.186-0.418 0.418s0.186 0.418 0.418 0.418c0.426 0 0.62 0.201 0.899 0.473 0.31 0.325 0.713 0.721 1.48 0.721z"></path>
</svg>
