<!-- Generated by IcoMoon.io -->
<svg version="1.1" xmlns="http://www.w3.org/2000/svg" width="32" height="32" viewBox="0 0 32 32">
<title>best-available-rate</title>
<path fill="#fff" d="M26.266 0.504h-20.533c-0.93 0-1.689 0.759-1.689 1.689v20.959c0 0.93 0.759 1.689 1.689 1.689h20.533c0.93 0 1.689-0.759 1.689-1.689v-20.959c0-0.93-0.752-1.689-1.689-1.689zM27.057 23.152c0 0.434-0.349 0.783-0.783 0.783h-20.54c-0.434 0-0.783-0.349-0.783-0.783v-20.959c0-0.434 0.349-0.783 0.783-0.783h20.533c0.434 0 0.783 0.349 0.783 0.783v20.959h0.008z"></path>
<path fill="#fff" d="M20.757 25.43l-4.765 5.129-4.757-5.129c-0.17-0.186-0.457-0.194-0.643-0.023s-0.194 0.457-0.023 0.643l4.788 5.16c0.17 0.186 0.395 0.287 0.635 0.287s0.465-0.101 0.635-0.287l4.796-5.16c0.17-0.186 0.163-0.473-0.023-0.643s-0.473-0.155-0.643 0.023z"></path>
<path fill="#fff" d="M18.487 12.304c1.046-0.628 1.596-1.689 1.596-3.115 0-2.115-1.511-3.479-3.843-3.479l-4.347 0.023c-0.217 0-0.364 0.147-0.364 0.364v13.156c0 0.186 0.124 0.387 0.465 0.387h4.905c2.154 0 3.603-1.495 3.603-3.719-0.015-1.34-0.55-2.921-2.015-3.618zM12.738 11.847v-4.998h3.316c1.767 0 2.743 0.883 2.743 2.479 0 1.604-1.038 2.518-2.844 2.518h-3.216zM19.2 15.775c0 1.844-0.914 2.743-2.805 2.743h-3.657v-5.571h3.618c1.953 0 2.844 1.464 2.844 2.828z"></path>
</svg>
