<!-- Generated by IcoMoon.io -->
<svg version="1.1" xmlns="http://www.w3.org/2000/svg" width="32" height="32" viewBox="0 0 32 32">
<title>best-rate-in-category</title>
<path fill="#fff" d="M29.567 8.569c-1.061 0-1.929 0.868-1.929 1.929 0 0.341 0.093 0.651 0.248 0.93l-6.392 6.144-4.339-9.98c0.48-0.349 0.798-0.914 0.798-1.557 0-1.062-0.868-1.929-1.929-1.929s-1.929 0.868-1.929 1.929c0 0.628 0.302 1.178 0.767 1.534l-4.378 10.096-6.392-6.307c0.17-0.287 0.279-0.62 0.279-0.976 0-1.062-0.868-1.929-1.929-1.929s-1.929 0.868-1.929 1.929 0.868 1.929 1.929 1.929c0.015 0 0.031-0.008 0.039-0.008l2.782 11.181h-0.938c-0.24 0-0.434 0.194-0.434 0.434s0.194 0.434 0.434 0.434h1.061v2.665h-1c-0.24 0-0.434 0.194-0.434 0.434s0.194 0.434 0.434 0.434h23.237c0.24 0 0.434-0.194 0.434-0.434s-0.194-0.434-0.434-0.434h-1.123v-2.665h1.061c0.24 0 0.434-0.194 0.434-0.434s-0.194-0.434-0.434-0.434h-0.938l2.875-11.064c0.023 0 0.047 0.008 0.070 0.008 1.061 0 1.929-0.868 1.929-1.929s-0.868-1.929-1.929-1.929zM16.023 4.974c0.589 0 1.061 0.473 1.061 1.061s-0.473 1.062-1.061 1.062c-0.581 0-1.062-0.473-1.062-1.062s0.48-1.062 1.062-1.062zM1.371 10.383c0-0.581 0.473-1.062 1.062-1.062s1.062 0.473 1.062 1.062c0 0.581-0.473 1.062-1.062 1.062-0.581 0-1.062-0.473-1.062-1.062zM6.253 27.026v-2.665h19.378v2.665h-19.378zM25.724 23.485h-19.564l-2.844-11.398c0.062-0.031 0.116-0.062 0.178-0.093l6.834 6.741c0.085 0.077 0.194 0.124 0.302 0.124 0.031 0 0.054 0 0.085-0.008 0.139-0.031 0.256-0.124 0.318-0.256l4.626-10.669c0.116 0.023 0.24 0.039 0.372 0.039 0.108 0 0.217-0.016 0.325-0.031l4.587 10.553c0.054 0.132 0.17 0.225 0.31 0.256 0.031 0.008 0.054 0.008 0.085 0.008 0.108 0 0.217-0.047 0.302-0.124l6.818-6.555c0.062 0.046 0.132 0.077 0.194 0.116l-2.929 11.297zM29.567 11.56c-0.581 0-1.061-0.473-1.061-1.062 0-0.581 0.473-1.062 1.061-1.062s1.061 0.473 1.061 1.062c0 0.581-0.48 1.062-1.061 1.062z"></path>
<path fill="#fff" d="M18.441 17.48l-2.193-1.317c-0.132-0.077-0.302-0.085-0.434-0.008l-2.193 1.216c-0.139 0.077-0.225 0.225-0.225 0.38v2.526c0 0.155 0.077 0.294 0.209 0.372l2.193 1.317c0.070 0.039 0.147 0.062 0.225 0.062 0.070 0 0.147-0.015 0.209-0.054l2.193-1.216c0.139-0.077 0.225-0.225 0.225-0.38v-2.526c0-0.147-0.077-0.294-0.209-0.372zM17.782 20.13l-1.743 0.969-1.767-1.061v-2.030l1.751-0.969 1.767 1.061v2.030h-0.008z"></path>
</svg>
