<!-- Generated by IcoMoon.io -->
<svg version="1.1" xmlns="http://www.w3.org/2000/svg" width="32" height="32" viewBox="0 0 32 32">
<title>bicycle</title>
<path fill="#fff" d="M9.631 14.884c-0.116-0.101-0.294-0.077-0.387 0.039-0.101 0.116-0.077 0.294 0.039 0.387 1.154 0.961 1.813 2.363 1.813 3.859 0 2.766-2.255 5.021-5.021 5.021s-5.021-2.255-5.021-5.021 2.255-5.021 5.021-5.021c0.279 0 0.566 0.023 0.845 0.070 0.155 0.023 0.294-0.077 0.318-0.225s-0.077-0.294-0.225-0.318c-0.31-0.054-0.62-0.077-0.938-0.077-3.068 0-5.571 2.495-5.571 5.571s2.495 5.571 5.571 5.571 5.571-2.495 5.571-5.571c0-1.658-0.736-3.223-2.015-4.285z"></path>
<path fill="#fff" d="M25.925 13.598c-0.775 0-1.534 0.155-2.239 0.465-0.139 0.062-0.201 0.225-0.139 0.364s0.225 0.201 0.364 0.139c0.635-0.279 1.317-0.418 2.015-0.418 2.766 0 5.021 2.255 5.021 5.021s-2.255 5.021-5.021 5.021c-2.588 0-4.719-1.968-4.99-4.486l5.005-0.256c0.101-0.008 0.194-0.070 0.24-0.163 0.039-0.093 0.031-0.201-0.039-0.287l-5.153-6.439 1.387-2.65h0.907c0.473 0 0.899-0.263 1.116-0.69l0.287-0.573c0.070-0.139 0.015-0.302-0.124-0.372s-0.302-0.015-0.372 0.124l-0.287 0.573c-0.116 0.24-0.356 0.387-0.62 0.387h-4.2c-0.155 0-0.279 0.124-0.279 0.279s0.124 0.279 0.279 0.279h2.665l-1.232 2.363-10.809-0.992 1.232-3.123c0.108-0.263 0.411-0.403 0.674-0.302l1.635 0.604c0.139 0.054 0.302-0.023 0.356-0.163s-0.015-0.302-0.163-0.356l-1.635-0.604c-0.55-0.201-1.162 0.070-1.379 0.612l-4.393 11.111c-0.054 0.139 0.016 0.302 0.155 0.356 0.031 0.015 0.070 0.015 0.101 0.015 0.108 0 0.217-0.070 0.256-0.178l2.867-7.252 5.269 5.563c0.108 0.108 0.279 0.116 0.387 0.008s0.116-0.279 0.008-0.387l-5.067-5.346 10.22 0.938-2.084 3.983c-0.070 0.132-0.015 0.302 0.116 0.372 0.039 0.023 0.085 0.031 0.124 0.031 0.101 0 0.194-0.054 0.248-0.147l2.061-3.936 4.664 5.834-4.471 0.232c0-1.093 0.349-2.131 1.007-2.999 0.093-0.124 0.070-0.294-0.054-0.387s-0.294-0.070-0.387 0.054c-0.736 0.969-1.123 2.131-1.123 3.347v0.008l-0.356 0.015c-0.155 0.008-0.271 0.139-0.263 0.287s0.132 0.263 0.271 0.263c0.008 0 0.008 0 0.015 0l0.356-0.015c0.279 2.805 2.658 5.005 5.54 5.005 3.068 0 5.571-2.495 5.571-5.571s-2.464-5.563-5.54-5.563z"></path>
<path fill="#fff" d="M16.992 17.511c-1.154 0-2.1 0.945-2.1 2.1s0.945 2.1 2.1 2.1 2.1-0.945 2.1-2.1c0-1.162-0.945-2.1-2.1-2.1zM16.992 21.16c-0.852 0-1.55-0.697-1.55-1.55s0.697-1.55 1.55-1.55 1.55 0.697 1.55 1.55-0.697 1.55-1.55 1.55z"></path>
</svg>
