<!-- Generated by IcoMoon.io -->
<svg version="1.1" xmlns="http://www.w3.org/2000/svg" width="32" height="32" viewBox="0 0 32 32">
<title>big-bang</title>
<path fill="#fff" d="M29.8 16.775c-0.938 0-1.697 0.759-1.697 1.697s0.759 1.697 1.697 1.697 1.697-0.759 1.697-1.697-0.759-1.697-1.697-1.697zM29.8 19.494c-0.566 0-1.023-0.457-1.023-1.023s0.457-1.023 1.023-1.023 1.023 0.457 1.023 1.023-0.457 1.023-1.023 1.023z"></path>
<path fill="#fff" d="M4.68 23.996c-0.938 0-1.697 0.759-1.697 1.697s0.759 1.697 1.697 1.697 1.697-0.759 1.697-1.697-0.759-1.697-1.697-1.697zM4.68 26.716c-0.566 0-1.023-0.457-1.023-1.023s0.457-1.023 1.023-1.023 1.023 0.457 1.023 1.023-0.457 1.023-1.023 1.023z"></path>
<path fill="#fff" d="M18.371 4.238c0.938 0 1.697-0.759 1.697-1.697s-0.759-1.697-1.697-1.697c-0.938 0-1.697 0.759-1.697 1.697s0.759 1.697 1.697 1.697zM18.371 1.519c0.566 0 1.023 0.457 1.023 1.023s-0.457 1.023-1.023 1.023c-0.566 0-1.023-0.457-1.023-1.023s0.457-1.023 1.023-1.023z"></path>
<path fill="#fff" d="M27.77 19.339c-0.372 0.209-0.767 0.403-1.193 0.589-0.558-1.247-1.317-2.58-2.27-3.936 0.922-1.325 1.689-2.642 2.247-3.913 2.425 1.046 3.928 2.425 3.928 3.921 0 0.047 0 0.093-0.008 0.139-0.008 0.085-0.015 0.17-0.031 0.256-0.031 0.186 0.093 0.356 0.279 0.387 0.178 0.031 0.356-0.093 0.387-0.279 0.015-0.108 0.031-0.217 0.039-0.325 0-0.062 0.008-0.116 0.008-0.178 0-1.798-1.643-3.401-4.331-4.564 1.116-2.828 1.069-5.044-0.155-6.276s-3.456-1.278-6.284-0.155c-0.124-0.287-0.248-0.566-0.387-0.829-0.085-0.163-0.287-0.232-0.449-0.147s-0.232 0.287-0.147 0.449c0.124 0.248 0.248 0.511 0.364 0.783-1.278 0.566-2.603 1.333-3.936 2.262-1.325-0.93-2.65-1.689-3.921-2.255 1.046-2.425 2.425-3.928 3.921-3.928 0.225 0 0.457 0.039 0.682 0.108 0.178 0.054 0.364-0.046 0.418-0.225s-0.047-0.364-0.225-0.418c-0.294-0.093-0.589-0.139-0.883-0.139-1.798 0-3.401 1.643-4.564 4.331-2.828-1.116-5.044-1.069-6.276 0.155-1.224 1.224-1.278 3.448-0.163 6.276-2.689 1.162-4.331 2.766-4.331 4.564s1.643 3.401 4.331 4.564c-0.395 0.992-0.651 1.937-0.752 2.797-0.023 0.186 0.108 0.349 0.294 0.372 0.186 0.015 0.349-0.108 0.372-0.294 0.093-0.806 0.333-1.689 0.705-2.619 1.278 0.496 2.751 0.891 4.385 1.178 0.287 1.627 0.69 3.107 1.178 4.385-1.79 0.713-3.363 0.945-4.517 0.589-0.178-0.054-0.364 0.047-0.418 0.225s0.046 0.364 0.225 0.418c0.418 0.132 0.883 0.194 1.387 0.194 1.054 0 2.27-0.279 3.58-0.798 1.162 2.689 2.766 4.323 4.564 4.323s3.394-1.635 4.564-4.323c1.317 0.519 2.534 0.798 3.58 0.798 1.116 0 2.046-0.31 2.696-0.969 1.271-1.271 1.247-3.564 0.163-6.292 0.449-0.194 0.876-0.403 1.263-0.62 0.163-0.093 0.217-0.294 0.132-0.457-0.077-0.155-0.287-0.209-0.449-0.124zM25.925 20.192c-1.178 0.449-2.526 0.814-3.983 1.085 0.124-0.845 0.225-1.72 0.287-2.627 0.589-0.682 1.139-1.364 1.643-2.053 0.852 1.232 1.542 2.448 2.053 3.595zM11.715 20.114c-0.566-0.566-1.108-1.147-1.627-1.736-0.054-0.775-0.085-1.573-0.085-2.386 0-0.806 0.031-1.604 0.085-2.379 0.511-0.589 1.054-1.17 1.627-1.736 0.566-0.566 1.147-1.108 1.736-1.619 0.775-0.054 1.573-0.085 2.386-0.085 0.806 0 1.604 0.031 2.386 0.085 0.589 0.511 1.162 1.054 1.736 1.627s1.116 1.154 1.627 1.743c0.054 0.775 0.077 1.573 0.077 2.371 0 0.806-0.031 1.604-0.085 2.386-0.511 0.589-1.054 1.162-1.627 1.736s-1.154 1.108-1.736 1.627c-0.783 0.054-1.581 0.085-2.379 0.085-0.806 0-1.604-0.031-2.379-0.085-0.589-0.519-1.17-1.061-1.743-1.635zM12.343 21.648c-0.651-0.070-1.286-0.147-1.906-0.248-0.101-0.612-0.186-1.247-0.248-1.898 0.341 0.372 0.69 0.736 1.054 1.1 0.364 0.356 0.728 0.705 1.1 1.046zM9.43 13.358c-0.589 0.682-1.147 1.371-1.65 2.069-0.837-1.216-1.526-2.425-2.046-3.595 1.17-0.449 2.51-0.821 3.983-1.1-0.124 0.837-0.225 1.72-0.287 2.627zM10.437 10.607c0.612-0.101 1.247-0.186 1.898-0.248-0.372 0.341-0.736 0.69-1.1 1.054s-0.713 0.736-1.054 1.1c0.070-0.659 0.155-1.294 0.256-1.906zM9.368 14.474c-0.023 0.504-0.031 1.007-0.031 1.526s0.008 1.030 0.031 1.534c-0.418-0.511-0.814-1.015-1.178-1.526 0.364-0.519 0.759-1.023 1.178-1.534zM14.303 9.538c0.511-0.418 1.023-0.814 1.534-1.178 0.511 0.372 1.023 0.767 1.534 1.178-0.504-0.023-1.015-0.031-1.526-0.031-0.527 0-1.038 0.008-1.542 0.031zM19.332 10.352c0.651 0.070 1.294 0.155 1.914 0.256 0.101 0.62 0.178 1.255 0.248 1.906-0.341-0.372-0.697-0.736-1.061-1.1s-0.736-0.721-1.1-1.062zM22.299 14.481c0.418 0.511 0.806 1.023 1.178 1.534-0.364 0.511-0.759 1.015-1.17 1.519 0.023-0.504 0.031-1.015 0.031-1.534-0.008-0.511-0.023-1.023-0.039-1.519zM15.83 22.493c0.511 0 1.023-0.015 1.526-0.031-0.504 0.418-1.015 0.806-1.526 1.178-0.511-0.364-1.015-0.759-1.526-1.17 0.511 0.015 1.015 0.023 1.526 0.023zM18.479 22.4c0.899-0.070 1.774-0.163 2.627-0.294-0.279 1.472-0.651 2.82-1.093 3.983-1.139-0.511-2.355-1.201-3.587-2.038 0.682-0.511 1.371-1.061 2.053-1.65zM19.316 21.648c0.372-0.341 0.744-0.69 1.108-1.061 0.364-0.364 0.713-0.728 1.054-1.1-0.070 0.651-0.147 1.286-0.248 1.906-0.62 0.108-1.263 0.194-1.914 0.256zM23.895 15.411c-0.504-0.69-1.061-1.379-1.658-2.069-0.062-0.899-0.163-1.774-0.294-2.619 1.48 0.279 2.828 0.651 3.998 1.1-0.527 1.17-1.216 2.379-2.046 3.587zM26.197 5.641c1.007 1.007 1.007 3.022 0.015 5.54-1.278-0.496-2.758-0.891-4.385-1.178-0.287-1.604-0.682-3.076-1.178-4.37 2.518-1.007 4.533-1.007 5.548 0.008zM20.021 5.889c0.457 1.185 0.821 2.534 1.093 3.998-0.845-0.124-1.728-0.225-2.634-0.287-0.682-0.589-1.371-1.147-2.069-1.65 1.224-0.845 2.441-1.534 3.611-2.061zM15.248 7.942c-0.69 0.511-1.387 1.062-2.069 1.65-0.907 0.062-1.782 0.163-2.619 0.287 0.279-1.472 0.651-2.82 1.1-3.99 1.162 0.527 2.371 1.216 3.587 2.053zM5.47 5.633c0.504-0.504 1.263-0.759 2.216-0.759 0.938 0 2.069 0.248 3.324 0.744-0.488 1.271-0.891 2.751-1.178 4.378-1.627 0.287-3.099 0.682-4.378 1.178-0.992-2.518-0.992-4.525 0.016-5.54zM1.178 16c0-1.495 1.503-2.875 3.928-3.921 0.566 1.271 1.333 2.596 2.255 3.921-0.938 1.333-1.697 2.658-2.262 3.921-2.417-1.046-3.921-2.425-3.921-3.921zM5.726 20.169c0.511-1.147 1.209-2.363 2.053-3.587 0.511 0.69 1.062 1.387 1.65 2.069 0.062 0.907 0.163 1.782 0.287 2.619-1.472-0.279-2.82-0.651-3.99-1.1zM10.561 22.113c0.837 0.124 1.72 0.225 2.619 0.287 0.69 0.597 1.379 1.147 2.061 1.65-1.232 0.845-2.448 1.542-3.587 2.053-0.442-1.162-0.814-2.51-1.092-3.99zM15.83 30.66c-1.495 0-2.875-1.503-3.921-3.921 1.247-0.558 2.572-1.317 3.913-2.262 1.348 0.945 2.673 1.712 3.921 2.262-1.038 2.417-2.417 3.921-3.913 3.921zM26.197 26.367c-1.054 1.054-3.092 0.969-5.54 0 0.488-1.278 0.891-2.751 1.178-4.378 1.596-0.287 3.068-0.682 4.354-1.17 0.976 2.448 1.061 4.486 0.008 5.548z"></path>
</svg>
