<!-- Generated by IcoMoon.io -->
<svg version="1.1" xmlns="http://www.w3.org/2000/svg" width="32" height="32" viewBox="0 0 32 32">
<title>big-data</title>
<path fill="#fff" d="M31.551 21.966c0-0.015-0.008-0.023-0.015-0.031-0.008-0.023-0.015-0.047-0.031-0.070-0.008-0.015-0.015-0.023-0.023-0.039-0.015-0.015-0.023-0.039-0.047-0.054-0.008-0.008-0.023-0.023-0.039-0.031-0.008-0.008-0.023-0.023-0.031-0.031l-4.238-2.867v-6.315c0-0.17-0.101-0.333-0.256-0.403l-5.927-2.758v-5.315c0-0.039-0.008-0.077-0.015-0.116 0-0.015-0.008-0.023-0.015-0.031-0.008-0.023-0.015-0.046-0.031-0.070-0.008-0.015-0.015-0.023-0.023-0.039-0.015-0.015-0.023-0.039-0.047-0.054-0.008-0.008-0.023-0.023-0.039-0.031-0.008-0.008-0.023-0.023-0.031-0.031l-4.424-2.999c-0.147-0.101-0.349-0.101-0.504 0l-4.432 3.006c-0.015 0.008-0.023 0.015-0.031 0.031-0.015 0.008-0.023 0.023-0.039 0.031-0.015 0.015-0.031 0.039-0.046 0.054-0.008 0.015-0.015 0.023-0.023 0.039-0.015 0.023-0.023 0.046-0.031 0.070-0.008 0.015-0.008 0.023-0.015 0.031-0.008 0.039-0.015 0.077-0.015 0.116v5.315l-5.912 2.751c-0.155 0.070-0.256 0.232-0.256 0.403v6.315l-4.238 2.867c-0.015 0.008-0.023 0.015-0.031 0.031-0.015 0.008-0.023 0.023-0.039 0.031-0.015 0.015-0.031 0.039-0.046 0.054-0.008 0.015-0.015 0.023-0.023 0.039-0.015 0.023-0.023 0.047-0.031 0.070-0.008 0.015-0.008 0.023-0.015 0.031-0.008 0.039-0.015 0.077-0.015 0.116v5.842c0 0.147 0.077 0.287 0.194 0.372l4.44 3.006c0.008 0.008 0.016 0.008 0.023 0.008 0.008 0.008 0.016 0.008 0.023 0.015 0.016 0.008 0.039 0.015 0.054 0.023s0.023 0.008 0.039 0.015c0.039 0.008 0.077 0.015 0.116 0.015s0.077-0.008 0.116-0.015c0.016 0 0.023-0.008 0.039-0.015s0.039-0.008 0.054-0.023c0.008-0.008 0.016-0.008 0.023-0.015s0.016-0.008 0.023-0.008l4.432-3.006c0.039-0.023 0.070-0.054 0.093-0.093l5.61 3.061c0.070 0.039 0.139 0.054 0.217 0.054s0.147-0.015 0.217-0.054l5.625-3.068c0.031 0.039 0.062 0.070 0.101 0.093l4.432 3.006c0.008 0.008 0.015 0.008 0.023 0.008 0.008 0.008 0.015 0.008 0.023 0.015 0.015 0.008 0.039 0.015 0.054 0.023s0.023 0.008 0.039 0.015c0.039 0.008 0.077 0.015 0.116 0.015s0.077-0.008 0.116-0.015c0.015 0 0.023-0.008 0.039-0.015s0.039-0.008 0.054-0.023c0.008-0.008 0.015-0.008 0.023-0.015s0.015-0.008 0.023-0.008l4.44-3.006c0.124-0.085 0.194-0.225 0.194-0.372v-5.834c-0.015-0.039-0.023-0.077-0.039-0.116zM26.685 24.546l-3.642-2.464 3.642-2.464 3.642 2.464-3.642 2.464zM12.072 4.897l1.023 0.69 2.518 1.705v4.765l-3.541-2.402v-4.757zM16.511 7.291l3.541-2.394v4.765l-3.541 2.402v-4.773zM16.062 1.588l3.642 2.464-3.642 2.464-3.642-2.464 3.642-2.464zM5.462 19.618l3.642 2.464-3.642 2.464-3.642-2.464 3.642-2.464zM1.472 22.927l1.023 0.69 2.518 1.705v4.765l-3.541-2.402c0 0 0-4.757 0-4.757zM5.904 30.094v-4.765l3.541-2.394v4.765l-3.541 2.394zM16.062 30.373l-5.726-3.123v-5.168c0-0.039-0.008-0.077-0.015-0.116 0-0.015-0.008-0.023-0.015-0.031-0.008-0.023-0.015-0.047-0.031-0.070-0.008-0.015-0.015-0.023-0.023-0.039-0.015-0.015-0.023-0.039-0.046-0.054-0.008-0.008-0.023-0.023-0.039-0.031-0.008-0.008-0.023-0.023-0.031-0.031l-4.238-2.867v-6.036l5.47-2.549c0 0 0 0 0.008 0l4.432 3.006c0.008 0.008 0.015 0.008 0.023 0.008 0.008 0.008 0.015 0.008 0.023 0.015 0.015 0.008 0.039 0.015 0.054 0.023s0.023 0.008 0.039 0.015c0.039 0.008 0.077 0.015 0.116 0.015s0.077-0.008 0.116-0.015c0.015 0 0.023-0.008 0.039-0.015s0.039-0.008 0.054-0.023c0.008-0.008 0.015-0.008 0.023-0.015s0.015-0.008 0.023-0.008l4.447-3.014 5.486 2.549v6.036l-4.238 2.867c-0.015 0.008-0.023 0.015-0.031 0.031-0.015 0.008-0.023 0.023-0.039 0.031-0.015 0.015-0.031 0.039-0.047 0.054-0.008 0.015-0.015 0.023-0.023 0.039-0.015 0.023-0.023 0.047-0.031 0.070-0.008 0.015-0.008 0.023-0.015 0.031-0.008 0.039-0.015 0.077-0.015 0.116v5.16l-5.749 3.138zM22.702 22.927l1.023 0.69 2.518 1.705v4.765l-3.541-2.402v-4.757zM27.134 30.094v-4.765l3.541-2.394v4.765l-3.541 2.394z"></path>
</svg>
