<!-- Generated by IcoMoon.io -->
<svg version="1.1" xmlns="http://www.w3.org/2000/svg" width="32" height="32" viewBox="0 0 32 32">
<title>binoculars-search</title>
<path fill="#fff" d="M6.113 17.619c-0.139-0.139-0.364-0.139-0.511 0-0.139 0.139-0.139 0.364 0 0.511l4.478 4.478c0.070 0.070 0.163 0.108 0.256 0.108s0.186-0.039 0.256-0.108c0.139-0.139 0.139-0.364 0-0.511l-4.478-4.478z"></path>
<path fill="#fff" d="M9.832 20.362c0.070 0.070 0.163 0.108 0.256 0.108s0.186-0.039 0.256-0.108c0.139-0.139 0.139-0.364 0-0.511l-1.991-1.991c-0.139-0.139-0.364-0.139-0.511 0-0.139 0.139-0.139 0.364 0 0.511l1.991 1.991z"></path>
<path fill="#fff" d="M31.194 19.587c0-0.008 0-0.008 0-0.015l-4.409-12.661c-0.008-0.016-0.015-0.039-0.023-0.054-0.581-1.619-2.123-2.704-3.851-2.704-2.139 0-3.897 1.643-4.076 3.735h-5.672c-0.186-2.092-1.937-3.735-4.076-3.735-1.728 0-3.262 1.085-3.851 2.704-0.008 0.016-0.016 0.031-0.023 0.054l-4.409 12.661c0 0.008 0 0.008 0 0.015-0.194 0.604-0.302 1.255-0.302 1.922 0 3.494 2.844 6.338 6.338 6.338s6.338-2.844 6.338-6.338v-5.641c1.813-0.612 3.82-0.612 5.633 0v5.641c0 3.494 2.844 6.338 6.338 6.338s6.338-2.844 6.338-6.338c0.008-0.666-0.101-1.317-0.294-1.922zM13.18 8.608h5.633v4.045h-5.633v-4.045zM6.842 27.134c-3.099 0-5.617-2.518-5.617-5.617s2.518-5.617 5.617-5.617 5.617 2.518 5.617 5.617-2.518 5.617-5.617 5.617zM6.842 15.171c-1.681 0-3.216 0.666-4.347 1.743l3.378-9.716c0.008-0.016 0.016-0.031 0.023-0.054 0.473-1.364 1.751-2.278 3.192-2.278 1.86 0 3.378 1.519 3.378 3.378v10.344c-1.062-2.022-3.184-3.417-5.625-3.417zM13.18 15.117v-1.751h5.633v1.751c-1.821-0.558-3.804-0.558-5.633 0zM19.541 8.244c0-1.86 1.519-3.378 3.378-3.378 1.441 0 2.72 0.914 3.192 2.278 0.008 0.016 0.015 0.031 0.023 0.054l3.378 9.716c-1.139-1.077-2.665-1.743-4.347-1.743-2.441 0-4.564 1.387-5.617 3.417l-0.008-10.344zM25.158 27.134c-3.099 0-5.617-2.518-5.617-5.617s2.518-5.617 5.617-5.617 5.617 2.518 5.617 5.617-2.518 5.617-5.617 5.617z"></path>
<path fill="#fff" d="M24.43 17.619c-0.139-0.139-0.364-0.139-0.511 0-0.139 0.139-0.139 0.364 0 0.511l4.478 4.478c0.070 0.070 0.163 0.108 0.256 0.108s0.186-0.039 0.256-0.108c0.139-0.139 0.139-0.364 0-0.511l-4.478-4.478z"></path>
<path fill="#fff" d="M28.141 20.362c0.070 0.070 0.163 0.108 0.256 0.108s0.186-0.039 0.256-0.108c0.139-0.139 0.139-0.364 0-0.511l-1.991-1.991c-0.139-0.139-0.364-0.139-0.511 0-0.139 0.139-0.139 0.364 0 0.511l1.991 1.991z"></path>
<path fill="#fff" d="M16 9.6c-0.55 0-1 0.449-1 1s0.449 1 1 1c0.55 0 1-0.449 1-1s-0.449-1-1-1zM16 10.886c-0.155 0-0.287-0.124-0.287-0.287 0-0.155 0.124-0.287 0.287-0.287 0.155 0 0.287 0.124 0.287 0.287s-0.132 0.287-0.287 0.287z"></path>
</svg>
