<!-- Generated by IcoMoon.io -->
<svg version="1.1" xmlns="http://www.w3.org/2000/svg" width="32" height="32" viewBox="0 0 32 32">
<title>blacklinsting</title>
<path fill="#fff" d="M22.346 13.869l-1.96 2.673v-8.508c0-0.868-0.705-1.573-1.573-1.573-0.325 0-0.62 0.101-0.868 0.263-0.039-0.837-0.721-1.503-1.565-1.503s-1.526 0.666-1.565 1.503c-0.248-0.163-0.55-0.263-0.868-0.263-0.868 0-1.573 0.705-1.573 1.573v0.418c-0.248-0.163-0.542-0.263-0.86-0.263-0.868 0-1.573 0.705-1.573 1.573v12.289c0 1.356 0.612 2.627 1.635 3.401 1.162 0.876 2.712 1.325 4.587 1.325 3.727 0 4.641-2.324 5.455-4.378 0.279-0.705 0.542-1.364 0.899-1.945 0.465-0.744 0.891-1.488 1.302-2.2 0.449-0.783 0.876-1.526 1.302-2.193 0.496-0.767 0.318-1.813-0.418-2.371-0.705-0.535-1.674-0.48-2.309 0.132-0.023 0.015-0.039 0.031-0.047 0.046zM24.267 14.257c0.442 0.333 0.55 0.961 0.256 1.418-0.442 0.674-0.868 1.426-1.325 2.224-0.403 0.713-0.829 1.441-1.286 2.177-0.395 0.635-0.682 1.356-0.961 2.061-0.798 2.022-1.557 3.928-4.796 3.928-1.72 0-3.123-0.395-4.161-1.178-0.845-0.635-1.348-1.697-1.348-2.828v-12.296c0-0.473 0.387-0.86 0.86-0.86s0.86 0.387 0.86 0.86v6.284c0 0.194 0.163 0.356 0.356 0.356s0.356-0.163 0.356-0.356v-8.012c0-0.473 0.387-0.86 0.86-0.86s0.86 0.387 0.86 0.86v8.012c0 0.194 0.163 0.356 0.356 0.356s0.356-0.163 0.356-0.356v-9.251c0-0.473 0.387-0.86 0.86-0.86s0.86 0.387 0.86 0.86v9.251c0 0.194 0.163 0.356 0.356 0.356s0.356-0.163 0.356-0.356v-8.012c0-0.473 0.387-0.86 0.86-0.86s0.86 0.387 0.86 0.86v9.592c0 0.155 0.101 0.287 0.248 0.341 0.147 0.047 0.302 0 0.395-0.124l2.58-3.525c0.395-0.356 0.961-0.38 1.379-0.062z"></path>
<path fill="#fff" d="M31.45 15.822l-7.57-13.11c-0.062-0.108-0.178-0.178-0.31-0.178h-15.14c-0.124 0-0.24 0.070-0.31 0.178l-7.57 13.11c-0.062 0.108-0.062 0.248 0 0.356l7.57 13.11c0.062 0.108 0.178 0.178 0.31 0.178h15.14c0.124 0 0.24-0.070 0.31-0.178l7.57-13.11c0.062-0.108 0.062-0.248 0-0.356zM23.369 28.761h-14.737l-7.361-12.761 7.369-12.761h14.729l7.369 12.761-7.369 12.761z"></path>
</svg>
