<!-- Generated by IcoMoon.io -->
<svg version="1.1" xmlns="http://www.w3.org/2000/svg" width="32" height="32" viewBox="0 0 32 32">
<title>blind</title>
<path fill="#fff" d="M31.396 15.264c-5.788-6.338-11.157-8.422-15.729-8.415-0.015 0-0.023 0-0.039 0h-0.008c-0.566 0-1.123 0.039-1.666 0.101l-0.736-2.603c-0.062-0.209-0.279-0.333-0.488-0.271s-0.333 0.279-0.271 0.488l0.705 2.503c-3.758 0.643-6.834 2.603-8.972 4.401-1.247 1.046-2.154 2.030-2.696 2.673-1.162 1.379-1.054 1.511-0.891 1.72 1.007 1.294 2.076 2.448 3.177 3.44 0.008 0.008 0.023 0.008 0.031 0.015 0.077 0.101 0.194 0.163 0.325 0.163 0.039 0 0.077-0.008 0.116-0.015 0.209-0.062 0.325-0.287 0.263-0.496l-1.604-5.23c0.504-0.527 1.116-1.116 1.829-1.712l2.565 9.693c0.046 0.178 0.209 0.294 0.38 0.294 0.031 0 0.070-0.008 0.101-0.015 0.209-0.054 0.341-0.271 0.279-0.488l-2.658-10.018c0.589-0.457 1.232-0.907 1.929-1.325l3.68 12.754c0.046 0.17 0.209 0.287 0.38 0.287 0.039 0 0.070-0.008 0.108-0.015 0.209-0.062 0.333-0.279 0.271-0.488l-3.735-12.947c0.705-0.387 1.457-0.744 2.247-1.046l4.277 14.714c0.046 0.17 0.209 0.287 0.38 0.287 0.039 0 0.077-0.008 0.108-0.015 0.209-0.062 0.333-0.279 0.271-0.488l-1.41-4.866c0.597 0.449 1.333 0.728 2.131 0.728 0.163 0 0.325-0.015 0.48-0.039l2.433 8.624c0.047 0.178 0.209 0.287 0.38 0.287 0.039 0 0.070-0.008 0.108-0.015 0.209-0.062 0.333-0.279 0.271-0.488l-1.085-3.882c6.082-1.201 11.212-5.323 12.8-7.81 0.093-0.147 0.077-0.341-0.039-0.48zM3.301 17.743c-0.659-0.666-1.302-1.387-1.922-2.169 0.155-0.232 0.457-0.643 0.899-1.154l1.023 3.324zM11.041 8.438c0.744-0.248 1.526-0.442 2.34-0.573l1.255 4.44c-0.868 0.38-1.557 1.108-1.891 2.007l-1.705-5.873zM16.047 18.27c-1.503 0-2.735-1.224-2.735-2.735 0-1.077 0.628-2.007 1.542-2.456l1.457 5.176c-0.085 0.008-0.17 0.015-0.263 0.015zM15.613 12.839c0.139-0.023 0.287-0.039 0.434-0.039 1.503 0 2.735 1.224 2.735 2.735 0 1.139-0.705 2.115-1.697 2.526l-1.472-5.222zM19.572 15.535c0-1.945-1.581-3.525-3.525-3.525-0.225 0-0.442 0.023-0.651 0.062l-1.216-4.3c0.79-0.085 1.573-0.108 2.363-0.062 3.735 0.465 6.632 3.735 6.632 7.702 0 3.154-1.929 5.982-4.827 7.136l-1.046-3.719c1.325-0.511 2.27-1.79 2.27-3.293zM20.595 22.191c2.084-1.573 3.378-4.068 3.378-6.78 0-2.836-1.356-5.346-3.432-6.904 3.394 1.154 6.756 3.51 10.065 7.066-2.193 3.177-6.694 5.486-10.011 6.617z"></path>
</svg>
