<!-- Generated by IcoMoon.io -->
<svg version="1.1" xmlns="http://www.w3.org/2000/svg" width="32" height="32" viewBox="0 0 32 32">
<title>boat-transfers</title>
<path fill="#fff" d="M31.248 14.683c-0.248-0.325-0.643-0.488-1.046-0.449l-6.842 0.674-1.821-4.757c-0.047-0.116-0.163-0.186-0.279-0.17l-4.424 0.449v-1.79c0-0.077-0.031-0.147-0.085-0.201s-0.124-0.070-0.201-0.070l-3.603 0.318c-0.139 0.015-0.248 0.132-0.248 0.271v1.891l-5.284 0.535c-0.147 0.015-0.256 0.147-0.24 0.294s0.147 0.256 0.294 0.24l3.363-0.341v4.571l-9.453 0.93c-0.077 0.008-0.155 0.054-0.194 0.116-0.046 0.070-0.054 0.147-0.031 0.225l1.612 5.315c-0.628 0.24-1.302 0.364-1.991 0.364-0.147 0-0.271 0.124-0.271 0.271s0.124 0.271 0.271 0.271c0.837 0 1.65-0.17 2.386-0.488h0.008c0.008 0 0.008-0.008 0.015-0.008 0.821-0.356 1.557-0.883 2.131-1.557 1.108 1.294 2.782 2.053 4.548 2.053s3.44-0.759 4.548-2.053c1.108 1.294 2.782 2.053 4.548 2.053s3.44-0.759 4.548-2.053c1.108 1.294 2.782 2.053 4.548 2.053 0.147 0 0.271-0.124 0.271-0.271s-0.124-0.271-0.271-0.271c-0.86 0-1.697-0.201-2.448-0.566 0.442-0.209 1.666-0.938 3.696-3.308 1-1.162 1.712-2.301 2.123-3.401 0.139-0.387 0.077-0.814-0.178-1.139zM21.114 10.538l1.705 4.424-5.982 0.589v-4.579l4.277-0.434zM13.226 9.197l3.068-0.271v1.55l-3.068 0.31v-1.588zM11.367 11.514l4.936-0.496v4.579l-4.936 0.488v-4.571zM30.915 15.628c-0.271 0.713-0.837 1.86-2.022 3.239-2.433 2.828-3.618 3.215-3.626 3.223-0.085 0.023-0.139 0.085-0.17 0.155-0.527-0.333-1-0.759-1.379-1.263-0.054-0.070-0.132-0.108-0.217-0.108s-0.163 0.039-0.217 0.108c-1 1.317-2.611 2.107-4.331 2.107s-3.339-0.79-4.331-2.108c-0.054-0.070-0.132-0.108-0.217-0.108s-0.163 0.039-0.217 0.108c-1 1.317-2.611 2.108-4.331 2.108s-3.339-0.79-4.331-2.108c-0.054-0.070-0.132-0.108-0.217-0.108s-0.163 0.039-0.217 0.108c-0.488 0.643-1.123 1.162-1.844 1.526l-1.503-4.943 28.506-2.805c0.225-0.023 0.426 0.070 0.566 0.24 0.147 0.186 0.186 0.418 0.101 0.628z"></path>
</svg>
