<!-- Generated by IcoMoon.io -->
<svg version="1.1" xmlns="http://www.w3.org/2000/svg" width="32" height="32" viewBox="0 0 32 32">
<title>books</title>
<path fill="#fff" d="M27.77 13.567h-0.62c-0.883-2.053 0.047-3.525 0.403-3.975h0.209c0.271 0 0.496-0.225 0.496-0.496s-0.225-0.496-0.496-0.496h-7.283v-2.627c0-0.271-0.225-0.496-0.496-0.496h-0.573c-0.907-2.092 0.031-3.564 0.356-3.975h0.217c0.271 0 0.496-0.225 0.496-0.496s-0.225-0.496-0.496-0.496h-13.265c-0.798 0-1.55 0.31-2.107 0.876-0.535 0.535-0.837 1.24-0.868 1.999 0 0.008-0.008 0.015-0.008 0.031v16.643c0 1.852 1.503 3.355 3.347 3.355h4.424v4.742c0 1.852 1.503 3.355 3.347 3.355h12.908c0.271 0 0.496-0.225 0.496-0.496v-16.945c0.008-0.279-0.209-0.504-0.488-0.504zM26.088 13.567h-11.599c-0.945 0-1.759-0.666-1.945-1.581l-0.039-0.496c0.023-0.504 0.217-0.969 0.573-1.325 0.372-0.372 0.876-0.581 1.41-0.581h11.901c-0.457 0.845-0.907 2.247-0.302 3.983zM6.718 1.495h11.886c-0.442 0.814-0.876 2.208-0.248 3.975h-11.638c-0.945 0-1.79-0.659-1.945-1.581-0.046-0.248-0.039-0.457-0.039-0.457 0.016-0.511 0.209-0.992 0.573-1.356 0.372-0.372 0.876-0.581 1.41-0.581zM7.082 22.408c-1.302 0-2.355-1.061-2.355-2.363v-14.334c0.535 0.473 1.232 0.759 1.991 0.759h12.784v2.131h-5.013c-0.798 0-1.55 0.31-2.107 0.876-0.504 0.504-0.814 1.162-0.876 1.867 0 0.023 0 0.039 0 0.062v11.010h-4.424v-0.008zM27.274 30.505h-12.413c-1.302 0-2.355-1.061-2.355-2.363v-14.334c0.535 0.473 1.232 0.759 1.991 0.759h12.777v15.938z"></path>
</svg>
