<!-- Generated by IcoMoon.io -->
<svg version="1.1" xmlns="http://www.w3.org/2000/svg" width="32" height="32" viewBox="0 0 32 32">
<title>booking-analytics</title>
<path fill="#fff" d="M9.701 8.577l5.37 1.79-2.317 2.317c-1.844-0.116-1.852-0.116-1.875-0.116-0.457 0.023-0.821 0.341-0.907 0.806-0.085 0.473 0.163 0.938 0.604 1.116l1.457 0.604 0.604 1.457c0.178 0.442 0.635 0.682 1.116 0.604 0.457-0.077 0.783-0.442 0.806-0.922 0-0.015 0-0.015-0.116-1.852l2.317-2.317 1.79 5.37c0.062 0.178 0.225 0.302 0.411 0.31 0.023 0 0.047 0 0.070 0 0.325 0 0.635-0.124 0.86-0.349 0.24-0.24 0.364-0.573 0.341-0.922l-0.395-7.485 2.696-2.696c0.232-0.232 0.364-0.542 0.364-0.876 0-0.318-0.124-0.612-0.349-0.837s-0.519-0.349-0.837-0.349v0c-0.325 0-0.635 0.132-0.876 0.364l-2.696 2.696-7.477-0.395c-0.356-0.016-0.682 0.101-0.93 0.341-0.24 0.24-0.364 0.573-0.349 0.93 0.015 0.186 0.139 0.349 0.318 0.411zM10.615 7.81l7.694 0.403c0.132 0.008 0.256-0.039 0.349-0.132l2.836-2.836c0.062-0.062 0.139-0.093 0.225-0.093 0.054 0 0.124 0.016 0.194 0.077 0.062 0.062 0.077 0.139 0.077 0.186 0 0.085-0.031 0.163-0.093 0.225l-2.836 2.836c-0.093 0.093-0.139 0.217-0.132 0.349l0.403 7.694c0.008 0.070-0.008 0.132-0.047 0.186l-1.875-5.641c-0.047-0.147-0.178-0.263-0.333-0.302-0.031-0.008-0.070-0.015-0.108-0.015-0.124 0-0.24 0.046-0.325 0.132l-2.991 2.991c-0.093 0.093-0.139 0.225-0.132 0.349 0 0 0.124 1.968 0.124 1.984s0 0.031-0.046 0.039c-0.023 0.008-0.085 0.008-0.108-0.047l-0.674-1.635c-0.046-0.116-0.139-0.201-0.248-0.248l-1.635-0.674c-0.062-0.023-0.054-0.085-0.054-0.108 0.008-0.039 0.023-0.046 0.008-0.046 0.147 0.008 2.015 0.124 2.015 0.124 0.139 0.008 0.263-0.039 0.349-0.132l2.991-2.983c0.116-0.108 0.155-0.271 0.124-0.426-0.039-0.155-0.147-0.279-0.302-0.325l-5.641-1.875c0.054-0.046 0.116-0.054 0.194-0.054z"></path>
<path fill="#fff" d="M29.668 1.511h-27.336c-1.007 0-1.829 0.821-1.829 1.829v19.339c0 1.007 0.821 1.829 1.829 1.829h9.282v1.596c0 0.279-0.155 0.798-0.31 1.030l-0.759 1.139c-0.325 0.496-0.38 1.038-0.132 1.495s0.728 0.721 1.317 0.721h8.546c0.597 0 1.077-0.263 1.317-0.721 0.248-0.457 0.201-1.007-0.132-1.495l-0.759-1.139c-0.155-0.232-0.31-0.752-0.31-1.030v-1.596h9.282c1.007 0 1.829-0.821 1.829-1.829v-19.339c-0.008-1.007-0.829-1.829-1.836-1.829zM2.332 2.433h27.343c0.504 0 0.907 0.411 0.907 0.907v15.403h-29.164v-15.403c0-0.504 0.411-0.907 0.914-0.907zM20.695 28.777c0.077 0.116 0.194 0.349 0.085 0.558s-0.372 0.24-0.511 0.24h-8.539c-0.147 0-0.403-0.031-0.511-0.24s0.008-0.442 0.085-0.558l0.759-1.139c0.256-0.38 0.465-1.077 0.465-1.534v-1.596h6.942v1.596c0 0.457 0.217 1.154 0.465 1.534l0.759 1.139zM29.668 23.593h-27.336c-0.504 0-0.907-0.411-0.907-0.907v-3.022h29.164v3.022c-0.008 0.496-0.418 0.907-0.922 0.907z"></path>
<path fill="#fff" d="M16.852 21.827c0 0.471-0.382 0.852-0.852 0.852s-0.852-0.382-0.852-0.852c0-0.471 0.382-0.852 0.852-0.852s0.852 0.382 0.852 0.852z"></path>
</svg>
