<!-- Generated by IcoMoon.io -->
<svg version="1.1" xmlns="http://www.w3.org/2000/svg" width="32" height="32" viewBox="0 0 32 32">
<title>booking-file</title>
<path fill="#fff" d="M29.985 0.705h-6.036c-0.721 0-1.402 0.31-1.883 0.852l-1.054 1.193h-2.216c-0.008 0-0.008 0-0.015 0h-14.195c-2.247 0-4.083 1.829-4.083 4.083v13.8c0 0.806 0.651 1.457 1.457 1.457h4.161c0.147 5.098 4.331 9.205 9.461 9.205s9.313-4.107 9.461-9.205h4.998c0.806 0 1.457-0.651 1.457-1.457v-18.417c0-0.829-0.682-1.511-1.511-1.511zM15.582 30.342c-4.61 0-8.368-3.68-8.508-8.252h3.518c0.132 0 0.256-0.054 0.341-0.147 0.093-0.085 0.147-0.209 0.147-0.341v-12.405c0-0.387 0.318-0.705 0.721-0.705 0.387 0 0.705 0.318 0.705 0.705v7.872c0 0.806 0.651 1.457 1.457 1.457s1.457-0.651 1.457-1.457v-9.12c0-0.387 0.318-0.705 0.721-0.705 0.387 0 0.705 0.318 0.705 0.705v9.468c0 0.612 0.496 1.108 1.108 1.108s1.108-0.496 1.108-1.108v-8.221c0-0.387 0.318-0.705 0.721-0.705 0.387 0 0.705 0.318 0.705 0.705v8.221c0 0.612 0.496 1.108 1.108 1.108s1.108-0.496 1.108-1.108v-6.617c0-0.387 0.318-0.705 0.705-0.705s0.705 0.318 0.705 0.705v10.716c-0.008 0.031-0.023 0.062-0.023 0.101s0.015 0.070 0.023 0.101v0.062c0 0.015 0.008 0.031 0.008 0.047v0c-0.015 4.688-3.843 8.515-8.539 8.515zM30.543 20.633c0 0.279-0.225 0.504-0.504 0.504h-4.99v-10.336c0-0.914-0.744-1.658-1.658-1.658s-1.658 0.744-1.658 1.658v6.617c0 0.085-0.070 0.155-0.155 0.155s-0.155-0.070-0.155-0.155v-8.221c0-0.914-0.744-1.658-1.666-1.658-0.914 0-1.658 0.744-1.658 1.658v8.221c0 0.085-0.070 0.155-0.155 0.155s-0.155-0.070-0.155-0.155v-9.468c0-0.914-0.744-1.658-1.666-1.658-0.914 0-1.658 0.744-1.658 1.658v9.12c0 0.279-0.225 0.504-0.504 0.504s-0.504-0.225-0.504-0.504v-7.872c0-0.914-0.744-1.658-1.666-1.658-0.914 0-1.658 0.744-1.658 1.658v11.94h-8.174c-0.279 0-0.504-0.225-0.504-0.504v-13.8c0-1.728 1.402-3.13 3.13-3.13h16.643c0.008 0 0.008 0 0.015 0h4.502c0.263 0 0.473-0.209 0.473-0.473s-0.209-0.473-0.473-0.473h-3.463l0.496-0.566c0.294-0.333 0.721-0.527 1.17-0.527h6.036c0.31 0 0.558 0.248 0.558 0.558v18.41z"></path>
</svg>
