<!-- Generated by IcoMoon.io -->
<svg version="1.1" xmlns="http://www.w3.org/2000/svg" width="32" height="32" viewBox="0 0 32 32">
<title>bookability</title>
<path fill="#fff" d="M1.069 3.866c0.062 0.031 0.124 0.046 0.186 0.046 0.139 0 0.279-0.077 0.356-0.209 0.217-0.411 0.55-0.752 0.945-0.992 0.194-0.116 0.248-0.364 0.139-0.55-0.116-0.194-0.364-0.248-0.55-0.139-0.519 0.318-0.953 0.767-1.24 1.302-0.108 0.194-0.031 0.434 0.163 0.542z"></path>
<path fill="#fff" d="M0.907 11.072v0c-0.225 0-0.403 0.178-0.403 0.403 0 0.612 0.17 1.209 0.48 1.736 0.077 0.124 0.209 0.194 0.349 0.194 0.070 0 0.139-0.015 0.209-0.054 0.194-0.116 0.256-0.364 0.139-0.55-0.24-0.395-0.364-0.852-0.364-1.317-0.008-0.232-0.186-0.411-0.411-0.411z"></path>
<path fill="#fff" d="M3.89 2.332h1.588c0.225 0 0.403-0.178 0.403-0.403s-0.178-0.403-0.403-0.403h-1.604c-0.225 0-0.395 0.178-0.395 0.403s0.194 0.403 0.411 0.403z"></path>
<path fill="#fff" d="M0.907 10.274c0.225 0 0.403-0.178 0.403-0.403v-1.604c0-0.225-0.178-0.403-0.403-0.403s-0.403 0.178-0.403 0.403v1.604c0 0.217 0.178 0.403 0.403 0.403z"></path>
<path fill="#fff" d="M7.632 14.45c0-0.225-0.178-0.403-0.403-0.403h-1.604c-0.225 0-0.403 0.178-0.403 0.403s0.178 0.403 0.403 0.403h1.604c0.225 0 0.403-0.178 0.403-0.403z"></path>
<path fill="#fff" d="M7.090 2.332h1.604c0.225 0 0.403-0.178 0.403-0.403s-0.178-0.403-0.403-0.403h-1.604c-0.225 0-0.403 0.178-0.403 0.403s0.178 0.403 0.403 0.403z"></path>
<path fill="#fff" d="M0.907 7.059c0.225 0 0.403-0.178 0.403-0.403v-1.604c0-0.225-0.178-0.403-0.403-0.403s-0.403 0.178-0.403 0.403v1.604c0 0.225 0.178 0.403 0.403 0.403z"></path>
<path fill="#fff" d="M10.855 14.45c0-0.225-0.194-0.403-0.418-0.403h-1.604c-0.225 0-0.403 0.178-0.403 0.403s0.178 0.403 0.403 0.403h1.635c0.225 0 0.387-0.178 0.387-0.403z"></path>
<path fill="#fff" d="M10.297 2.332h0.147c0.426 0 0.845 0.101 1.216 0.302 0.062 0.031 0.124 0.046 0.186 0.046 0.147 0 0.287-0.077 0.356-0.217 0.101-0.194 0.031-0.442-0.163-0.542-0.488-0.256-1.038-0.395-1.588-0.395h-0.147c-0.225 0-0.403 0.178-0.403 0.403s0.17 0.403 0.395 0.403z"></path>
<path fill="#fff" d="M12.784 3.030c-0.186 0.116-0.248 0.364-0.132 0.55 0.24 0.395 0.372 0.852 0.372 1.317 0 0.225 0.178 0.403 0.403 0.403v0c0.225 0 0.403-0.186 0.403-0.403-0.008-0.612-0.17-1.209-0.488-1.728-0.116-0.194-0.364-0.256-0.558-0.139z"></path>
<path fill="#fff" d="M4.021 14.853c0.225 0 0.403-0.178 0.403-0.403s-0.178-0.403-0.403-0.403h-0.132c-0.426 0-0.852-0.108-1.224-0.31-0.194-0.108-0.442-0.031-0.542 0.163-0.108 0.194-0.031 0.442 0.163 0.542 0.488 0.263 1.046 0.403 1.604 0.403l0.132 0.008z"></path>
<path fill="#fff" d="M13.428 6.098c-0.225 0-0.403 0.178-0.403 0.403v1.604c0 0.225 0.178 0.403 0.403 0.403s0.403-0.178 0.403-0.403v-1.604c0-0.225-0.186-0.403-0.403-0.403z"></path>
<path fill="#fff" d="M13.428 9.306c-0.225 0-0.403 0.178-0.403 0.403v1.604c0 0.225 0.178 0.403 0.403 0.403s0.403-0.178 0.403-0.403v-1.604c0-0.225-0.186-0.403-0.403-0.403z"></path>
<path fill="#fff" d="M13.435 13.048c0.101-0.194 0.031-0.442-0.17-0.542-0.194-0.101-0.442-0.031-0.542 0.17-0.217 0.411-0.542 0.759-0.938 1-0.186 0.116-0.248 0.364-0.132 0.55 0.077 0.124 0.209 0.194 0.341 0.194 0.070 0 0.147-0.015 0.209-0.062 0.519-0.318 0.945-0.767 1.232-1.309z"></path>
<path fill="#fff" d="M16.527 7.059c0.225 0 0.403-0.178 0.403-0.403v-1.604c0-0.225-0.178-0.403-0.403-0.403s-0.403 0.178-0.403 0.403v1.604c0 0.225 0.178 0.403 0.403 0.403z"></path>
<path fill="#fff" d="M19.51 14.047c-0.426 0-0.852-0.108-1.224-0.31-0.194-0.108-0.442-0.031-0.542 0.163-0.108 0.194-0.031 0.442 0.163 0.542 0.488 0.263 1.046 0.403 1.604 0.403h0.132c0.225 0 0.403-0.178 0.403-0.403s-0.178-0.403-0.403-0.403l-0.132 0.008z"></path>
<path fill="#fff" d="M25.91 2.332h0.147c0.426 0 0.845 0.101 1.209 0.302 0.062 0.031 0.124 0.046 0.186 0.046 0.147 0 0.287-0.077 0.356-0.217 0.101-0.194 0.031-0.442-0.163-0.542-0.488-0.256-1.038-0.395-1.588-0.395h-0.147c-0.225 0-0.403 0.178-0.403 0.403s0.186 0.403 0.403 0.403z"></path>
<path fill="#fff" d="M24.453 14.047c-0.225 0-0.403 0.178-0.403 0.403s0.178 0.403 0.403 0.403h1.635c0.225 0 0.387-0.178 0.387-0.403s-0.194-0.403-0.418-0.403h-1.604z"></path>
<path fill="#fff" d="M27.266 14.226c0.077 0.124 0.209 0.194 0.341 0.194 0.070 0 0.147-0.015 0.209-0.062 0.519-0.318 0.945-0.767 1.232-1.309 0.101-0.194 0.031-0.442-0.17-0.542-0.194-0.101-0.442-0.031-0.542 0.17-0.217 0.411-0.542 0.759-0.938 1-0.186 0.108-0.248 0.356-0.132 0.55z"></path>
<path fill="#fff" d="M29.443 6.501c0-0.225-0.178-0.403-0.403-0.403s-0.403 0.178-0.403 0.403v1.604c0 0.225 0.178 0.403 0.403 0.403s0.403-0.178 0.403-0.403v-1.604z"></path>
<path fill="#fff" d="M29.040 9.306c-0.225 0-0.403 0.178-0.403 0.403v1.604c0 0.225 0.178 0.403 0.403 0.403s0.403-0.178 0.403-0.403v-1.604c0-0.225-0.178-0.403-0.403-0.403z"></path>
<path fill="#fff" d="M16.527 11.072v0c-0.225 0-0.403 0.178-0.403 0.403 0 0.612 0.17 1.209 0.48 1.736 0.077 0.124 0.209 0.194 0.349 0.194 0.070 0 0.139-0.015 0.209-0.054 0.194-0.116 0.256-0.364 0.139-0.55-0.24-0.395-0.364-0.852-0.364-1.317-0.015-0.232-0.194-0.411-0.411-0.411z"></path>
<path fill="#fff" d="M22.702 2.332h1.604c0.225 0 0.403-0.178 0.403-0.403s-0.178-0.403-0.403-0.403h-1.604c-0.225 0-0.403 0.178-0.403 0.403s0.178 0.403 0.403 0.403z"></path>
<path fill="#fff" d="M16.682 3.866c0.062 0.031 0.124 0.046 0.186 0.046 0.139 0 0.279-0.077 0.356-0.209 0.217-0.411 0.55-0.752 0.945-0.992 0.194-0.116 0.248-0.364 0.139-0.55-0.116-0.194-0.364-0.248-0.55-0.139-0.519 0.318-0.953 0.767-1.24 1.302-0.101 0.194-0.031 0.434 0.163 0.542z"></path>
<path fill="#fff" d="M19.51 2.332h1.588c0.225 0 0.403-0.178 0.403-0.403s-0.178-0.403-0.403-0.403h-1.604c-0.225 0-0.395 0.178-0.395 0.403s0.186 0.403 0.411 0.403z"></path>
<path fill="#fff" d="M21.246 14.047c-0.225 0-0.403 0.178-0.403 0.403s0.178 0.403 0.403 0.403h1.604c0.225 0 0.403-0.178 0.403-0.403s-0.178-0.403-0.403-0.403h-1.604z"></path>
<path fill="#fff" d="M28.637 4.897c0 0.225 0.178 0.403 0.403 0.403v0c0.225 0 0.403-0.186 0.403-0.403-0.008-0.612-0.17-1.209-0.488-1.728-0.116-0.186-0.364-0.248-0.55-0.132s-0.248 0.364-0.132 0.55c0.232 0.387 0.364 0.845 0.364 1.309z"></path>
<path fill="#fff" d="M16.527 10.274c0.225 0 0.403-0.178 0.403-0.403v-1.604c0-0.225-0.178-0.403-0.403-0.403s-0.403 0.178-0.403 0.403v1.604c0 0.217 0.178 0.403 0.403 0.403z"></path>
<path fill="#fff" d="M13.428 24.926c-0.225 0-0.403 0.178-0.403 0.403v1.604c0 0.225 0.178 0.403 0.403 0.403s0.403-0.178 0.403-0.403v-1.604c0-0.225-0.186-0.403-0.403-0.403z"></path>
<path fill="#fff" d="M13.265 28.126c-0.194-0.101-0.442-0.031-0.542 0.17-0.217 0.411-0.542 0.759-0.938 1-0.194 0.116-0.248 0.364-0.132 0.55 0.077 0.124 0.209 0.194 0.341 0.194 0.070 0 0.147-0.015 0.209-0.062 0.519-0.318 0.945-0.767 1.232-1.309 0.101-0.194 0.031-0.442-0.17-0.542z"></path>
<path fill="#fff" d="M7.229 29.668h-1.604c-0.225 0-0.403 0.178-0.403 0.403s0.178 0.403 0.403 0.403h1.604c0.225 0 0.403-0.178 0.403-0.403s-0.178-0.403-0.403-0.403z"></path>
<path fill="#fff" d="M10.437 29.668h-1.604c-0.225 0-0.403 0.178-0.403 0.403s0.178 0.403 0.403 0.403h1.619l0.015-0.403v0.403c0.225 0 0.387-0.178 0.387-0.403s-0.194-0.403-0.418-0.403z"></path>
<path fill="#fff" d="M13.428 21.718c-0.225 0-0.403 0.178-0.403 0.403v1.604c0 0.225 0.178 0.403 0.403 0.403s0.403-0.178 0.403-0.403v-1.604c0-0.225-0.186-0.403-0.403-0.403z"></path>
<path fill="#fff" d="M12.784 18.642c-0.186 0.116-0.248 0.364-0.132 0.55 0.24 0.395 0.372 0.852 0.372 1.317 0 0.225 0.178 0.403 0.403 0.403v0c0.225 0 0.403-0.186 0.403-0.403-0.008-0.612-0.17-1.209-0.488-1.728-0.116-0.194-0.364-0.256-0.558-0.139z"></path>
<path fill="#fff" d="M0.907 25.887c0.225 0 0.403-0.178 0.403-0.403v-1.604c0-0.225-0.178-0.403-0.403-0.403s-0.403 0.178-0.403 0.403v1.604c0 0.225 0.178 0.403 0.403 0.403z"></path>
<path fill="#fff" d="M3.89 17.953h1.588c0.225 0 0.403-0.178 0.403-0.403s-0.178-0.403-0.403-0.403h-1.557c-0.232-0.015-0.442 0.17-0.442 0.403 0 0.225 0.194 0.403 0.411 0.403z"></path>
<path fill="#fff" d="M0.907 22.679c0.225 0 0.403-0.178 0.403-0.403v-1.604c0-0.225-0.178-0.403-0.403-0.403s-0.403 0.178-0.403 0.403v1.604c0 0.225 0.178 0.403 0.403 0.403z"></path>
<path fill="#fff" d="M10.297 17.953h0.147c0.426 0 0.837 0.101 1.216 0.302 0.062 0.031 0.124 0.047 0.186 0.047 0.147 0 0.287-0.077 0.356-0.217 0.101-0.194 0.031-0.442-0.163-0.542-0.488-0.256-1.038-0.395-1.588-0.395h-0.147c-0.225 0-0.403 0.178-0.403 0.403-0.008 0.225 0.17 0.403 0.395 0.403z"></path>
<path fill="#fff" d="M2.696 17.767c-0.116-0.194-0.364-0.248-0.55-0.139-0.519 0.318-0.953 0.767-1.24 1.302-0.108 0.194-0.031 0.442 0.163 0.542 0.062 0.031 0.124 0.047 0.186 0.047 0.139 0 0.279-0.077 0.356-0.209 0.217-0.411 0.55-0.752 0.945-0.992 0.194-0.108 0.256-0.356 0.139-0.55z"></path>
<path fill="#fff" d="M4.021 29.668h-0.132c-0.426 0-0.852-0.108-1.224-0.31-0.194-0.108-0.442-0.031-0.542 0.163-0.108 0.194-0.031 0.442 0.163 0.542 0.488 0.263 1.046 0.403 1.604 0.403h0.132c0.225 0 0.403-0.178 0.403-0.403s-0.178-0.395-0.403-0.395z"></path>
<path fill="#fff" d="M1.309 27.088c0-0.225-0.178-0.403-0.403-0.403v0c-0.225 0-0.403 0.178-0.403 0.403 0 0.612 0.17 1.209 0.48 1.736 0.077 0.124 0.209 0.194 0.349 0.194 0.070 0 0.139-0.015 0.209-0.054 0.194-0.116 0.256-0.364 0.139-0.55-0.248-0.403-0.372-0.86-0.372-1.325z"></path>
<path fill="#fff" d="M7.090 17.953h1.604c0.225 0 0.403-0.178 0.403-0.403s-0.178-0.403-0.403-0.403h-1.604c-0.225 0-0.403 0.178-0.403 0.403s0.178 0.403 0.403 0.403z"></path>
<path fill="#fff" d="M31.318 15.558c-0.186-0.124-0.434-0.077-0.558 0.101l-1.968 2.875c-0.62-0.845-1.612-1.395-2.735-1.395h-6.547c-1.867 0-3.386 1.519-3.386 3.386v6.547c0 1.867 1.519 3.386 3.386 3.386h6.547c1.867 0 3.386-1.519 3.386-3.386v-6.539c0-0.426-0.077-0.829-0.225-1.201l2.2-3.215c0.132-0.178 0.085-0.426-0.101-0.558zM28.637 20.533v6.547c0 1.426-1.162 2.58-2.58 2.58h-6.547c-1.426 0-2.58-1.162-2.58-2.58v-6.547c0-1.426 1.162-2.58 2.58-2.58h6.547c0.961 0 1.798 0.527 2.239 1.309l-4.494 6.555-3.084-4.44c-0.124-0.186-0.38-0.225-0.558-0.101-0.186 0.124-0.225 0.38-0.101 0.558l3.417 4.912c0.077 0.108 0.201 0.17 0.333 0.17v0c0.132 0 0.256-0.070 0.333-0.178l4.478-6.532c0.008 0.108 0.015 0.217 0.015 0.325z"></path>
</svg>
