<!-- Generated by IcoMoon.io -->
<svg version="1.1" xmlns="http://www.w3.org/2000/svg" width="32" height="32" viewBox="0 0 32 32">
<title>booking-file-navigation-button</title>
<path fill="#fff" d="M16.628 19.928c-0.318-0.341-0.86-0.341-1.178 0l-4.447 4.796c-0.155 0.17-0.147 0.434 0.023 0.597 0.077 0.077 0.186 0.116 0.287 0.116 0.116 0 0.225-0.047 0.31-0.132l4.424-4.765 4.416 4.765c0.155 0.17 0.426 0.178 0.597 0.023s0.178-0.426 0.023-0.597l-4.455-4.804z"></path>
<path fill="#fff" d="M29.668 6.57h-27.312c-1.007 0-1.829 0.821-1.829 1.829v1.937c0 1.007 0.821 1.829 1.829 1.829h27.312c1.007 0 1.829-0.821 1.829-1.829v-1.937c0-1.007-0.821-1.829-1.829-1.829zM30.652 10.336c0 0.542-0.442 0.992-0.992 0.992h-27.305c-0.542 0-0.992-0.442-0.992-0.992v-1.937c0-0.542 0.442-0.992 0.992-0.992h27.312c0.542 0 0.992 0.442 0.992 0.992l-0.008 1.937z"></path>
<path fill="#fff" d="M29.645 13.172h-27.312c-1.007 0-1.829 0.821-1.829 1.829v1.937c0 1.007 0.821 1.829 1.829 1.829h27.312c1.007 0 1.829-0.821 1.829-1.829v-1.937c0.008-1.007-0.814-1.829-1.829-1.829zM30.636 16.945c0 0.542-0.442 0.992-0.992 0.992h-27.312c-0.542 0-0.992-0.442-0.992-0.992v-1.937c0-0.542 0.442-0.992 0.992-0.992h27.312c0.542 0 0.992 0.442 0.992 0.992v1.937z"></path>
</svg>
