<!-- Generated by IcoMoon.io -->
<svg version="1.1" xmlns="http://www.w3.org/2000/svg" width="32" height="32" viewBox="0 0 32 32">
<title>box-02</title>
<path fill="#fff" d="M31.411 15.171l-3.494-4.261 3.045-4.2c0.070-0.101 0.093-0.225 0.054-0.333-0.031-0.116-0.124-0.209-0.232-0.248l-11.405-4.223c-0.155-0.054-0.325-0.008-0.426 0.116l-2.952 3.564-2.952-3.564c-0.101-0.124-0.279-0.17-0.426-0.116l-11.413 4.223c-0.116 0.039-0.201 0.132-0.232 0.248s-0.015 0.24 0.054 0.333l3.053 4.2-3.494 4.261c-0.077 0.093-0.101 0.209-0.077 0.325s0.101 0.209 0.201 0.263l3.448 1.736v4.781c0 0.798 0.434 1.534 1.131 1.922l10.499 5.873c0.023 0.008 0.039 0.015 0.062 0.023 0.008 0 0.015 0.008 0.023 0.008 0.031 0.008 0.062 0.015 0.101 0.015s0.070-0.008 0.101-0.015c0.008 0 0.015-0.008 0.031-0.008 0.023-0.008 0.039-0.015 0.062-0.023l10.499-5.873c0.697-0.387 1.131-1.123 1.131-1.922v-4.765l3.487-1.759c0.101-0.054 0.178-0.147 0.201-0.263 0.023-0.108-0.008-0.232-0.077-0.318zM5.524 10.971l10.476-4.331 10.46 4.324-10.476 4.819-0.821-0.38-9.639-4.432zM19.37 2.72l10.677 3.952-2.766 3.804-10.677-4.416 2.766-3.339zM12.622 2.72l2.758 3.324-10.677 4.424-2.758-3.797 10.677-3.952zM4.657 11.421l1.929 0.883 8.81 4.052-3.161 4.339-10.747-5.408 3.169-3.866zM4.936 22.276v-4.393l7.245 3.649c0.054 0.031 0.116 0.039 0.17 0.039 0.116 0 0.24-0.054 0.31-0.155l2.937-4.029v11.692l-9.925-5.548c-0.457-0.256-0.736-0.736-0.736-1.255zM27.026 22.276c0 0.519-0.279 1-0.736 1.255l-9.925 5.548v-11.746l2.975 4.076c0.077 0.101 0.194 0.155 0.31 0.155 0.054 0 0.116-0.015 0.17-0.039l7.206-3.626v4.378zM19.766 20.695l-3.161-4.339 10.739-4.943 3.169 3.866-10.747 5.416z"></path>
</svg>
