<!-- Generated by IcoMoon.io -->
<svg version="1.1" xmlns="http://www.w3.org/2000/svg" width="32" height="32" viewBox="0 0 32 32">
<title>box-01</title>
<path fill="#fff" d="M30.574 0.504h-29.149c-0.294 0-0.542 0.24-0.542 0.542v6.098c0 0.294 0.24 0.542 0.542 0.542h1.697v23.276c0 0.294 0.24 0.542 0.542 0.542h24.693c0.294 0 0.542-0.24 0.542-0.542v-23.283h1.697c0.294 0 0.542-0.24 0.542-0.542v-6.090c-0.023-0.302-0.263-0.542-0.566-0.542zM27.808 30.419h-23.616v-22.741h23.616v22.741zM30.040 6.601h-28.079v-5.021h28.079v5.021z"></path>
<path fill="#fff" d="M9.755 13.528h12.482c0.992 0 1.798-0.806 1.798-1.798s-0.806-1.798-1.798-1.798h-12.482c-0.992 0-1.798 0.806-1.798 1.798 0.008 0.992 0.814 1.798 1.798 1.798zM9.755 11.010h12.482c0.395 0 0.721 0.325 0.721 0.721s-0.325 0.721-0.721 0.721h-12.482c-0.395 0-0.721-0.325-0.721-0.721 0.008-0.395 0.325-0.721 0.721-0.721z"></path>
</svg>
