<!-- Generated by IcoMoon.io -->
<svg version="1.1" xmlns="http://www.w3.org/2000/svg" width="32" height="32" viewBox="0 0 32 32">
<title>breakfast</title>
<path fill="#fff" d="M30.171 9.089c-0.852-0.852-1.984-1.325-3.192-1.325h-1.472v-2.913c0-0.256-0.201-0.457-0.457-0.457h-24.089c-0.256 0-0.457 0.201-0.457 0.457v9.468c0 5.346 4.354 9.701 9.708 9.701h5.594c4.494 0 8.267-3.068 9.368-7.221h1.805c2.487 0 4.517-2.022 4.517-4.517 0-1.201-0.473-2.332-1.325-3.192zM15.806 23.105h-5.594c-4.85 0-8.786-3.944-8.786-8.786v-9.011h23.175v9.011c0 0.093-0.008 0.186-0.015 0.287-0.008 0.232-0.015 0.465-0.047 0.697-0.008 0.054-0.015 0.101-0.023 0.155-0.031 0.248-0.070 0.496-0.124 0.744-0.868 3.936-4.385 6.904-8.585 6.904zM26.979 15.884h-1.604c0.015-0.108 0.031-0.217 0.039-0.325 0.015-0.116 0.031-0.225 0.047-0.341 0.023-0.256 0.039-0.511 0.039-0.759 0-0.015 0-0.039 0-0.054v-0.085c0 0 0 0 0-0.008v-5.633h1.472c0.961 0 1.867 0.372 2.541 1.054 0.682 0.682 1.054 1.588 1.054 2.541 0.015 1.999-1.604 3.611-3.587 3.611z"></path>
<path fill="#fff" d="M26.483 26.692h-24.848c-0.256 0-0.457 0.201-0.457 0.457s0.201 0.457 0.457 0.457h24.848c0.256 0 0.457-0.201 0.457-0.457 0-0.248-0.201-0.457-0.457-0.457z"></path>
</svg>
