<!-- Generated by IcoMoon.io -->
<svg version="1.1" xmlns="http://www.w3.org/2000/svg" width="32" height="32" viewBox="0 0 32 32">
<title>building</title>
<path fill="#fff" d="M23.872 0.504h-15.744c-0.209 0-0.38 0.17-0.38 0.38v30.233c0 0.209 0.17 0.38 0.38 0.38h15.744c0.209 0 0.38-0.17 0.38-0.38v-30.233c0-0.209-0.17-0.38-0.38-0.38zM17.767 30.737h-3.525v-5.478h3.525v5.478zM23.492 30.737h-4.974v-5.858c0-0.209-0.17-0.38-0.38-0.38h-4.285c-0.209 0-0.38 0.17-0.38 0.38v5.858h-4.974v-29.474h14.993v29.474z"></path>
<path fill="#fff" d="M10.723 8.794h3.82c0.209 0 0.38-0.17 0.38-0.38s-0.17-0.38-0.38-0.38h-3.82c-0.209 0-0.38 0.17-0.38 0.38s0.17 0.38 0.38 0.38z"></path>
<path fill="#fff" d="M10.723 12.862h3.82c0.209 0 0.38-0.17 0.38-0.38s-0.17-0.38-0.38-0.38h-3.82c-0.209 0-0.38 0.17-0.38 0.38s0.17 0.38 0.38 0.38z"></path>
<path fill="#fff" d="M10.723 16.93h3.82c0.209 0 0.38-0.17 0.38-0.38s-0.17-0.38-0.38-0.38h-3.82c-0.209 0-0.38 0.17-0.38 0.38s0.17 0.38 0.38 0.38z"></path>
<path fill="#fff" d="M10.723 20.99h3.82c0.209 0 0.38-0.17 0.38-0.38s-0.17-0.38-0.38-0.38h-3.82c-0.209 0-0.38 0.17-0.38 0.38s0.17 0.38 0.38 0.38z"></path>
<path fill="#fff" d="M17.309 8.794h3.82c0.209 0 0.38-0.17 0.38-0.38s-0.17-0.38-0.38-0.38h-3.82c-0.209 0-0.38 0.17-0.38 0.38s0.17 0.38 0.38 0.38z"></path>
<path fill="#fff" d="M10.723 4.765h3.82c0.209 0 0.38-0.17 0.38-0.38s-0.17-0.38-0.38-0.38h-3.82c-0.209 0-0.38 0.17-0.38 0.38s0.17 0.38 0.38 0.38z"></path>
<path fill="#fff" d="M17.309 4.765h3.82c0.209 0 0.38-0.17 0.38-0.38s-0.17-0.38-0.38-0.38h-3.82c-0.209 0-0.38 0.17-0.38 0.38s0.17 0.38 0.38 0.38z"></path>
<path fill="#fff" d="M17.309 12.862h3.82c0.209 0 0.38-0.17 0.38-0.38s-0.17-0.38-0.38-0.38h-3.82c-0.209 0-0.38 0.17-0.38 0.38s0.17 0.38 0.38 0.38z"></path>
<path fill="#fff" d="M17.309 16.93h3.82c0.209 0 0.38-0.17 0.38-0.38s-0.17-0.38-0.38-0.38h-3.82c-0.209 0-0.38 0.17-0.38 0.38s0.17 0.38 0.38 0.38z"></path>
<path fill="#fff" d="M17.309 20.99h3.82c0.209 0 0.38-0.17 0.38-0.38s-0.17-0.38-0.38-0.38h-3.82c-0.209 0-0.38 0.17-0.38 0.38s0.17 0.38 0.38 0.38z"></path>
</svg>
