<!-- Generated by IcoMoon.io -->
<svg version="1.1" xmlns="http://www.w3.org/2000/svg" width="32" height="32" viewBox="0 0 32 32">
<title>bull-eye</title>
<path fill="#fff" d="M30.946 3.432l-2.402 0.093 0.093-2.402c0.008-0.287-0.217-0.535-0.504-0.542s-0.535 0.217-0.542 0.504l-0.101 2.758-0.852 0.852 0.062-1.581c0.008-0.287-0.217-0.535-0.504-0.542-0.287 0-0.535 0.217-0.542 0.504l-0.101 2.72-2.696 2.673c-2.379-2.231-5.571-3.603-9.073-3.603-7.322 0.008-13.28 5.958-13.28 13.28s5.958 13.28 13.28 13.28 13.28-5.958 13.28-13.28c0-3.432-1.309-6.57-3.456-8.926l2.642-2.642h0.008l2.789-0.101c0.294-0.008 0.519-0.256 0.504-0.542-0.008-0.294-0.256-0.504-0.542-0.504l-1.666 0.062 0.899-0.899 2.758-0.101c0.294-0.008 0.519-0.256 0.504-0.542-0.015-0.302-0.256-0.519-0.558-0.519zM26.003 18.146c0 6.741-5.486 12.227-12.219 12.227-6.741 0-12.227-5.486-12.227-12.227s5.486-12.219 12.227-12.219c3.215 0 6.144 1.255 8.329 3.293l-2.007 2.007c-1.674-1.526-3.89-2.464-6.323-2.464-5.184-0.008-9.391 4.207-9.391 9.383s4.215 9.391 9.391 9.391 9.391-4.215 9.391-9.391c0-2.363-0.883-4.517-2.332-6.168l2.015-2.015c1.953 2.169 3.146 5.036 3.146 8.182zM13.606 18.464c0.101 0.101 0.24 0.155 0.372 0.155s0.271-0.054 0.372-0.155l2.898-2.898c0.535 0.721 0.86 1.612 0.86 2.572 0 2.386-1.937 4.323-4.323 4.323s-4.323-1.937-4.323-4.323 1.937-4.323 4.323-4.323c1.038 0 1.991 0.372 2.743 0.984l-2.913 2.913c-0.217 0.217-0.217 0.55-0.008 0.752zM17.263 14.063c-0.938-0.806-2.154-1.294-3.487-1.294-2.968 0-5.377 2.41-5.377 5.377s2.41 5.377 5.377 5.377 5.377-2.41 5.377-5.377c0-1.255-0.434-2.41-1.162-3.324l2.1-2.1c1.255 1.457 2.022 3.355 2.022 5.424 0 4.595-3.742 8.337-8.337 8.337s-8.337-3.742-8.337-8.337 3.742-8.337 8.337-8.337c2.146 0 4.099 0.821 5.579 2.162l-2.092 2.092z"></path>
</svg>
