<!-- Generated by IcoMoon.io -->
<svg version="1.1" xmlns="http://www.w3.org/2000/svg" width="32" height="32" viewBox="0 0 32 32">
<title>bus-02</title>
<path fill="#fff" d="M27.878 19.037c0.232 0 0.442-0.093 0.604-0.256s0.248-0.38 0.248-0.604v-2.061c0-0.023 0-0.047-0.008-0.070l-1.178-4.85c-0.062-0.418-0.426-0.728-0.845-0.728h-1.751c-0.473 0-0.852 0.38-0.852 0.852v6.865c0 0.473 0.38 0.852 0.852 0.852h2.929zM24.662 18.185v-6.865c0-0.155 0.132-0.287 0.287-0.287h1.751c0.139 0 0.263 0.101 0.287 0.271l1.178 4.843v2.038c0 0.077-0.031 0.147-0.085 0.201s-0.124 0.085-0.201 0.085h-2.929c-0.155 0-0.287-0.132-0.287-0.287z"></path>
<path fill="#fff" d="M21.834 15.659c0.225 0 0.403-0.178 0.403-0.403v-4.378c0-0.225-0.178-0.403-0.403-0.403h-2.735c-0.225 0-0.403 0.178-0.403 0.403v4.378c0 0.225 0.178 0.403 0.403 0.403h2.735zM19.262 11.033h2.41v4.060h-2.41v-4.060z"></path>
<path fill="#fff" d="M16.519 10.468h-2.735c-0.225 0-0.403 0.178-0.403 0.403v4.378c0 0.225 0.178 0.403 0.403 0.403h2.735c0.225 0 0.403-0.178 0.403-0.403v-4.378c0-0.225-0.178-0.403-0.403-0.403zM16.356 15.093h-2.41v-4.060h2.41v4.060z"></path>
<path fill="#fff" d="M11.204 15.659c0.225 0 0.403-0.178 0.403-0.403v-4.378c0-0.225-0.178-0.403-0.403-0.403h-2.735c-0.225 0-0.403 0.178-0.403 0.403v4.378c0 0.225 0.178 0.403 0.403 0.403h2.735zM8.624 11.033h2.41v4.060h-2.41c0 0 0-4.060 0-4.060z"></path>
<path fill="#fff" d="M6.284 15.256v-4.378c0-0.225-0.178-0.403-0.403-0.403h-2.735c-0.225 0-0.403 0.178-0.403 0.403v4.378c0 0.225 0.178 0.403 0.403 0.403h2.735c0.225 0 0.403-0.186 0.403-0.403zM5.718 15.093h-2.41v-4.060h2.41v4.060z"></path>
<path fill="#fff" d="M16.263 21.114h-6.826c-0.139 0-0.263 0.108-0.279 0.248-0.132 1.093-1.069 1.914-2.17 1.914-1.209 0-2.185-0.984-2.185-2.185s0.984-2.185 2.185-2.185c0.155 0 0.287-0.124 0.287-0.287s-0.124-0.287-0.287-0.287c-1.519 0-2.751 1.232-2.751 2.751s1.232 2.751 2.751 2.751c1.302 0 2.417-0.914 2.689-2.162h6.586c0.155 0 0.287-0.124 0.287-0.287-0.008-0.147-0.132-0.271-0.287-0.271z"></path>
<path fill="#fff" d="M31.489 16.070c0-0.023-0.008-0.085-1.619-6.369-0.232-0.907-1.046-1.542-1.984-1.542h-25.391c-0.969 0-1.991 0.651-1.991 1.86v9.918c0 0.961 0.783 1.751 1.751 1.751h0.62c0.155 0 0.279-0.124 0.279-0.287 0-0.155-0.124-0.279-0.287-0.279v0h-0.62c-0.651 0-1.185-0.527-1.185-1.185v-9.918c0-0.837 0.736-1.294 1.426-1.294h25.406c0.682 0 1.271 0.457 1.441 1.116 0.426 1.658 1.519 5.935 1.604 6.292 0 0.248 0 2.379 0 3.797 0 0.651-0.527 1.185-1.185 1.185h-6.811c-0.139 0-0.263 0.108-0.279 0.248-0.132 1.093-1.069 1.914-2.169 1.914-1.209 0-2.185-0.984-2.185-2.185 0-1.209 0.984-2.185 2.185-2.185 0.155 0 0.287-0.124 0.287-0.287s-0.124-0.287-0.287-0.287c-1.519 0-2.751 1.232-2.751 2.751s1.232 2.751 2.751 2.751c1.302 0 2.417-0.914 2.689-2.162h6.57c0.961 0 1.751-0.783 1.751-1.751-0.008-3.781-0.008-3.835-0.015-3.851z"></path>
</svg>
