<!-- Generated by IcoMoon.io -->
<svg version="1.1" xmlns="http://www.w3.org/2000/svg" width="32" height="32" viewBox="0 0 32 32">
<title>bus-01</title>
<path fill="#fff" d="M6.679 6.292h0.511c0.077 0 0.093-0.054 0.093-0.101v-0.976h0.418c0.814 0 1-0.542 1-0.945 0-0.612-0.449-0.914-1-0.914h-1.023c-0.077 0-0.101 0.046-0.101 0.101v2.743c0.008 0.054 0.031 0.093 0.101 0.093zM7.283 3.936h0.318c0.232 0 0.38 0.108 0.38 0.349s-0.139 0.356-0.372 0.356h-0.325v-0.705z"></path>
<path fill="#fff" d="M10.119 5.199h14.28c0.209 0 0.38-0.17 0.38-0.38s-0.17-0.38-0.38-0.38h-14.28c-0.209 0-0.38 0.17-0.38 0.38s0.17 0.38 0.38 0.38z"></path>
<path fill="#fff" d="M10.925 20.060c-0.86 0-1.565 0.705-1.565 1.565s0.705 1.565 1.565 1.565c0.86 0 1.565-0.705 1.565-1.565 0-0.868-0.705-1.565-1.565-1.565zM10.925 22.439c-0.449 0-0.814-0.364-0.814-0.814s0.364-0.814 0.814-0.814 0.814 0.364 0.814 0.814c-0.008 0.449-0.372 0.814-0.814 0.814z"></path>
<path fill="#fff" d="M21.075 20.060c-0.86 0-1.565 0.705-1.565 1.565s0.705 1.565 1.565 1.565 1.565-0.705 1.565-1.565c0-0.868-0.697-1.565-1.565-1.565zM21.075 22.439c-0.449 0-0.814-0.364-0.814-0.814s0.364-0.814 0.814-0.814 0.814 0.364 0.814 0.814-0.364 0.814-0.814 0.814z"></path>
<path fill="#fff" d="M31.117 11.893h-0.55v-1.86c0-0.209-0.17-0.38-0.38-0.38h-2.123v-4.905c0-1.72-1.402-3.123-3.123-3.123h-17.891c-1.72 0-3.123 1.402-3.123 3.123v4.905h-2.123c-0.209 0-0.38 0.17-0.38 0.38v1.86h-0.55c-0.209 0-0.38 0.17-0.38 0.38v4.478c0 0.209 0.17 0.38 0.38 0.38h1.86c0.209 0 0.38-0.17 0.38-0.38v-4.478c0-0.209-0.17-0.38-0.38-0.38h-0.55v-1.488h1.743v13.273c0 1.72 1.402 3.123 3.123 3.123h2.046v1.743c0 1.123 0.62 1.829 1.619 1.829h1.062c0.976 0 1.689-0.767 1.689-1.829v-0.752c0-0.209-0.17-0.38-0.38-0.38s-0.38 0.17-0.38 0.38v0.752c0 0.519-0.294 1.077-0.938 1.077h-1.062c-0.573 0-0.86-0.364-0.86-1.077v-1.743h12.661v1.743c0 0.713-0.287 1.077-0.86 1.077h-1.061c-0.643 0-0.938-0.558-0.938-1.077v-0.752c0-0.209-0.17-0.38-0.38-0.38s-0.38 0.17-0.38 0.38v0.752c0 1.061 0.713 1.829 1.689 1.829h1.061c1 0 1.619-0.697 1.619-1.829v-1.743h1.689c1.72 0 3.123-1.402 3.123-3.123v-13.273h1.743v1.488h-0.55c-0.209 0-0.38 0.17-0.38 0.38v4.478c0 0.209 0.17 0.38 0.38 0.38h1.86c0.209 0 0.38-0.17 0.38-0.38v-4.478c-0.008-0.209-0.178-0.38-0.387-0.38zM2.363 16.372h-1.108v-3.727h1.108v3.727zM23.981 13.102c-0.147-0.147-0.387-0.147-0.535 0l-4.626 4.626h-8.438l4.099-4.099c0.147-0.147 0.147-0.387 0-0.535s-0.387-0.147-0.535 0l-4.626 4.626h-4.641v-9.701h22.632v9.716h-7.431l4.099-4.099c0.147-0.147 0.147-0.387 0-0.535zM7.051 2.379h17.898c1.302 0 2.363 1.062 2.363 2.363v2.518h-22.632v-2.51c0-1.309 1.062-2.371 2.371-2.371zM24.949 26.049h-17.898c-1.302 0-2.363-1.061-2.363-2.363v-5.199h22.632v5.199c0 1.302-1.061 2.363-2.371 2.363zM30.745 16.372h-1.108v-3.727h1.108v3.727z"></path>
</svg>
