<!-- Generated by IcoMoon.io -->
<svg version="1.1" xmlns="http://www.w3.org/2000/svg" width="32" height="32" viewBox="0 0 32 32">
<title>business-centre</title>
<path fill="#fff" d="M30.435 16.217h-1.767c-0.589 0-1.061 0.473-1.061 1.061v2.1c0 0.139-0.054 0.279-0.155 0.38s-0.232 0.155-0.38 0.155v0l-22.059-0.047c-0.139 0-0.279-0.054-0.38-0.155s-0.155-0.24-0.155-0.38l0.016-2.046c0-0.287-0.108-0.55-0.31-0.759-0.201-0.201-0.465-0.31-0.752-0.31h-1.867c-0.589 0-1.062 0.473-1.062 1.061v10.878c0 1.123 0.914 2.046 2.046 2.046h26.909c1.123 0 2.046-0.914 2.046-2.046v-10.878c-0.008-0.581-0.48-1.061-1.069-1.061zM30.536 28.157c0 0.597-0.488 1.085-1.085 1.085h-26.902c-0.597 0-1.085-0.488-1.085-1.085v-10.878c0-0.054 0.046-0.101 0.101-0.101h1.867c0.039 0 0.062 0.015 0.070 0.031 0.015 0.015 0.031 0.039 0.031 0.070l-0.015 2.046c0 0.403 0.147 0.775 0.434 1.061 0.279 0.287 0.659 0.442 1.062 0.442l22.059 0.047c0.387-0.015 0.775-0.155 1.061-0.434s0.442-0.659 0.442-1.054v-2.1c0-0.054 0.047-0.101 0.101-0.101h1.767c0.054 0 0.101 0.047 0.101 0.101v10.871h-0.008z"></path>
<path fill="#fff" d="M27.638 24.926c-0.868 0-1.581 0.705-1.581 1.581s0.705 1.581 1.581 1.581 1.581-0.705 1.581-1.581-0.713-1.581-1.581-1.581zM27.638 27.126c-0.341 0-0.62-0.279-0.62-0.62s0.279-0.62 0.62-0.62 0.62 0.279 0.62 0.62-0.279 0.62-0.62 0.62z"></path>
<path fill="#fff" d="M8.686 19.037h14.543c0.651 0 1.185-0.535 1.185-1.185v-12.847c0-0.604-0.263-1.178-0.728-1.565l-1.356-1.147c-0.372-0.318-0.845-0.488-1.333-0.488h-12.436c-0.581 0-1.062 0.473-1.062 1.062v14.993c0 0.651 0.535 1.178 1.185 1.178zM8.461 2.859c0-0.054 0.046-0.101 0.101-0.101h12.444c0.263 0 0.511 0.093 0.713 0.263l1.356 1.147c0.248 0.209 0.387 0.511 0.387 0.837v12.847c0 0.124-0.101 0.225-0.225 0.225h-14.551c-0.124 0-0.225-0.101-0.225-0.225v-14.993z"></path>
<path fill="#fff" d="M11.568 7.492h8.624c0.263 0 0.48-0.217 0.48-0.48s-0.217-0.48-0.48-0.48h-8.624c-0.263 0-0.48 0.217-0.48 0.48s0.209 0.48 0.48 0.48z"></path>
<path fill="#fff" d="M11.568 10.421h8.624c0.263 0 0.48-0.217 0.48-0.48s-0.217-0.48-0.48-0.48h-8.624c-0.263 0-0.48 0.217-0.48 0.48s0.209 0.48 0.48 0.48z"></path>
<path fill="#fff" d="M11.568 13.35h8.624c0.263 0 0.48-0.217 0.48-0.48s-0.217-0.48-0.48-0.48h-8.624c-0.263 0-0.48 0.217-0.48 0.48s0.209 0.48 0.48 0.48z"></path>
</svg>
