<!-- Generated by IcoMoon.io -->
<svg version="1.1" xmlns="http://www.w3.org/2000/svg" width="32" height="32" viewBox="0 0 32 32">
<title>bussiness-centre-01</title>
<path fill="#fff" d="M26.065 3.89h-9.577v-2.952c0-0.24-0.194-0.434-0.434-0.434s-0.434 0.194-0.434 0.434v2.952h-9.685c-1.945 0-3.533 1.581-3.533 3.525v14.644c0 1.945 1.581 3.533 3.533 3.533h8.244l-5.16 5.168c-0.17 0.17-0.17 0.442 0 0.612 0.085 0.085 0.194 0.124 0.31 0.124s0.225-0.039 0.31-0.124l5.78-5.772h0.217v5.47c0 0.24 0.194 0.434 0.434 0.434s0.434-0.194 0.434-0.434v-5.47h0.217l5.772 5.772c0.085 0.085 0.194 0.124 0.31 0.124s0.225-0.039 0.31-0.124c0.17-0.17 0.17-0.442 0-0.612l-5.16-5.16h8.136c1.945 0 3.533-1.581 3.533-3.533v-14.644c-0.023-1.953-1.612-3.533-3.556-3.533zM28.73 22.067c0 1.472-1.193 2.665-2.665 2.665h-20.13c-1.472 0-2.665-1.193-2.665-2.665v-14.644c0-1.472 1.193-2.665 2.665-2.665h20.13c1.472 0 2.665 1.193 2.665 2.665v14.644z"></path>
<path fill="#fff" d="M20.99 15.093h-5.447v-5.656c0-0.232-0.186-0.426-0.426-0.434-1.767-0.023-3.479 0.643-4.68 1.844-2.479 2.479-2.479 6.663 0 9.143 1.24 1.24 2.906 1.86 4.571 1.86s3.332-0.62 4.571-1.86c1.162-1.162 1.813-2.743 1.844-4.463 0-0.116-0.047-0.225-0.124-0.31-0.085-0.077-0.194-0.124-0.31-0.124zM18.968 19.378c-1.015 1.015-2.456 1.596-3.959 1.596s-2.944-0.581-3.959-1.596-1.596-2.456-1.596-3.959 0.581-2.944 1.596-3.959c0.938-0.938 2.247-1.503 3.634-1.581v5.648c0 0.24 0.194 0.434 0.434 0.434h5.424c-0.124 1.309-0.674 2.518-1.573 3.417z"></path>
<path fill="#fff" d="M17.108 7.012c-0.116 0-0.225 0.046-0.31 0.124s-0.132 0.194-0.132 0.31v6.090c0 0.24 0.194 0.434 0.434 0.434h5.881c0.232 0 0.426-0.186 0.434-0.426 0.031-1.774-0.643-3.479-1.844-4.68-1.162-1.17-2.751-1.829-4.463-1.852zM17.534 13.102v-5.199c1.317 0.116 2.518 0.666 3.425 1.565 0.938 0.938 1.503 2.247 1.581 3.634h-5.005z"></path>
</svg>
