<!-- Generated by IcoMoon.io -->
<svg version="1.1" xmlns="http://www.w3.org/2000/svg" width="32" height="32" viewBox="0 0 32 32">
<title>calendar</title>
<path fill="#fff" d="M27.715 4.587h-7.353v-3.719c0-0.201-0.163-0.364-0.364-0.364s-0.364 0.163-0.364 0.364v3.719h-7.717v-3.719c0-0.201-0.163-0.364-0.364-0.364s-0.364 0.163-0.364 0.364v3.719h-6.904c-1.588 0-2.882 1.294-2.882 2.882v21.153c0 1.588 1.294 2.882 2.882 2.882h23.438c1.588 0 2.882-1.294 2.882-2.882v-21.153c-0.008-1.588-1.302-2.882-2.89-2.882zM4.285 5.323h23.438c1.185 0 2.146 0.961 2.146 2.146v3.99h-27.707c-0.008 0-0.023 0.008-0.031 0.008v-4.006c0-1.178 0.969-2.138 2.154-2.138zM27.715 30.76h-23.43c-1.185 0-2.146-0.961-2.146-2.146v-16.434c0.008 0 0.023 0.008 0.031 0.008h27.7v16.426c0 1.185-0.969 2.146-2.154 2.146z"></path>
<path fill="#fff" d="M14.357 20.874h-3.216c-0.201 0-0.364 0.163-0.364 0.364s0.163 0.364 0.364 0.364h3.216c0.201 0 0.364-0.163 0.364-0.364s-0.163-0.364-0.364-0.364z"></path>
<path fill="#fff" d="M14.357 25.096h-3.216c-0.201 0-0.364 0.163-0.364 0.364s0.163 0.364 0.364 0.364h3.216c0.201 0 0.364-0.163 0.364-0.364s-0.163-0.364-0.364-0.364z"></path>
<path fill="#fff" d="M7.957 25.096h-3.215c-0.201 0-0.364 0.163-0.364 0.364s0.163 0.364 0.364 0.364h3.216c0.201 0 0.364-0.163 0.364-0.364s-0.163-0.364-0.364-0.364z"></path>
<path fill="#fff" d="M7.957 20.874h-3.215c-0.201 0-0.364 0.163-0.364 0.364s0.163 0.364 0.364 0.364h3.216c0.201 0 0.364-0.163 0.364-0.364s-0.163-0.364-0.364-0.364z"></path>
<path fill="#fff" d="M14.357 16.333h-3.216c-0.201 0-0.364 0.163-0.364 0.364s0.163 0.364 0.364 0.364h3.216c0.201 0 0.364-0.163 0.364-0.364s-0.163-0.364-0.364-0.364z"></path>
<path fill="#fff" d="M7.957 16.333h-3.215c-0.201 0-0.364 0.163-0.364 0.364s0.163 0.364 0.364 0.364h3.216c0.201 0 0.364-0.163 0.364-0.364s-0.163-0.364-0.364-0.364z"></path>
<path fill="#fff" d="M27.157 20.874h-3.215c-0.201 0-0.364 0.163-0.364 0.364s0.163 0.364 0.364 0.364h3.215c0.201 0 0.364-0.163 0.364-0.364s-0.163-0.364-0.364-0.364z"></path>
<path fill="#fff" d="M27.157 25.096h-3.215c-0.201 0-0.364 0.163-0.364 0.364s0.163 0.364 0.364 0.364h3.215c0.201 0 0.364-0.163 0.364-0.364s-0.163-0.364-0.364-0.364z"></path>
<path fill="#fff" d="M20.757 25.096h-3.215c-0.201 0-0.364 0.163-0.364 0.364s0.163 0.364 0.364 0.364h3.215c0.201 0 0.364-0.163 0.364-0.364s-0.163-0.364-0.364-0.364z"></path>
<path fill="#fff" d="M27.157 16.333h-3.215c-0.201 0-0.364 0.163-0.364 0.364s0.163 0.364 0.364 0.364h3.215c0.201 0 0.364-0.163 0.364-0.364s-0.163-0.364-0.364-0.364z"></path>
<path fill="#fff" d="M20.757 20.874h-3.215c-0.201 0-0.364 0.163-0.364 0.364s0.163 0.364 0.364 0.364h3.215c0.201 0 0.364-0.163 0.364-0.364s-0.163-0.364-0.364-0.364z"></path>
<path fill="#fff" d="M20.757 16.333h-3.215c-0.201 0-0.364 0.163-0.364 0.364s0.163 0.364 0.364 0.364h3.215c0.201 0 0.364-0.163 0.364-0.364s-0.163-0.364-0.364-0.364z"></path>
</svg>
