<!-- Generated by IcoMoon.io -->
<svg version="1.1" xmlns="http://www.w3.org/2000/svg" width="32" height="32" viewBox="0 0 32 32">
<title>camera</title>
<path fill="#fff" d="M29.513 6.935h-1.883l-1.875-3.735c-0.070-0.139-0.209-0.225-0.364-0.225h-5.106c-0.155 0-0.294 0.085-0.364 0.225l-1.875 3.735h-6.764v-2.882c0-0.225-0.178-0.403-0.403-0.403h-5.982c-0.225 0-0.403 0.178-0.403 0.403v2.882h-2.015c-1.085 0-1.976 0.891-1.976 1.984v18.123c0 1.093 0.891 1.984 1.984 1.984h27.026c1.093 0 1.984-0.891 1.984-1.984v-18.123c0-1.093-0.891-1.984-1.984-1.984zM5.308 4.455h5.184v2.479h-5.184v-2.479zM30.691 27.041c0 0.651-0.527 1.178-1.178 1.178h-27.026c-0.651 0-1.178-0.527-1.178-1.178v-18.123c0-0.651 0.527-1.178 1.178-1.178h2.394c0.008 0 0.016 0.008 0.023 0.008s0.016-0.008 0.023-0.008h5.943c0.008 0 0.015 0.008 0.023 0.008s0.015-0.008 0.023-0.008h7.4c0.155 0 0.294-0.085 0.364-0.225l1.875-3.735h4.602l1.875 3.735c0.070 0.139 0.209 0.225 0.364 0.225h2.131c0.651 0 1.178 0.527 1.178 1.178v18.123h-0.015z"></path>
<path fill="#fff" d="M19.215 9.414c-4.68 0-8.484 3.804-8.484 8.484s3.804 8.484 8.484 8.484 8.484-3.804 8.484-8.484-3.804-8.484-8.484-8.484zM19.215 25.577c-4.23 0-7.678-3.448-7.678-7.678s3.448-7.678 7.678-7.678 7.678 3.448 7.678 7.678-3.44 7.678-7.678 7.678z"></path>
<path fill="#fff" d="M19.215 12.211c-3.13 0-5.679 2.549-5.679 5.679s2.549 5.679 5.679 5.679 5.679-2.549 5.679-5.679-2.549-5.679-5.679-5.679zM19.215 22.772c-2.689 0-4.874-2.185-4.874-4.874s2.185-4.874 4.874-4.874 4.874 2.185 4.874 4.874-2.185 4.874-4.874 4.874z"></path>
<path fill="#fff" d="M7.338 10.235c-0.225 0-0.403 0.178-0.403 0.403v15.008c0 0.225 0.178 0.403 0.403 0.403s0.403-0.178 0.403-0.403v-15.008c0-0.225-0.178-0.403-0.403-0.403z"></path>
</svg>
