<!-- Generated by IcoMoon.io -->
<svg version="1.1" xmlns="http://www.w3.org/2000/svg" width="32" height="32" viewBox="0 0 32 32">
<title>cancelled-flight</title>
<path fill="#fff" d="M23.771 15.93c-0.914 0-1.79 0.17-2.603 0.457l-0.356-6.772 5.633-5.641c0.387-0.387 0.604-0.899 0.604-1.433 0-0.519-0.201-1-0.566-1.371-0.364-0.364-0.845-0.558-1.364-0.558v0c-0.542 0-1.046 0.217-1.433 0.604l-5.641 5.633-15.45-0.814c-0.581-0.031-1.123 0.17-1.519 0.566s-0.597 0.938-0.566 1.519c0.008 0.186 0.132 0.341 0.31 0.403l11.669 3.89-5.424 5.424c-3.921-0.248-3.936-0.248-3.983-0.248-0.705 0.031-1.263 0.527-1.387 1.232-0.132 0.744 0.256 1.464 0.938 1.743l3.154 1.302 1.309 3.161c0.279 0.682 1 1.069 1.743 0.938 0.713-0.124 1.209-0.682 1.24-1.402 0-0.015 0-0.023-0.248-3.959l5.424-5.424 1.65 4.951c-0.542 1.061-0.86 2.255-0.86 3.525 0 4.262 3.463 7.725 7.725 7.725s7.725-3.463 7.725-7.725c0-4.254-3.463-7.725-7.725-7.725zM15.876 14.202c-0.046-0.147-0.17-0.263-0.325-0.294-0.031-0.008-0.070-0.015-0.101-0.015-0.116 0-0.232 0.046-0.318 0.132l-6.082 6.082c-0.093 0.093-0.139 0.217-0.132 0.349 0 0 0.248 4.037 0.256 4.083-0.015 0.418-0.38 0.519-0.496 0.542-0.279 0.047-0.612-0.054-0.759-0.395l-1.379-3.324c-0.046-0.108-0.132-0.201-0.248-0.24l-3.324-1.379c-0.341-0.139-0.442-0.48-0.395-0.759 0.023-0.108 0.116-0.473 0.496-0.496 0.108 0.008 4.13 0.256 4.13 0.256 0.132 0.008 0.256-0.039 0.349-0.132l6.082-6.082c0.108-0.108 0.155-0.271 0.116-0.418-0.039-0.155-0.147-0.271-0.294-0.325l-12.025-4.006c0.039-0.209 0.139-0.395 0.287-0.542 0.209-0.209 0.504-0.318 0.837-0.302l15.659 0.821c0.124 0.008 0.256-0.039 0.341-0.132l5.78-5.78c0.217-0.217 0.504-0.333 0.798-0.341v0c0.279 0 0.535 0.108 0.728 0.302s0.294 0.449 0.294 0.728c0 0.302-0.116 0.581-0.341 0.798l-5.78 5.78c-0.093 0.093-0.139 0.217-0.132 0.341l0.387 7.307c-1.1 0.558-2.053 1.371-2.774 2.363l-1.635-4.92zM23.771 30.489c-3.766 0-6.826-3.061-6.826-6.826s3.061-6.826 6.826-6.826 6.826 3.061 6.826 6.826c0 3.758-3.061 6.826-6.826 6.826z"></path>
<path fill="#fff" d="M27.15 20.277c-0.178-0.178-0.457-0.178-0.635 0l-2.743 2.743-2.72-2.72c-0.178-0.178-0.457-0.178-0.635 0s-0.178 0.457 0 0.635l2.72 2.72-2.743 2.743c-0.178 0.178-0.178 0.457 0 0.635 0.085 0.085 0.201 0.132 0.318 0.132s0.232-0.047 0.318-0.132l2.743-2.743 2.72 2.72c0.085 0.085 0.201 0.132 0.318 0.132s0.232-0.047 0.318-0.132c0.178-0.178 0.178-0.457 0-0.635l-2.72-2.72 2.743-2.743c0.17-0.17 0.17-0.457 0-0.635z"></path>
</svg>
