<!-- Generated by IcoMoon.io -->
<svg version="1.1" xmlns="http://www.w3.org/2000/svg" width="32" height="32" viewBox="0 0 32 32">
<title>car-03</title>
<path fill="#fff" d="M24.453 13.869c-0.434-1.116-0.736-1.798-1.619-2.983-1.519-2.046-3.975-3.216-6.749-3.216-3.967 0-6.88 0.976-9.445 3.169-0.418 0.356-0.783 0.759-1.093 1.116-0.504 0.558-0.93 1.046-1.402 1.147-1.619 0.364-2.293 0.829-2.58 1.030l-0.054 0.039c-1.286 0.876-1.007 3.874-0.891 4.773 0.178 1.364 1.348 1.767 2.851 2.154 0.17 0.047 0.356-0.062 0.403-0.24s-0.062-0.356-0.24-0.403c-1.542-0.395-2.255-0.721-2.363-1.596-0.225-1.705-0.124-3.649 0.604-4.145l0.062-0.046c0.256-0.178 0.852-0.589 2.348-0.93 0.674-0.155 1.178-0.713 1.751-1.356 0.318-0.356 0.643-0.721 1.030-1.054 2.441-2.084 5.215-3.014 9.019-3.014 2.603 0 4.812 1.046 6.222 2.952 0.876 1.178 1.139 1.813 1.596 3.006 0.039 0.108 0.139 0.186 0.256 0.209 4.912 0.744 6.927 1.581 6.648 4.843-0.124 1.503-0.837 1.619-3.277 1.79l-0.325 0.023c-0.163 0-0.302 0.124-0.325 0.287-0.155 1.278-1.247 2.239-2.534 2.239-1.41 0-2.557-1.147-2.557-2.557s1.147-2.557 2.557-2.557c0.178 0 0.325-0.147 0.325-0.325s-0.147-0.325-0.325-0.325c-1.774 0-3.215 1.441-3.215 3.215s1.441 3.215 3.215 3.215c1.526 0 2.836-1.077 3.146-2.549l0.093-0.008c2.309-0.163 3.704-0.263 3.89-2.394 0.271-3.324-1.371-4.626-7.020-5.509z"></path>
<path fill="#fff" d="M19.626 21.145h-8.941c-0.163 0-0.302 0.124-0.325 0.287-0.155 1.278-1.247 2.239-2.534 2.239-1.41 0-2.557-1.147-2.557-2.557s1.147-2.557 2.557-2.557c0.178 0 0.325-0.147 0.325-0.325s-0.147-0.325-0.325-0.325c-1.774 0-3.216 1.441-3.216 3.215s1.441 3.215 3.216 3.215c1.526 0 2.828-1.069 3.138-2.526h8.662c0.178 0 0.325-0.147 0.325-0.325s-0.139-0.341-0.325-0.341z"></path>
<path fill="#fff" d="M7.283 13.761c0.008 0 0.008 0 0.016 0 0.17-0.008 0.418-0.031 0.728-0.062 0.945-0.093 2.541-0.256 4.858-0.24 0.093 0 0.17-0.031 0.232-0.093s0.101-0.147 0.101-0.232v-3.138c0-0.101-0.046-0.194-0.124-0.256s-0.178-0.085-0.279-0.062c-1.224 0.279-2.386 0.79-3.549 1.573-0.899 0.604-1.286 1-2.224 1.953-0.093 0.093-0.124 0.24-0.062 0.364 0.054 0.124 0.17 0.194 0.302 0.194zM9.631 11.793c0.961-0.651 1.922-1.1 2.921-1.379v2.386c-0.008 0-0.015 0-0.015 0-2.022 0-3.463 0.132-4.393 0.225 0.519-0.511 0.868-0.814 1.488-1.232z"></path>
<path fill="#fff" d="M21.881 14.264c0.093 0 0.186-0.039 0.256-0.116 0.070-0.085 0.093-0.209 0.062-0.318-0.015-0.054-0.48-1.41-1.41-2.34-1.457-1.457-2.999-2.076-5.153-2.076-0.387 0-0.852 0.008-1.34 0.039-0.17 0.015-0.302 0.155-0.302 0.325v3.378c0 0.178 0.139 0.325 0.318 0.325l0.48 0.015c3.153 0.132 4.657 0.372 6.113 0.597 0.31 0.046 0.62 0.101 0.938 0.147 0.008 0.023 0.023 0.023 0.039 0.023zM20.998 13.466c-1.472-0.232-2.991-0.473-6.183-0.604l-0.17-0.008v-2.758c0.356-0.015 0.697-0.023 0.992-0.023 1.991 0 3.355 0.542 4.688 1.883 0.48 0.48 0.829 1.123 1.038 1.565-0.124-0.015-0.248-0.039-0.364-0.054z"></path>
</svg>
