<!-- Generated by IcoMoon.io -->
<svg version="1.1" xmlns="http://www.w3.org/2000/svg" width="32" height="32" viewBox="0 0 32 32">
<title>car-driver</title>
<path fill="#fff" d="M22.152 21.238l-0.008-0.039c-0.341-2.015-1.17-3.704-1.511-4.339v0 0l-0.085-0.17-2.193-4.060c-0.767-1.418-2.704-2.572-4.316-2.572h-5.656c-1.193 0-3.192 1.123-3.975 2.572l-2.193 4.060h-0.008l-0.085 0.163v0.008l-0.008 0.008c-0.318 0.635-1.085 2.324-1.426 4.331l-0.008 0.047c-0.085 0.519-0.178 1.069-0.17 1.612 0 0.008-0.008 0.015-0.008 0.031v4.61c0 0.79 0.643 1.426 1.433 1.426h0.488c0.79 0 1.433-0.504 1.433-1.131v-1.178c0-0.178-0.147-0.325-0.325-0.325s-0.325 0.147-0.325 0.325v1.178c0 0.225-0.341 0.488-0.783 0.488h-0.488c-0.434 0-0.783-0.349-0.783-0.783v-2.836c1.271 1.511 4.61 2.27 10.228 2.332 5.656-0.062 9.019-0.821 10.305-2.332v2.844c0 0.434-0.349 0.783-0.783 0.783h-0.488c-0.449 0-0.783-0.256-0.783-0.488v-1.178c0-0.178-0.147-0.325-0.325-0.325s-0.325 0.147-0.325 0.325v1.178c0 0.62 0.643 1.131 1.433 1.131h0.488c0.79 0 1.433-0.643 1.433-1.426v-4.61c0 0 0 0 0-0.008 0-0.566-0.093-1.123-0.186-1.65zM4.974 12.932c0.666-1.24 2.41-2.231 3.409-2.231h5.648c1.356 0 3.107 1.046 3.75 2.231l2.030 3.758h-16.868l2.030-3.758zM21.199 24.221c-1.123 1.348-4.432 2.061-9.825 2.115-5.346-0.054-8.616-0.767-9.739-2.107-0.674-0.814-0.504-1.821-0.325-2.882l0.008-0.039c0.302-1.774 0.976-3.332 1.286-3.975h17.55c0.325 0.635 1.054 2.193 1.356 3.975l0.008 0.047c0.093 0.527 0.178 1.038 0.163 1.519v0.039c-0.023 0.473-0.155 0.914-0.48 1.309z"></path>
<path fill="#fff" d="M11.692 21.958c-0.124 0-0.232-0.008-0.325-0.008l-0.263-0.008-0.070 0.008c-0.093 0.008-0.201 0.008-0.325 0.008-1.123 0.023-3.216 0.070-3.657 1.457l-0.054 0.17 0.031 0.039c0 0.17 0.031 0.426 0.217 0.666 0.302 0.387 0.899 0.581 1.759 0.581h4.393c0.876 0 1.464-0.201 1.767-0.589 0.271-0.356 0.209-0.783 0.178-0.876-0.426-1.379-2.518-1.426-3.649-1.449zM14.66 23.88c-0.163 0.217-0.62 0.341-1.255 0.341h-4.393c-0.628 0-1.085-0.124-1.255-0.333-0.085-0.108-0.085-0.24-0.077-0.294 0.325-0.93 2.092-0.969 3.053-0.984 0.124 0 0.24-0.008 0.333-0.008 0.023 0 0.046 0 0.070-0.008h0.147c0.023 0 0.046 0.008 0.070 0.008 0.101 0.008 0.209 0.008 0.341 0.008 0.883 0.015 2.727 0.054 3.045 0.976 0 0.031 0.008 0.178-0.077 0.294z"></path>
<path fill="#fff" d="M4.052 18.224c-0.395 0-0.744 0.132-1.015 0.38-0.325 0.31-0.488 0.752-0.449 1.247 0.039 0.473 0.256 0.93 0.604 1.309 0.418 0.449 0.976 0.705 1.526 0.705 0.395 0 0.744-0.132 1.015-0.38 0.318-0.294 0.48-0.728 0.449-1.209-0.031-0.488-0.24-0.961-0.604-1.348-0.418-0.449-0.969-0.705-1.526-0.705zM5.3 21.005c-0.147 0.139-0.341 0.209-0.573 0.209-0.372 0-0.759-0.186-1.054-0.504-0.248-0.271-0.403-0.597-0.434-0.922-0.023-0.294 0.062-0.558 0.24-0.721 0.147-0.139 0.341-0.209 0.573-0.209 0.372 0 0.759 0.186 1.054 0.504 0.256 0.271 0.411 0.612 0.434 0.945 0.023 0.287-0.070 0.535-0.24 0.697z"></path>
<path fill="#fff" d="M18.379 18.224c-0.55 0-1.108 0.256-1.526 0.705-0.364 0.387-0.573 0.86-0.604 1.348-0.031 0.48 0.132 0.907 0.449 1.209 0.263 0.248 0.62 0.38 1.015 0.38 0.55 0 1.108-0.256 1.526-0.705 0.349-0.372 0.566-0.837 0.604-1.309 0.039-0.496-0.116-0.938-0.449-1.247-0.271-0.248-0.62-0.38-1.015-0.38zM18.766 20.719c-0.294 0.318-0.682 0.504-1.054 0.504-0.232 0-0.426-0.070-0.573-0.209-0.178-0.163-0.263-0.411-0.248-0.697 0.023-0.333 0.17-0.666 0.434-0.945 0.294-0.318 0.682-0.504 1.054-0.504 0.232 0 0.426 0.070 0.573 0.209 0.178 0.17 0.271 0.426 0.248 0.728-0.031 0.318-0.186 0.643-0.434 0.914z"></path>
<path fill="#fff" d="M26.816 7.717c1.278 0 2.317-1.038 2.317-2.317s-1.038-2.317-2.317-2.317-2.317 1.038-2.317 2.317 1.038 2.317 2.317 2.317zM26.816 3.719c0.922 0 1.674 0.752 1.674 1.674s-0.752 1.674-1.674 1.674-1.674-0.752-1.674-1.674 0.752-1.674 1.674-1.674z"></path>
<path fill="#fff" d="M31.496 16.294v-5.37c0-0.814-0.232-1.449-0.697-1.898-0.682-0.666-1.604-0.659-1.635-0.651h-4.695c-0.039 0-0.961-0.015-1.643 0.651-0.457 0.449-0.697 1.092-0.697 1.898v5.354c0 0.031-0.023 0.69 0.426 1.154 0.279 0.294 0.666 0.442 1.154 0.442h0.705v9.135c0 0.031-0.047 0.829 0.473 1.379 0.31 0.333 0.744 0.496 1.286 0.496h1.263c0.542 0 0.976-0.17 1.286-0.496 0.519-0.55 0.473-1.34 0.473-1.356v-9.158h0.705c0.48 0 0.868-0.147 1.154-0.442 0.465-0.465 0.442-1.123 0.442-1.139zM30.605 16.992c-0.155 0.163-0.387 0.24-0.69 0.24h-1.030c-0.178 0-0.325 0.147-0.325 0.325v9.492c0 0.008 0.023 0.558-0.302 0.899-0.186 0.194-0.457 0.294-0.814 0.294h-1.263c-0.356 0-0.628-0.101-0.814-0.294-0.325-0.341-0.302-0.891-0.302-0.914v-9.484c0-0.178-0.147-0.325-0.325-0.325h-1.030c-0.302 0-0.527-0.077-0.682-0.24-0.256-0.263-0.248-0.682-0.248-0.697v-5.37c0-0.628 0.17-1.108 0.496-1.433 0.473-0.465 1.147-0.473 1.185-0.473v0h4.703c0 0 0.705 0 1.185 0.473 0.325 0.325 0.496 0.806 0.496 1.433v5.377c0.008 0.015 0.015 0.426-0.24 0.697z"></path>
</svg>
