<!-- Generated by IcoMoon.io -->
<svg version="1.1" xmlns="http://www.w3.org/2000/svg" width="32" height="32" viewBox="0 0 32 32">
<title>car-companies</title>
<path fill="#fff" d="M27.188 23.43l-0.008-0.039c-0.356-2.092-1.216-3.851-1.573-4.509v0l-2.355-4.362c-0.806-1.495-2.851-2.712-4.556-2.712h-5.827c-1.433 0-3.44 1.294-4.207 2.712l-2.355 4.362v0.008c0 0 0 0.008-0.008 0.008-0.325 0.659-1.123 2.417-1.48 4.502l-0.008 0.047c-0.093 0.542-0.186 1.116-0.178 1.689 0 0.008-0.008 0.015-0.008 0.023v4.75c0 0.876 0.713 1.596 1.596 1.596h0.504c0.876 0 1.596-0.573 1.596-1.286v-0.643c0-0.248-0.201-0.449-0.449-0.449s-0.449 0.201-0.449 0.449v0.643c0 0.155-0.287 0.38-0.69 0.38h-0.504c-0.38 0-0.69-0.31-0.69-0.69v-2.627c1.472 1.449 4.796 2.162 10.421 2.216 5.656-0.062 9.011-0.767 10.491-2.224v2.627c0 0.38-0.31 0.69-0.69 0.69h-0.504c-0.403 0-0.69-0.225-0.69-0.38v-0.643c0-0.248-0.201-0.449-0.449-0.449s-0.449 0.201-0.449 0.449v0.643c0 0.705 0.713 1.286 1.596 1.286h0.504c0.876 0 1.596-0.713 1.596-1.596v-4.75c0.015-0.581-0.085-1.162-0.178-1.72zM9.468 14.954c0.651-1.209 2.417-2.239 3.409-2.239h5.827c1.356 0 3.107 1.046 3.758 2.239l1.999 3.688h-16.984l1.991-3.688zM25.987 26.452c-1.139 1.364-4.509 2.084-10.026 2.139-5.47-0.054-8.817-0.775-9.941-2.123-0.659-0.79-0.488-1.805-0.31-2.875l0.008-0.047c0.302-1.759 0.953-3.301 1.278-3.998h17.937c0.349 0.682 1.054 2.231 1.356 3.998l0.008 0.047c0.178 1.061 0.349 2.069-0.31 2.859z"></path>
<path fill="#fff" d="M16.287 24.074c-0.124 0-0.232-0.008-0.31-0.008-0.031-0.008-0.062-0.008-0.093-0.008h-0.209c-0.031 0-0.046 0-0.077 0.008-0.093 0.008-0.201 0.008-0.333 0.008-1.185 0.023-3.401 0.070-3.882 1.588-0.008 0.023-0.015 0.047-0.015 0.070-0.023 0.132-0.062 0.558 0.24 0.938 0.333 0.426 0.976 0.643 1.906 0.643h4.533c0.938 0 1.581-0.217 1.914-0.651 0.318-0.418 0.24-0.883 0.209-1.007-0.473-1.503-2.689-1.557-3.882-1.581zM19.247 26.104c-0.054 0.070-0.302 0.302-1.201 0.302h-4.533c-0.891 0-1.139-0.225-1.201-0.294-0.054-0.070-0.062-0.163-0.054-0.201 0.318-0.86 2.146-0.907 3.022-0.922 0.132 0 0.256-0.008 0.341-0.008 0.031 0 0.054 0 0.085-0.008h0.132c0.023 0 0.054 0.008 0.077 0.008 0.101 0.008 0.217 0.008 0.356 0.008 0.883 0.015 2.712 0.054 3.022 0.907 0.008 0.039 0.008 0.132-0.047 0.209z"></path>
<path fill="#fff" d="M8.415 20.223c-0.442 0-0.829 0.147-1.123 0.426-0.356 0.341-0.542 0.845-0.496 1.387 0.039 0.511 0.271 1.015 0.651 1.418 0.457 0.488 1.062 0.759 1.658 0.759 0.442 0 0.829-0.147 1.123-0.426 0.356-0.333 0.527-0.806 0.496-1.34-0.031-0.527-0.263-1.046-0.659-1.464-0.442-0.48-1.046-0.759-1.65-0.759zM9.616 23.128c-0.349 0.325-1.054 0.186-1.503-0.294-0.24-0.256-0.387-0.573-0.411-0.876-0.023-0.271 0.054-0.496 0.217-0.651 0.132-0.124 0.302-0.186 0.511-0.186 0.349 0 0.713 0.17 1 0.48 0.248 0.263 0.395 0.581 0.411 0.899 0.008 0.263-0.070 0.488-0.225 0.628z"></path>
<path fill="#fff" d="M23.175 20.223c-0.604 0-1.209 0.279-1.658 0.767-0.395 0.418-0.628 0.938-0.659 1.464-0.031 0.535 0.147 1.007 0.496 1.34 0.294 0.279 0.69 0.426 1.123 0.426 0.597 0 1.209-0.279 1.658-0.759 0.38-0.403 0.612-0.907 0.651-1.418 0.047-0.542-0.139-1.046-0.496-1.387-0.287-0.287-0.674-0.434-1.116-0.434zM23.485 22.834c-0.449 0.48-1.162 0.62-1.503 0.294-0.155-0.147-0.232-0.364-0.217-0.628 0.015-0.318 0.163-0.635 0.411-0.899 0.287-0.302 0.651-0.48 1-0.48 0.209 0 0.38 0.062 0.504 0.186 0.163 0.147 0.232 0.38 0.217 0.651-0.023 0.31-0.17 0.628-0.411 0.876z"></path>
<path fill="#fff" d="M12.126 9.964c2.022 0 3.812-1.286 4.478-3.223h0.914l0.697 1.007c0.077 0.108 0.201 0.178 0.333 0.194 0.132 0.008 0.263-0.039 0.364-0.132l0.775-0.775 0.356 0.666c0.070 0.124 0.186 0.209 0.333 0.232 0.139 0.023 0.287-0.023 0.387-0.124l0.93-0.907h1.015c0.852 0 1.542-0.69 1.542-1.542 0-0.845-0.682-1.526-1.519-1.542-0.008 0-0.015 0-0.023 0h-6.082c-0.612-1.96-2.441-3.316-4.502-3.316-2.611 0-4.726 2.123-4.726 4.726s2.115 4.734 4.726 4.734zM12.126 1.41c1.712 0 3.231 1.154 3.68 2.805 0.008 0.016 0.008 0.039 0.015 0.054 0.093 0.225 0.349 0.449 0.713 0.449h6.152c0.356-0.008 0.659 0.279 0.659 0.635 0 0.349-0.287 0.635-0.635 0.635h-1.201c-0.116 0-0.232 0.046-0.318 0.132l-0.635 0.62-0.364-0.674c-0.070-0.124-0.194-0.217-0.333-0.232-0.139-0.023-0.287 0.023-0.387 0.132l-0.821 0.821-0.527-0.759c-0.085-0.124-0.225-0.194-0.372-0.194h-1.503c-0.201 0-0.387 0.139-0.434 0.333l-0.070 0.271c-0.519 1.565-1.976 2.611-3.626 2.611-2.107 0-3.82-1.712-3.82-3.82s1.72-3.82 3.828-3.82z"></path>
<path fill="#fff" d="M10.716 6.741c0.829 0 1.503-0.674 1.503-1.503s-0.674-1.503-1.503-1.503-1.503 0.674-1.503 1.503 0.674 1.503 1.503 1.503zM10.716 4.633c0.333 0 0.597 0.271 0.597 0.597s-0.271 0.597-0.597 0.597-0.597-0.271-0.597-0.597 0.271-0.597 0.597-0.597z"></path>
</svg>
