<!-- Generated by IcoMoon.io -->
<svg version="1.1" xmlns="http://www.w3.org/2000/svg" width="32" height="32" viewBox="0 0 32 32">
<title>car-01</title>
<path fill="#fff" d="M31.256 18.479l-0.008-0.054c-0.488-2.867-1.666-5.269-2.154-6.168v0 0l-0.062-0.124-0.070-0.132-3.107-5.749c-1.093-2.015-3.843-3.657-6.137-3.657h-8.019c-1.705 0-4.548 1.596-5.664 3.657l-3.107 5.749h-0.008l-0.124 0.24-0.008 0.008-0.008 0.015c-0.449 0.899-1.542 3.301-2.030 6.152l-0.008 0.062c-0.124 0.736-0.256 1.519-0.24 2.293 0 0.015-0.008 0.023-0.008 0.039v6.539c0 1.131 0.922 2.046 2.046 2.046h0.69c1.131 0 2.046-0.728 2.046-1.627v-1.278c0-0.263-0.217-0.48-0.48-0.48s-0.48 0.217-0.48 0.48v1.278c0 0.31-0.48 0.666-1.093 0.666h-0.69c-0.604 0-1.093-0.488-1.093-1.093v-3.975c1.852 2.146 6.454 3.184 14.489 3.27 8.089-0.085 12.73-1.123 14.59-3.277v3.983c0 0.604-0.488 1.093-1.093 1.093h-0.69c-0.612 0-1.093-0.356-1.093-0.666v-1.278c0-0.263-0.217-0.48-0.48-0.48s-0.48 0.217-0.48 0.48v1.278c0 0.899 0.922 1.627 2.046 1.627h0.69c1.131 0 2.046-0.922 2.046-2.046v-6.547c0.054-0.783-0.077-1.573-0.209-2.324zM6.88 6.71c0.945-1.751 3.409-3.161 4.819-3.161h8.019c1.914 0 4.385 1.472 5.3 3.161l2.859 5.292h-23.857l2.859-5.292zM29.861 22.71c-1.588 1.906-6.276 2.913-13.916 2.991-7.57-0.077-12.219-1.085-13.8-2.975-0.953-1.147-0.713-2.572-0.449-4.083l0.008-0.062c0.426-2.51 1.379-4.711 1.813-5.625h24.872c0.465 0.907 1.488 3.099 1.922 5.625l0.008 0.062c0.124 0.752 0.248 1.472 0.225 2.162 0 0.008 0 0.008 0 0.015v0.031c-0.039 0.666-0.217 1.294-0.682 1.86z"></path>
<path fill="#fff" d="M16.395 19.479c-0.17 0-0.325-0.008-0.465-0.015l-0.434-0.008-0.046 0.008c-0.132 0.008-0.287 0.008-0.457 0.015-1.596 0.031-4.579 0.093-5.207 2.084l-0.077 0.256 0.046 0.054c0 0.24 0.054 0.612 0.318 0.945 0.434 0.55 1.278 0.829 2.51 0.829h6.237c1.247 0 2.092-0.287 2.526-0.845 0.411-0.535 0.287-1.147 0.263-1.255-0.635-1.968-3.611-2.030-5.215-2.069zM20.587 22.222c-0.108 0.139-0.496 0.473-1.767 0.473h-6.237c-1.255 0-1.65-0.325-1.759-0.465-0.116-0.147-0.116-0.333-0.108-0.403 0.457-1.302 3.053-1.356 4.308-1.379 0.178 0 0.341-0.008 0.473-0.015 0.039 0 0.070-0.008 0.108-0.008h0.201c0.031 0.008 0.070 0.008 0.101 0.008 0.139 0.008 0.302 0.008 0.48 0.015 1.255 0.023 3.851 0.077 4.3 1.364 0 0.054 0.015 0.248-0.101 0.411z"></path>
<path fill="#fff" d="M5.563 14.187c-0.566 0-1.069 0.194-1.449 0.55-0.938 0.883-0.837 2.518 0.225 3.649 0.597 0.635 1.395 1.007 2.177 1.007 0.566 0 1.069-0.194 1.449-0.55 0.457-0.426 0.682-1.038 0.643-1.728s-0.349-1.371-0.86-1.922c-0.604-0.643-1.395-1.007-2.185-1.007zM7.307 18.146c-0.201 0.186-0.48 0.287-0.798 0.287-0.527 0-1.061-0.256-1.48-0.705-0.69-0.736-0.814-1.79-0.263-2.301 0.201-0.194 0.48-0.294 0.798-0.294 0.527 0 1.062 0.256 1.48 0.705 0.364 0.387 0.581 0.86 0.604 1.325 0.031 0.411-0.093 0.752-0.341 0.984z"></path>
<path fill="#fff" d="M25.879 14.187c-0.79 0-1.581 0.364-2.177 1.007-0.519 0.55-0.821 1.232-0.86 1.922s0.186 1.302 0.643 1.728c0.38 0.356 0.883 0.55 1.449 0.55 0.783 0 1.581-0.364 2.177-1.007 1.061-1.131 1.162-2.774 0.225-3.649-0.387-0.364-0.891-0.55-1.457-0.55zM26.414 17.728c-0.418 0.449-0.961 0.705-1.48 0.705-0.318 0-0.597-0.101-0.798-0.287-0.24-0.225-0.364-0.573-0.341-0.976 0.031-0.473 0.24-0.938 0.604-1.325 0.418-0.449 0.961-0.705 1.48-0.705 0.318 0 0.597 0.101 0.798 0.294 0.55 0.511 0.426 1.565-0.263 2.293z"></path>
</svg>
