<!-- Generated by IcoMoon.io -->
<svg version="1.1" xmlns="http://www.w3.org/2000/svg" width="32" height="32" viewBox="0 0 32 32">
<title>car-02</title>
<path fill="#fff" d="M31.186 17.898h-0.488v-2.557c0-0.488-0.155-0.883-0.457-1.162-0.325-0.302-0.744-0.403-1.030-0.434-0.054-0.643-0.325-2.2-1.596-3.518-1.805-1.86-4.122-1.929-4.223-1.929h-9.794c-1.612 0-2.859 0.783-3.316 1.116-0.194 0.147-0.558 0.457-1.015 0.852-0.883 0.767-2.092 1.821-2.952 2.371-0.713 0.457-1.093 0.589-1.612 0.767-0.411 0.147-0.93 0.325-1.759 0.721-1.937 0.914-2.448 2.417-2.448 3.076v2.061c0 0.852 0.79 1.495 1.495 1.495h1.519c0.155 1.643 1.542 2.937 3.231 2.937s3.076-1.294 3.231-2.937h11.157c0.155 1.643 1.542 2.937 3.231 2.937 1.705 0 3.099-1.317 3.231-2.991h1.503c1.054 0 2.41-0.79 2.41-1.627v-0.868c-0.008-0.17-0.147-0.31-0.318-0.31zM2.712 14.97v0.953c0 0.302-0.248 0.55-0.55 0.55h-0.837c0.209-0.465 0.628-1.030 1.387-1.503zM6.741 23.082c-1.449 0-2.627-1.178-2.627-2.627s1.178-2.627 2.627-2.627 2.627 1.178 2.627 2.627-1.178 2.627-2.627 2.627zM24.353 23.082c-1.433 0-2.596-1.154-2.627-2.58 0-0.015 0.008-0.031 0.008-0.047s-0.008-0.031-0.008-0.047c0.023-1.426 1.193-2.58 2.627-2.58 1.449 0 2.627 1.178 2.627 2.627s-1.178 2.627-2.627 2.627zM30.877 19.076c0 0.349-0.945 1.007-1.79 1.007h-1.511c-0.186-1.619-1.557-2.875-3.223-2.875-1.681 0-3.076 1.294-3.231 2.937h-11.157c-0.155-1.643-1.542-2.937-3.231-2.937s-3.061 1.294-3.223 2.937h-1.511c-0.349 0-0.876-0.349-0.876-0.876v-2.061c0-0.039 0-0.077 0.008-0.124h1.038c0.643 0 1.17-0.527 1.17-1.17v-1.286c0.728-0.341 1.178-0.496 1.573-0.635 0.535-0.186 0.961-0.341 1.736-0.829 0.899-0.573 2.131-1.643 3.030-2.425 0.426-0.372 0.798-0.697 0.969-0.821 0.411-0.302 1.519-1 2.952-1h9.786c0.023 0 2.169 0.070 3.789 1.736 1.433 1.48 1.433 3.355 1.433 3.378 0 0.085 0.031 0.17 0.093 0.232s0.147 0.093 0.232 0.085c0.008 0 0.55-0.023 0.883 0.279 0.178 0.163 0.263 0.395 0.263 0.713v2.867c0 0.17 0.139 0.31 0.31 0.31h0.488v0.558z"></path>
<path fill="#fff" d="M14.954 9.724h-1.836c-0.496 0-0.976 0.201-1.325 0.55l-3.208 3.223c-0.139 0.139-0.186 0.356-0.108 0.542s0.256 0.31 0.457 0.31h6.020c0.372 0 0.666-0.302 0.666-0.666v-3.285c0-0.372-0.302-0.674-0.666-0.674zM15 13.676c0 0.031-0.023 0.046-0.046 0.046h-5.726l2.999-3.014c0.232-0.232 0.558-0.364 0.883-0.364h1.844c0.031 0 0.046 0.023 0.046 0.046v3.285z"></path>
<path fill="#fff" d="M25.499 10.22c-0.217-0.31-0.573-0.496-0.953-0.496h-7.252c-0.395 0-0.721 0.325-0.721 0.721v3.177c0 0.395 0.325 0.721 0.721 0.721h9.995c0.209 0 0.395-0.116 0.488-0.294 0.093-0.186 0.085-0.403-0.031-0.573l-2.247-3.254zM17.294 13.73c-0.054 0-0.101-0.046-0.101-0.101v-3.177c0-0.054 0.047-0.101 0.101-0.101h7.252c0.178 0 0.341 0.085 0.442 0.232l2.177 3.154-9.871-0.008z"></path>
</svg>
