<!-- Generated by IcoMoon.io -->
<svg version="1.1" xmlns="http://www.w3.org/2000/svg" width="32" height="32" viewBox="0 0 32 32">
<title>cash</title>
<path fill="#fff" d="M27.986 9.646c-0.411-0.163-1.085-0.201-1.387-0.201-1.41 0-1.844 0.945-1.945 2.069h-0.395c-0.062 0-0.085 0.031-0.085 0.070v0.263c0 0.062 0.031 0.070 0.077 0.070h3.138c0.054 0 0.070-0.031 0.070-0.070v-0.248c0-0.070-0.015-0.085-0.077-0.085h-2.1c0.070-0.845 0.341-1.503 1.317-1.503 0.457 0 0.953 0.062 1.294 0.108 0.101 0.015 0.132-0.031 0.147-0.085l0.047-0.217c0.015-0.070 0.008-0.124-0.101-0.17z"></path>
<path fill="#fff" d="M28.041 14.117c-0.015-0.054-0.047-0.108-0.155-0.093-0.364 0.046-0.814 0.108-1.286 0.108-0.938 0-1.232-0.659-1.309-1.472h2.1c0.054 0 0.070-0.023 0.070-0.062v-0.248c0-0.070-0.023-0.093-0.085-0.093h-3.115c-0.062 0-0.085 0.039-0.085 0.070v0.263c0 0.062 0.031 0.077 0.077 0.077l0.403-0.008c0.093 1.116 0.542 2.038 1.945 2.038 0.302 0 1.023-0.054 1.395-0.209 0.101-0.039 0.101-0.093 0.085-0.17l-0.039-0.201z"></path>
<path fill="#fff" d="M28.033 21.184h-4.556c-1.201 0-2.371-0.488-3.208-1.348 0.465-0.488 0.759-1.123 0.821-1.805 0.077-0.845-0.201-1.681-0.775-2.309l-2.774-3.022c-1.131-1.232-2.743-1.937-4.416-1.937h-12.188c-0.24 0-0.434 0.194-0.434 0.434s0.194 0.434 0.434 0.434h12.196c1.433 0 2.813 0.604 3.781 1.658l2.774 3.022c0.411 0.442 0.612 1.046 0.558 1.643-0.047 0.48-0.256 0.922-0.581 1.271l-3.549-3.479c-0.17-0.17-0.442-0.163-0.612 0.008s-0.163 0.442 0.008 0.612l3.804 3.742c0.008 0.008 0.015 0.008 0.023 0.015l0.302 0.31c1 1.030 2.402 1.619 3.835 1.619h4.556c0.542 0 0.992 0.442 0.992 0.992 0 0.542-0.442 0.992-0.992 0.992h-8.019c-1.441 0-2.82-0.542-3.874-1.519l-3.952-3.665c-0.969-0.899-2.317-1.294-3.618-1.077l-7.516 1.247c-0.232 0.039-0.395 0.263-0.356 0.496s0.256 0.395 0.496 0.356l7.516-1.247c1.038-0.178 2.115 0.147 2.89 0.86l3.952 3.665c1.216 1.131 2.805 1.751 4.463 1.751h8.019c1.023 0 1.852-0.829 1.852-1.852 0-1.030-0.829-1.867-1.852-1.867z"></path>
<path fill="#fff" d="M26.468 7.105c-2.774 0-5.029 2.255-5.029 5.029s2.255 5.029 5.029 5.029 5.029-2.255 5.029-5.029-2.255-5.029-5.029-5.029zM26.468 16.31c-2.301 0-4.169-1.867-4.169-4.169s1.867-4.169 4.169-4.169c2.301 0 4.169 1.867 4.169 4.169s-1.875 4.169-4.169 4.169z"></path>
</svg>
