<!-- Generated by IcoMoon.io -->
<svg version="1.1" xmlns="http://www.w3.org/2000/svg" width="32" height="32" viewBox="0 0 32 32">
<title>challenge</title>
<path fill="#fff" d="M21.548 27.963v-1.015c0.519-0.186 0.899-0.682 0.899-1.271 0-0.62-0.418-1.139-0.984-1.294-0.186-0.496-0.728-2.046-1.116-3.99-0.31-1.565-0.589-4.045-0.682-4.897 0.473-0.186 0.814-0.643 0.814-1.178v-0.294c0.511-0.194 0.868-0.682 0.868-1.263 0-0.573-0.364-1.069-0.868-1.263v-0.287c0-0.612-0.434-1.123-1.007-1.24 0.023-0.434 0.163-1.309 0.798-2.402 1.085-1.867 0.721-2.797 0.674-2.898-0.054-0.132-0.186-0.209-0.325-0.209h-0.736c-0.558-1.023-1.495-1.774-2.588-2.107 0.062-0.155 0.093-0.318 0.093-0.496 0-0.752-0.612-1.371-1.371-1.371v0 0c-0.752 0-1.371 0.612-1.371 1.371 0 0.17 0.031 0.341 0.093 0.496-1.092 0.333-2.030 1.085-2.588 2.107h-0.736c-0.139 0-0.271 0.085-0.325 0.209-0.046 0.101-0.411 1.030 0.674 2.898 0.628 1.077 0.767 1.96 0.798 2.402-0.573 0.116-1.007 0.628-1.007 1.24v0.333c-0.457 0.217-0.767 0.682-0.767 1.216s0.318 1 0.767 1.216v0.333c0 0.566 0.372 1.030 0.876 1.201-0.093 0.876-0.372 3.324-0.682 4.881-0.38 1.906-0.914 3.432-1.108 3.959-0.628 0.124-1.1 0.666-1.1 1.325 0 0.597 0.395 1.1 0.938 1.278v1c-1.030 0.116-1.829 0.992-1.829 2.046v1.131c0 0.194 0.163 0.356 0.356 0.356h14.024c0.194 0 0.356-0.163 0.356-0.356v-1.131c-0.015-1.046-0.814-1.922-1.836-2.038zM11.173 27.948v-0.914h9.654v0.914h-9.654zM15.341 1.875c0-0.364 0.294-0.659 0.659-0.659v0 0c0.364 0 0.659 0.294 0.659 0.659 0 0.124-0.031 0.24-0.093 0.341-0.186-0.023-0.372-0.039-0.558-0.039s-0.372 0.015-0.558 0.039c-0.070-0.108-0.108-0.225-0.108-0.341zM16 2.882c1.263 0 2.441 0.666 3.115 1.72-0.031 0.039-0.054 0.077-0.070 0.124l-0.225 0.759h-0.325l-0.225-0.752c-0.047-0.155-0.186-0.256-0.341-0.256h-1.201c-0.155 0-0.294 0.101-0.341 0.248l-0.24 0.759h-0.287l-0.24-0.759c-0.046-0.147-0.186-0.248-0.341-0.248v0h-1.201c-0.155 0-0.294 0.101-0.341 0.256l-0.225 0.752h-0.325l-0.225-0.759c-0.015-0.046-0.039-0.085-0.070-0.124 0.666-1.054 1.844-1.72 3.107-1.72zM12.8 10.662h1.852c0.194 0 0.356-0.163 0.356-0.356s-0.163-0.356-0.356-0.356h-1.395c-0.031-0.527-0.194-1.519-0.891-2.727-0.612-1.054-0.682-1.72-0.674-2.038h0.659l0.225 0.759c0.046 0.147 0.186 0.256 0.341 0.256h0.86c0.155 0 0.294-0.101 0.341-0.256l0.225-0.752h0.674l0.24 0.759c0.046 0.147 0.186 0.248 0.341 0.248h0.814c0.155 0 0.294-0.101 0.341-0.248l0.24-0.759h0.674l0.225 0.752c0.047 0.155 0.186 0.256 0.341 0.256h0.86c0.155 0 0.294-0.101 0.341-0.256l0.225-0.759h0.659c0.015 0.318-0.062 0.984-0.666 2.038-0.705 1.209-0.868 2.208-0.891 2.727h-1.418c-0.194 0-0.356 0.163-0.356 0.356s0.163 0.356 0.356 0.356h1.875c0.302 0 0.55 0.248 0.55 0.55v0.194h-7.524v-0.194c0-0.302 0.248-0.55 0.558-0.55zM12.118 12.126h7.864c0.356 0 0.643 0.287 0.643 0.643s-0.287 0.643-0.643 0.643h-7.864c-0.356 0-0.643-0.287-0.643-0.643s0.287-0.643 0.643-0.643zM10.235 25.677c0-0.356 0.287-0.643 0.643-0.643v0 0h2.751c0.194 0 0.356-0.163 0.356-0.356s-0.163-0.356-0.356-0.356h-2.239c0.248-0.697 0.697-2.084 1.038-3.797 0.31-1.581 0.597-4.068 0.69-4.951h2.72c0.194 0 0.356-0.163 0.356-0.356s-0.163-0.356-0.356-0.356h-3.037c-0.302 0-0.55-0.248-0.55-0.55v-0.194h7.508v0.194c0 0.302-0.248 0.55-0.55 0.55h-0.597c-0.194 0-0.356 0.163-0.356 0.356s0.163 0.356 0.356 0.356h0.341c0.093 0.876 0.38 3.363 0.69 4.951 0.341 1.712 0.79 3.099 1.038 3.797h-0.907c-0.194 0-0.356 0.163-0.356 0.356s0.163 0.356 0.356 0.356h1.317c0.356 0 0.643 0.287 0.643 0.643s-0.287 0.643-0.643 0.643h-10.212c-0.349 0-0.643-0.287-0.643-0.643zM22.656 30.784h-13.311v-0.775c0-0.744 0.604-1.348 1.348-1.348h10.615c0.744 0 1.348 0.604 1.348 1.348v0.775z"></path>
</svg>
