<!-- Generated by IcoMoon.io -->
<svg version="1.1" xmlns="http://www.w3.org/2000/svg" width="32" height="32" viewBox="0 0 32 32">
<title>change</title>
<path fill="#fff" d="M14.078 15.946h3.843c1.271 0 2.309-1.038 2.309-2.309v-3.843c0-1.271-1.038-2.309-2.309-2.309h-3.843c-1.271 0-2.309 1.038-2.309 2.309v3.843c0 1.271 1.038 2.309 2.309 2.309zM12.335 9.794c0-0.961 0.783-1.743 1.743-1.743h3.843c0.961 0 1.743 0.783 1.743 1.743v3.843c0 0.961-0.783 1.743-1.743 1.743h-3.843c-0.961 0-1.743-0.783-1.743-1.743v-3.843z"></path>
<path fill="#fff" d="M8.965 15.659v-7.895c0-0.155-0.124-0.287-0.287-0.287h-7.888c-0.155 0-0.287 0.124-0.287 0.287v7.895c0 0.155 0.124 0.287 0.287 0.287h7.888c0.155 0 0.287-0.132 0.287-0.287zM8.399 15.372h-7.33v-7.322h7.322l0.008 7.322z"></path>
<path fill="#fff" d="M27.266 7.485c-2.332 0-4.23 1.898-4.23 4.231s1.898 4.23 4.23 4.23 4.23-1.898 4.23-4.23-1.898-4.231-4.23-4.231zM27.266 15.372c-2.022 0-3.665-1.643-3.665-3.665s1.643-3.665 3.665-3.665c2.022 0 3.665 1.643 3.665 3.665s-1.643 3.665-3.665 3.665z"></path>
<path fill="#fff" d="M27.281 21.067c-0.015-0.031-0.031-0.054-0.054-0.085l-3.068-3.068c-0.108-0.108-0.294-0.108-0.403 0s-0.108 0.294 0 0.403l2.58 2.58h-21.354c-0.155 0-0.287 0.124-0.287 0.287 0 0.155 0.124 0.287 0.287 0.287h21.354l-2.58 2.58c-0.108 0.108-0.108 0.287 0 0.403 0.054 0.054 0.132 0.085 0.201 0.085s0.147-0.031 0.201-0.085l3.068-3.068c0.023-0.023 0.039-0.054 0.054-0.085 0.031-0.085 0.031-0.17 0-0.232z"></path>
</svg>
