<!-- Generated by IcoMoon.io -->
<svg version="1.1" xmlns="http://www.w3.org/2000/svg" width="32" height="32" viewBox="0 0 32 32">
<title>chart</title>
<path fill="#fff" d="M30.993 29.621h-3.417v-19.665c0-0.279-0.225-0.504-0.504-0.504h-3.022c-0.279 0-0.504 0.225-0.504 0.504v19.657h-2.464v-17.805c0-0.279-0.225-0.504-0.504-0.504h-3.022c-0.279 0-0.504 0.225-0.504 0.504v17.805h-2.464v-15.566c0-0.279-0.225-0.504-0.504-0.504h-3.022c-0.279 0-0.504 0.225-0.504 0.504v15.566h-2.464v-9.98c0-0.279-0.225-0.504-0.504-0.504h-3.022c-0.279 0-0.504 0.225-0.504 0.504v9.98h-3.061c-0.279 0-0.504 0.225-0.504 0.504s0.225 0.504 0.504 0.504h29.985c0.279 0 0.504-0.225 0.504-0.504 0-0.271-0.225-0.496-0.504-0.496zM24.554 10.46h2.015v19.161h-2.015v-19.161zM18.061 12.312h2.015v17.309h-2.015v-17.309zM11.576 14.551h2.015v15.070h-2.015v-15.070zM5.083 20.138h2.015v9.484h-2.015v-9.484z"></path>
<path fill="#fff" d="M2.51 12.699c0.108 0 0.225-0.039 0.318-0.108l8.569-6.896 3.456 3.378c0.163 0.163 0.418 0.186 0.612 0.070l9.585-5.796-0.372 3.061c-0.031 0.279 0.163 0.527 0.442 0.558 0.023 0 0.039 0.008 0.062 0.008 0.248 0 0.465-0.186 0.496-0.442l0.496-4.099c0-0.023-0.008-0.039-0.008-0.062 0-0.031 0-0.062-0.008-0.093-0.008-0.046-0.023-0.093-0.047-0.132-0.008-0.008-0.008-0.015-0.008-0.023l-0.008-0.008c-0.031-0.054-0.077-0.101-0.124-0.139v0c-0.070-0.054-0.147-0.093-0.232-0.101l-4.052-0.496c-0.271-0.031-0.527 0.163-0.558 0.434-0.031 0.279 0.163 0.527 0.434 0.558l2.619 0.318-8.91 5.385-3.494-3.409c-0.186-0.178-0.465-0.194-0.666-0.031l-8.91 7.175c-0.217 0.17-0.248 0.488-0.077 0.705 0.101 0.124 0.248 0.186 0.387 0.186z"></path>
</svg>
