<!-- Generated by IcoMoon.io -->
<svg version="1.1" xmlns="http://www.w3.org/2000/svg" width="32" height="32" viewBox="0 0 32 32">
<title>check-list</title>
<path fill="#fff" d="M26.344 5.803h-3.549v-0.48c0-1.038-0.845-1.875-1.875-1.875h-2.371v-0.395c0-1.402-1.147-2.549-2.549-2.549s-2.549 1.147-2.549 2.549v0.395h-2.371c-1.038 0-1.875 0.845-1.875 1.875v0.48h-3.549c-0.248 0-0.449 0.201-0.449 0.449v24.802c0 0.248 0.201 0.449 0.449 0.449h20.688c0.248 0 0.449-0.201 0.449-0.449v-24.81c-0.008-0.248-0.201-0.442-0.449-0.442zM11.080 4.339h2.813c0.248 0 0.449-0.201 0.449-0.449v-0.837c0-0.914 0.744-1.658 1.658-1.658s1.658 0.744 1.658 1.658v0.845c0 0.248 0.201 0.449 0.449 0.449h2.813c0.542 0 0.984 0.442 0.984 0.984v1.759c0 0.542-0.442 0.984-0.984 0.984h-9.84c-0.542 0-0.984-0.442-0.984-0.984v-0.829c0-0.008 0-0.008 0-0.016s0-0.008 0-0.016v-0.907c0-0.542 0.442-0.984 0.984-0.984zM25.894 30.605h-19.789v-23.911h3.099v0.395c0 1.038 0.845 1.875 1.875 1.875h9.84c1.038 0 1.875-0.845 1.875-1.875v-0.395h3.099v23.911z"></path>
<path fill="#fff" d="M22.741 12.444h-13.451c-0.248 0-0.449 0.201-0.449 0.449s0.201 0.449 0.449 0.449h13.451c0.248 0 0.449-0.201 0.449-0.449s-0.201-0.449-0.449-0.449z"></path>
<path fill="#fff" d="M9.29 16.535h13.451c0.248 0 0.449-0.201 0.449-0.449s-0.201-0.449-0.449-0.449h-13.451c-0.248 0-0.449 0.201-0.449 0.449s0.201 0.449 0.449 0.449z"></path>
<path fill="#fff" d="M16.628 19.781c0-0.248-0.201-0.449-0.449-0.449h-6.896c-0.248 0-0.449 0.201-0.449 0.449s0.201 0.449 0.449 0.449h6.896c0.248 0 0.449-0.201 0.449-0.449z"></path>
<path fill="#fff" d="M22.547 20.277l-4.161 6.067-1.751-2.518c-0.139-0.201-0.418-0.256-0.62-0.108-0.201 0.139-0.256 0.418-0.108 0.62l2.123 3.053c0.085 0.116 0.217 0.194 0.364 0.194v0c0.147 0 0.287-0.070 0.364-0.194l4.525-6.601c0.139-0.201 0.085-0.48-0.116-0.62-0.201-0.147-0.48-0.101-0.62 0.108z"></path>
</svg>
