<!-- Generated by IcoMoon.io -->
<svg version="1.1" xmlns="http://www.w3.org/2000/svg" width="32" height="32" viewBox="0 0 32 32">
<title>child-seat</title>
<path fill="#fff" d="M30.66 20.409c-0.124-1.317-1.294-2.286-2.619-2.162l-5.114 0.488c-0.372 0.039-0.736-0.031-1.069-0.194l-4.943-2.425 5.71-12.405c0.232-0.504 0.256-1.062 0.062-1.581s-0.573-0.93-1.077-1.162l-0.604-0.271c-0.504-0.232-1.061-0.248-1.581-0.062-0.519 0.194-0.93 0.573-1.162 1.077l-5.075 11.033c-0.349-2.038-2.123-3.595-4.254-3.595-1.681 0-3.177 0.953-3.897 2.448-0.674-0.248-1.402-0.209-2.061 0.116-0.767 0.38-1.294 1.085-1.433 1.929-0.139 0.837-0.217 1.697-0.217 2.557 0 8.438 6.865 15.295 15.303 15.295 3.959 0 7.717-1.511 10.576-4.246 0.628-0.604 0.922-1.433 0.798-2.293-0.101-0.736-0.496-1.371-1.093-1.782l1.581-0.155c1.24-0.116 2.169-1.147 2.169-2.386 0.008-0.062 0.008-0.124 0-0.225zM19.068 2.076c0.132-0.287 0.364-0.504 0.666-0.612 0.132-0.046 0.271-0.077 0.411-0.077 0.17 0 0.333 0.039 0.496 0.108l0.604 0.279c0.287 0.132 0.504 0.364 0.612 0.666 0.108 0.294 0.101 0.62-0.039 0.907l-7.57 16.465c-0.132 0.287-0.364 0.504-0.666 0.612-0.294 0.108-0.62 0.093-0.907-0.039l-0.604-0.279c-0.287-0.132-0.504-0.364-0.612-0.666-0.108-0.294-0.101-0.62 0.039-0.907l7.57-16.457zM8.934 10.034c1.898 0 3.44 1.542 3.44 3.44 0 0.62-0.17 1.201-0.473 1.728l-6.059-3.208c0.566-1.201 1.751-1.96 3.092-1.96zM26.6 26.607c-2.696 2.58-6.237 4.006-9.964 4.006-7.95 0-14.419-6.47-14.419-14.412 0-0.806 0.070-1.619 0.201-2.41 0.093-0.566 0.442-1.030 0.953-1.286 0.511-0.248 1.092-0.24 1.588 0.023l6.702 3.549-0.969 2.092c-0.232 0.504-0.256 1.061-0.062 1.581s0.573 0.93 1.077 1.162l0.604 0.279c0.271 0.124 0.566 0.194 0.86 0.194 0.24 0 0.488-0.047 0.721-0.132 0.519-0.194 0.93-0.573 1.162-1.077l0.852-1.86 10.321 5.462c0.496 0.263 0.829 0.736 0.907 1.294 0.077 0.573-0.116 1.131-0.535 1.534zM28.413 22.137l-2.882 0.279-9.259-4.905 0.271-0.589 4.928 2.41c0.48 0.232 1.015 0.333 1.542 0.279l5.114-0.488c0.829-0.070 1.573 0.535 1.65 1.379 0 0.047 0.008 0.085 0.008 0.132 0 0.783-0.589 1.433-1.371 1.503z"></path>
</svg>
