<!-- Generated by IcoMoon.io -->
<svg version="1.1" xmlns="http://www.w3.org/2000/svg" width="32" height="32" viewBox="0 0 32 32">
<title>child</title>
<path fill="#fff" d="M15.117 13.435c1.612 0 2.921-1.309 2.921-2.921s-1.309-2.921-2.921-2.921-2.921 1.309-2.921 2.921 1.309 2.921 2.921 2.921zM15.117 8.36c1.185 0 2.154 0.969 2.154 2.154s-0.969 2.154-2.154 2.154-2.154-0.969-2.154-2.154 0.969-2.154 2.154-2.154z"></path>
<path fill="#fff" d="M16.682 14.505h-3.13c-1.387 0-2.518 1.092-2.596 2.456-0.077 0.031-0.155 0.070-0.232 0.108-0.062-0.070-0.139-0.132-0.225-0.186-0.24-0.147-0.519-0.194-0.79-0.132s-0.504 0.232-0.651 0.465-0.194 0.519-0.132 0.79c0.077 0.349 0.333 0.612 0.643 0.736-0.046 0.302-0.039 0.62 0.031 0.922 0.108 0.465 0.356 0.883 0.697 1.201l-1.728 0.984c-0.395 0.225-0.604 0.69-0.496 1.139 0.023 0.093 0.062 0.186 0.108 0.279 0.139 0.24 0.356 0.411 0.628 0.488 0.263 0.070 0.542 0.039 0.783-0.101l0.325-0.186c0 0.008 0.008 0.023 0.008 0.039 0.085 0.364 0.24 0.705 0.457 1.007-0.054 0.225-0.070 0.457-0.008 0.69 0.085 0.38 0.318 0.697 0.651 0.899 0.232 0.147 0.496 0.217 0.759 0.217 0.108 0 0.225-0.015 0.333-0.039 0.178-0.039 0.341-0.116 0.488-0.217v3.076c0 0.039-0.054 1.038 0.589 1.728 0.387 0.411 0.93 0.628 1.612 0.628h0.589c0.682 0 1.224-0.209 1.612-0.628 0.651-0.69 0.589-1.689 0.589-1.705v-5.331c1-0.38 1.674-1.333 1.674-2.425v-4.293c0.015-1.441-1.154-2.611-2.588-2.611zM11.955 25.546c-0.372 0.085-0.744-0.139-0.829-0.511-0.031-0.139-0.023-0.279 0.023-0.403v0c0.077-0.201 0.256-0.372 0.48-0.426 0.054-0.015 0.108-0.015 0.155-0.015 0.31 0 0.597 0.217 0.666 0.527 0.101 0.364-0.132 0.736-0.496 0.829zM11.46 23.462c-0.232 0.054-0.442 0.17-0.62 0.325-0.070-0.139-0.124-0.294-0.163-0.449s-0.054-0.318-0.054-0.48c0-0.139-0.070-0.263-0.194-0.333-0.116-0.070-0.263-0.070-0.38 0l-0.829 0.473c-0.062 0.039-0.132 0.047-0.201 0.023-0.070-0.015-0.132-0.062-0.163-0.124-0.015-0.023-0.023-0.047-0.031-0.070-0.031-0.116 0.023-0.24 0.132-0.294l2.255-1.286c0.124-0.070 0.194-0.201 0.194-0.341s-0.085-0.271-0.209-0.333c-0.426-0.217-0.736-0.604-0.845-1.069-0.070-0.31-0.054-0.635 0.062-0.93 0.046-0.124 0.023-0.271-0.062-0.38s-0.225-0.155-0.356-0.139c-0.147 0.023-0.287-0.070-0.318-0.217-0.015-0.070-0.008-0.147 0.039-0.209 0.039-0.062 0.101-0.108 0.178-0.124 0.070-0.015 0.147-0.008 0.209 0.031s0.108 0.101 0.132 0.194c0.031 0.132 0.132 0.232 0.256 0.271s0.263 0.008 0.364-0.077c0.194-0.17 0.434-0.302 0.697-0.356 0.256-0.062 0.535-0.054 0.783 0.015 0.132 0.031 0.271-0.008 0.364-0.101 0.101-0.093 0.139-0.24 0.108-0.372-0.015-0.070-0.008-0.147 0.039-0.209 0.039-0.062 0.101-0.108 0.178-0.124 0.070-0.015 0.147-0.008 0.209 0.039 0.062 0.039 0.108 0.101 0.124 0.178 0.015 0.070 0.008 0.147-0.039 0.209-0.023 0.039-0.070 0.093-0.155 0.116-0.132 0.039-0.232 0.147-0.256 0.279-0.031 0.132 0.015 0.271 0.116 0.364 0.232 0.217 0.395 0.496 0.465 0.806 0.108 0.465 0.008 0.945-0.279 1.333-0.085 0.116-0.101 0.263-0.039 0.387s0.186 0.209 0.325 0.217l2.588 0.139c0.116 0.008 0.225 0.093 0.248 0.209 0.008 0.023 0.008 0.047 0.008 0.077-0.008 0.070-0.039 0.139-0.093 0.186s-0.124 0.070-0.194 0.070l-0.969-0.054c-0.147-0.008-0.263 0.062-0.341 0.17-0.077 0.116-0.085 0.256-0.023 0.38 0.070 0.139 0.124 0.294 0.163 0.457 0.039 0.155 0.054 0.31 0.054 0.465-0.217-0.054-0.449-0.070-0.682-0.008-0.38 0.085-0.697 0.318-0.899 0.651-0.17 0.279-0.24 0.604-0.201 0.922-0.108-0.302-0.31-0.566-0.597-0.736-0.325-0.201-0.721-0.263-1.1-0.17zM15.264 24.058c0.085 0.372-0.139 0.744-0.511 0.829s-0.744-0.139-0.829-0.511c-0.085-0.372 0.139-0.744 0.511-0.829 0.054-0.015 0.108-0.015 0.155-0.015 0.31-0.008 0.597 0.209 0.674 0.527zM18.518 21.408c0 0.845-0.573 1.581-1.387 1.782-0.108 0.023-0.194 0.108-0.248 0.209-0.031 0.062-0.047 0.139-0.039 0.217v5.579c0 0.008 0.031 0.713-0.387 1.154-0.24 0.256-0.597 0.38-1.062 0.38h-0.589c-0.465 0-0.814-0.124-1.054-0.38-0.418-0.442-0.387-1.154-0.387-1.185v-4.153c0.263 0.403 0.721 0.651 1.209 0.651 0.108 0 0.225-0.015 0.333-0.039 0.38-0.085 0.697-0.318 0.899-0.651s0.271-0.721 0.178-1.1c-0.054-0.24-0.178-0.449-0.333-0.628 0.054-0.364 0.039-0.728-0.046-1.085 0-0.015-0.008-0.023-0.008-0.039l0.387 0.023c0.271 0.015 0.542-0.077 0.752-0.263s0.325-0.442 0.341-0.721c0.008-0.101 0-0.201-0.023-0.294-0.108-0.442-0.496-0.775-0.953-0.798l-1.991-0.108c0.17-0.442 0.201-0.922 0.093-1.387-0.070-0.302-0.201-0.589-0.38-0.837 0.046-0.047 0.085-0.101 0.116-0.155 0.147-0.24 0.194-0.519 0.132-0.79s-0.232-0.504-0.465-0.651c-0.24-0.147-0.519-0.194-0.79-0.132s-0.504 0.232-0.651 0.465c-0.054 0.085-0.093 0.178-0.116 0.271-0.108-0.008-0.217 0-0.325 0.008 0.163-0.852 0.907-1.495 1.805-1.495h3.13c1.015 0 1.836 0.829 1.836 1.844v4.308h0.023z"></path>
<path fill="#fff" d="M22.702 1.34c-0.79-0.674-1.844-0.961-2.882-0.79-1.402 0.232-2.541 1.317-2.844 2.704-0.132 0.597-0.108 1.209 0.062 1.782 0.147 0.496 0.418 0.914 0.69 1.325l1.782 2.526c0.132 0.186 0.318 0.325 0.535 0.403v11.305c0 0.209 0.17 0.38 0.38 0.38s0.38-0.17 0.38-0.38v-11.297c0.232-0.077 0.434-0.225 0.573-0.434l1.697-2.518 0.008-0.008c0.349-0.542 0.868-1.364 0.868-2.309-0.008-1.038-0.457-2.015-1.247-2.689zM22.439 5.927l-1.697 2.518c-0.070 0.101-0.178 0.163-0.302 0.163v0c-0.124 0-0.232-0.054-0.302-0.155l-1.728-2.441-0.039-0.062c-0.248-0.38-0.48-0.736-0.597-1.123-0.139-0.457-0.155-0.922-0.047-1.402 0.232-1.085 1.131-1.937 2.224-2.115 0.163-0.023 0.318-0.039 0.48-0.039 0.659 0 1.278 0.225 1.782 0.659 0.62 0.527 0.976 1.294 0.976 2.107-0.008 0.713-0.442 1.387-0.752 1.891z"></path>
<path fill="#fff" d="M12.592 19.546c0.071 0.3-0.115 0.6-0.415 0.671s-0.6-0.115-0.671-0.415c-0.071-0.3 0.115-0.6 0.415-0.671s0.6 0.115 0.671 0.415z"></path>
</svg>
