<!-- Generated by IcoMoon.io -->
<svg version="1.1" xmlns="http://www.w3.org/2000/svg" width="32" height="32" viewBox="0 0 32 32">
<title>city</title>
<path fill="#fff" d="M14.768 1.093c-0.124-0.085-0.279-0.108-0.418-0.054l-5.517 1.976c-0.186 0.062-0.302 0.24-0.302 0.434v13.435h-3.68c-0.256 0-0.457 0.209-0.457 0.457v1.077c0 0.256 0.209 0.457 0.457 0.457s0.457-0.209 0.457-0.457v-0.612h4.595v12.227h-3.735c-0.256 0-0.457 0.209-0.457 0.457 0 0.256 0.209 0.457 0.457 0.457h8.337c0.256 0 0.457-0.209 0.457-0.457v-29.017c0-0.155-0.070-0.294-0.194-0.38zM14.040 30.032h-3.223v-12.692c0-0.256-0.209-0.457-0.457-0.457h-0.914v-13.11l4.595-1.65v27.909z"></path>
<path fill="#fff" d="M25.445 30.032h-4.285v-19.549h6.299v4.393c0 0.256 0.209 0.457 0.457 0.457s0.457-0.209 0.457-0.457v-4.85c0-0.256-0.209-0.457-0.457-0.457h-3.58v-1.062c0-0.201-0.124-0.372-0.31-0.434l-7.384-2.472c-0.139-0.046-0.294-0.023-0.411 0.062s-0.194 0.225-0.194 0.372v24.461c0 0.256 0.209 0.457 0.457 0.457h8.949c0.256 0 0.457-0.209 0.457-0.457 0.008-0.263-0.201-0.465-0.457-0.465zM16.953 6.671l6.462 2.162v0.728h-2.712c-0.256 0-0.457 0.209-0.457 0.457v20.006h-3.285v-23.353h-0.008z"></path>
<path fill="#fff" d="M31.496 21.865c0-1.976-1.604-3.58-3.58-3.58s-3.58 1.604-3.58 3.58c0 1.821 1.364 3.316 3.123 3.549v5.075c0 0.256 0.209 0.457 0.457 0.457s0.457-0.209 0.457-0.457v-5.075c1.759-0.232 3.123-1.728 3.123-3.549zM27.917 24.523c-1.464 0-2.658-1.193-2.658-2.658s1.193-2.658 2.658-2.658 2.658 1.193 2.658 2.658c0 1.464-1.193 2.658-2.658 2.658z"></path>
<path fill="#fff" d="M7.059 24.151c0-0.372-0.093-0.736-0.271-1.061 0.054-0.209 0.077-0.403 0.077-0.597 0-1.464-1.193-2.658-2.65-2.658s-2.665 1.193-2.665 2.658c0 0.039 0 0.077 0 0.124-0.651 0.395-1.054 1.1-1.054 1.875 0 1.054 0.736 1.937 1.736 2.146 0.124 0.403 0.434 0.721 0.829 0.876v3.022c0 0.256 0.209 0.457 0.457 0.457 0.256 0 0.457-0.209 0.457-0.457v-3.301c0.008-0.031 0.015-0.062 0.015-0.093 0-0.256-0.209-0.457-0.457-0.457-0.24 0-0.434-0.194-0.449-0.426 0.008-0.116-0.031-0.232-0.108-0.318-0.085-0.101-0.201-0.155-0.333-0.163-0.69-0.031-1.232-0.589-1.232-1.278 0-0.527 0.318-0.992 0.798-1.185 0.201-0.085 0.318-0.294 0.279-0.504-0.023-0.124-0.031-0.217-0.031-0.302 0-0.953 0.775-1.736 1.736-1.736s1.736 0.775 1.736 1.736c0 0.163-0.031 0.333-0.093 0.527-0.046 0.139-0.023 0.287 0.062 0.403 0.147 0.217 0.232 0.465 0.232 0.728 0 0.705-0.573 1.278-1.278 1.278-0.256 0-0.457 0.209-0.457 0.457s0.209 0.457 0.457 0.457c1.216-0.015 2.208-1 2.208-2.208z"></path>
<path fill="#fff" d="M12.42 7.562c0.256 0 0.457-0.209 0.457-0.457v-1.976c0-0.256-0.209-0.457-0.457-0.457-0.256 0-0.457 0.209-0.457 0.457v1.976c0 0.256 0.201 0.457 0.457 0.457z"></path>
<path fill="#fff" d="M12.42 11.77c0.256 0 0.457-0.209 0.457-0.457v-1.976c0-0.256-0.209-0.457-0.457-0.457-0.256 0-0.457 0.209-0.457 0.457v1.976c0 0.248 0.201 0.457 0.457 0.457z"></path>
<path fill="#fff" d="M18.371 8.872c-0.256 0-0.457 0.209-0.457 0.457v1.984c0 0.256 0.209 0.457 0.457 0.457 0.256 0 0.457-0.209 0.457-0.457v-1.976c0-0.256-0.201-0.465-0.457-0.465z"></path>
<path fill="#fff" d="M18.371 12.908c-0.256 0-0.457 0.209-0.457 0.457v1.976c0 0.256 0.209 0.457 0.457 0.457 0.256 0 0.457-0.209 0.457-0.457v-1.976c0-0.248-0.201-0.457-0.457-0.457z"></path>
<path fill="#fff" d="M22.199 13.366v1.976c0 0.256 0.209 0.457 0.457 0.457 0.256 0 0.457-0.209 0.457-0.457v-1.976c0-0.256-0.209-0.457-0.457-0.457-0.256 0-0.457 0.209-0.457 0.457z"></path>
<path fill="#fff" d="M24.81 13.366v1.976c0 0.256 0.209 0.457 0.457 0.457 0.256 0 0.457-0.209 0.457-0.457v-1.976c0-0.256-0.209-0.457-0.457-0.457-0.256 0-0.457 0.209-0.457 0.457z"></path>
<path fill="#fff" d="M18.371 16.945c-0.256 0-0.457 0.209-0.457 0.457v1.976c0 0.256 0.209 0.457 0.457 0.457 0.256 0 0.457-0.209 0.457-0.457v-1.976c0-0.256-0.201-0.457-0.457-0.457z"></path>
<path fill="#fff" d="M18.371 20.974c-0.256 0-0.457 0.209-0.457 0.457v1.976c0 0.256 0.209 0.457 0.457 0.457 0.256 0 0.457-0.209 0.457-0.457v-1.976c0-0.248-0.201-0.457-0.457-0.457z"></path>
<path fill="#fff" d="M12.42 15.977c0.256 0 0.457-0.209 0.457-0.457v-1.976c0-0.256-0.209-0.457-0.457-0.457-0.256 0-0.457 0.209-0.457 0.457v1.976c0 0.248 0.201 0.457 0.457 0.457z"></path>
<path fill="#fff" d="M12.42 20.184c0.256 0 0.457-0.209 0.457-0.457v-1.984c0-0.256-0.209-0.457-0.457-0.457-0.256 0-0.457 0.209-0.457 0.457v1.976c0 0.256 0.201 0.465 0.457 0.465z"></path>
<path fill="#fff" d="M12.42 24.384c0.256 0 0.457-0.209 0.457-0.457v-1.976c0-0.256-0.209-0.457-0.457-0.457-0.256 0-0.457 0.209-0.457 0.457v1.976c0 0.256 0.201 0.457 0.457 0.457z"></path>
<path fill="#fff" d="M12.42 28.591c0.256 0 0.457-0.209 0.457-0.457v-1.976c0-0.256-0.209-0.457-0.457-0.457-0.256 0-0.457 0.209-0.457 0.457v1.976c0 0.256 0.201 0.457 0.457 0.457z"></path>
</svg>
