<!-- Generated by IcoMoon.io -->
<svg version="1.1" xmlns="http://www.w3.org/2000/svg" width="32" height="32" viewBox="0 0 32 32">
<title>classify-information</title>
<path fill="#fff" d="M28.839 8.415c0-0.046-0.015-0.093-0.023-0.132-0.008-0.015-0.008-0.031-0.015-0.046-0.023-0.054-0.054-0.101-0.101-0.147l-7.438-7.438c-0.047-0.046-0.093-0.077-0.147-0.101-0.015-0.008-0.031-0.015-0.054-0.015-0.039-0.015-0.085-0.023-0.132-0.023-0.015 0-0.023-0.008-0.039-0.008h-16.55c-0.651 0-1.178 0.527-1.178 1.178v28.637c0 0.651 0.527 1.178 1.178 1.178h23.322c0.651 0 1.178-0.527 1.178-1.178v-21.873c0-0.015 0-0.023 0-0.031zM21.416 2.247l5.687 5.687h-5.687v-5.687zM27.661 30.474h-23.322c-0.085 0-0.163-0.070-0.163-0.163v-28.63c0-0.085 0.070-0.163 0.163-0.163h16.054v6.927c0 0.279 0.225 0.511 0.511 0.511h6.919v21.362c0 0.085-0.077 0.155-0.163 0.155z"></path>
<path fill="#fff" d="M7.725 5.137h9.259c0.279 0 0.511-0.225 0.511-0.511 0-0.279-0.225-0.511-0.511-0.511h-9.259c-0.279 0-0.511 0.225-0.511 0.511s0.232 0.511 0.511 0.511z"></path>
<path fill="#fff" d="M7.725 8.043h7.252c0.279 0 0.511-0.225 0.511-0.511s-0.225-0.511-0.511-0.511h-7.252c-0.279 0-0.511 0.225-0.511 0.511s0.232 0.511 0.511 0.511z"></path>
<path fill="#fff" d="M16.829 10.437c0-0.279-0.225-0.511-0.511-0.511h-8.593c-0.279 0-0.511 0.225-0.511 0.511s0.225 0.511 0.511 0.511h8.593c0.279 0 0.511-0.225 0.511-0.511z"></path>
<path fill="#fff" d="M20.223 18.177v-1.573c0-1.697-1.379-3.076-3.076-3.076h-2.216c-1.697 0-3.076 1.379-3.076 3.076v1.573c-1.123 0.132-2.007 1.077-2.007 2.239v6.036c0 1.247 1.015 2.262 2.262 2.262h7.841c1.247 0 2.262-1.015 2.262-2.262v-6.036c0.015-1.162-0.868-2.108-1.991-2.239zM14.938 14.559h2.216c1.131 0 2.053 0.922 2.053 2.053v1.542h-6.323v-1.542c0-1.139 0.922-2.053 2.053-2.053zM21.207 26.452c0 0.682-0.558 1.247-1.247 1.247h-7.833c-0.682 0-1.247-0.558-1.247-1.247v-6.036c0-0.682 0.558-1.247 1.247-1.247h7.841c0.682 0 1.247 0.558 1.247 1.247v6.036h-0.008z"></path>
<path fill="#fff" d="M16.047 21.524c-0.597 0-1.085 0.488-1.085 1.085 0 0.449 0.271 0.829 0.651 0.992v1.364c0 0.24 0.194 0.426 0.426 0.426 0.24 0 0.426-0.194 0.426-0.426v-1.364c0.387-0.163 0.651-0.55 0.651-0.992 0.015-0.597-0.473-1.085-1.069-1.085z"></path>
</svg>
