<!-- Generated by IcoMoon.io -->
<svg version="1.1" xmlns="http://www.w3.org/2000/svg" width="32" height="32" viewBox="0 0 32 32">
<title>click-through-rate</title>
<path fill="#fff" d="M29.125 3.030h-12.118c-1.309 0-2.371 1.062-2.371 2.371v7.268c0 1.309 1.062 2.371 2.371 2.371h0.744l-0.542 2.255c-0.031 0.124 0.015 0.256 0.124 0.333 0.054 0.039 0.124 0.062 0.186 0.062 0.054 0 0.116-0.015 0.163-0.047l4.262-2.603h7.175c1.309 0 2.371-1.062 2.371-2.371v-7.26c0.008-1.309-1.054-2.379-2.363-2.379zM30.861 12.676c0 0.961-0.783 1.736-1.736 1.736h-7.26c-0.062 0-0.116 0.015-0.163 0.046l-3.688 2.247 0.457-1.906c0.023-0.093 0-0.194-0.062-0.271s-0.155-0.124-0.248-0.124h-1.147c-0.961 0-1.736-0.783-1.736-1.736v-7.26c0-0.961 0.783-1.736 1.736-1.736h12.11c0.961 0 1.736 0.783 1.736 1.736v7.268z"></path>
<path fill="#fff" d="M17.123 23.276l1.805-1.658c0.271-0.248 0.395-0.604 0.333-0.969-0.062-0.356-0.294-0.659-0.628-0.806l-10.53-4.595c-0.248-0.108-0.519-0.116-0.775-0.031v0c-0.139 0.046-0.271 0.124-0.38 0.225-0.31 0.287-0.426 0.728-0.294 1.131l3.673 10.886c0.116 0.341 0.395 0.604 0.752 0.697 0.201 0.054 0.411 0.047 0.612-0.023 0.139-0.047 0.271-0.124 0.38-0.225l1.805-1.658 2.17 2.363c0.209 0.225 0.496 0.349 0.79 0.349 0.116 0 0.232-0.015 0.341-0.054 0.139-0.047 0.271-0.124 0.38-0.225l1.666-1.526c0.434-0.403 0.465-1.077 0.062-1.519l-2.162-2.363zM18.789 26.685l-1.666 1.534c-0.047 0.039-0.101 0.077-0.155 0.093-0.163 0.054-0.349 0.008-0.465-0.116l-2.379-2.596c-0.062-0.070-0.147-0.101-0.232-0.101-0.077 0-0.155 0.031-0.217 0.085l-2.038 1.867c-0.046 0.039-0.101 0.070-0.155 0.093-0.077 0.031-0.17 0.031-0.248 0.008-0.147-0.039-0.256-0.147-0.302-0.287l-3.673-10.886c-0.054-0.163-0.008-0.341 0.116-0.465 0.046-0.039 0.101-0.070 0.155-0.093v0c0.101-0.039 0.217-0.031 0.318 0.015l10.53 4.595c0.139 0.062 0.232 0.186 0.256 0.325 0.023 0.147-0.023 0.294-0.132 0.395l-2.038 1.867c-0.062 0.054-0.101 0.139-0.101 0.217 0 0.085 0.023 0.163 0.085 0.225l2.379 2.596c0.155 0.186 0.139 0.465-0.039 0.628z"></path>
<path fill="#fff" d="M11.165 12.862c0.039 0.015 0.077 0.023 0.108 0.023 0.132 0 0.248-0.077 0.294-0.209l0.744-2.015c0.062-0.163-0.023-0.349-0.186-0.411s-0.349 0.023-0.411 0.186l-0.744 2.015c-0.054 0.163 0.031 0.349 0.194 0.411z"></path>
<path fill="#fff" d="M8.058 12.591c0.015 0 0.039 0 0.054-0.008 0.17-0.031 0.287-0.194 0.263-0.364l-0.364-2.131c-0.031-0.17-0.194-0.287-0.364-0.263-0.17 0.031-0.287 0.194-0.263 0.364l0.364 2.131c0.023 0.163 0.155 0.271 0.31 0.271z"></path>
<path fill="#fff" d="M3.99 11.754c-0.108-0.132-0.31-0.155-0.449-0.039-0.132 0.108-0.155 0.31-0.039 0.449l1.387 1.674c0.062 0.077 0.155 0.116 0.248 0.116 0.070 0 0.139-0.023 0.201-0.070 0.132-0.108 0.155-0.31 0.039-0.449l-1.387-1.681z"></path>
<path fill="#fff" d="M3.378 15.961l-2.046-0.759c-0.163-0.062-0.349 0.023-0.411 0.186s0.023 0.349 0.186 0.411l2.046 0.759c0.039 0.015 0.070 0.023 0.108 0.023 0.132 0 0.248-0.077 0.294-0.209 0.070-0.163-0.008-0.349-0.178-0.411z"></path>
<path fill="#fff" d="M2.913 19.154l-2.146 0.364c-0.17 0.031-0.287 0.194-0.263 0.364 0.023 0.155 0.163 0.263 0.31 0.263 0.015 0 0.039 0 0.054-0.008l2.146-0.364c0.17-0.031 0.287-0.194 0.263-0.364-0.031-0.17-0.194-0.287-0.364-0.256z"></path>
<path fill="#fff" d="M25.244 8.182c-1.488-0.008-1.565 1.441-1.573 2.076-0.008 0.938 0.031 2.224 1.542 2.231 1.55 0.008 1.635-1.379 1.643-2.208 0.015-0.969-0.108-2.084-1.612-2.1zM25.228 11.909c-0.814-0.008-0.899-0.651-0.891-1.573 0.008-0.868 0.108-1.596 0.914-1.588 0.876 0.008 0.969 0.612 0.961 1.604-0.008 0.883-0.147 1.565-0.984 1.557z"></path>
<path fill="#fff" d="M24.655 5.4h-0.318c-0.093 0-0.124 0.039-0.163 0.132l-2.813 6.966c-0.031 0.093 0.008 0.147 0.101 0.155h0.318c0.070 0 0.124-0.039 0.155-0.116l2.805-6.973c0.023-0.101-0.015-0.163-0.085-0.163z"></path>
<path fill="#fff" d="M22.323 7.81c0.008-0.976-0.116-2.092-1.612-2.1-1.488-0.008-1.565 1.441-1.573 2.076-0.008 0.938 0.023 2.224 1.542 2.231 1.55 0.008 1.643-1.379 1.643-2.208zM20.688 9.437c-0.814-0.008-0.899-0.651-0.899-1.573 0.008-0.86 0.108-1.596 0.914-1.588 0.876 0.008 0.969 0.612 0.961 1.604 0 0.876-0.132 1.557-0.976 1.557z"></path>
</svg>
