<!-- Generated by IcoMoon.io -->
<svg version="1.1" xmlns="http://www.w3.org/2000/svg" width="32" height="32" viewBox="0 0 32 32">
<title>click</title>
<path fill="#fff" d="M31.008 26.251l-3.603-3.928 3.022-2.774c0.411-0.38 0.604-0.93 0.511-1.48s-0.449-1.007-0.961-1.232l-17.17-7.492c-0.372-0.163-0.79-0.178-1.178-0.046-0.217 0.070-0.411 0.186-0.581 0.341-0.48 0.442-0.651 1.116-0.449 1.736l5.982 17.751c0.178 0.527 0.604 0.93 1.147 1.061 0.31 0.077 0.628 0.070 0.93-0.031 0.217-0.070 0.411-0.186 0.581-0.349l3.022-2.774 3.603 3.928c0.318 0.349 0.759 0.535 1.209 0.535 0.178 0 0.356-0.031 0.527-0.085 0.217-0.070 0.411-0.186 0.581-0.349l2.72-2.495c0.674-0.612 0.713-1.65 0.108-2.317zM30.35 27.963l-2.72 2.495c-0.085 0.077-0.186 0.139-0.294 0.17-0.31 0.108-0.651 0.015-0.868-0.225l-3.882-4.23c-0.077-0.085-0.194-0.132-0.302-0.132-0.101 0-0.201 0.039-0.279 0.108l-3.324 3.053c-0.085 0.077-0.186 0.139-0.294 0.17-0.147 0.054-0.31 0.054-0.465 0.015-0.271-0.070-0.48-0.271-0.573-0.535l-5.982-17.751c-0.101-0.31-0.015-0.651 0.225-0.868 0.085-0.077 0.186-0.139 0.294-0.17v0c0.194-0.070 0.403-0.054 0.589 0.023l17.17 7.5c0.256 0.108 0.434 0.341 0.48 0.62s-0.047 0.55-0.256 0.744l-3.324 3.053c-0.077 0.070-0.132 0.178-0.132 0.287-0.008 0.108 0.031 0.217 0.108 0.294l3.882 4.23c0.302 0.325 0.279 0.845-0.054 1.147z"></path>
<path fill="#fff" d="M17.883 5.238c0.047 0.016 0.093 0.023 0.139 0.023 0.163 0 0.325-0.101 0.387-0.271l1.216-3.277c0.077-0.209-0.031-0.449-0.24-0.527s-0.449 0.031-0.527 0.24l-1.216 3.277c-0.077 0.225 0.031 0.457 0.24 0.535z"></path>
<path fill="#fff" d="M12.769 4.796c0.023 0 0.046 0 0.070-0.008 0.225-0.039 0.372-0.248 0.333-0.473l-0.589-3.479c-0.039-0.225-0.248-0.372-0.473-0.333s-0.372 0.248-0.333 0.473l0.589 3.479c0.039 0.201 0.209 0.341 0.403 0.341z"></path>
<path fill="#fff" d="M6.051 3.611c-0.147-0.17-0.403-0.201-0.573-0.054s-0.201 0.403-0.054 0.573l2.262 2.727c0.077 0.101 0.201 0.147 0.318 0.147 0.093 0 0.186-0.031 0.263-0.093 0.17-0.147 0.201-0.403 0.054-0.573l-2.27-2.727z"></path>
<path fill="#fff" d="M5.106 10.507l-3.332-1.24c-0.209-0.077-0.449 0.031-0.527 0.24s0.031 0.449 0.24 0.527l3.332 1.24c0.046 0.015 0.093 0.023 0.139 0.023 0.163 0 0.325-0.101 0.387-0.271 0.085-0.209-0.023-0.442-0.24-0.519z"></path>
<path fill="#fff" d="M4.401 15.713l-3.494 0.597c-0.225 0.039-0.372 0.248-0.333 0.473 0.031 0.201 0.209 0.341 0.403 0.341 0.023 0 0.046 0 0.070-0.008l3.494-0.597c0.225-0.039 0.372-0.248 0.333-0.473s-0.248-0.372-0.473-0.333z"></path>
</svg>
