<!-- Generated by IcoMoon.io -->
<svg version="1.1" xmlns="http://www.w3.org/2000/svg" width="32" height="32" viewBox="0 0 32 32">
<title>clock</title>
<path fill="#fff" d="M16 0.504c-8.546 0-15.496 6.95-15.496 15.496s6.95 15.496 15.496 15.496 15.496-6.95 15.496-15.496-6.95-15.496-15.496-15.496zM16 30.691c-8.105 0-14.691-6.594-14.691-14.691s6.586-14.691 14.691-14.691 14.691 6.594 14.691 14.691-6.586 14.691-14.691 14.691z"></path>
<path fill="#fff" d="M22.299 15.535h-5.92v-8.391c0-0.225-0.178-0.403-0.403-0.403s-0.403 0.178-0.403 0.403v8.748c0 0.186 0.132 0.333 0.302 0.38 0.062 0.039 0.132 0.062 0.209 0.062h6.222c0.225 0 0.403-0.178 0.403-0.403-0.008-0.217-0.194-0.395-0.411-0.395z"></path>
</svg>
