<!-- Generated by IcoMoon.io -->
<svg version="1.1" xmlns="http://www.w3.org/2000/svg" width="32" height="32" viewBox="0 0 32 32">
<title>close</title>
<path fill="#fff" d="M16 0.504c-8.546 0-15.496 6.95-15.496 15.496s6.95 15.496 15.496 15.496 15.496-6.95 15.496-15.496-6.95-15.496-15.496-15.496zM16 30.691c-8.097 0-14.691-6.594-14.691-14.691 0-8.105 6.594-14.691 14.691-14.691s14.691 6.594 14.691 14.691c0 8.105-6.594 14.691-14.691 14.691z"></path>
<path fill="#fff" d="M22.632 9.368c-0.155-0.155-0.411-0.155-0.566 0l-6.067 6.067-6.013-6.013c-0.155-0.155-0.411-0.155-0.566 0s-0.155 0.411 0 0.566l6.013 6.013-6.067 6.067c-0.155 0.155-0.155 0.411 0 0.566 0.077 0.077 0.178 0.116 0.287 0.116 0.101 0 0.209-0.039 0.287-0.116l6.067-6.067 6.013 6.013c0.077 0.077 0.178 0.116 0.287 0.116 0.101 0 0.209-0.039 0.287-0.116 0.155-0.155 0.155-0.411 0-0.566l-6.013-6.013 6.067-6.067c0.139-0.155 0.139-0.411-0.015-0.566z"></path>
</svg>
