<!-- Generated by IcoMoon.io -->
<svg version="1.1" xmlns="http://www.w3.org/2000/svg" width="32" height="32" viewBox="0 0 32 32">
<title>cloud</title>
<path fill="#fff" d="M24.996 25.569h-19.161c-0.124 0-0.294 0-0.473-0.039-2.72-0.232-4.85-2.557-4.85-5.3 0-2.782 2.1-5.052 4.843-5.3 0.938-4.943 5.23-8.5 10.313-8.5 4.060 0 7.872 2.448 9.561 6.129 3.487 0.139 6.268 3.006 6.268 6.501 0 3.355-2.611 6.199-5.943 6.477-0.17 0.015-0.364 0.031-0.558 0.031v0zM24.996 25.166v0 0zM15.667 7.237c-4.796 0-8.817 3.425-9.577 8.143-0.031 0.194-0.194 0.333-0.387 0.341-2.417 0.077-4.385 2.1-4.385 4.509 0 2.332 1.813 4.308 4.13 4.494 0.016 0 0.031 0 0.046 0.008 0.116 0.023 0.232 0.023 0.341 0.023h19.161c0.17 0 0.333-0.015 0.488-0.031 2.921-0.24 5.207-2.735 5.207-5.672 0-3.146-2.557-5.703-5.703-5.703-0.163 0-0.333-0.093-0.395-0.248-1.511-3.502-5.098-5.865-8.926-5.865z"></path>
</svg>
