<!-- Generated by IcoMoon.io -->
<svg version="1.1" xmlns="http://www.w3.org/2000/svg" width="32" height="32" viewBox="0 0 32 32">
<title>co2</title>
<path fill="#fff" d="M16 0.504c-8.546 0-15.496 6.95-15.496 15.496s6.95 15.496 15.496 15.496 15.496-6.95 15.496-15.496-6.95-15.496-15.496-15.496zM16 30.652c-8.081 0-14.652-6.57-14.652-14.652s6.57-14.652 14.652-14.652 14.652 6.57 14.652 14.652-6.57 14.652-14.652 14.652z"></path>
<path fill="#fff" d="M12.707 9.863c-0.752-0.294-1.984-0.372-2.541-0.372-3.068 0-3.603 2.41-3.603 4.912 0 2.456 0.628 4.711 3.603 4.711 0.55 0 1.875-0.101 2.557-0.38 0.186-0.070 0.186-0.17 0.155-0.31l-0.070-0.372c-0.031-0.101-0.085-0.201-0.287-0.17-0.682 0.085-1.488 0.201-2.355 0.201-2.084 0-2.441-1.774-2.441-3.673 0-2.069 0.24-3.874 2.441-3.874 0.837 0 1.743 0.116 2.371 0.201 0.186 0.031 0.24-0.054 0.271-0.155l0.085-0.395c0.031-0.139 0.015-0.24-0.186-0.325z"></path>
<path fill="#fff" d="M17.263 9.484c-3.247 0-3.618 2.921-3.618 4.68 0 2.239 0.287 4.967 3.603 4.967 3.378 0 3.688-2.727 3.688-4.967 0.008-2.301-0.434-4.68-3.673-4.68zM17.255 18.139c-1.999 0-2.472-1.534-2.472-3.835 0-2.371 0.581-3.859 2.472-3.859 2.015 0 2.58 1.387 2.58 3.859 0 2.402-0.542 3.835-2.58 3.835z"></path>
<path fill="#fff" d="M25.027 21.958h-2.65l-0.015-0.008c0.93-0.876 1.309-1.232 1.929-1.867 0.535-0.566 0.752-0.891 0.752-1.635 0-0.899-0.418-1.441-1.836-1.441-0.325 0-1.054 0.039-1.488 0.217-0.116 0.047-0.124 0.108-0.108 0.178l0.047 0.232c0.015 0.054 0.047 0.108 0.155 0.093 0.364-0.047 0.899-0.116 1.387-0.116 1.061 0 1.185 0.287 1.185 0.945 0 0.457-0.248 0.798-0.612 1.154-0.457 0.465-0.659 0.659-0.829 0.821-0.271 0.279-1.333 1.302-1.333 1.302-0.054 0.054-0.093 0.124-0.093 0.225v0.38c0 0.085 0.023 0.116 0.116 0.116h3.394c0.077 0 0.116-0.039 0.116-0.108v-0.364c0.008-0.101-0.039-0.124-0.116-0.124z"></path>
</svg>
