<!-- Generated by IcoMoon.io -->
<svg version="1.1" xmlns="http://www.w3.org/2000/svg" width="32" height="32" viewBox="0 0 32 32">
<title>coach</title>
<path fill="#fff" d="M10.917 20.060c-0.86 0-1.557 0.697-1.557 1.557s0.697 1.557 1.557 1.557 1.557-0.697 1.557-1.557-0.697-1.557-1.557-1.557zM10.917 22.447c-0.449 0-0.821-0.364-0.821-0.821s0.364-0.821 0.821-0.821c0.449 0 0.821 0.364 0.821 0.821s-0.364 0.821-0.821 0.821z"></path>
<path fill="#fff" d="M7.81 20.525c-0.604 0-1.1 0.496-1.1 1.1s0.496 1.1 1.1 1.1 1.1-0.496 1.1-1.1-0.488-1.1-1.1-1.1zM7.81 21.982c-0.201 0-0.356-0.163-0.356-0.356s0.163-0.356 0.356-0.356 0.356 0.163 0.356 0.356-0.155 0.356-0.356 0.356z"></path>
<path fill="#fff" d="M20.943 20.060c-0.86 0-1.557 0.697-1.557 1.557s0.697 1.557 1.557 1.557 1.557-0.697 1.557-1.557-0.697-1.557-1.557-1.557zM20.943 22.447c-0.449 0-0.821-0.364-0.821-0.821s0.364-0.821 0.821-0.821c0.449 0 0.821 0.364 0.821 0.821s-0.372 0.821-0.821 0.821z"></path>
<path fill="#fff" d="M24.050 20.525c-0.604 0-1.1 0.496-1.1 1.1s0.496 1.1 1.1 1.1 1.1-0.496 1.1-1.1-0.488-1.1-1.1-1.1zM24.050 21.982c-0.201 0-0.356-0.163-0.356-0.356s0.163-0.356 0.356-0.356c0.201 0 0.356 0.163 0.356 0.356s-0.155 0.356-0.356 0.356z"></path>
<path fill="#fff" d="M31.124 8.562h-0.558v-1.875c0-0.201-0.163-0.372-0.372-0.372h-2.131v-1.573c0-1.72-1.395-3.115-3.115-3.115h-17.906c-1.72 0-3.115 1.395-3.115 3.115v1.573h-2.123c-0.201 0-0.372 0.163-0.372 0.372v1.867h-0.558c-0.201 0-0.372 0.163-0.372 0.372v4.478c0 0.201 0.163 0.372 0.372 0.372h1.86c0.201 0 0.372-0.163 0.372-0.372v-4.478c0-0.201-0.163-0.372-0.372-0.372h-0.558v-1.495h1.759v16.62c0 1.72 1.395 3.115 3.115 3.115h2.053v1.751c0 1.123 0.62 1.821 1.612 1.821h1.062c0.976 0 1.689-0.767 1.689-1.821v-0.752c0-0.201-0.163-0.372-0.372-0.372s-0.372 0.163-0.372 0.372v0.752c0 0.519-0.294 1.077-0.945 1.077h-1.062c-0.573 0-0.868-0.364-0.868-1.077v-1.751h12.676v1.751c0 0.713-0.294 1.077-0.868 1.077h-1.061c-0.651 0-0.945-0.558-0.945-1.077v-0.752c0-0.201-0.163-0.372-0.372-0.372s-0.372 0.163-0.372 0.372v0.752c0 1.054 0.705 1.821 1.689 1.821h1.061c0.992 0 1.612-0.697 1.612-1.821v-1.751h1.689c1.72 0 3.115-1.395 3.115-3.115v-16.62h1.759v1.495h-0.558c-0.201 0-0.372 0.163-0.372 0.372v4.478c0 0.201 0.163 0.372 0.372 0.372h1.86c0.201 0 0.372-0.163 0.372-0.372v-4.478c-0.008-0.201-0.17-0.364-0.38-0.364zM2.363 13.040h-1.116v-3.742h1.116v3.742zM4.672 8.012h22.648v9.724h-22.648v-9.724zM4.672 4.742c0-1.309 1.061-2.371 2.371-2.371h17.906c1.309 0 2.371 1.062 2.371 2.371v2.526h-22.648v-2.526zM24.957 26.057h-17.914c-1.309 0-2.371-1.061-2.371-2.371v-5.207h22.648v5.207c0.008 1.302-1.061 2.371-2.363 2.371zM30.753 13.040h-1.116v-3.742h1.116v3.742z"></path>
<path fill="#fff" d="M6.501 6.276h8.531c0.201 0 0.372-0.163 0.372-0.372v-1.898c0-0.201-0.163-0.372-0.372-0.372h-8.531c-0.201 0-0.372 0.163-0.372 0.372v1.898c0 0.201 0.163 0.372 0.372 0.372zM6.865 4.378h7.787v1.154h-7.787v-1.154z"></path>
</svg>
