<!-- Generated by IcoMoon.io -->
<svg version="1.1" xmlns="http://www.w3.org/2000/svg" width="32" height="32" viewBox="0 0 32 32">
<title>coffee-01</title>
<path fill="#fff" d="M6.811 18.386c0.225 0 0.418-0.163 0.442-0.395 0.643-5.23 1.774-9.755 2.107-11.010 0.062-0.24-0.077-0.48-0.318-0.55-0.062-0.016-0.124-0.016-0.186-0.008v-0.008c-3.231 0.333-5.679 3.037-5.679 6.299 0 2.371 1.302 4.517 3.409 5.61v0c0.008 0 0.008 0.008 0.016 0.008v0c0.046 0.023 0.093 0.047 0.147 0.047 0.023 0.008 0.046 0.008 0.062 0.008zM4.076 12.715c0-2.58 1.79-4.757 4.254-5.3-0.434 1.728-1.302 5.47-1.875 9.794-1.48-1.007-2.379-2.673-2.379-4.494z"></path>
<path fill="#fff" d="M28.785 21.029h-0.628v-1.441c0-0.248-0.201-0.449-0.449-0.449h-1.953c-0.186-3.456-0.496-6.408-0.945-8.856 0.225-0.612 1.418-3.804 2.231-5.966 0.054-0.139 0.031-0.294-0.054-0.411-0.085-0.124-0.217-0.194-0.364-0.194h-4.099c-6.601-4.571-11.638-0.759-12.529 0h-0.225c-0.101-0.008-0.124 0-0.17 0h-0.093c-4.967 0-9.003 4.037-9.003 9.003 0 3.634 2.224 6.927 5.563 8.314-0.24 3.401-0.132 6.384 0.349 9.096 0.039 0.217 0.225 0.372 0.442 0.372h15.675c2.549 0 4.703-1.705 5.385-4.037h0.86c1.495 0 2.72-1.216 2.72-2.72 0-1.495-1.216-2.712-2.712-2.712zM24.469 8.639c-0.372-1.619-0.821-2.968-1.34-4.029h2.844c-0.721 1.929-1.193 3.192-1.503 4.029zM20.835 3.711h-9.321c1.619-1 5.021-2.371 9.321 0zM1.395 12.715c0-4.471 3.642-8.105 8.112-8.105 0.070 0 0.108 0 0.132 0s0.039 0 0.101 0v0c0.008 0 0.008 0 0.008 0h12.374c1.418 2.611 2.363 7.624 2.727 14.536h-10.615c-0.248 0-0.449 0.201-0.449 0.449v5.292c0 0.589 0.093 1.162 0.263 1.697h-7.144c-0.108-1.798-0.085-3.719 0.077-5.811 0.016-0.201-0.108-0.38-0.294-0.449v-0.008c-3.161-1.17-5.292-4.223-5.292-7.601zM7.237 29.606c-0.116-0.69-0.201-1.402-0.263-2.131h7.462c0.457 0.868 1.131 1.596 1.945 2.131h-9.143zM22.532 29.606h-3.13c-2.603 0-4.719-2.115-4.719-4.719v-4.843h12.575v4.843c0 0.047-0.008 0.085-0.008 0.132 0 0.132-0.008 0.271-0.023 0.403 0 0.023-0.008 0.039-0.008 0.062-0.015 0.139-0.039 0.279-0.070 0.418-0.473 2.107-2.363 3.704-4.618 3.704zM28.777 25.569h-0.674c0-0.008 0-0.023 0-0.031 0.015-0.155 0.031-0.318 0.031-0.48 0-0.023 0.008-0.047 0.008-0.070 0-0.015 0-0.054 0-0.077 0-0.008 0-0.015 0-0.023v-2.96h0.628c1.007 0 1.821 0.814 1.821 1.821s-0.806 1.821-1.813 1.821z"></path>
</svg>
