<!-- Generated by IcoMoon.io -->
<svg version="1.1" xmlns="http://www.w3.org/2000/svg" width="32" height="32" viewBox="0 0 32 32">
<title>coffee-02</title>
<path fill="#fff" d="M8.469 17.922c-0.232 0-0.426 0.194-0.426 0.426s0.194 0.426 0.426 0.426h11.467c0.232 0 0.426-0.194 0.426-0.426s-0.194-0.426-0.426-0.426h-11.467z"></path>
<path fill="#fff" d="M7.152 16.263c-0.31-2.1-1.116-6.919-1.263-7.609-0.016-0.077-0.016-0.139 0-0.17s0.070-0.046 0.093-0.054h1.178l1.294 8.407c0.031 0.209 0.209 0.364 0.426 0.364h10.607c0.209 0 0.387-0.155 0.418-0.356l0.837-5.277c0 0 0.008 0 0.008-0.008l3.967-5.106c0.101-0.132 0.116-0.302 0.047-0.449s-0.217-0.24-0.387-0.24h-3.084c-2.084-1.495-4.533-2.293-7.090-2.293-2.565 0-5.013 0.798-7.097 2.293h-3.401c-0.372 0-0.589 0.155-0.713 0.294-0.271 0.302-0.248 0.697-0.24 0.798 0.062 0.38 1.449 9.251 1.511 9.608 0.046 0.287 0.194 1.147 1.162 1.147h0.635c0.38 0 0.674-0.116 0.868-0.349 0.209-0.248 0.287-0.581 0.225-1zM19.115 16.341h-9.871l-1.495-9.724h12.916l-1.55 9.724zM21.021 9.817l0.511-3.2h1.976l-2.487 3.2zM19.704 5.765h-11.002c1.681-0.938 3.556-1.441 5.501-1.441s3.82 0.504 5.501 1.441zM6.284 16.697c-0.016 0.015-0.077 0.047-0.225 0.047h-0.635c-0.155 0-0.248 0-0.318-0.434-0.062-0.349-1.495-9.499-1.503-9.561 0-0.046 0.015-0.108 0.023-0.124 0.008 0 0.031-0.016 0.085-0.016h3.177l0.147 0.953h-1.085c-0.016 0-0.039 0-0.054 0-0.046 0.008-0.449 0.070-0.697 0.411-0.116 0.163-0.232 0.434-0.147 0.845 0.139 0.666 0.953 5.524 1.255 7.562 0.023 0.201 0 0.294-0.023 0.318z"></path>
<path fill="#fff" d="M14.117 3.084c0.713 0 1.294-0.581 1.294-1.294s-0.581-1.294-1.294-1.294-1.294 0.581-1.294 1.294c0.008 0.713 0.589 1.294 1.294 1.294zM14.117 1.356c0.24 0 0.434 0.194 0.434 0.434s-0.194 0.434-0.434 0.434-0.434-0.194-0.434-0.434c0-0.232 0.194-0.434 0.434-0.434z"></path>
<path fill="#fff" d="M26.762 22.834h-0.558v-1.294c0-0.232-0.194-0.426-0.426-0.426h-5.71l-0.163-1.077c-0.031-0.209-0.209-0.364-0.426-0.364h-10.6c-0.209 0-0.395 0.155-0.426 0.364l-1.627 10.971c-0.016 0.124 0.016 0.248 0.101 0.341 0.077 0.093 0.201 0.147 0.325 0.147h13.916c0.008 0 0.023-0.008 0.031-0.008 2.27-0.054 4.176-1.588 4.796-3.673h0.767c1.379 0 2.495-1.116 2.495-2.495s-1.123-2.487-2.495-2.487zM7.74 30.644l1.511-10.111h9.871l0.093 0.581h-5.703c-0.232 0-0.426 0.194-0.426 0.426v4.819c0 1.79 0.922 3.363 2.309 4.285h-7.655zM21.067 30.644h-2.851c-2.363 0-4.285-1.922-4.285-4.285v-4.393h11.413v4.393c0 0.047-0.008 0.101-0.008 0.147 0 0.108-0.008 0.225-0.023 0.333 0 0.031-0.008 0.054-0.015 0.085-0.015 0.116-0.031 0.24-0.062 0.356-0.411 1.914-2.123 3.363-4.169 3.363zM26.754 26.964h-0.589c0-0.008 0-0.015 0-0.023 0.015-0.124 0.023-0.248 0.023-0.38 0-0.031 0.008-0.070 0.008-0.108 0-0.015 0-0.077 0-0.101v-2.673h0.558c0.907 0 1.643 0.736 1.643 1.643s-0.736 1.643-1.643 1.643z"></path>
</svg>
