<!-- Generated by IcoMoon.io -->
<svg version="1.1" xmlns="http://www.w3.org/2000/svg" width="32" height="32" viewBox="0 0 32 32">
<title>command-page-02</title>
<path fill="#fff" d="M29.652 1.782h-27.305c-1.015 0-1.844 0.829-1.844 1.852v18.766c0 1.015 0.829 1.844 1.844 1.844h9.244v1.565c0 0.271-0.155 0.79-0.31 1.015l-0.759 1.139c-0.325 0.496-0.38 1.061-0.132 1.519s0.744 0.736 1.34 0.736h8.531c0.589 0 1.093-0.271 1.34-0.736 0.248-0.457 0.194-1.030-0.132-1.519l-0.759-1.139c-0.147-0.225-0.302-0.744-0.302-1.015v-1.565h9.244c1.015 0 1.844-0.829 1.844-1.844v-18.766c0-1.023-0.829-1.852-1.844-1.852zM2.348 2.751h27.297c0.488 0 0.883 0.395 0.883 0.883v14.807h-29.063v-14.807c0-0.488 0.403-0.883 0.883-0.883zM19.913 27.359l0.759 1.139c0.077 0.116 0.186 0.333 0.085 0.535-0.108 0.194-0.349 0.225-0.488 0.225h-8.531c-0.139 0-0.387-0.031-0.488-0.225s0.008-0.418 0.085-0.535l0.759-1.139c0.256-0.38 0.465-1.085 0.465-1.55v-1.565h6.88v1.565c0 0.457 0.217 1.17 0.473 1.55zM29.652 23.283h-27.305c-0.488 0-0.883-0.395-0.883-0.883v-2.991h29.063v2.991c0.008 0.488-0.395 0.883-0.876 0.883z"></path>
<path fill="#fff" d="M16.852 21.548c0 0.471-0.382 0.852-0.852 0.852s-0.852-0.382-0.852-0.852c0-0.471 0.382-0.852 0.852-0.852s0.852 0.382 0.852 0.852z"></path>
<path fill="#fff" d="M13.265 16.186c0.093 0.101 0.225 0.155 0.356 0.155 0.116 0 0.232-0.039 0.325-0.132l5.098-4.726c0.186-0.178 0.294-0.403 0.294-0.651s-0.101-0.473-0.294-0.651l-5.098-4.726c-0.194-0.178-0.496-0.17-0.682 0.023-0.178 0.194-0.17 0.504 0.023 0.682l5.036 4.672-5.036 4.672c-0.186 0.178-0.201 0.48-0.023 0.682z"></path>
</svg>
