<!-- Generated by IcoMoon.io -->
<svg version="1.1" xmlns="http://www.w3.org/2000/svg" width="32" height="32" viewBox="0 0 32 32">
<title>community-support</title>
<path fill="#fff" d="M31.117 23.485h-7.795l-1.96-1.108c-0.015-0.008-0.031-0.015-0.054-0.023-0.047-0.015-0.139-0.047-0.248-0.047-0.186 0-0.364 0.070-0.511 0.194-0.015 0.015-0.031 0.031-0.047 0.047l-2.448 3.27 0.736-1.805c0.047-0.116 0.031-0.248-0.039-0.356s-0.186-0.17-0.318-0.17h-1.216v-1.945c0.426-0.070 0.984-0.24 1.395-0.659 0.767-0.767 0.705-2.015 0.705-2.069-0.008-0.194-0.163-0.349-0.356-0.356-0.047 0-0.992-0.047-1.743 0.442v-1.55c0.426-0.070 0.984-0.248 1.395-0.659 0.767-0.767 0.705-2.015 0.705-2.069-0.008-0.194-0.163-0.349-0.356-0.356-0.047 0-0.992-0.046-1.743 0.442v-1.092c0-0.682-0.558-1.24-1.24-1.24s-1.24 0.558-1.24 1.24v2.774c-0.752-0.488-1.697-0.442-1.743-0.442-0.194 0.008-0.349 0.163-0.356 0.356 0 0.054-0.062 1.302 0.705 2.069 0.411 0.411 0.969 0.589 1.395 0.659v1.55c-0.752-0.488-1.697-0.442-1.743-0.442-0.194 0.008-0.349 0.163-0.356 0.356 0 0.054-0.062 1.302 0.705 2.069 0.411 0.411 0.969 0.589 1.395 0.659v0.271h-1.216c-0.124 0-0.248 0.062-0.318 0.17s-0.085 0.24-0.039 0.356l0.783 1.906-2.921-3.27-0.077-0.093c-0.015-0.015-0.031-0.031-0.046-0.047-0.147-0.124-0.325-0.194-0.511-0.194-0.101 0-0.186 0.023-0.256 0.047-0.015 0.008-0.031 0.015-0.054 0.023l-1.945 1.093h-7.252c-0.209 0-0.38 0.17-0.38 0.38v4.107c0 0.209 0.17 0.38 0.38 0.38h30.233c0.209 0 0.38-0.17 0.38-0.38v-4.107c0-0.209-0.17-0.38-0.38-0.38zM30.737 27.591h-29.474v-3.339h6.966c0.062 0 0.132-0.015 0.186-0.047l1.929-1.093 0.062-0.015 3.161 3.541c0.070 0.077 0.178 0.124 0.287 0.124h0.697c0.124 0 0.248-0.062 0.318-0.17s0.085-0.24 0.039-0.356l-0.814-1.984h1.030c0.209 0 0.38-0.17 0.38-0.38v-0.984c0-0.201-0.155-0.364-0.356-0.38-0.318-0.023-0.899-0.108-1.263-0.48-0.318-0.31-0.426-0.783-0.465-1.108 0.325 0.039 0.798 0.147 1.116 0.465 0.093 0.093 0.178 0.209 0.248 0.356 0.077 0.155 0.256 0.24 0.426 0.201s0.294-0.194 0.294-0.372v-2.875c0-0.201-0.155-0.364-0.356-0.38-0.31-0.023-0.899-0.108-1.263-0.48-0.318-0.318-0.426-0.783-0.465-1.116 0.325 0.039 0.798 0.147 1.116 0.465 0.093 0.093 0.178 0.209 0.248 0.356 0.077 0.155 0.256 0.24 0.426 0.201s0.294-0.194 0.294-0.372v-3.758c0-0.263 0.217-0.48 0.48-0.48s0.48 0.217 0.48 0.48v2.084c0 0.178 0.124 0.333 0.294 0.372s0.349-0.039 0.426-0.201c0.070-0.139 0.155-0.263 0.248-0.356 0.318-0.318 0.783-0.426 1.116-0.465-0.039 0.325-0.147 0.798-0.465 1.116-0.372 0.364-0.953 0.457-1.263 0.48-0.201 0.015-0.356 0.178-0.356 0.38v2.875c0 0.178 0.124 0.333 0.294 0.372s0.349-0.039 0.426-0.201c0.070-0.139 0.155-0.263 0.248-0.356 0.318-0.318 0.783-0.426 1.116-0.465-0.039 0.325-0.147 0.798-0.465 1.116-0.372 0.372-0.953 0.457-1.263 0.48-0.201 0.015-0.356 0.178-0.356 0.38v2.642c0 0.209 0.17 0.38 0.38 0.38h1.030l-0.814 1.991c-0.047 0.116-0.031 0.248 0.039 0.356s0.186 0.17 0.318 0.17h0.697c0.124 0 0.232-0.054 0.302-0.155l2.58-3.471 0.054-0.062 1.984 1.116c0.054 0.031 0.124 0.047 0.186 0.047h7.516v3.355z"></path>
<path fill="#fff" d="M11.77 7.531c0.519 0 1.007-0.201 1.371-0.566 0.759-0.759 0.759-1.991 0-2.751s-1.991-0.759-2.751 0-0.759 1.991 0 2.751c0.372 0.364 0.86 0.566 1.379 0.566zM10.94 4.757c0.225-0.225 0.519-0.349 0.837-0.349s0.612 0.124 0.837 0.349c0.457 0.457 0.457 1.209 0 1.674-0.449 0.449-1.224 0.449-1.666 0-0.473-0.465-0.473-1.216-0.008-1.674z"></path>
<path fill="#fff" d="M4.060 23.314h1.519c0.24 0 0.465-0.093 0.635-0.263s0.263-0.395 0.263-0.635v-9.197l2.146-2.146c0.535 1.48 1.565 2.758 2.952 3.587 0.062 0.039 0.124 0.054 0.194 0.054 0.132 0 0.256-0.070 0.325-0.186 0.108-0.178 0.046-0.411-0.132-0.519-1.34-0.798-2.309-2.069-2.743-3.533l1.232-1.232c0.17-0.17 0.263-0.395 0.263-0.635s-0.093-0.465-0.263-0.635l-1.062-1.077c-0.349-0.349-0.914-0.349-1.271 0l-4.083 4.083c-0.008 0.008-0.008 0.008-0.008 0.015v0c0 0 0 0 0 0.008-0.55 0.55-0.852 1.286-0.852 2.069v0 9.36c0 0.24 0.093 0.465 0.263 0.635 0.155 0.155 0.38 0.248 0.62 0.248zM5.679 22.516c-0.016 0.015-0.046 0.039-0.093 0.039h-1.519c-0.046 0-0.077-0.023-0.093-0.039s-0.039-0.047-0.039-0.093v-9.36c0-0.449 0.139-0.876 0.395-1.24l1.395 1.395v9.205c-0.008 0.047-0.031 0.077-0.046 0.093zM8.662 7.431c0.054-0.054 0.139-0.054 0.194 0l1.077 1.077c0.031 0.031 0.039 0.077 0.039 0.093s-0.008 0.062-0.039 0.093l-0.891 0.891c-0.039-0.279-0.062-0.55-0.062-0.837 0-0.209-0.17-0.38-0.38-0.38s-0.38 0.17-0.38 0.38c0 0.504 0.062 1.007 0.17 1.488l-2.286 2.286-1.263-1.263 3.82-3.828z"></path>
<path fill="#fff" d="M20.23 7.531c0.519 0 1.007-0.201 1.371-0.566 0.759-0.759 0.759-1.991 0-2.743-0.364-0.364-0.852-0.566-1.371-0.566s-1.007 0.201-1.371 0.566c-0.759 0.759-0.759 1.991 0 2.743 0.364 0.364 0.852 0.566 1.371 0.566zM19.394 4.75c0.225-0.225 0.519-0.349 0.837-0.349s0.612 0.124 0.837 0.349c0.457 0.457 0.457 1.209 0 1.674-0.449 0.449-1.224 0.449-1.674 0-0.457-0.465-0.457-1.209 0-1.674z"></path>
<path fill="#fff" d="M21.284 8.6c0 0.24 0.093 0.465 0.263 0.635l1.232 1.232c-0.434 1.457-1.402 2.735-2.743 3.533-0.178 0.108-0.24 0.341-0.132 0.519 0.070 0.116 0.201 0.186 0.325 0.186 0.070 0 0.132-0.015 0.194-0.054 1.387-0.821 2.417-2.107 2.952-3.587l2.146 2.146v9.205c0 0.24 0.093 0.465 0.263 0.635s0.395 0.263 0.635 0.263v0h1.519c0.496 0 0.899-0.403 0.899-0.899v-9.36c0-0.783-0.302-1.519-0.86-2.069v0 0c0 0-0.008-0.008-0.008-0.015l-4.083-4.083c-0.17-0.17-0.395-0.263-0.635-0.263v0c-0.24 0-0.465 0.093-0.635 0.263l-1.077 1.077c-0.163 0.17-0.256 0.395-0.256 0.635zM28.079 13.056v9.36c0 0.077-0.062 0.132-0.132 0.132h-1.519c-0.047 0-0.077-0.023-0.093-0.039s-0.039-0.047-0.039-0.093v-9.197l1.395-1.395c0.248 0.356 0.387 0.783 0.387 1.232v0zM22.082 8.508l1.069-1.077c0.031-0.031 0.077-0.039 0.093-0.039 0.023 0 0.062 0.008 0.093 0.039l3.828 3.828-1.263 1.263-2.286-2.286c0.108-0.488 0.17-0.984 0.17-1.488 0-0.209-0.17-0.38-0.38-0.38s-0.38 0.17-0.38 0.38c0 0.279-0.023 0.558-0.062 0.837l-0.883-0.891c-0.031-0.031-0.039-0.077-0.039-0.093 0-0.023 0-0.062 0.039-0.093z"></path>
</svg>
