<!-- Generated by IcoMoon.io -->
<svg version="1.1" xmlns="http://www.w3.org/2000/svg" width="32" height="32" viewBox="0 0 32 32">
<title>company</title>
<path fill="#fff" d="M29.854 14.884l-11.398-5.191v-8.732c0-0.248-0.201-0.457-0.457-0.457h-15.667c-0.248 0-0.457 0.201-0.457 0.457v30.078c0 0.248 0.201 0.457 0.457 0.457h27.328c0.248 0 0.457-0.201 0.457-0.457v-15.744c0.008-0.178-0.101-0.341-0.263-0.411zM2.789 1.418h14.753v29.172h-4.788v-5.749c0-0.248-0.201-0.457-0.457-0.457h-4.261c-0.248 0-0.457 0.201-0.457 0.457v5.749h-4.788v-29.172zM11.847 30.582h-3.347v-5.292h3.347v5.292zM29.211 30.582h-10.754v-19.89l10.754 4.897v14.993z"></path>
<path fill="#fff" d="M4.92 4.866h3.797c0.248 0 0.457-0.201 0.457-0.457 0-0.248-0.201-0.457-0.457-0.457h-3.797c-0.248 0-0.457 0.201-0.457 0.457s0.209 0.457 0.457 0.457z"></path>
<path fill="#fff" d="M4.92 8.91h3.797c0.248 0 0.457-0.201 0.457-0.457s-0.201-0.457-0.457-0.457h-3.797c-0.248 0-0.457 0.201-0.457 0.457s0.209 0.457 0.457 0.457z"></path>
<path fill="#fff" d="M4.92 12.955h3.797c0.248 0 0.457-0.201 0.457-0.457 0-0.248-0.201-0.457-0.457-0.457h-3.797c-0.248 0-0.457 0.201-0.457 0.457s0.209 0.457 0.457 0.457z"></path>
<path fill="#fff" d="M4.92 17h3.797c0.248 0 0.457-0.201 0.457-0.457 0-0.248-0.201-0.457-0.457-0.457h-3.797c-0.248 0-0.457 0.201-0.457 0.457s0.209 0.457 0.457 0.457z"></path>
<path fill="#fff" d="M20.664 18.131h2.092c0.248 0 0.457-0.201 0.457-0.457 0-0.248-0.201-0.457-0.457-0.457h-2.092c-0.248 0-0.457 0.201-0.457 0.457 0 0.248 0.201 0.457 0.457 0.457z"></path>
<path fill="#fff" d="M24.903 18.131h2.092c0.248 0 0.457-0.201 0.457-0.457 0-0.248-0.201-0.457-0.457-0.457h-2.092c-0.248 0-0.457 0.201-0.457 0.457 0 0.248 0.209 0.457 0.457 0.457z"></path>
<path fill="#fff" d="M20.664 23.957h2.092c0.248 0 0.457-0.201 0.457-0.457s-0.201-0.457-0.457-0.457h-2.092c-0.248 0-0.457 0.201-0.457 0.457s0.201 0.457 0.457 0.457z"></path>
<path fill="#fff" d="M24.903 23.957h2.092c0.248 0 0.457-0.201 0.457-0.457s-0.201-0.457-0.457-0.457h-2.092c-0.248 0-0.457 0.201-0.457 0.457s0.209 0.457 0.457 0.457z"></path>
<path fill="#fff" d="M20.664 21.044h2.092c0.248 0 0.457-0.201 0.457-0.457s-0.201-0.457-0.457-0.457h-2.092c-0.248 0-0.457 0.201-0.457 0.457s0.201 0.457 0.457 0.457z"></path>
<path fill="#fff" d="M24.903 21.044h2.092c0.248 0 0.457-0.201 0.457-0.457s-0.201-0.457-0.457-0.457h-2.092c-0.248 0-0.457 0.201-0.457 0.457s0.209 0.457 0.457 0.457z"></path>
<path fill="#fff" d="M22.756 25.964h-2.092c-0.248 0-0.457 0.201-0.457 0.457 0 0.248 0.201 0.457 0.457 0.457h2.092c0.248 0 0.457-0.201 0.457-0.457 0-0.248-0.209-0.457-0.457-0.457z"></path>
<path fill="#fff" d="M24.903 26.878h2.092c0.248 0 0.457-0.201 0.457-0.457 0-0.248-0.201-0.457-0.457-0.457h-2.092c-0.248 0-0.457 0.201-0.457 0.457s0.209 0.457 0.457 0.457z"></path>
<path fill="#fff" d="M8.717 21.044c0.248 0 0.457-0.201 0.457-0.457s-0.201-0.457-0.457-0.457h-3.797c-0.248 0-0.457 0.201-0.457 0.457s0.201 0.457 0.457 0.457h3.797z"></path>
<path fill="#fff" d="M11.475 4.866h3.797c0.248 0 0.457-0.201 0.457-0.457 0-0.248-0.201-0.457-0.457-0.457h-3.797c-0.248 0-0.457 0.201-0.457 0.457s0.201 0.457 0.457 0.457z"></path>
<path fill="#fff" d="M11.475 8.91h3.797c0.248 0 0.457-0.201 0.457-0.457s-0.201-0.457-0.457-0.457h-3.797c-0.248 0-0.457 0.201-0.457 0.457s0.201 0.457 0.457 0.457z"></path>
<path fill="#fff" d="M11.475 12.955h3.797c0.248 0 0.457-0.201 0.457-0.457 0-0.248-0.201-0.457-0.457-0.457h-3.797c-0.248 0-0.457 0.201-0.457 0.457s0.201 0.457 0.457 0.457z"></path>
<path fill="#fff" d="M11.475 17h3.797c0.248 0 0.457-0.201 0.457-0.457 0-0.248-0.201-0.457-0.457-0.457h-3.797c-0.248 0-0.457 0.201-0.457 0.457s0.201 0.457 0.457 0.457z"></path>
<path fill="#fff" d="M11.475 21.044h3.797c0.248 0 0.457-0.201 0.457-0.457s-0.201-0.457-0.457-0.457h-3.797c-0.248 0-0.457 0.201-0.457 0.457s0.201 0.457 0.457 0.457z"></path>
</svg>
