<!-- Generated by IcoMoon.io -->
<svg version="1.1" xmlns="http://www.w3.org/2000/svg" width="32" height="32" viewBox="0 0 32 32">
<title>connected-person</title>
<path fill="#fff" d="M16 10.979c2.859 0 5.184-2.324 5.184-5.184s-2.324-5.184-5.184-5.184-5.184 2.324-5.184 5.184 2.324 5.184 5.184 5.184zM16 1.619c2.309 0 4.184 1.875 4.184 4.176 0 2.309-1.875 4.184-4.184 4.184s-4.184-1.875-4.184-4.184c0-2.301 1.875-4.176 4.184-4.176z"></path>
<path fill="#fff" d="M29.366 20.3c-0.047-0.232-0.256-0.403-0.488-0.403h-2.425v-1.867c0-3.564-2.797-6.361-6.361-6.361h-7.942c-3.634 0-6.594 2.851-6.594 6.361v1.867h-2.425c-0.24 0-0.442 0.17-0.488 0.403l-2.131 10.483c-0.031 0.147 0.008 0.302 0.101 0.418s0.24 0.186 0.387 0.186h29.993c0.147 0 0.294-0.070 0.387-0.186s0.132-0.271 0.101-0.418l-2.115-10.483zM6.555 18.038c0-2.952 2.51-5.362 5.594-5.362h7.926c3.006 0 5.362 2.355 5.362 5.362v1.867h-1.658l0.333-2.89c0.015-0.139-0.031-0.287-0.124-0.387-0.093-0.108-0.232-0.17-0.372-0.17h-15.241c-0.139 0-0.279 0.062-0.372 0.17s-0.139 0.248-0.124 0.387l0.333 2.89h-1.658v-1.867zM8.941 17.449h14.117l-0.341 2.913c0 0.015-0.008 0.023-0.008 0.039v0.008l-0.604 5.199h-12.219l-0.945-8.159zM1.612 30.381l1.922-9.484h4.796l0.612 5.261c0.031 0.256 0.24 0.442 0.496 0.442h13.118c0.256 0 0.465-0.194 0.496-0.442l0.612-5.261h4.796l1.922 9.484h-28.769z"></path>
</svg>
