<!-- Generated by IcoMoon.io -->
<svg version="1.1" xmlns="http://www.w3.org/2000/svg" width="32" height="32" viewBox="0 0 32 32">
<title>connected</title>
<path fill="#fff" d="M16 8.066c1.286 0 2.332-1.046 2.332-2.332s-1.046-2.332-2.332-2.332-2.332 1.046-2.332 2.332 1.046 2.332 2.332 2.332zM16 4.176c0.86 0 1.557 0.697 1.557 1.565s-0.697 1.565-1.557 1.565-1.557-0.697-1.557-1.565 0.697-1.565 1.557-1.565z"></path>
<path fill="#fff" d="M27.010 5.106c1.015 0 1.844-0.829 1.844-1.844s-0.829-1.844-1.844-1.844c-1.015 0-1.844 0.829-1.844 1.844-0.008 1.015 0.821 1.844 1.844 1.844zM27.010 2.185c0.597 0 1.077 0.48 1.077 1.077s-0.48 1.077-1.077 1.077c-0.597 0-1.077-0.48-1.077-1.077s0.48-1.077 1.077-1.077z"></path>
<path fill="#fff" d="M31.496 20.393c0-0.953-1.147-1.596-2.588-1.891v-5.772h0.364c0.496 0 0.79-0.201 0.953-0.364 0.364-0.38 0.356-0.899 0.356-0.938v-3.928c0-0.635-0.186-1.139-0.55-1.495-0.542-0.535-1.286-0.519-1.302-0.519h-3.432c-0.031 0-0.767-0.008-1.309 0.519-0.364 0.356-0.55 0.86-0.55 1.495v3.913c0 0.054-0.008 0.573 0.356 0.953 0.163 0.17 0.457 0.364 0.953 0.364h0.364v5.772c-1.24 0.256-2.255 0.767-2.518 1.511h-4.184v-2.038h0.62c0.488 0 0.883-0.147 1.17-0.449 0.449-0.465 0.442-1.108 0.442-1.162v-5.23c0-0.806-0.232-1.449-0.697-1.906-0.682-0.666-1.612-0.659-1.643-0.659h-4.571c-0.039 0-0.969-0.015-1.65 0.659-0.465 0.457-0.697 1.092-0.697 1.906v5.215c0 0.070-0.015 0.705 0.434 1.178 0.287 0.294 0.682 0.449 1.17 0.449h0.62v2.038h-4.184c-0.263-0.744-1.286-1.255-2.518-1.511v-5.772h0.364c0.496 0 0.79-0.201 0.953-0.364 0.364-0.38 0.356-0.899 0.356-0.938v-3.928c0-0.635-0.186-1.139-0.55-1.495-0.542-0.535-1.286-0.519-1.302-0.519h-3.44c-0.031 0-0.767-0.008-1.309 0.519-0.364 0.356-0.55 0.86-0.55 1.495v3.913c0 0.054-0.008 0.573 0.356 0.953 0.163 0.17 0.457 0.364 0.953 0.364h0.364v5.772c-1.441 0.294-2.588 0.938-2.588 1.891 0 1.356 2.317 2.084 4.486 2.084 0.039 0 0.077 0 0.116 0l5.346 3.936c-0.938 0.411-1.526 0.953-1.526 1.627 0 1.674 3.618 2.549 7.198 2.549s7.198-0.876 7.198-2.549c0-0.674-0.589-1.216-1.526-1.627l5.346-3.936c2.123-0.031 4.347-0.759 4.347-2.084zM24.74 11.955c-0.178 0-0.31-0.039-0.387-0.124-0.116-0.124-0.147-0.325-0.139-0.411v-3.921c0-0.418 0.108-0.728 0.318-0.938 0.302-0.302 0.744-0.302 0.767-0.302v0h3.44c0.008 0 0.457 0 0.759 0.302 0.209 0.209 0.318 0.527 0.318 0.938v3.936c0 0 0 0.248-0.139 0.387-0.085 0.085-0.217 0.132-0.395 0.132h-0.752c-0.217 0-0.387 0.17-0.387 0.387v6.95c0.008 0.070-0.015 0.364-0.178 0.542-0.108 0.116-0.263 0.17-0.488 0.17h-0.922c-0.217 0-0.38-0.054-0.488-0.163-0.163-0.17-0.186-0.449-0.178-0.566v-6.927c0-0.217-0.17-0.387-0.387-0.387l-0.759-0.008zM25.104 19.277c-0.008 0.139 0.008 0.682 0.387 1.085 0.178 0.186 0.504 0.411 1.054 0.411h0.922c0.55 0 0.876-0.225 1.054-0.411 0.403-0.426 0.387-1.015 0.387-1.085 1.154 0.263 1.813 0.736 1.813 1.108 0 0.55-1.418 1.309-3.719 1.309s-3.719-0.767-3.719-1.309c0.008-0.372 0.674-0.845 1.821-1.108zM12.978 17.193c-0.279 0-0.473-0.070-0.612-0.209-0.232-0.232-0.225-0.612-0.225-0.628v-5.23c0-0.589 0.155-1.046 0.457-1.348 0.442-0.434 1.069-0.442 1.108-0.442v0h4.587c0.023 0 0.651 0 1.093 0.434 0.31 0.302 0.465 0.759 0.465 1.348v5.238c0 0 0.008 0.38-0.225 0.62-0.139 0.139-0.341 0.209-0.612 0.209h-1c-0.217 0-0.387 0.17-0.387 0.387v9.259c0 0.008 0.015 0.511-0.271 0.821-0.17 0.178-0.411 0.263-0.744 0.263h-1.232c-0.333 0-0.573-0.085-0.744-0.263-0.294-0.31-0.271-0.821-0.271-0.845v-9.228c0-0.217-0.17-0.387-0.387-0.387h-1zM2.727 11.955c-0.178 0-0.31-0.039-0.395-0.124-0.124-0.124-0.147-0.325-0.139-0.403v-3.928c0-0.418 0.108-0.728 0.318-0.938 0.302-0.302 0.744-0.302 0.767-0.302v0h3.44c0.008 0 0.457 0 0.759 0.302 0.209 0.209 0.318 0.527 0.318 0.938v3.936c0 0.070-0.023 0.271-0.139 0.395-0.085 0.085-0.209 0.124-0.387 0.124h-0.759c-0.217 0-0.387 0.17-0.387 0.387v6.95c0.008 0.070-0.016 0.364-0.178 0.542-0.108 0.116-0.263 0.17-0.488 0.17h-0.922c-0.217 0-0.38-0.054-0.488-0.163-0.163-0.17-0.186-0.449-0.178-0.566v-6.927c0-0.217-0.17-0.387-0.387-0.387l-0.752-0.008zM1.278 20.393c0-0.372 0.666-0.845 1.813-1.108-0.008 0.139 0.008 0.682 0.387 1.085 0.178 0.186 0.504 0.411 1.054 0.411h0.922c0.55 0 0.876-0.225 1.054-0.411 0.403-0.426 0.387-1.015 0.387-1.085 1.154 0.263 1.813 0.736 1.813 1.108 0 0.55-1.418 1.309-3.719 1.309s-3.711-0.767-3.711-1.309zM6.292 22.384c1.495-0.201 2.813-0.752 3.115-1.612h4.184v4.858c-0.821 0.101-1.596 0.256-2.27 0.457l-5.029-3.704zM22.547 28.033c0 0.728-2.503 1.782-6.423 1.782s-6.423-1.054-6.423-1.782c0-0.55 1.464-1.294 3.897-1.619v0.372c0 0.031-0.046 0.837 0.48 1.395 0.318 0.333 0.759 0.504 1.309 0.504h1.232c0.55 0 0.992-0.17 1.309-0.504 0.527-0.558 0.48-1.364 0.48-1.371v-0.426c2.572 0.31 4.138 1.077 4.138 1.65zM18.402 25.608v-4.835h4.192c0.318 0.899 1.751 1.457 3.324 1.635l-4.998 3.68c-0.736-0.217-1.604-0.38-2.518-0.48z"></path>
<path fill="#fff" d="M4.99 5.106c1.015 0 1.844-0.829 1.844-1.844s-0.829-1.844-1.844-1.844-1.844 0.821-1.844 1.844c0 1.015 0.829 1.844 1.844 1.844zM4.99 2.185c0.597 0 1.077 0.48 1.077 1.077s-0.48 1.077-1.077 1.077-1.077-0.48-1.077-1.077c0.008-0.597 0.488-1.077 1.077-1.077z"></path>
</svg>
