<!-- Generated by IcoMoon.io -->
<svg version="1.1" xmlns="http://www.w3.org/2000/svg" width="32" height="32" viewBox="0 0 32 32">
<title>connected-travel</title>
<path fill="#fff" d="M27.041 26.437v0l-5.951-24.438c-0.155-0.62-0.86-1.046-1.472-0.899l-14.171 3.448c-0.333 0.077-0.604 0.287-0.775 0.581-0.155 0.271-0.194 0.597-0.124 0.891l5.958 24.438c0.139 0.558 0.635 0.93 1.185 0.93 0.093 0 0.194-0.008 0.287-0.031l14.164-3.448c0.628-0.147 1.054-0.852 0.899-1.472zM6.4 9.337l14.567-3.549 4.060 16.643-14.567 3.549-4.060-16.643zM5.563 5.633c0.031-0.054 0.070-0.085 0.132-0.093l14.164-3.448c0.008 0 0.015 0 0.023 0 0.077 0 0.217 0.085 0.232 0.155l0.628 2.565-14.567 3.549-0.628-2.565c-0.023-0.062-0.016-0.116 0.016-0.163zM25.91 26.925l-14.164 3.448c-0.147 0.039-0.232-0.085-0.248-0.155l-0.79-3.254 14.567-3.549 0.79 3.254c0.015 0.077-0.085 0.24-0.155 0.256z"></path>
<path fill="#fff" d="M19.486 26.515c0.15 0.615-0.227 1.236-0.843 1.386s-1.236-0.227-1.386-0.843c-0.15-0.615 0.227-1.236 0.843-1.386s1.236 0.227 1.386 0.843z"></path>
<path fill="#fff" d="M23.802 24.934l-2.154 0.527c-0.271 0.070-0.442 0.341-0.372 0.612 0.054 0.232 0.263 0.387 0.488 0.387 0.039 0 0.077-0.008 0.124-0.015l2.154-0.527c0.271-0.070 0.442-0.341 0.372-0.612-0.062-0.271-0.341-0.434-0.612-0.372z"></path>
<path fill="#fff" d="M14.846 27.119l-2.154 0.527c-0.271 0.070-0.442 0.341-0.372 0.612 0.054 0.232 0.263 0.387 0.488 0.387 0.039 0 0.077-0.008 0.124-0.015l2.154-0.527c0.271-0.070 0.442-0.341 0.372-0.612-0.062-0.271-0.341-0.442-0.612-0.372z"></path>
<path fill="#fff" d="M11.599 6.137c0.039 0 0.077-0.008 0.124-0.016l3.053-0.744c0.271-0.070 0.442-0.341 0.372-0.612s-0.341-0.434-0.612-0.372l-3.053 0.744c-0.271 0.070-0.442 0.341-0.372 0.612 0.054 0.232 0.256 0.387 0.488 0.387z"></path>
<path fill="#fff" d="M23.5 22.090l-0.581-2.379c-0.147-0.612-0.775-0.992-1.387-0.845l-5.966 1.457c0-0.070-0.008-0.139-0.023-0.209l-0.108-0.442c-0.062-0.24-0.209-0.442-0.418-0.573s-0.465-0.17-0.705-0.108l-1.844 0.449c-0.496 0.124-0.806 0.628-0.682 1.123l0.108 0.442c0.023 0.085 0.062 0.17 0.101 0.248-0.031 0.015-0.062 0.031-0.093 0.054l-0.783-3.223c-0.046-0.194-0.24-0.31-0.434-0.263s-0.31 0.24-0.263 0.434l1.038 4.254 0.581 2.379c0.039 0.163 0.186 0.271 0.349 0.271 0.031 0 0.054 0 0.085-0.008 0.194-0.047 0.31-0.24 0.263-0.434l-0.38-1.55 10.065-2.456 0.38 1.55c0.047 0.194 0.24 0.31 0.434 0.263s0.31-0.24 0.263-0.434zM12.637 20.138l1.844-0.449c0.015-0.008 0.031-0.008 0.046-0.008 0.039 0 0.077 0.008 0.108 0.031 0.046 0.031 0.085 0.077 0.093 0.132l0.108 0.442c0.023 0.108-0.046 0.232-0.155 0.256l-1.844 0.449c-0.054 0.015-0.108 0.008-0.163-0.023-0.046-0.031-0.085-0.077-0.093-0.132l-0.108-0.442c-0.015-0.108 0.054-0.225 0.163-0.256zM12.188 22.47l-0.031-0.132c-0.054-0.232 0.085-0.465 0.318-0.519l9.236-2.247c0.232-0.054 0.465 0.085 0.519 0.318l0.031 0.132-10.073 2.448z"></path>
<path fill="#fff" d="M15.845 12.227l-1.604 2.348-0.008 0.023-1.371 0.147c-0.372 0.085-0.341 0.643 0.031 0.721l1.193 0.248 0.666 1.023c0.209 0.325 0.744 0.147 0.682-0.232v-0.008l-0.364-1.34 0.015-0.015 1.604-2.348 2.224 3.921c0.318-0.039 0.511-0.325 0.434-0.635l-1.302-5.269 1.557-2.278c0.163-0.24 0.108-0.566-0.124-0.721s-0.55-0.093-0.713 0.147l-1.565 2.286-5.385 0.705c-0.318 0.039-0.511 0.325-0.434 0.635l4.463 0.643z"></path>
<path fill="#fff" d="M5.772 2.836c0-0.279-0.225-0.504-0.504-0.504-1.674 0-3.037 1.364-3.037 3.037 0 0.279 0.225 0.504 0.504 0.504s0.504-0.225 0.504-0.504c0-1.116 0.907-2.022 2.022-2.022 0.287 0 0.511-0.232 0.511-0.511z"></path>
<path fill="#fff" d="M5.269 1.619c0.279 0 0.504-0.225 0.504-0.504s-0.225-0.511-0.504-0.511c-2.627 0-4.765 2.139-4.765 4.757 0 0.279 0.225 0.504 0.504 0.504s0.504-0.225 0.504-0.504c0.008-2.061 1.689-3.742 3.758-3.742z"></path>
<path fill="#fff" d="M26.228 29.164c0 0.279 0.225 0.504 0.504 0.504 1.674 0 3.037-1.364 3.037-3.037 0-0.279-0.225-0.504-0.504-0.504s-0.504 0.225-0.504 0.504c0 1.116-0.907 2.022-2.022 2.022-0.287 0-0.511 0.225-0.511 0.511z"></path>
<path fill="#fff" d="M30.993 26.127c-0.279 0-0.504 0.225-0.504 0.504 0 2.069-1.681 3.75-3.75 3.75-0.279 0-0.504 0.225-0.504 0.504s0.225 0.504 0.504 0.504c2.627 0 4.765-2.139 4.765-4.765-0.008-0.271-0.232-0.496-0.511-0.496z"></path>
</svg>
