<!-- Generated by IcoMoon.io -->
<svg version="1.1" xmlns="http://www.w3.org/2000/svg" width="32" height="32" viewBox="0 0 32 32">
<title>contract-ordering</title>
<path fill="#fff" d="M28.831 8.399c0-0.046-0.008-0.085-0.023-0.124-0.008-0.015-0.008-0.031-0.015-0.046-0.023-0.054-0.054-0.101-0.093-0.139l-7.446-7.446c-0.039-0.039-0.085-0.070-0.139-0.093-0.015-0.008-0.031-0.008-0.047-0.015-0.039-0.015-0.085-0.023-0.124-0.023-0.008 0-0.023-0.008-0.031-0.008h-16.597c-0.635 0-1.154 0.519-1.154 1.154v28.684c0 0.635 0.519 1.154 1.154 1.154h23.369c0.635 0 1.154-0.519 1.154-1.154v-21.912c0-0.008-0.008-0.023-0.008-0.031zM21.393 2.154l5.788 5.788h-5.788v-5.788zM27.684 30.528h-23.369c-0.101 0-0.186-0.085-0.186-0.186v-28.684c0-0.101 0.085-0.186 0.186-0.186h16.108v6.958c0 0.263 0.217 0.48 0.48 0.48h6.958v21.431c0.008 0.101-0.077 0.186-0.178 0.186z"></path>
<path fill="#fff" d="M24.167 18.231h-16.457c-0.263 0-0.48 0.217-0.48 0.48s0.217 0.48 0.48 0.48h16.457c0.263 0 0.48-0.217 0.48-0.48 0.008-0.263-0.209-0.48-0.48-0.48z"></path>
<path fill="#fff" d="M24.167 15.527h-16.457c-0.263 0-0.48 0.217-0.48 0.48s0.217 0.48 0.48 0.48h16.457c0.263 0 0.48-0.217 0.48-0.48 0.008-0.263-0.209-0.48-0.48-0.48z"></path>
<path fill="#fff" d="M24.167 12.831h-16.457c-0.263 0-0.48 0.217-0.48 0.48s0.217 0.48 0.48 0.48h16.457c0.263 0 0.48-0.217 0.48-0.48 0.008-0.263-0.209-0.48-0.48-0.48z"></path>
<path fill="#fff" d="M7.709 5.695h8.229c0.263 0 0.48-0.217 0.48-0.48s-0.217-0.48-0.48-0.48h-8.229c-0.263 0-0.48 0.217-0.48 0.48s0.217 0.48 0.48 0.48z"></path>
<path fill="#fff" d="M7.709 8.391h8.229c0.263 0 0.48-0.217 0.48-0.48s-0.217-0.48-0.48-0.48h-8.229c-0.263 0-0.48 0.217-0.48 0.48s0.217 0.48 0.48 0.48z"></path>
<path fill="#fff" d="M24.167 20.936h-16.457c-0.263 0-0.48 0.217-0.48 0.48s0.217 0.48 0.48 0.48h16.457c0.263 0 0.48-0.217 0.48-0.48 0.008-0.263-0.209-0.48-0.48-0.48z"></path>
<path fill="#fff" d="M24.066 25.003c-0.333 0.070-0.876 0.938-1.271 1.666-0.124-0.333-0.248-0.628-0.294-0.705-0.108-0.17-0.318-0.256-0.511-0.209-0.333 0.077-0.496 0.364-1.007 1.511-0.023-0.085-0.054-0.17-0.085-0.263-0.047-0.155-0.085-0.263-0.101-0.294-0.054-0.178-0.147-0.519-0.542-0.566-0.209-0.023-0.364 0.077-0.442 0.139-0.302 0.24-0.48 0.666-0.674 1.108-0.116 0.271-0.271 0.635-0.387 0.736-0.031 0.023-0.139 0.054-0.209 0-0.163-0.124-0.287-0.736 0.387-2.177 0.527-1.139 1.061-1.402 1.271-1.464 0.139-0.039 0.263-0.031 0.349 0.023s0.093 0.093 0.101 0.108c0.015 0.108-0.077 0.31-0.155 0.411-0.163 0.209-0.124 0.511 0.085 0.674s0.511 0.132 0.682-0.077c0.047-0.054 0.449-0.589 0.349-1.17-0.039-0.217-0.163-0.527-0.535-0.767-0.325-0.209-0.728-0.256-1.147-0.132-0.504 0.147-1.24 0.612-1.875 1.984-0.969 2.084-0.589 2.975-0.093 3.347 0.209 0.163 0.449 0.232 0.682 0.232 0.279 0 0.55-0.101 0.728-0.256 0.294-0.24 0.473-0.659 0.659-1.093 0.015-0.047 0.039-0.093 0.062-0.139 0.124 0.372 0.279 0.852 0.31 0.992 0.015 0.17 0.116 0.318 0.271 0.395 0.17 0.085 0.38 0.062 0.527-0.062 0.155-0.132 0.256-0.349 0.612-1.139 0.062-0.139 0.139-0.318 0.217-0.488 0.116 0.31 0.217 0.589 0.232 0.651 0.047 0.201 0.225 0.349 0.434 0.372 0.209 0.015 0.411-0.108 0.488-0.302 0.116-0.271 1-1.875 1.263-2.169 0.17-0.108 0.263-0.31 0.217-0.511-0.077-0.256-0.341-0.418-0.597-0.364z"></path>
</svg>
