<!-- Generated by IcoMoon.io -->
<svg version="1.1" xmlns="http://www.w3.org/2000/svg" width="32" height="32" viewBox="0 0 32 32">
<title>content</title>
<path fill="#fff" d="M8.742 12.376c0.093 0.202 0.004 0.441-0.198 0.534s-0.441 0.004-0.534-0.198c-0.093-0.202-0.004-0.441 0.198-0.534s0.441-0.004 0.534 0.198z"></path>
<path fill="#fff" d="M29.226 2.758l-6.997-2.185c-0.868-0.271-1.79 0.201-2.092 1.054-0.356-0.48-0.945-0.759-1.573-0.682l-7.276 0.969c-0.449 0.062-0.845 0.287-1.116 0.643s-0.395 0.798-0.333 1.247l0.008 0.062c-0.139 0.015-0.279 0.054-0.418 0.108l-6.795 2.774c-0.86 0.349-1.278 1.333-0.922 2.2l1.782 4.378h-0.891c-0.232 0-0.418 0.186-0.418 0.418v15.868c0 1.038 0.845 1.883 1.883 1.883h21.215c1.038 0 1.883-0.845 1.883-1.883v-11.522c0-0.511-0.209-0.984-0.542-1.317l3.719-11.901c0.271-0.891-0.225-1.836-1.116-2.115zM11.398 2.751l7.276-0.969c0.457-0.062 0.891 0.263 0.945 0.728l0.054 0.434c0 0.023 0.015 0.039 0.023 0.062l-0.721 2.309c-0.721-0.294-1.519-0.38-2.464-0.248-0.93 0.124-1.697 0.635-2.115 1.395-0.194 0.349-0.279 0.581-0.349 0.86-1.774 0.612-2.185 1.891-1.953 2.913 0.046 0.194 0.217 0.325 0.411 0.325h0.566c0.232 0 0.418-0.186 0.418-0.418s-0.186-0.418-0.418-0.418h-0.186c0-0.504 0.256-1.263 1.643-1.666 0.147-0.039 0.256-0.163 0.294-0.302 0.077-0.341 0.124-0.511 0.325-0.876 0.294-0.535 0.821-0.876 1.495-0.969 0.829-0.108 1.495-0.046 2.1 0.225l-1.030 3.301-0.767 0.101c-0.232 0.031-0.387 0.24-0.356 0.473 0.031 0.209 0.209 0.364 0.418 0.364 0.015 0 0.039 0 0.054-0.008l0.372-0.054-1.852 5.912h-3.223l-1.681-12.529c-0.062-0.465 0.263-0.891 0.721-0.945zM11.111 14.040c0-0.008 0-0.008-0.008-0.015l-1.333-2.968c-0.093-0.209-0.341-0.31-0.558-0.209-0.209 0.093-0.31 0.341-0.209 0.558l1.333 2.968c0 0.008 0.008 0.015 0.015 0.023-0.194 0.085-0.318 0.132-0.356 0.139-0.271 0.077-0.519 0.124-0.775 0.139-0.093 0.008-0.108 0.008-0.325-0.178-0.070-0.062-1.224-1.131-2.007-1.86l1.906-2.433c0.008-0.008 0.031-0.023 0.062-0.039 0.039-0.015 0.062-0.023 0.062-0.023l1.782 0.077 0.504 3.773c-0.031 0.015-0.062 0.031-0.093 0.046zM6.756 9.616c-0.093-0.209-0.008-0.457 0.201-0.55l2.185-1.007c0.209-0.093 0.457 0 0.55 0.201l0.504 1.1-1.247-0.054c-0.186-0.015-0.364 0.062-0.449 0.101s-0.256 0.132-0.364 0.279l-0.868 1.108-0.511-1.178zM10.584 9.375v0 0 0zM2.495 8.631c-0.178-0.434 0.031-0.922 0.465-1.1l6.795-2.766c0.070-0.031 0.139-0.046 0.209-0.054l0.403 3.037c-0.333-0.504-1-0.713-1.565-0.449l-0.643 0.294-0.294-0.69c-0.093-0.209-0.341-0.31-0.55-0.217-0.217 0.093-0.31 0.341-0.217 0.55l0.302 0.705-0.783 0.364c-0.302 0.139-0.535 0.387-0.651 0.705s-0.101 0.659 0.031 0.953l0.697 1.573-0.558 0.713c-0.209 0.271-0.178 0.666 0.070 0.907 0.349 0.318 2.076 1.922 2.146 1.984 0.217 0.186 0.449 0.387 0.845 0.387 0.031 0 0.054 0 0.085 0 0.318-0.023 0.62-0.077 0.953-0.17 0.194-0.054 0.682-0.279 0.829-0.341 0.054-0.023 0.147-0.070 0.256-0.116l0.178 1.34h-4.285c-0.023 0-0.046-0.015-0.062-0.039l-1.534-2.65c-0.077-0.132-0.217-0.209-0.364-0.209h-0.852l-1.906-4.711zM26.313 29.606c0 0.573-0.465 1.038-1.038 1.038h-21.207c-0.573 0-1.038-0.465-1.038-1.038v-15.442h1.984l1.41 2.441c0.163 0.279 0.465 0.457 0.79 0.457h8.639c0.031 0 0.062 0.008 0.085 0h9.337c0.573 0 1.038 0.465 1.038 1.038v11.506zM29.536 4.626l-3.657 11.7c-0.186-0.062-0.387-0.108-0.597-0.108h-8.833l4.471-14.288c0.139-0.442 0.612-0.697 1.061-0.55l6.997 2.185c0.442 0.139 0.69 0.612 0.558 1.061z"></path>
<path fill="#fff" d="M24.143 8.283l0.876-2.805c0.070-0.225-0.054-0.457-0.279-0.527-0.217-0.070-0.457 0.054-0.527 0.279l-0.922 2.968-3.51 1.062c-0.225 0.070-0.349 0.302-0.279 0.527s0.302 0.349 0.527 0.279l2.96-0.899-0.628 2.007-1.077 0.333c-0.225 0.070-0.349 0.302-0.279 0.527s0.302 0.349 0.527 0.279l0.527-0.163-0.047 0.163c-0.070 0.225 0.054 0.457 0.279 0.527 0.039 0.015 0.085 0.015 0.124 0.015 0.178 0 0.349-0.116 0.403-0.294l0.023-0.070 0.155 0.31c0.077 0.147 0.225 0.232 0.372 0.232 0.062 0 0.132-0.015 0.186-0.046 0.209-0.101 0.287-0.356 0.186-0.566l-0.542-1.077 0.635-2.038 1.953 2.735c0.085 0.116 0.209 0.178 0.341 0.178 0.085 0 0.17-0.023 0.24-0.077 0.186-0.132 0.232-0.395 0.101-0.589l-2.324-3.27z"></path>
<path fill="#fff" d="M16.139 10.321c0 0.608-0.493 1.1-1.1 1.1s-1.1-0.493-1.1-1.1c0-0.608 0.493-1.1 1.1-1.1s1.1 0.493 1.1 1.1z"></path>
<path fill="#fff" d="M16.31 7.74c0.023 0 0.047 0 0.070-0.008l1.325-0.225c0.232-0.039 0.38-0.256 0.341-0.488-0.039-0.225-0.248-0.38-0.488-0.341l-1.325 0.225c-0.232 0.039-0.38 0.256-0.341 0.488 0.039 0.209 0.217 0.349 0.418 0.349z"></path>
</svg>
