<!-- Generated by IcoMoon.io -->
<svg version="1.1" xmlns="http://www.w3.org/2000/svg" width="32" height="32" viewBox="0 0 32 32">
<title>content-management</title>
<path fill="#fff" d="M29.714 11.057v-1.937c0-0.008-0.008-0.023-0.008-0.031 0-0.046-0.008-0.085-0.023-0.132-0.008-0.015-0.008-0.031-0.015-0.046-0.023-0.054-0.054-0.101-0.093-0.139l-6.555-6.555c0 0 0 0-0.008 0-0.039-0.039-0.085-0.070-0.139-0.093-0.015-0.008-0.031-0.008-0.047-0.015-0.039-0.015-0.085-0.023-0.132-0.023-0.008 0-0.023-0.008-0.031-0.008h-19.301c-0.597 0-1.085 0.488-1.085 1.085v4.238h-1.286c-0.271 0-0.488 0.217-0.488 0.488v19.735c0 1.271 1.038 2.309 2.309 2.309h26.383c1.271 0 2.309-1.038 2.309-2.309v-14.326c-0.008-1.085-0.767-1.999-1.79-2.239zM23.159 3.75l4.881 4.881h-4.881v-4.881zM3.27 3.154c0-0.054 0.046-0.101 0.101-0.101h18.813v6.067c0 0.271 0.217 0.488 0.488 0.488h6.067v1.379h-8.236v-4.672c0-0.271-0.217-0.488-0.488-0.488s-0.488 0.217-0.488 0.488v4.68h-1.581v-4.68c0-0.271-0.217-0.488-0.488-0.488s-0.488 0.217-0.488 0.488v4.68h-1.581v-4.68c0-0.271-0.217-0.488-0.488-0.488s-0.488 0.217-0.488 0.488v4.68h-7.694c-0.046 0-0.085-0.023-0.108-0.062l-1.906-3.293c-0.085-0.155-0.248-0.248-0.426-0.248h-1.007v-4.238zM30.512 27.622c0 0.728-0.597 1.325-1.325 1.325h-26.375c-0.728 0-1.325-0.597-1.325-1.325v-19.247h2.518l1.767 3.053c0.194 0.341 0.566 0.55 0.953 0.55h22.47c0.728 0 1.325 0.597 1.325 1.325v14.319h-0.008z"></path>
</svg>
