<!-- Generated by IcoMoon.io -->
<svg version="1.1" xmlns="http://www.w3.org/2000/svg" width="32" height="32" viewBox="0 0 32 32">
<title>control</title>
<path fill="#fff" d="M27.901 27.591l0.015-3.812c0-0.023-0.008-0.047-0.015-0.070 0-0.047 0-0.093-0.008-0.139l-1.007-9.399c-0.201-1.875-1.774-3.285-3.657-3.285h-4.92v-2.348c1.278-0.752 2.146-2.139 2.146-3.727 0-2.379-1.937-4.316-4.316-4.316s-4.316 1.937-4.316 4.316c0 1.588 0.868 2.975 2.146 3.719v2.348h-5.215c-1.883 0-3.456 1.41-3.657 3.285l-0.992 9.406c-0.016 0.163-0.023 0.318-0.016 0.48 0 0.008-0.008 0.015-0.008 0.031l0.023 4.107c0 0.008 0.008 0.015 0.008 0.023s0 0.015 0 0.023c0.201 1.86 1.774 3.27 3.649 3.27h16.488c1.038 0 2.038-0.442 2.735-1.216 0.535-0.597 0.86-1.356 0.922-2.139 0-0.008 0-0.008 0-0.015v-0.039c0.008-0.17 0.008-0.341-0.008-0.504zM15.481 20.726h1.34c0.829 0 1.503-0.674 1.503-1.503v-1.666c0.535 0.449 0.837 1.054 0.837 1.705 0 1.356-1.348 2.464-3.006 2.464s-3.006-1.1-3.006-2.464c0-0.643 0.302-1.247 0.837-1.705v1.666c-0.008 0.837 0.666 1.503 1.495 1.503zM12.637 4.819c0-1.937 1.573-3.51 3.51-3.51s3.51 1.573 3.51 3.51-1.573 3.51-3.51 3.51-3.51-1.573-3.51-3.51zM16.147 9.135c0.48 0 0.938-0.085 1.371-0.225v7.872c0 0.008 0 0.015 0 0.023v2.425c0 0.387-0.318 0.697-0.697 0.697h-1.34c-0.387 0-0.697-0.318-0.697-0.697v-10.321c0.426 0.139 0.883 0.225 1.364 0.225zM4.897 23.655l1.007-9.399c0.155-1.464 1.387-2.565 2.859-2.565h5.215v4.897c-1.015 0.604-1.635 1.604-1.635 2.673 0 1.798 1.712 3.262 3.812 3.262s3.804-1.464 3.804-3.262c0-1.069-0.628-2.069-1.635-2.673v-4.897h4.92c1.472 0 2.704 1.1 2.859 2.565l1.007 9.399c0.008 0.101 0.015 0.201 0.015 0.302v0.008c0 0.705-0.263 1.395-0.736 1.922-0.542 0.604-1.325 0.953-2.139 0.953h-16.496c-0.814 0-1.596-0.349-2.139-0.953-0.542-0.612-0.806-1.426-0.721-2.231zM26.383 29.745c-0.542 0.604-1.325 0.953-2.139 0.953h-16.488c-1.464 0-2.689-1.093-2.851-2.534l-0.008-1.906c0.046 0.054 0.085 0.108 0.132 0.163 0.697 0.775 1.689 1.216 2.735 1.216h16.488c1.038 0 2.038-0.442 2.735-1.216 0.047-0.054 0.085-0.108 0.132-0.163l-0.008 1.216c0 0.015-0.008 0.031-0.008 0.047 0 0.023 0 0.047 0 0.070v0.511c-0.062 0.597-0.31 1.178-0.721 1.643z"></path>
</svg>
