<!-- Generated by IcoMoon.io -->
<svg version="1.1" xmlns="http://www.w3.org/2000/svg" width="32" height="32" viewBox="0 0 32 32">
<title>conversion-attribution</title>
<path fill="#fff" d="M25.67 9.507c-0.008-0.008-0.008-0.008-0.008-0.015l-2.681-2.681c-0.155-0.155-0.411-0.155-0.573 0-0.155 0.155-0.155 0.411 0 0.573l1.991 1.991h-2.216c-3.634 0-6.594 2.96-6.594 6.594v0.077c0 3.184-2.596 5.78-5.78 5.78h-3.184c-0.225 0-0.403 0.178-0.403 0.403s0.178 0.403 0.403 0.403h3.192c3.634 0 6.594-2.96 6.594-6.594v-0.077c0-3.184 2.596-5.78 5.78-5.78h2.216l-1.991 1.991c-0.155 0.155-0.155 0.411 0 0.573 0.077 0.077 0.186 0.116 0.287 0.116s0.209-0.039 0.287-0.116l2.681-2.681c0.008-0.008 0.008-0.008 0.008-0.015 0.031-0.031 0.062-0.070 0.077-0.116 0.039-0.101 0.039-0.209 0-0.31-0.023-0.046-0.054-0.085-0.085-0.116z"></path>
<path fill="#fff" d="M6.625 10.181h3.192c1.906 0 3.68 0.938 4.765 2.503 0.077 0.116 0.201 0.178 0.333 0.178 0.077 0 0.163-0.023 0.232-0.070 0.186-0.124 0.232-0.38 0.101-0.566-1.232-1.79-3.262-2.851-5.431-2.851h-3.192c-0.225 0-0.403 0.178-0.403 0.403s0.178 0.403 0.403 0.403z"></path>
<path fill="#fff" d="M25.747 22.067c-0.015-0.047-0.047-0.085-0.077-0.116-0.008-0.008-0.008-0.008-0.008-0.015l-2.681-2.681c-0.155-0.155-0.411-0.155-0.573 0-0.155 0.155-0.155 0.411 0 0.573l1.991 1.991h-2.216c-1.976 0-3.797-0.992-4.866-2.658-0.124-0.186-0.372-0.24-0.558-0.124-0.186 0.124-0.24 0.372-0.124 0.558 1.224 1.891 3.293 3.022 5.54 3.022h2.216l-1.991 1.991c-0.155 0.155-0.155 0.411 0 0.573 0.077 0.077 0.186 0.116 0.287 0.116s0.209-0.039 0.287-0.116l2.681-2.681c0.008-0.008 0.008-0.008 0.008-0.015 0.031-0.031 0.062-0.070 0.077-0.116 0.054-0.093 0.054-0.201 0.008-0.302z"></path>
<path fill="#fff" d="M16 0.504c-8.546 0-15.496 6.95-15.496 15.496s6.95 15.496 15.496 15.496 15.496-6.95 15.496-15.496-6.95-15.496-15.496-15.496zM16 30.691c-8.097 0-14.691-6.586-14.691-14.691s6.594-14.691 14.691-14.691 14.691 6.586 14.691 14.691-6.594 14.691-14.691 14.691z"></path>
</svg>
