<!-- Generated by IcoMoon.io -->
<svg version="1.1" xmlns="http://www.w3.org/2000/svg" width="32" height="32" viewBox="0 0 32 32">
<title>conversion-rate</title>
<path fill="#fff" d="M29.753 3.649c-0.008 0-0.008 0-0.015 0-0.217 0-0.395 0.17-0.403 0.387l-0.139 3.82c-2.82-4.54-7.857-7.353-13.203-7.353-5.431 0-10.538 2.898-13.335 7.554-0.116 0.186-0.054 0.434 0.139 0.55 0.186 0.116 0.434 0.054 0.55-0.139 2.696-4.486 7.423-7.167 12.653-7.167 5.145 0 9.801 2.596 12.521 6.958l-3.58-0.132c-0.008 0-0.008 0-0.015 0-0.217 0-0.395 0.17-0.403 0.387s0.163 0.403 0.387 0.411l4.657 0.17c0.008 0 0.008 0 0.015 0 0.217 0 0.395-0.17 0.403-0.387l0.17-4.657c-0.015-0.209-0.186-0.395-0.403-0.403z"></path>
<path fill="#fff" d="M29.211 23.392c-0.186-0.116-0.434-0.054-0.55 0.139-2.696 4.486-7.423 7.167-12.653 7.167-5.145 0-9.801-2.596-12.521-6.958l3.58 0.132c0.201 0 0.403-0.163 0.411-0.387 0.008-0.217-0.163-0.403-0.387-0.411l-4.649-0.17c-0.108 0-0.209 0.031-0.287 0.108-0.077 0.070-0.124 0.17-0.124 0.279l-0.17 4.657c-0.008 0.217 0.163 0.403 0.387 0.411 0.008 0 0.008 0 0.015 0 0.217 0 0.395-0.17 0.403-0.387l0.139-3.82c2.82 4.54 7.857 7.353 13.203 7.353 5.431 0 10.538-2.898 13.342-7.554 0.108-0.201 0.047-0.442-0.139-0.558z"></path>
<path fill="#fff" d="M18.952 10.189h-0.535c-0.155 0-0.201 0.062-0.271 0.217l-4.695 11.615c-0.054 0.155 0.015 0.248 0.163 0.256h0.535c0.116 0 0.201-0.062 0.256-0.201l4.68-11.638c0.054-0.147-0.015-0.248-0.132-0.248z"></path>
<path fill="#fff" d="M17.333 18.301c-0.008 1.557 0.047 3.704 2.572 3.719 2.58 0.015 2.727-2.293 2.735-3.688 0.008-1.627-0.194-3.487-2.696-3.502-2.479-0.008-2.611 2.402-2.611 3.471zM19.944 15.775c1.457 0.008 1.619 1.015 1.612 2.673-0.008 1.472-0.232 2.611-1.643 2.603-1.356-0.008-1.503-1.085-1.495-2.619 0.008-1.449 0.186-2.665 1.526-2.658z"></path>
<path fill="#fff" d="M12.382 10.7c-2.479-0.015-2.611 2.394-2.619 3.471-0.008 1.557 0.046 3.704 2.572 3.719 2.58 0.015 2.727-2.293 2.735-3.688 0.015-1.627-0.194-3.487-2.689-3.502zM12.343 16.914c-1.356-0.008-1.503-1.085-1.495-2.627 0.008-1.441 0.186-2.665 1.526-2.658 1.457 0.008 1.619 1.015 1.612 2.673-0.008 1.488-0.232 2.619-1.643 2.611z"></path>
</svg>
