<!-- Generated by IcoMoon.io -->
<svg version="1.1" xmlns="http://www.w3.org/2000/svg" width="32" height="32" viewBox="0 0 32 32">
<title>conversion</title>
<path fill="#fff" d="M28.537 15.458c0-3.626-2.859-6.594-6.439-6.795v-7.787c0-0.008 0-0.008 0-0.015 0-0.023-0.008-0.046-0.015-0.070s-0.008-0.046-0.023-0.070v-0.008c-0.008-0.015-0.023-0.023-0.031-0.039-0.015-0.023-0.031-0.046-0.047-0.062s-0.039-0.031-0.062-0.039c-0.023-0.015-0.039-0.023-0.062-0.031s-0.054-0.015-0.085-0.015c-0.015 0-0.031-0.008-0.047-0.008h-17.898c-0.209 0-0.372 0.17-0.372 0.372v30.249c0 0.209 0.17 0.372 0.372 0.372s0.372-0.17 0.372-0.372v-29.892h15.954l-7.547 3.804c-0.124 0.062-0.209 0.194-0.209 0.333v9.701h-4.432l1.922-1.922c0.147-0.147 0.147-0.38 0-0.527s-0.38-0.147-0.527 0l-2.565 2.565c-0.031 0.031-0.062 0.077-0.077 0.124s-0.031 0.093-0.031 0.139v0 0c0 0.046 0.008 0.101 0.031 0.139 0.016 0.039 0.039 0.077 0.070 0.108 0 0.008 0.008 0.008 0.008 0.015l2.58 2.557c0.070 0.070 0.17 0.108 0.263 0.108s0.194-0.039 0.263-0.108c0.147-0.147 0.147-0.38 0-0.527l-1.922-1.922h4.432v10.406c0 0.139 0.077 0.263 0.194 0.325l8.949 4.881c0.008 0 0.015 0.008 0.023 0.008 0.008 0.008 0.023 0.008 0.031 0.015 0.039 0.015 0.085 0.023 0.124 0.023v0 0 0c0.047 0 0.085-0.008 0.124-0.023 0.008-0.008 0.023-0.008 0.031-0.015 0.039-0.015 0.070-0.039 0.101-0.070 0 0 0.008 0 0.008-0.008 0.023-0.023 0.047-0.054 0.062-0.085 0-0.008 0-0.008 0.008-0.015 0.008-0.023 0.015-0.047 0.023-0.070s0.015-0.047 0.015-0.070c0-0.008 0-0.015 0-0.015v-8.872c3.58-0.194 6.431-3.161 6.431-6.795zM13.156 5.617l8.198-4.138v7.19c-3.456 0.186-6.23 2.96-6.415 6.415h-1.782v-9.468zM13.156 15.837h1.782c0.186 3.456 2.96 6.23 6.415 6.415v8.244l-8.198-4.478v-10.181zM21.726 21.524c-3.347 0-6.067-2.72-6.067-6.067 0-3.339 2.72-6.059 6.059-6.067v0 0c3.339 0 6.059 2.72 6.059 6.067 0.015 3.347-2.704 6.067-6.051 6.067z"></path>
<path fill="#fff" d="M24.5 12.653l-3.789 5.524-1.612-2.317c-0.116-0.17-0.349-0.209-0.519-0.093s-0.209 0.349-0.093 0.519l1.922 2.766c0.070 0.101 0.186 0.163 0.31 0.163v0c0.124 0 0.24-0.062 0.31-0.163l4.099-5.974c0.116-0.17 0.070-0.403-0.101-0.519-0.178-0.124-0.411-0.077-0.527 0.093z"></path>
</svg>
