<!-- Generated by IcoMoon.io -->
<svg version="1.1" xmlns="http://www.w3.org/2000/svg" width="32" height="32" viewBox="0 0 32 32">
<title>cost-down</title>
<path fill="#fff" d="M30.915 29.040h-26.933c-0.775 0-1.379-0.217-1.79-0.635-0.69-0.705-0.666-1.79-0.666-1.813v-24.019c0-0.279-0.232-0.511-0.511-0.511s-0.511 0.232-0.511 0.511v24.004c0 0.062-0.039 1.519 0.945 2.541 0.612 0.635 1.464 0.953 2.534 0.953h26.933c0.279 0 0.511-0.232 0.511-0.511s-0.232-0.519-0.511-0.519z"></path>
<path fill="#fff" d="M17.286 8.43c0.372 0 1.263-0.070 1.72-0.256 0.124-0.046 0.124-0.116 0.108-0.209l-0.047-0.248c-0.023-0.070-0.054-0.132-0.194-0.116-0.457 0.054-1.007 0.132-1.588 0.132-1.41 0-1.65-1.201-1.65-2.479 0-1.395 0.163-2.611 1.65-2.611 0.566 0 1.178 0.077 1.596 0.132 0.124 0.015 0.163-0.039 0.178-0.108l0.054-0.271c0.015-0.085 0.008-0.155-0.124-0.209-0.511-0.201-1.34-0.248-1.712-0.248-2.069 0-2.433 1.627-2.433 3.316 0.008 1.658 0.426 3.177 2.441 3.177z"></path>
<path fill="#fff" d="M21.757 8.43c1.883 0 1.999-1.371 1.999-2.487 0-1.147-0.232-2.348-1.999-2.348-1.751 0-1.937 1.418-1.937 2.348 0 1.131 0.108 2.487 1.937 2.487zM21.757 4.254c1.054 0 1.255 0.573 1.255 1.751 0 1.201-0.209 1.751-1.255 1.751-0.984 0-1.193-0.581-1.193-1.751-0.008-1.162 0.209-1.751 1.193-1.751z"></path>
<path fill="#fff" d="M26.22 7.795c-0.325 0-0.961-0.054-1.348-0.108-0.116-0.008-0.194 0-0.209 0.124l-0.039 0.201c-0.008 0.085 0.008 0.155 0.108 0.201 0.356 0.163 0.976 0.217 1.464 0.217 0.922 0 1.79-0.356 1.79-1.418 0-1.093-0.775-1.271-1.627-1.41-0.767-0.124-0.984-0.178-0.984-0.659 0-0.496 0.201-0.697 0.922-0.697 0.403 0 0.86 0.054 1.255 0.093 0.147 0.008 0.232 0 0.248-0.108l0.039-0.232c0.015-0.077 0-0.155-0.093-0.201-0.403-0.163-1.061-0.209-1.433-0.209-1.023 0-1.674 0.48-1.674 1.371 0 0.984 0.798 1.185 1.666 1.325 0.759 0.116 0.938 0.24 0.938 0.806-0.015 0.488-0.318 0.705-1.023 0.705z"></path>
<path fill="#fff" d="M31.458 7.841c-0.015-0.108-0.054-0.124-0.209-0.116-0.132 0.008-0.457 0.039-0.558 0.039-0.573 0-0.682-0.116-0.682-0.566v-2.906h1.061c0.132 0 0.163-0.046 0.163-0.163v-0.279c0-0.108-0.031-0.163-0.163-0.163h-1.061v-1.17c0-0.124-0.054-0.17-0.163-0.147l-0.38 0.108c-0.093 0.031-0.163 0.070-0.163 0.178v1.030h-0.535c-0.124 0-0.163 0.054-0.163 0.17v0.271c0 0.116 0.039 0.163 0.163 0.163h0.527v3.123c0 0.612 0.209 1.015 1.030 1.015 0.279 0 0.852-0.070 1.085-0.194 0.070-0.039 0.093-0.085 0.085-0.178l-0.039-0.217z"></path>
<path fill="#fff" d="M24.128 23.314h-3.184c-0.279 0-0.511 0.232-0.511 0.511s0.232 0.511 0.511 0.511h4.416c0.070 0 0.132-0.015 0.194-0.039 0.039-0.015 0.070-0.047 0.108-0.070 0.023-0.015 0.047-0.023 0.062-0.039v0 0c0.047-0.047 0.085-0.108 0.108-0.17s0.031-0.116 0.039-0.178c0-0.008 0-0.008 0-0.015v-4.378c0-0.279-0.232-0.511-0.511-0.511v0c-0.279 0-0.511 0.232-0.511 0.511v3.146l-16.325-16.356c-0.201-0.201-0.527-0.201-0.721 0-0.201 0.201-0.201 0.519 0 0.721l16.325 16.356z"></path>
</svg>
