<!-- Generated by IcoMoon.io -->
<svg version="1.1" xmlns="http://www.w3.org/2000/svg" width="32" height="32" viewBox="0 0 32 32">
<title>counter</title>
<path fill="#fff" d="M29.342 0.504h-26.685c-1.185 0-2.154 0.953-2.154 2.123v26.754c0 1.17 0.969 2.123 2.154 2.123h26.677c1.185 0 2.154-0.953 2.154-2.123v-26.754c0.008-1.17-0.961-2.123-2.146-2.123zM30.396 29.373c0 0.573-0.473 1.038-1.054 1.038h-26.685c-0.581 0-1.054-0.465-1.054-1.038v-26.747c0-0.573 0.473-1.038 1.054-1.038h26.677c0.581 0 1.054 0.465 1.054 1.038v26.747h0.008z"></path>
<path fill="#fff" d="M14.923 22.656v-14.954c0-0.302-0.24-0.542-0.542-0.542h-10.073c-0.302 0-0.542 0.24-0.542 0.542v14.954c0 0.302 0.24 0.542 0.542 0.542h10.073c0.302 0 0.542-0.248 0.542-0.542zM13.846 22.113h-8.988v-13.869h8.988v13.869z"></path>
<path fill="#fff" d="M27.591 7.159h-10.080c-0.302 0-0.542 0.24-0.542 0.542v14.954c0 0.302 0.24 0.542 0.542 0.542h10.073c0.302 0 0.542-0.24 0.542-0.542v-14.954c0-0.294-0.24-0.542-0.535-0.542zM23.733 10.259c0 1.914-0.449 2.286-1.224 2.286s-1.147-0.341-1.147-2.286c0-0.736 0.054-1.596 0.411-2.015h1.573c0.318 0.349 0.387 1.062 0.387 2.015zM27.049 22.113h-3.773v-4.61c0-0.349-0.256-0.604-0.597-0.604h-0.232c-0.070 0-0.194 0-0.31 0.031l-1.054 0.248c-0.279 0.070-0.457 0.302-0.457 0.589v0.085c0 0.325 0.263 0.589 0.597 0.589h0.635v3.673h-3.804v-13.869h2.162c-0.232 0.651-0.271 1.364-0.271 1.922 0 1.216 0 3.75 2.572 3.75 2.642 0 2.642-2.727 2.642-3.75 0-0.666-0.039-1.333-0.225-1.922h2.115v13.869z"></path>
<path fill="#fff" d="M17.511 27.196c0 0.834-0.676 1.511-1.511 1.511s-1.511-0.676-1.511-1.511c0-0.834 0.676-1.511 1.511-1.511s1.511 0.676 1.511 1.511z"></path>
<path fill="#fff" d="M9.313 18.588c2.642 0 2.642-2.727 2.642-3.75 0-1.069 0-3.572-2.642-3.572-1.17 0-2.572 0.62-2.572 3.572 0 1.216 0 3.75 2.572 3.75zM9.313 12.622c0.961 0 1.224 0.496 1.224 2.301 0 1.914-0.449 2.286-1.224 2.286s-1.147-0.341-1.147-2.286c-0.008-1.929 0.418-2.301 1.147-2.301z"></path>
</svg>
