<!-- Generated by IcoMoon.io -->
<svg version="1.1" xmlns="http://www.w3.org/2000/svg" width="32" height="32" viewBox="0 0 32 32">
<title>creativity</title>
<path fill="#fff" d="M28.955 18.495l-2.448-4.68v-1.433c0-6.547-5.331-11.878-11.878-11.878s-11.878 5.331-11.878 11.878c0 3.254 1.286 6.276 3.618 8.531v10.584h14.404v-3.618h2.906c1.557 0 2.828-1.271 2.828-2.828v-3.804h0.79c0.79 0 1.41-0.294 1.728-0.829s0.302-1.216-0.070-1.922zM28.312 19.983c-0.17 0.279-0.527 0.426-1.023 0.426h-1.619v4.641c0 1.1-0.899 1.999-1.999 1.999h-3.735v3.618h-12.738v-10.111l-0.132-0.124c-2.247-2.115-3.487-4.974-3.487-8.050 0-6.090 4.959-11.049 11.049-11.049s11.049 4.959 11.049 11.049v1.635l2.549 4.866c0.217 0.434 0.256 0.821 0.085 1.1z"></path>
<path fill="#fff" d="M14.559 6.516c-1.581 0-2.867 0.744-3.626 2.092-0.876 1.557-0.907 3.773-0.070 5.153 0.883 1.449 0.752 2.394 0.744 2.402l-0.015 0.070 0.628 3.533c0.070 0.372 0.349 0.666 0.705 0.752 0.101 0.426 0.48 0.744 0.938 0.744h1.379c0.457 0 0.837-0.318 0.938-0.744 0.356-0.085 0.643-0.38 0.705-0.752l0.628-3.533-0.015-0.070c0-0.008-0.139-0.945 0.744-2.402 0.837-1.379 0.806-3.587-0.070-5.153-0.744-1.348-2.038-2.092-3.611-2.092zM17.542 13.327c-0.914 1.503-0.899 2.588-0.868 2.898l-0.604 3.394c-0.008 0.054-0.054 0.093-0.108 0.093-0.325 0-0.581 0.263-0.581 0.581 0 0.070-0.062 0.132-0.132 0.132h-1.379c-0.070 0-0.132-0.062-0.132-0.132 0-0.325-0.263-0.581-0.581-0.581-0.054 0-0.101-0.039-0.108-0.093l-0.17-0.969h1.55c0.232 0 0.418-0.186 0.418-0.418s-0.186-0.418-0.418-0.418h-1.697l-0.101-0.558h2.805c0.232 0 0.418-0.186 0.418-0.418s-0.186-0.418-0.418-0.418h-2.96l-0.039-0.209c0.031-0.31 0.046-1.395-0.868-2.898-0.682-1.123-0.643-3.014 0.085-4.308 0.426-0.759 1.278-1.674 2.906-1.674s2.472 0.907 2.906 1.674c0.721 1.309 0.759 3.2 0.077 4.323z"></path>
<path fill="#fff" d="M9.36 9.701l-1.534 0.023c-0.232 0-0.411 0.194-0.411 0.418s0.186 0.411 0.418 0.411h0.008l1.534-0.023c0.232 0 0.411-0.194 0.411-0.418-0.008-0.232-0.201-0.418-0.426-0.411z"></path>
<path fill="#fff" d="M10.065 7.33l-1.294-0.821c-0.194-0.124-0.449-0.062-0.573 0.132s-0.062 0.449 0.132 0.573l1.294 0.814c0.070 0.046 0.147 0.062 0.225 0.062 0.139 0 0.271-0.070 0.349-0.194 0.124-0.186 0.062-0.449-0.132-0.566z"></path>
<path fill="#fff" d="M11.134 5.881c0.077 0.132 0.217 0.201 0.356 0.201 0.070 0 0.147-0.016 0.209-0.054 0.194-0.116 0.263-0.372 0.147-0.566l-0.783-1.317c-0.116-0.201-0.372-0.263-0.566-0.147s-0.263 0.372-0.147 0.566l0.783 1.317z"></path>
<path fill="#fff" d="M21.284 9.724l-1.534-0.023c-0.24-0.008-0.418 0.178-0.418 0.411s0.178 0.418 0.411 0.418l1.542 0.023c0.225 0 0.411-0.186 0.418-0.411-0.008-0.225-0.194-0.418-0.418-0.418z"></path>
<path fill="#fff" d="M20.788 7.214c0.194-0.124 0.256-0.38 0.132-0.573s-0.38-0.256-0.573-0.132l-1.294 0.814c-0.194 0.124-0.256 0.38-0.132 0.573 0.077 0.124 0.217 0.194 0.349 0.194 0.077 0 0.155-0.023 0.225-0.062l1.294-0.814z"></path>
<path fill="#fff" d="M17.41 6.028c0.070 0.039 0.139 0.054 0.209 0.054 0.139 0 0.279-0.070 0.356-0.201l0.783-1.317c0.116-0.194 0.054-0.449-0.147-0.566s-0.449-0.054-0.566 0.147l-0.783 1.317c-0.116 0.194-0.054 0.449 0.147 0.566z"></path>
</svg>
