<!-- Generated by IcoMoon.io -->
<svg version="1.1" xmlns="http://www.w3.org/2000/svg" width="32" height="32" viewBox="0 0 32 32">
<title>cross-reference</title>
<path fill="#fff" d="M31.403 15.644c-0.24-0.294-5.989-7.26-15.155-7.26-9.228 0-15.589 7.392-15.659 7.469-0.124 0.147-0.124 0.356-0.008 0.511 0.054 0.070 5.92 7.268 15.155 7.268 9.228 0 15.589-7.392 15.659-7.469 0.132-0.155 0.132-0.372 0.008-0.519zM15.744 22.818c-7.864 0-13.187-5.455-14.311-6.71 1.193-1.271 6.927-6.935 14.815-6.935 7.919 0 13.18 5.431 14.311 6.71-1.178 1.278-6.919 6.935-14.815 6.935z"></path>
<path fill="#fff" d="M16 12.196c-2.038 0-3.696 1.658-3.696 3.696s1.658 3.696 3.696 3.696 3.696-1.658 3.696-3.696-1.658-3.696-3.696-3.696zM16 18.797c-1.596 0-2.898-1.302-2.898-2.898s1.302-2.898 2.898-2.898 2.898 1.302 2.898 2.898-1.302 2.898-2.898 2.898z"></path>
</svg>
