<!-- Generated by IcoMoon.io -->
<svg version="1.1" xmlns="http://www.w3.org/2000/svg" width="32" height="32" viewBox="0 0 32 32">
<title>cross-device</title>
<path fill="#fff" d="M18.487 20.076c0 0.347-0.281 0.628-0.628 0.628s-0.628-0.281-0.628-0.628c0-0.347 0.281-0.628 0.628-0.628s0.628 0.281 0.628 0.628z"></path>
<path fill="#fff" d="M30.869 12.529h-1.705v-5.617c0-0.705-0.573-1.271-1.271-1.271h-20.060c-0.705 0-1.271 0.573-1.271 1.271v2.828h-4.734c-0.728 0-1.325 0.597-1.325 1.325v13.931c0 0.728 0.597 1.325 1.325 1.325h10.018c0.728 0 1.325-0.597 1.325-1.325v-3.022h1.542v1.232c0 0.217-0.124 0.612-0.24 0.79l-0.558 0.837c-0.225 0.341-0.263 0.721-0.093 1.030 0.17 0.318 0.496 0.496 0.907 0.496h6.268c0.411 0 0.744-0.178 0.907-0.496 0.17-0.318 0.132-0.69-0.093-1.030l-0.558-0.837c-0.116-0.178-0.24-0.573-0.24-0.79v-1.232h1.937v3.766c0 0.349 0.279 0.628 0.628 0.628h7.291c0.325 0 0.628-0.302 0.628-0.628v-12.583c0-0.325-0.302-0.628-0.628-0.628zM13.164 21.431v-3.014h9.786v3.014h-9.786zM23.492 15h7.469v8.539h-7.469v-8.539zM30.954 13.156v1.302h-7.469v-1.302c0-0.031 0.023-0.085 0.085-0.085h7.283c0.047 0 0.101 0.054 0.101 0.085zM7.097 6.911c0-0.403 0.325-0.736 0.736-0.736h20.060c0.403 0 0.736 0.325 0.736 0.736v5.625h-5.052c-0.349 0-0.628 0.279-0.628 0.628v4.726h-9.786v-6.818c0-0.728-0.597-1.325-1.325-1.325h-4.742v-2.836zM12.622 24.996c0 0.434-0.349 0.783-0.783 0.783h-10.011c-0.434 0-0.783-0.349-0.783-0.783v-13.931c0-0.434 0.349-0.783 0.783-0.783h10.018c0.434 0 0.783 0.349 0.783 0.783v13.931h-0.008zM21.369 25.135c0.070 0.101 0.163 0.294 0.070 0.48-0.101 0.186-0.318 0.209-0.434 0.209h-6.268c-0.124 0-0.341-0.023-0.434-0.209-0.101-0.186 0-0.38 0.070-0.48l0.558-0.837c0.178-0.271 0.333-0.767 0.333-1.093v-1.24h5.23v1.24c0 0.325 0.155 0.821 0.333 1.093l0.542 0.837zM30.869 25.825h-7.291c-0.070 0-0.085-0.062-0.085-0.085v-1.658h7.469v1.658c-0.008 0.031-0.062 0.085-0.093 0.085z"></path>
<path fill="#fff" d="M27.7 24.98c0 0.261-0.212 0.473-0.473 0.473s-0.473-0.212-0.473-0.473c0-0.261 0.212-0.473 0.473-0.473s0.473 0.212 0.473 0.473z"></path>
<path fill="#fff" d="M30.086 24.608h-1.108c-0.147 0-0.271 0.124-0.271 0.271s0.124 0.271 0.271 0.271h1.108c0.147 0 0.271-0.124 0.271-0.271-0.008-0.147-0.124-0.271-0.271-0.271z"></path>
<path fill="#fff" d="M25.476 24.608h-1.108c-0.147 0-0.271 0.124-0.271 0.271s0.124 0.271 0.271 0.271h1.108c0.147 0 0.271-0.124 0.271-0.271-0.008-0.147-0.124-0.271-0.271-0.271z"></path>
<path fill="#fff" d="M28.010 13.528h-1.573c-0.147 0-0.271 0.124-0.271 0.271s0.124 0.271 0.271 0.271h1.573c0.147 0 0.271-0.124 0.271-0.271s-0.124-0.271-0.271-0.271z"></path>
<path fill="#fff" d="M10.669 11.994h-7.671c-0.147 0-0.271 0.124-0.271 0.271v11.537c0 0.147 0.124 0.271 0.271 0.271h7.671c0.147 0 0.271-0.124 0.271-0.271v-11.545c0-0.147-0.124-0.263-0.271-0.263zM10.398 23.523h-7.128v-10.995h7.128v10.995z"></path>
<path fill="#fff" d="M7.206 24.98c0 0.21-0.17 0.38-0.38 0.38s-0.38-0.17-0.38-0.38c0-0.21 0.17-0.38 0.38-0.38s0.38 0.17 0.38 0.38z"></path>
<path fill="#fff" d="M5.71 11.452h2.239c0.147 0 0.271-0.124 0.271-0.271s-0.124-0.271-0.271-0.271h-2.239c-0.147 0-0.271 0.124-0.271 0.271s0.116 0.271 0.271 0.271z"></path>
</svg>
