<!-- Generated by IcoMoon.io -->
<svg version="1.1" xmlns="http://www.w3.org/2000/svg" width="32" height="32" viewBox="0 0 32 32">
<title>cruise</title>
<path fill="#fff" d="M8.407 25.189c0.457 0.992 0.767 1.573 1.751 1.945 0.914 0.349 1.836 0.581 2.906 0.744 0.395 0.062 1.48 0.093 2.82 0.093 1.371 0 2.526-0.039 2.929-0.101 1.069-0.163 1.991-0.395 2.906-0.736 0.992-0.372 1.302-0.953 1.751-1.945 0.178-0.387 3.541-8.546 3.68-8.895 0.24-0.597-0.023-1.317-0.597-1.612l-3.479-1.798v-4.463c0-1.767-1.441-3.208-3.208-3.208h-1.116v-3.285c0-0.783-0.635-1.426-1.426-1.426h-2.596c-0.783 0-1.426 0.635-1.426 1.426v3.293h-1.402c-1.767 0-3.208 1.441-3.208 3.208v4.502l-3.394 1.751c-0.573 0.294-0.837 1.015-0.597 1.612 0.713 1.705 3.595 8.655 3.704 8.895zM14.195 1.929c0-0.294 0.24-0.535 0.535-0.535h2.596c0.294 0 0.535 0.24 0.535 0.535v3.293h-3.665v-3.293zM9.585 8.43c0-1.278 1.038-2.324 2.324-2.324h7.973c1.278 0 2.324 1.038 2.324 2.324v4.006l-5.215-2.689c-0.527-0.271-1.573-0.271-2.1 0l-5.308 2.727v-4.045zM5.703 15.473l9.585-4.943c0.101-0.054 0.333-0.116 0.643-0.116s0.542 0.062 0.643 0.116l9.584 4.943c0.163 0.085 0.248 0.318 0.178 0.48-1.681 4.083-3.549 8.6-3.673 8.856-0.418 0.907-0.597 1.232-1.263 1.488-0.852 0.325-1.72 0.542-2.72 0.69-0.356 0.054-1.511 0.093-2.805 0.093-1.457 0-2.402-0.047-2.689-0.085-1-0.147-1.867-0.372-2.72-0.69-0.666-0.256-0.845-0.581-1.263-1.488-0.093-0.209-2.487-5.966-3.688-8.864-0.054-0.163 0.031-0.403 0.186-0.48z"></path>
<path fill="#fff" d="M10.476 18.642c0.984 0 1.782-0.798 1.782-1.782s-0.798-1.782-1.782-1.782-1.782 0.798-1.782 1.782 0.798 1.782 1.782 1.782zM10.476 15.969c0.496 0 0.891 0.403 0.891 0.891 0 0.496-0.403 0.891-0.891 0.891s-0.891-0.403-0.891-0.891c-0.008-0.488 0.395-0.891 0.891-0.891z"></path>
<path fill="#fff" d="M21.734 18.642c0.984 0 1.782-0.798 1.782-1.782s-0.798-1.782-1.782-1.782-1.782 0.798-1.782 1.782 0.798 1.782 1.782 1.782zM21.734 15.969c0.496 0 0.891 0.403 0.891 0.891 0 0.496-0.403 0.891-0.891 0.891-0.496 0-0.891-0.403-0.891-0.891s0.403-0.891 0.891-0.891z"></path>
<path fill="#fff" d="M15.977 26.491c0.248 0 0.442-0.201 0.442-0.442v-12.839c0-0.248-0.201-0.442-0.442-0.442-0.248 0-0.442 0.201-0.442 0.442v12.831c0 0.248 0.194 0.449 0.442 0.449z"></path>
<path fill="#fff" d="M27.111 30.605c-1.325 0-2.572-0.62-3.339-1.65-0.085-0.116-0.217-0.178-0.356-0.178s-0.271 0.070-0.356 0.178c-0.767 1.038-2.015 1.65-3.339 1.65s-2.572-0.62-3.339-1.65c-0.085-0.116-0.217-0.178-0.356-0.178s-0.271 0.070-0.356 0.178c-0.767 1.038-2.015 1.65-3.339 1.65s-2.572-0.62-3.339-1.65c-0.085-0.116-0.217-0.178-0.356-0.178s-0.271 0.070-0.356 0.178c-0.759 1.038-2.007 1.65-3.332 1.65-0.248 0-0.442 0.201-0.442 0.442 0 0.248 0.201 0.442 0.442 0.442 1.41 0 2.758-0.581 3.696-1.588 0.938 1 2.278 1.588 3.696 1.588 1.41 0 2.758-0.581 3.696-1.588 0.938 1 2.286 1.588 3.696 1.588s2.758-0.581 3.696-1.588c0.938 1 2.278 1.588 3.696 1.588 0.248 0 0.442-0.201 0.442-0.442-0.008-0.24-0.201-0.442-0.449-0.442z"></path>
<path fill="#fff" d="M7.857 25.484c0.147-0.194 0.108-0.473-0.093-0.62s-0.473-0.101-0.62 0.093c-0.767 1.038-2.015 1.65-3.339 1.65-0.248 0-0.442 0.201-0.442 0.442 0 0.248 0.201 0.442 0.442 0.442 1.604 0.008 3.115-0.744 4.052-2.007z"></path>
<path fill="#fff" d="M28.196 26.584c-1.325 0-2.572-0.62-3.339-1.65-0.147-0.194-0.426-0.24-0.62-0.093s-0.24 0.426-0.093 0.62c0.93 1.263 2.448 2.015 4.052 2.015 0.248 0 0.442-0.201 0.442-0.442 0-0.256-0.194-0.449-0.442-0.449z"></path>
</svg>
