<!-- Generated by IcoMoon.io -->
<svg version="1.1" xmlns="http://www.w3.org/2000/svg" width="32" height="32" viewBox="0 0 32 32">
<title>csv-file</title>
<path fill="#fff" d="M31.489 8.864c0-0.031-0.008-0.062-0.015-0.093-0.008-0.015-0.008-0.023-0.015-0.031-0.015-0.039-0.039-0.070-0.070-0.101v0l-6.989-6.989c-0.031-0.031-0.062-0.054-0.101-0.070-0.015-0.008-0.023-0.008-0.039-0.016-0.031-0.008-0.062-0.016-0.093-0.016-0.008 0-0.015-0.008-0.023-0.008h-15.582c-0.542 0-0.992 0.442-0.992 0.992v6.020h-6.71c-0.201 0-0.356 0.163-0.356 0.356v6.663c0 0.201 0.163 0.356 0.356 0.356h6.71v13.536c0 0.542 0.442 0.992 0.992 0.992h21.951c0.542 0 0.992-0.442 0.992-0.992v-20.579c-0.008-0.008-0.015-0.015-0.015-0.023zM24.508 2.766l5.765 5.765h-5.765v-5.765zM1.224 9.267h13.412v5.943h-13.412v-5.943zM30.505 29.738h-21.943c-0.147 0-0.271-0.124-0.271-0.271v-13.536h6.71c0.201 0 0.356-0.163 0.356-0.356v-6.663c0-0.201-0.163-0.356-0.356-0.356h-6.71v-6.028c0-0.147 0.124-0.271 0.271-0.271h15.225v6.632c0 0.201 0.163 0.356 0.356 0.356h6.632v20.223c0 0.155-0.124 0.271-0.271 0.271z"></path>
<path fill="#fff" d="M5.85 10.421c-0.318-0.124-0.845-0.155-1.085-0.155-1.309 0-1.534 1.030-1.534 2.092 0 1.046 0.263 2.007 1.534 2.007 0.232 0 0.798-0.039 1.085-0.163 0.077-0.031 0.077-0.070 0.070-0.132l-0.031-0.155c-0.016-0.039-0.039-0.085-0.124-0.070-0.287 0.039-0.635 0.085-1.007 0.085-0.891 0-1.038-0.759-1.038-1.565 0-0.883 0.101-1.65 1.038-1.65 0.356 0 0.744 0.046 1.007 0.085 0.077 0.015 0.101-0.023 0.116-0.070l0.039-0.17c0.023-0.062 0.016-0.101-0.070-0.139z"></path>
<path fill="#fff" d="M7.725 12.041c-0.62-0.108-0.86-0.17-0.86-0.643 0-0.411 0.186-0.674 0.821-0.674 0.349 0 0.744 0.046 1.007 0.085 0.077 0.008 0.101-0.031 0.116-0.070l0.039-0.163c0.015-0.054 0.008-0.101-0.077-0.132-0.318-0.132-0.845-0.155-1.085-0.155-0.821 0-1.294 0.403-1.294 1.139 0 0.798 0.566 0.953 1.294 1.069 0.651 0.108 0.837 0.248 0.837 0.798 0 0.411-0.318 0.643-0.922 0.643-0.232 0-0.736-0.039-1.077-0.085-0.062-0.008-0.093 0.008-0.101 0.062l-0.039 0.17c-0.016 0.054-0.008 0.093 0.077 0.132 0.263 0.108 0.814 0.17 1.147 0.17 0.752 0 1.379-0.287 1.379-1.17 0.008-0.907-0.558-1.062-1.263-1.178z"></path>
<path fill="#fff" d="M12.157 10.313c-0.070 0-0.101 0.023-0.124 0.085l-0.589 1.86-0.457 1.441h-0.015l-0.457-1.441-0.604-1.86c-0.015-0.062-0.039-0.085-0.116-0.085h-0.31c-0.062 0-0.070 0.039-0.054 0.093l1.271 3.835c0.015 0.054 0.039 0.077 0.116 0.077h0.318c0.070 0 0.101-0.023 0.124-0.085l1.263-3.82c0.015-0.062 0.008-0.093-0.046-0.093l-0.318-0.008z"></path>
<path fill="#fff" d="M19.378 10.94l-0.496 0.372c-0.124 0.085-0.108 0.17-0.047 0.256 0.17 0.209 0.31 0.542 0.31 0.837 0 0.31-0.108 0.612-0.403 0.876-0.062 0.062-0.101 0.132-0.039 0.186l0.147 0.132c0.077 0.077 0.17 0.023 0.225-0.015 0.496-0.31 0.976-0.899 0.976-1.883 0-0.232-0.108-0.527-0.356-0.752-0.093-0.070-0.209-0.093-0.318-0.008z"></path>
<path fill="#fff" d="M19.378 15.21l-0.496 0.372c-0.124 0.085-0.108 0.17-0.047 0.256 0.17 0.209 0.31 0.542 0.31 0.837 0 0.31-0.108 0.612-0.403 0.876-0.062 0.062-0.101 0.132-0.039 0.186l0.147 0.132c0.077 0.077 0.17 0.023 0.225-0.015 0.496-0.31 0.976-0.899 0.976-1.883 0-0.232-0.108-0.527-0.356-0.752-0.093-0.062-0.209-0.093-0.318-0.008z"></path>
<path fill="#fff" d="M19.316 19.975c-0.457 0-0.558 0.248-0.558 0.566s0.062 0.589 0.558 0.589c0.48 0 0.566-0.271 0.566-0.589 0-0.333-0.093-0.566-0.566-0.566z"></path>
<path fill="#fff" d="M19.316 23.051c-0.457 0-0.558 0.248-0.558 0.566s0.062 0.589 0.558 0.589c0.48 0 0.566-0.271 0.566-0.589 0-0.325-0.093-0.566-0.566-0.566z"></path>
<path fill="#fff" d="M19.316 26.305c-0.457 0-0.558 0.248-0.558 0.566s0.062 0.589 0.558 0.589c0.48 0 0.566-0.271 0.566-0.589 0-0.333-0.093-0.566-0.566-0.566z"></path>
</svg>
