<!-- Generated by IcoMoon.io -->
<svg version="1.1" xmlns="http://www.w3.org/2000/svg" width="32" height="32" viewBox="0 0 32 32">
<title>culture</title>
<path fill="#fff" d="M30.249 27.553v-1.108c0-0.364-0.294-0.659-0.659-0.659h-1.488v-12.087h1.774c0.891 0 1.612-0.721 1.612-1.612v-0.225c0-0.155-0.077-0.302-0.209-0.395l-14.055-9.375c-0.697-0.465-1.604-0.473-2.309-0.008l-14.195 9.375c-0.132 0.085-0.217 0.24-0.217 0.395v0.225c0 0.891 0.721 1.612 1.612 1.612h1.774v12.095h-1.596c-0.364 0-0.659 0.294-0.659 0.659v1.108h-0.628l-0.496 0.023v1.96c0 0.403 0.325 0.728 0.728 0.728h29.505c0.403 0 0.728-0.325 0.728-0.728v-1.48l-0.023-0.496-1.201-0.008zM27.157 25.794h-1.805v-12.095h1.805v12.095zM10.731 13.699v12.095h-3.138v-12.095h3.138zM11.677 13.699h1.805v12.095h-1.805v-12.095zM14.435 13.699h3.13v12.095h-3.13v-12.095zM18.518 13.699h1.805v12.095h-1.805v-12.095zM21.269 13.699h3.138v12.095h-3.13v-12.095h-0.008zM1.457 12.11l13.993-9.244c0.38-0.256 0.876-0.248 1.255 0l13.838 9.236c-0.015 0.356-0.31 0.635-0.666 0.635h-27.762c-0.356 0.008-0.643-0.271-0.659-0.628zM4.843 13.699h1.805v12.095h-1.805v-12.095zM30.536 29.319h-29.071v-0.814h0.364c0.418 0 0.759-0.341 0.759-0.759v-1h26.716v1c0 0.418 0.341 0.759 0.759 0.759h0.473v0.814z"></path>
<path fill="#fff" d="M16 4.37c-1.232 0-2.239 1.007-2.239 2.239s1.007 2.239 2.239 2.239 2.239-1.007 2.239-2.239-1.007-2.239-2.239-2.239zM16 7.895c-0.713 0-1.286-0.581-1.286-1.286s0.581-1.286 1.286-1.286 1.286 0.581 1.286 1.286-0.573 1.286-1.286 1.286z"></path>
</svg>
