<!-- Generated by IcoMoon.io -->
<svg version="1.1" xmlns="http://www.w3.org/2000/svg" width="32" height="32" viewBox="0 0 32 32">
<title>cupcake</title>
<path fill="#fff" d="M9.677 22.059c-0.039-0.194-0.232-0.31-0.418-0.271-0.194 0.039-0.31 0.232-0.271 0.418l1.379 6.191c0.039 0.163 0.186 0.279 0.341 0.279 0.023 0 0.054 0 0.077-0.008 0.194-0.039 0.31-0.232 0.271-0.418l-1.379-6.191z"></path>
<path fill="#fff" d="M13.846 21.796c-0.194 0.008-0.349 0.178-0.333 0.372l0.302 6.183c0.008 0.186 0.163 0.333 0.349 0.333 0.008 0 0.015 0 0.015 0 0.194-0.008 0.349-0.178 0.333-0.372l-0.302-6.183c0-0.194-0.17-0.341-0.364-0.333z"></path>
<path fill="#fff" d="M22.764 21.788c-0.186-0.039-0.38 0.077-0.418 0.271l-1.379 6.191c-0.039 0.194 0.077 0.38 0.271 0.418 0.023 0.008 0.054 0.008 0.077 0.008 0.163 0 0.31-0.108 0.341-0.279l1.379-6.191c0.039-0.186-0.077-0.372-0.271-0.418z"></path>
<path fill="#fff" d="M18.177 21.796c-0.186-0.008-0.364 0.139-0.372 0.333l-0.302 6.183c-0.008 0.194 0.139 0.364 0.333 0.372 0.008 0 0.015 0 0.015 0 0.186 0 0.341-0.147 0.349-0.333l0.302-6.183c0.023-0.201-0.132-0.364-0.325-0.372z"></path>
<path fill="#fff" d="M31.496 14.652c0-2.526-1.968-4.602-4.447-4.781-0.178-2.487-2.255-4.447-4.781-4.447-0.504 0-1 0.077-1.48 0.24-0.062-2.588-2.185-4.672-4.788-4.672s-4.726 2.084-4.788 4.672c-0.48-0.155-0.976-0.24-1.48-0.24-2.526 0-4.602 1.96-4.781 4.447-2.479 0.178-4.447 2.255-4.447 4.781 0 2.549 1.999 4.626 4.509 4.773l2.72 11.32c0.039 0.155 0.178 0.271 0.341 0.271h15.868c0.163 0 0.302-0.108 0.341-0.271l2.704-11.32c2.51-0.147 4.509-2.231 4.509-4.773zM23.663 30.311h-15.31l-2.704-11.266c0.023-0.442 0.387-0.798 0.837-0.798 0.457 0 0.837 0.372 0.837 0.837 0 0.852 0.69 1.542 1.542 1.542s1.542-0.69 1.542-1.542c0-0.465 0.372-0.837 0.837-0.837 0.457 0 0.837 0.372 0.837 0.837 0 0.852 0.69 1.542 1.542 1.542s1.542-0.69 1.542-1.542c0-0.465 0.372-0.837 0.837-0.837 0.457 0 0.837 0.372 0.837 0.837 0 0.852 0.69 1.542 1.542 1.542s1.542-0.69 1.542-1.542c0-0.465 0.372-0.837 0.837-0.837s0.837 0.372 0.837 0.837c0 0.852 0.69 1.542 1.542 1.542s1.542-0.69 1.542-1.542c0-0.465 0.372-0.837 0.837-0.837 0.449 0 0.814 0.356 0.837 0.798l-2.689 11.266zM27.010 18.72c-0.163-0.674-0.767-1.178-1.495-1.178-0.852 0-1.542 0.69-1.542 1.542 0 0.457-0.372 0.837-0.837 0.837-0.457 0-0.837-0.372-0.837-0.837 0-0.852-0.69-1.542-1.542-1.542s-1.542 0.69-1.542 1.542c0 0.457-0.372 0.837-0.837 0.837s-0.837-0.372-0.837-0.837c0-0.852-0.69-1.542-1.542-1.542s-1.542 0.69-1.542 1.542c0 0.457-0.372 0.837-0.837 0.837s-0.837-0.372-0.837-0.837c0-0.852-0.69-1.542-1.542-1.542s-1.542 0.69-1.542 1.542c0 0.457-0.372 0.837-0.837 0.837-0.457 0-0.837-0.372-0.837-0.837 0-0.852-0.69-1.542-1.542-1.542-0.721 0-1.325 0.504-1.495 1.178-2.107-0.155-3.781-1.922-3.781-4.068 0-2.255 1.829-4.083 4.083-4.083 0.194 0 0.356-0.155 0.356-0.356 0-2.255 1.829-4.083 4.083-4.083 0.589 0 1.162 0.124 1.705 0.38 0.116 0.054 0.248 0.039 0.349-0.031s0.163-0.194 0.147-0.318c-0.008-0.124-0.015-0.248-0.015-0.38 0-2.255 1.829-4.083 4.083-4.083s4.083 1.829 4.083 4.083c0 0.124-0.008 0.256-0.015 0.38-0.015 0.124 0.047 0.248 0.147 0.318s0.24 0.085 0.349 0.031c0.542-0.248 1.116-0.38 1.705-0.38 2.255 0 4.083 1.829 4.083 4.083 0 0.194 0.155 0.356 0.356 0.356 2.255 0 4.083 1.829 4.083 4.083 0 2.146-1.674 3.913-3.781 4.068z"></path>
</svg>
