<!-- Generated by IcoMoon.io -->
<svg version="1.1" xmlns="http://www.w3.org/2000/svg" width="32" height="32" viewBox="0 0 32 32">
<title>currency</title>
<path fill="#fff" d="M29.366 6.764h-22.245c-1.178 0-2.131 0.953-2.131 2.131v0.349h-0.108c-1.178 0-2.131 0.953-2.131 2.131v0.349h-0.116c-1.178 0-2.131 0.953-2.131 2.131v9.251c0 1.178 0.953 2.131 2.131 2.131h22.245c1.178 0 2.131-0.953 2.131-2.131v-0.349h0.108c1.178 0 2.131-0.953 2.131-2.131v-0.349h0.108c1.178 0 2.131-0.953 2.131-2.131v-9.251c0.008-1.178-0.945-2.131-2.123-2.131zM26.111 23.105c0 0.682-0.55 1.232-1.232 1.232h-22.245c-0.682 0-1.232-0.55-1.232-1.232v-9.251c0-0.682 0.55-1.232 1.232-1.232h22.245c0.682 0 1.232 0.55 1.232 1.232v9.251zM28.351 20.626c0 0.674-0.55 1.232-1.232 1.232h-0.108v-8.004c0-1.178-0.953-2.131-2.131-2.131h-21.23v-0.349c0-0.682 0.55-1.232 1.232-1.232h22.245c0.682 0 1.232 0.55 1.232 1.232v9.251h-0.008zM30.598 18.146c0 0.682-0.55 1.232-1.232 1.232h-0.108v-8.004c0-1.178-0.953-2.131-2.131-2.131h-21.238v-0.349c0-0.682 0.55-1.232 1.232-1.232h22.245c0.682 0 1.232 0.55 1.232 1.232v9.251z"></path>
<path fill="#fff" d="M5.548 21.765h-1.991c-0.248 0-0.449 0.201-0.449 0.449s0.201 0.449 0.449 0.449h1.991c0.248 0 0.449-0.201 0.449-0.449s-0.201-0.449-0.449-0.449z"></path>
<path fill="#fff" d="M23.965 14.148h-1.991c-0.248 0-0.449 0.201-0.449 0.449s0.201 0.449 0.449 0.449h1.991c0.248 0 0.449-0.201 0.449-0.449s-0.201-0.449-0.449-0.449z"></path>
<path fill="#fff" d="M16.674 21.3c-0.015-0.070-0.054-0.139-0.194-0.116-0.457 0.054-1.023 0.139-1.619 0.139-1.185 0-1.55-0.829-1.65-1.86h2.65c0.070 0 0.085-0.031 0.085-0.077v-0.31c0-0.085-0.031-0.116-0.108-0.116h-3.928c-0.077 0-0.108 0.047-0.108 0.085v0.333c0 0.077 0.039 0.101 0.101 0.101l0.504-0.008c0.116 1.41 0.682 2.572 2.448 2.572 0.38 0 1.286-0.070 1.759-0.263 0.124-0.047 0.124-0.116 0.108-0.217l-0.047-0.263z"></path>
<path fill="#fff" d="M16.604 15.659c-0.519-0.201-1.364-0.256-1.751-0.256-1.774 0-2.324 1.193-2.448 2.611h-0.496c-0.077 0-0.108 0.039-0.108 0.085v0.333c0 0.077 0.039 0.085 0.101 0.085h3.959c0.070 0 0.085-0.039 0.085-0.085v-0.31c0-0.085-0.015-0.108-0.101-0.108h-2.65c0.085-1.061 0.434-1.898 1.658-1.898 0.573 0 1.201 0.077 1.635 0.139 0.124 0.023 0.163-0.039 0.186-0.108l0.062-0.271c0.015-0.085 0-0.155-0.132-0.217z"></path>
</svg>
