<!-- Generated by IcoMoon.io -->
<svg version="1.1" xmlns="http://www.w3.org/2000/svg" width="32" height="32" viewBox="0 0 32 32">
<title>customization</title>
<path fill="#fff" d="M30.977 25.677l-9.282-9.685 7.864-7.601c0.945-0.914 0.976-2.433 0.054-3.378l-2.084-2.154c-0.914-0.961-2.425-0.984-3.378-0.070l-7.841 7.585-9.337-9.747c-0.070-0.077-0.17-0.116-0.271-0.124h-0.008c-0.101 0-0.194 0.039-0.271 0.108l-5.393 5.16c-0.155 0.147-0.163 0.395-0.016 0.55l9.368 9.778-8.074 7.802c-0.008 0.008-0.008 0.015-0.015 0.015-0.023 0.031-0.046 0.062-0.062 0.093-0.008 0.008-0.008 0.015-0.015 0.023-0.015 0.039-0.023 0.077-0.031 0.116l-0.349 5.199c-0.008 0.108 0.031 0.217 0.108 0.294s0.178 0.116 0.279 0.116c0.008 0 0.008 0 0.015 0l5.207-0.17c0.046 0 0.085-0.008 0.124-0.023 0.008-0.008 0.023-0.008 0.031-0.015 0.031-0.015 0.062-0.031 0.085-0.054 0.008-0.008 0.016-0.008 0.016-0.015l8.050-7.787 9.259 9.662c0.070 0.077 0.17 0.116 0.271 0.124h0.008c0.101 0 0.194-0.039 0.271-0.108l5.377-5.153c0.186-0.139 0.186-0.387 0.039-0.542zM24.693 3.355c0.635-0.612 1.658-0.597 2.27 0.039l2.092 2.154c0.62 0.635 0.597 1.658-0.039 2.27l-1.813 1.751-4.323-4.463 1.813-1.751zM1.86 6.059l4.812-4.618 0.891 0.93-1.953 1.875c-0.155 0.147-0.163 0.395-0.016 0.55 0.077 0.077 0.178 0.124 0.279 0.124s0.194-0.039 0.271-0.108l1.96-1.867 1.224 1.271-0.837 0.798c-0.155 0.147-0.163 0.395-0.015 0.55 0.077 0.077 0.178 0.124 0.279 0.124s0.194-0.039 0.271-0.108l0.837-0.798 1.224 1.278-1.953 1.867c-0.155 0.147-0.163 0.395-0.015 0.55 0.077 0.077 0.178 0.124 0.279 0.124s0.194-0.039 0.271-0.108l1.953-1.867 1.224 1.278-0.837 0.798c-0.155 0.147-0.163 0.395-0.015 0.55 0.077 0.077 0.178 0.124 0.279 0.124s0.194-0.039 0.271-0.108l0.837-0.798 1.224 1.278-1.953 1.867c-0.155 0.147-0.163 0.395-0.015 0.55 0.077 0.077 0.178 0.124 0.279 0.124s0.194-0.039 0.271-0.108l1.953-1.867 0.597 0.62-4.796 4.633-9.081-9.507zM2.658 28.978l0.256-3.89 3.642 3.766-3.897 0.124zM7.454 28.661l-4.324-4.463 19.192-18.549 1.891 1.953-5.641 5.455c-0.054 0.015-0.108 0.046-0.155 0.085l-2.231 2.139c-0.054 0.046-0.077 0.108-0.101 0.17l-7.562 7.314c-0.155 0.147-0.163 0.395-0.008 0.55 0.077 0.077 0.178 0.116 0.279 0.116s0.194-0.039 0.271-0.108l15.69-15.163 1.891 1.953-19.192 18.549zM25.329 30.551l-8.996-9.383 4.796-4.633 0.535 0.558-1.953 1.867c-0.155 0.147-0.163 0.395-0.015 0.55 0.077 0.077 0.178 0.124 0.279 0.124s0.194-0.039 0.271-0.108l1.953-1.867 1.224 1.278-0.837 0.798c-0.155 0.147-0.163 0.395-0.015 0.55 0.077 0.077 0.178 0.124 0.279 0.124s0.194-0.039 0.271-0.108l0.837-0.798 1.224 1.271-1.953 1.867c-0.155 0.147-0.163 0.395-0.015 0.55 0.077 0.077 0.178 0.124 0.279 0.124s0.194-0.039 0.271-0.108l1.953-1.867 1.224 1.278-0.837 0.798c-0.155 0.147-0.163 0.395-0.015 0.55 0.077 0.077 0.178 0.124 0.279 0.124s0.194-0.039 0.271-0.108l0.837-0.798 1.224 1.278-1.953 1.867c-0.155 0.147-0.163 0.395-0.015 0.55 0.077 0.077 0.178 0.124 0.279 0.124s0.194-0.039 0.271-0.108l1.953-1.867 0.891 0.93-4.796 4.595z"></path>
</svg>
