<!-- Generated by IcoMoon.io -->
<svg version="1.1" xmlns="http://www.w3.org/2000/svg" width="32" height="32" viewBox="0 0 32 32">
<title>customer-centric</title>
<path fill="#fff" d="M20.757 8.841c1.108 0 2.015-0.907 2.015-2.015s-0.907-2.015-2.015-2.015c-1.108 0-2.015 0.907-2.015 2.015 0 1.116 0.907 2.015 2.015 2.015zM20.757 5.385c0.798 0 1.449 0.651 1.449 1.449s-0.651 1.449-1.449 1.449-1.449-0.651-1.449-1.449 0.651-1.449 1.449-1.449z"></path>
<path fill="#fff" d="M11.196 8.841c1.1 0 1.991-0.891 1.991-1.991s-0.891-1.991-1.991-1.991-1.991 0.891-1.991 1.991 0.891 1.991 1.991 1.991zM11.196 5.424c0.79 0 1.426 0.643 1.426 1.426s-0.643 1.426-1.426 1.426-1.426-0.643-1.426-1.426 0.643-1.426 1.426-1.426z"></path>
<path fill="#fff" d="M31.496 15.845c0-0.504-0.209-0.992-0.604-1.457 0.077-0.155 0.132-0.325 0.132-0.504 0-0.612-0.496-1.1-1.1-1.1-0.294 0-0.558 0.116-0.759 0.302-1.1-0.581-2.565-1.085-4.347-1.488-0.008-0.69-0.209-1.232-0.604-1.619-0.589-0.581-1.395-0.573-1.418-0.566h-4.068c-0.031 0-0.837-0.008-1.426 0.566-0.209 0.201-0.356 0.449-0.457 0.728-0.589-0.008-1.185-0.008-1.767 0-0.101-0.294-0.256-0.55-0.465-0.759-0.581-0.573-1.379-0.566-1.402-0.558h-4.014c-0.031 0-0.829-0.008-1.41 0.558-0.395 0.387-0.597 0.938-0.597 1.627v0.008c-4.254 0.969-6.687 2.51-6.687 4.261 0 0.542 0.24 1.061 0.682 1.542-0.093 0.178-0.155 0.38-0.155 0.597 0 0.721 0.581 1.302 1.302 1.302 0.395 0 0.744-0.178 0.976-0.457 1.17 0.55 2.65 1.015 4.378 1.371l-0.341 1.79c-0.016 0.085 0.008 0.17 0.062 0.232s0.132 0.101 0.217 0.101h1.519v3.247c0 0.031-0.039 0.713 0.403 1.185 0.263 0.287 0.635 0.426 1.108 0.426h1.085c0.465 0 0.837-0.147 1.108-0.426 0.442-0.473 0.411-1.154 0.403-1.162v-3.262h1.519c0.085 0 0.163-0.039 0.217-0.101s0.077-0.147 0.062-0.232l-0.194-1.023c0.38 0.008 0.767 0.015 1.154 0.015 0.914 0 1.813-0.023 2.681-0.077v4.649c0 0.031-0.039 0.721 0.411 1.193 0.271 0.287 0.643 0.434 1.116 0.434h1.093c0.473 0 0.845-0.147 1.116-0.434 0.449-0.48 0.411-1.162 0.411-1.178v-5.098c5.168-0.829 8.662-2.572 8.662-4.633zM22.834 19.89v-1.813c2.712-0.55 4.664-1.449 4.664-2.681 0-0.829-0.93-1.573-2.681-2.162v-1.069c1.65 0.38 3.030 0.86 4.052 1.395-0.031 0.101-0.047 0.201-0.047 0.31 0 0.612 0.496 1.1 1.1 1.1 0.217 0 0.418-0.062 0.589-0.178 0.271 0.341 0.418 0.69 0.418 1.038 0 1.743-3.332 3.285-8.097 4.060zM22.268 19.983c-0.961 0.139-1.976 0.248-3.022 0.325v-1.736c1.054-0.085 2.076-0.209 3.022-0.38v1.79zM24.81 16.271v-2.433c1.333 0.473 2.115 1.046 2.115 1.565 0 0.558-0.845 1.147-2.324 1.635 0.225-0.364 0.217-0.752 0.209-0.767zM17.689 10.383c0.411-0.403 0.992-0.411 1.023-0.411v0h4.076c0.031 0 0.612 0.008 1.023 0.411 0.287 0.279 0.426 0.697 0.426 1.24v4.657c0 0 0.008 0.364-0.217 0.597-0.132 0.139-0.333 0.201-0.589 0.201h-0.883c-0.155 0-0.279 0.124-0.279 0.279v0.248c-0.907 0.17-1.922 0.302-3.022 0.387v-0.643c0-0.155-0.124-0.279-0.279-0.279h-0.891c-0.256 0-0.457-0.070-0.589-0.201-0.225-0.232-0.217-0.589-0.217-0.604v-4.649c-0.008-0.535 0.139-0.945 0.418-1.232zM14.187 17.503c0.263-0.054 0.48-0.17 0.651-0.349 0.387-0.403 0.372-0.969 0.372-0.984v-3.494c0.294-0.008 0.589-0.008 0.883-0.008 0.256 0 0.403 0 0.604 0.008v3.587c0 0.023-0.015 0.597 0.372 1 0.24 0.256 0.581 0.38 1 0.38h0.612v0.403c-0.845 0.054-1.743 0.085-2.681 0.085-0.581 0-1.154-0.015-1.697-0.031l-0.116-0.597zM16.721 11.274c-0.015 0.116-0.023 0.232-0.023 0.356v0.488c-0.201-0.008-0.349-0.008-0.604-0.008-0.302 0-0.597 0.008-0.883 0.008v-0.535c0-0.108-0.008-0.209-0.015-0.31 0.504-0.008 1.015-0.008 1.526 0zM7.748 11.584c0-0.535 0.139-0.945 0.426-1.224 0.411-0.403 1-0.403 1.015-0.403h4.029c0.015 0 0.597 0 1.007 0.403 0.287 0.279 0.426 0.69 0.426 1.224v4.602c0 0 0.008 0.356-0.217 0.581-0.132 0.132-0.325 0.201-0.581 0.201-0.085 0-0.163 0.039-0.217 0.101s-0.077 0.147-0.062 0.232l0.147 0.767c-1.898-0.108-3.572-0.341-4.92-0.651l0.023-0.116c0.015-0.085-0.008-0.17-0.062-0.232s-0.132-0.101-0.217-0.101c-0.256 0-0.449-0.070-0.581-0.201-0.217-0.225-0.217-0.581-0.217-0.589v-4.595zM7.19 16.163c0 0.023-0.008 0.511 0.294 0.899-1.534-0.488-2.417-1.092-2.417-1.666 0-0.519 0.783-1.092 2.115-1.565l0.008 2.332zM13.831 18.642l0.333 1.743c-2.092-0.085-4.060-0.302-5.811-0.628l0.341-1.774c1.511 0.333 3.293 0.558 5.137 0.659zM3.58 18.348c0.031-0.116 0.054-0.232 0.054-0.364 0-0.721-0.581-1.302-1.302-1.302-0.302 0-0.573 0.108-0.798 0.279-0.31-0.356-0.473-0.736-0.473-1.116 0-1.402 2.34-2.797 6.121-3.673v1.069c-1.751 0.581-2.681 1.325-2.681 2.162 0 1.069 1.472 1.891 3.642 2.448l-0.341 1.79c-1.666-0.341-3.107-0.783-4.223-1.294zM14.427 21.765h-1.457c-0.155 0-0.279 0.124-0.279 0.279v3.564c0 0.008 0.023 0.473-0.256 0.759-0.155 0.163-0.387 0.248-0.697 0.248h-1.085c-0.302 0-0.535-0.085-0.69-0.248-0.279-0.294-0.256-0.759-0.256-0.783v-3.541c0-0.077-0.031-0.147-0.085-0.201s-0.124-0.085-0.201-0.085h-1.457l0.279-1.449c1.798 0.341 3.835 0.566 6.028 0.635l0.155 0.821zM16 20.416c-0.426 0-0.845-0.008-1.263-0.015l-0.333-1.736c0.527 0.023 1.062 0.031 1.588 0.031 0.891 0 1.798-0.031 2.681-0.085v1.728c-0.868 0.054-1.759 0.077-2.673 0.077zM22.268 25.592c0 0.008 0.023 0.48-0.256 0.775-0.155 0.17-0.395 0.256-0.705 0.256h-1.1c-0.31 0-0.542-0.085-0.705-0.256-0.279-0.294-0.263-0.775-0.256-0.79v-4.695c1.054-0.070 2.069-0.178 3.022-0.318v5.029z"></path>
</svg>
