<!-- Generated by IcoMoon.io -->
<svg version="1.1" xmlns="http://www.w3.org/2000/svg" width="32" height="32" viewBox="0 0 32 32">
<title>customer-satisfaction-01</title>
<path fill="#fff" d="M27.398 11.707h-6.725v-7.562c0-2.007-1.635-3.642-3.642-3.642-0.914 0-1.65 0.744-1.65 1.65v8.213c0 1.348-1.1 2.448-2.448 2.448h-2.402v-2.487c0-0.232-0.194-0.426-0.426-0.426h-7.802c-0.232 0-0.426 0.194-0.426 0.426v20.742c0 0.232 0.194 0.426 0.426 0.426h7.802c0.232 0 0.426-0.194 0.426-0.426s-0.194-0.426-0.426-0.426h-7.376v-19.89h6.958v2.487c0 0.232 0.194 0.426 0.426 0.426h2.828c1.813 0 3.293-1.48 3.293-3.293v-8.213c0-0.442 0.364-0.806 0.806-0.806 1.542 0 2.797 1.255 2.797 2.797v7.988c0 0.232 0.194 0.426 0.426 0.426h7.152c1.030 0 1.867 0.837 1.867 1.867v5.927c0 4.3-3.494 7.795-7.795 7.795h-10.049v-9.732c0-0.232-0.194-0.426-0.426-0.426s-0.426 0.194-0.426 0.426v10.15c0 0.232 0.194 0.426 0.426 0.426h10.468c4.765 0 8.639-3.874 8.639-8.639v-5.927c0-1.511-1.216-2.727-2.72-2.727z"></path>
</svg>
