<!-- Generated by IcoMoon.io -->
<svg version="1.1" xmlns="http://www.w3.org/2000/svg" width="32" height="32" viewBox="0 0 32 32">
<title>customer-experience</title>
<path fill="#fff" d="M11.033 12.877c0.225 0 0.411-0.186 0.411-0.411v-3.355c0-0.225-0.186-0.411-0.411-0.411s-0.411 0.186-0.411 0.411v3.355c0 0.232 0.186 0.411 0.411 0.411z"></path>
<path fill="#fff" d="M20.556 12.877c0.225 0 0.411-0.186 0.411-0.411v-3.355c0-0.225-0.186-0.411-0.411-0.411s-0.411 0.186-0.411 0.411v3.355c-0.008 0.232 0.178 0.411 0.411 0.411z"></path>
<path fill="#fff" d="M16 0.504c-8.546 0-15.496 6.95-15.496 15.496s6.95 15.496 15.496 15.496 15.496-6.95 15.496-15.496-6.95-15.496-15.496-15.496zM16 30.667c-8.089 0-14.667-6.578-14.667-14.667s6.578-14.667 14.667-14.667 14.667 6.578 14.667 14.667-6.578 14.667-14.667 14.667z"></path>
<path fill="#fff" d="M7.020 17.565c0 4.951 4.029 8.98 8.98 8.98s8.98-4.029 8.98-8.98v-0.411h-17.96v0.411zM24.143 17.976c-0.217 4.308-3.789 7.74-8.143 7.74s-7.926-3.44-8.143-7.74h16.287z"></path>
</svg>
