<!-- Generated by IcoMoon.io -->
<svg version="1.1" xmlns="http://www.w3.org/2000/svg" width="32" height="32" viewBox="0 0 32 32">
<title>customer-satisfaction-02</title>
<path fill="#fff" d="M11.305 12.165c-0.17-0.085-0.372-0.015-0.457 0.147-0.039 0.077-0.077 0.147-0.124 0.225-0.666 1.108-1.836 1.774-3.13 1.774-1.379 0-2.619-0.759-3.247-1.984-0.085-0.17-0.287-0.232-0.457-0.147-0.163 0.085-0.232 0.287-0.147 0.457 0.744 1.449 2.224 2.355 3.851 2.355 1.511 0 2.929-0.806 3.711-2.1 0.054-0.085 0.101-0.17 0.147-0.263 0.093-0.178 0.023-0.38-0.147-0.465z"></path>
<path fill="#fff" d="M5.377 9.949c0.186 0 0.341-0.155 0.341-0.341v-1.503c0-0.186-0.155-0.341-0.341-0.341s-0.341 0.155-0.341 0.341v1.503c0 0.186 0.155 0.341 0.341 0.341z"></path>
<path fill="#fff" d="M9.639 9.949c0.186 0 0.341-0.155 0.341-0.341v-1.503c0-0.186-0.155-0.341-0.341-0.341s-0.341 0.155-0.341 0.341v1.503c0.008 0.186 0.155 0.341 0.341 0.341z"></path>
<path fill="#fff" d="M7.601 3.556c-3.913 0-7.097 3.184-7.097 7.105s3.184 7.097 7.097 7.097 7.097-3.184 7.097-7.097-3.184-7.105-7.097-7.105zM7.601 17.077c-3.541 0-6.423-2.882-6.423-6.423s2.882-6.423 6.423-6.423 6.423 2.89 6.423 6.431-2.882 6.415-6.423 6.415z"></path>
<path fill="#fff" d="M24.399 12.126c-1.511 0-2.929 0.806-3.711 2.1-0.054 0.085-0.101 0.17-0.147 0.263-0.085 0.17-0.023 0.372 0.147 0.457 0.047 0.023 0.101 0.039 0.155 0.039 0.124 0 0.24-0.070 0.302-0.186 0.039-0.077 0.077-0.147 0.124-0.225 0.666-1.108 1.836-1.774 3.13-1.774 1.379 0 2.619 0.759 3.247 1.984 0.085 0.163 0.287 0.232 0.457 0.147 0.163-0.085 0.232-0.287 0.147-0.457-0.744-1.449-2.216-2.348-3.851-2.348z"></path>
<path fill="#fff" d="M22.175 9.949c0.186 0 0.341-0.155 0.341-0.341v-1.503c0-0.186-0.155-0.341-0.341-0.341s-0.341 0.155-0.341 0.341v1.503c0 0.186 0.155 0.341 0.341 0.341z"></path>
<path fill="#fff" d="M26.437 9.949c0.186 0 0.341-0.155 0.341-0.341v-1.503c0-0.186-0.155-0.341-0.341-0.341s-0.341 0.155-0.341 0.341v1.503c0 0.186 0.155 0.341 0.341 0.341z"></path>
<path fill="#fff" d="M24.399 3.556c-3.913 0-7.097 3.184-7.097 7.097s3.184 7.097 7.097 7.097 7.097-3.184 7.097-7.097-3.184-7.097-7.097-7.097zM24.399 17.077c-3.541 0-6.423-2.882-6.423-6.423s2.882-6.423 6.423-6.423 6.423 2.882 6.423 6.423-2.882 6.423-6.423 6.423z"></path>
<path fill="#fff" d="M27.653 21.261h-6.501c-0.186 0-0.341 0.155-0.341 0.341v6.501c0 0.186 0.155 0.341 0.341 0.341h6.501c0.186 0 0.341-0.155 0.341-0.341v-6.501c-0.008-0.194-0.155-0.341-0.341-0.341zM27.312 27.762h-5.827v-5.827h5.827v5.827z"></path>
<path fill="#fff" d="M12.784 19.704l-1.588 2.317v-0.418c0-0.186-0.155-0.341-0.341-0.341h-6.508c-0.186 0-0.341 0.155-0.341 0.341v6.501c0 0.186 0.155 0.341 0.341 0.341h6.501c0.186 0 0.341-0.155 0.341-0.341v-4.881l2.146-3.138c0.108-0.155 0.070-0.364-0.085-0.473-0.147-0.101-0.364-0.062-0.465 0.093zM10.514 27.762h-5.827v-5.827h5.827v1.077l-2.107 3.076-1.906-2.735c-0.108-0.155-0.318-0.194-0.473-0.085s-0.194 0.318-0.085 0.473l2.185 3.138c0.062 0.093 0.17 0.147 0.279 0.147v0c0.108 0 0.217-0.054 0.279-0.147l1.829-2.665v3.549z"></path>
</svg>
