<!-- Generated by IcoMoon.io -->
<svg version="1.1" xmlns="http://www.w3.org/2000/svg" width="32" height="32" viewBox="0 0 32 32">
<title>cyber-search</title>
<path fill="#fff" d="M9.995 16.271c0.721 0 1.309-0.589 1.309-1.309 0-0.612-0.426-1.123-0.992-1.263v-1.991c0-0.403 0.116-0.814 0.349-1.224 0.488-0.852 1.511-1.038 1.526-1.046 0.139-0.031 0.287-0.039 0.434-0.039h0.186c1.271 0 2.309 1.038 2.309 2.309v1.945c0 0.17 0.139 0.31 0.31 0.31s0.31-0.139 0.31-0.31v-1.945c0-1.619-1.317-2.937-2.937-2.937h-0.186c-0.186 0-0.372 0.015-0.55 0.054-0.054 0.008-1.325 0.232-1.953 1.348-0.287 0.504-0.434 1.023-0.434 1.534v1.991c-0.573 0.139-1 0.651-1 1.263 0.008 0.728 0.597 1.309 1.317 1.309zM9.995 14.28c0.38 0 0.682 0.31 0.682 0.682s-0.31 0.682-0.682 0.682c-0.38 0-0.682-0.31-0.682-0.682s0.302-0.682 0.682-0.682z"></path>
<path fill="#fff" d="M12.754 11.227c-0.333 0-0.604 0.271-0.604 0.604s0.271 0.604 0.604 0.604 0.604-0.271 0.604-0.604c0-0.333-0.271-0.604-0.604-0.604z"></path>
<path fill="#fff" d="M12.816 3.549c-0.008 0-0.015 0-0.015 0-2.247 0-4.362 0.876-5.951 2.456-1.604 1.596-2.487 3.711-2.487 5.966-0.008 2.255 0.868 4.378 2.464 5.974 1.588 1.596 3.704 2.479 5.966 2.487 0.008 0 0.015 0 0.015 0 2.247 0 4.362-0.876 5.958-2.456 1.596-1.596 2.479-3.711 2.487-5.966s-0.868-4.378-2.456-5.974c-1.604-1.596-3.727-2.479-5.982-2.487zM17.302 17.255c0-0.38 0.31-0.682 0.682-0.682 0.349 0 0.628 0.263 0.674 0.597-0.108 0.124-0.225 0.256-0.349 0.372-0.139 0.139-0.279 0.263-0.426 0.387-0.325-0.047-0.581-0.333-0.581-0.674zM19.115 16.604c-0.178-0.302-0.465-0.527-0.814-0.612v-3.913c0-3.115-2.534-5.656-5.656-5.656s-5.656 2.534-5.656 5.656c0 0.17 0.139 0.31 0.31 0.31s0.31-0.139 0.31-0.31c0-2.774 2.255-5.029 5.029-5.029s5.029 2.255 5.029 5.029v3.913c-0.573 0.139-0.992 0.651-0.992 1.263 0 0.48 0.263 0.891 0.643 1.116-1.309 0.938-2.882 1.441-4.525 1.441-0.008 0-0.008 0-0.015 0-2.092-0.008-4.052-0.821-5.524-2.301v0c-1.472-1.48-2.286-3.448-2.278-5.532s0.821-4.052 2.309-5.524c1.472-1.472 3.432-2.278 5.509-2.278 0.008 0 0.015 0 0.015 0 2.092 0.008 4.052 0.821 5.524 2.309 1.472 1.48 2.286 3.44 2.278 5.532 0 1.674-0.527 3.262-1.495 4.587z"></path>
<path fill="#fff" d="M29.985 25.925l-7.531-7.686c2.929-4.517 2.309-10.514-1.511-14.35-2.169-2.177-5.052-3.378-8.12-3.386-0.008 0-0.015 0-0.031 0-3.061 0-5.935 1.185-8.105 3.347-2.913 2.898-3.936 6.989-3.084 10.731v5.819c0 6.113 4.974 11.095 11.095 11.095h0.395c4.169 0 7.88-2.247 9.786-5.881l3.68 3.719c0.465 0.465 1.077 0.713 1.705 0.713 0.325 0 0.659-0.070 0.976-0.201 0.263-0.116 0.519-0.287 0.736-0.496 0.938-0.945 0.945-2.479 0.008-3.425zM13.094 30.869h-0.395c-5.772 0-10.468-4.695-10.468-10.468v-3.897c0.558 1.309 1.364 2.534 2.425 3.603 0.17 0.17 0.349 0.333 0.527 0.488v0.566c0 4.153 3.378 7.539 7.539 7.539h0.263c2.619 0 5.013-1.333 6.4-3.556 0.093-0.147 0.047-0.341-0.101-0.434s-0.341-0.047-0.434 0.101c-1.271 2.046-3.463 3.262-5.873 3.262h-0.263c-3.812 0-6.911-3.099-6.911-6.911v-0.047c0.38 0.287 0.767 0.55 1.178 0.79 0.356 2.944 2.836 5.153 5.819 5.153 1.286 0 2.541-0.434 3.556-1.209 0.147 0.085 0.318 0.139 0.504 0.139 0.558 0 1.015-0.457 1.015-1.015s-0.457-1.015-1.015-1.015c-0.558 0-1.015 0.457-1.015 1.015 0 0.147 0.031 0.287 0.085 0.411-0.899 0.674-1.999 1.046-3.138 1.046-2.51 0-4.626-1.751-5.122-4.161 0.504 0.248 1.015 0.465 1.542 0.635 0.705 1.302 2.092 2.139 3.58 2.139 1.503 0 2.859-0.814 3.572-2.123 0.527-0.17 1.038-0.38 1.542-0.635-0.062 0.287-0.139 0.566-0.248 0.837-0.062 0.163 0.015 0.341 0.178 0.403 0.039 0.015 0.077 0.023 0.116 0.023 0.124 0 0.24-0.077 0.287-0.194 0.186-0.465 0.302-0.945 0.364-1.441 0.132-0.077 0.256-0.155 0.387-0.232l3.432 3.463c-1.774 3.541-5.331 5.726-9.329 5.726zM16.465 24.98c0-0.217 0.178-0.387 0.387-0.387 0.217 0 0.387 0.178 0.387 0.387 0 0.217-0.178 0.387-0.387 0.387s-0.387-0.178-0.387-0.387zM10.142 23.175c1.728 0.411 3.541 0.418 5.292 0.008-0.643 0.775-1.604 1.24-2.642 1.24-1.046 0-2.007-0.465-2.65-1.247zM29.544 28.901c-0.163 0.155-0.349 0.287-0.542 0.372-0.682 0.294-1.464 0.147-1.991-0.372l-7.748-7.833c-0.062-0.062-0.139-0.093-0.225-0.093-0.062 0-0.124 0.015-0.17 0.054-2.789 1.875-6.199 2.293-9.251 1.364-0.062-0.054-0.147-0.085-0.24-0.077-1.573-0.519-3.045-1.402-4.277-2.642-4.231-4.254-4.215-11.15 0.031-15.38 2.053-2.046 4.773-3.169 7.663-3.169 0.008 0 0.015 0 0.023 0 2.906 0.008 5.633 1.147 7.678 3.2 3.673 3.688 4.215 9.484 1.294 13.776-0.085 0.124-0.070 0.287 0.039 0.395l7.709 7.864c0.705 0.705 0.697 1.844 0.008 2.541z"></path>
</svg>
