<!-- Generated by IcoMoon.io -->
<svg version="1.1" xmlns="http://www.w3.org/2000/svg" width="32" height="32" viewBox="0 0 32 32">
<title>cyber-security</title>
<path fill="#fff" d="M27.738 22.377c-0.17-0.101-0.387-0.054-0.488 0.116-2.208 3.556-5.679 6.106-11.25 8.267-5.571-2.154-9.042-4.711-11.25-8.267-0.101-0.17-0.325-0.217-0.488-0.116-0.17 0.101-0.217 0.325-0.116 0.488 2.309 3.727 5.927 6.377 11.731 8.608 0.039 0.015 0.085 0.023 0.124 0.023s0.085-0.008 0.124-0.023c5.803-2.224 9.414-4.881 11.723-8.608 0.108-0.163 0.062-0.387-0.108-0.488z"></path>
<path fill="#fff" d="M31.039 5.966c-0.008-0.147-0.101-0.279-0.24-0.325-1.356-0.457-2.851-0.93-4.424-1.426-3.89-1.232-7.911-2.503-10.204-3.673-0.101-0.054-0.232-0.054-0.333 0-2.301 1.17-6.315 2.441-10.204 3.673-1.581 0.496-3.068 0.969-4.424 1.426-0.139 0.046-0.24 0.178-0.24 0.325-0.24 6.051 0.38 10.754 1.891 14.381 0.077 0.178 0.287 0.271 0.465 0.194s0.271-0.287 0.194-0.465c-1.457-3.479-2.061-8.004-1.852-13.831 1.286-0.434 2.696-0.876 4.176-1.348 3.828-1.209 7.787-2.464 10.158-3.642 2.371 1.178 6.33 2.425 10.158 3.642 1.48 0.473 2.89 0.914 4.176 1.348 0.209 5.827-0.395 10.352-1.844 13.831-0.077 0.178 0.008 0.387 0.194 0.465 0.047 0.015 0.093 0.031 0.139 0.031 0.139 0 0.271-0.085 0.325-0.217 1.511-3.634 2.131-8.337 1.891-14.388z"></path>
<path fill="#fff" d="M16 24.453c4.974 0 9.027-4.052 9.027-9.027s-4.052-9.027-9.027-9.027-9.027 4.052-9.027 9.027 4.052 9.027 9.027 9.027zM16 7.113c4.587 0 8.314 3.727 8.314 8.314s-3.727 8.314-8.314 8.314-8.314-3.727-8.314-8.314 3.727-8.314 8.314-8.314z"></path>
<path fill="#fff" d="M22.214 13.49c0.047 0.155 0.186 0.248 0.341 0.248 0.039 0 0.070-0.008 0.108-0.015 0.186-0.062 0.294-0.256 0.232-0.449-0.163-0.511-0.38-1.015-0.651-1.48-0.101-0.17-0.318-0.225-0.488-0.132-0.17 0.101-0.225 0.318-0.132 0.488 0.248 0.426 0.442 0.876 0.589 1.34z"></path>
<path fill="#fff" d="M22.508 15.427c0 0.488-0.054 0.976-0.163 1.449-0.047 0.194 0.077 0.38 0.271 0.426 0.023 0.008 0.054 0.008 0.077 0.008 0.163 0 0.31-0.108 0.349-0.279 0.116-0.527 0.178-1.062 0.178-1.604v-0.031c0-0.194-0.163-0.341-0.356-0.341s-0.356 0.178-0.356 0.372z"></path>
<path fill="#fff" d="M19.262 21.067c-0.418 0.248-0.868 0.442-1.333 0.581-0.186 0.062-0.294 0.256-0.232 0.449 0.047 0.155 0.186 0.248 0.341 0.248 0.031 0 0.070-0.008 0.108-0.015 0.519-0.163 1.015-0.38 1.48-0.651 0.17-0.101 0.225-0.318 0.132-0.488-0.108-0.163-0.325-0.225-0.496-0.124z"></path>
<path fill="#fff" d="M16 21.943c-0.488 0-0.969-0.054-1.441-0.163-0.194-0.047-0.38 0.077-0.426 0.271s0.077 0.38 0.271 0.426c0.519 0.116 1.062 0.178 1.596 0.178h0.008c0.194 0 0.356-0.163 0.356-0.356 0-0.201-0.17-0.356-0.364-0.356z"></path>
<path fill="#fff" d="M22.129 18.549c-0.17-0.101-0.387-0.039-0.488 0.132-0.24 0.418-0.535 0.814-0.868 1.17-0.132 0.147-0.124 0.372 0.015 0.504 0.070 0.062 0.155 0.093 0.24 0.093 0.093 0 0.194-0.039 0.263-0.116 0.364-0.395 0.69-0.837 0.961-1.302 0.101-0.163 0.047-0.38-0.124-0.48z"></path>
<path fill="#fff" d="M19.239 9.778c0.418 0.24 0.814 0.535 1.178 0.86 0.070 0.062 0.155 0.093 0.24 0.093 0.093 0 0.194-0.039 0.263-0.116 0.132-0.147 0.124-0.372-0.023-0.504-0.395-0.364-0.837-0.69-1.302-0.953-0.17-0.101-0.387-0.039-0.488 0.132s-0.039 0.387 0.132 0.488z"></path>
<path fill="#fff" d="M16 8.918c0.48 0 0.961 0.054 1.426 0.155 0.023 0.008 0.054 0.008 0.077 0.008 0.163 0 0.31-0.116 0.349-0.279 0.047-0.194-0.077-0.38-0.271-0.426-0.519-0.116-1.054-0.17-1.581-0.17h-0.023c-0.194 0-0.349 0.163-0.349 0.356s0.178 0.356 0.372 0.356z"></path>
<path fill="#fff" d="M10.367 18.696c-0.248-0.418-0.442-0.868-0.589-1.333-0.054-0.186-0.256-0.294-0.449-0.232-0.186 0.062-0.294 0.256-0.232 0.449 0.163 0.519 0.38 1.015 0.651 1.48 0.070 0.116 0.186 0.178 0.31 0.178 0.062 0 0.124-0.015 0.178-0.047 0.17-0.108 0.232-0.325 0.132-0.496z"></path>
<path fill="#fff" d="M11.095 20.734c0.395 0.364 0.837 0.69 1.302 0.961 0.054 0.031 0.116 0.047 0.178 0.047 0.124 0 0.24-0.062 0.31-0.178 0.101-0.17 0.039-0.387-0.132-0.488-0.418-0.24-0.814-0.535-1.17-0.868-0.147-0.132-0.372-0.124-0.504 0.023-0.139 0.139-0.132 0.364 0.015 0.504z"></path>
<path fill="#fff" d="M9.492 15.427c0-0.488 0.054-0.969 0.155-1.433 0.046-0.194-0.077-0.38-0.271-0.426s-0.38 0.077-0.426 0.271c-0.116 0.519-0.178 1.054-0.178 1.604v0c0 0.194 0.163 0.349 0.356 0.349 0.201 0 0.364-0.163 0.364-0.364z"></path>
<path fill="#fff" d="M9.863 12.32c0.054 0.031 0.116 0.046 0.178 0.046 0.124 0 0.24-0.062 0.31-0.178 0.24-0.418 0.535-0.814 0.86-1.178 0.132-0.147 0.124-0.372-0.023-0.504s-0.372-0.124-0.504 0.023c-0.364 0.395-0.69 0.837-0.961 1.302-0.085 0.17-0.031 0.387 0.139 0.488z"></path>
<path fill="#fff" d="M12.552 9.848c0.062 0 0.124-0.015 0.178-0.046 0.418-0.248 0.868-0.442 1.333-0.589 0.186-0.062 0.294-0.256 0.232-0.449-0.054-0.186-0.256-0.294-0.449-0.232-0.511 0.163-1.015 0.38-1.48 0.651-0.17 0.101-0.225 0.318-0.132 0.488 0.070 0.116 0.194 0.178 0.318 0.178z"></path>
<path fill="#fff" d="M16 19.363c2.169 0 3.936-1.767 3.936-3.936s-1.767-3.936-3.936-3.936-3.936 1.767-3.936 3.936 1.767 3.936 3.936 3.936zM16 12.211c1.774 0 3.223 1.441 3.223 3.223s-1.441 3.223-3.223 3.223-3.223-1.441-3.223-3.223 1.449-3.223 3.223-3.223z"></path>
<path fill="#fff" d="M15.279 14.009c0.225-0.116 0.465-0.17 0.721-0.17 0.883 0 1.596 0.713 1.596 1.596 0 0.356-0.116 0.69-0.333 0.969-0.116 0.155-0.093 0.38 0.062 0.504 0.062 0.047 0.139 0.077 0.217 0.077 0.108 0 0.217-0.047 0.287-0.139 0.31-0.403 0.48-0.891 0.48-1.402 0-1.271-1.038-2.309-2.309-2.309-0.364 0-0.728 0.085-1.046 0.248-0.178 0.093-0.248 0.302-0.155 0.48 0.085 0.163 0.302 0.232 0.48 0.147z"></path>
</svg>
