<!-- Generated by IcoMoon.io -->
<svg version="1.1" xmlns="http://www.w3.org/2000/svg" width="32" height="32" viewBox="0 0 32 32">
<title>cyber-fingerprint</title>
<path fill="#fff" d="M23.291 0.504h-3.564c-0.178 0-0.318 0.139-0.318 0.318s0.139 0.318 0.318 0.318h3.564c2.363 0 4.285 1.922 4.285 4.285v5.005c0 0.178 0.139 0.318 0.318 0.318s0.318-0.139 0.318-0.318v-5.005c0.008-2.712-2.2-4.92-4.92-4.92z"></path>
<path fill="#fff" d="M4.107 10.754c0.178 0 0.318-0.139 0.318-0.318v-5.013c0-2.363 1.922-4.285 4.285-4.285h3.75c0.178 0 0.318-0.139 0.318-0.318s-0.139-0.318-0.318-0.318h-3.75c-2.72 0-4.928 2.208-4.928 4.92v5.005c0 0.178 0.147 0.325 0.325 0.325z"></path>
<path fill="#fff" d="M27.893 21.586c-0.178 0-0.318 0.139-0.318 0.318v4.672c0 2.363-1.922 4.285-4.285 4.285h-3.564c-0.178 0-0.318 0.139-0.318 0.318s0.139 0.318 0.318 0.318h3.564c2.712 0 4.92-2.208 4.92-4.92v-4.672c0.008-0.178-0.139-0.318-0.318-0.318z"></path>
<path fill="#fff" d="M12.459 30.861h-3.75c-2.363 0-4.285-1.922-4.285-4.285v-4.672c0-0.178-0.139-0.318-0.318-0.318s-0.318 0.139-0.318 0.318v4.672c0 2.712 2.208 4.92 4.92 4.92h3.75c0.178 0 0.318-0.139 0.318-0.318s-0.147-0.318-0.318-0.318z"></path>
<path fill="#fff" d="M23.864 21.044c0-0.178-0.139-0.318-0.318-0.318s-0.318 0.139-0.318 0.318c0 3.897-3.169 7.066-7.066 7.066h-0.271c-3.897 0-7.066-3.169-7.066-7.066v-2.108c0.411-0.132 0.713-0.519 0.713-0.976 0-0.573-0.465-1.038-1.038-1.038s-1.038 0.465-1.038 1.038c0 0.457 0.302 0.845 0.713 0.976v2.108c0 4.246 3.456 7.702 7.702 7.702h0.271c4.262 0 7.717-3.456 7.717-7.702zM8.508 17.557c0.217 0 0.395 0.178 0.395 0.395s-0.178 0.395-0.395 0.395c-0.217 0-0.395-0.178-0.395-0.395s0.178-0.395 0.395-0.395z"></path>
<path fill="#fff" d="M8.19 10.995c0 0.178 0.139 0.318 0.318 0.318s0.318-0.139 0.318-0.318c0-3.897 3.169-7.066 7.066-7.066h0.271c3.897 0 7.066 3.169 7.066 7.066v1.922c-0.411 0.132-0.713 0.519-0.713 0.976 0 0.573 0.465 1.038 1.038 1.038s1.038-0.465 1.038-1.038c0-0.457-0.302-0.845-0.713-0.976v-1.922c0-4.246-3.456-7.702-7.702-7.702h-0.271c-4.261 0-7.717 3.456-7.717 7.702zM23.539 14.295c-0.217 0-0.395-0.178-0.395-0.395s0.178-0.395 0.395-0.395c0.217 0 0.395 0.178 0.395 0.395s-0.17 0.395-0.395 0.395z"></path>
<path fill="#fff" d="M15.969 27.064c1.317 0 2.596-0.442 3.634-1.232 0.155 0.085 0.325 0.147 0.519 0.147 0.573 0 1.038-0.465 1.038-1.038s-0.465-1.038-1.038-1.038-1.038 0.465-1.038 1.038c0 0.147 0.031 0.287 0.093 0.418-0.922 0.69-2.046 1.069-3.2 1.069-2.952 0-5.354-2.402-5.354-5.354 0-0.178-0.139-0.318-0.318-0.318s-0.318 0.139-0.318 0.318c-0.008 3.308 2.681 5.989 5.982 5.989zM20.114 24.546c0.217 0 0.395 0.178 0.395 0.395s-0.178 0.395-0.395 0.395c-0.217 0-0.395-0.178-0.395-0.395s0.178-0.395 0.395-0.395z"></path>
<path fill="#fff" d="M21.54 23.283c0.248-0.635 0.387-1.302 0.411-1.984 0.418-0.132 0.728-0.519 0.728-0.984 0-0.573-0.465-1.038-1.038-1.038s-1.038 0.465-1.038 1.038c0 0.457 0.294 0.837 0.705 0.976-0.023 0.604-0.139 1.193-0.364 1.751-0.062 0.163 0.015 0.349 0.178 0.411 0.039 0.015 0.077 0.023 0.116 0.023 0.132 0.008 0.248-0.062 0.302-0.194zM21.641 19.928c0.217 0 0.395 0.178 0.395 0.395s-0.178 0.395-0.395 0.395c-0.217 0-0.395-0.178-0.395-0.395s0.17-0.395 0.395-0.395z"></path>
<path fill="#fff" d="M21.641 11.506c0.178 0 0.318-0.139 0.318-0.318 0-3.301-2.689-5.989-5.989-5.989s-5.989 2.689-5.989 5.989v0.635c-0.411 0.132-0.713 0.519-0.713 0.976 0 0.573 0.465 1.038 1.038 1.038s1.038-0.465 1.038-1.038c0-0.457-0.302-0.845-0.713-0.976v-0.635c0-2.952 2.402-5.354 5.354-5.354s5.354 2.402 5.354 5.354c-0.015 0.178 0.124 0.318 0.302 0.318zM10.297 13.195c-0.217 0-0.395-0.178-0.395-0.395s0.178-0.395 0.395-0.395 0.395 0.178 0.395 0.395-0.178 0.395-0.395 0.395z"></path>
<path fill="#fff" d="M15.969 25.011c2.293 0 4.161-1.867 4.161-4.161 0-0.178-0.139-0.318-0.318-0.318s-0.318 0.139-0.318 0.318c0 1.945-1.581 3.525-3.525 3.525s-3.525-1.581-3.525-3.525v-0.232c0.411-0.132 0.713-0.519 0.713-0.976 0-0.573-0.465-1.038-1.038-1.038s-1.038 0.465-1.038 1.038c0 0.457 0.302 0.845 0.713 0.976v0.232c0.008 2.293 1.875 4.161 4.176 4.161zM12.126 19.247c0.217 0 0.395 0.178 0.395 0.395s-0.178 0.395-0.395 0.395-0.395-0.178-0.395-0.395c-0.008-0.217 0.17-0.395 0.395-0.395z"></path>
<path fill="#fff" d="M14.381 21.114c0-0.178-0.139-0.318-0.318-0.318s-0.318 0.139-0.318 0.318c0 1.216 0.992 2.208 2.208 2.208h0.132c1.216 0 2.208-0.992 2.208-2.208v-1.542c0.411-0.132 0.713-0.519 0.713-0.976 0-0.573-0.465-1.038-1.038-1.038s-1.038 0.465-1.038 1.038c0 0.457 0.302 0.845 0.713 0.976v1.542c0 0.868-0.705 1.565-1.565 1.565h-0.132c-0.86 0.008-1.565-0.697-1.565-1.565zM17.968 18.2c0.217 0 0.395 0.178 0.395 0.395s-0.178 0.395-0.395 0.395-0.395-0.178-0.395-0.395 0.178-0.395 0.395-0.395z"></path>
<path fill="#fff" d="M14.613 10.328c0.093-0.147 0.046-0.349-0.101-0.442s-0.349-0.046-0.442 0.101c-0.217 0.349-0.333 0.752-0.333 1.162v2.076c-0.411 0.132-0.713 0.519-0.713 0.984 0 0.573 0.465 1.038 1.038 1.038s1.038-0.465 1.038-1.038c0-0.457-0.302-0.845-0.713-0.984v-2.076c-0.008-0.294 0.070-0.581 0.225-0.821zM14.063 14.605c-0.217 0-0.395-0.178-0.395-0.395s0.178-0.395 0.395-0.395 0.395 0.178 0.395 0.395-0.178 0.395-0.395 0.395z"></path>
<path fill="#fff" d="M16.085 8.941h-0.132c-0.139 0-0.279 0.015-0.418 0.039-0.17 0.031-0.287 0.201-0.256 0.372s0.201 0.287 0.372 0.256c0.101-0.015 0.194-0.031 0.294-0.031h0.132c0.868 0 1.565 0.705 1.565 1.565v1.139c-0.411 0.132-0.713 0.519-0.713 0.976 0 0.573 0.465 1.038 1.038 1.038s1.038-0.465 1.038-1.038c0-0.457-0.302-0.845-0.713-0.976v-1.139c-0.008-1.209-0.992-2.2-2.208-2.2zM17.968 13.66c-0.217 0-0.395-0.178-0.395-0.395s0.178-0.395 0.395-0.395 0.395 0.178 0.395 0.395-0.17 0.395-0.395 0.395z"></path>
<path fill="#fff" d="M20.85 15.14c0-0.457-0.302-0.845-0.713-0.976v-2.743c0-2.293-1.867-4.161-4.161-4.161s-4.161 1.867-4.161 4.161c0 0.178 0.139 0.318 0.318 0.318s0.318-0.139 0.318-0.318c0-1.945 1.581-3.525 3.525-3.525s3.525 1.581 3.525 3.525v2.743c-0.411 0.132-0.713 0.519-0.713 0.976 0 0.573 0.465 1.038 1.038 1.038 0.558 0 1.023-0.465 1.023-1.038zM19.812 15.543c-0.217 0-0.395-0.178-0.395-0.395s0.178-0.395 0.395-0.395 0.395 0.178 0.395 0.395-0.178 0.395-0.395 0.395z"></path>
<path fill="#fff" d="M16.511 21.145c0 0.27-0.219 0.488-0.488 0.488s-0.488-0.219-0.488-0.488c0-0.27 0.219-0.488 0.488-0.488s0.488 0.219 0.488 0.488z"></path>
<path fill="#fff" d="M16.511 11.15c0 0.27-0.219 0.488-0.488 0.488s-0.488-0.219-0.488-0.488c0-0.27 0.219-0.488 0.488-0.488s0.488 0.219 0.488 0.488z"></path>
</svg>
