<!-- Generated by IcoMoon.io -->
<svg version="1.1" xmlns="http://www.w3.org/2000/svg" width="32" height="32" viewBox="0 0 32 32">
<title>cycle</title>
<path fill="#fff" d="M10.623 3.944c-3.797 0-6.888 3.092-6.888 6.888 0 0.225 0.186 0.411 0.411 0.411s0.411-0.186 0.411-0.411c0-3.347 2.72-6.067 6.067-6.067 0.225 0 0.411-0.186 0.411-0.411-0.008-0.232-0.186-0.411-0.411-0.411z"></path>
<path fill="#fff" d="M10.623 27.475c-3.347 0-6.067-2.72-6.067-6.067 0-0.225-0.186-0.411-0.411-0.411s-0.411 0.186-0.411 0.411c0 3.797 3.092 6.888 6.888 6.888 0.225 0 0.411-0.186 0.411-0.411s-0.186-0.411-0.411-0.411z"></path>
<path fill="#fff" d="M28.010 20.998c-0.225 0-0.411 0.186-0.411 0.411 0 3.347-2.72 6.067-6.067 6.067-0.225 0-0.411 0.186-0.411 0.411s0.186 0.411 0.411 0.411c3.797 0 6.888-3.092 6.888-6.888-0.008-0.225-0.186-0.411-0.411-0.411z"></path>
<path fill="#fff" d="M21.532 4.757c3.347 0 6.067 2.72 6.067 6.067 0 0.225 0.186 0.411 0.411 0.411s0.411-0.186 0.411-0.411c0-3.797-3.092-6.888-6.888-6.888-0.225 0-0.411 0.186-0.411 0.411 0 0.232 0.186 0.411 0.411 0.411z"></path>
<path fill="#fff" d="M13.954 6.865h3.952c0.666 0 1.209-0.542 1.209-1.209v-3.944c0-0.666-0.542-1.209-1.209-1.209h-3.952c-0.666 0-1.209 0.542-1.209 1.209v3.944c0.008 0.666 0.55 1.209 1.209 1.209zM13.567 1.712c0-0.217 0.17-0.387 0.387-0.387h3.952c0.217 0 0.387 0.17 0.387 0.387v3.944c0 0.217-0.17 0.387-0.387 0.387h-3.952c-0.217 0-0.387-0.17-0.387-0.387v-3.944z"></path>
<path fill="#fff" d="M18.007 25.135h-3.944c-0.666 0-1.209 0.542-1.209 1.209v3.944c0 0.666 0.542 1.209 1.209 1.209h3.944c0.666 0 1.209-0.542 1.209-1.209v-3.944c-0.008-0.666-0.55-1.209-1.209-1.209zM18.394 30.288c0 0.217-0.17 0.387-0.387 0.387h-3.944c-0.217 0-0.387-0.17-0.387-0.387v-3.944c0-0.217 0.17-0.387 0.387-0.387h3.944c0.217 0 0.387 0.17 0.387 0.387v3.944z"></path>
<path fill="#fff" d="M30.45 12.893h-3.944c-0.666 0-1.209 0.542-1.209 1.209v3.944c0 0.666 0.542 1.209 1.209 1.209h3.944c0.666 0 1.209-0.542 1.209-1.209v-3.944c0-0.674-0.542-1.209-1.209-1.209zM30.838 18.046c0 0.217-0.17 0.387-0.387 0.387h-3.944c-0.217 0-0.387-0.17-0.387-0.387v-3.944c0-0.217 0.17-0.387 0.387-0.387h3.944c0.217 0 0.387 0.17 0.387 0.387v3.944z"></path>
<path fill="#fff" d="M6.702 18.046v-3.944c0-0.666-0.542-1.209-1.209-1.209h-3.944c-0.666 0-1.209 0.542-1.209 1.209v3.944c0 0.666 0.542 1.209 1.209 1.209h3.944c0.666-0.008 1.209-0.55 1.209-1.209zM1.162 18.046v-3.944c0-0.217 0.17-0.387 0.387-0.387h3.944c0.217 0 0.387 0.17 0.387 0.387v3.944c0 0.217-0.17 0.387-0.387 0.387h-3.944c-0.217 0-0.387-0.178-0.387-0.387z"></path>
</svg>
