<!-- Generated by IcoMoon.io -->
<svg version="1.1" xmlns="http://www.w3.org/2000/svg" width="32" height="32" viewBox="0 0 32 32">
<title>data-partnership</title>
<path fill="#fff" d="M31.124 17.093h-4.401v-9.352c0-0.008-0.008-0.016-0.008-0.023 0-0.031-0.008-0.062-0.023-0.101-0.008-0.016-0.008-0.023-0.015-0.039-0.015-0.039-0.039-0.077-0.070-0.108v0l-6.23-6.23c-0.031-0.031-0.070-0.054-0.108-0.070-0.015-0.008-0.023-0.008-0.039-0.016-0.031-0.008-0.062-0.016-0.093-0.016-0.008 0-0.015-0.008-0.023-0.008h-13.9c-0.519 0-0.938 0.418-0.938 0.938v14.985h-0.496c-0.016 0-0.023-0.008-0.039-0.008h-3.866c-0.209 0-0.372 0.17-0.372 0.372v9.98c0 0.209 0.17 0.372 0.372 0.372h3.866c0.209 0 0.372-0.17 0.372-0.372v-1.55h1.038l6.725 4.293c0.814 0.48 1.697 0.721 2.673 0.721 0.674 0 1.395-0.116 2.17-0.349l4.928-1.674 0.287 0.263c0.349 0.318 0.798 0.488 1.263 0.488 0.535 0 1.046-0.225 1.402-0.628 0.341-0.372 0.511-0.86 0.488-1.364s-0.248-0.969-0.62-1.309l-0.256-0.232 0.635-0.566h1.030v1.891c0 0.209 0.17 0.372 0.372 0.372h3.866c0.209 0 0.372-0.17 0.372-0.372v-9.918c0.008-0.201-0.163-0.372-0.364-0.372zM20.486 2.41l4.959 4.959h-4.959v-4.959zM6.028 2.069c0-0.101 0.085-0.186 0.186-0.186h13.528v5.858c0 0.209 0.17 0.372 0.372 0.372h5.858v8.98h-3.773c0.194-0.318 0.302-0.69 0.302-1.092v-0.736c0-0.209-0.17-0.372-0.372-0.372h-8.639c-0.070 0-0.132 0.015-0.194 0.054l-3.549 2.107h-3.719v-14.985zM4.37 27.033h-3.123v-9.236h3.123v9.236zM25.058 28.475c-0.008 0-0.008 0 0 0-0.403 0.449-1.162 0.496-1.612 0.085l-0.449-0.411c-0.101-0.093-0.24-0.124-0.372-0.077l-5.122 1.736c-1.666 0.496-3.045 0.395-4.223-0.302l-6.803-4.347c-0.062-0.039-0.132-0.062-0.201-0.062h-1.154v-7.299h4.734c0.070 0 0.132-0.015 0.194-0.054l3.549-2.107h8.174v0.364c0 0.759-0.612 1.371-1.371 1.371h-4.23c-0.070 0-0.139 0.023-0.201 0.062l-7.454 4.742c-0.093 0.062-0.155 0.155-0.17 0.271-0.015 0.108 0.023 0.217 0.093 0.302l0.527 0.566c0.868 0.938 2.239 1.139 3.339 0.511l3.332-1.852h3.921l5.416 4.897c0.225 0.201 0.356 0.488 0.372 0.79 0.015 0.294-0.085 0.589-0.287 0.814zM25.701 24.755c-0.093 0-0.178 0.031-0.248 0.093l-0.798 0.721-3.99-3.603h1.519c0.209 0 0.372-0.17 0.372-0.372 0-0.209-0.17-0.372-0.372-0.372h-6.648c-0.046 0-0.085 0.008-0.132 0.023-0.008 0-0.023 0.008-0.031 0.015-0.008 0-0.015 0.008-0.023 0.008l-3.417 1.898c-0.806 0.457-1.798 0.31-2.425-0.372l-0.217-0.24 6.981-4.44h4.122c0.38 0 0.744-0.101 1.054-0.279h5.439v6.919h-1.185zM30.753 27.018h-3.123v-9.182h3.123v9.182z"></path>
<path fill="#fff" d="M10.6 8.182c1.457 0 1.526-1.387 1.526-2.224 0-0.969-0.124-2.092-1.526-2.092-1.418 0-1.48 1.449-1.48 2.092 0 0.93 0.054 2.224 1.48 2.224zM10.6 4.308c0.914 0 1.030 0.643 1.030 1.712 0 0.961-0.147 1.697-1.030 1.697-0.868 0-0.976-0.697-0.976-1.697 0-0.93 0.116-1.712 0.976-1.712z"></path>
<path fill="#fff" d="M13.172 8.12h2.084c0.062 0 0.093-0.023 0.093-0.085v-0.279c0-0.062-0.039-0.085-0.093-0.085h-0.829v-3.649c0-0.062 0-0.108-0.108-0.108h-0.263c-0.085 0-0.17 0.015-0.248 0.054l-0.597 0.201c-0.062 0.016-0.070 0.062-0.070 0.108v0.155c0 0.062 0.015 0.077 0.085 0.077h0.713v3.161h-0.767c-0.054 0-0.093 0.023-0.093 0.085v0.279c0 0.062 0.039 0.085 0.093 0.085z"></path>
<path fill="#fff" d="M12.126 11.661c0-0.969-0.124-2.092-1.526-2.092-1.418 0-1.48 1.449-1.48 2.092 0 0.93 0.054 2.224 1.48 2.224 1.457 0 1.526-1.387 1.526-2.224zM9.623 11.731c0-0.93 0.124-1.712 0.976-1.712 0.914 0 1.030 0.643 1.030 1.712 0 0.961-0.147 1.697-1.030 1.697-0.868 0-0.976-0.697-0.976-1.697z"></path>
<path fill="#fff" d="M13.172 13.831h2.084c0.062 0 0.093-0.023 0.093-0.085v-0.279c0-0.062-0.039-0.085-0.093-0.085h-0.829v-3.649c0-0.062 0-0.108-0.108-0.108h-0.263c-0.085 0-0.17 0.015-0.248 0.054l-0.597 0.201c-0.062 0.015-0.070 0.062-0.070 0.108v0.155c0 0.062 0.015 0.077 0.085 0.077h0.713v3.161h-0.767c-0.054 0-0.093 0.023-0.093 0.085v0.279c0 0.054 0.039 0.085 0.093 0.085z"></path>
<path fill="#fff" d="M16.697 13.831h2.084c0.062 0 0.093-0.023 0.093-0.085v-0.279c0-0.062-0.039-0.085-0.093-0.085h-0.829v-3.649c0-0.062 0-0.108-0.108-0.108h-0.263c-0.085 0-0.17 0.015-0.248 0.054l-0.597 0.201c-0.062 0.015-0.070 0.062-0.070 0.108v0.155c0 0.062 0.015 0.077 0.085 0.077h0.713v3.161h-0.759c-0.054 0-0.093 0.023-0.093 0.085v0.279c-0.008 0.054 0.031 0.085 0.085 0.085z"></path>
<path fill="#fff" d="M21.176 13.885c1.457 0 1.526-1.387 1.526-2.224 0-0.969-0.124-2.092-1.526-2.092-1.418 0-1.48 1.449-1.48 2.092 0.008 0.938 0.054 2.224 1.48 2.224zM21.176 10.018c0.914 0 1.030 0.643 1.030 1.712 0 0.961-0.147 1.697-1.030 1.697-0.868 0-0.976-0.697-0.976-1.697 0-0.938 0.124-1.712 0.976-1.712z"></path>
</svg>
