<!-- Generated by IcoMoon.io -->
<svg version="1.1" xmlns="http://www.w3.org/2000/svg" width="32" height="32" viewBox="0 0 32 32">
<title>data-market-platform</title>
<path fill="#fff" d="M21.060 12.645c0-0.201-0.163-0.356-0.356-0.356h-1.798c-0.201 0-0.356 0.163-0.356 0.356v6.4h-1.348v-5.060c0-0.201-0.163-0.356-0.356-0.356h-1.813c-0.201 0-0.356 0.163-0.356 0.356v5.060h-1.348v-3.363c0-0.201-0.163-0.356-0.356-0.356h-1.798c-0.201 0-0.356 0.163-0.356 0.356v3.363h-0.558c-0.201 0-0.356 0.163-0.356 0.356 0 0.201 0.163 0.356 0.356 0.356h11.374c0.201 0 0.356-0.163 0.356-0.356 0-0.201-0.163-0.356-0.356-0.356h-0.566v-6.4h-0.008zM19.262 13.001h1.085v6.036h-1.085v-6.036zM15.396 14.334h1.085v4.703h-1.085v-4.703zM11.522 16.031h1.085v3.006h-1.085v-3.006z"></path>
<path fill="#fff" d="M13.792 3.843l1.782-1.782v4.060c0 0.201 0.163 0.356 0.356 0.356 0.201 0 0.356-0.163 0.356-0.356v-4.068l1.782 1.782c0.070 0.070 0.163 0.108 0.256 0.108s0.186-0.039 0.256-0.108c0.139-0.139 0.139-0.364 0-0.504l-2.394-2.394c0 0 0 0-0.008 0-0.062-0.062-0.155-0.101-0.248-0.101-0.101 0-0.186 0.039-0.256 0.108l-2.386 2.386c-0.139 0.139-0.139 0.364 0 0.504 0.139 0.147 0.364 0.147 0.504 0.008z"></path>
<path fill="#fff" d="M18.076 28.157l-1.782 1.782v-4.060c0-0.201-0.163-0.356-0.356-0.356-0.201 0-0.356 0.163-0.356 0.356v4.060l-1.782-1.782c-0.139-0.139-0.364-0.139-0.504 0s-0.139 0.364 0 0.504l2.394 2.394c0 0 0.008 0.008 0.015 0.008 0.031 0.031 0.062 0.054 0.101 0.070 0.046 0.015 0.093 0.031 0.139 0.031s0.093-0.008 0.139-0.031c0.047-0.015 0.085-0.047 0.116-0.077l2.394-2.394c0.139-0.139 0.139-0.364 0-0.504-0.155-0.139-0.38-0.139-0.519 0z"></path>
<path fill="#fff" d="M31.465 16.821c0.039-0.085 0.039-0.186 0-0.271-0.015-0.039-0.039-0.070-0.070-0.101 0-0.008-0.008-0.008-0.008-0.015l-2.394-2.394c-0.139-0.139-0.364-0.139-0.504 0s-0.139 0.364 0 0.504l1.782 1.782h-4.068c-0.201 0-0.356 0.163-0.356 0.356 0 0.201 0.163 0.356 0.356 0.356h4.068l-1.782 1.782c-0.139 0.139-0.139 0.364 0 0.504 0.070 0.070 0.163 0.108 0.256 0.108s0.186-0.039 0.256-0.108l2.394-2.394c0 0 0.008-0.008 0.008-0.015 0.023-0.015 0.047-0.054 0.062-0.093z"></path>
<path fill="#fff" d="M5.788 16.325h-4.060l1.782-1.782c0.139-0.139 0.139-0.364 0-0.504s-0.364-0.139-0.504 0l-2.394 2.394c-0.031 0.031-0.062 0.070-0.077 0.116-0.039 0.085-0.039 0.186 0 0.271 0.015 0.047 0.046 0.085 0.077 0.116l2.394 2.394c0.070 0.070 0.163 0.108 0.256 0.108s0.186-0.039 0.256-0.108c0.139-0.139 0.139-0.364 0-0.504l-1.782-1.782h4.060c0.201 0 0.356-0.163 0.356-0.356-0.008-0.201-0.163-0.364-0.364-0.364z"></path>
<path fill="#fff" d="M15.93 7.462c-4.719 0-8.562 3.843-8.562 8.562s3.843 8.562 8.562 8.562 8.562-3.843 8.562-8.562-3.835-8.562-8.562-8.562zM15.93 23.864c-4.323 0-7.841-3.518-7.841-7.841s3.518-7.841 7.841-7.841 7.841 3.518 7.841 7.841-3.51 7.841-7.841 7.841z"></path>
</svg>
