<!-- Generated by IcoMoon.io -->
<svg version="1.1" xmlns="http://www.w3.org/2000/svg" width="32" height="32" viewBox="0 0 32 32">
<title>database</title>
<path fill="#fff" d="M29.49 5.858h-0.031c-0.077-3.006-5.966-5.354-13.474-5.354-7.554 0-13.474 2.379-13.474 5.416 0 0.062 0.008 0.124 0.008 0.178v7.051h-0.008c0 0.062 0.008 0.124 0.008 0.178v6.284h-0.008c0 0.062 0.008 0.124 0.008 0.178v6.284h-0.008c0 3.037 5.92 5.416 13.474 5.416 7.524 0 13.428-2.363 13.474-5.377h0.023v-20.254h0.008zM15.985 1.41c7.516 0 12.568 2.332 12.568 4.509s-5.052 4.509-12.568 4.509c-7.338 0-12.327-2.224-12.552-4.354v-0.209h-0.008c0.093-2.17 5.114-4.455 12.56-4.455zM15.985 11.328c5.827 0 10.677-1.41 12.591-3.456v5.269h-0.023c0 2.177-5.052 4.509-12.568 4.509-7.338 0-12.327-2.224-12.552-4.354v-5.393c1.937 2.030 6.764 3.425 12.552 3.425zM15.985 18.565c5.827 0 10.677-1.41 12.591-3.456v4.502h-0.023c0 2.177-5.052 4.509-12.568 4.509-7.338 0-12.327-2.224-12.552-4.354v-4.626c1.937 2.030 6.764 3.425 12.552 3.425zM15.985 30.59c-7.477 0-12.513-2.309-12.568-4.471h0.008v-4.502c1.937 2.022 6.764 3.417 12.552 3.417 5.827 0 10.677-1.41 12.591-3.456v4.502h-0.023c0.008 2.177-5.036 4.509-12.56 4.509z"></path>
<path fill="#fff" d="M26.785 12.746c0 0.522-0.423 0.945-0.945 0.945s-0.945-0.423-0.945-0.945c0-0.522 0.423-0.945 0.945-0.945s0.945 0.423 0.945 0.945z"></path>
<path fill="#fff" d="M26.785 19.618c0 0.522-0.423 0.945-0.945 0.945s-0.945-0.423-0.945-0.945c0-0.522 0.423-0.945 0.945-0.945s0.945 0.423 0.945 0.945z"></path>
<path fill="#fff" d="M26.785 26.080c0 0.522-0.423 0.945-0.945 0.945s-0.945-0.423-0.945-0.945c0-0.522 0.423-0.945 0.945-0.945s0.945 0.423 0.945 0.945z"></path>
</svg>
