<!-- Generated by IcoMoon.io -->
<svg version="1.1" xmlns="http://www.w3.org/2000/svg" width="32" height="32" viewBox="0 0 32 32">
<title>data-01</title>
<path fill="#fff" d="M24.244 0.504h-16.488c-0.697 0-1.263 0.566-1.263 1.263v28.459c0 0.697 0.566 1.263 1.263 1.263h16.496c0.666 0 1.263-0.604 1.263-1.263v-28.459c0-0.659-0.604-1.263-1.271-1.263zM24.6 30.233c0 0.147-0.201 0.349-0.349 0.349h-16.496c-0.24 0-0.349-0.209-0.349-0.349v-28.467c0-0.139 0.108-0.349 0.349-0.349h16.496c0.147 0 0.349 0.201 0.349 0.349v28.467z"></path>
<path fill="#fff" d="M22.268 9.569h-2.51c-0.256 0-0.457 0.201-0.457 0.457s0.201 0.457 0.457 0.457h2.51c0.256 0 0.457-0.201 0.457-0.457 0-0.248-0.209-0.457-0.457-0.457z"></path>
<path fill="#fff" d="M17.054 9.569h-2.503c-0.256 0-0.457 0.201-0.457 0.457s0.201 0.457 0.457 0.457h2.503c0.256 0 0.457-0.201 0.457-0.457 0-0.248-0.209-0.457-0.457-0.457z"></path>
<path fill="#fff" d="M11.831 9.569h-2.503c-0.256 0-0.457 0.201-0.457 0.457s0.201 0.457 0.457 0.457h2.503c0.256 0 0.457-0.201 0.457-0.457 0-0.248-0.201-0.457-0.457-0.457z"></path>
<path fill="#fff" d="M22.268 13.025h-2.51c-0.256 0-0.457 0.201-0.457 0.457s0.201 0.457 0.457 0.457h2.51c0.256 0 0.457-0.201 0.457-0.457s-0.209-0.457-0.457-0.457z"></path>
<path fill="#fff" d="M17.054 13.025h-2.503c-0.256 0-0.457 0.201-0.457 0.457s0.201 0.457 0.457 0.457h2.503c0.256 0 0.457-0.201 0.457-0.457s-0.209-0.457-0.457-0.457z"></path>
<path fill="#fff" d="M11.831 13.025h-2.503c-0.256 0-0.457 0.201-0.457 0.457s0.201 0.457 0.457 0.457h2.503c0.256 0 0.457-0.201 0.457-0.457s-0.201-0.457-0.457-0.457z"></path>
<path fill="#fff" d="M22.268 16.473h-2.51c-0.256 0-0.457 0.201-0.457 0.457s0.201 0.457 0.457 0.457h2.51c0.256 0 0.457-0.201 0.457-0.457s-0.209-0.457-0.457-0.457z"></path>
<path fill="#fff" d="M17.054 16.473h-2.503c-0.256 0-0.457 0.201-0.457 0.457s0.201 0.457 0.457 0.457h2.503c0.256 0 0.457-0.201 0.457-0.457s-0.209-0.457-0.457-0.457z"></path>
<path fill="#fff" d="M11.831 16.473h-2.503c-0.256 0-0.457 0.201-0.457 0.457s0.201 0.457 0.457 0.457h2.503c0.256 0 0.457-0.201 0.457-0.457s-0.201-0.457-0.457-0.457z"></path>
<path fill="#fff" d="M22.268 20.083h-2.51c-0.256 0-0.457 0.201-0.457 0.457s0.201 0.457 0.457 0.457h2.51c0.256 0 0.457-0.201 0.457-0.457s-0.209-0.457-0.457-0.457z"></path>
<path fill="#fff" d="M17.054 20.083h-2.503c-0.256 0-0.457 0.201-0.457 0.457s0.201 0.457 0.457 0.457h2.503c0.256 0 0.457-0.201 0.457-0.457s-0.209-0.457-0.457-0.457z"></path>
<path fill="#fff" d="M11.831 20.083h-2.503c-0.256 0-0.457 0.201-0.457 0.457s0.201 0.457 0.457 0.457h2.503c0.256 0 0.457-0.201 0.457-0.457s-0.201-0.457-0.457-0.457z"></path>
<path fill="#fff" d="M22.268 23.531h-2.51c-0.256 0-0.457 0.201-0.457 0.457s0.201 0.457 0.457 0.457h2.51c0.256 0 0.457-0.201 0.457-0.457s-0.209-0.457-0.457-0.457z"></path>
<path fill="#fff" d="M17.054 23.531h-2.503c-0.256 0-0.457 0.201-0.457 0.457s0.201 0.457 0.457 0.457h2.503c0.256 0 0.457-0.201 0.457-0.457s-0.209-0.457-0.457-0.457z"></path>
<path fill="#fff" d="M11.831 23.531h-2.503c-0.256 0-0.457 0.201-0.457 0.457s0.201 0.457 0.457 0.457h2.503c0.256 0 0.457-0.201 0.457-0.457s-0.201-0.457-0.457-0.457z"></path>
<path fill="#fff" d="M22.268 26.979h-2.51c-0.256 0-0.457 0.201-0.457 0.457s0.201 0.457 0.457 0.457h2.51c0.256 0 0.457-0.201 0.457-0.457s-0.209-0.457-0.457-0.457z"></path>
<path fill="#fff" d="M17.054 26.979h-2.503c-0.256 0-0.457 0.201-0.457 0.457s0.201 0.457 0.457 0.457h2.503c0.256 0 0.457-0.201 0.457-0.457s-0.209-0.457-0.457-0.457z"></path>
<path fill="#fff" d="M11.831 26.979h-2.503c-0.256 0-0.457 0.201-0.457 0.457s0.201 0.457 0.457 0.457h2.503c0.256 0 0.457-0.201 0.457-0.457s-0.201-0.457-0.457-0.457z"></path>
<path fill="#fff" d="M22.741 3.58h-13.59c-0.256 0-0.457 0.201-0.457 0.457s0.201 0.457 0.457 0.457h13.59c0.256 0 0.457-0.201 0.457-0.457s-0.209-0.457-0.457-0.457z"></path>
<path fill="#fff" d="M22.741 6.214h-13.59c-0.256 0-0.457 0.201-0.457 0.457s0.201 0.457 0.457 0.457h13.59c0.256 0 0.457-0.201 0.457-0.457s-0.209-0.457-0.457-0.457z"></path>
</svg>
