<!-- Generated by IcoMoon.io -->
<svg version="1.1" xmlns="http://www.w3.org/2000/svg" width="32" height="32" viewBox="0 0 32 32">
<title>data-driven-advertising</title>
<path fill="#fff" d="M7.678 8.252c1.55 0 1.627-1.48 1.627-2.363 0-1.030-0.132-2.224-1.627-2.224-1.503 0-1.573 1.542-1.573 2.224 0.008 0.992 0.054 2.363 1.573 2.363zM7.678 4.138c0.969 0 1.093 0.69 1.093 1.821 0 1.023-0.155 1.805-1.093 1.805-0.922 0-1.038-0.744-1.038-1.805 0-0.992 0.132-1.821 1.038-1.821z"></path>
<path fill="#fff" d="M7.678 19.851c-1.503 0-1.573 1.542-1.573 2.224 0 0.992 0.054 2.363 1.573 2.363 1.55 0 1.627-1.48 1.627-2.363 0-1.030-0.132-2.224-1.627-2.224zM7.678 23.95c-0.922 0-1.038-0.744-1.038-1.805 0-0.992 0.132-1.821 1.038-1.821 0.969 0 1.093 0.69 1.093 1.821 0 1.023-0.155 1.805-1.093 1.805z"></path>
<path fill="#fff" d="M13.614 22.075c0 0.992 0.054 2.363 1.573 2.363 1.55 0 1.627-1.48 1.627-2.363 0-1.030-0.132-2.224-1.627-2.224-1.511 0-1.573 1.542-1.573 2.224zM16.271 22.144c0 1.023-0.155 1.805-1.092 1.805-0.922 0-1.038-0.744-1.038-1.805 0-0.992 0.132-1.821 1.038-1.821 0.969 0 1.092 0.69 1.092 1.821z"></path>
<path fill="#fff" d="M17.922 24.376h2.208c0.070 0 0.101-0.023 0.101-0.085v-0.294c0-0.070-0.039-0.093-0.101-0.093h-0.883v-3.874c0-0.070 0-0.116-0.116-0.116h-0.287c-0.093 0-0.178 0.023-0.263 0.054l-0.635 0.217c-0.070 0.023-0.077 0.070-0.077 0.116v0.163c0 0.070 0.023 0.077 0.093 0.077h0.752v3.363h-0.806c-0.062 0-0.101 0.023-0.101 0.093v0.294c0.015 0.054 0.054 0.085 0.116 0.085z"></path>
<path fill="#fff" d="M21.029 28.816h-15.349c-0.589 0-1.139 0.225-1.55 0.643-0.411 0.411-0.643 0.969-0.643 1.55 0 0.054 0 0.116 0.008 0.17 0.031 0.186 0.194 0.318 0.38 0.318h18.968c0.186 0 0.349-0.132 0.38-0.318 0.008-0.054 0.008-0.116 0.008-0.17-0.008-1.209-0.992-2.193-2.2-2.193zM4.269 30.729c0.054-0.279 0.186-0.535 0.395-0.736 0.271-0.271 0.628-0.418 1.015-0.418h15.349c0.697 0 1.278 0.496 1.402 1.154h-18.162z"></path>
<path fill="#fff" d="M29.304 22.020l-4.494-4.277v-10.228c0-0.008-0.008-0.016-0.008-0.023 0-0.031-0.008-0.070-0.023-0.101-0.008-0.016-0.008-0.023-0.015-0.039-0.015-0.039-0.039-0.077-0.070-0.108v0l-6.625-6.632c-0.031-0.031-0.070-0.054-0.108-0.070-0.015-0.008-0.023-0.008-0.039-0.015-0.031-0.008-0.062-0.015-0.101-0.023-0.008 0-0.015-0.008-0.023-0.008h-14.776c-0.542 0-0.976 0.442-0.976 0.976v25.546c0 0.542 0.442 0.976 0.976 0.976h20.812c0.542 0 0.976-0.442 0.976-0.976v-3.417l1.557 1.488c0.395 0.38 0.914 0.581 1.464 0.581 0.015 0 0.039 0 0.054 0 0.566-0.015 1.093-0.248 1.488-0.659s0.604-0.953 0.589-1.519c-0.015-0.55-0.248-1.085-0.659-1.472zM19.084 12.289l2.541-2.673 0.116 0.108c0.17 0.163 0.387 0.24 0.604 0.24 0.232 0 0.465-0.093 0.635-0.271l0.318-0.333c0.333-0.349 0.318-0.914-0.031-1.247l-0.232-0.217h1.007v9.12l-4.959-4.726zM17.526 3.704v0l5.215 4.967c0.047 0.046 0.047 0.116 0.008 0.163l-0.318 0.333c-0.047 0.046-0.116 0.046-0.163 0.008l-6.532-6.23c-0.031-0.031-0.039-0.062-0.039-0.085s0.008-0.054 0.031-0.085l0.318-0.333c0.023-0.023 0.054-0.039 0.085-0.039s0.062 0.008 0.077 0.031l1.317 1.271zM22.237 7.136l-4.060-3.866v-1.464l5.323 5.323-1.263 0.008zM24.043 27.033c0 0.116-0.101 0.217-0.217 0.217h-20.804c-0.116 0-0.217-0.101-0.217-0.217v-25.553c0-0.116 0.101-0.217 0.217-0.217h14.396v1.271l-0.674-0.643c-0.349-0.333-0.907-0.318-1.247 0.031l-0.318 0.333c-0.163 0.17-0.248 0.395-0.24 0.628s0.101 0.457 0.271 0.62l0.147 0.139-3.603 3.781v-3.587c0-0.070 0-0.116-0.116-0.116h-0.287c-0.093 0-0.178 0.023-0.263 0.054l-0.635 0.217c-0.070 0.023-0.077 0.070-0.077 0.116v0.155c0 0.070 0.023 0.077 0.093 0.077h0.752v3.363h-0.806c-0.062 0-0.101 0.023-0.101 0.093v0.294c0 0.062 0.039 0.085 0.101 0.085h0.604l-4.076 4.277-0.139-0.139c-0.17-0.163-0.38-0.256-0.628-0.24-0.232 0.008-0.457 0.101-0.62 0.271l-0.318 0.333c-0.333 0.349-0.318 0.914 0.031 1.247l6.214 5.92c-0.023 0-0.039 0-0.054 0-1.503 0-1.573 1.542-1.573 2.224 0 0.992 0.054 2.363 1.573 2.363 1.55 0 1.627-1.48 1.627-2.363 0-0.604-0.046-1.271-0.395-1.712 0.147-0.047 0.279-0.124 0.395-0.232l0.318-0.333c0.163-0.17 0.248-0.395 0.24-0.628s-0.101-0.457-0.271-0.62l-0.116-0.108 2.929-3.076 7.895 7.516v4.161h-0.008zM12.521 22.144c0 1.023-0.155 1.805-1.092 1.805-0.922 0-1.038-0.744-1.038-1.805 0-0.992 0.132-1.821 1.038-1.821 0.976 0 1.092 0.69 1.092 1.821zM12.498 19.603c-0.031 0.031-0.062 0.039-0.085 0.039-0.015 0-0.054-0.008-0.085-0.031l-6.532-6.222c-0.046-0.046-0.046-0.116-0.008-0.163l0.318-0.333c0.031-0.031 0.062-0.039 0.085-0.039v0c0.023 0 0.054 0.008 0.077 0.031l6.532 6.222c0.031 0.031 0.039 0.062 0.039 0.085s-0.008 0.054-0.031 0.085v0l-0.31 0.325zM28.816 24.5c-0.519 0.542-1.379 0.566-1.922 0.047l-10.491-9.995c-0.070-0.070-0.163-0.108-0.263-0.108h-0.008c-0.101 0-0.201 0.046-0.271 0.116l-3.192 3.347-5.168-4.92 8.407-8.817 5.168 4.92-2.805 2.944c-0.070 0.070-0.108 0.17-0.108 0.271s0.047 0.201 0.116 0.271l10.491 9.987c0.263 0.248 0.411 0.589 0.418 0.953 0.015 0.372-0.116 0.721-0.372 0.984z"></path>
</svg>
