<!-- Generated by IcoMoon.io -->
<svg version="1.1" xmlns="http://www.w3.org/2000/svg" width="32" height="32" viewBox="0 0 32 32">
<title>data-02</title>
<path fill="#fff" d="M28.816 8.36c0-0.039-0.008-0.070-0.023-0.101-0.008-0.015-0.008-0.023-0.015-0.039-0.015-0.039-0.039-0.077-0.077-0.108v0l-7.485-7.492c-0.031-0.031-0.070-0.054-0.108-0.077-0.015-0.008-0.023-0.008-0.039-0.015-0.031-0.008-0.062-0.015-0.101-0.023-0.008 0-0.015-0.008-0.023-0.008h-16.697c-0.589 0.008-1.069 0.488-1.069 1.077v28.862c0 0.589 0.48 1.069 1.069 1.069h23.508c0.589 0 1.069-0.48 1.069-1.069v-22.051c0-0.008-0.008-0.015-0.008-0.023zM21.331 1.836l6.152 6.152h-6.152v-6.152zM27.754 30.714h-23.508c-0.155 0-0.287-0.124-0.287-0.287v-28.854c0-0.155 0.124-0.287 0.287-0.287h16.302v7.097c0 0.217 0.178 0.387 0.387 0.387h7.097v21.656c0.008 0.163-0.124 0.287-0.279 0.287z"></path>
<path fill="#fff" d="M9.507 4.037c-1.697 0-1.774 1.743-1.774 2.51 0 1.116 0.062 2.665 1.774 2.665 1.751 0 1.836-1.666 1.836-2.665 0-1.162-0.147-2.51-1.836-2.51zM9.507 8.662c-1.046 0-1.17-0.837-1.17-2.038 0-1.116 0.147-2.053 1.17-2.053 1.1 0 1.232 0.775 1.232 2.053 0.008 1.154-0.17 2.038-1.232 2.038z"></path>
<path fill="#fff" d="M12.606 9.143h2.495c0.077 0 0.116-0.031 0.116-0.101v-0.333c0-0.077-0.046-0.108-0.116-0.108h-1v-4.378c0-0.077 0-0.132-0.132-0.132h-0.318c-0.108 0-0.209 0.023-0.294 0.062l-0.713 0.24c-0.077 0.023-0.085 0.077-0.085 0.132v0.186c0 0.077 0.023 0.093 0.108 0.093h0.852v3.797h-0.914c-0.070 0-0.116 0.031-0.116 0.108v0.333c0 0.070 0.046 0.101 0.116 0.101z"></path>
<path fill="#fff" d="M9.507 13.18c-1.697 0-1.774 1.743-1.774 2.51 0 1.116 0.062 2.665 1.774 2.665 1.751 0 1.836-1.666 1.836-2.665 0-1.162-0.147-2.51-1.836-2.51zM9.507 17.805c-1.046 0-1.17-0.837-1.17-2.038 0-1.116 0.147-2.053 1.17-2.053 1.1 0 1.232 0.775 1.232 2.053 0.008 1.154-0.17 2.038-1.232 2.038z"></path>
<path fill="#fff" d="M12.606 18.286h2.495c0.077 0 0.116-0.031 0.116-0.101v-0.333c0-0.077-0.046-0.108-0.116-0.108h-1v-4.378c0-0.077 0-0.132-0.132-0.132h-0.318c-0.108 0-0.209 0.023-0.294 0.062l-0.713 0.24c-0.077 0.023-0.085 0.077-0.085 0.132v0.186c0 0.077 0.023 0.093 0.108 0.093h0.852v3.797h-0.914c-0.070 0-0.116 0.031-0.116 0.108v0.333c0 0.070 0.046 0.101 0.116 0.101z"></path>
<path fill="#fff" d="M16.837 18.286h2.495c0.077 0 0.116-0.031 0.116-0.101v-0.333c0-0.077-0.047-0.108-0.116-0.108h-1v-4.378c0-0.077 0-0.132-0.132-0.132h-0.318c-0.108 0-0.209 0.023-0.294 0.062l-0.713 0.24c-0.077 0.023-0.085 0.077-0.085 0.132v0.186c0 0.077 0.023 0.093 0.108 0.093h0.852v3.797h-0.914c-0.070 0-0.116 0.031-0.116 0.108v0.333c0.008 0.070 0.054 0.101 0.116 0.101z"></path>
<path fill="#fff" d="M22.222 13.18c-1.697 0-1.774 1.743-1.774 2.51 0 1.116 0.062 2.665 1.774 2.665 1.751 0 1.836-1.666 1.836-2.665 0-1.162-0.155-2.51-1.836-2.51zM22.222 17.805c-1.046 0-1.17-0.837-1.17-2.038 0-1.116 0.147-2.053 1.17-2.053 1.1 0 1.232 0.775 1.232 2.053 0 1.154-0.178 2.038-1.232 2.038z"></path>
<path fill="#fff" d="M9.507 22.323c-1.697 0-1.774 1.743-1.774 2.51 0 1.116 0.062 2.665 1.774 2.665 1.751 0 1.836-1.666 1.836-2.665 0-1.162-0.147-2.51-1.836-2.51zM9.507 26.948c-1.046 0-1.17-0.837-1.17-2.038 0-1.116 0.147-2.053 1.17-2.053 1.1 0 1.232 0.775 1.232 2.053 0.008 1.154-0.17 2.038-1.232 2.038z"></path>
<path fill="#fff" d="M13.745 22.323c-1.697 0-1.774 1.743-1.774 2.51 0 1.116 0.062 2.665 1.774 2.665 1.751 0 1.836-1.666 1.836-2.665 0-1.162-0.155-2.51-1.836-2.51zM13.745 26.948c-1.046 0-1.17-0.837-1.17-2.038 0-1.116 0.147-2.053 1.17-2.053 1.1 0 1.232 0.775 1.232 2.053 0 1.154-0.17 2.038-1.232 2.038z"></path>
<path fill="#fff" d="M17.984 22.323c-1.697 0-1.774 1.743-1.774 2.51 0 1.116 0.062 2.665 1.774 2.665 1.751 0 1.836-1.666 1.836-2.665 0-1.162-0.155-2.51-1.836-2.51zM17.984 26.948c-1.046 0-1.17-0.837-1.17-2.038 0-1.116 0.147-2.053 1.17-2.053 1.1 0 1.232 0.775 1.232 2.053 0 1.154-0.178 2.038-1.232 2.038z"></path>
<path fill="#fff" d="M23.578 26.886h-1v-4.378c0-0.077 0-0.132-0.132-0.132h-0.318c-0.108 0-0.209 0.023-0.294 0.062l-0.713 0.24c-0.077 0.023-0.085 0.077-0.085 0.132v0.186c0 0.077 0.023 0.093 0.108 0.093h0.852v3.797h-0.922c-0.070 0-0.116 0.031-0.116 0.108v0.333c0 0.070 0.047 0.101 0.116 0.101h2.495c0.077 0 0.116-0.031 0.116-0.101v-0.333c0-0.077-0.047-0.108-0.108-0.108z"></path>
</svg>
