<!-- Generated by IcoMoon.io -->
<svg version="1.1" xmlns="http://www.w3.org/2000/svg" width="32" height="32" viewBox="0 0 32 32">
<title>data-centre-erding</title>
<path fill="#fff" d="M31.272 23.764h-1.41v-5.912c0-0.124-0.101-0.225-0.225-0.225h-1.519v-4.161c0-0.124-0.101-0.225-0.225-0.225s-0.225 0.101-0.225 0.225v4.161h-0.628v-4.161c0-0.124-0.101-0.225-0.225-0.225s-0.225 0.101-0.225 0.225v4.161h-0.628v-4.161c0-0.124-0.101-0.225-0.225-0.225s-0.225 0.101-0.225 0.225v4.161h-0.457v-3.75c0-0.124-0.101-0.225-0.225-0.225h-6.935v-0.969c0-0.124-0.101-0.225-0.225-0.225h-0.55v-1.139c0.054-0.054 0.093-0.132 0.093-0.217 0-0.17-0.139-0.31-0.31-0.31s-0.31 0.139-0.31 0.31c0 0.085 0.031 0.163 0.093 0.217v1.154h-0.573c-0.124 0-0.225 0.101-0.225 0.225v0.969h-7.926c-0.124 0-0.225 0.101-0.225 0.225v9.879h-4.184v-1.178c1.139-0.108 2.030-1.077 2.030-2.247 0-0.62-0.256-1.588-0.62-2.363-0.333-0.705-0.891-1.55-1.643-1.55s-1.309 0.845-1.643 1.55c-0.364 0.775-0.62 1.743-0.62 2.363 0 1.17 0.891 2.131 2.030 2.247v1.178h-2.363c-0.124 0-0.225 0.101-0.225 0.225s0.101 0.225 0.225 0.225h30.543c0.124 0 0.225-0.101 0.225-0.225 0-0.132-0.101-0.232-0.225-0.232zM1.526 20.339c0-0.558 0.232-1.457 0.573-2.169 0.387-0.821 0.837-1.294 1.24-1.294s0.852 0.473 1.24 1.294c0.341 0.721 0.573 1.612 0.573 2.169 0 0.922-0.697 1.689-1.588 1.798v-1.371l1.054-1.054c0.085-0.085 0.085-0.225 0-0.318-0.085-0.085-0.225-0.085-0.318 0l-0.736 0.736v-0.612l0.752-0.752c0.085-0.085 0.085-0.225 0-0.318-0.085-0.085-0.225-0.085-0.318 0l-0.442 0.442v-0.077c0-0.124-0.101-0.225-0.225-0.225s-0.225 0.101-0.225 0.225v0.372l-0.287-0.287c-0.085-0.085-0.225-0.085-0.318 0-0.085 0.085-0.085 0.225 0 0.318l0.604 0.604v0.969l-0.806-0.806c-0.085-0.085-0.225-0.085-0.318 0-0.085 0.085-0.085 0.225 0 0.318l1.123 1.123v0.721c-0.883-0.116-1.581-0.883-1.581-1.805zM17.472 14.109v9.654h-1.139v-9.654h1.139zM16.325 12.916h1.139v0.744h-1.139v-0.744zM8.182 14.109h7.702v9.654h-0.744v-3.882c0-0.124-0.101-0.225-0.225-0.225s-0.225 0.101-0.225 0.225v3.882h-0.852v-3.882c0-0.124-0.101-0.225-0.225-0.225s-0.225 0.101-0.225 0.225v3.882h-1.139v-3.882c0-0.124-0.101-0.225-0.225-0.225s-0.225 0.101-0.225 0.225v3.882h-1v-3.882c0-0.124-0.101-0.225-0.225-0.225s-0.225 0.101-0.225 0.225v3.882h-0.976v-3.882c0-0.124-0.101-0.225-0.225-0.225s-0.225 0.101-0.225 0.225v3.882h-0.744v-9.654zM28.893 23.764v-3.882c0-0.124-0.101-0.225-0.225-0.225s-0.225 0.101-0.225 0.225v3.882h-1v-3.882c0-0.124-0.101-0.225-0.225-0.225s-0.225 0.101-0.225 0.225v3.882h-1v-3.882c0-0.124-0.101-0.225-0.225-0.225s-0.225 0.101-0.225 0.225v3.882h-7.655v-9.654h6.71v3.75c0 0.124 0.101 0.225 0.225 0.225h4.564v5.687l-0.496-0.008z"></path>
<path fill="#fff" d="M14.66 9.995c-0.101 0.070-0.116 0.209-0.046 0.31 0.046 0.062 0.108 0.093 0.178 0.093 0.046 0 0.093-0.015 0.132-0.046 1.162-0.868 2.789-0.876 3.959-0.008 0.101 0.077 0.24 0.054 0.31-0.046s0.054-0.24-0.047-0.31c-1.325-0.984-3.169-0.984-4.486 0.008z"></path>
<path fill="#fff" d="M13.699 9.135c1.945-1.201 4.455-1.201 6.4 0.015 0.039 0.023 0.077 0.031 0.116 0.031 0.077 0 0.147-0.039 0.186-0.108 0.062-0.101 0.031-0.24-0.070-0.31-2.084-1.302-4.781-1.302-6.873-0.015-0.101 0.062-0.139 0.201-0.070 0.31s0.209 0.139 0.31 0.077z"></path>
</svg>
