<!-- Generated by IcoMoon.io -->
<svg version="1.1" xmlns="http://www.w3.org/2000/svg" width="32" height="32" viewBox="0 0 32 32">
<title>deaf</title>
<path fill="#fff" d="M18.534 16.829c0.047 0.023 0.101 0.039 0.155 0.039 0.132 0 0.256-0.070 0.318-0.194 0.341-0.697 0.511-1.457 0.511-2.239 0-2.82-2.293-5.114-5.114-5.114s-5.114 2.293-5.114 5.114c0 0.194 0.155 0.349 0.349 0.349s0.349-0.155 0.349-0.349c0-2.433 1.976-4.409 4.409-4.409s4.409 1.976 4.409 4.409c0 0.674-0.147 1.325-0.442 1.929-0.077 0.17-0.008 0.38 0.17 0.465z"></path>
<path fill="#fff" d="M14.404 7.33c-3.913 0-7.097 3.184-7.097 7.097 0 0.194 0.155 0.349 0.349 0.349s0.349-0.155 0.349-0.349c0-3.525 2.867-6.4 6.4-6.4s6.4 2.867 6.4 6.4c0 1.457-0.504 2.882-1.418 4.021-1.054 1.162-1.627 2.665-1.627 4.238 0 0.488-0.108 0.953-0.318 1.387-0.535 1.1-1.627 1.782-2.851 1.782h-0.721c-0.194 0-0.349 0.155-0.349 0.349s0.155 0.349 0.349 0.349h0.721c1.495 0 2.828-0.837 3.487-2.177 0.256-0.535 0.387-1.1 0.387-1.697 0-1.379 0.504-2.704 1.418-3.727 0.008-0.008 0.023-0.023 0.031-0.031 1.030-1.263 1.596-2.859 1.596-4.486-0.008-3.921-3.192-7.105-7.105-7.105z"></path>
<path fill="#fff" d="M28.234 3.51l-0.938-2.72c-0.047-0.139-0.178-0.232-0.325-0.24l-2.875-0.046c-0.124 0-0.225 0.054-0.287 0.147l-4.122 5.672c-0.062 0.085-0.077 0.186-0.062 0.287 0.023 0.101 0.085 0.186 0.178 0.232 1.395 0.752 2.456 1.984 2.991 3.479 0.047 0.124 0.155 0.209 0.279 0.232 0.015 0 0.031 0 0.047 0 0.108 0 0.217-0.054 0.287-0.147l4.781-6.578c0.070-0.093 0.085-0.209 0.047-0.318zM23.206 9.484c-0.589-1.271-1.534-2.332-2.727-3.061l3.789-5.215 2.448 0.039 0.798 2.317-4.308 5.92z"></path>
<path fill="#fff" d="M13.962 23.237c-0.015-0.093-0.062-0.178-0.139-0.232l-3.812-2.766c-0.155-0.116-0.38-0.077-0.488 0.077l-5.71 7.857c-0.070 0.093-0.085 0.209-0.046 0.318l0.938 2.72c0.046 0.139 0.178 0.232 0.325 0.24l2.875 0.047c0 0 0 0 0.008 0 0.116 0 0.217-0.054 0.287-0.147l5.71-7.857c0.046-0.070 0.070-0.17 0.054-0.256zM7.725 30.791l-2.448-0.039-0.79-2.317 5.393-7.423 3.239 2.355-5.393 7.423z"></path>
</svg>
