<!-- Generated by IcoMoon.io -->
<svg version="1.1" xmlns="http://www.w3.org/2000/svg" width="32" height="32" viewBox="0 0 32 32">
<title>debt-and-rating</title>
<path fill="#fff" d="M31.217 26.739h-2.983v-16.48c0-0.155-0.124-0.279-0.279-0.279h-2.51c-0.155 0-0.279 0.124-0.279 0.279v16.488h-2.332v-9.863c0-0.008 0-0.008 0-0.015 2.162-3.192 1.836-7.578-1-10.39-1.542-1.534-3.595-2.386-5.772-2.386-0.008 0-0.015 0-0.023 0-2.177 0.008-4.23 0.868-5.772 2.417-2.712 2.72-3.154 6.966-1.1 10.181l-8.151 8.205c-0.682 0.69-0.682 1.805 0.008 2.495v0c0.155 0.155 0.341 0.279 0.535 0.364 0.232 0.101 0.473 0.147 0.713 0.147 0.457 0 0.907-0.178 1.247-0.519l8.174-8.182c0.845 0.535 1.751 0.891 2.689 1.085v6.454h-2.332v-4.099c0-0.155-0.124-0.279-0.279-0.279h-2.51c-0.155 0-0.279 0.124-0.279 0.279v4.099h-2.696c-0.155 0-0.279 0.124-0.279 0.279s0.124 0.279 0.279 0.279h24.934c0.155 0 0.279-0.124 0.279-0.279s-0.124-0.279-0.279-0.279zM25.724 10.538h1.96v16.209h-1.96v-16.209zM22.284 26.739h-1.96v-7.423c0-0.023-0.008-0.039-0.008-0.054 0.55-0.333 1.077-0.736 1.55-1.216 0.147-0.147 0.287-0.302 0.418-0.457v9.151zM19.773 19.564v7.175h-2.332v-6.408c0.814-0.132 1.596-0.387 2.332-0.767zM11.46 18.65l-8.337 8.345c-0.356 0.356-0.883 0.457-1.348 0.256-0.132-0.054-0.256-0.147-0.364-0.248-0.473-0.473-0.473-1.24 0-1.712l8.314-8.368c0.093-0.093 0.108-0.24 0.031-0.349-2.053-3.014-1.666-7.082 0.907-9.67 1.441-1.441 3.355-2.239 5.393-2.247 0.008 0 0.015 0 0.015 0 2.030 0 3.944 0.79 5.385 2.224 2.983 2.968 2.991 7.81 0.023 10.793-2.572 2.588-6.64 2.983-9.662 0.953-0.116-0.085-0.263-0.070-0.356 0.023zM14.931 20.385c0.651 0.093 1.309 0.101 1.96 0.031v6.323h-1.96v-6.354zM9.538 22.919h1.96v3.828h-1.96c0 0 0-3.828 0-3.828z"></path>
<path fill="#fff" d="M22.098 12.265c0-1.612-0.635-3.123-1.774-4.261-1.139-1.131-2.642-1.759-4.246-1.759-0.008 0-0.008 0-0.015 0-1.612 0-3.123 0.635-4.261 1.774s-1.759 2.65-1.759 4.261 0.635 3.123 1.774 4.261v0c1.139 1.131 2.65 1.751 4.254 1.751 0.008 0 0.008 0 0.015 0 1.612 0 3.123-0.635 4.254-1.774 1.131-1.131 1.759-2.642 1.759-4.254zM10.592 12.289c0-1.464 0.566-2.836 1.596-3.874s2.402-1.612 3.866-1.612c0.008 0 0.008 0 0.015 0 1.457 0 2.828 0.566 3.859 1.596 1.038 1.030 1.612 2.41 1.612 3.866 0 0.287-0.023 0.566-0.070 0.837h-1.813c-0.155 0-0.279 0.124-0.279 0.279v3.247c-0.449 0.341-0.945 0.612-1.472 0.798v-1.294c0-0.155-0.124-0.279-0.279-0.279h-3.308c-0.155 0-0.279 0.124-0.279 0.279v1.224c-0.682-0.271-1.302-0.674-1.836-1.209-1.030-1.023-1.604-2.394-1.612-3.859zM16.077 17.751c-0.008 0-0.008 0-0.015 0-0.504 0-0.992-0.070-1.464-0.201v-1.139h2.751v1.162c0 0.008 0 0.008 0 0.015-0.411 0.108-0.837 0.163-1.271 0.163zM19.936 16.147v-2.487h1.426c-0.24 0.93-0.721 1.782-1.418 2.479 0 0.008-0.008 0.008-0.008 0.008z"></path>
<path fill="#fff" d="M16.17 14.892c0.356 0 1.193-0.062 1.635-0.248 0.116-0.046 0.116-0.108 0.101-0.201l-0.047-0.232c-0.015-0.062-0.054-0.124-0.178-0.108-0.426 0.054-0.953 0.124-1.503 0.124-1.1 0-1.441-0.767-1.534-1.72h2.456c0.062 0 0.077-0.031 0.077-0.070v-0.287c0-0.077-0.031-0.108-0.101-0.108h-3.642c-0.070 0-0.101 0.046-0.101 0.077v0.31c0 0.070 0.039 0.093 0.093 0.093l0.473-0.008c0.101 1.302 0.628 2.379 2.27 2.379z"></path>
<path fill="#fff" d="M13.42 11.638h3.673c0.062 0 0.077-0.039 0.077-0.077v-0.287c0-0.085-0.015-0.101-0.093-0.101h-2.456c0.085-0.992 0.403-1.759 1.542-1.759 0.535 0 1.116 0.070 1.511 0.124 0.116 0.015 0.155-0.039 0.17-0.101l0.054-0.256c0.015-0.077 0.008-0.147-0.116-0.201-0.48-0.194-1.271-0.232-1.619-0.232-1.65 0-2.162 1.108-2.278 2.417h-0.465c-0.070 0-0.101 0.039-0.101 0.077v0.31c0.008 0.077 0.046 0.085 0.101 0.085z"></path>
</svg>
