<!-- Generated by IcoMoon.io -->
<svg version="1.1" xmlns="http://www.w3.org/2000/svg" width="32" height="32" viewBox="0 0 32 32">
<title>delete</title>
<path fill="#fff" d="M25.856 5.873h-19.587c-0.232 0-0.426 0.186-0.426 0.426v21.416c0 1.55 1.937 3.704 3.928 3.789h11.274c2.929-0.108 5.215-2.2 5.23-3.936v-21.276c0.008-0.232-0.186-0.418-0.418-0.418zM25.43 27.56c-0.015 1.55-2.479 3.014-4.401 3.092h-11.235c-1.573-0.070-3.099-1.906-3.099-2.937v-20.998h18.743v20.843h-0.008z"></path>
<path fill="#fff" d="M11.002 26.646c0.232 0 0.426-0.186 0.426-0.426v-15.977c0-0.232-0.186-0.426-0.426-0.426-0.232 0-0.426 0.186-0.426 0.426v15.985c0 0.225 0.186 0.418 0.426 0.418z"></path>
<path fill="#fff" d="M16.054 26.646c0.232 0 0.426-0.186 0.426-0.426v-15.977c0-0.232-0.186-0.426-0.426-0.426s-0.426 0.186-0.426 0.426v15.985c0.008 0.225 0.194 0.418 0.426 0.418z"></path>
<path fill="#fff" d="M21.114 26.646c0.232 0 0.426-0.186 0.426-0.426v-15.977c0-0.232-0.186-0.426-0.426-0.426-0.232 0-0.426 0.186-0.426 0.426v15.985c0.008 0.225 0.194 0.418 0.426 0.418z"></path>
<path fill="#fff" d="M25.949 4.804c0.232 0 0.426-0.186 0.426-0.426s-0.186-0.426-0.426-0.426h-6.764v-0.697c0-1.519-1.232-2.751-2.751-2.751h-1.325c-1.519 0-2.751 1.232-2.751 2.751v0.697h-6.307c-0.232 0-0.426 0.186-0.426 0.426s0.186 0.426 0.426 0.426h19.897zM13.203 3.254c0-1.046 0.852-1.906 1.906-1.906h1.325c1.046 0 1.906 0.852 1.906 1.906v0.697h-5.129v-0.697h-0.008z"></path>
</svg>
