<!-- Generated by IcoMoon.io -->
<svg version="1.1" xmlns="http://www.w3.org/2000/svg" width="32" height="32" viewBox="0 0 32 32">
<title>demand-side-platform</title>
<path fill="#fff" d="M18.813 16.488c-0.209 0-0.372 0.17-0.372 0.372v1.511c0 0.209 0.17 0.372 0.372 0.372 0.209 0 0.372-0.17 0.372-0.372v-1.511c0-0.201-0.17-0.372-0.372-0.372z"></path>
<path fill="#fff" d="M13.017 2.479c-0.209 0-0.372 0.17-0.372 0.372v1.511c0 0.209 0.17 0.372 0.372 0.372s0.372-0.17 0.372-0.372v-1.511c0-0.201-0.17-0.372-0.372-0.372z"></path>
<path fill="#fff" d="M15.93 8.957h-0.24c-0.070 0-0.085 0.015-0.085 0.077v2.015c-0.814-0.070-1.441-0.325-1.441-1.263 0-0.442 0.062-0.914 0.101-1.24 0.015-0.093-0.031-0.124-0.085-0.139l-0.209-0.046c-0.070-0.015-0.116-0.008-0.163 0.093-0.155 0.395-0.194 1.038-0.194 1.333 0 1.356 0.907 1.767 1.984 1.867v0.38c0 0.062 0.031 0.085 0.070 0.085h0.256c0.062 0 0.070-0.031 0.070-0.077v-3.006c0.008-0.062-0.023-0.077-0.062-0.077z"></path>
<path fill="#fff" d="M18.464 8.446c-0.039-0.093-0.093-0.093-0.163-0.085l-0.194 0.039c-0.054 0.015-0.101 0.046-0.085 0.147 0.047 0.349 0.101 0.783 0.101 1.232 0 0.899-0.635 1.185-1.41 1.255v-2.015c0-0.054-0.023-0.070-0.062-0.070h-0.24c-0.070 0-0.085 0.023-0.085 0.085v2.991c0 0.062 0.039 0.085 0.070 0.085h0.256c0.062 0 0.077-0.031 0.077-0.077l-0.008-0.387c1.069-0.093 1.953-0.519 1.953-1.867-0.008-0.287-0.054-0.976-0.209-1.333z"></path>
<path fill="#fff" d="M26.018 18.216c-0.209 0-0.372 0.17-0.372 0.372v1.278c0 0.209 0.17 0.372 0.372 0.372 0.209 0 0.372-0.17 0.372-0.372v-1.271c0-0.209-0.17-0.38-0.372-0.38z"></path>
<path fill="#fff" d="M25.724 11.498c-0.031-0.077-0.077-0.077-0.139-0.070l-0.163 0.031c-0.047 0.015-0.085 0.039-0.077 0.124 0.039 0.294 0.085 0.659 0.085 1.038 0 0.759-0.535 1-1.193 1.062v-1.697c0-0.046-0.015-0.054-0.047-0.054h-0.201c-0.054 0-0.077 0.015-0.077 0.070v2.518c0 0.046 0.031 0.070 0.054 0.070h0.217c0.047 0 0.062-0.023 0.062-0.062l-0.008-0.325c0.899-0.077 1.65-0.442 1.65-1.573 0.008-0.248-0.039-0.837-0.163-1.131z"></path>
<path fill="#fff" d="M23.593 11.924h-0.201c-0.054 0-0.070 0.015-0.070 0.062v1.697c-0.682-0.054-1.216-0.279-1.216-1.062 0-0.372 0.047-0.767 0.085-1.046 0.015-0.085-0.023-0.108-0.070-0.116l-0.178-0.039c-0.054-0.015-0.101-0.008-0.139 0.085-0.132 0.333-0.163 0.876-0.163 1.123 0 1.139 0.767 1.488 1.674 1.573v0.318c0 0.046 0.023 0.070 0.054 0.070h0.217c0.047 0 0.054-0.023 0.054-0.062v-2.534c0.008-0.054-0.015-0.070-0.047-0.070z"></path>
<path fill="#fff" d="M29.908 21.292c0.511-0.744 0.488-1.72-0.070-2.433l-1.805-2.324v-10.344c0-0.798-0.651-1.449-1.449-1.449h-5.447v-2.588c0-0.914-0.744-1.65-1.65-1.65h-7.035c-0.914 0-1.65 0.744-1.65 1.65v2.541h-5.385c-0.798 0-1.449 0.651-1.449 1.449v10.336l-1.805 2.324c-0.55 0.713-0.581 1.689-0.070 2.433l2.278 3.301c0.48 0.697 0.682 1.55 0.573 2.371l-0.682 3.347c-0.039 0.201 0.093 0.395 0.294 0.442 0.023 0.008 0.046 0.008 0.077 0.008 0.17 0 0.333-0.124 0.364-0.302l0.682-3.363c0.139-1.030-0.101-2.061-0.69-2.921l-2.278-3.301c-0.325-0.473-0.31-1.1 0.046-1.557l1.216-1.565v2.712c0 0.798 0.651 1.449 1.449 1.449h1.565v1c0 0.209 0.17 0.372 0.372 0.372 0.209 0 0.372-0.17 0.372-0.372v-3.51c0-0.364 0.294-0.651 0.651-0.651 0.364 0 0.651 0.294 0.651 0.651v10.971c0 0.209 0.17 0.372 0.372 0.372s0.372-0.17 0.372-0.372v-8.453h1.565c0.69 0 1.271-0.488 1.41-1.131h1.612v10.39c0 0.209 0.17 0.372 0.372 0.372 0.209 0 0.372-0.17 0.372-0.372v-13.304c0-0.465 0.38-0.845 0.845-0.845s0.845 0.38 0.845 0.845v4.161c0 0.209 0.17 0.372 0.372 0.372 0.209 0 0.372-0.17 0.372-0.372v-1.255h1.929c0.914 0 1.65-0.744 1.65-1.65v-3.425l1.565 2.015c0.434 0.566 0.457 1.34 0.054 1.929l-2.704 3.921c-0.69 1-0.976 2.208-0.806 3.432l0.806 4.238c0.031 0.178 0.194 0.302 0.364 0.302 0.023 0 0.047 0 0.070-0.008 0.201-0.039 0.333-0.232 0.294-0.434l-0.798-4.223c-0.139-1.015 0.101-2.038 0.682-2.882l1.402-2.030h0.147v8.461c0 0.209 0.17 0.372 0.372 0.372 0.209 0 0.372-0.17 0.372-0.372v-9.755l0.411-0.597c0.263-0.38 0.395-0.814 0.411-1.255 0.279 0.077 0.488 0.325 0.488 0.628v3.51c0 0.209 0.17 0.372 0.372 0.372s0.372-0.17 0.372-0.372v-1h1.565c0.798 0 1.449-0.651 1.449-1.449v-2.712l1.216 1.565c0.356 0.457 0.372 1.077 0.047 1.557l-2.278 3.301c-0.589 0.852-0.837 1.891-0.69 2.944l0.674 3.339c0.039 0.178 0.194 0.302 0.364 0.302 0.023 0 0.047 0 0.077-0.008 0.201-0.039 0.333-0.24 0.294-0.442l-0.674-3.316c-0.116-0.845 0.085-1.689 0.566-2.394l2.301-3.301zM11.351 21.122h-1.565v-1.767c0-0.775-0.628-1.402-1.402-1.402s-1.402 0.628-1.402 1.402v1.767h-1.565c-0.387 0-0.705-0.318-0.705-0.705v-14.272c0-0.387 0.318-0.705 0.705-0.705h5.385v13.637c0 0.759 0.511 1.387 1.209 1.581-0.108 0.271-0.364 0.465-0.659 0.465zM20.393 19.084c0 0.496-0.403 0.907-0.907 0.907h-1.929v-2.169c0-0.876-0.713-1.588-1.588-1.588s-1.588 0.713-1.588 1.588v2.169h-1.929c-0.496 0-0.907-0.403-0.907-0.907v-16.93c0-0.496 0.403-0.907 0.907-0.907h7.035c0.496 0 0.907 0.403 0.907 0.907v16.93zM27.289 20.463c0 0.387-0.318 0.705-0.705 0.705h-1.565v-1.767c0-0.744-0.589-1.356-1.325-1.395-0.085-0.279-0.209-0.55-0.395-0.79l-2.084-2.681c-0.023-0.023-0.047-0.046-0.077-0.062v-8.988h5.447c0.387 0 0.705 0.318 0.705 0.705v14.272z"></path>
<path fill="#fff" d="M5.982 18.169c-0.209 0-0.372 0.17-0.372 0.372v1.278c0 0.209 0.17 0.372 0.372 0.372s0.372-0.17 0.372-0.372v-1.278c0-0.201-0.163-0.372-0.372-0.372z"></path>
<path fill="#fff" d="M10.049 11.374l-0.178 0.039c-0.046 0.015-0.085 0.039-0.070 0.116 0.039 0.279 0.085 0.674 0.085 1.046 0 0.79-0.535 1.007-1.216 1.062v-1.697c0-0.054-0.015-0.062-0.070-0.062h-0.201c-0.031 0-0.054 0.015-0.054 0.054v2.534c0 0.039 0.008 0.062 0.054 0.062h0.217c0.031 0 0.054-0.015 0.054-0.070v-0.318c0.907-0.085 1.674-0.434 1.674-1.573 0-0.248-0.031-0.79-0.163-1.123-0.031-0.077-0.070-0.085-0.132-0.070z"></path>
<path fill="#fff" d="M8.004 11.886h-0.201c-0.031 0-0.046 0.015-0.046 0.054v1.697c-0.659-0.062-1.193-0.302-1.193-1.062 0-0.38 0.054-0.744 0.085-1.038 0.016-0.085-0.031-0.116-0.077-0.124l-0.163-0.031c-0.062-0.015-0.108-0.015-0.139 0.070-0.124 0.302-0.17 0.883-0.17 1.131 0 1.131 0.744 1.495 1.65 1.573l-0.008 0.325c0 0.039 0.016 0.062 0.062 0.062h0.217c0.023 0 0.054-0.015 0.054-0.070v-2.518c0.008-0.054-0.015-0.070-0.070-0.070z"></path>
</svg>
