<!-- Generated by IcoMoon.io -->
<svg version="1.1" xmlns="http://www.w3.org/2000/svg" width="32" height="32" viewBox="0 0 32 32">
<title>demand-generation</title>
<path fill="#fff" d="M31.45 2.712c-0.062-0.116-0.186-0.186-0.318-0.186h-30.264c-0.132 0-0.248 0.070-0.318 0.186-0.062 0.116-0.062 0.256 0 0.364l4.432 7.686c0.062 0.116 0.186 0.186 0.318 0.186h21.393c0.132 0 0.248-0.070 0.318-0.186l4.432-7.686c0.070-0.108 0.070-0.248 0.008-0.364zM26.483 10.22h-20.967l-4.014-6.958h28.994l-4.014 6.958z"></path>
<path fill="#fff" d="M25.6 12.118h-19.2c-0.132 0-0.248 0.070-0.318 0.186s-0.062 0.256 0 0.364l3.936 6.818c0.062 0.116 0.186 0.186 0.318 0.186h11.32c0.132 0 0.248-0.070 0.318-0.186l3.936-6.818c0.062-0.116 0.062-0.256 0-0.364-0.062-0.116-0.178-0.186-0.31-0.186zM21.447 18.937h-10.894l-3.518-6.090h17.929l-3.518 6.090z"></path>
<path fill="#fff" d="M20.564 20.843h-9.12c-0.132 0-0.248 0.070-0.318 0.186s-0.062 0.256 0 0.364l4.556 7.895c0.062 0.116 0.186 0.186 0.318 0.186s0.248-0.070 0.318-0.186l4.556-7.895c0.062-0.116 0.062-0.256 0-0.364-0.062-0.116-0.186-0.186-0.31-0.186zM16 28.374l-3.928-6.803h7.857l-3.928 6.803z"></path>
</svg>
