<!-- Generated by IcoMoon.io -->
<svg version="1.1" xmlns="http://www.w3.org/2000/svg" width="32" height="32" viewBox="0 0 32 32">
<title>departure-control</title>
<path fill="#fff" d="M8.724 6.013c1.402 0 2.541-1.139 2.541-2.541s-1.139-2.541-2.541-2.541-2.541 1.139-2.541 2.541 1.147 2.541 2.541 2.541zM8.724 1.65c1.007 0 1.829 0.821 1.829 1.829s-0.821 1.829-1.829 1.829-1.829-0.821-1.829-1.829 0.821-1.829 1.829-1.829z"></path>
<path fill="#fff" d="M23.090 6.013c1.387 0 2.518-1.131 2.518-2.518s-1.131-2.51-2.518-2.51-2.51 1.131-2.51 2.51c-0.008 1.395 1.123 2.518 2.51 2.518zM23.090 1.697c0.992 0 1.798 0.806 1.798 1.798s-0.806 1.805-1.798 1.805-1.798-0.806-1.798-1.805c-0.008-0.984 0.806-1.798 1.798-1.798z"></path>
<path fill="#fff" d="M31.14 15.225h-2.991v-5.772c0-0.876-0.256-1.573-0.752-2.061-0.736-0.721-1.743-0.713-1.774-0.705h-4.688c-0.031 0-1.038-0.016-1.782 0.705-0.496 0.488-0.752 1.178-0.752 2.061v3.494l-2.611-2.441c0-0.015 0.008-0.031 0.008-0.046v-1.596c0-0.364-0.294-0.666-0.666-0.666h-1.542c-0.124-0.287-0.294-0.542-0.511-0.752-0.744-0.728-1.759-0.721-1.79-0.713h-5.122c-0.039 0-1.054-0.016-1.798 0.713-0.504 0.496-0.759 1.193-0.759 2.076v5.703h-2.751c-0.194 0-0.356 0.163-0.356 0.356s0.163 0.356 0.356 0.356h0.674v14.768c0 0.194 0.163 0.356 0.356 0.356h13.544c0.194 0 0.356-0.163 0.356-0.356v-14.768h3.711l-1.278 6.656c-0.023 0.101 0.008 0.209 0.077 0.294s0.17 0.132 0.271 0.132h1.914v4.099c0 0.039-0.047 0.899 0.511 1.495 0.341 0.356 0.806 0.542 1.395 0.542h1.364c0.589 0 1.061-0.178 1.395-0.542 0.558-0.597 0.511-1.457 0.511-1.472v-4.114h1.914c0.108 0 0.209-0.047 0.271-0.132 0.070-0.085 0.093-0.186 0.077-0.294l-1.085-5.664c0.333-0.062 0.604-0.209 0.829-0.434 0.163-0.17 0.271-0.364 0.341-0.55h3.115c0.194 0 0.356-0.163 0.356-0.356 0.015-0.209-0.147-0.372-0.341-0.372zM12.103 10.414v-1.503h2.983v1.503h-2.983zM4.324 9.523c0-0.682 0.178-1.209 0.542-1.565 0.511-0.504 1.247-0.519 1.294-0.519v0h5.145c0 0 0.767 0 1.294 0.519 0.070 0.070 0.132 0.155 0.194 0.24h-0.728c-0.364 0-0.666 0.294-0.666 0.666v1.596c0 0.364 0.294 0.666 0.666 0.666h1.077v4.099h-8.817v-5.703zM15.086 30.35h-12.839v-14.412h12.831l0.008 14.412zM27.173 15.992c-0.163 0.17-0.411 0.256-0.736 0.256-0.108 0-0.209 0.047-0.271 0.132-0.070 0.085-0.093 0.186-0.077 0.294l1.077 5.625h-1.836c-0.194 0-0.356 0.163-0.356 0.356v4.494c0 0.008 0.023 0.589-0.318 0.961-0.194 0.209-0.488 0.318-0.876 0.318h-1.364c-0.38 0-0.674-0.108-0.876-0.31-0.349-0.364-0.325-0.961-0.325-0.984v-4.471c0-0.093-0.039-0.186-0.101-0.256-0.070-0.070-0.155-0.101-0.256-0.101h-1.836l2.262-11.816c0.039-0.194-0.093-0.38-0.287-0.418s-0.38 0.093-0.418 0.287l-0.938 4.874h-5.803v-4.099h1.286c0.085 0 0.155-0.015 0.232-0.046l3.154 2.952c0.101 0.101 0.256 0.124 0.387 0.070s0.217-0.186 0.217-0.325v-4.331c0-0.674 0.178-1.193 0.535-1.542 0.519-0.511 1.255-0.511 1.278-0.511h4.703c0.023 0 0.752 0 1.263 0.504 0.356 0.349 0.535 0.868 0.535 1.55v5.811c0.008 0.008 0.015 0.449-0.256 0.728z"></path>
</svg>
