<!-- Generated by IcoMoon.io -->
<svg version="1.1" xmlns="http://www.w3.org/2000/svg" width="32" height="32" viewBox="0 0 32 32">
<title>desktop-pc</title>
<path fill="#fff" d="M23.020 0.504h-14.040c-1.201 0-2.177 0.976-2.177 2.177v26.638c0 1.201 0.976 2.177 2.177 2.177h14.040c1.201 0 2.177-0.976 2.177-2.177v-26.638c0-1.201-0.976-2.177-2.177-2.177zM24.306 29.319c0 0.705-0.573 1.286-1.286 1.286h-14.040c-0.705 0-1.286-0.573-1.286-1.286v-26.638c0-0.705 0.573-1.286 1.286-1.286h14.040c0.705 0 1.286 0.573 1.286 1.286v26.638z"></path>
<path fill="#fff" d="M20.703 4.502h-9.406c-0.899 0-1.627 0.728-1.627 1.627v2.425c0 0.899 0.728 1.627 1.627 1.627h9.406c0.899 0 1.627-0.728 1.627-1.627v-2.425c0-0.899-0.728-1.627-1.627-1.627zM21.439 8.554c0 0.403-0.333 0.736-0.736 0.736h-9.406c-0.403 0-0.736-0.333-0.736-0.736v-2.425c0-0.403 0.333-0.736 0.736-0.736h9.406c0.403 0 0.736 0.333 0.736 0.736v2.425z"></path>
<path fill="#fff" d="M20.703 11.483h-9.406c-0.899 0-1.627 0.728-1.627 1.627v2.425c0 0.899 0.728 1.627 1.627 1.627h9.406c0.899 0 1.627-0.728 1.627-1.627v-2.425c0-0.899-0.728-1.627-1.627-1.627zM21.439 15.535c0 0.403-0.333 0.736-0.736 0.736h-9.406c-0.403 0-0.736-0.333-0.736-0.736v-2.425c0-0.403 0.333-0.736 0.736-0.736h9.406c0.403 0 0.736 0.333 0.736 0.736v2.425z"></path>
<path fill="#fff" d="M17.991 23.926c-0.225 0.093-0.333 0.356-0.24 0.589 0.101 0.232 0.147 0.488 0.147 0.744 0 1.054-0.852 1.906-1.906 1.906s-1.906-0.852-1.906-1.906c0-0.225 0.039-0.449 0.116-0.659 0.085-0.232-0.031-0.488-0.263-0.573s-0.488 0.031-0.573 0.263c-0.116 0.31-0.17 0.635-0.17 0.969 0 1.542 1.255 2.797 2.797 2.797s2.797-1.255 2.797-2.797c0-0.38-0.077-0.744-0.217-1.093-0.093-0.232-0.356-0.333-0.581-0.24z"></path>
<path fill="#fff" d="M16.449 25.251v-2.696c0-0.248-0.201-0.449-0.449-0.449s-0.449 0.201-0.449 0.449v2.696c0 0.248 0.201 0.449 0.449 0.449s0.449-0.201 0.449-0.449z"></path>
</svg>
