<!-- Generated by IcoMoon.io -->
<svg version="1.1" xmlns="http://www.w3.org/2000/svg" width="32" height="32" viewBox="0 0 32 32">
<title>destination-marketing-organization</title>
<path fill="#fff" d="M20.533 14.869c1.054-2.022 1.875-3.998 1.875-5.261 0-3.533-2.875-6.408-6.408-6.408s-6.408 2.875-6.408 6.408c0 1.255 0.821 3.239 1.875 5.261-6.578 0.907-10.964 3.618-10.964 6.811 0 3.99 6.811 7.121 15.496 7.121s15.496-3.123 15.496-7.121c0-3.192-4.385-5.904-10.964-6.811zM16 3.874c3.169 0 5.741 2.572 5.741 5.741 0 2.34-3.487 8.128-5.741 11.475-2.255-3.347-5.741-9.135-5.741-11.475 0-3.169 2.572-5.741 5.741-5.741zM15.721 21.873c0.062 0.093 0.163 0.147 0.279 0.147s0.217-0.054 0.279-0.147c0.325-0.473 1.061-1.573 1.922-2.944 2.751 0.356 4.719 1.371 4.719 2.433 0 1.519-3.649 2.572-6.919 2.572s-6.919-1.061-6.919-2.572c0-1.069 1.976-2.076 4.719-2.433 0.86 1.371 1.596 2.464 1.922 2.944zM16 28.126c-8.174 0-14.822-2.89-14.822-6.447 0-2.836 4.354-5.362 10.623-6.175 0.519 0.969 1.085 1.922 1.619 2.797-3.014 0.449-5.005 1.65-5.005 3.061 0 1.821 3.332 3.247 7.593 3.247s7.593-1.426 7.593-3.247c0-1.41-1.991-2.611-5.005-3.061 0.535-0.876 1.093-1.829 1.619-2.797 6.268 0.814 10.623 3.339 10.623 6.175-0.015 3.556-6.663 6.447-14.838 6.447z"></path>
<path fill="#fff" d="M18.665 8.368c0-1.464-1.193-2.665-2.665-2.665s-2.665 1.193-2.665 2.665 1.193 2.665 2.665 2.665 2.665-1.201 2.665-2.665zM14.009 8.368c0-1.1 0.891-1.991 1.991-1.991s1.991 0.891 1.991 1.991-0.891 1.991-1.991 1.991-1.991-0.899-1.991-1.991z"></path>
</svg>
