<!-- Generated by IcoMoon.io -->
<svg version="1.1" xmlns="http://www.w3.org/2000/svg" width="32" height="32" viewBox="0 0 32 32">
<title>developers-group-02</title>
<path fill="#fff" d="M11.762 9.058h0.356c0 0.070-0.015 0.139-0.015 0.209 0 2.185 1.782 3.967 3.967 3.967s3.967-1.782 3.967-3.967c0-0.070 0-0.139-0.008-0.209h0.356c0.325 0 1.007 0 1.023-0.643 0-0.116-0.023-0.48-0.201-0.814-0.178-0.341-0.473-0.519-0.69-0.604-0.077-0.426-0.294-1.364-0.783-2.053-0.798-1.123-2.131-1.457-2.193-1.472-0.093-0.023-0.194-0.008-0.271 0.046-0.054 0.031-0.101 0.077-0.124 0.132l-0.031-0.411c-0.008-0.062-0.101-0.62-1.046-0.62s-1.038 0.558-1.046 0.635l-0.031 0.395c-0.031-0.054-0.070-0.101-0.124-0.132-0.085-0.054-0.178-0.070-0.271-0.046-0.054 0.015-1.395 0.349-2.193 1.472-0.488 0.69-0.705 1.627-0.783 2.053-0.209 0.093-0.511 0.271-0.69 0.604-0.17 0.333-0.201 0.697-0.201 0.814 0.015 0.643 0.697 0.643 1.030 0.643zM19.316 9.275c0 1.79-1.457 3.254-3.254 3.254-1.79 0-3.247-1.457-3.247-3.254 0-0.070 0.008-0.139 0.015-0.209h6.47c0.008 0.070 0.015 0.139 0.015 0.209zM11.568 7.934c0.132-0.248 0.442-0.318 0.442-0.318 0.147-0.031 0.263-0.155 0.287-0.302 0-0.016 0.163-1.209 0.69-1.96 0.418-0.589 1.038-0.914 1.426-1.069l0.403 1.79c0.039 0.17 0.201 0.294 0.372 0.279 0.178-0.016 0.318-0.155 0.333-0.325l0.209-2.634c0.039-0.023 0.132-0.054 0.341-0.054s0.302 0.039 0.341 0.054l0.209 2.634c0.015 0.178 0.155 0.318 0.333 0.325 0.17 0.016 0.333-0.108 0.372-0.279l0.403-1.79c0.387 0.155 1.007 0.48 1.426 1.069 0.535 0.752 0.69 1.945 0.69 1.96 0.015 0.147 0.132 0.271 0.279 0.302 0 0 0.318 0.070 0.449 0.318 0.077 0.147 0.108 0.31 0.116 0.403-0.085 0.015-0.217 0.015-0.31 0.015h-8.616c-0.093 0-0.225 0-0.31-0.015 0.008-0.093 0.039-0.256 0.116-0.403z"></path>
<path fill="#fff" d="M10.228 26.491h11.545c0.194 0 0.356-0.163 0.356-0.356v-6.966c0-0.194-0.163-0.356-0.356-0.356h-11.545c-0.194 0-0.356 0.163-0.356 0.356v6.966c0 0.194 0.163 0.356 0.356 0.356zM10.592 19.525h10.824v6.245h-10.824v-6.245z"></path>
<path fill="#fff" d="M9.422 27.746h13.156c0.194 0 0.356-0.163 0.356-0.356s-0.163-0.356-0.356-0.356h-13.156c-0.194 0-0.356 0.163-0.356 0.356s0.163 0.356 0.356 0.356z"></path>
<path fill="#fff" d="M31.101 28.668h-6.811v-10.003c0-0.806-0.139-1.511-0.395-2.108h4.556c0.015 0 0.953-0.015 1.635 0.651 0.465 0.449 0.697 1.123 0.697 1.984v6.524c0 0.008 0.008 0.589-0.356 0.969-0.225 0.232-0.55 0.349-0.976 0.349-0.194 0-0.356 0.163-0.356 0.356s0.163 0.356 0.356 0.356c0.628 0 1.131-0.194 1.488-0.566 0.581-0.604 0.558-1.457 0.558-1.48v-6.508c0-1.069-0.31-1.906-0.907-2.495-0.891-0.876-2.1-0.86-2.146-0.852h-4.959c-0.116-0.155-0.24-0.31-0.38-0.449-1.162-1.139-2.743-1.116-2.797-1.116h-8.476c-0.062 0-1.643-0.023-2.805 1.116-0.139 0.139-0.263 0.287-0.38 0.449h-5.083c-0.046 0-1.255-0.015-2.154 0.852-0.604 0.589-0.907 1.433-0.907 2.495v6.493c0 0.039-0.023 0.891 0.558 1.495 0.364 0.372 0.86 0.566 1.488 0.566 0.194 0 0.356-0.163 0.356-0.356s-0.163-0.356-0.356-0.356c-0.426 0-0.752-0.116-0.976-0.341-0.372-0.38-0.356-0.969-0.356-0.992v-6.508c0-0.86 0.232-1.526 0.69-1.984 0.674-0.659 1.627-0.659 1.65-0.659h4.688c-0.263 0.604-0.395 1.302-0.395 2.108v10.011h-6.818c-0.194 0-0.356 0.163-0.356 0.356s0.163 0.356 0.356 0.356h30.071c0.194 0 0.356-0.163 0.356-0.356s-0.155-0.356-0.356-0.356zM11.824 14.993h8.492c0.015 0 1.34-0.015 2.286 0.914 0.643 0.628 0.969 1.557 0.969 2.758v9.949h-15.016v-9.949c0-1.193 0.325-2.123 0.969-2.751 0.945-0.93 2.278-0.922 2.301-0.922z"></path>
<path fill="#fff" d="M6.71 15.248c1.674 0 3.037-1.364 3.037-3.037s-1.364-3.037-3.037-3.037-3.037 1.364-3.037 3.037 1.364 3.037 3.037 3.037zM6.71 9.887c1.278 0 2.324 1.046 2.324 2.324s-1.046 2.324-2.324 2.324c-1.286 0-2.324-1.046-2.324-2.324s1.046-2.324 2.324-2.324z"></path>
<path fill="#fff" d="M25.29 15.248c1.674 0 3.037-1.364 3.037-3.037s-1.364-3.037-3.037-3.037-3.037 1.364-3.037 3.037 1.356 3.037 3.037 3.037zM25.29 9.887c1.286 0 2.324 1.046 2.324 2.324s-1.046 2.324-2.324 2.324-2.324-1.046-2.324-2.324 1.038-2.324 2.324-2.324z"></path>
</svg>
