<!-- Generated by IcoMoon.io -->
<svg version="1.1" xmlns="http://www.w3.org/2000/svg" width="32" height="32" viewBox="0 0 32 32">
<title>developers-group-01</title>
<path fill="#fff" d="M16 11.917c2.185 0 3.967-1.782 3.967-3.967s-1.782-3.967-3.967-3.967-3.967 1.782-3.967 3.967c0 2.185 1.782 3.967 3.967 3.967zM16 4.688c1.798 0 3.254 1.457 3.254 3.254s-1.457 3.254-3.254 3.254-3.254-1.457-3.254-3.254c0-1.79 1.464-3.254 3.254-3.254z"></path>
<path fill="#fff" d="M10.228 25.127h11.545c0.194 0 0.356-0.163 0.356-0.356v-6.966c0-0.194-0.163-0.356-0.356-0.356h-11.545c-0.194 0-0.356 0.163-0.356 0.356v6.966c0 0.201 0.163 0.356 0.356 0.356zM10.592 18.169h10.824v6.245h-10.824v-6.245z"></path>
<path fill="#fff" d="M22.578 25.67h-13.156c-0.194 0-0.356 0.163-0.356 0.356s0.163 0.356 0.356 0.356h13.156c0.194 0 0.356-0.163 0.356-0.356s-0.155-0.356-0.356-0.356z"></path>
<path fill="#fff" d="M31.101 27.312h-6.865v-9.964c0-0.821-0.139-1.542-0.418-2.154h4.633c0.015 0 0.961-0.015 1.635 0.651 0.465 0.449 0.697 1.123 0.697 1.984v6.524c0 0.008 0.008 0.589-0.356 0.969-0.225 0.232-0.55 0.349-0.976 0.349-0.194 0-0.356 0.163-0.356 0.356s0.163 0.356 0.356 0.356c0.628 0 1.131-0.194 1.488-0.566 0.581-0.604 0.558-1.457 0.558-1.48v-6.508c0-1.069-0.31-1.906-0.907-2.495-0.891-0.876-2.1-0.86-2.146-0.852h-5.044c-0.108-0.139-0.225-0.279-0.349-0.403-1.162-1.139-2.743-1.116-2.797-1.116h-8.492c-0.062 0-1.643-0.023-2.805 1.116-0.132 0.124-0.24 0.263-0.349 0.403h-5.044c-0.054 0-1.255-0.015-2.154 0.852-0.604 0.589-0.907 1.433-0.907 2.495v6.493c0 0.039-0.023 0.891 0.558 1.495 0.364 0.372 0.86 0.566 1.488 0.566 0.194 0 0.356-0.163 0.356-0.356s-0.163-0.356-0.356-0.356c-0.426 0-0.752-0.116-0.976-0.341-0.372-0.38-0.356-0.969-0.356-0.992v-6.508c0-0.86 0.232-1.526 0.69-1.984 0.674-0.659 1.627-0.659 1.65-0.659h4.626c-0.271 0.612-0.418 1.333-0.418 2.154v9.956h-6.733c-0.194 0-0.356 0.163-0.356 0.356s0.163 0.356 0.356 0.356h30.063c0.194 0 0.356-0.163 0.356-0.356 0.008-0.186-0.147-0.341-0.349-0.341zM8.484 27.312v-9.964c0-1.201 0.325-2.123 0.969-2.758 0.945-0.93 2.278-0.914 2.309-0.914h8.5c0.015 0 1.348-0.015 2.301 0.914 0.643 0.635 0.969 1.557 0.969 2.758v9.956l-15.047 0.008z"></path>
<path fill="#fff" d="M6.71 13.893c1.674 0 3.037-1.364 3.037-3.037s-1.364-3.037-3.037-3.037-3.037 1.364-3.037 3.037 1.364 3.037 3.037 3.037zM6.71 8.523c1.278 0 2.324 1.046 2.324 2.324s-1.046 2.324-2.324 2.324c-1.286 0-2.324-1.046-2.324-2.324s1.046-2.324 2.324-2.324z"></path>
<path fill="#fff" d="M25.29 13.893c1.674 0 3.037-1.364 3.037-3.037s-1.364-3.037-3.037-3.037-3.037 1.364-3.037 3.037 1.356 3.037 3.037 3.037zM25.29 8.523c1.286 0 2.324 1.046 2.324 2.324s-1.046 2.324-2.324 2.324-2.324-1.046-2.324-2.324 1.038-2.324 2.324-2.324z"></path>
</svg>
