<!-- Generated by IcoMoon.io -->
<svg version="1.1" xmlns="http://www.w3.org/2000/svg" width="32" height="32" viewBox="0 0 32 32">
<title>developer-01</title>
<path fill="#fff" d="M15.93 11.886c2.2 0 3.998-1.79 3.998-3.998s-1.79-3.998-3.998-3.998c-2.2 0-3.998 1.79-3.998 3.998s1.798 3.998 3.998 3.998zM15.93 4.618c1.805 0 3.277 1.472 3.277 3.277s-1.472 3.277-3.277 3.277-3.277-1.472-3.277-3.277 1.472-3.277 3.277-3.277z"></path>
<path fill="#fff" d="M10.127 25.189h11.622c0.201 0 0.356-0.163 0.356-0.356v-7.012c0-0.201-0.163-0.356-0.356-0.356h-11.622c-0.201 0-0.356 0.163-0.356 0.356v7.012c-0.008 0.201 0.155 0.356 0.356 0.356zM10.483 18.185h10.902v6.292h-10.902v-6.292z"></path>
<path fill="#fff" d="M22.555 25.739h-13.242c-0.201 0-0.356 0.163-0.356 0.356 0 0.201 0.163 0.356 0.356 0.356h13.242c0.201 0 0.356-0.163 0.356-0.356 0.008-0.201-0.155-0.356-0.356-0.356z"></path>
<path fill="#fff" d="M31.14 27.382h-6.911v-10.026c0-1.41-0.403-2.518-1.193-3.293-1.17-1.147-2.766-1.123-2.82-1.123h-8.554c-0.062 0-1.658-0.023-2.828 1.123-0.79 0.775-1.193 1.883-1.193 3.293v10.026h-6.78c-0.201 0-0.356 0.163-0.356 0.356 0 0.201 0.163 0.356 0.356 0.356h30.28c0.201 0 0.356-0.163 0.356-0.356s-0.163-0.356-0.356-0.356zM8.36 27.382v-10.026c0-1.209 0.325-2.139 0.976-2.774 0.953-0.938 2.293-0.93 2.324-0.922h8.562c0.015 0 1.348-0.015 2.309 0.922 0.651 0.635 0.976 1.573 0.976 2.782v10.026l-15.148-0.008z"></path>
</svg>
