<!-- Generated by IcoMoon.io -->
<svg version="1.1" xmlns="http://www.w3.org/2000/svg" width="32" height="32" viewBox="0 0 32 32">
<title>developer-02</title>
<path fill="#fff" d="M10.189 26.545h11.622c0.201 0 0.356-0.163 0.356-0.356v-7.012c0-0.201-0.163-0.356-0.356-0.356h-11.622c-0.201 0-0.356 0.163-0.356 0.356v7.012c0 0.201 0.163 0.356 0.356 0.356zM10.553 19.541h10.902v6.292h-10.902v-6.292z"></path>
<path fill="#fff" d="M22.625 27.095h-13.249c-0.201 0-0.356 0.163-0.356 0.356s0.163 0.356 0.356 0.356h13.249c0.201 0 0.356-0.163 0.356-0.356s-0.163-0.356-0.356-0.356z"></path>
<path fill="#fff" d="M31.14 28.738h-6.842v-10.026c0-1.41-0.403-2.518-1.193-3.293-1.17-1.147-2.766-1.123-2.82-1.123h-8.554c-0.062 0-1.658-0.023-2.828 1.123-0.79 0.775-1.193 1.883-1.193 3.293v10.026h-6.849c-0.201 0-0.356 0.163-0.356 0.356 0 0.201 0.163 0.356 0.356 0.356h30.272c0.201 0 0.356-0.163 0.356-0.356 0.008-0.194-0.155-0.356-0.349-0.356zM8.43 28.738v-10.026c0-1.209 0.325-2.139 0.976-2.774 0.953-0.938 2.301-0.93 2.317-0.922h8.562c0.015 0 1.348-0.015 2.309 0.922 0.651 0.635 0.976 1.573 0.976 2.782v10.026l-15.14-0.008z"></path>
<path fill="#fff" d="M11.653 9.034h0.364c0 0.070-0.015 0.139-0.015 0.217 0 2.2 1.79 3.998 3.998 3.998 2.2 0 3.998-1.79 3.998-3.998 0-0.070 0-0.139-0.008-0.217h0.356c0.333 0 1.015 0 1.030-0.651 0-0.116-0.031-0.48-0.201-0.814-0.178-0.341-0.48-0.519-0.69-0.612-0.077-0.434-0.294-1.379-0.79-2.069-0.798-1.131-2.146-1.472-2.208-1.48-0.093-0.023-0.194-0.008-0.271 0.046-0.054 0.031-0.101 0.077-0.132 0.139l-0.031-0.418c-0.008-0.062-0.101-0.628-1.054-0.628s-1.046 0.566-1.054 0.643l-0.031 0.403c-0.031-0.054-0.070-0.101-0.124-0.139-0.085-0.054-0.186-0.070-0.271-0.046-0.054 0.015-1.402 0.349-2.208 1.48-0.488 0.697-0.713 1.643-0.79 2.069-0.217 0.093-0.511 0.271-0.69 0.612-0.178 0.333-0.209 0.705-0.201 0.821 0.008 0.643 0.697 0.643 1.023 0.643zM19.277 9.251c0 1.805-1.472 3.277-3.277 3.277s-3.277-1.472-3.277-3.277c0-0.070 0.008-0.139 0.015-0.217h6.524c0.008 0.070 0.015 0.139 0.015 0.217zM11.46 7.903c0.132-0.248 0.449-0.318 0.449-0.318 0.155-0.031 0.263-0.155 0.287-0.31 0-0.016 0.155-1.216 0.697-1.976 0.418-0.597 1.054-0.922 1.441-1.077l0.403 1.805c0.039 0.17 0.201 0.294 0.38 0.279s0.318-0.155 0.333-0.333l0.209-2.658c0.039-0.023 0.139-0.054 0.341-0.054 0.209 0 0.302 0.039 0.341 0.054l0.209 2.658c0.015 0.178 0.155 0.318 0.333 0.333s0.341-0.108 0.38-0.279l0.403-1.805c0.387 0.155 1.015 0.48 1.441 1.085 0.535 0.759 0.697 1.96 0.697 1.976 0.015 0.147 0.132 0.271 0.279 0.31 0 0 0.318 0.077 0.449 0.318 0.077 0.147 0.108 0.31 0.116 0.403-0.085 0.015-0.217 0.015-0.31 0.015h-8.686c-0.093 0-0.225 0-0.31-0.015 0.015-0.108 0.046-0.271 0.116-0.411z"></path>
</svg>
