<!-- Generated by IcoMoon.io -->
<svg version="1.1" xmlns="http://www.w3.org/2000/svg" width="32" height="32" viewBox="0 0 32 32">
<title>digital-footprint</title>
<path fill="#fff" d="M12.188 4.866c0-1.829-1.030-3.262-2.348-3.262s-2.348 1.433-2.348 3.262 1.031 3.27 2.348 3.27 2.348-1.441 2.348-3.27zM9.84 7.4c-0.876 0-1.612-1.162-1.612-2.534s0.736-2.534 1.612-2.534 1.612 1.162 1.612 2.534-0.744 2.534-1.612 2.534z"></path>
<path fill="#fff" d="M14.086 4.99c0.922 0 1.65-0.984 1.65-2.239s-0.721-2.239-1.65-2.239c-0.922 0-1.65 0.984-1.65 2.239s0.728 2.239 1.65 2.239zM14.086 1.24c0.496 0 0.914 0.69 0.914 1.503s-0.418 1.511-0.914 1.511c-0.496 0-0.914-0.69-0.914-1.511s0.426-1.503 0.914-1.503z"></path>
<path fill="#fff" d="M17.65 4.959c0.837 0 1.488-0.883 1.488-2.007s-0.651-2.007-1.488-2.007-1.488 0.883-1.488 2.007c0 1.131 0.651 2.007 1.488 2.007zM17.65 1.689c0.356 0 0.752 0.519 0.752 1.271s-0.395 1.271-0.752 1.271-0.752-0.519-0.752-1.271 0.395-1.271 0.752-1.271z"></path>
<path fill="#fff" d="M20.796 5.625c0.713 0 1.271-0.744 1.271-1.681s-0.558-1.681-1.271-1.681c-0.713 0-1.271 0.744-1.271 1.681s0.566 1.681 1.271 1.681zM20.796 2.991c0.248 0 0.535 0.403 0.535 0.953s-0.279 0.953-0.535 0.953c-0.248 0-0.535-0.403-0.535-0.953s0.287-0.953 0.535-0.953z"></path>
<path fill="#fff" d="M23.074 7.616c0.666 0 1.216-0.628 1.216-1.395s-0.542-1.395-1.216-1.395-1.216 0.628-1.216 1.395 0.55 1.395 1.216 1.395zM23.074 5.555c0.256 0 0.48 0.302 0.48 0.659s-0.217 0.659-0.48 0.659c-0.256 0-0.48-0.302-0.48-0.659 0-0.349 0.225-0.659 0.48-0.659z"></path>
<path fill="#fff" d="M15.713 17.232c0-0.79-0.643-1.433-1.433-1.433-0.201 0-0.387 0.039-0.558 0.116-0.225-0.333-0.426-0.597-0.558-0.767-0.039-0.054-0.077-0.101-0.116-0.139-0.085-0.108-0.139-0.163-0.147-0.178-0.744-0.969-1.139-2.115-1.139-3.339 0-3.022 2.456-5.478 5.478-5.478s5.478 2.456 5.478 5.478v1.247c0 0.201 0.163 0.364 0.364 0.364s0.364-0.163 0.364-0.364v-1.247c0-3.425-2.789-6.214-6.214-6.214s-6.214 2.789-6.214 6.214c0 1.371 0.442 2.673 1.286 3.773v0.008c0.101 0.132 0.186 0.24 0.271 0.333 0.132 0.163 0.325 0.426 0.55 0.759-0.186 0.24-0.294 0.542-0.294 0.868 0 0.79 0.643 1.433 1.433 1.433 0.806 0 1.449-0.643 1.449-1.433zM13.575 17.232c0-0.387 0.31-0.697 0.697-0.697s0.697 0.31 0.697 0.697-0.31 0.697-0.697 0.697c-0.38 0.008-0.697-0.31-0.697-0.697z"></path>
<path fill="#fff" d="M24.508 15.442c0-0.79-0.643-1.433-1.433-1.433-0.666 0-1.216 0.457-1.379 1.069h-3.285c-0.38 0-0.69-0.31-0.69-0.69v-2.007c0-0.457 0.372-0.829 0.829-0.829h2.247c0.201 0 0.364-0.163 0.364-0.364 0-1.224-0.55-2.371-1.503-3.138-0.953-0.775-2.2-1.062-3.425-0.806-1.534 0.325-2.766 1.581-3.068 3.123-0.232 1.185 0.039 2.348 0.775 3.301 0 0 0.062 0.070 0.155 0.194 0.124 0.155 0.356 0.186 0.519 0.062s0.186-0.356 0.062-0.519c-0.101-0.124-0.163-0.201-0.163-0.201-0.597-0.767-0.814-1.72-0.62-2.696 0.248-1.255 1.255-2.278 2.503-2.541 1.007-0.217 2.030 0.023 2.805 0.659 0.682 0.55 1.116 1.34 1.209 2.2h-1.86c-0.86 0-1.557 0.697-1.557 1.557v2.007c0 0.783 0.635 1.418 1.418 1.418h1.371v10.336c0 0.651-0.535 1.185-1.185 1.185s-1.185-0.535-1.185-1.185c0-0.101 0.015-0.209 0.047-0.325 0.008-0.015 0.008-0.031 0.008-0.054 0.008-0.015 0.008-0.023 0.015-0.039 0.062-0.209 0.17-0.643 0.225-1.116 0.015-0.101-0.023-0.209-0.093-0.287s-0.17-0.124-0.279-0.124h-2.355c0.116-0.488 0.225-1.069 0.318-1.697 0.697-0.093 1.24-0.69 1.24-1.418 0-0.79-0.643-1.433-1.433-1.433s-1.433 0.643-1.433 1.433c0 0.604 0.372 1.116 0.899 1.333-0.163 1.123-0.418 2.115-0.566 2.627-0.015 0.039-0.023 0.070-0.023 0.085-0.039 0.116-0.054 0.186-0.054 0.186-0.008 0.023-0.008 0.054-0.015 0.077-0.116 0.434-0.178 0.845-0.178 1.255 0 2.673 2.177 4.843 4.85 4.843s4.843-2.169 4.843-4.843v-9.817c0.628-0.163 1.085-0.721 1.085-1.387zM15.117 20.393c0.387 0 0.697 0.31 0.697 0.697s-0.31 0.697-0.697 0.697-0.697-0.31-0.697-0.697 0.31-0.697 0.697-0.697zM18.596 30.76c-2.27 0-4.114-1.844-4.114-4.107 0-0.364 0.054-0.728 0.17-1.131 0.008-0.023 0.008-0.054 0.015-0.077s0.015-0.054 0.031-0.093c0-0.008 0.008-0.039 0.015-0.047 0.008-0.015 0.008-0.023 0.015-0.039 0.023-0.093 0.054-0.209 0.093-0.325h2.107c-0.047 0.248-0.108 0.465-0.139 0.589v0c0 0.008-0.008 0.015-0.008 0.015l-0.023 0.077c-0.008 0.015-0.008 0.031-0.008 0.047-0.047 0.163-0.062 0.325-0.062 0.48 0 1.061 0.86 1.922 1.922 1.922s1.922-0.86 1.922-1.922v-10.336h1.162c0.132 0.496 0.519 0.883 1.015 1.015v9.825c0 2.262-1.844 4.107-4.114 4.107zM23.074 16.147c-0.387 0-0.697-0.31-0.697-0.697s0.31-0.697 0.697-0.697 0.697 0.31 0.697 0.697-0.31 0.697-0.697 0.697z"></path>
</svg>
