<!-- Generated by IcoMoon.io -->
<svg version="1.1" xmlns="http://www.w3.org/2000/svg" width="32" height="32" viewBox="0 0 32 32">
<title>directions</title>
<path fill="#fff" d="M28.227 20.664l-2.27-2.247c-0.070-0.070-0.163-0.108-0.263-0.108h-11.576v-9.499h8.151c0.101 0 0.194-0.039 0.263-0.108l2.27-2.247c0.070-0.070 0.108-0.163 0.108-0.263s-0.039-0.194-0.108-0.263l-2.27-2.247c-0.070-0.070-0.163-0.108-0.263-0.108h-8.151v-2.696c0-0.201-0.163-0.372-0.372-0.372h-1.914c-0.201 0-0.372 0.163-0.372 0.372v10.065h-5.153c-0.101 0-0.194 0.039-0.263 0.108l-2.27 2.247c-0.070 0.070-0.108 0.163-0.108 0.263s0.039 0.194 0.108 0.263l2.27 2.247c0.070 0.070 0.163 0.108 0.263 0.108h5.16v14.582h-5.067c-0.201 0-0.372 0.163-0.372 0.372s0.163 0.372 0.372 0.372h12.97c0.201 0 0.372-0.163 0.372-0.372s-0.163-0.372-0.372-0.372h-5.253v-7.214h11.576c0.101 0 0.194-0.039 0.263-0.108l2.27-2.247c0.070-0.070 0.108-0.163 0.108-0.263s-0.039-0.194-0.108-0.263zM11.46 15.434h-5.005l-1.898-1.875 1.898-1.875h4.998l0.008 3.75zM22.121 4.308l1.898 1.875-1.898 1.875h-8.004v-3.75h8.004zM12.203 30.753v-29.505h1.17v29.505h-1.17zM25.546 22.803h-11.429v-3.758h11.421l1.898 1.875-1.891 1.883z"></path>
</svg>
