<!-- Generated by IcoMoon.io -->
<svg version="1.1" xmlns="http://www.w3.org/2000/svg" width="32" height="32" viewBox="0 0 32 32">
<title>disability</title>
<path fill="#fff" d="M12.544 6.191c1.565 0 2.844-1.278 2.844-2.844s-1.278-2.844-2.844-2.844-2.851 1.278-2.851 2.844 1.278 2.844 2.851 2.844zM12.544 1.216c1.178 0 2.131 0.953 2.131 2.131s-0.961 2.131-2.131 2.131-2.131-0.953-2.131-2.131 0.953-2.131 2.131-2.131z"></path>
<path fill="#fff" d="M22.694 26.491c-1.813 2.689-4.835 4.293-8.074 4.293-5.37 0-9.739-4.37-9.739-9.739 0-3.308 1.658-6.361 4.432-8.167 0.163-0.108 0.209-0.325 0.101-0.496-0.108-0.163-0.325-0.209-0.496-0.101-2.975 1.937-4.757 5.215-4.757 8.763 0 5.765 4.688 10.452 10.452 10.452 3.479 0 6.718-1.72 8.662-4.61 0.108-0.163 0.070-0.387-0.093-0.496-0.155-0.108-0.38-0.062-0.488 0.101z"></path>
<path fill="#fff" d="M27.785 27.157l-4.881-8.469-8.5 1.069-1.697-7.934c1.96 2.58 5.005 4.122 8.306 4.122 0.225 0 0.449-0.008 0.674-0.023 0.194-0.015 0.349-0.178 0.333-0.38-0.015-0.194-0.186-0.349-0.38-0.333-3.952 0.248-7.632-1.891-9.368-5.447l-0.209-0.992c-0.039-0.194-0.232-0.318-0.426-0.271-0.194 0.039-0.318 0.232-0.271 0.426l2.479 11.622 8.678-1.093 4.649 8.058c0.070 0.116 0.186 0.178 0.31 0.178 0.062 0 0.124-0.015 0.178-0.047 0.163-0.101 0.217-0.318 0.124-0.488z"></path>
</svg>
