<!-- Generated by IcoMoon.io -->
<svg version="1.1" xmlns="http://www.w3.org/2000/svg" width="32" height="32" viewBox="0 0 32 32">
<title>disaster</title>
<path fill="#fff" d="M30.993 26.15c-1.325 0-1.96-0.635-2.696-1.371-0.759-0.759-1.627-1.627-3.301-1.627s-2.541 0.86-3.301 1.627c-0.736 0.736-1.371 1.371-2.696 1.371s-1.96-0.635-2.696-1.371c-0.759-0.759-1.627-1.627-3.301-1.627s-2.541 0.86-3.301 1.627c-0.736 0.736-1.371 1.371-2.696 1.371s-1.96-0.635-2.696-1.371c-0.759-0.759-1.627-1.627-3.301-1.627-0.232 0-0.426 0.194-0.426 0.426s0.194 0.426 0.426 0.426c1.325 0 1.96 0.635 2.696 1.371 0.759 0.759 1.627 1.627 3.301 1.627s2.541-0.86 3.301-1.627c0.736-0.736 1.371-1.371 2.696-1.371s1.96 0.635 2.696 1.371c0.759 0.759 1.627 1.627 3.301 1.627s2.541-0.86 3.301-1.627c0.736-0.736 1.371-1.371 2.696-1.371s1.96 0.635 2.696 1.371c0.759 0.759 1.627 1.627 3.301 1.627 0.232 0 0.426-0.194 0.426-0.426 0-0.24-0.194-0.426-0.426-0.426z"></path>
<path fill="#fff" d="M30.993 30.644c-1.325 0-1.96-0.635-2.696-1.371-0.759-0.759-1.627-1.627-3.301-1.627s-2.541 0.86-3.301 1.627c-0.736 0.736-1.371 1.371-2.696 1.371s-1.96-0.635-2.696-1.371c-0.759-0.759-1.627-1.627-3.301-1.627s-2.541 0.86-3.301 1.627c-0.736 0.736-1.371 1.371-2.696 1.371s-1.96-0.635-2.696-1.371c-0.759-0.759-1.627-1.627-3.301-1.627-0.232 0-0.426 0.194-0.426 0.426s0.194 0.426 0.426 0.426c1.325 0 1.96 0.635 2.696 1.371 0.759 0.759 1.627 1.627 3.301 1.627s2.541-0.86 3.301-1.627c0.736-0.736 1.371-1.371 2.696-1.371s1.96 0.635 2.696 1.371c0.759 0.759 1.627 1.627 3.301 1.627s2.541-0.86 3.301-1.627c0.736-0.736 1.371-1.371 2.696-1.371s1.96 0.635 2.696 1.371c0.759 0.759 1.627 1.627 3.301 1.627 0.232 0 0.426-0.194 0.426-0.426s-0.194-0.426-0.426-0.426z"></path>
<path fill="#fff" d="M1.007 19.51c1.325 0 1.96 0.635 2.696 1.371 0.759 0.759 1.627 1.627 3.301 1.627 0.674 0 1.209-0.139 1.666-0.356 0.023-0.008 0.039-0.015 0.054-0.031 0.651-0.325 1.139-0.798 1.581-1.24 0.736-0.736 1.371-1.371 2.696-1.371s1.96 0.635 2.696 1.371c0.759 0.759 1.627 1.627 3.301 1.627s2.541-0.86 3.301-1.627c0.263-0.263 0.511-0.511 0.79-0.728 0.116-0.023 0.217-0.093 0.279-0.194 0.434-0.271 0.938-0.457 1.635-0.457 1.325 0 1.96 0.635 2.696 1.371 0.759 0.759 1.627 1.627 3.301 1.627 0.232 0 0.426-0.194 0.426-0.426s-0.194-0.426-0.426-0.426c-1.325 0-1.96-0.635-2.696-1.371-0.759-0.759-1.627-1.627-3.301-1.627-0.62 0-1.131 0.116-1.565 0.31v-9.763l1.596 1.596c0.085 0.085 0.194 0.124 0.302 0.124s0.217-0.039 0.302-0.124c0.163-0.163 0.163-0.434 0-0.604l-2.317-2.317c-0.008-0.008-0.008-0.008-0.008-0.016l-7.268-7.252c-0.039-0.031-0.077-0.054-0.116-0.070-0.008 0-0.015-0.008-0.023-0.008-0.039-0.015-0.077-0.023-0.116-0.023-0.015 0-0.031 0-0.046 0-0.039 0-0.085 0.008-0.124 0.023v0c-0.062 0.023-0.116 0.054-0.163 0.101v0c0 0-0.008 0.008-0.015 0.008l-7.229 7.229c-0.008 0.008-0.008 0.008-0.008 0.016l-2.317 2.309c-0.163 0.163-0.163 0.434 0 0.604 0.085 0.085 0.194 0.124 0.302 0.124s0.217-0.039 0.302-0.124l1.596-1.596v12.265c-0.31 0.116-0.659 0.186-1.093 0.186-1.325 0-1.96-0.635-2.696-1.371-0.759-0.759-1.627-1.627-3.301-1.627-0.232 0-0.426 0.194-0.426 0.426 0.008 0.24 0.201 0.434 0.434 0.434zM13.916 18.758v-4.657h3.68v7.229c-0.496-0.256-0.883-0.635-1.302-1.054-0.604-0.604-1.278-1.271-2.379-1.519zM8.949 8.345l6.811-6.811 6.811 6.811v11.134c-0.325 0.256-0.612 0.535-0.883 0.806-0.736 0.736-1.371 1.371-2.696 1.371-0.194 0-0.372-0.015-0.542-0.047v-7.539c0-0.449-0.364-0.814-0.814-0.814h-3.758c-0.449 0-0.814 0.364-0.814 0.814v4.595c-0.023 0-0.039-0.008-0.062-0.008-1.674 0-2.541 0.86-3.301 1.627-0.256 0.256-0.496 0.488-0.752 0.697 0 0 0-12.637 0-12.637z"></path>
</svg>
