<!-- Generated by IcoMoon.io -->
<svg version="1.1" xmlns="http://www.w3.org/2000/svg" width="32" height="32" viewBox="0 0 32 32">
<title>diversity</title>
<path fill="#fff" d="M15.713 22.547c-0.736-0.325-1.449-0.728-2.115-1.201-0.418-0.294-0.814-0.612-1.178-0.945-0.434-0.403-0.783-0.752-1.085-1.116l-0.023-0.031c-0.217-0.256-0.434-0.535-0.674-0.883-0.225-0.325-0.442-0.674-0.666-1.077-0.163-0.294-0.31-0.589-0.449-0.891-0.155-0.349-0.302-0.705-0.418-1.054-0.093-0.279-0.186-0.573-0.263-0.876-0.093-0.349-0.163-0.697-0.225-1.038-0.046-0.279-0.085-0.566-0.116-0.86l-0.015-0.147c0-0.023-0.008-0.054-0.008-0.077-0.217 0.077-0.442 0.163-0.674 0.271-0.449 0.201-0.891 0.442-1.302 0.721-0.395 0.263-0.767 0.566-1.123 0.899l-0.070 0.062c-0.039 0.039-0.085 0.077-0.124 0.116-0.178 0.178-0.364 0.38-0.535 0.589-0.225 0.271-0.442 0.573-0.674 0.938-0.163 0.263-0.318 0.527-0.442 0.79-0.17 0.333-0.302 0.651-0.411 0.961-0.085 0.24-0.163 0.504-0.24 0.806s-0.139 0.628-0.186 0.976l-0.023 0.139c-0.015 0.085-0.023 0.178-0.031 0.263-0.008 0.093-0.008 0.178-0.008 0.271v0.147c-0.015 0.341-0.008 0.674 0.015 0.992 0.023 0.279 0.054 0.558 0.101 0.837 0.062 0.372 0.139 0.697 0.232 1.015 0.093 0.302 0.194 0.589 0.302 0.852 0.139 0.341 0.31 0.682 0.519 1.038 0.17 0.294 0.364 0.581 0.589 0.876l0.093 0.124c0.062 0.085 0.124 0.17 0.194 0.256 0.194 0.232 0.411 0.457 0.659 0.697 0.349 0.333 0.736 0.643 1.154 0.922 0.845 0.566 1.774 0.976 2.782 1.224 0.496 0.124 0.945 0.201 1.371 0.232 0.201 0.015 0.403 0.023 0.612 0.023 0.232 0 0.473-0.008 0.744-0.031 1.030-0.070 2.030-0.325 2.96-0.744 0.465-0.209 0.899-0.449 1.294-0.721 0.387-0.256 0.767-0.558 1.123-0.899 0.031-0.031 0.062-0.062 0.101-0.085 0.031-0.031 0.070-0.062 0.101-0.093 0.178-0.178 0.333-0.364 0.519-0.589 0.263-0.318 0.496-0.62 0.69-0.93 0.147-0.232 0.287-0.488 0.442-0.79 0.155-0.318 0.294-0.635 0.403-0.953-0.015 0-0.031 0-0.039 0-1.302-0.116-2.619-0.449-3.882-1.007z"></path>
<path fill="#fff" d="M17.309 14.164l-4.362 1.379c0.132 0.248 0.287 0.488 0.442 0.728l4.564-1.441c-0.209-0.248-0.418-0.465-0.643-0.666z"></path>
<path fill="#fff" d="M15.117 12.684l-2.937 0.93c0.070 0.263 0.155 0.527 0.256 0.79l3.673-1.162c-0.318-0.209-0.651-0.395-0.992-0.558z"></path>
<path fill="#fff" d="M12.134 11.878c-0.077-0.008-0.163-0.015-0.24-0.015 0.008 0.17 0.023 0.349 0.046 0.527l1.162-0.364c-0.325-0.077-0.651-0.124-0.969-0.147z"></path>
<path fill="#fff" d="M19.913 20.114c0.077 0.008 0.163 0.015 0.24 0.015-0.008-0.108-0.015-0.225-0.031-0.349l-0.806 0.256c0.209 0.039 0.403 0.062 0.597 0.077z"></path>
<path fill="#fff" d="M17.17 19.409l2.743-0.868c-0.062-0.248-0.139-0.504-0.24-0.79l-3.541 1.116c0.333 0.209 0.682 0.387 1.038 0.542z"></path>
<path fill="#fff" d="M14.884 17.96l4.292-1.356c-0.139-0.271-0.279-0.511-0.418-0.736l-4.54 1.433c0.225 0.24 0.442 0.465 0.666 0.659z"></path>
<path fill="#fff" d="M31.496 11.405c0-5.982-4.866-10.847-10.847-10.847-5.455 0-9.98 4.045-10.731 9.29-5.308 0.705-9.414 5.253-9.414 10.747 0 5.982 4.866 10.847 10.847 10.847 5.455 0 9.98-4.045 10.731-9.29 5.308-0.705 9.414-5.253 9.414-10.747zM11.351 30.691c-5.563 0-10.096-4.525-10.096-10.096 0-5.052 3.727-9.251 8.585-9.98-0.015 0.263-0.031 0.519-0.031 0.783 0 5.982 4.866 10.847 10.847 10.847 0.225 0 0.442-0.008 0.659-0.023-0.783 4.796-4.951 8.469-9.964 8.469zM21.4 21.462c-0.248 0.015-0.496 0.031-0.752 0.031-5.563 0-10.096-4.525-10.096-10.096 0-0.294 0.015-0.581 0.039-0.868 0.248-0.015 0.496-0.031 0.752-0.031 5.563 0 10.096 4.525 10.096 10.096 0.008 0.294-0.008 0.581-0.039 0.868zM22.16 21.385c0.015-0.263 0.031-0.519 0.031-0.783 0-5.982-4.866-10.847-10.847-10.847-0.225 0-0.442 0.008-0.659 0.023 0.783-4.796 4.951-8.469 9.964-8.469 5.563 0 10.096 4.525 10.096 10.096 0 5.052-3.727 9.244-8.585 9.98z"></path>
</svg>
