<!-- Generated by IcoMoon.io -->
<svg version="1.1" xmlns="http://www.w3.org/2000/svg" width="32" height="32" viewBox="0 0 32 32">
<title>door-open</title>
<path fill="#fff" d="M27.638 28.661h-2.766v-25.445c0-0.418-0.341-0.759-0.759-0.759h-3.642v-1.317c0-0.186-0.085-0.364-0.225-0.488s-0.325-0.17-0.511-0.139l-11.576 1.945c-0.217 0.039-0.372 0.225-0.372 0.442v25.763h-3.425c-0.248 0-0.442 0.201-0.442 0.442 0 0.248 0.201 0.442 0.442 0.442h3.835l11.529 1.937c0.039 0.008 0.070 0.008 0.108 0.008 0.147 0 0.294-0.054 0.411-0.147 0.139-0.124 0.225-0.294 0.225-0.488v-1.309h7.167c0.248 0 0.442-0.201 0.442-0.442s-0.201-0.442-0.442-0.442zM19.58 30.559l-10.902-1.829v-25.461l10.902-1.829v29.118zM20.471 28.661v-25.321h3.518v25.321h-3.518z"></path>
<path fill="#fff" d="M18.348 15.721c0 0.274-0.222 0.496-0.496 0.496s-0.496-0.222-0.496-0.496c0-0.274 0.222-0.496 0.496-0.496s0.496 0.222 0.496 0.496z"></path>
</svg>
