<!-- Generated by IcoMoon.io -->
<svg version="1.1" xmlns="http://www.w3.org/2000/svg" width="32" height="32" viewBox="0 0 32 32">
<title>download</title>
<path fill="#fff" d="M15.496 23.516c0.008 0.008 0.015 0.008 0.023 0.015 0.054 0.047 0.108 0.093 0.178 0.116 0.077 0.031 0.155 0.047 0.232 0.047s0.155-0.015 0.232-0.047c0.070-0.031 0.124-0.070 0.178-0.116 0.008-0.008 0.015-0.008 0.023-0.015l7.919-7.919c0.24-0.24 0.24-0.628 0-0.86-0.24-0.24-0.628-0.24-0.86 0l-6.873 6.873v-20.494c0-0.341-0.271-0.612-0.612-0.612s-0.612 0.271-0.612 0.612v20.494l-6.88-6.873c-0.24-0.24-0.628-0.24-0.86 0-0.24 0.24-0.24 0.628 0 0.86l7.911 7.919z"></path>
<path fill="#fff" d="M27.212 22.617c-0.341 0-0.612 0.271-0.612 0.612v7.051h-21.199v-7.051c0-0.341-0.271-0.612-0.612-0.612s-0.612 0.271-0.612 0.612v7.663c0 0.341 0.271 0.612 0.612 0.612h22.423c0.341 0 0.612-0.271 0.612-0.612v-7.663c0-0.341-0.271-0.612-0.612-0.612z"></path>
</svg>
