<!-- Generated by IcoMoon.io -->
<svg version="1.1" xmlns="http://www.w3.org/2000/svg" width="32" height="32" viewBox="0 0 32 32">
<title>driver</title>
<path fill="#fff" d="M27.506 19.696c-1.867-1.829-4.401-1.79-4.502-1.79h-14.009c-0.108-0.008-2.634-0.039-4.502 1.79-1.263 1.24-1.906 3.014-1.906 5.284v6.106c0 0.225 0.186 0.411 0.411 0.411h26.003c0.225 0 0.411-0.186 0.411-0.411v-6.106c0.008-2.27-0.635-4.045-1.906-5.284zM17.86 25.259l-0.426-2.906c0.511-0.411 0.829-1.046 0.829-1.751v0c0-0.008 0-0.008 0-0.008 0-0.047-0.008-0.101-0.031-0.147-0.015-0.031-0.039-0.062-0.062-0.093-0.008-0.015-0.015-0.031-0.031-0.039l-1.581-1.581h3.89l-2.588 6.524zM16.008 22.044c-0.713 0-1.309-0.535-1.41-1.232l1.441-1.441 1.387 1.387c-0.077 0.721-0.674 1.286-1.418 1.286zM13.877 20.37c-0.008 0-0.008 0 0 0-0.023 0.031-0.039 0.062-0.054 0.085-0.008 0.015-0.023 0.031-0.031 0.054-0.008 0.008 0 0.023-0.008 0.039-0.015 0.039-0.023 0.077-0.023 0.124 0 0 0 0 0 0.008 0.015 0.682 0.349 1.286 0.852 1.689l-0.434 2.968-2.603-6.594h3.944l-1.643 1.627zM15.38 22.764c0.201 0.062 0.411 0.101 0.628 0.101 0.225 0 0.449-0.031 0.659-0.101l0.589 4.029-1.255 3.161-1.216-3.092 0.597-4.099zM3.409 24.972c0-2.030 0.558-3.603 1.65-4.688 1.612-1.588 3.89-1.557 3.921-1.565h1.697l4.711 11.94h-11.979v-5.687zM28.591 30.667h-11.986l1.379-3.479c0.070-0.070 0.108-0.163 0.108-0.271l3.247-8.198h1.674c0.015 0.008 2.293-0.031 3.913 1.557 1.1 1.077 1.658 2.658 1.658 4.688v5.703h0.008z"></path>
<path fill="#fff" d="M9.050 6.966c0.031 0.016 0.325 0.155 0.969 0.325-0.256 0.705-0.395 1.441-0.395 2.2 0 3.518 2.859 6.377 6.377 6.377s6.377-2.859 6.377-6.377c0-0.752-0.139-1.495-0.395-2.2 0.643-0.17 0.938-0.31 0.969-0.325 0.17-0.085 0.256-0.279 0.209-0.465s-0.209-0.318-0.403-0.318h-0.38v-2.441c0-1.79-1.457-3.239-3.239-3.239h-6.276c-1.79 0-3.239 1.457-3.239 3.239v2.448h-0.38c-0.194 0-0.356 0.132-0.403 0.318-0.046 0.178 0.046 0.372 0.209 0.457zM21.548 9.492c0 3.061-2.487 5.548-5.548 5.548s-5.548-2.487-5.548-5.548c0-0.697 0.132-1.371 0.387-2.015 1.092 0.209 2.751 0.411 5.16 0.411s4.076-0.194 5.168-0.411c0.248 0.643 0.38 1.325 0.38 2.015zM10.452 3.742c0-1.333 1.085-2.417 2.417-2.417h6.268c1.333 0 2.417 1.085 2.417 2.417v2.448h-11.103v-2.448z"></path>
</svg>
