<!-- Generated by IcoMoon.io -->
<svg version="1.1" xmlns="http://www.w3.org/2000/svg" width="32" height="32" viewBox="0 0 32 32">
<title>efficiency</title>
<path fill="#fff" d="M9.801 23.206c0.108 0 0.217-0.039 0.302-0.124l4.889-4.734c0.449 0.31 0.992 0.488 1.573 0.488 1.542 0 2.797-1.255 2.797-2.797 0-1.395-1.030-2.557-2.371-2.758 0-0.015 0.008-0.031 0.008-0.054v-6.849c0-0.24-0.194-0.434-0.434-0.434s-0.434 0.194-0.434 0.434v6.857c0 0.015 0.008 0.031 0.008 0.054-1.34 0.201-2.371 1.364-2.371 2.758 0 0.651 0.225 1.24 0.597 1.712l-4.858 4.711c-0.17 0.163-0.178 0.442-0.008 0.612 0.077 0.085 0.194 0.124 0.302 0.124zM16.566 14.109c1.069 0 1.929 0.868 1.929 1.929s-0.868 1.937-1.929 1.937-1.929-0.868-1.929-1.929 0.86-1.937 1.929-1.937z"></path>
<path fill="#fff" d="M16.612 1.007c-0.24 0-0.434 0.194-0.434 0.434s0.194 0.434 0.434 0.434c7.818 0 14.179 6.361 14.179 14.179s-6.361 14.179-14.179 14.179-14.179-6.361-14.179-14.179c0-2.487 0.651-4.912 1.883-7.051l0.783 2.41c0.062 0.178 0.225 0.294 0.411 0.294 0.046 0 0.085-0.008 0.132-0.023 0.225-0.070 0.349-0.318 0.279-0.542l-1.1-3.363c-0.070-0.225-0.318-0.349-0.542-0.279l-3.324 1.077c-0.225 0.070-0.349 0.318-0.279 0.542s0.318 0.349 0.542 0.279l2.301-0.752c-1.278 2.255-1.953 4.788-1.953 7.4 0 8.291 6.749 15.039 15.039 15.039s15.039-6.749 15.039-15.039-6.741-15.039-15.031-15.039z"></path>
</svg>
