<!-- Generated by IcoMoon.io -->
<svg version="1.1" xmlns="http://www.w3.org/2000/svg" width="32" height="32" viewBox="0 0 32 32">
<title>elder</title>
<path fill="#fff" d="M12.165 5.943c1.495 0 2.72-1.216 2.72-2.72s-1.224-2.72-2.72-2.72-2.72 1.216-2.72 2.72 1.216 2.72 2.72 2.72zM12.165 1.185c1.123 0 2.038 0.914 2.038 2.038s-0.914 2.038-2.038 2.038-2.038-0.914-2.038-2.038 0.914-2.038 2.038-2.038z"></path>
<path fill="#fff" d="M18.758 16.186c0.023-0.186-0.108-0.356-0.294-0.38-3.649-0.48-6.4-3.626-6.4-7.314v-0.48c0-0.186-0.155-0.341-0.341-0.341s-0.341 0.155-0.341 0.341v10.065l-2.813 13.009c-0.039 0.186 0.077 0.364 0.263 0.403 0.023 0.008 0.046 0.008 0.070 0.008 0.155 0 0.294-0.108 0.333-0.271l2.526-11.677 3.138 11.692c0.039 0.155 0.178 0.256 0.325 0.256 0.031 0 0.062 0 0.085-0.015 0.178-0.047 0.287-0.232 0.24-0.418l-3.494-13.009v-6.354c1.1 2.518 3.456 4.393 6.315 4.773 0.015 0 0.031 0 0.047 0 0.17 0.008 0.318-0.116 0.341-0.287z"></path>
<path fill="#fff" d="M23.43 31.055l-4.184-13.575c-0.054-0.178-0.248-0.279-0.426-0.225s-0.279 0.248-0.225 0.426l4.184 13.575c0.047 0.147 0.178 0.24 0.325 0.24 0.031 0 0.070-0.008 0.101-0.015 0.178-0.054 0.279-0.248 0.225-0.426z"></path>
</svg>
