<!-- Generated by IcoMoon.io -->
<svg version="1.1" xmlns="http://www.w3.org/2000/svg" width="32" height="32" viewBox="0 0 32 32">
<title>email</title>
<path fill="#fff" d="M29.35 9.019l-3.82-2.208v-2.239c0-0.201-0.163-0.372-0.372-0.372h-4.145l-2.441-1.41c-1.643-0.945-3.673-0.945-5.315 0l-2.433 1.41h-3.983c-0.201 0-0.372 0.163-0.372 0.372v2.146l-3.773 2.177c-1.526 0.883-2.208 2.851-2.2 4.316v13.017c0 2.038 1.658 3.696 3.696 3.696h23.601c2.038 0 3.696-1.658 3.696-3.696v-13.629c-0.008-1.449-0.829-2.82-2.139-3.58zM28.978 9.662c1.085 0.628 1.767 1.751 1.782 2.944v0.395l-5.23 3.022v-8.36l3.448 1.999zM13.629 3.432c1.41-0.814 3.161-0.814 4.579 0l1.333 0.767h-7.237l1.325-0.767zM10.917 4.936c0 0 0.008 0 0 0 0.008 0 0.008 0 0 0h13.869v11.514l-6.501 3.758c-1.41 0.814-3.169 0.814-4.579 0l-6.501-3.758v-11.514h3.711zM3.068 9.538l3.401-1.968v8.453l-5.23-3.022c0.062-1.263 0.682-2.805 1.829-3.463zM30.76 26.22c0 1.627-1.325 2.96-2.96 2.96h-23.601c-1.627 0-2.96-1.325-2.96-2.96v-12.374l12.103 6.997c1.643 0.945 3.68 0.945 5.315 0l12.103-6.997v12.374z"></path>
<path fill="#fff" d="M16.108 17.519c0.643 0 1.286-0.085 1.914-0.349 0.108-0.039 0.155-0.124 0.108-0.263l-0.101-0.294c-0.039-0.108-0.101-0.101-0.194-0.070-0.682 0.209-1.379 0.263-1.658 0.263-2.565 0-4.409-1.712-4.409-4.2 0-2.371 2.053-4.184 4.587-4.184 2.479 0 4.014 1.619 4.014 3.975 0 1.34-0.659 2.162-1.503 2.162-0.837 0-0.938-0.488-0.938-0.798v-2.076c0-1.077-0.178-1.782-1.798-1.782-0.488 0-1.224 0.054-1.635 0.194-0.139 0.054-0.194 0.108-0.17 0.24l0.054 0.279c0.015 0.101 0.085 0.101 0.194 0.085 0.418-0.054 1.046-0.085 1.395-0.085 0.868 0 1.147 0.225 1.147 0.945v0.349h-1.34c-1.271 0-1.867 0.527-1.867 1.705 0 0.891 0.387 1.379 1.364 1.379 0.752 0 1.379-0.31 1.937-0.612 0.263 0.597 0.736 0.891 1.619 0.891 1.116 0 2.301-0.976 2.301-2.859 0-2.689-1.743-4.688-4.788-4.688-2.898 0-5.346 2.061-5.346 4.897 0.023 2.89 2.185 4.897 5.114 4.897zM17.139 13.73c-0.457 0.248-1.17 0.558-1.674 0.558-0.558 0-0.736-0.178-0.736-0.713 0-0.783 0.38-0.992 0.976-0.992h1.433v1.147z"></path>
</svg>
