<!-- Generated by IcoMoon.io -->
<svg version="1.1" xmlns="http://www.w3.org/2000/svg" width="32" height="32" viewBox="0 0 32 32">
<title>emergency</title>
<path fill="#fff" d="M22.547 22.578h-13.552c-0.023 0-0.046 0.008-0.070 0.015-0.023-0.008-0.046-0.015-0.070-0.015-0.209 0-0.38 0.17-0.38 0.38 0 1.038-0.845 1.883-1.883 1.883s-1.883-0.845-1.883-1.883 0.845-1.883 1.883-1.883c0.209 0 0.38-0.17 0.38-0.38s-0.17-0.38-0.38-0.38c-1.457 0-2.642 1.185-2.642 2.642s1.185 2.642 2.642 2.642c1.325 0 2.425-0.984 2.611-2.262h13.327c0.209 0 0.38-0.17 0.38-0.38 0.015-0.209-0.155-0.38-0.364-0.38z"></path>
<path fill="#fff" d="M31.481 21.253l-0.294-2.092c-0.124-0.899-0.728-1.666-1.573-1.999l-3.719-1.464c-0.139-0.054-0.279-0.132-0.403-0.217l-3.967-2.774c-0.666-0.465-1.457-0.713-2.27-0.713h-1.123v-1.333c0-0.682-0.558-1.24-1.24-1.24s-1.24 0.558-1.24 1.24v1.333h-12.397c-0.573 0-1.1 0.333-1.34 0.845-0.442 0.907-1.185 2.689-1.34 4.478-0.163 1.829-0.015 3.983 0.077 5.098 0.046 0.519 0.457 0.93 0.976 0.969l1.379 0.108c0.008 0 0.023 0 0.031 0 0.194 0 0.364-0.155 0.38-0.349 0.015-0.209-0.139-0.395-0.349-0.411l-1.371-0.108c-0.147-0.015-0.263-0.124-0.279-0.271-0.093-1.093-0.232-3.192-0.077-4.967 0.147-1.666 0.852-3.355 1.263-4.215 0.124-0.256 0.372-0.411 0.651-0.411h16.015c0.659 0 1.294 0.201 1.836 0.581l3.967 2.774c0.17 0.124 0.364 0.225 0.558 0.302l3.719 1.464c0.589 0.232 1.007 0.767 1.1 1.395l0.294 2.092c0.031 0.248-0.031 0.496-0.186 0.69-0.155 0.201-0.372 0.325-0.62 0.356l-1.418 0.17c-0.015 0-0.031 0.015-0.047 0.015-0.023 0.008-0.047 0.015-0.070 0.023s-0.039 0.023-0.062 0.039-0.039 0.031-0.054 0.047-0.031 0.039-0.039 0.062c-0.015 0.023-0.023 0.039-0.031 0.062s-0.008 0.047-0.015 0.070c0 0.015-0.008 0.031-0.008 0.054 0 1.038-0.845 1.883-1.883 1.883s-1.883-0.845-1.883-1.883 0.845-1.883 1.883-1.883c0.209 0 0.38-0.17 0.38-0.38s-0.17-0.38-0.38-0.38c-1.457 0-2.642 1.185-2.642 2.642s1.185 2.642 2.642 2.642c1.34 0 2.456-1.007 2.619-2.301l1.108-0.132c0.457-0.054 0.86-0.287 1.131-0.651 0.256-0.364 0.372-0.814 0.31-1.263zM16.411 11.986v-1.333c0-0.263 0.217-0.473 0.473-0.473s0.473 0.217 0.473 0.473v1.333h-0.945z"></path>
<path fill="#fff" d="M23.981 16.984c0.108-0.294 0.008-0.628-0.248-0.814v0l-3.068-2.224c-0.318-0.232-0.697-0.356-1.093-0.356h-1.844c-0.101 0-0.201 0.039-0.271 0.116-0.070 0.070-0.108 0.17-0.108 0.279l0.062 3.030c0 0.209 0.17 0.372 0.38 0.372l5.486 0.054c0.015 0 0.031 0 0.054 0 0.287 0 0.55-0.178 0.651-0.457zM18.162 16.628l-0.047-2.27h1.457c0.232 0 0.457 0.070 0.643 0.209l2.913 2.115-4.967-0.054z"></path>
<path fill="#fff" d="M16.891 8.833c0.209 0 0.38-0.17 0.38-0.38v-1.674c0-0.209-0.17-0.38-0.38-0.38s-0.38 0.17-0.38 0.38v1.674c-0.008 0.209 0.163 0.38 0.38 0.38z"></path>
<path fill="#fff" d="M18.751 9.608c0.101 0 0.194-0.039 0.271-0.108l1.185-1.185c0.147-0.147 0.147-0.395 0-0.542s-0.387-0.147-0.542 0l-1.185 1.185c-0.147 0.147-0.147 0.395 0 0.542 0.070 0.070 0.17 0.108 0.271 0.108z"></path>
<path fill="#fff" d="M14.76 9.492c0.077 0.077 0.17 0.108 0.271 0.108s0.194-0.039 0.271-0.108c0.147-0.147 0.147-0.395 0-0.542l-1.185-1.185c-0.147-0.147-0.387-0.147-0.542 0-0.147 0.147-0.147 0.395 0 0.542l1.185 1.185z"></path>
<path fill="#fff" d="M9.894 13.59h-1.077c-0.434 0-0.79 0.356-0.79 0.79v0.914h-0.914c-0.434 0-0.79 0.356-0.79 0.79v1.077c0 0.434 0.356 0.79 0.79 0.79h0.914v0.914c0 0.434 0.356 0.79 0.79 0.79h1.077c0.434 0 0.79-0.356 0.79-0.79v-0.914h0.914c0.434 0 0.79-0.356 0.79-0.79v-1.077c0-0.434-0.356-0.79-0.79-0.79h-0.914v-0.914c0-0.434-0.356-0.79-0.79-0.79zM11.622 16.054v1.116h-1.294c-0.209 0-0.38 0.17-0.38 0.38v1.317h-1.154v-1.294c0-0.209-0.147-0.403-0.356-0.395h-1.317v-1.116h1.294c0.209 0 0.38-0.17 0.38-0.38v-1.317h1.123v1.317c0 0.209 0.178 0.38 0.387 0.38l1.317-0.008z"></path>
</svg>
