<!-- Generated by IcoMoon.io -->
<svg version="1.1" xmlns="http://www.w3.org/2000/svg" width="32" height="32" viewBox="0 0 32 32">
<title>engagement</title>
<path fill="#fff" d="M25.437 19.688c-0.139-0.139-0.372-0.139-0.519 0l-0.519 0.519-0.643-0.643c-0.31-0.31-0.519-0.713-0.604-1.147l-0.201-1.069c0.023-0.031 0.054-0.062 0.070-0.101l0.449-1.085c0.248-0.604 0.38-1.24 0.372-1.891v-0.217c0-0.581 0.232-1.154 0.643-1.573l0.349-0.349 0.287 0.287c0.070 0.070 0.163 0.108 0.256 0.108s0.186-0.039 0.256-0.108l5.749-5.741c0.139-0.139 0.139-0.372 0-0.519-0.139-0.139-0.372-0.139-0.519 0l-5.486 5.486-4.246-4.246 5.61-5.61c0.139-0.139 0.139-0.372 0-0.519-0.139-0.139-0.372-0.139-0.519 0l-5.865 5.865c-0.139 0.139-0.139 0.372 0 0.519l0.519 0.519-0.643 0.643c-0.31 0.31-0.705 0.519-1.147 0.604l-1.015 0.186c-0.047-0.263-0.17-0.527-0.372-0.728-0.449-0.449-1.162-0.527-1.697-0.17-0.008 0.008-0.008 0.008-0.015 0.015-0.519-0.341-1.263-0.294-1.712 0.155-0.209 0.209-0.341 0.48-0.38 0.775-0.077-0.023-0.163-0.031-0.24-0.039-0.046-0.039-0.101-0.070-0.163-0.085l-0.604-0.116c-0.434-0.085-0.829-0.287-1.147-0.604l-0.643-0.643 0.519-0.519c0.139-0.139 0.139-0.372 0-0.519l-5.842-5.842c-0.139-0.139-0.372-0.139-0.519 0-0.139 0.139-0.139 0.372 0 0.519l5.61 5.61-4.246 4.246-5.493-5.493c-0.139-0.139-0.372-0.139-0.519 0-0.139 0.139-0.139 0.372 0 0.519l5.749 5.741c0.070 0.070 0.163 0.108 0.256 0.108s0.186-0.039 0.256-0.108l0.287-0.287 0.349 0.349c0.411 0.411 0.651 0.984 0.643 1.573v0.217c0 0.651 0.124 1.286 0.372 1.891l0.488 1.17c0.008 0.015 0.015 0.023 0.023 0.039l-0.194 1.046c-0.085 0.434-0.287 0.829-0.604 1.147l-0.643 0.643-0.519-0.519c-0.139-0.139-0.372-0.139-0.519 0l-5.85 5.858c-0.139 0.139-0.139 0.372 0 0.519 0.139 0.139 0.372 0.139 0.519 0l5.602-5.61 4.246 4.246-5.486 5.493c-0.139 0.139-0.139 0.372 0 0.519 0.070 0.070 0.163 0.108 0.256 0.108s0.186-0.039 0.256-0.108l5.749-5.749c0.070-0.070 0.108-0.163 0.108-0.256s-0.039-0.186-0.108-0.256l-0.287-0.287 0.349-0.349c0.411-0.411 0.976-0.635 1.573-0.643h0.217c0.217 0 0.434-0.023 0.651-0.047 0.031 0 0.054 0.008 0.085 0.008 0.209 0 0.411-0.054 0.597-0.147 0.186-0.054 0.372-0.116 0.558-0.186l0.426-0.178 0.426 0.178c0.604 0.248 1.232 0.364 1.891 0.372h0.217c0.566 0.008 1.154 0.232 1.573 0.643l0.349 0.349-0.287 0.287c-0.139 0.139-0.139 0.372 0 0.519l5.749 5.749c0.070 0.070 0.163 0.108 0.256 0.108s0.186-0.039 0.256-0.108c0.139-0.139 0.139-0.372 0-0.519l-5.486-5.486 4.246-4.246 5.61 5.61c0.139 0.139 0.372 0.139 0.519 0 0.139-0.139 0.139-0.372 0-0.519l-5.889-5.881zM19.231 10.15c0.581-0.108 1.108-0.387 1.526-0.806l0.643-0.643 2.929 2.929-0.349 0.349c-0.55 0.55-0.86 1.309-0.86 2.092v0.217c0 0.558-0.101 1.092-0.318 1.604l-0.101 0.232c-0.194-0.659-0.542-1.263-1.038-1.751l-3.789-3.789c0.039-0.062 0.077-0.132 0.108-0.201l1.247-0.232zM17.193 9.406c0.101 0.101 0.155 0.217 0.17 0.349l-0.178 0.031c-0.023 0.008-0.054 0.015-0.077 0.015l-0.542-0.542c0.217-0.070 0.465-0.015 0.628 0.147zM8.879 14.28v-0.217c0-0.775-0.31-1.542-0.86-2.092l-0.349-0.349 2.929-2.929 0.643 0.643c0.364 0.364 0.821 0.62 1.325 0.752-0.178 0.209-0.287 0.465-0.318 0.728-0.434-0.093-0.914 0.023-1.24 0.349-0.256 0.256-0.395 0.597-0.395 0.953 0 0.101 0.015 0.201 0.039 0.302-0.294 0.031-0.581 0.147-0.798 0.364-0.256 0.256-0.395 0.589-0.395 0.953 0 0.356 0.139 0.697 0.395 0.953l0.108 0.108c-0.302 0.395-0.527 0.845-0.659 1.317l-0.101-0.24c-0.225-0.504-0.333-1.038-0.325-1.596zM13.335 18.185l-0.418 0.418-0.798-0.194c-0.31-0.077-0.62-0.023-0.883 0.124l1.216-1.216 0.883 0.868zM14.024 18.875l-0.279-0.070 0.108-0.108 0.17 0.178zM10.956 17.782v0c-0.232 0.232-0.643 0.232-0.876 0-0.116-0.116-0.178-0.271-0.178-0.434s0.062-0.318 0.178-0.434l0.992-0.992 0.876 0.876-0.992 0.984zM10.235 15.729c0.070-0.139 0.155-0.271 0.248-0.403l0.077 0.077-0.325 0.325zM11.382 23.307l-0.349 0.349-2.929-2.929 0.643-0.643c0.418-0.418 0.697-0.945 0.806-1.526l0.046-0.232c0.209 0.194 0.465 0.31 0.736 0.349-0.023 0.108-0.046 0.217-0.046 0.333 0 0.356 0.139 0.697 0.395 0.953 0.008 0.008 0.008 0.008 0.015 0.015 0.108 0.31 0.341 0.581 0.666 0.721l0.093 0.039c0.023 0.318 0.155 0.62 0.38 0.852 0.256 0.256 0.597 0.395 0.953 0.395 0.101 0 0.194-0.015 0.287-0.031 0.023 0.178 0.077 0.356 0.17 0.511-0.697 0.047-1.364 0.349-1.867 0.845zM14.861 22.23c-0.031 0.031-0.062 0.054-0.093 0.077-0.147 0.039-0.302 0.070-0.457 0.093-0.124-0.023-0.24-0.077-0.325-0.163-0.139-0.139-0.201-0.325-0.17-0.511l1.1 0.457-0.054 0.047zM12.506 21.168l0.101 0.047c-0.031-0.015-0.070-0.031-0.101-0.047zM20.618 23.307c-0.55-0.55-1.302-0.86-2.076-0.86-0.008 0-0.008 0-0.015 0h-0.217c-0.55 0.015-1.093-0.101-1.604-0.318l-1.007-0.418-4.037-1.689c-0.124-0.054-0.217-0.155-0.256-0.271 0-0.015-0.008-0.023-0.008-0.039-0.023-0.093-0.031-0.194 0-0.287 0.085-0.232 0.325-0.364 0.566-0.302l3.169 0.775c0.155 0.039 0.325-0.031 0.403-0.178 0.077-0.139 0.054-0.318-0.062-0.434l-5.098-5.098c-0.116-0.116-0.178-0.271-0.178-0.434s0.062-0.318 0.178-0.434c0.232-0.232 0.643-0.232 0.876 0l3.138 3.138c0.070 0.070 0.163 0.108 0.256 0.108s0.186-0.039 0.256-0.108c0.139-0.139 0.139-0.372 0-0.519l-3.37-3.37c-0.24-0.24-0.24-0.635 0-0.876s0.635-0.24 0.876 0l3.37 3.37c0.139 0.139 0.372 0.139 0.519 0 0.139-0.139 0.139-0.372 0-0.519l-3.138-3.138c-0.116-0.116-0.178-0.271-0.178-0.434s0.062-0.318 0.178-0.434c0.232-0.232 0.643-0.232 0.876 0l3.138 3.138c0.070 0.070 0.163 0.108 0.256 0.108s0.186-0.039 0.256-0.108c0.139-0.139 0.139-0.372 0-0.519l-2.867-2.867c-0.24-0.24-0.24-0.635 0-0.876 0.232-0.232 0.643-0.232 0.876 0l5.478 5.478c0.48 0.48 0.806 1.092 0.93 1.759l0.356 1.906c0.108 0.581 0.387 1.108 0.806 1.526l0.643 0.643-2.929 2.929-0.356-0.349z"></path>
</svg>
