<!-- Generated by IcoMoon.io -->
<svg version="1.1" xmlns="http://www.w3.org/2000/svg" width="32" height="32" viewBox="0 0 32 32">
<title>engagement-survey</title>
<path fill="#fff" d="M19.061 10.266h-12.203c-0.209 0-0.372 0.163-0.372 0.372s0.163 0.372 0.372 0.372h12.203c0.209 0 0.372-0.163 0.372-0.372s-0.163-0.372-0.372-0.372z"></path>
<path fill="#fff" d="M25.453 8.508c0-0.008-0.008-0.008-0.008-0.015 0 0-0.008-0.008-0.015-0.008-0.031-0.031-0.070-0.054-0.108-0.070-0.047-0.015-0.093-0.031-0.139-0.031h-3.766c-0.047 0-0.093 0.008-0.139 0.031-0.039 0.015-0.077 0.039-0.108 0.070-0.008 0-0.008 0.008-0.015 0.008-0.008 0.008-0.008 0.008-0.008 0.015-0.031 0.031-0.054 0.070-0.070 0.108-0.015 0.046-0.031 0.093-0.031 0.139v3.766c0 0.046 0.008 0.093 0.031 0.139 0.015 0.039 0.039 0.077 0.070 0.108 0 0.008 0.008 0.008 0.008 0.015 0 0 0.008 0.008 0.015 0.008 0.031 0.031 0.070 0.054 0.108 0.070 0.047 0.015 0.093 0.031 0.139 0.031h3.766c0.047 0 0.093-0.008 0.139-0.031 0.039-0.015 0.077-0.039 0.108-0.070 0.008 0 0.008-0.008 0.015-0.008 0.008-0.008 0.008-0.008 0.008-0.015 0.031-0.031 0.054-0.070 0.070-0.108 0.015-0.046 0.031-0.093 0.031-0.139v-3.766c0-0.046-0.008-0.093-0.031-0.139-0.015-0.046-0.039-0.077-0.070-0.108zM22.78 10.638l-0.984 0.984v-1.968l0.984 0.984zM22.323 9.127h1.968l-0.984 0.984-0.984-0.984zM23.299 11.165l0.984 0.984h-1.968l0.984-0.984zM23.826 10.638l0.984-0.984v1.968l-0.984-0.984z"></path>
<path fill="#fff" d="M28.606 27.049l-1.263-1.263v-24.314c0-0.535-0.434-0.969-0.969-0.969h-14.737c-0.008 0-0.015 0.008-0.023 0.008-0.031 0-0.062 0.008-0.093 0.015-0.015 0.008-0.023 0.008-0.039 0.015-0.039 0.015-0.077 0.039-0.108 0.070l-6.609 6.609c-0.031 0.031-0.054 0.070-0.070 0.108-0.008 0.016-0.008 0.023-0.016 0.039-0.008 0.031-0.016 0.062-0.023 0.093 0 0.008-0.008 0.016-0.008 0.023v18.301l-1.263 1.263c-0.147 0.147-0.147 0.38 0 0.527s0.38 0.147 0.527 0l4.548-4.548 3.378 3.378-4.447 4.447c-0.147 0.147-0.147 0.38 0 0.527 0.070 0.070 0.17 0.108 0.263 0.108s0.194-0.039 0.263-0.108l1.038-1.038h13.939c0.047 0 0.085-0.008 0.124-0.023l1.061 1.061c0.070 0.070 0.17 0.108 0.263 0.108s0.194-0.039 0.263-0.108c0.147-0.147 0.147-0.38 0-0.527l-4.447-4.447 3.37-3.37 4.548 4.548c0.147 0.147 0.38 0.147 0.527 0s0.147-0.387 0-0.535zM11.266 1.774v5.338h-5.338l5.338-5.338zM12.041 17.108l2.572 2.572c0.070 0.070 0.17 0.108 0.263 0.108s0.194-0.039 0.263-0.108c0.147-0.147 0.147-0.38 0-0.527l-2.766-2.766c-0.17-0.17-0.17-0.442 0-0.612s0.449-0.17 0.612 0l2.758 2.758c0.147 0.147 0.38 0.147 0.527 0s0.147-0.38 0-0.527l-2.58-2.58c-0.17-0.17-0.17-0.442 0-0.612s0.449-0.17 0.612 0l2.572 2.572c0.070 0.070 0.17 0.108 0.263 0.108s0.194-0.039 0.263-0.108c0.147-0.147 0.147-0.38 0-0.527l-2.355-2.355c-0.17-0.17-0.17-0.442 0-0.612s0.449-0.17 0.612 0l4.494 4.494c0.387 0.387 0.643 0.876 0.744 1.41l0.294 1.565c0.093 0.488 0.325 0.938 0.682 1.294l0.473 0.473-2.301 2.301-0.232-0.232c-0.465-0.465-1.1-0.721-1.767-0.728h-0.178c-0.434 0.008-0.876-0.085-1.286-0.256l-4.145-1.728c-0.155-0.062-0.232-0.24-0.178-0.403 0.054-0.155 0.217-0.24 0.38-0.201l2.596 0.635c0.163 0.039 0.333-0.031 0.411-0.178 0.085-0.147 0.054-0.325-0.062-0.449l-4.184-4.184c-0.17-0.17-0.17-0.442 0-0.612 0.201-0.155 0.473-0.155 0.643 0.015zM20.571 17.72l-0.008 0.008-0.612-0.612 0.008-0.008c0.17-0.17 0.449-0.17 0.612 0 0.17 0.17 0.17 0.449 0 0.612zM19.618 16.395l-0.201 0.201-0.612-0.612 0.201-0.201c0.17-0.17 0.449-0.17 0.612 0 0.17 0.163 0.17 0.442 0 0.612zM18.293 15.442l-0.008 0.008-0.612-0.612 0.008-0.008c0.17-0.17 0.449-0.17 0.612 0s0.163 0.442 0 0.612zM17.054 14.226l-0.442-0.442c0.116 0 0.232 0.039 0.318 0.124s0.124 0.201 0.124 0.318zM11.475 18.828l2.665 2.665-1.309-0.318c-0.535-0.132-1.069 0.163-1.255 0.674-0.186 0.535 0.070 1.116 0.589 1.333l2.82 1.178c-0.287 0.077-0.589 0.116-0.891 0.124h-0.186c-0.651 0-1.294 0.263-1.751 0.728l-0.232 0.232-2.301-2.301 0.473-0.473c0.356-0.356 0.589-0.798 0.682-1.294l0.294-1.565c0.070-0.356 0.209-0.69 0.403-0.984zM22.299 29.606h-12.599l2.937-2.937c0.070-0.070 0.108-0.163 0.108-0.263s-0.039-0.194-0.108-0.263l-0.186-0.186 0.232-0.232c0.325-0.325 0.783-0.496 1.24-0.511h0.178c0.55 0 1.077-0.101 1.581-0.31l0.318-0.132 0.318 0.132c0.504 0.209 1.023 0.318 1.581 0.31h0.178c0 0 0 0 0.008 0 0.457 0 0.907 0.186 1.232 0.511l0.232 0.232-0.186 0.186c-0.070 0.070-0.108 0.163-0.108 0.263s0.039 0.194 0.108 0.263l2.937 2.937zM23.268 22.245l-0.372 0.372-0.473-0.473c-0.248-0.248-0.411-0.558-0.473-0.899l-0.294-1.565c-0.093-0.504-0.294-0.976-0.597-1.379l0.039-0.039c0.457-0.457 0.457-1.209 0-1.666-0.178-0.178-0.395-0.287-0.628-0.325 0.054-0.356-0.054-0.728-0.325-1.007-0.271-0.271-0.651-0.38-1.007-0.325-0.039-0.232-0.147-0.449-0.325-0.628-0.287-0.287-0.674-0.387-1.046-0.325-0.047-0.217-0.147-0.426-0.318-0.597-0.395-0.395-1-0.449-1.457-0.163-0.457-0.279-1.062-0.225-1.457 0.163-0.17 0.17-0.271 0.38-0.318 0.597-0.364-0.062-0.759 0.039-1.046 0.325-0.178 0.178-0.287 0.403-0.325 0.635-0.356-0.046-0.736 0.054-1.007 0.318-0.225 0.225-0.349 0.519-0.349 0.837 0 0.062 0.008 0.116 0.015 0.17-0.232 0.039-0.449 0.147-0.628 0.325-0.457 0.457-0.457 1.209 0 1.666l0.046 0.047c-0.294 0.411-0.504 0.876-0.597 1.379l-0.294 1.565c-0.062 0.341-0.232 0.651-0.473 0.899l-0.473 0.473-0.372-0.372c-0.139-0.139-0.387-0.139-0.527 0l-2.805 2.805v-17.201h6.237c0.209 0 0.372-0.163 0.372-0.372v-6.237h14.365c0.124 0 0.225 0.101 0.225 0.225v23.578l-2.805-2.805c-0.132-0.147-0.364-0.147-0.511 0z"></path>
</svg>
