<!-- Generated by IcoMoon.io -->
<svg version="1.1" xmlns="http://www.w3.org/2000/svg" width="32" height="32" viewBox="0 0 32 32">
<title>entertainment</title>
<path fill="#fff" d="M31.233 4.13c-0.163-0.077-0.349-0.054-0.488 0.062-2.208 1.844-5.013 2.859-7.895 2.859-2.828 0-5.586-0.984-7.779-2.758-0.139-0.108-0.325-0.132-0.48-0.054s-0.263 0.232-0.263 0.411v6.795c-1.643 0.783-3.456 1.201-5.3 1.201-2.828 0-5.586-0.984-7.779-2.758-0.139-0.108-0.325-0.132-0.48-0.054s-0.263 0.232-0.263 0.411v9.096c0 4.734 3.851 8.585 8.585 8.585 4.347 0 7.942-3.254 8.5-7.446 1.511 1.201 3.378 1.86 5.323 1.86 4.734 0 8.585-3.851 8.585-8.585v-9.213c0-0.178-0.101-0.333-0.263-0.411zM9.089 27.002c-4.231 0-7.671-3.44-7.671-7.671v-8.182c2.216 1.557 4.889 2.402 7.609 2.402 2.061 0 4.091-0.488 5.92-1.395 0.015-0.008 0.023-0.008 0.039-0.015 0.62-0.31 1.216-0.666 1.782-1.077v8.267c-0.008 4.23-3.448 7.671-7.678 7.671zM30.582 13.738c0 4.23-3.44 7.671-7.671 7.671-1.922 0-3.766-0.713-5.153-1.984-0.023-0.031-0.054-0.070-0.085-0.101v-9.189c0-0.178-0.101-0.341-0.263-0.411-0.163-0.077-0.349-0.054-0.488 0.062-0.527 0.442-1.092 0.829-1.689 1.178v-5.408c2.216 1.557 4.889 2.402 7.609 2.402 2.782 0 5.493-0.876 7.733-2.487v8.267h0.008z"></path>
<path fill="#fff" d="M25.677 12.366c1.116 0 2.022-0.907 2.022-2.022 0-0.248-0.201-0.457-0.457-0.457-0.248 0-0.457 0.201-0.457 0.457 0 0.612-0.496 1.108-1.108 1.108s-1.108-0.496-1.108-1.108c0-0.248-0.201-0.457-0.457-0.457-0.248 0-0.457 0.201-0.457 0.457 0 1.116 0.907 2.022 2.022 2.022z"></path>
<path fill="#fff" d="M20.145 12.366c1.116 0 2.022-0.907 2.022-2.022 0-0.248-0.201-0.457-0.457-0.457-0.248 0-0.457 0.201-0.457 0.457 0 0.612-0.496 1.108-1.108 1.108s-1.108-0.496-1.108-1.108c0-0.248-0.201-0.457-0.457-0.457-0.248 0-0.457 0.201-0.457 0.457 0 1.116 0.907 2.022 2.022 2.022z"></path>
<path fill="#fff" d="M22.842 15.264c-1.534 0-2.968 0.589-4.393 1.79-0.194 0.163-0.217 0.449-0.054 0.643s0.449 0.217 0.643 0.054c1.271-1.077 2.479-1.573 3.812-1.573 1.519 0 3.006 0.868 3.804 1.728 0.093 0.093 0.209 0.147 0.333 0.147 0.108 0 0.225-0.039 0.31-0.124 0.186-0.17 0.194-0.457 0.023-0.643-1.147-1.224-2.898-2.022-4.478-2.022z"></path>
<path fill="#fff" d="M5.215 17.503c0-0.612 0.496-1.108 1.108-1.108s1.108 0.496 1.108 1.108c0 0.248 0.201 0.457 0.457 0.457 0.248 0 0.457-0.201 0.457-0.457 0-1.116-0.907-2.022-2.022-2.022s-2.022 0.907-2.022 2.022c0 0.248 0.201 0.457 0.457 0.457 0.248 0 0.457-0.201 0.457-0.457z"></path>
<path fill="#fff" d="M11.855 15.481c-1.116 0-2.022 0.907-2.022 2.022 0 0.248 0.201 0.457 0.457 0.457 0.248 0 0.457-0.201 0.457-0.457 0-0.612 0.496-1.108 1.108-1.108s1.108 0.496 1.108 1.108c0 0.248 0.201 0.457 0.457 0.457 0.248 0 0.457-0.201 0.457-0.457 0-1.116-0.907-2.022-2.022-2.022z"></path>
<path fill="#fff" d="M12.862 21.153c-1.271 1.077-2.479 1.573-3.812 1.573-1.519 0-3.006-0.868-3.804-1.728-0.17-0.186-0.457-0.194-0.643-0.023s-0.194 0.457-0.023 0.643c1.139 1.224 2.898 2.022 4.471 2.022 1.534 0 2.968-0.589 4.393-1.79 0.194-0.163 0.217-0.449 0.054-0.643-0.155-0.186-0.442-0.217-0.635-0.054z"></path>
</svg>
