<!-- Generated by IcoMoon.io -->
<svg version="1.1" xmlns="http://www.w3.org/2000/svg" width="32" height="32" viewBox="0 0 32 32">
<title>environment</title>
<path fill="#fff" d="M31.496 13.141c0.008-0.124-0.039-0.248-0.124-0.341s-0.201-0.132-0.333-0.139c-2.015 0.031-3.254 0.961-3.936 1.736-0.124 0.147-0.24 0.294-0.349 0.457v-3.208c4.486-0.736 4.742-5.106 4.742-5.153 0.008-0.124-0.039-0.248-0.124-0.341s-0.201-0.139-0.333-0.139c-2.015 0.031-3.254 0.961-3.936 1.736-0.124 0.147-0.24 0.294-0.349 0.457v-2.937c0-0.248-0.201-0.457-0.457-0.457s-0.457 0.201-0.457 0.457v6.71c-0.108-0.155-0.225-0.31-0.349-0.449-0.682-0.775-1.914-1.705-3.936-1.736-0.116 0.008-0.248 0.046-0.333 0.139s-0.132 0.209-0.124 0.341c0 0.046 0.263 4.416 4.742 5.153v5.215c-1.278 0.186-2.324 1.139-2.627 2.394-0.728-0.232-1.402-0.643-1.945-1.201 0.496-0.519 0.814-1.193 0.876-1.914 0.085-0.891-0.217-1.79-0.829-2.448l-2.944-3.208c-1.201-1.309-2.906-2.061-4.68-2.061h-12.73c-0.248 0-0.457 0.201-0.457 0.457 0 0.248 0.201 0.457 0.457 0.457h12.738c1.519 0 2.983 0.643 4.014 1.767l2.944 3.208c0.434 0.473 0.651 1.108 0.589 1.751-0.047 0.511-0.271 0.984-0.62 1.348l-3.758-3.696c-0.178-0.178-0.465-0.178-0.643 0.008-0.178 0.178-0.17 0.465 0.008 0.643l4.037 3.975c0.008 0.008 0.015 0.008 0.023 0.015l0.318 0.325c1.061 1.093 2.541 1.72 4.068 1.72h4.835c0.581 0 1.054 0.473 1.054 1.054s-0.473 1.054-1.054 1.054h-8.508c-1.534 0-2.991-0.573-4.114-1.612l-4.2-3.89c-1.023-0.953-2.456-1.379-3.835-1.139l-7.771 1.309c-0.248 0.039-0.411 0.279-0.372 0.527s0.279 0.411 0.527 0.372l7.771-1.325c1.1-0.186 2.247 0.155 3.068 0.914l4.2 3.89c1.294 1.201 2.975 1.86 4.734 1.86h8.508c1.085 0 1.96-0.883 1.96-1.96 0-1.085-0.883-1.96-1.96-1.96h-0.093c-0.225-1.356-1.309-2.425-2.673-2.627v-2.34c4.478-0.752 4.742-5.122 4.742-5.168zM27.785 15c0.496-0.566 1.364-1.232 2.735-1.395-0.194 1.015-0.938 3.223-3.758 3.766 0.047-0.682 0.325-1.581 1.023-2.371zM27.785 8.353c0.496-0.566 1.364-1.232 2.735-1.395-0.194 1.015-0.938 3.223-3.758 3.766 0.047-0.682 0.325-1.581 1.023-2.371zM22.075 10.731c1.371 0.155 2.239 0.821 2.735 1.395 0.697 0.798 0.976 1.689 1.023 2.371-2.805-0.535-3.556-2.751-3.758-3.766zM28.498 23.26h-3.82c-0.194 0-0.387-0.015-0.573-0.039 0.248-0.992 1.139-1.712 2.193-1.712 1.061 0 1.968 0.752 2.2 1.751z"></path>
</svg>
