<!-- Generated by IcoMoon.io -->
<svg version="1.1" xmlns="http://www.w3.org/2000/svg" width="32" height="32" viewBox="0 0 32 32">
<title>erlenmeyer</title>
<path fill="#fff" d="M24.98 28.87l-5.215-14.040v-7.826c0-0.558-0.457-1.007-1.007-1.007h-5.509c-0.558 0-1.007 0.457-1.007 1.007v7.826l-5.222 14.040c-0.209 0.612-0.116 1.271 0.263 1.798s0.969 0.829 1.619 0.829h14.21c0.651 0 1.24-0.302 1.619-0.829 0.364-0.535 0.465-1.185 0.248-1.798zM24.019 30.164c-0.217 0.302-0.55 0.473-0.914 0.473h-14.21c-0.372 0-0.705-0.17-0.914-0.473-0.217-0.302-0.271-0.674-0.155-1.007l5.238-14.102 0.023-0.070v-7.981c0-0.085 0.070-0.155 0.155-0.155h5.509c0.085 0 0.155 0.070 0.155 0.155v2.293h-1.247c-0.24 0-0.426 0.194-0.426 0.426 0 0.24 0.194 0.426 0.426 0.426h1.247v0.852h-1.247c-0.24 0-0.426 0.194-0.426 0.426s0.194 0.426 0.426 0.426h1.247v0.852h-1.247c-0.24 0-0.426 0.194-0.426 0.426 0 0.24 0.194 0.426 0.426 0.426h1.247v1.395l5.269 14.171c0.116 0.372 0.062 0.744-0.155 1.038z"></path>
<path fill="#fff" d="M19.634 18.727h-6.989c-0.24 0-0.426 0.194-0.426 0.426 0 0.24 0.194 0.426 0.426 0.426h6.989c0.24 0 0.426-0.194 0.426-0.426s-0.194-0.426-0.426-0.426z"></path>
<path fill="#fff" d="M18.642 4.277c0 0.759 0.612 1.371 1.371 1.371s1.371-0.612 1.371-1.371-0.612-1.371-1.371-1.371c-0.752 0-1.371 0.62-1.371 1.371zM20.014 3.766c0.287 0 0.511 0.232 0.511 0.511 0 0.287-0.232 0.511-0.511 0.511-0.287 0-0.511-0.232-0.511-0.511s0.232-0.511 0.511-0.511z"></path>
<path fill="#fff" d="M14.489 5.648c1.139 0 2.061-0.922 2.061-2.061s-0.93-2.053-2.061-2.053c-1.139 0-2.061 0.922-2.061 2.061s0.922 2.053 2.061 2.053zM14.489 2.394c0.659 0 1.201 0.535 1.201 1.201s-0.535 1.201-1.201 1.201-1.201-0.535-1.201-1.201 0.535-1.201 1.201-1.201z"></path>
<path fill="#fff" d="M17.999 2.991c0.69 0 1.247-0.558 1.247-1.247s-0.558-1.247-1.247-1.247-1.247 0.558-1.247 1.247c0.008 0.69 0.566 1.247 1.247 1.247zM17.999 1.364c0.209 0 0.387 0.17 0.387 0.387 0 0.209-0.17 0.387-0.387 0.387s-0.387-0.17-0.387-0.387c0.008-0.217 0.178-0.387 0.387-0.387z"></path>
</svg>
