<!-- Generated by IcoMoon.io -->
<svg version="1.1" xmlns="http://www.w3.org/2000/svg" width="32" height="32" viewBox="0 0 32 32">
<title>error-pop-up</title>
<path fill="#fff" d="M25.034 0.504h-18.069c-1.867 0-3.378 1.519-3.378 3.378v18.076c0 1.867 1.519 3.386 3.378 3.386h18.076c0.891 0 1.705-0.349 2.309-0.914v0.597c0 1.247-1.015 2.262-2.262 2.262h-20.967c-0.294 0-0.535 0.24-0.535 0.535s0.24 0.535 0.535 0.535h20.959c0.876 0 1.666-0.341 2.262-0.891v0.682c0 1.247-1.015 2.262-2.262 2.262h-20.959c-0.294 0-0.535 0.24-0.535 0.535s0.24 0.535 0.535 0.535h20.959c1.844 0 3.339-1.495 3.339-3.339v-24.252c0-1.867-1.519-3.386-3.386-3.386zM25.034 24.267h-18.069c-1.271 0-2.309-1.038-2.309-2.309v-18.076c0-1.271 1.038-2.309 2.309-2.309h18.076c1.271 0 2.309 1.038 2.309 2.309v18.076c-0.008 1.271-1.038 2.309-2.317 2.309z"></path>
<path fill="#fff" d="M23.647 5.331c-0.209-0.209-0.55-0.209-0.759 0l-6.834 6.834-6.942-6.942c-0.209-0.209-0.55-0.209-0.759 0s-0.209 0.55 0 0.759l6.942 6.942-6.942 6.942c-0.209 0.209-0.209 0.55 0 0.759 0.108 0.108 0.24 0.155 0.38 0.155s0.279-0.054 0.38-0.155l6.942-6.942 6.718 6.718c0.108 0.108 0.24 0.155 0.38 0.155s0.279-0.054 0.38-0.155c0.209-0.209 0.209-0.55 0-0.759l-6.718-6.718 6.834-6.834c0.209-0.209 0.209-0.55 0-0.759z"></path>
</svg>
