<!-- Generated by IcoMoon.io -->
<svg version="1.1" xmlns="http://www.w3.org/2000/svg" width="32" height="32" viewBox="0 0 32 32">
<title>estate-car</title>
<path fill="#fff" d="M31.489 18.053l-0.070-0.558c-0.147-1.209-0.984-2.239-2.123-2.634-0.876-0.302-1.774-0.519-2.65-0.651-1.836-0.263-3.022-0.341-3.564-0.364-0.17-0.008-0.325-0.046-0.48-0.124l-3.665-1.805c-0.837-0.411-1.767-0.628-2.696-0.628h-10.282c-0.767 0-1.526 0.263-2.131 0.736l-2.386 1.883c-0.341 0.271-0.566 0.659-0.62 1.092l-0.31 2.332c-0.062 0.48 0.24 0.938 0.705 1.069l2.34 0.643c0.116 0.031 0.232-0.039 0.263-0.147 0.031-0.116-0.039-0.232-0.147-0.263l-2.34-0.643c-0.263-0.070-0.434-0.325-0.395-0.597l0.31-2.332c0.039-0.318 0.209-0.604 0.457-0.806l2.386-1.883c0.527-0.418 1.193-0.651 1.867-0.651h10.282c0.868 0 1.736 0.201 2.51 0.581l3.665 1.805c0.201 0.101 0.426 0.155 0.651 0.163 0.535 0.023 1.705 0.093 3.518 0.356 0.852 0.124 1.72 0.333 2.572 0.628 0.984 0.341 1.705 1.232 1.836 2.278l0.070 0.558c0.015 0.116-0.015 0.232-0.093 0.325s-0.186 0.147-0.302 0.155l-2.758 0.17c-0.008 0-0.015 0.008-0.015 0.008-0.023 0.008-0.039 0.008-0.062 0.015v0c-0.023 0.015-0.047 0.031-0.062 0.047-0.008 0.008-0.008 0.015-0.008 0.015-0.015 0.015-0.023 0.039-0.031 0.054v0c-0.256 0.821-1 1.371-1.86 1.371-1.077 0-1.953-0.876-1.953-1.953s0.876-1.953 1.953-1.953c0.116 0 0.217-0.093 0.217-0.217 0-0.116-0.093-0.217-0.217-0.217-1.309 0-2.379 1.069-2.379 2.379s1.069 2.379 2.379 2.379c1 0 1.875-0.612 2.224-1.534l2.611-0.163c0.232-0.015 0.457-0.124 0.604-0.31 0.139-0.139 0.209-0.38 0.178-0.612z"></path>
<path fill="#fff" d="M22.725 18.751h-14.001c-0.008 0-0.008 0-0.008 0-0.015 0-0.031 0.008-0.046 0.008s-0.023 0.008-0.039 0.008c-0.015 0.008-0.023 0.015-0.031 0.023s-0.023 0.015-0.031 0.023-0.015 0.023-0.023 0.031c-0.008 0.015-0.015 0.023-0.023 0.039 0 0 0 0.008-0.008 0.008-0.256 0.821-1 1.371-1.86 1.371-1.077 0-1.953-0.876-1.953-1.953s0.876-1.953 1.953-1.953c0.116 0 0.217-0.093 0.217-0.217 0-0.116-0.093-0.217-0.217-0.217-1.309 0-2.379 1.069-2.379 2.379s1.069 2.379 2.379 2.379c0.992 0 1.867-0.604 2.216-1.519h13.854c0.116 0 0.217-0.093 0.217-0.217 0-0.101-0.093-0.194-0.217-0.194z"></path>
<path fill="#fff" d="M14.412 14.412l6.268 0.124c0.178 0 0.325-0.116 0.372-0.287s-0.031-0.349-0.186-0.434l-2.797-1.511c-0.411-0.225-0.883-0.341-1.348-0.341l-2.642-0.008c-0.062 0-0.124 0.031-0.163 0.077s-0.062 0.116-0.046 0.178l0.341 2.022c0.008 0.101 0.093 0.17 0.201 0.178zM16.713 12.389c0.403 0 0.798 0.101 1.147 0.294l2.627 1.41-5.889-0.116-0.271-1.596 2.386 0.008z"></path>
<path fill="#fff" d="M8.306 14.171c0.039 0.070 0.108 0.108 0.186 0.108l5.060 0.101c0.062 0 0.116-0.023 0.155-0.070s0.062-0.108 0.054-0.17l-0.225-1.999c-0.015-0.108-0.101-0.194-0.209-0.194l-3.735-0.008c-0.077 0-0.147 0.039-0.186 0.108l-1.092 1.914c-0.046 0.062-0.046 0.139-0.008 0.209zM9.708 12.366l3.417 0.008 0.178 1.565-4.447-0.093 0.852-1.48z"></path>
<path fill="#fff" d="M8.678 11.932h-1.526c-0.279 0-0.558 0.085-0.79 0.24l-1.891 1.263c-0.155 0.101-0.225 0.294-0.17 0.465 0.054 0.178 0.209 0.302 0.395 0.302v0l2.859 0.054c0 0 0 0 0.008 0 0.077 0 0.147-0.039 0.186-0.108l1.116-1.891c0.039-0.070 0.039-0.147 0-0.217-0.039-0.062-0.108-0.108-0.186-0.108zM7.438 13.823l-2.704-0.054 1.86-1.247c0.163-0.108 0.356-0.17 0.55-0.17v0h1.147l-0.852 1.472z"></path>
</svg>
