<!-- Generated by IcoMoon.io -->
<svg version="1.1" xmlns="http://www.w3.org/2000/svg" width="32" height="32" viewBox="0 0 32 32">
<title>events</title>
<path fill="#fff" d="M15.985 10.018c2.619 0 4.757-2.131 4.757-4.757s-2.131-4.757-4.757-4.757-4.75 2.131-4.75 4.757 2.131 4.757 4.75 4.757zM15.985 1.232c2.216 0 4.021 1.805 4.021 4.021s-1.805 4.021-4.021 4.021-4.021-1.805-4.021-4.021 1.805-4.021 4.021-4.021z"></path>
<path fill="#fff" d="M28.583 18.061c-0.062-0.116-0.186-0.194-0.318-0.194h-1.829v-3.851c0-0.077-0.023-0.147-0.070-0.209l-0.876-1.263c0.209-0.248 0.349-0.558 0.349-0.914 0-0.775-0.628-1.402-1.402-1.402s-1.402 0.628-1.402 1.402 0.628 1.402 1.402 1.402c0.155 0 0.31-0.031 0.449-0.077l0.821 1.178v3.735h-3.045l0.597-4.99c0.015-0.093-0.015-0.194-0.077-0.271s-0.147-0.124-0.248-0.139c-0.039-0.008-4.107-0.488-6.935-0.488-3.277 0-6.981 0.48-7.020 0.488-0.201 0.023-0.341 0.209-0.318 0.403l0.566 4.99h-5.501c-0.132 0-0.256 0.070-0.318 0.194-0.062 0.116-0.062 0.263 0.015 0.372l3.494 5.439c0.070 0.108 0.186 0.17 0.31 0.17h1.433v7.090c0 0.201 0.163 0.364 0.364 0.364h13.861c0.201 0 0.364-0.163 0.364-0.364v-7.090h1.511c0.124 0 0.24-0.062 0.31-0.17l3.494-5.439c0.077-0.101 0.085-0.248 0.015-0.364zM23.764 11.638c0-0.372 0.302-0.666 0.666-0.666 0.372 0 0.666 0.302 0.666 0.666s-0.302 0.666-0.666 0.666-0.666-0.302-0.666-0.666zM9.437 13.156c1-0.116 3.928-0.434 6.563-0.434 2.293 0 5.431 0.325 6.485 0.442l-0.566 4.711h-11.948l-0.535-4.719zM22.524 30.768h-13.125v-9.453h13.125v9.453zM24.57 23.307h-1.309v-2.355c0-0.201-0.163-0.364-0.364-0.364h-13.869c-0.201 0-0.364 0.163-0.364 0.364v2.355h-1.232l-3.030-4.703h23.19l-3.022 4.703z"></path>
</svg>
