<!-- Generated by IcoMoon.io -->
<svg version="1.1" xmlns="http://www.w3.org/2000/svg" width="32" height="32" viewBox="0 0 32 32">
<title>event-planning</title>
<path fill="#fff" d="M18.906 12.18c0-0.17-0.139-0.31-0.31-0.31h-10.778c-0.17 0-0.31 0.139-0.31 0.31s0.139 0.31 0.31 0.31h10.778c0.17 0.008 0.31-0.132 0.31-0.31z"></path>
<path fill="#fff" d="M6.935 10.414c-0.139-0.101-0.341-0.062-0.434 0.077l-1.534 2.231-0.581-0.837c-0.101-0.139-0.294-0.178-0.434-0.077s-0.178 0.294-0.077 0.434l0.837 1.209c0.062 0.085 0.155 0.132 0.256 0.132v0c0.101 0 0.201-0.054 0.256-0.139l1.798-2.596c0.093-0.147 0.062-0.341-0.085-0.434z"></path>
<path fill="#fff" d="M13.001 17.085c0-0.17-0.139-0.31-0.31-0.31h-4.812c-0.17 0-0.31 0.139-0.31 0.31s0.139 0.31 0.31 0.31h4.812c0.17 0 0.31-0.139 0.31-0.31z"></path>
<path fill="#fff" d="M6.935 15.303c-0.139-0.101-0.341-0.062-0.434 0.077l-1.534 2.231-0.581-0.837c-0.101-0.139-0.294-0.178-0.434-0.077s-0.178 0.294-0.077 0.434l0.837 1.209c0.062 0.085 0.155 0.132 0.256 0.132v0c0.101 0 0.201-0.054 0.256-0.139l1.79-2.603c0.101-0.132 0.070-0.333-0.077-0.426z"></path>
<path fill="#fff" d="M7.88 21.672c-0.17 0-0.31 0.139-0.31 0.31s0.139 0.31 0.31 0.31h4.161c0.17 0 0.31-0.139 0.31-0.31s-0.139-0.31-0.31-0.31h-4.161z"></path>
<path fill="#fff" d="M6.501 20.277l-1.534 2.231-0.581-0.837c-0.101-0.139-0.294-0.178-0.434-0.077s-0.178 0.294-0.077 0.434l0.837 1.209c0.062 0.085 0.155 0.132 0.256 0.132v0c0.101 0 0.201-0.054 0.256-0.139l1.79-2.603c0.101-0.139 0.062-0.333-0.077-0.434-0.139-0.093-0.333-0.062-0.434 0.085z"></path>
<path fill="#fff" d="M30.892 18.51c0-1.457-1.185-2.65-2.65-2.65-1.41 0-2.557 1.108-2.642 2.495h-6.354l-1.193-2.286c-0.031-0.062-0.085-0.116-0.155-0.139l-3.355-1.41c-0.163-0.070-0.341 0.008-0.411 0.17s0.008 0.341 0.17 0.411l3.246 1.364 1 1.898h-2.41c-0.17 0-0.31 0.139-0.31 0.31 0 3.463 2.735 6.299 6.16 6.462v5.741h-20.262v-24.407h3.401v0.535c0 0.969 0.79 1.759 1.751 1.759h9.933c0.969 0 1.759-0.79 1.759-1.759v-0.535h3.401v9.863c0 0.17 0.139 0.31 0.31 0.31s0.31-0.139 0.31-0.31v-10.173c0-0.17-0.139-0.31-0.31-0.31h-3.719v-0.62c0-0.969-0.79-1.759-1.759-1.759h-2.526v-0.535c0-1.34-1.092-2.433-2.433-2.433s-2.433 1.093-2.433 2.433v0.535h-2.526c-0.969 0-1.751 0.79-1.751 1.759v0.62h-3.719c-0.17 0-0.31 0.139-0.31 0.31v25.027c0 0.17 0.139 0.31 0.31 0.31h23.616c0.17 0 0.31-0.139 0.31-0.31s-0.139-0.31-0.31-0.31h-2.425v-5.741c2.557-0.124 4.726-1.728 5.664-3.975 1.449-0.023 2.619-1.201 2.619-2.65zM6.888 4.099h2.844c0.17 0 0.31-0.139 0.31-0.31v-0.852c0-1 0.814-1.805 1.805-1.805 1 0 1.805 0.814 1.805 1.805v0.845c0 0.17 0.139 0.31 0.31 0.31h2.851c0.62 0 1.131 0.504 1.131 1.131v1.774c0 0.62-0.504 1.131-1.131 1.131h-9.925c-0.62 0-1.131-0.504-1.131-1.131v-0.821c0-0.008 0-0.008 0-0.016s0-0.008 0-0.016v-0.914c0-0.628 0.511-1.131 1.131-1.131zM22.299 24.523c-3.123 0-5.679-2.456-5.842-5.54h2.425l0.976 1.852h-1.038c-0.17 0-0.31 0.139-0.31 0.31s0.139 0.31 0.31 0.31h7.128c0.17 0 0.31-0.139 0.31-0.31s-0.139-0.31-0.31-0.31h-5.385l-0.976-1.852h8.554c-0.163 3.084-2.72 5.54-5.842 5.54zM28.506 20.517c0.101-0.349 0.178-0.713 0.225-1.077l0.318 0.318c0.062 0.062 0.139 0.093 0.225 0.093s0.163-0.031 0.225-0.093c0.124-0.124 0.124-0.318 0-0.442l-0.488-0.488c-0.062-0.062-0.139-0.093-0.217-0.093 0-0.015 0-0.039 0-0.054 0-0.17-0.139-0.31-0.31-0.31h-2.231c0.077-1.046 0.953-1.867 2.015-1.867 1.116 0 2.022 0.907 2.022 2.022-0.015 1.015-0.79 1.86-1.782 1.991z"></path>
<path fill="#fff" d="M27.452 17.271c-0.124-0.124-0.318-0.124-0.442 0s-0.124 0.318 0 0.442l0.488 0.488c0.062 0.062 0.139 0.093 0.225 0.093s0.163-0.031 0.225-0.093c0.124-0.124 0.124-0.318 0-0.442l-0.496-0.488z"></path>
<path fill="#fff" d="M29.040 17.278l-0.504 0.504c-0.124 0.124-0.124 0.318 0 0.442 0.062 0.062 0.139 0.093 0.225 0.093s0.163-0.031 0.225-0.093l0.504-0.504c0.124-0.124 0.124-0.318 0-0.442-0.132-0.124-0.325-0.124-0.449 0z"></path>
</svg>
