<!-- Generated by IcoMoon.io -->
<svg version="1.1" xmlns="http://www.w3.org/2000/svg" width="32" height="32" viewBox="0 0 32 32">
<title>exact-match</title>
<path fill="#fff" d="M16 0.504c-8.546 0-15.496 6.95-15.496 15.496s6.95 15.496 15.496 15.496 15.496-6.95 15.496-15.496-6.95-15.496-15.496-15.496zM16 30.683c-8.097 0-14.683-6.586-14.683-14.683s6.586-14.683 14.683-14.683 14.683 6.586 14.683 14.683-6.586 14.683-14.683 14.683z"></path>
<path fill="#fff" d="M22.4 9.894l-9.499 13.854-4.277-6.144c-0.132-0.186-0.38-0.232-0.566-0.101s-0.232 0.38-0.101 0.566l4.61 6.632c0.077 0.108 0.201 0.178 0.333 0.178v0c0.132 0 0.256-0.070 0.333-0.178l9.825-14.334c0.124-0.186 0.077-0.442-0.108-0.566-0.17-0.139-0.426-0.093-0.55 0.093z"></path>
</svg>
