<!-- Generated by IcoMoon.io -->
<svg version="1.1" xmlns="http://www.w3.org/2000/svg" width="32" height="32" viewBox="0 0 32 32">
<title>exchange-ticket</title>
<path fill="#fff" d="M30.218 14.567h-6.663v-6.663c0-0.705-0.573-1.278-1.278-1.278h-20.494c-0.705 0-1.278 0.573-1.278 1.278v8.252c0 0.705 0.573 1.278 1.278 1.278h6.663v6.663c0 0.705 0.573 1.278 1.278 1.278h20.494c0.705 0 1.278-0.573 1.278-1.278v-8.252c0-0.705-0.573-1.278-1.278-1.278zM1.782 16.829c-0.372 0-0.674-0.302-0.674-0.674v-8.252c0-0.372 0.302-0.674 0.674-0.674h20.486c0.372 0 0.674 0.302 0.674 0.674v6.663h-9.616l1.596-1.798 2.092-0.008c0.201 0 0.38-0.077 0.519-0.217 0.132-0.132 0.209-0.31 0.209-0.504 0-0.186-0.077-0.364-0.209-0.496-0.139-0.139-0.318-0.209-0.519-0.209l-2.092 0.008-2.836-3.161c-0.139-0.155-0.333-0.248-0.535-0.248v0c-0.201 0-0.395 0.093-0.535 0.248-0.085 0.093-0.101 0.225-0.046 0.341l1.395 2.828h-1.689l-0.628-0.728c-0.008-0.008-0.023-0.023-0.031-0.031-0.209-0.186-0.504-0.201-0.736-0.039-0.24 0.17-0.325 0.473-0.217 0.736l0.333 0.79-0.333 0.783c-0.108 0.263-0.015 0.573 0.225 0.736 0.232 0.163 0.527 0.139 0.736-0.054 0.008-0.008 0.023-0.023 0.031-0.031l0.628-0.744 1.681-0.008-0.876 1.805h-1.759c-0.705 0-1.278 0.573-1.278 1.278v0.984h-6.671zM13.11 12.304c-0.054-0.085-0.155-0.139-0.256-0.139v0l-2.301 0.008c-0.085-0.015-0.178 0.039-0.24 0.108l-0.666 0.79 0.364-0.876c0.031-0.077 0.031-0.155 0-0.232l-0.341-0.852 0.643 0.752c0.054 0.070 0.163 0.108 0.256 0.108v0l2.293-0.008c0.108 0 0.201-0.054 0.256-0.147s0.062-0.201 0.015-0.294l-1.387-2.813 2.828 3.146c0.054 0.062 0.139 0.101 0.225 0.101v0l2.231-0.008c0.047 0 0.077 0.023 0.093 0.039s0.031 0.039 0.031 0.070-0.015 0.054-0.031 0.070-0.047 0.039-0.093 0.039v0l-2.231 0.008c-0.085 0-0.17 0.039-0.225 0.101l-2.061 2.293h-0.349l0.953-1.968c0.054-0.093 0.046-0.201-0.008-0.294zM30.884 24.097c0 0.372-0.302 0.674-0.674 0.674h-20.478c-0.372 0-0.674-0.302-0.674-0.674v-8.252c0-0.372 0.302-0.674 0.674-0.674h20.486c0.372 0 0.674 0.302 0.674 0.674v8.252h-0.008z"></path>
<path fill="#fff" d="M24.965 19.277v0l-2.092 0.008-2.836-3.161c-0.139-0.155-0.333-0.24-0.535-0.24v0c-0.201 0-0.395 0.093-0.535 0.248-0.085 0.093-0.101 0.225-0.047 0.341l1.395 2.828h-1.689l-0.628-0.736c-0.008-0.008-0.023-0.023-0.031-0.031-0.209-0.186-0.504-0.209-0.736-0.039-0.24 0.17-0.325 0.473-0.217 0.736l0.333 0.79-0.325 0.798c-0.108 0.263-0.015 0.573 0.225 0.736 0.232 0.163 0.527 0.139 0.728-0.047 0.015-0.008 0.023-0.023 0.039-0.039l0.628-0.744 1.681-0.008-1.379 2.828c-0.054 0.108-0.039 0.24 0.047 0.333 0.139 0.155 0.333 0.248 0.535 0.248v0c0.201 0 0.395-0.093 0.535-0.248l2.82-3.169 2.092-0.008c0.201 0 0.38-0.077 0.519-0.217 0.132-0.132 0.209-0.31 0.209-0.504 0-0.186-0.077-0.364-0.209-0.496-0.147-0.132-0.333-0.209-0.527-0.209zM25.058 20.060c-0.015 0.015-0.047 0.039-0.093 0.039v0l-2.231 0.008c-0.085 0-0.17 0.039-0.225 0.101l-2.813 3.161 1.371-2.82c0.047-0.093 0.039-0.209-0.015-0.294s-0.155-0.139-0.256-0.139v0l-2.301 0.008c-0.093-0.008-0.178 0.039-0.24 0.108l-0.666 0.783 0.356-0.876c0.031-0.077 0.031-0.155 0-0.232l-0.341-0.852 0.643 0.752c0.054 0.070 0.163 0.108 0.256 0.108v0l2.293-0.008c0.108 0 0.201-0.054 0.256-0.147s0.062-0.201 0.015-0.294l-1.387-2.82 2.828 3.154c0.054 0.062 0.139 0.101 0.225 0.101v0l2.231-0.008c0.047 0 0.077 0.023 0.093 0.039s0.031 0.039 0.031 0.070c-0.008 0.023-0.023 0.047-0.031 0.062z"></path>
<path fill="#fff" d="M25.391 8.546h1.937c1.015 0 1.836 0.821 1.836 1.836v1.805l-0.814-0.806c-0.116-0.116-0.31-0.116-0.434 0-0.116 0.116-0.116 0.31 0 0.434l1.34 1.333c0.062 0.062 0.139 0.085 0.217 0.085s0.155-0.031 0.217-0.093l1.317-1.325c0.116-0.116 0.116-0.31 0-0.434-0.116-0.116-0.31-0.116-0.434 0l-0.814 0.814v-1.813c0-1.348-1.1-2.448-2.448-2.448h-1.937c-0.17 0-0.302 0.139-0.302 0.302s0.147 0.31 0.318 0.31z"></path>
<path fill="#fff" d="M6.718 23.516h-1.937c-1.015 0-1.836-0.821-1.836-1.836v-1.805l0.814 0.806c0.062 0.062 0.139 0.085 0.217 0.085s0.155-0.031 0.217-0.093c0.116-0.116 0.116-0.31 0-0.434l-1.34-1.333c-0.116-0.116-0.31-0.116-0.434 0l-1.317 1.325c-0.116 0.116-0.116 0.31 0 0.434 0.116 0.116 0.31 0.116 0.434 0l0.814-0.814v1.821c0 1.348 1.1 2.448 2.448 2.448h1.937c0.17 0 0.302-0.139 0.302-0.302s-0.147-0.302-0.318-0.302z"></path>
</svg>
