<!-- Generated by IcoMoon.io -->
<svg version="1.1" xmlns="http://www.w3.org/2000/svg" width="32" height="32" viewBox="0 0 32 32">
<title>excluded-of-policy</title>
<path fill="#fff" d="M16.829 15.853l5.563-5.563c0.217-0.217 0.217-0.566 0-0.783s-0.566-0.217-0.783 0l-5.563 5.563-5.462-5.462c-0.217-0.217-0.566-0.217-0.783 0s-0.217 0.566 0 0.783l5.462 5.462-5.672 5.672c-0.217 0.217-0.217 0.566 0 0.783 0.108 0.108 0.248 0.163 0.395 0.163 0.139 0 0.287-0.054 0.395-0.163l5.672-5.672 5.633 5.633c0.108 0.108 0.248 0.163 0.395 0.163s0.287-0.054 0.395-0.163c0.217-0.217 0.217-0.566 0-0.783l-5.648-5.633z"></path>
<path fill="#fff" d="M29.335 0.504h-26.669c-1.193 0-2.162 0.953-2.162 2.123v26.747c0 1.17 0.969 2.123 2.162 2.123h26.669c1.193 0 2.162-0.953 2.162-2.123v-26.747c0-1.17-0.969-2.123-2.162-2.123zM30.388 29.373c0 0.566-0.473 1.030-1.054 1.030h-26.669c-0.581 0-1.054-0.465-1.054-1.030v-26.747c0-0.566 0.473-1.030 1.054-1.030h26.669c0.581 0 1.054 0.465 1.054 1.030v26.747z"></path>
</svg>
