<!-- Generated by IcoMoon.io -->
<svg version="1.1" xmlns="http://www.w3.org/2000/svg" width="32" height="32" viewBox="0 0 32 32">
<title>exclusivity</title>
<path fill="#fff" d="M2.456 9.375c-0.163 0-0.294 0.132-0.294 0.294v15.442c0 0.163 0.132 0.294 0.294 0.294h1.922c0.163 0 0.294-0.132 0.294-0.294v-15.442c0-0.163-0.132-0.294-0.294-0.294h-1.922zM4.083 24.817h-1.333v-14.861h1.333v14.861z"></path>
<path fill="#fff" d="M6.036 25.693h-5.238c-0.163 0-0.294 0.132-0.294 0.294s0.132 0.294 0.294 0.294h5.238c0.163 0 0.294-0.132 0.294-0.294s-0.132-0.294-0.294-0.294z"></path>
<path fill="#fff" d="M0.798 9.058h5.238c0.163 0 0.294-0.132 0.294-0.294s-0.132-0.294-0.294-0.294h-5.238c-0.163 0-0.294 0.132-0.294 0.294s0.132 0.294 0.294 0.294z"></path>
<path fill="#fff" d="M3.417 8.229c0.69 0 1.255-0.566 1.255-1.255s-0.566-1.255-1.255-1.255-1.255 0.566-1.255 1.255 0.566 1.255 1.255 1.255zM3.417 6.307c0.372 0 0.666 0.302 0.666 0.666 0 0.372-0.302 0.666-0.666 0.666-0.372 0-0.666-0.302-0.666-0.666s0.294-0.666 0.666-0.666z"></path>
<path fill="#fff" d="M27.622 9.375c-0.163 0-0.294 0.132-0.294 0.294v15.442c0 0.163 0.132 0.294 0.294 0.294h1.922c0.163 0 0.294-0.132 0.294-0.294v-15.442c0-0.163-0.132-0.294-0.294-0.294h-1.922zM29.249 24.817h-1.333v-14.861h1.333v14.861z"></path>
<path fill="#fff" d="M31.202 25.693h-5.238c-0.163 0-0.294 0.132-0.294 0.294s0.132 0.294 0.294 0.294h5.238c0.163 0 0.294-0.132 0.294-0.294s-0.132-0.294-0.294-0.294z"></path>
<path fill="#fff" d="M25.964 9.058h5.238c0.163 0 0.294-0.132 0.294-0.294s-0.132-0.294-0.294-0.294h-5.238c-0.163 0-0.294 0.132-0.294 0.294s0.132 0.294 0.294 0.294z"></path>
<path fill="#fff" d="M28.583 8.229c0.69 0 1.255-0.566 1.255-1.255s-0.566-1.255-1.255-1.255c-0.69 0-1.255 0.566-1.255 1.255 0.008 0.69 0.566 1.255 1.255 1.255zM28.583 6.307c0.372 0 0.666 0.302 0.666 0.666 0 0.372-0.302 0.666-0.666 0.666-0.372 0-0.666-0.302-0.666-0.666s0.302-0.666 0.666-0.666z"></path>
<path fill="#fff" d="M26.212 10.421l0.604-0.449c0.132-0.093 0.155-0.279 0.062-0.411-0.101-0.132-0.279-0.155-0.411-0.062l-0.597 0.442c-0.442-0.372-1.093-0.387-1.557-0.015-0.039 0.031-3.595 2.913-8.205 2.913-4.602 0-8.422-2.906-8.461-2.929-0.256-0.201-0.573-0.287-0.891-0.248-0.232 0.031-0.449 0.124-0.628 0.271l-0.581-0.434c-0.132-0.093-0.31-0.070-0.411 0.062-0.093 0.132-0.070 0.31 0.062 0.411l0.589 0.442c-0.077 0.194-0.116 0.395-0.085 0.604 0.039 0.325 0.201 0.612 0.457 0.806 0.178 0.139 4.471 3.448 9.956 3.448 5.517 0 9.584-3.324 9.755-3.471 0.411-0.341 0.527-0.899 0.341-1.379zM6.284 10.948c-0.008-0.054 0-0.108 0.008-0.163l0.132 0.101c0.054 0.039 0.116 0.054 0.17 0.054 0.093 0 0.178-0.039 0.232-0.116 0.093-0.132 0.070-0.31-0.062-0.411l-0.139-0.101c0.062-0.031 0.132-0.054 0.201-0.062 0.023 0 0.054-0.008 0.077-0.008 0.139 0 0.271 0.046 0.387 0.132 0.016 0.008 0.046 0.039 0.108 0.077l-0.69 1.054c-0.108-0.077-0.178-0.132-0.194-0.147-0.124-0.101-0.209-0.248-0.232-0.411zM7.198 11.839l0.69-1.054c1.271 0.837 4.463 2.642 8.229 2.642s6.818-1.805 8.019-2.634l0.69 1.054c-1.348 0.93-4.61 2.836-8.709 2.836-4.107 0.008-7.524-1.922-8.918-2.844zM25.492 11.351c-0.015 0.015-0.085 0.070-0.201 0.155l-0.69-1.062c0.054-0.039 0.077-0.062 0.085-0.070 0.201-0.163 0.473-0.186 0.69-0.070l-0.132 0.101c-0.132 0.093-0.155 0.279-0.062 0.411 0.054 0.077 0.147 0.116 0.232 0.116 0.062 0 0.124-0.015 0.17-0.054l0.116-0.085c0.039 0.209-0.039 0.418-0.209 0.558z"></path>
</svg>
