<!-- Generated by IcoMoon.io -->
<svg version="1.1" xmlns="http://www.w3.org/2000/svg" width="32" height="32" viewBox="0 0 32 32">
<title>expand-collapse-02</title>
<path fill="#fff" d="M28.56 15.76h-7.113c-0.124 0-0.232 0.101-0.232 0.232s0.101 0.232 0.232 0.232h7.113c0.124 0 0.232-0.101 0.232-0.232s-0.101-0.232-0.232-0.232z"></path>
<path fill="#fff" d="M30.598 9.375h-11.173c-0.496 0-0.899 0.403-0.899 0.899v11.398c0 0.496 0.403 0.899 0.899 0.899h11.165c0.496 0 0.899-0.403 0.899-0.899v-11.398c0.008-0.496-0.395-0.899-0.891-0.899zM31.039 21.672c0 0.24-0.201 0.442-0.442 0.442h-11.173c-0.24 0-0.442-0.201-0.442-0.442v-11.398c0-0.24 0.201-0.442 0.442-0.442h11.165c0.24 0 0.442 0.201 0.442 0.442v11.398h0.008z"></path>
<path fill="#fff" d="M10.545 15.744h-3.293v-3.239c0-0.124-0.101-0.232-0.232-0.232s-0.232 0.101-0.232 0.232v3.239h-3.355c-0.124 0-0.232 0.101-0.232 0.232s0.101 0.232 0.232 0.232h3.363v3.332c0 0.124 0.101 0.232 0.232 0.232s0.232-0.101 0.232-0.232v-3.332h3.293c0.124 0 0.232-0.101 0.232-0.232s-0.108-0.232-0.24-0.232z"></path>
<path fill="#fff" d="M12.575 9.422h-11.173c-0.496 0-0.899 0.403-0.899 0.899v11.398c0 0.496 0.403 0.899 0.899 0.899h11.165c0.496 0 0.899-0.403 0.899-0.899v-11.39c0.008-0.496-0.395-0.907-0.891-0.907zM13.017 21.726c0 0.24-0.201 0.442-0.442 0.442h-11.173c-0.24 0-0.442-0.201-0.442-0.442v-11.398c0-0.24 0.201-0.442 0.442-0.442h11.165c0.24 0 0.442 0.201 0.442 0.442l0.008 11.398z"></path>
</svg>
