<!-- Generated by IcoMoon.io -->
<svg version="1.1" xmlns="http://www.w3.org/2000/svg" width="32" height="32" viewBox="0 0 32 32">
<title>expand-collapse-01</title>
<path fill="#fff" d="M30.14 8.972l-4.967 4.61c-0.178 0.163-0.186 0.442-0.023 0.62 0.085 0.093 0.201 0.139 0.318 0.139 0.108 0 0.217-0.039 0.294-0.116l4.998-4.641c0.178-0.163 0.279-0.38 0.279-0.612s-0.101-0.449-0.279-0.612l-4.998-4.641c-0.178-0.163-0.457-0.155-0.62 0.023s-0.155 0.457 0.023 0.62l4.974 4.61z"></path>
<path fill="#fff" d="M20.819 14.202c0.085 0.093 0.201 0.139 0.318 0.139 0.108 0 0.217-0.039 0.294-0.116l4.998-4.641c0.178-0.163 0.279-0.38 0.279-0.612s-0.101-0.449-0.279-0.612l-4.998-4.641c-0.178-0.163-0.457-0.155-0.62 0.023s-0.155 0.457 0.023 0.62l4.967 4.61-4.959 4.61c-0.178 0.163-0.186 0.442-0.023 0.62z"></path>
<path fill="#fff" d="M6.485 4.083c-0.333-0.356-0.899-0.356-1.224 0l-4.641 4.998c-0.163 0.178-0.155 0.457 0.023 0.62s0.457 0.155 0.62-0.023l4.61-4.967 4.61 4.967c0.085 0.093 0.201 0.139 0.318 0.139 0.108 0 0.217-0.039 0.294-0.116 0.178-0.163 0.186-0.442 0.023-0.62l-4.633-4.998z"></path>
<path fill="#fff" d="M6.485 8.407c-0.333-0.356-0.899-0.356-1.224 0l-4.641 4.998c-0.163 0.178-0.155 0.457 0.023 0.62s0.457 0.155 0.62-0.023l4.61-4.967 4.61 4.967c0.085 0.093 0.201 0.139 0.318 0.139 0.108 0 0.217-0.039 0.294-0.116 0.178-0.163 0.186-0.442 0.023-0.62l-4.633-4.998z"></path>
<path fill="#fff" d="M1.573 23.028l4.967-4.61c0.178-0.163 0.186-0.442 0.023-0.62s-0.442-0.186-0.62-0.023l-4.998 4.641c-0.178 0.163-0.279 0.38-0.279 0.612s0.101 0.449 0.279 0.612l4.998 4.641c0.085 0.077 0.194 0.116 0.294 0.116 0.116 0 0.232-0.047 0.318-0.139 0.163-0.178 0.155-0.457-0.023-0.62l-4.959-4.61z"></path>
<path fill="#fff" d="M10.886 17.798c-0.163-0.178-0.442-0.186-0.62-0.023l-4.998 4.641c-0.178 0.163-0.279 0.38-0.279 0.612s0.101 0.449 0.279 0.612l4.998 4.641c0.085 0.077 0.194 0.116 0.294 0.116 0.116 0 0.232-0.047 0.318-0.139 0.163-0.178 0.155-0.457-0.023-0.62l-4.967-4.61 4.967-4.61c0.186-0.163 0.194-0.442 0.031-0.62z"></path>
<path fill="#fff" d="M30.737 22.323l-4.61 4.967-4.61-4.967c-0.163-0.178-0.442-0.186-0.62-0.023s-0.186 0.442-0.023 0.62l4.641 4.998c0.163 0.178 0.38 0.279 0.612 0.279s0.449-0.101 0.612-0.279l4.641-4.998c0.163-0.178 0.155-0.457-0.023-0.62s-0.457-0.147-0.62 0.023z"></path>
<path fill="#fff" d="M30.737 17.999l-4.61 4.967-4.61-4.967c-0.163-0.178-0.442-0.186-0.62-0.023s-0.186 0.442-0.023 0.62l4.641 4.998c0.163 0.178 0.38 0.279 0.612 0.279s0.449-0.101 0.612-0.279l4.641-4.998c0.163-0.178 0.155-0.457-0.023-0.62s-0.457-0.155-0.62 0.023z"></path>
</svg>
