<!-- Generated by IcoMoon.io -->
<svg version="1.1" xmlns="http://www.w3.org/2000/svg" width="32" height="32" viewBox="0 0 32 32">
<title>explore</title>
<path fill="#fff" d="M24.267 7.237l-10.747 6.121c-0.031 0.015-0.062 0.039-0.085 0.062-0.008 0.008-0.008 0.008-0.015 0.015-0.023 0.023-0.046 0.054-0.062 0.085l-6.121 10.754c-0.077 0.139-0.054 0.318 0.062 0.434 0.070 0.070 0.163 0.108 0.256 0.108 0.062 0 0.124-0.015 0.178-0.047l10.754-6.121c0.023-0.015 0.047-0.031 0.070-0.054 0.008-0.008 0.008-0.008 0.015-0.015s0.015-0.015 0.023-0.023c0.023-0.023 0.039-0.047 0.047-0.070l6.121-10.747c0.077-0.139 0.054-0.318-0.062-0.434-0.108-0.132-0.287-0.155-0.434-0.070zM8.515 23.485l5.253-9.22 0.728 0.728c-0.201 0.294-0.31 0.651-0.31 1.015 0 0.488 0.186 0.938 0.535 1.286 0.341 0.341 0.798 0.535 1.286 0.535 0.364 0 0.721-0.108 1.015-0.31l0.728 0.728-9.236 5.238zM16.488 16.976c-0.403 0.201-0.93 0.124-1.255-0.209-0.209-0.209-0.318-0.48-0.318-0.775 0-0.17 0.039-0.333 0.116-0.488l1.457 1.472zM15.543 15.008c0.403-0.186 0.899-0.116 1.232 0.217 0.209 0.209 0.318 0.48 0.318 0.775 0 0.163-0.039 0.318-0.101 0.457l-1.449-1.449zM18.247 17.712l-0.728-0.728c0.194-0.294 0.294-0.635 0.294-0.992 0-0.488-0.186-0.938-0.535-1.286-0.62-0.62-1.573-0.697-2.278-0.24l-0.728-0.728 9.197-5.238-5.222 9.213z"></path>
<path fill="#fff" d="M16 0.504c-8.546 0-15.496 6.95-15.496 15.496s6.95 15.496 15.496 15.496 15.496-6.95 15.496-15.496-6.95-15.496-15.496-15.496zM16.364 30.768v-3.502c0-0.201-0.163-0.364-0.364-0.364s-0.364 0.163-0.364 0.364v3.502c-7.857-0.186-14.218-6.547-14.404-14.404h3.502c0.201 0 0.364-0.163 0.364-0.364s-0.163-0.364-0.364-0.364h-3.502c0.186-7.857 6.547-14.218 14.404-14.404v3.502c0 0.201 0.163 0.364 0.364 0.364s0.364-0.163 0.364-0.364v-3.502c7.857 0.186 14.218 6.547 14.404 14.404h-3.502c-0.201 0-0.364 0.163-0.364 0.364s0.163 0.364 0.364 0.364h3.502c-0.194 7.857-6.547 14.21-14.404 14.404z"></path>
</svg>
