<!-- Generated by IcoMoon.io -->
<svg version="1.1" xmlns="http://www.w3.org/2000/svg" width="32" height="32" viewBox="0 0 32 32">
<title>extra-bag</title>
<path fill="#fff" d="M8.182 28.839h-0.697c-0.542 0-0.976 0.442-0.976 0.976v0.705c0 0.542 0.442 0.976 0.976 0.976h0.697c0.542 0 0.976-0.442 0.976-0.976v-0.705c0-0.535-0.434-0.976-0.976-0.976zM8.205 30.52c0 0.015-0.008 0.023-0.023 0.023l-0.728-0.023 0.023-0.728 0.728 0.023v0.705z"></path>
<path fill="#fff" d="M26.321 18.634h-3.456v-0.356c0-1.147-0.806-2.015-1.883-2.022v-7.492c0-2.131-1.689-3.2-3.587-3.727v-2.107h0.163c0.666 0 1.209-0.542 1.209-1.209s-0.542-1.209-1.209-1.209h-10.46c-0.666-0.008-1.209 0.535-1.209 1.201s0.542 1.209 1.209 1.209h0.139v2.115c-1.891 0.527-3.58 1.596-3.58 3.727v17.457c0 1.154 0.945 2.1 2.1 2.1h4.045v1.154c0 1.116 0.907 2.022 2.022 2.022h14.497c1.116 0 2.022-0.907 2.022-2.022v-8.817c0-1.116-0.907-2.022-2.022-2.022zM21.912 18.278v0.356h-5.679v-0.356c0-0.558 0.566-1.069 1.193-1.069h3.541c0.558-0.008 0.945 0.434 0.945 1.069zM6.842 1.712c0-0.139 0.116-0.256 0.256-0.256h10.46c0.139 0 0.256 0.116 0.256 0.256s-0.116 0.256-0.256 0.256h-10.46c-0.139 0.008-0.256-0.108-0.256-0.256zM8.198 2.929h8.244v1.891c-1.201-0.225-2.379-0.279-3.192-0.279h-1.86c-0.806 0-1.991 0.054-3.192 0.279v-1.891zM9.801 20.657v6.71h-4.045c-0.635 0-1.147-0.511-1.147-1.147v-17.457c0-2.952 4.742-3.27 6.78-3.27h1.86c2.038 0 6.78 0.318 6.78 3.27v7.492h-2.603c-1.162 0-2.146 0.93-2.146 2.022v0.356h-3.456c-1.116 0-2.022 0.907-2.022 2.022zM27.39 29.474c0 0.589-0.48 1.069-1.069 1.069h-14.497c-0.589 0-1.069-0.48-1.069-1.069v-8.817c0-0.589 0.48-1.069 1.069-1.069h14.497c0.589 0 1.069 0.48 1.069 1.069v8.817z"></path>
</svg>
