<!-- Generated by IcoMoon.io -->
<svg version="1.1" xmlns="http://www.w3.org/2000/svg" width="32" height="32" viewBox="0 0 32 32">
<title>facebook</title>
<path fill="#fff" d="M24.252 1.999c-0.039-0.232-0.201-0.434-0.426-0.511-1.356-0.496-3.146-0.984-5.067-0.984v0c-1.503 0-3.099 0.31-4.587 1.17-0.744 0.434-1.34 0.984-1.782 1.604-0.674 0.93-1.038 1.999-1.24 3.084-0.163 0.876-0.225 1.774-0.256 2.642-0.163 0.008-0.635 0.008-1.123 0.008-0.674 0-1.379 0-1.379 0h-0.008c-0.17 0-0.341 0.070-0.465 0.194s-0.194 0.294-0.194 0.473l0.023 4.37c0 0.364 0.294 0.682 0.659 0.682 0 0 1.302-0.015 2.34-0.015 0.341 0 0.651 0 0.883 0.008 0 3.030 0 16.124 0 16.124 0 0.178 0.209 0.349 0.341 0.473 0.124 0.124 0.294 0.194 0.465 0.194v0l5.842-0.031c0.178 0 0.341-0.070 0.465-0.194s0.194-0.294 0.186-0.465c0 0 0.023-14.342 0-15.985 0.124 0 0.48 0 0.914 0 0.86 0 1.984 0 1.984 0h0.008c0.17 0 0.341-0.070 0.457-0.186 0.124-0.124 0.194-0.294 0.194-0.465l0.008-4.045c0-0.178-0.070-0.403-0.194-0.527s-0.294-0.248-0.465-0.248c0 0-1.17 0.008-2.216 0.008-0.519 0-1.007 0-1.302-0.008 0.015-0.449 0.054-0.759 0.124-1.1 0.062-0.325 0.155-0.597 0.256-0.814 0.077-0.163 0.163-0.294 0.256-0.403 0.139-0.163 0.294-0.271 0.488-0.356 0.194-0.077 0.442-0.132 0.759-0.132h0.008c0.558 0 1.325 0.163 2.278 0.535 0.008 0 0.015 0 0.023 0.008 0.008 0 0.015 0.008 0.023 0.008 0.015 0.008 0.031 0.008 0.039 0.008 0.023 0.008 0.047 0.008 0.070 0.016 0.023 0 0.039 0 0.062 0.008 0.008 0 0.023 0 0.031 0s0.023 0 0.031 0 0.039-0.008 0.062-0.008 0.039-0.008 0.062-0.016 0.039-0.016 0.062-0.023c0.023-0.008 0.039-0.016 0.062-0.023 0.015-0.008 0.039-0.023 0.054-0.031s0.039-0.023 0.054-0.039 0.031-0.023 0.047-0.039 0.031-0.031 0.047-0.046 0.023-0.031 0.039-0.046 0.023-0.039 0.039-0.054c0.008-0.016 0.023-0.039 0.031-0.062 0.008-0.016 0.015-0.023 0.023-0.039 0-0.008 0.008-0.016 0.008-0.023s0.008-0.016 0.008-0.023c0.132-0.434 0.364-1.17 0.558-1.945 0.101-0.387 0.186-0.79 0.256-1.17 0.070-0.387 0.108-0.752 0.108-1.093 0-0.17-0.008-0.318-0.031-0.465zM23.345 3.394c-0.054 0.325-0.132 0.69-0.24 1.108-0.163 0.651-0.356 1.294-0.488 1.72-0.938-0.349-1.743-0.527-2.41-0.527-0.411 0-0.759 0.062-1.077 0.194s-0.573 0.318-0.806 0.581c-0.147 0.178-0.271 0.364-0.38 0.589-0.139 0.302-0.248 0.628-0.318 1.015-0.085 0.418-0.124 0.775-0.139 1.232l-0.031 0.852 0.852 0.015c0.294 0.008 0.79 0.008 1.317 0.008 0.798 0 1.674-0.008 2.038-0.008l-0.008 3.797c-0.349 0-1.162 0-1.813 0-0.434 0-0.806 0-0.922 0l-0.829 0.015 0.008 0.829c0.015 1.526 0 14.14 0 15.806l-5.594 0.031c-0.008-0.008-0.015-0.015-0.031-0.023l-0.008-0.008v-16.736l-0.821-0.015c-0.232-0.008-0.55-0.008-0.899-0.008-0.806 0-1.774 0.008-2.169 0.015l-0.023-4.037c0.248 0 0.736 0 1.209 0 0.496 0 0.976 0 1.147-0.008l0.783-0.015 0.031-0.783c0.023-0.705 0.077-1.627 0.248-2.518 0.209-1.123 0.566-2.022 1.092-2.743 0.403-0.55 0.914-1.015 1.526-1.371 1.209-0.705 2.603-1.062 4.169-1.062v0c1.449 0 3.022 0.302 4.68 0.899 0.008 0.062 0.008 0.132 0.008 0.209 0 0.256-0.031 0.558-0.101 0.945z"></path>
</svg>
