<!-- Generated by IcoMoon.io -->
<svg version="1.1" xmlns="http://www.w3.org/2000/svg" width="32" height="32" viewBox="0 0 32 32">
<title>factory</title>
<path fill="#fff" d="M31.264 13.924c-0.147-0.101-0.325-0.116-0.488-0.054l-9.228 3.719v-3.231c0-0.178-0.093-0.349-0.24-0.442-0.155-0.093-0.341-0.108-0.504-0.031l-1.929 0.891-0.682-9.685c-0.015-0.279-0.248-0.488-0.527-0.488h-3.851c-0.279 0-0.504 0.217-0.527 0.488l-0.891 12.661-0.814 0.372v-3.758c0-0.178-0.093-0.349-0.24-0.442-0.155-0.093-0.341-0.108-0.504-0.031l-1.565 0.721-0.759-10.995c-0.015-0.279-0.248-0.488-0.527-0.488h-3.851c-0.279 0-0.504 0.217-0.527 0.488l-0.969 14.040-1.829 0.845c-0.186 0.085-0.31 0.271-0.31 0.48v9.368c0 0.294 0.232 0.527 0.527 0.527h29.939c0.294 0 0.527-0.232 0.527-0.527v-13.985c0-0.178-0.085-0.341-0.232-0.442zM14.295 5.648h2.875l0.674 9.592-4.354 2.007 0.806-11.599zM4.626 4.176h2.875l0.752 10.902-4.525 2.084 0.899-12.986zM30.443 27.824h-28.885v-8.508l8.98-4.13v3.758c0 0.178 0.093 0.349 0.24 0.442 0.155 0.093 0.341 0.108 0.504 0.031l7.33-3.37c0.015-0.008 0.023-0.008 0.031-0.015l1.844-0.852v3.184c0 0.178 0.085 0.341 0.232 0.434 0.147 0.101 0.325 0.116 0.488 0.054l9.228-3.719v12.692h0.008z"></path>
<path fill="#fff" d="M9.53 21.842h-4.331c-0.294 0-0.527 0.232-0.527 0.527v2.735c0 0.294 0.232 0.527 0.527 0.527h4.331c0.294 0 0.527-0.232 0.527-0.527v-2.743c0-0.287-0.24-0.519-0.527-0.519zM9.003 24.577h-3.277v-1.689h3.277v1.689z"></path>
<path fill="#fff" d="M18.115 21.842h-4.331c-0.294 0-0.527 0.232-0.527 0.527v2.735c0 0.294 0.232 0.527 0.527 0.527h4.331c0.294 0 0.527-0.232 0.527-0.527v-2.743c0-0.287-0.232-0.519-0.527-0.519zM17.588 24.577h-3.277v-1.689h3.277v1.689z"></path>
<path fill="#fff" d="M22.377 25.631h4.331c0.294 0 0.527-0.232 0.527-0.527v-2.743c0-0.294-0.232-0.527-0.527-0.527h-4.331c-0.294 0-0.527 0.232-0.527 0.527v2.743c0 0.294 0.232 0.527 0.527 0.527zM22.904 22.888h3.277v1.689h-3.277v-1.689z"></path>
</svg>
