<!-- Generated by IcoMoon.io -->
<svg version="1.1" xmlns="http://www.w3.org/2000/svg" width="32" height="32" viewBox="0 0 32 32">
<title>family</title>
<path fill="#fff" d="M26.29 6.702c1.426 0 2.588-1.162 2.588-2.588s-1.162-2.588-2.588-2.588-2.588 1.162-2.588 2.588 1.162 2.588 2.588 2.588zM26.29 2.27c1.015 0 1.836 0.821 1.836 1.836s-0.821 1.836-1.836 1.836-1.836-0.821-1.836-1.836 0.821-1.836 1.836-1.836z"></path>
<path fill="#fff" d="M31.496 16.194v-5.943c0-0.907-0.263-1.619-0.775-2.123-0.759-0.744-1.798-0.728-1.829-0.728h-5.199c-0.047-0.008-1.077-0.016-1.836 0.728-0.511 0.504-0.775 1.216-0.775 2.123v5.935c0 0.077-0.015 0.783 0.48 1.294 0.318 0.325 0.752 0.488 1.286 0.488h0.767v10.104c0 0.039-0.047 0.922 0.527 1.542 0.349 0.372 0.829 0.558 1.441 0.558h1.402c0.604 0 1.093-0.186 1.441-0.558 0.581-0.612 0.527-1.503 0.527-1.519v-10.135h0.767c0.542 0 0.976-0.163 1.286-0.488 0.504-0.519 0.488-1.216 0.488-1.278zM30.474 16.945c-0.17 0.17-0.418 0.263-0.744 0.263h-1.139c-0.209 0-0.38 0.17-0.38 0.38v10.522c0 0.008 0.023 0.604-0.325 0.976-0.201 0.209-0.504 0.318-0.891 0.318h-1.402c-0.387 0-0.69-0.108-0.891-0.318-0.356-0.372-0.325-0.976-0.325-1.007v-10.499c0-0.209-0.17-0.38-0.38-0.38h-1.139c-0.325 0-0.573-0.085-0.744-0.256-0.279-0.287-0.271-0.744-0.271-0.759v-5.943c0-0.69 0.186-1.216 0.542-1.573 0.519-0.511 1.255-0.519 1.302-0.519v0h5.215c0.039 0 0.775 0.008 1.294 0.519 0.364 0.356 0.542 0.883 0.542 1.573v5.958c0.008 0.008 0.008 0.457-0.263 0.744z"></path>
<path fill="#fff" d="M5.648 6.702c1.41 0 2.565-1.147 2.565-2.565s-1.147-2.565-2.565-2.565-2.565 1.154-2.565 2.565 1.154 2.565 2.565 2.565zM5.648 2.324c1 0 1.813 0.814 1.813 1.813s-0.814 1.813-1.813 1.813-1.813-0.814-1.813-1.813c0.008-1 0.814-1.813 1.813-1.813z"></path>
<path fill="#fff" d="M10.793 16.062v-5.873c0-0.891-0.256-1.596-0.767-2.1-0.752-0.736-1.774-0.721-1.805-0.721h-5.137c-0.046-0.008-1.062-0.016-1.813 0.721-0.511 0.496-0.767 1.201-0.767 2.1v5.858c0 0.077-0.016 0.775 0.473 1.278 0.217 0.225 0.496 0.38 0.829 0.442l-1.093 5.734c-0.023 0.108 0.008 0.225 0.077 0.31s0.178 0.139 0.287 0.139h1.922v4.138c0 0.039-0.046 0.914 0.527 1.526 0.341 0.364 0.821 0.55 1.426 0.55h1.387c0.604 0 1.085-0.186 1.426-0.55 0.573-0.612 0.527-1.488 0.527-1.503v-4.161h1.922c0.108 0 0.217-0.047 0.287-0.139 0.070-0.085 0.101-0.201 0.077-0.31l-1.092-5.726c0.333-0.070 0.612-0.217 0.829-0.442 0.496-0.511 0.488-1.209 0.48-1.271zM9.778 16.814c-0.163 0.17-0.411 0.256-0.728 0.256-0.108 0-0.217 0.047-0.287 0.139-0.070 0.085-0.101 0.201-0.077 0.31l1.085 5.687h-1.844c-0.209 0-0.38 0.17-0.38 0.38v4.556c0 0.008 0.023 0.597-0.325 0.969-0.194 0.209-0.488 0.31-0.876 0.31h-1.387c-0.387 0-0.674-0.108-0.876-0.31-0.349-0.364-0.325-0.961-0.325-0.992v-4.533c0-0.209-0.17-0.38-0.38-0.38h-1.836l1.085-5.687c0.023-0.108-0.008-0.225-0.077-0.31s-0.178-0.139-0.287-0.139c-0.318 0-0.566-0.085-0.728-0.256-0.279-0.287-0.271-0.728-0.271-0.744v-5.873c0-0.682 0.178-1.201 0.535-1.55 0.519-0.519 1.263-0.519 1.286-0.511h5.153c0.039 0 0.767 0.008 1.278 0.511 0.356 0.349 0.535 0.876 0.535 1.55v5.889c-0.008-0.008 0 0.442-0.271 0.728z"></path>
<path fill="#fff" d="M16.062 15.132c1.426 0 2.588-1.162 2.588-2.588s-1.162-2.588-2.588-2.588-2.588 1.162-2.588 2.588 1.154 2.588 2.588 2.588zM16.062 10.7c1.015 0 1.836 0.821 1.836 1.836s-0.821 1.836-1.836 1.836-1.836-0.821-1.836-1.836c-0.008-1.007 0.821-1.836 1.836-1.836z"></path>
<path fill="#fff" d="M17.41 15.752h-2.696c-1.263 0-2.293 1.030-2.293 2.293v3.704c0 0.953 0.581 1.782 1.441 2.123v4.533c0 0.039-0.046 0.914 0.519 1.526 0.341 0.364 0.821 0.55 1.426 0.55h0.504c0.604 0 1.085-0.186 1.426-0.55 0.573-0.612 0.519-1.488 0.519-1.503v-4.556c0.86-0.341 1.441-1.17 1.441-2.123v-3.704c0-1.263-1.023-2.293-2.286-2.293zM18.944 21.741c0 0.705-0.48 1.317-1.162 1.488-0.108 0.023-0.194 0.108-0.24 0.201-0.031 0.062-0.047 0.139-0.039 0.209v4.804c0 0.008 0.031 0.597-0.318 0.969-0.194 0.209-0.488 0.31-0.876 0.31h-0.504c-0.387 0-0.674-0.108-0.876-0.31-0.349-0.364-0.318-0.961-0.318-0.984v-4.75c0.015-0.085 0.008-0.178-0.031-0.256-0.046-0.101-0.139-0.17-0.248-0.194-0.682-0.163-1.162-0.775-1.162-1.488v-3.704c0-0.852 0.69-1.542 1.534-1.542h2.696c0.845 0 1.534 0.69 1.534 1.542l0.008 3.704z"></path>
</svg>
