<!-- Generated by IcoMoon.io -->
<svg version="1.1" xmlns="http://www.w3.org/2000/svg" width="32" height="32" viewBox="0 0 32 32">
<title>fast-track</title>
<path fill="#fff" d="M10.328 18.495c0-0.248-0.201-0.442-0.442-0.442h-4.595c-0.248 0-0.442 0.201-0.442 0.442s0.201 0.442 0.442 0.442h4.595c0.248 0 0.442-0.201 0.442-0.442z"></path>
<path fill="#fff" d="M12.854 16.418c0-0.248-0.201-0.442-0.442-0.442h-8.903c-0.248 0-0.442 0.201-0.442 0.442s0.201 0.442 0.442 0.442h8.895c0.248 0 0.449-0.201 0.449-0.442z"></path>
<path fill="#fff" d="M7.214 15.078h5.338c0.248 0 0.442-0.201 0.442-0.442s-0.201-0.442-0.442-0.442h-5.338c-0.248 0-0.442 0.201-0.442 0.442s0.201 0.442 0.442 0.442z"></path>
<path fill="#fff" d="M18.015 17.689c-0.232-0.085-0.488 0.031-0.573 0.263l-1.085 2.968c-0.085-0.062-0.17-0.108-0.271-0.147l-3.308-1.201c-0.62-0.225-1.309 0.093-1.534 0.713l-2.1 5.772c-0.108 0.302-0.093 0.628 0.039 0.914s0.372 0.511 0.674 0.62l3.308 1.201c0.132 0.047 0.271 0.070 0.403 0.070 0.488 0 0.945-0.302 1.123-0.79l1.782-4.897 1.798-4.92c0.093-0.225-0.023-0.48-0.256-0.566zM9.995 26.6c-0.031-0.077-0.039-0.155-0.008-0.232l2.1-5.772c0.054-0.155 0.232-0.24 0.387-0.186l0.465 0.17-2.309 6.346-0.457-0.17c-0.085-0.023-0.147-0.077-0.178-0.155zM13.869 27.777c-0.054 0.155-0.232 0.24-0.387 0.186l-2.015-0.728 2.309-6.346 2.015 0.728c0.077 0.031 0.139 0.085 0.17 0.155 0.031 0.077 0.039 0.155 0.008 0.232l-2.1 5.772z"></path>
<path fill="#fff" d="M12.877 29.040c-0.651-0.24-1.379 0.101-1.619 0.759v0c-0.24 0.659 0.101 1.379 0.759 1.619 0.139 0.054 0.287 0.077 0.434 0.077 0.519 0 1-0.318 1.185-0.829 0.116-0.318 0.101-0.659-0.039-0.969s-0.403-0.542-0.721-0.659zM12.8 30.357c-0.031 0.093-0.101 0.17-0.194 0.209s-0.194 0.047-0.287 0.015-0.17-0.101-0.209-0.194-0.046-0.194-0.015-0.287c0.070-0.194 0.287-0.294 0.48-0.225 0.093 0.031 0.17 0.101 0.209 0.194 0.046 0.093 0.046 0.194 0.015 0.287z"></path>
<path fill="#fff" d="M25.22 6.439c0.232 0.054 0.473 0.085 0.705 0.085 1.356 0 2.596-0.93 2.929-2.309 0.186-0.783 0.062-1.588-0.356-2.278-0.418-0.682-1.085-1.17-1.86-1.356-0.783-0.186-1.588-0.062-2.278 0.356-0.682 0.418-1.17 1.085-1.356 1.86-0.186 0.783-0.062 1.588 0.356 2.278 0.418 0.697 1.077 1.178 1.86 1.364zM23.864 3.022c0.132-0.55 0.473-1.015 0.953-1.309 0.341-0.209 0.721-0.31 1.1-0.31 0.163 0 0.333 0.023 0.496 0.062 0.55 0.132 1.015 0.473 1.309 0.953s0.387 1.054 0.256 1.604c-0.271 1.139-1.418 1.844-2.557 1.565-0.55-0.132-1.015-0.473-1.309-0.953-0.294-0.496-0.38-1.062-0.248-1.612z"></path>
<path fill="#fff" d="M28.637 22.253l-1.596-5.416 0.721-8.213c0.031-0.318-0.070-0.62-0.271-0.868-0.201-0.24-0.488-0.387-0.806-0.418l-2.324-0.201c-0.318-0.031-0.62 0.070-0.868 0.271-0.24 0.201-0.387 0.488-0.418 0.806-0.023 0.248 0.163 0.457 0.403 0.48s0.457-0.163 0.48-0.403c0.008-0.077 0.047-0.147 0.101-0.201 0.062-0.046 0.139-0.070 0.217-0.070l0.814 0.070-5.253 4.525c-0.418 0.318-0.736 0.744-0.899 1.232l-0.876 2.402c-0.085 0.232 0.039 0.488 0.263 0.573 0.047 0.015 0.101 0.023 0.155 0.023 0.178 0 0.349-0.108 0.418-0.294l0.876-2.417c0.108-0.325 0.31-0.604 0.612-0.829l5.943-5.098 0.279 0.023c0.077 0.008 0.147 0.046 0.201 0.101 0.054 0.062 0.077 0.139 0.070 0.217l-0.69 7.857-2.751-0.24 0.364-4.246c0.023-0.248-0.163-0.457-0.403-0.48-0.248-0.023-0.457 0.163-0.48 0.403l-0.403 4.688-0.744 6.625c-0.054 0.651-0.232 1.278-0.511 1.867l-2.084 4.331c-0.015 0.023-0.023 0.054-0.031 0.077-0.085 0.333 0.093 0.682 0.411 0.798l2.231 0.837c0.178 0.070 0.38 0.054 0.55-0.031 0.155-0.077 0.271-0.217 0.325-0.387l2.309-5.176c0.147-0.325 0.232-0.674 0.263-1.030l0.054-0.697 0.186 0.736-0.093 6.253c0 0.418 0.341 0.767 0.767 0.767h2.022c0.418 0 0.767-0.341 0.767-0.767v-6.408c-0.008-0.697-0.108-1.395-0.302-2.069zM28.041 30.605h-1.767l0.093-6.175c0-0.039-0.008-0.077-0.015-0.116l-0.852-3.409c-0.054-0.209-0.256-0.356-0.465-0.333-0.217 0.015-0.387 0.194-0.403 0.411l-0.279 3.386c-0.023 0.256-0.085 0.504-0.194 0.744l-2.255 5.052-1.805-0.674 1.96-4.083c0.325-0.682 0.527-1.418 0.597-2.177l0.697-6.175 2.898 0.256 1.534 5.199c0.178 0.597 0.263 1.209 0.263 1.821l-0.008 6.276z"></path>
</svg>
