<!-- Generated by IcoMoon.io -->
<svg version="1.1" xmlns="http://www.w3.org/2000/svg" width="32" height="32" viewBox="0 0 32 32">
<title>fast-baggage-check-in</title>
<path fill="#fff" d="M29.226 10.096h-4.354v-0.612c0-1.317-0.891-2.27-2.123-2.27h-4.277c-1.286 0-2.417 1.062-2.417 2.27v0.612h-4.354c-1.255 0-2.27 1.015-2.27 2.27v10.158c0 1.255 1.015 2.27 2.27 2.27h17.534c1.247 0 2.27-1.015 2.27-2.27v-10.158c-0.008-1.255-1.023-2.27-2.278-2.27zM16.845 9.484c0-0.775 0.775-1.472 1.619-1.472h4.277c0.783 0 1.333 0.604 1.333 1.472v0.612h-7.229v-0.612zM30.698 22.516c0 0.814-0.659 1.472-1.472 1.472h-17.526c-0.814 0-1.472-0.659-1.472-1.472v-10.15c0-0.814 0.659-1.472 1.472-1.472h17.526c0.814 0 1.472 0.659 1.472 1.472v10.15z"></path>
<path fill="#fff" d="M7.686 20.843h-3.696c-0.217 0-0.395 0.178-0.395 0.395s0.178 0.395 0.395 0.395h3.696c0.217 0 0.395-0.178 0.395-0.395s-0.17-0.395-0.395-0.395z"></path>
<path fill="#fff" d="M7.686 18.805h-6.787c-0.217 0-0.395 0.178-0.395 0.395s0.178 0.395 0.395 0.395h6.787c0.217 0 0.395-0.178 0.395-0.395 0.008-0.217-0.17-0.395-0.395-0.395z"></path>
<path fill="#fff" d="M7.686 17.054h-4.998c-0.217 0-0.395 0.178-0.395 0.395s0.178 0.395 0.395 0.395h4.998c0.217 0 0.395-0.178 0.395-0.395 0.008-0.217-0.17-0.395-0.395-0.395z"></path>
</svg>
