<!-- Generated by IcoMoon.io -->
<svg version="1.1" xmlns="http://www.w3.org/2000/svg" width="32" height="32" viewBox="0 0 32 32">
<title>FEMA-safety-compliance</title>
<path fill="#fff" d="M26.297 1.356c-0.163-0.124-0.364-0.17-0.566-0.124l-8.182 2.030c-0.318 0.077-0.542 0.364-0.542 0.69v0.79h-0.248v-0.713c0-0.829-0.674-1.503-1.503-1.503h-1.348c-0.558-1.193-1.759-2.015-3.161-2.015-1.922 0-3.487 1.565-3.487 3.487 0 0.403 0.070 0.79 0.201 1.154-1.821 0.558-2.015 2.844-2.022 2.952-0.016 0.256 0.17 0.473 0.426 0.488 0.008 0 0.023 0 0.031 0 0.24 0 0.442-0.186 0.457-0.426 0-0.015 0.155-1.891 1.534-2.177 0.628 0.899 1.674 1.495 2.859 1.495 0.225 0 0.442-0.023 0.651-0.062v0.473c-2.696 0.527-4.54 2.89-4.54 5.881v16.116c0 0.891 0.728 1.612 1.619 1.612h11.212c0.891 0 1.619-0.728 1.619-1.612v-16.116c0-2.991-1.844-5.354-4.54-5.881v-2.239h0.248v0.79c0 0.325 0.225 0.612 0.542 0.69l8.182 2.022c0.054 0.015 0.108 0.023 0.163 0.023 0.147 0 0.287-0.046 0.403-0.139 0.163-0.124 0.256-0.318 0.256-0.519v-6.648c-0.008-0.201-0.101-0.387-0.263-0.519zM8.19 3.99c0-1.418 1.154-2.572 2.572-2.572s2.565 1.154 2.565 2.572-1.154 2.572-2.565 2.572-2.572-1.154-2.572-2.572zM20.385 13.769v16.116c0 0.387-0.31 0.697-0.697 0.697h-11.212c-0.387 0-0.697-0.31-0.697-0.697v-16.116c0-2.658 1.705-4.726 4.138-5.036 0.232-0.031 0.403-0.225 0.403-0.457v-1.178c1.139-0.573 1.922-1.751 1.922-3.107 0-0.186-0.015-0.372-0.046-0.55h1.062c0.325 0 0.589 0.263 0.589 0.589v4.254c0 0.232 0.17 0.426 0.403 0.457 2.433 0.294 4.138 2.363 4.138 5.029zM25.631 8.19l-7.702-1.906v-2.17l7.702-1.906v5.982z"></path>
<path fill="#fff" d="M10.754 1.712c-0.256 0-0.457 0.209-0.457 0.457v1.612c0 0.256 0.209 0.457 0.457 0.457s0.457-0.209 0.457-0.457v-1.604c0-0.256-0.201-0.465-0.457-0.465z"></path>
</svg>
