<!-- Generated by IcoMoon.io -->
<svg version="1.1" xmlns="http://www.w3.org/2000/svg" width="32" height="32" viewBox="0 0 32 32">
<title>ferry</title>
<path fill="#fff" d="M13.249 13.854c-0.806 0.55-0.682 2.27-0.589 2.983 0.116 0.891 0.883 1.162 1.805 1.395 0.17 0.047 0.341-0.062 0.38-0.225 0.046-0.17-0.062-0.341-0.225-0.38-0.992-0.256-1.286-0.442-1.34-0.868-0.132-0.992-0.062-2.131 0.31-2.386l0.039-0.031c0.147-0.101 0.496-0.341 1.371-0.542 0.442-0.101 0.767-0.465 1.116-0.852 0.186-0.209 0.38-0.426 0.612-0.62 1.441-1.232 3.099-1.782 5.354-1.782 1.526 0 2.828 0.612 3.657 1.728 0.519 0.697 0.674 1.069 0.945 1.782 0.039 0.108 0.132 0.178 0.248 0.201 3.518 0.535 4.037 1.255 3.905 2.789-0.070 0.814-0.411 0.868-1.867 0.969l-0.194 0.015c-0.163 0-0.294 0.116-0.31 0.279-0.085 0.713-0.697 1.247-1.41 1.247-0.783 0-1.426-0.635-1.426-1.426s0.635-1.426 1.426-1.426c0.17 0 0.318-0.139 0.318-0.318 0-0.17-0.139-0.318-0.318-0.318-1.131 0-2.053 0.922-2.053 2.053s0.922 2.053 2.053 2.053c0.945 0 1.759-0.643 1.991-1.542 1.34-0.093 2.301-0.17 2.417-1.542 0.178-2.076-0.821-2.898-4.254-3.44-0.248-0.643-0.442-1.062-0.961-1.759-0.938-1.263-2.448-1.984-4.161-1.984-2.417 0-4.2 0.597-5.765 1.937-0.256 0.225-0.48 0.465-0.674 0.682-0.287 0.325-0.535 0.597-0.783 0.659-1 0.225-1.418 0.519-1.596 0.643l-0.023 0.023z"></path>
<path fill="#fff" d="M15.186 18.131c0 1.131 0.922 2.053 2.053 2.053 0.938 0 1.751-0.635 1.984-1.526h5.005c0.17 0 0.318-0.139 0.318-0.318 0-0.17-0.139-0.318-0.318-0.318h-5.261c-0.163 0-0.294 0.116-0.31 0.279-0.085 0.713-0.697 1.247-1.41 1.247-0.783 0-1.426-0.635-1.426-1.426s0.635-1.426 1.426-1.426c0.17 0 0.318-0.139 0.318-0.318 0-0.17-0.139-0.318-0.318-0.318-1.139 0.015-2.061 0.938-2.061 2.069z"></path>
<path fill="#fff" d="M16.79 13.823c0.008 0 0.008 0 0.015 0 0.108-0.008 0.248-0.023 0.442-0.039 0.566-0.054 1.519-0.155 2.913-0.139 0.093 0 0.163-0.031 0.225-0.093s0.093-0.139 0.093-0.225v-1.891c0-0.093-0.047-0.186-0.116-0.248-0.077-0.062-0.17-0.085-0.263-0.062-0.752 0.17-1.464 0.488-2.177 0.969-0.55 0.372-0.798 0.628-1.356 1.193-0.093 0.093-0.116 0.232-0.062 0.349 0.054 0.108 0.163 0.186 0.287 0.186zM18.278 12.614c0.519-0.349 1.038-0.604 1.581-0.767v1.162c-0.953 0-1.681 0.054-2.216 0.101 0.194-0.178 0.372-0.318 0.635-0.496z"></path>
<path fill="#fff" d="M25.546 14.117c0.015 0 0.031 0 0.047 0 0.093 0 0.178-0.039 0.24-0.116 0.070-0.085 0.093-0.201 0.054-0.302-0.015-0.039-0.302-0.876-0.876-1.457-0.899-0.899-1.852-1.286-3.184-1.286-0.256 0-0.426 0-0.713 0.023-0.163 0.015-0.294 0.147-0.294 0.318v2.038c0 0.17 0.132 0.31 0.302 0.318l0.287 0.008c1.836 0.077 2.681 0.217 3.494 0.349 0.217 0.046 0.418 0.077 0.643 0.108zM21.447 11.607c0.124-0.008 0.232-0.008 0.372-0.008 1.17 0 1.96 0.318 2.743 1.1 0.217 0.209 0.38 0.48 0.504 0.705-0.015 0-0.039-0.008-0.054-0.008-0.829-0.139-1.697-0.279-3.564-0.356v-1.433z"></path>
<path fill="#fff" d="M31.179 23.438c0.17 0 0.318-0.139 0.318-0.318v-2.503c0-0.17-0.139-0.318-0.318-0.318h-24.484c-0.17 0-0.318 0.139-0.318 0.318s0.139 0.318 0.318 0.318h24.167v1.875h-2.348c-0.124 0-0.24 0.077-0.287 0.186l-1.457 3.308c-0.759-0.248-1.433-0.721-1.914-1.379-0.116-0.163-0.387-0.163-0.511 0-0.721 0.984-1.875 1.573-3.092 1.573s-2.371-0.589-3.092-1.573c-0.116-0.163-0.387-0.163-0.511 0-0.721 0.984-1.875 1.573-3.092 1.573s-2.371-0.589-3.092-1.573c-0.116-0.163-0.387-0.163-0.511 0-0.721 0.984-1.875 1.573-3.092 1.573-1.209 0-2.324-0.558-3.061-1.534-0.116-0.155-0.387-0.155-0.504 0-0.759 1.007-1.929 1.565-3.177 1.534v-19.184h2.286c0.17 0 0.318-0.139 0.318-0.318v-3.324l2.937-0.821v4.145c0 0.17 0.139 0.318 0.318 0.318h4.881c0.697 0 1.271 0.566 1.271 1.271s-0.566 1.271-1.271 1.271h-0.845c-1.046 0-1.898 0.852-1.898 1.898v6.555c0 0.17 0.139 0.318 0.318 0.318s0.318-0.139 0.318-0.318v-6.555c0-0.697 0.566-1.271 1.271-1.271h0.845c1.046 0 1.898-0.852 1.898-1.898s-0.852-1.898-1.898-1.898h-4.571v-4.254c0-0.101-0.046-0.194-0.124-0.248-0.077-0.062-0.178-0.077-0.279-0.054l-3.564 1c-0.139 0.039-0.232 0.163-0.232 0.302v3.254h-2.278c-0.17 0-0.318 0.139-0.318 0.318v19.797c0 0.163 0.124 0.294 0.287 0.31 0.155 0.015 0.31 0.023 0.457 0.023 1.278 0 2.464-0.535 3.316-1.48 0.845 0.945 2.038 1.48 3.316 1.48s2.503-0.558 3.347-1.519c0.845 0.953 2.069 1.519 3.347 1.519s2.503-0.558 3.347-1.519c0.845 0.953 2.069 1.519 3.347 1.519s2.503-0.558 3.347-1.519c0.589 0.666 1.364 1.131 2.208 1.356l0.008 0.008c0.023 0.008 0.047 0.008 0.070 0.015 0.349 0.085 0.697 0.132 1.061 0.132 1.364 0 2.627-0.612 3.479-1.674 0.108-0.139 0.085-0.333-0.047-0.442-0.139-0.108-0.333-0.085-0.442 0.047-0.736 0.914-1.821 1.433-2.991 1.433-0.186 0-0.372-0.015-0.55-0.047l1.325-3.014h2.441v0.008z"></path>
<path fill="#fff" d="M5.261 9.561c-1.139 0-2.069 0.93-2.069 2.069s0.93 2.069 2.069 2.069 2.069-0.93 2.069-2.069c0-1.139-0.93-2.069-2.069-2.069zM5.261 13.071c-0.79 0-1.441-0.643-1.441-1.441 0-0.79 0.643-1.441 1.441-1.441s1.441 0.643 1.441 1.441c0 0.79-0.651 1.441-1.441 1.441z"></path>
<path fill="#fff" d="M30.939 27.816c-0.736 0.914-1.821 1.433-2.991 1.433-1.216 0-2.371-0.589-3.092-1.573-0.116-0.163-0.387-0.163-0.511 0-0.721 0.984-1.875 1.573-3.092 1.573s-2.371-0.589-3.092-1.573c-0.116-0.163-0.387-0.163-0.511 0-0.721 0.984-1.875 1.573-3.092 1.573s-2.371-0.589-3.092-1.573c-0.116-0.163-0.387-0.163-0.511 0-0.721 0.984-1.875 1.573-3.092 1.573-1.209 0-2.324-0.558-3.061-1.534-0.116-0.155-0.387-0.155-0.504 0-0.736 0.976-1.852 1.534-3.061 1.534-0.132 0-0.263-0.008-0.395-0.023-0.178-0.015-0.325 0.108-0.349 0.279-0.016 0.17 0.108 0.325 0.279 0.349 0.147 0.015 0.302 0.023 0.457 0.023 1.278 0 2.464-0.535 3.316-1.48 0.845 0.945 2.038 1.48 3.316 1.48s2.503-0.558 3.347-1.519c0.845 0.953 2.069 1.519 3.347 1.519s2.503-0.558 3.347-1.519c0.845 0.953 2.069 1.519 3.347 1.519s2.503-0.558 3.347-1.519c0.845 0.953 2.069 1.519 3.347 1.519 1.364 0 2.627-0.612 3.479-1.674 0.108-0.139 0.085-0.333-0.047-0.442-0.139-0.101-0.333-0.085-0.442 0.054z"></path>
</svg>
