<!-- Generated by IcoMoon.io -->
<svg version="1.1" xmlns="http://www.w3.org/2000/svg" width="32" height="32" viewBox="0 0 32 32">
<title>file</title>
<path fill="#fff" d="M28.839 8.415c0-0.046-0.015-0.093-0.023-0.132-0.008-0.015-0.008-0.031-0.015-0.046-0.023-0.054-0.054-0.101-0.093-0.139 0 0 0-0.008-0.008-0.008l-7.438-7.438c-0.047-0.046-0.093-0.077-0.147-0.101-0.015-0.008-0.031-0.008-0.047-0.015-0.047-0.015-0.093-0.023-0.139-0.031-0.008 0-0.023-0.008-0.031-0.008h-16.558c-0.651 0-1.178 0.527-1.178 1.178v28.637c0 0.651 0.527 1.178 1.178 1.178h23.322c0.651 0 1.178-0.527 1.178-1.178v-21.865c0-0.015 0-0.023 0-0.031zM21.416 2.247l5.687 5.687h-5.687v-5.687zM27.661 30.474h-23.322c-0.085 0-0.163-0.070-0.163-0.163v-28.63c0-0.085 0.070-0.163 0.163-0.163h16.054v6.927c0 0.279 0.225 0.511 0.511 0.511h6.919v21.362c0 0.085-0.077 0.155-0.163 0.155z"></path>
<path fill="#fff" d="M17.178 4.122h-9.259c-0.279 0-0.511 0.225-0.511 0.511s0.225 0.511 0.511 0.511h9.259c0.279 0 0.511-0.225 0.511-0.511s-0.225-0.511-0.511-0.511z"></path>
<path fill="#fff" d="M7.919 8.043h7.252c0.279 0 0.511-0.225 0.511-0.511s-0.225-0.511-0.511-0.511h-7.252c-0.279 0-0.511 0.225-0.511 0.511s0.232 0.511 0.511 0.511z"></path>
<path fill="#fff" d="M16.511 9.933h-8.593c-0.279 0-0.511 0.225-0.511 0.511 0 0.279 0.225 0.511 0.511 0.511h8.593c0.279 0 0.511-0.225 0.511-0.511s-0.232-0.511-0.511-0.511z"></path>
</svg>
