<!-- Generated by IcoMoon.io -->
<svg version="1.1" xmlns="http://www.w3.org/2000/svg" width="32" height="32" viewBox="0 0 32 32">
<title>financial-calendar</title>
<path fill="#fff" d="M8.050 15.845h-2.851c-0.24 0-0.434 0.194-0.434 0.434s0.194 0.434 0.434 0.434h2.851c0.24 0 0.434-0.194 0.434-0.434-0.008-0.24-0.194-0.434-0.434-0.434z"></path>
<path fill="#fff" d="M12.862 15.845h-2.851c-0.24 0-0.434 0.194-0.434 0.434s0.194 0.434 0.434 0.434h2.851c0.24 0 0.434-0.194 0.434-0.434s-0.194-0.434-0.434-0.434z"></path>
<path fill="#fff" d="M8.050 19.866h-2.851c-0.24 0-0.434 0.194-0.434 0.434s0.194 0.434 0.434 0.434h2.851c0.24 0 0.434-0.194 0.434-0.434s-0.194-0.434-0.434-0.434z"></path>
<path fill="#fff" d="M12.862 19.866h-2.851c-0.24 0-0.434 0.194-0.434 0.434s0.194 0.434 0.434 0.434h2.851c0.24 0 0.434-0.194 0.434-0.434s-0.194-0.434-0.434-0.434z"></path>
<path fill="#fff" d="M8.050 23.616h-2.851c-0.24 0-0.434 0.194-0.434 0.434s0.194 0.434 0.434 0.434h2.851c0.24 0 0.434-0.194 0.434-0.434-0.008-0.24-0.194-0.434-0.434-0.434z"></path>
<path fill="#fff" d="M12.862 23.616h-2.851c-0.24 0-0.434 0.194-0.434 0.434s0.194 0.434 0.434 0.434h2.851c0.24 0 0.434-0.194 0.434-0.434s-0.194-0.434-0.434-0.434z"></path>
<path fill="#fff" d="M28.459 19.533v-11.971c0-1.464-1.193-2.658-2.665-2.658h-6.477v-3.967c0-0.24-0.194-0.434-0.434-0.434s-0.434 0.194-0.434 0.434v3.967h-6.632v-3.967c0-0.24-0.194-0.434-0.434-0.434s-0.434 0.194-0.434 0.434v3.967h-5.943c-1.464 0-2.658 1.193-2.658 2.658v18.766c0 1.464 1.193 2.658 2.658 2.658h11.095c1.433 1.542 3.463 2.51 5.726 2.51 4.316 0 7.826-3.51 7.826-7.826 0-1.519-0.442-2.937-1.193-4.138zM5.005 5.765h20.788c0.992 0 1.798 0.806 1.798 1.798v3.432h-24.384v-3.432c0-0.992 0.806-1.798 1.798-1.798zM5.005 28.118c-0.992 0-1.798-0.806-1.798-1.798v-14.466h24.384v6.547c-1.433-1.565-3.479-2.549-5.765-2.549-4.316 0-7.826 3.51-7.826 7.826 0 1.65 0.519 3.184 1.395 4.447l-10.39-0.008zM21.834 30.636c-3.835 0-6.958-3.123-6.958-6.958s3.123-6.958 6.958-6.958 6.958 3.123 6.958 6.958-3.123 6.958-6.958 6.958z"></path>
<path fill="#fff" d="M24.709 20.107l-4.076 5.951-1.588-2.262c-0.139-0.194-0.411-0.24-0.604-0.101s-0.24 0.403-0.101 0.604l1.953 2.766c0.008 0.008 0.023 0.015 0.031 0.023 0.023 0.031 0.047 0.062 0.077 0.077 0.008 0.008 0.023 0.008 0.031 0.015 0.015 0.008 0.023 0.015 0.039 0.015 0.054 0.023 0.116 0.039 0.17 0.039v0 0 0c0.039 0 0.077-0.008 0.116-0.015 0.015 0 0.023-0.008 0.031-0.015 0.031-0.008 0.054-0.023 0.077-0.039 0.008-0.008 0.015-0.008 0.015-0.008 0.008 0 0.008-0.008 0.008-0.008 0.039-0.031 0.070-0.062 0.101-0.101l4.424-6.462c0.132-0.194 0.085-0.465-0.108-0.597s-0.465-0.077-0.597 0.116z"></path>
</svg>
