<!-- Generated by IcoMoon.io -->
<svg version="1.1" xmlns="http://www.w3.org/2000/svg" width="32" height="32" viewBox="0 0 32 32">
<title>financial-report</title>
<path fill="#fff" d="M23.454 15.938c-0.256 0-0.465 0.209-0.465 0.465v6.020h-6.307c-0.256 0-0.465 0.209-0.465 0.465v6.307h-14.636c-0.077 0-0.147-0.070-0.147-0.147v-26.104c0-0.077 0.070-0.147 0.147-0.147h21.269c0.077 0 0.147 0.070 0.147 0.147v1.387c0 0.256 0.209 0.465 0.465 0.465s0.465-0.209 0.465-0.465v-1.387c0-0.597-0.48-1.077-1.077-1.077h-21.269c-0.597 0-1.077 0.48-1.077 1.077v26.111c0 0.597 0.48 1.077 1.077 1.077h15.101c0.062 0 0.124-0.015 0.178-0.039s0.101-0.054 0.139-0.093c0 0 0.008 0 0.008-0.008l6.772-6.772c0.039-0.039 0.070-0.085 0.093-0.132 0.008-0.015 0.008-0.031 0.015-0.047 0.015-0.039 0.023-0.077 0.023-0.124 0-0.008 0.008-0.015 0.008-0.031v-6.485c0-0.256-0.209-0.465-0.465-0.465zM17.147 28.544v-5.191h5.191l-5.191 5.191z"></path>
<path fill="#fff" d="M12.645 25.902h-7.826c-0.256 0-0.465 0.209-0.465 0.465s0.209 0.465 0.465 0.465h7.826c0.256 0 0.465-0.209 0.465-0.465s-0.209-0.465-0.465-0.465z"></path>
<path fill="#fff" d="M12.645 22.997h-7.826c-0.256 0-0.465 0.209-0.465 0.465s0.209 0.465 0.465 0.465h7.826c0.256 0 0.465-0.209 0.465-0.465s-0.209-0.465-0.465-0.465z"></path>
<path fill="#fff" d="M4.819 21.021h5.78c0.256 0 0.465-0.209 0.465-0.465s-0.209-0.465-0.465-0.465h-5.78c-0.256 0-0.465 0.209-0.465 0.465s0.209 0.465 0.465 0.465z"></path>
<path fill="#fff" d="M4.819 18.123h5.78c0.256 0 0.465-0.209 0.465-0.465s-0.209-0.465-0.465-0.465h-5.78c-0.256 0-0.465 0.209-0.465 0.465s0.209 0.465 0.465 0.465z"></path>
<path fill="#fff" d="M12.606 14.753c0-0.256-0.209-0.465-0.465-0.465h-7.322c-0.256 0-0.465 0.209-0.465 0.465s0.209 0.465 0.465 0.465h7.322c0.256 0 0.465-0.209 0.465-0.465z"></path>
<path fill="#fff" d="M15.334 11.847c0-0.256-0.209-0.465-0.465-0.465h-10.049c-0.256 0-0.465 0.209-0.465 0.465s0.209 0.465 0.465 0.465h10.049c0.256 0 0.465-0.209 0.465-0.465z"></path>
<path fill="#fff" d="M18.061 8.941c0-0.256-0.209-0.465-0.465-0.465h-12.777c-0.256 0-0.465 0.209-0.465 0.465s0.209 0.465 0.465 0.465h12.777c0.256 0 0.465-0.201 0.465-0.465z"></path>
<path fill="#fff" d="M19.541 6.044c0-0.256-0.209-0.465-0.465-0.465h-14.257c-0.256 0-0.465 0.209-0.465 0.465s0.209 0.465 0.465 0.465h14.257c0.256 0 0.465-0.209 0.465-0.465z"></path>
<path fill="#fff" d="M31.496 5.455c0-0.411-0.155-0.79-0.449-1.077l-1.813-1.813c-0.573-0.573-1.581-0.573-2.154 0l-14.76 14.753c-0.008 0.008-0.008 0.015-0.015 0.015-0.039 0.039-0.070 0.085-0.085 0.132-0.023 0.054-0.039 0.116-0.039 0.178v3.316c0 0.256 0.209 0.465 0.465 0.465h3.316c0.062 0 0.124-0.015 0.178-0.039s0.101-0.054 0.147-0.093c0 0 0.008 0 0.008-0.008l14.76-14.76c0.287-0.279 0.442-0.659 0.442-1.069zM25.91 5.044l1 1-10.313 10.321c-0.178 0.178-0.178 0.473 0 0.659 0.093 0.093 0.209 0.139 0.325 0.139s0.24-0.047 0.325-0.139l10.321-10.321 1 1-12.606 12.606-2.658-2.658 12.606-12.606zM13.11 18.774l1.728 1.728h-1.728v-1.728zM30.396 5.881l-1.162 1.162-2.658-2.658 1.162-1.162c0.225-0.225 0.62-0.225 0.845 0l1.813 1.813c0.116 0.116 0.178 0.263 0.178 0.418-0.008 0.163-0.070 0.31-0.178 0.426z"></path>
</svg>
