<!-- Generated by IcoMoon.io -->
<svg version="1.1" xmlns="http://www.w3.org/2000/svg" width="32" height="32" viewBox="0 0 32 32">
<title>findability</title>
<path fill="#fff" d="M15.504 21.524c0 0.436-0.354 0.79-0.79 0.79s-0.79-0.354-0.79-0.79c0-0.436 0.354-0.79 0.79-0.79s0.79 0.354 0.79 0.79z"></path>
<path fill="#fff" d="M30.939 24.701l-2.022-2.038c0-0.008 0-0.008 0-0.015v-17.658c0-0.891-0.721-1.612-1.612-1.612h-8.631c-0.023 0-0.039 0.008-0.054 0.008-1.147-0.535-2.402-0.821-3.704-0.829-0.008 0-0.015 0-0.023 0-1.309 0-2.572 0.287-3.727 0.829-0.015 0-0.031-0.008-0.054-0.008h-8.996c-0.891 0-1.612 0.728-1.612 1.612v17.325c0 0.891 0.721 1.612 1.612 1.612h8.624v1.542c0 0.263-0.147 0.767-0.294 0.984l-0.705 1.054c-0.287 0.434-0.333 0.907-0.116 1.309 0.209 0.395 0.635 0.628 1.154 0.628h7.872c0.519 0 0.938-0.232 1.154-0.628 0.209-0.395 0.17-0.876-0.116-1.309l-0.705-1.054c-0.147-0.225-0.302-0.721-0.302-0.984v-1.542h6.013l3.494 3.502c0.372 0.372 0.86 0.566 1.364 0.566 0.263 0 0.527-0.054 0.783-0.163 0.209-0.093 0.411-0.232 0.589-0.403 0.759-0.752 0.759-1.976 0.015-2.727zM25.732 19.463h2.487v2.503l-2.487-2.503zM27.312 4.083c0.504 0 0.907 0.411 0.907 0.907v13.769h-3.177l-2.735-2.758c2.169-3.432 1.689-7.957-1.201-10.855-0.395-0.395-0.821-0.752-1.278-1.062 0 0 7.485 0 7.485 0zM2.115 4.083h7.849c-0.442 0.302-0.86 0.643-1.247 1.030-3.425 3.409-3.432 8.965-0.023 12.389 0.488 0.488 1.023 0.907 1.588 1.255h-9.073v-13.769c0-0.504 0.403-0.907 0.907-0.907zM1.209 22.315v-2.851h10.46c2.061 0.814 4.378 0.829 6.47 0h2.108l3.758 3.766h-21.889c-0.504-0.008-0.907-0.418-0.907-0.914zM19.525 18.758c0.008 0 0.008 0 0 0v0zM19.099 27.886c0.085 0.124 0.201 0.364 0.085 0.589s-0.387 0.256-0.535 0.256h-7.872c-0.147 0-0.418-0.031-0.535-0.256s0-0.465 0.085-0.589l0.705-1.054c0.225-0.341 0.418-0.969 0.418-1.371v-1.542h6.539v1.542c0 0.403 0.194 1.038 0.418 1.371l0.69 1.054zM30.435 26.933c-0.108 0.108-0.24 0.194-0.372 0.256-0.473 0.201-1.007 0.101-1.371-0.256l-8.050-8.058c-0.008-0.008-0.008-0.008-0.015-0.015l-0.798-0.806c-0.070-0.070-0.155-0.101-0.248-0.101-0.070 0-0.139 0.023-0.194 0.062-3.192 2.146-7.485 1.72-10.204-1.007-3.138-3.146-3.123-8.26 0.023-11.39 1.519-1.511 3.541-2.348 5.679-2.348 0.008 0 0.015 0 0.023 0 2.154 0.008 4.176 0.845 5.695 2.371 2.72 2.735 3.123 7.028 0.961 10.212-0.093 0.139-0.077 0.325 0.039 0.442l8.833 8.895c0.48 0.48 0.48 1.263 0 1.743z"></path>
<path fill="#fff" d="M14.908 4.858c-0.008 0-0.008 0-0.015 0-1.72 0-3.339 0.666-4.556 1.883-1.224 1.216-1.906 2.844-1.906 4.571s0.666 3.347 1.883 4.571 2.836 1.898 4.564 1.906c0.008 0 0.008 0 0.015 0 1.72 0 3.339-0.666 4.564-1.883s1.898-2.844 1.906-4.571-0.666-3.355-1.883-4.571c-1.224-1.224-2.844-1.906-4.571-1.906zM18.96 15.411c-1.085 1.085-2.534 1.674-4.068 1.674-0.008 0-0.008 0-0.015 0-1.542 0-2.983-0.604-4.068-1.697v0c-1.085-1.092-1.681-2.541-1.681-4.076 0-1.542 0.604-2.983 1.697-4.076 1.085-1.085 2.526-1.681 4.060-1.681 0.008 0 0.008 0 0.015 0 1.542 0 2.983 0.604 4.076 1.697 1.085 1.092 1.681 2.534 1.681 4.076s-0.604 2.991-1.697 4.083z"></path>
</svg>
