<!-- Generated by IcoMoon.io -->
<svg version="1.1" xmlns="http://www.w3.org/2000/svg" width="32" height="32" viewBox="0 0 32 32">
<title>flame</title>
<path fill="#fff" d="M27.374 20.874c-0.116-1.929-0.86-3.332-1.658-4.819-0.178-0.325-0.349-0.651-0.527-1-1.131-2.239-1.743-4.936-1.635-7.214 0.023-0.403-0.186-0.783-0.542-0.984s-0.783-0.186-1.123 0.039c-0.442 0.294-0.93 0.798-1.364 1.395-1.348-4.261-3.448-6.803-6.4-7.748-0.372-0.124-0.79-0.023-1.069 0.248-0.287 0.271-0.395 0.682-0.287 1.062 0.721 2.565-0.628 4.471-2.053 6.493l-0.294 0.418c-0.48 0.666-1.007 1.34-1.519 1.984-1.402 1.767-2.851 3.603-3.58 5.803-1 2.983-0.938 6.33 0.155 9.182 1.364 3.549 4.626 5.749 6.873 5.749 1.131 0 1.968-0.597 2.193-1.542 0.232-0.953-0.511-1.511-1.007-1.875-0.473-0.349-1.108-0.821-1.697-1.767-1.782-2.882-0.101-6.090 0.705-7.345 0.248-0.395 0.519-0.736 0.775-1.069 0.395-0.511 0.806-1.038 1.193-1.767 0.093-0.17 0.194-0.38 0.287-0.597 0.015 0.31 0.015 0.628 0.015 0.938 0 0.256 0 0.511 0.008 0.752 0.008 0.217 0.008 0.426 0.008 0.635 0.008 0.697 0.015 1.426 0.147 2.208 0.217 1.286 1.829 3.665 3.154 3.928 0.24 0.047 0.473-0.015 0.651-0.178s0.271-0.403 0.24-0.643c-0.093-0.79-0.155-1.984-0.116-2.355 0.031-0.38 0.116-0.79 0.248-1.232 0.163 0.465 0.356 0.914 0.55 1.364 0.318 0.736 0.612 1.441 0.744 2.115 0.325 1.736-0.403 3.696-1.705 4.649l-0.147 0.101c-0.457 0.31-1.317 0.883-1.325 1.86 0 0.279 0.101 1.65 2.115 1.65 0.775 0 1.612-0.201 1.96-0.325 4.455-1.643 6.245-6.392 6.028-10.111zM21.052 30.218c-0.302 0.108-1.046 0.271-1.674 0.271-1.123 0-1.294-0.519-1.294-0.829 0-0.542 0.573-0.922 0.961-1.178l0.163-0.108c1.557-1.139 2.417-3.44 2.038-5.47-0.139-0.767-0.457-1.503-0.79-2.286s-0.682-1.596-0.837-2.417c-0.031-0.17-0.17-0.302-0.341-0.333-0.178-0.031-0.341 0.062-0.426 0.217-0.054 0.108-0.108 0.217-0.163 0.341-0.341 0.837-0.55 1.619-0.604 2.309-0.039 0.457 0.023 1.643 0.108 2.425-0.899-0.294-2.239-2.193-2.41-3.239-0.124-0.728-0.132-1.418-0.132-2.084 0-0.209-0.008-0.426-0.008-0.643-0.008-0.232-0.008-0.48-0.008-0.736 0-1.046-0.031-2.046-0.31-2.813-0.062-0.17-0.225-0.279-0.418-0.271-0.186 0.015-0.333 0.147-0.372 0.333-0.163 0.814-0.542 1.627-0.759 2.038-0.349 0.659-0.736 1.162-1.116 1.65-0.271 0.349-0.542 0.705-0.814 1.123-0.891 1.379-2.735 4.943-0.713 8.213 0.666 1.077 1.41 1.627 1.906 1.999 0.55 0.403 0.79 0.635 0.697 1.030-0.139 0.581-0.643 0.914-1.395 0.914-1.968 0-4.866-1.999-6.106-5.222-1.030-2.681-1.077-5.819-0.139-8.624 0.69-2.069 2.092-3.843 3.448-5.555 0.519-0.651 1.054-1.325 1.542-2.015l0.294-0.418c1.41-1.991 3.006-4.246 2.177-7.19-0.023-0.085 0-0.186 0.070-0.248 0.046-0.046 0.108-0.070 0.17-0.070 0.023 0 0.054 0.008 0.077 0.016 2.859 0.907 4.858 3.533 6.113 8.035 0.047 0.163 0.178 0.279 0.349 0.294 0.163 0.023 0.325-0.062 0.403-0.201 0.449-0.79 1.093-1.55 1.604-1.891 0.077-0.054 0.178-0.054 0.263-0.008s0.132 0.139 0.124 0.232c-0.116 2.417 0.527 5.261 1.72 7.624 0.178 0.349 0.356 0.682 0.535 1.023 0.752 1.402 1.457 2.72 1.557 4.471 0.209 3.417-1.426 7.787-5.493 9.29z"></path>
</svg>
