<!-- Generated by IcoMoon.io -->
<svg version="1.1" xmlns="http://www.w3.org/2000/svg" width="32" height="32" viewBox="0 0 32 32">
<title>flight-delay</title>
<path fill="#fff" d="M14.195 14.419c0.046-0.015 0.085-0.046 0.124-0.077h0.008l5.594-5.594c0.155-0.155 0.155-0.395 0-0.55s-0.395-0.155-0.55 0l-5.486 5.486h-5.439c-0.217 0-0.387 0.17-0.387 0.387s0.17 0.387 0.387 0.387h5.602c0.054-0.008 0.101-0.023 0.147-0.039z"></path>
<path fill="#fff" d="M31.496 15.38c0.008-0.372-0.132-0.721-0.395-0.984-0.256-0.256-0.597-0.395-0.953-0.395v0c-0.38 0-0.736 0.147-1 0.418l-1.705 1.705c0.101-0.674 0.155-1.364 0.155-2.061-0.008-7.477-6.082-13.552-13.552-13.552s-13.544 6.075-13.544 13.544 6.075 13.544 13.544 13.544c0.697 0 1.379-0.054 2.038-0.155l1.387 0.573 0.837 2.022c0.201 0.488 0.713 0.759 1.24 0.666 0.504-0.093 0.86-0.488 0.883-0.984 0-0.031 0-0.031-0.155-2.565l3.394-3.394 2.487 7.454c0.054 0.155 0.186 0.256 0.349 0.263 0.031 0 0.054 0 0.077 0 0.38 0 0.721-0.139 0.984-0.403 0.279-0.279 0.418-0.659 0.395-1.061l-0.527-10.026 3.642-3.642c0.263-0.256 0.411-0.604 0.418-0.969zM1.278 14.055c0-7.043 5.726-12.769 12.769-12.769s12.769 5.726 12.769 12.769c0 1.054-0.132 2.077-0.38 3.061l-0.945 0.945-10.026-0.527c-0.403-0.023-0.783 0.116-1.062 0.395s-0.418 0.659-0.395 1.061c0.008 0.163 0.116 0.294 0.263 0.349l7.454 2.487-3.394 3.394c-2.503-0.155-2.518-0.163-2.557-0.155-0.504 0.023-0.907 0.38-0.992 0.883-0.054 0.31 0.015 0.604 0.178 0.845-0.302 0.023-0.612 0.039-0.922 0.039-7.028-0.008-12.761-5.734-12.761-12.777zM30.528 15.806l-3.766 3.766c-0.077 0.077-0.116 0.186-0.116 0.294l0.535 10.197c0.008 0.186-0.047 0.349-0.17 0.473-0.062 0.062-0.139 0.108-0.225 0.139l-2.588-7.756c-0.039-0.132-0.147-0.225-0.279-0.256-0.031-0.008-0.062-0.008-0.093-0.008-0.101 0-0.201 0.039-0.279 0.116l-3.944 3.959c-0.077 0.077-0.116 0.186-0.116 0.302 0 0 0.163 2.611 0.17 2.65-0.008 0.194-0.155 0.248-0.24 0.263-0.132 0.023-0.31-0.015-0.387-0.201l-0.899-2.169c-0.039-0.093-0.116-0.17-0.209-0.209l-2.169-0.899c-0.186-0.077-0.225-0.256-0.201-0.387 0.015-0.085 0.070-0.232 0.225-0.24 0.070 0.008 2.689 0.17 2.689 0.17 0.116 0.008 0.217-0.031 0.302-0.116l3.959-3.959c0.093-0.093 0.132-0.232 0.101-0.364s-0.124-0.24-0.256-0.279l-7.756-2.588c0.031-0.085 0.077-0.163 0.139-0.225 0.116-0.116 0.287-0.178 0.473-0.17l10.197 0.535c0.108 0.008 0.217-0.039 0.294-0.116l3.766-3.766c0.124-0.124 0.287-0.194 0.449-0.194v0c0.155 0 0.302 0.062 0.411 0.17s0.17 0.256 0.163 0.418c0.008 0.17-0.062 0.325-0.178 0.449z"></path>
</svg>
