<!-- Generated by IcoMoon.io -->
<svg version="1.1" xmlns="http://www.w3.org/2000/svg" width="32" height="32" viewBox="0 0 32 32">
<title>food</title>
<path fill="#fff" d="M9.747 11.955v5.951c0 0.426 0.31 0.744 0.744 0.744h12.537c0.411 0 0.744-0.333 0.744-0.744v-5.958c1.705-0.682 2.828-2.309 2.828-4.114 0-1.278-0.558-2.495-1.526-3.332-0.922-0.798-2.131-1.185-3.355-1.069-1.007-1.782-2.929-2.929-4.959-2.929-2.038 0-3.921 1.116-4.959 2.929-1.216-0.108-2.425 0.279-3.347 1.077-0.976 0.845-1.534 2.061-1.534 3.332 0 1.852 1.123 3.479 2.828 4.114zM8.895 5.013c0.697-0.604 1.581-0.93 2.495-0.93 0.178 0 0.364 0.016 0.55 0.039 0.147 0.023 0.279-0.054 0.349-0.178 0.891-1.712 2.603-2.774 4.471-2.774 1.86 0 3.611 1.085 4.471 2.766 0.062 0.132 0.201 0.201 0.349 0.178 1.108-0.163 2.224 0.163 3.053 0.883 0.821 0.713 1.294 1.743 1.294 2.828 0 1.596-1.046 3.030-2.603 3.564-0.139 0.046-0.225 0.178-0.225 0.318v6.191c0 0.054-0.054 0.070-0.070 0.070h-12.537c-0.054 0-0.070-0.008-0.070-0.070v-6.191c0-0.147-0.093-0.279-0.24-0.325-1.55-0.48-2.596-1.914-2.596-3.556 0.008-1.062 0.48-2.092 1.309-2.813z"></path>
<path fill="#fff" d="M11.421 16.411h10.669c0.186 0 0.341-0.147 0.341-0.341 0-0.186-0.155-0.341-0.341-0.341h-10.669c-0.186 0-0.341 0.147-0.341 0.341 0.008 0.186 0.155 0.341 0.341 0.341z"></path>
<path fill="#fff" d="M8.631 22.268c0.070 0.070 0.155 0.101 0.24 0.101s0.17-0.031 0.232-0.093c0.132-0.132 0.139-0.341 0.008-0.48l-2.704-2.805c-0.132-0.132-0.341-0.139-0.48-0.008-0.132 0.132-0.139 0.341-0.008 0.48l2.712 2.805z"></path>
<path fill="#fff" d="M27.7 17.65c-0.302-0.116-0.659-0.031-0.907 0.232l-5.191 5.362c-0.008 0.008-0.008 0.008-0.015 0.015l-1.565 1.619c-0.008 0.008-0.015 0.023-0.023 0.031-0.047 0.039-0.085 0.077-0.132 0.116l-3.146 3.254-3.797-3.928c-0.488-0.504-1.085-0.465-1.534-0.194l-0.62-0.643c0.341-0.434 0.535-0.953 0.542-1.511 0.015-0.674-0.24-1.309-0.705-1.79l-3.146-3.262c-0.132-0.132-0.341-0.139-0.48-0.008-0.132 0.132-0.139 0.341-0.008 0.48l3.146 3.262c0.341 0.356 0.527 0.821 0.519 1.309-0.008 0.496-0.209 0.953-0.566 1.294-0.728 0.705-1.898 0.682-2.603-0.047l-3.138-3.254c-0.132-0.132-0.341-0.139-0.48-0.008-0.132 0.132-0.139 0.341-0.008 0.48l3.146 3.262c0.496 0.511 1.154 0.767 1.813 0.767 0.527 0 1.046-0.163 1.488-0.488l0.612 0.635c-0.333 0.496-0.294 1.085 0.147 1.542l4.757 4.928c0.31 0.318 0.628 0.395 0.876 0.395 0.015 0 0.023 0 0.039 0s0.023 0 0.039 0c0.248 0 0.566-0.077 0.876-0.395l4.107-4.254c0.519-0.535 0.488-1.263-0.070-1.805-0.163-0.155-0.349-0.271-0.55-0.333l0.775-0.806c1.565 0.736 3.386-0.070 4.455-1.185 1.271-1.317 1.906-2.681 1.883-4.060 0-0.705-0.341-0.938-0.535-1.015zM11.591 24.856c0.070-0.062 0.24-0.209 0.457-0.209 0.124 0 0.256 0.047 0.395 0.186l3.812 3.952-0.496 0.511c-0.155 0.163-0.248 0.325-0.302 0.48l-3.921-4.060c-0.325-0.356-0.147-0.659 0.054-0.86zM21.261 26.375v0l-4.107 4.254c-0.132 0.139-0.279 0.201-0.434 0.186-0.139-0.015-0.294-0.093-0.418-0.209-0.139-0.132-0.217-0.279-0.232-0.418-0.015-0.147 0.039-0.287 0.178-0.434l4.107-4.254c0.124-0.124 0.248-0.186 0.387-0.186 0.015 0 0.031 0 0.039 0 0.139 0.015 0.294 0.085 0.418 0.209 0.217 0.201 0.395 0.511 0.062 0.852zM25.879 22.245c-0.86 0.891-2.255 1.557-3.471 1.131l4.858-5.036c0.062-0.062 0.139-0.085 0.178-0.070s0.116 0.116 0.124 0.395c0.023 1.209-0.527 2.379-1.689 3.58z"></path>
</svg>
