<!-- Generated by IcoMoon.io -->
<svg version="1.1" xmlns="http://www.w3.org/2000/svg" width="32" height="32" viewBox="0 0 32 32">
<title>full-service</title>
<path fill="#fff" d="M4.037 16.008c0 0.209 0.17 0.38 0.38 0.38h22.896c0.209 0 0.38-0.17 0.38-0.38 0-0.085 0.015-0.178 0.023-0.263 0.015-0.116 0.031-0.24 0.031-0.356 0-5.633-4.052-10.352-9.43-11.467 0.093-0.263 0.132-0.535 0.132-0.821 0-1.426-1.162-2.588-2.588-2.588s-2.588 1.162-2.588 2.588c0 0.279 0.046 0.55 0.132 0.821-5.377 1.116-9.43 5.834-9.43 11.467 0 0.116 0.015 0.24 0.031 0.356 0.016 0.085 0.031 0.17 0.031 0.263zM14.024 3.092c0-1.007 0.821-1.829 1.829-1.829s1.836 0.821 1.836 1.829c0 0.232-0.047 0.465-0.139 0.69-0.55-0.077-1.116-0.124-1.697-0.124-0.573 0-1.139 0.046-1.697 0.124-0.077-0.225-0.132-0.457-0.132-0.69zM15.861 4.416c6.137 0 11.126 4.92 11.126 10.964 0 0.085-0.008 0.163-0.023 0.248h-22.206c-0.008-0.085-0.023-0.163-0.023-0.248 0-6.044 4.99-10.964 11.126-10.964z"></path>
<path fill="#fff" d="M7.175 14.319c0.031 0.008 0.054 0.008 0.085 0.008 0.17 0 0.325-0.116 0.364-0.294 0.016-0.070 1.705-6.95 7.469-6.95 0.209 0 0.38-0.17 0.38-0.38s-0.17-0.38-0.38-0.38c-6.369 0-8.19 7.454-8.205 7.531-0.046 0.209 0.085 0.418 0.287 0.465z"></path>
<path fill="#fff" d="M28.095 18.425h-24.19c-0.209 0-0.38 0.17-0.38 0.38s0.17 0.38 0.38 0.38h24.182c0.209 0 0.38-0.17 0.38-0.38s-0.163-0.38-0.372-0.38z"></path>
<path fill="#fff" d="M21.238 19.425l-4.897 3.921c-0.093 0.070-0.201 0.108-0.318 0.124l-4.045 0.403c-0.108 0.008-0.209-0.023-0.287-0.093l-0.442-0.411c-0.132-0.124-0.194-0.302-0.178-0.449l0.628-2.588c0.008-0.023 0.008-0.047 0.008-0.077 0.015-0.449-0.263-0.821-0.697-0.938-0.426-0.116-0.86 0.070-1.077 0.465l-1.464 2.751-0.108 0.225c-0.411 0.876-0.488 1.867-0.209 2.789l0.488 1.604c0.062 0.209-0.039 0.442-0.232 0.535l-2.216 1.046c-0.186 0.085-0.271 0.318-0.178 0.504s0.31 0.271 0.504 0.178l2.216-1.046c0.535-0.256 0.806-0.868 0.635-1.433l-0.488-1.604c-0.225-0.744-0.163-1.542 0.17-2.247l1.55-2.944c0.062-0.116 0.163-0.108 0.209-0.093s0.124 0.054 0.139 0.155l-0.62 2.58c-0.062 0.426 0.085 0.852 0.403 1.139l0.442 0.411c0.232 0.217 0.558 0.333 0.876 0.294l4.045-0.403c0.248-0.023 0.488-0.116 0.705-0.271l4.897-3.921c0.155-0.108 0.271-0.015 0.31 0.031 0.047 0.047 0.132 0.17 0.008 0.31l-4.215 4.587c-0.039 0.039-0.077 0.077-0.124 0.108l-4.3 3.014c-0.132 0.093-0.263 0.201-0.38 0.318l-2.51 2.448c-0.147 0.147-0.155 0.387-0.008 0.535 0.077 0.077 0.17 0.116 0.271 0.116 0.093 0 0.194-0.039 0.263-0.108l2.51-2.448c0.093-0.085 0.186-0.17 0.287-0.24l4.3-3.014c0.093-0.070 0.178-0.139 0.248-0.225l4.215-4.587c0.349-0.395 0.341-0.938-0.008-1.325-0.349-0.38-0.883-0.434-1.325-0.124z"></path>
</svg>
