<!-- Generated by IcoMoon.io -->
<svg version="1.1" xmlns="http://www.w3.org/2000/svg" width="32" height="32" viewBox="0 0 32 32">
<title>gas-pump</title>
<path fill="#fff" d="M20.936 30.59h-16.085c-0.248 0-0.457 0.201-0.457 0.457 0 0.248 0.201 0.457 0.457 0.457h16.085c0.248 0 0.457-0.201 0.457-0.457s-0.201-0.457-0.457-0.457z"></path>
<path fill="#fff" d="M23.43 3.742c-0.225-0.116-0.496-0.031-0.612 0.186-0.116 0.225-0.031 0.496 0.186 0.612 0.023 0.016 1.371 0.752 2.425 2.58-0.62 0.938-0.798 2.1-0.806 2.162-0.31 2.634 0.047 4.579 0.062 4.664 0.039 0.217 0.225 0.372 0.449 0.372h1.472v10.832c-0.015 0.356-0.178 0.69-0.457 0.93-0.279 0.248-0.628 0.372-1.007 0.349-0.651-0.031-1.185-0.519-1.302-1.139l-0.031-0.232c-0.015-0.077-0.008-0.279 0.008-0.473v-5.687c0.062-1.108-0.31-2.115-1.023-2.828-0.542-0.55-1.263-0.938-2.185-1.17-0.031-0.008-0.511-0.085-1.030-0.077v-1.542c0-0.511-0.194-0.976-0.504-1.348 0.767-0.31 1.309-1.046 1.325-1.922l0.984-7.345 0.008-0.062c0-1.162-0.945-2.1-2.1-2.1h-12.444c-1.162 0-2.1 0.945-2.1 2.1l0.992 7.431c0.016 0.868 0.558 1.612 1.325 1.922-0.31 0.364-0.504 0.829-0.504 1.348v13.412c0 1.162 0.945 2.1 2.1 2.1h8.81c1.162 0 2.1-0.945 2.1-2.1v-10.971c0.426-0.008 0.845 0.054 0.852 0.054 0.721 0.178 1.302 0.488 1.728 0.922 0.542 0.542 0.806 1.286 0.759 2.169v5.687c-0.015 0.256-0.023 0.48 0.008 0.635l0.031 0.232c0.201 1.069 1.085 1.86 2.154 1.914 0.039 0 0.085 0 0.124 0 0.566 0 1.108-0.201 1.534-0.581 0.457-0.403 0.728-0.961 0.759-1.588v-11.32h-0.008c0.814-7.423-3.882-10.018-4.083-10.127zM6.648 10.003l-0.992-7.423c0.016-0.643 0.542-1.162 1.193-1.162h12.436c0.651 0 1.178 0.519 1.193 1.162l-0.984 7.361-0.008 0.062c0 0.659-0.535 1.193-1.193 1.193h-10.452c-0.659 0-1.193-0.535-1.193-1.193zM18.665 26.708c0 0.659-0.535 1.193-1.193 1.193h-8.81c-0.659 0-1.193-0.535-1.193-1.193v-13.412c0-0.659 0.535-1.193 1.193-1.193h8.81c0.659 0 1.193 0.535 1.193 1.193v13.412zM25.53 9.414c0-0.008 0.101-0.651 0.395-1.294 0.558 1.325 0.914 3.061 0.721 5.3h-1.116c-0.093-0.666-0.217-2.169 0-4.006z"></path>
</svg>
