<!-- Generated by IcoMoon.io -->
<svg version="1.1" xmlns="http://www.w3.org/2000/svg" width="32" height="32" viewBox="0 0 32 32">
<title>gateway</title>
<path fill="#fff" d="M22.632 13.807c-0.17-0.163-0.434-0.163-0.604 0-0.163 0.163-0.163 0.434 0 0.604l2.851 2.851h-23.95c-0.232 0-0.426 0.194-0.426 0.426s0.194 0.426 0.426 0.426h23.957l-2.851 2.851c-0.163 0.163-0.163 0.434 0 0.604 0.085 0.085 0.194 0.124 0.302 0.124s0.217-0.039 0.302-0.124l3.58-3.58c0.163-0.163 0.163-0.434 0-0.604l-3.587-3.58z"></path>
<path fill="#fff" d="M20.92 3.363c-0.015-0.008-0.023-0.008-0.039-0.015-0.876-0.356-1.79-0.542-2.72-0.542-4.773 0-9.065 4.765-11.483 12.754-0.070 0.225 0.062 0.465 0.287 0.527 0.225 0.070 0.465-0.062 0.527-0.287 2.262-7.492 6.354-12.149 10.669-12.149 0.496 0 0.984 0.062 1.457 0.178-3.223 1.836-6.005 6.028-7.717 11.731-0.070 0.225 0.062 0.465 0.287 0.527 0.039 0.015 0.085 0.015 0.124 0.015 0.186 0 0.349-0.116 0.411-0.302 1.782-5.92 4.711-10.135 8.043-11.599 5.641 2.41 9.879 12.513 9.879 24.569 0 0.232 0.194 0.426 0.426 0.426s0.426-0.194 0.426-0.426c0-12.475-4.54-22.919-10.576-25.406z"></path>
<path fill="#fff" d="M11.429 19.254c-0.232-0.047-0.457 0.108-0.496 0.341-0.573 2.975-0.86 6.059-0.86 9.151 0 0.232 0.194 0.426 0.426 0.426s0.426-0.194 0.426-0.426c0-3.045 0.287-6.067 0.845-8.996 0.046-0.232-0.108-0.449-0.341-0.496z"></path>
<path fill="#fff" d="M6.199 19.254c-0.232-0.047-0.457 0.108-0.496 0.333-0.573 2.983-0.868 6.075-0.868 9.182 0 0.232 0.194 0.426 0.426 0.426s0.426-0.194 0.426-0.426c0-3.053 0.287-6.090 0.852-9.019 0.046-0.232-0.108-0.449-0.341-0.496z"></path>
</svg>
