<!-- Generated by IcoMoon.io -->
<svg version="1.1" xmlns="http://www.w3.org/2000/svg" width="32" height="32" viewBox="0 0 32 32">
<title>gears</title>
<path fill="#fff" d="M20.354 19.711l-1.34-0.217c-0.566-0.093-1.007-0.163-1.24-0.201-0.023-0.047-0.047-0.116-0.077-0.217-0.093-0.279-0.271-0.713-0.403-0.984-0.047-0.093-0.085-0.178-0.116-0.248 0.132-0.194 0.364-0.542 0.674-0.992l0.814-1.162c0.132-0.186 0.108-0.442-0.054-0.612l-1.705-1.705c-0.163-0.163-0.426-0.186-0.612-0.046l-1.154 0.829c-0.442 0.318-0.775 0.55-0.969 0.682-0.070-0.031-0.155-0.077-0.24-0.116-0.271-0.139-0.705-0.318-1-0.411-0.101-0.031-0.17-0.062-0.217-0.077-0.039-0.225-0.116-0.659-0.201-1.131-0.085-0.48-0.217-1.232-0.24-1.333-0.108-0.504-0.356-0.504-1.697-0.504h-1.201c-0.232 0-0.434 0.17-0.473 0.403l-0.217 1.34c-0.093 0.573-0.163 1-0.201 1.216-0.046 0.015-0.101 0.039-0.178 0.062-0.271 0.085-0.721 0.263-1.023 0.411l-0.263 0.124-2.1-1.495c-0.186-0.132-0.449-0.116-0.612 0.054l-1.705 1.705c-0.163 0.163-0.186 0.418-0.054 0.612l1.48 2.115-0.17 0.364c-0.147 0.318-0.349 0.79-0.418 1.023-0.008 0.031-0.015 0.062-0.023 0.085-0.643 0.116-2.262 0.395-2.394 0.411-0.511 0.008-0.511 0.364-0.511 1.689 0 1.379 0 1.588 0.504 1.705 0.093 0.023 0.767 0.139 1.34 0.24 0.465 0.077 0.845 0.147 1.054 0.186 0.008 0.031 0.023 0.062 0.031 0.101 0.070 0.256 0.271 0.728 0.418 1.030 0.070 0.147 0.124 0.271 0.155 0.356-0.147 0.209-0.411 0.581-0.705 0.984l-0.79 1.1c-0.132 0.186-0.116 0.449 0.054 0.612l1.705 1.705c0.163 0.163 0.418 0.186 0.612 0.054l1.162-0.814c0.434-0.302 0.775-0.535 0.969-0.666 0.046 0.023 0.101 0.054 0.155 0.077 0.225 0.116 0.659 0.302 0.992 0.411 0.116 0.039 0.217 0.077 0.302 0.108 0.116 0.62 0.387 2.224 0.411 2.433 0.015 0.488 0.349 0.488 1.681 0.488 1.294 0 1.565 0 1.689-0.442 0.031-0.101 0.155-0.783 0.248-1.34 0.085-0.473 0.163-0.914 0.201-1.139 0.031-0.008 0.070-0.023 0.116-0.039 0.24-0.070 0.682-0.256 1-0.411 0.139-0.070 0.256-0.124 0.341-0.163 0.186 0.124 0.527 0.356 0.984 0.674l1.154 0.814c0.186 0.132 0.449 0.108 0.612-0.054l1.712-1.72c0.163-0.163 0.186-0.426 0.047-0.612l-0.829-1.147c-0.31-0.434-0.55-0.775-0.682-0.969 0.031-0.062 0.062-0.132 0.101-0.209 0.132-0.256 0.302-0.682 0.403-0.976 0.039-0.108 0.070-0.194 0.093-0.263 0.209-0.039 0.589-0.116 1.085-0.194 0.132-0.023 1.271-0.217 1.402-0.248 0.496-0.116 0.496-0.356 0.496-1.689v-1.201c0.015-0.217-0.147-0.418-0.38-0.457zM19.804 21.385c0 0.356 0 0.628 0 0.814-0.24 0.039-0.628 0.108-1.1 0.186-1.317 0.225-1.395 0.263-1.457 0.294-0.108 0.054-0.248 0.132-0.465 0.806-0.077 0.248-0.24 0.628-0.341 0.837-0.263 0.519-0.263 0.589-0.263 0.682 0 0.17 0 0.201 0.922 1.48l0.597 0.821-1.139 1.147-0.829-0.589c-1.278-0.907-1.317-0.907-1.488-0.907-0.093 0-0.163 0-0.806 0.31-0.302 0.147-0.682 0.302-0.86 0.356-0.279 0.085-0.659 0.201-0.744 0.589-0.023 0.101-0.17 0.914-0.24 1.333-0.077 0.449-0.139 0.775-0.178 0.984-0.217 0.008-0.558 0.008-0.829 0.008-0.325 0-0.597-0.008-0.783-0.008-0.108-0.814-0.356-2.51-0.604-2.689-0.070-0.054-0.077-0.062-0.705-0.271-0.279-0.093-0.674-0.256-0.852-0.356-0.48-0.256-0.542-0.256-0.635-0.256-0.178 0-0.194 0-1.48 0.899l-0.837 0.589-1.139-1.139 0.558-0.775c0.132-0.186 0.806-1.123 0.852-1.201 0.124-0.201 0.116-0.403-0.217-1.108-0.155-0.325-0.318-0.728-0.356-0.883-0.155-0.55-0.356-0.674-0.519-0.721-0.116-0.031-1.201-0.217-1.317-0.24-0.411-0.070-0.798-0.139-1.046-0.186-0.008-0.178-0.008-0.465-0.008-0.821 0-0.325 0.008-0.597 0.008-0.79 0.821-0.101 2.534-0.349 2.704-0.635 0.039-0.062 0.054-0.077 0.17-0.496 0.046-0.147 0.201-0.55 0.364-0.891l0.287-0.612c0.070-0.155 0.054-0.333-0.039-0.473l-1.41-2.015 1.116-1.123 2.015 1.426c0.139 0.101 0.325 0.116 0.48 0.039l0.519-0.248c0.263-0.124 0.666-0.294 0.891-0.356 0.496-0.155 0.721-0.31 0.783-0.55 0.031-0.101 0.17-0.976 0.248-1.488l0.147-0.945h0.798c0.349 0 0.628 0 0.814 0.008 0.046 0.24 0.108 0.635 0.178 1.046 0.008 0.046 0.209 1.209 0.24 1.325 0.085 0.38 0.473 0.511 0.821 0.62 0.24 0.077 0.635 0.24 0.868 0.356 0.558 0.279 0.612 0.279 0.713 0.279 0.178 0 0.194 0 1.48-0.922l0.829-0.597 1.139 1.139-0.589 0.837c-0.899 1.286-0.899 1.325-0.899 1.495 0 0.085 0 0.17 0.271 0.713 0.116 0.225 0.271 0.62 0.349 0.852 0.147 0.457 0.294 0.736 0.581 0.806 0.101 0.031 0.976 0.17 1.488 0.256l0.945 0.147v0.814z"></path>
<path fill="#fff" d="M12.451 18.255c-0.635-0.356-1.1-0.473-1.844-0.473-0.535 0-0.775 0.031-1.108 0.147-1.154 0.403-1.976 1.224-2.371 2.371-0.209 0.612-0.217 1.557-0.008 2.185 0.442 1.348 1.495 2.27 2.882 2.534 0.132 0.023 0.302 0.039 0.488 0.039 0.426 0 0.922-0.062 1.24-0.17 1.495-0.504 2.541-1.929 2.541-3.479 0.008-1.232-0.759-2.565-1.821-3.154zM11.429 23.988v0c-0.31 0.101-0.961 0.155-1.255 0.101-1.038-0.194-1.829-0.883-2.154-1.898-0.139-0.434-0.139-1.17 0-1.581 0.302-0.883 0.907-1.48 1.79-1.79 0.217-0.077 0.349-0.101 0.798-0.101 0.581 0 0.891 0.077 1.379 0.356 0.767 0.426 1.34 1.433 1.34 2.332 0 1.147-0.783 2.208-1.898 2.58z"></path>
<path fill="#fff" d="M31.256 10.034c-0.023-0.015-0.194-0.124-0.449-0.279l-1.201-0.744v-1.162l0.682-0.426c0.504-0.318 0.945-0.589 0.969-0.612 0.116-0.077 0.201-0.209 0.217-0.349 0.039-0.318-0.643-1.96-0.798-2.123-0.186-0.194-0.287-0.232-1.573 0.070l-0.814 0.194-0.829-0.829 0.194-0.845c0.318-1.379 0.318-1.379 0.093-1.573v0c-0.302-0.201-1.759-0.767-1.774-0.775-0.504-0.194-0.697 0.132-1.294 1.093l-0.442 0.721-1.178-0.008-0.434-0.705c-0.604-0.969-0.62-0.984-0.659-1.023-0.085-0.093-0.209-0.147-0.333-0.155v0c-0.24 0-1.929 0.713-2.061 0.837-0.194 0.186-0.225 0.279 0.062 1.581l0.178 0.798c-0.163 0.139-0.411 0.387-0.566 0.542-0.116 0.116-0.217 0.209-0.287 0.271-0.178-0.039-0.488-0.108-0.876-0.201-1.054-0.256-1.054-0.256-1.123-0.256-0.194 0-0.364 0.116-0.442 0.294l-0.736 1.767c-0.077 0.186-0.031 0.403 0.116 0.535 0.039 0.031 0.046 0.039 1 0.666l0.705 0.457-0.008 1.17-0.69 0.426c-0.961 0.589-0.992 0.628-1.030 0.666-0.256 0.256-0.17 0.496 0.24 1.464 0.349 0.829 0.465 1.108 0.837 1.108 0.054 0 0.116 0 1.209-0.24l0.783-0.17 0.821 0.829-0.194 0.814c-0.302 1.278-0.256 1.387-0.062 1.573 0.054 0.054 0.116 0.108 0.969 0.473 0.86 0.364 0.93 0.364 1.015 0.372 0.256 0.008 0.349-0.031 1.061-1.154l0.457-0.721 1.17-0.008 0.449 0.721c0.682 1.092 0.752 1.162 1.038 1.162h0.008c0.093 0 0.209-0.008 1.093-0.387 0.883-0.387 1.093-0.473 1.1-0.829 0-0.054 0-0.116-0.256-1.232l-0.178-0.783 0.008-0.008c0.31-0.263 0.511-0.473 0.783-0.783l0.015-0.015 0.829 0.186c1.294 0.294 1.426 0.279 1.619 0.046 0.116-0.139 0.829-1.79 0.783-2.115-0.023-0.132-0.101-0.256-0.217-0.325zM30.055 11.669c-0.178-0.031-0.442-0.085-0.767-0.155l-1.108-0.248c-0.17-0.039-0.349 0.023-0.465 0.155l-0.201 0.232c-0.232 0.271-0.403 0.442-0.682 0.682l-0.232 0.201c-0.132 0.116-0.194 0.294-0.155 0.465l0.248 1.062c0.070 0.31 0.132 0.573 0.17 0.767-0.287 0.132-0.721 0.318-1.007 0.434-0.101-0.147-0.24-0.364-0.411-0.635l-0.589-0.945c-0.085-0.139-0.24-0.225-0.403-0.225v0l-1.689 0.008c-0.163 0-0.31 0.085-0.395 0.217l-0.597 0.938c-0.17 0.271-0.318 0.48-0.418 0.628-0.132-0.054-0.302-0.124-0.496-0.201v0c-0.209-0.085-0.38-0.163-0.504-0.225 0.031-0.178 0.085-0.426 0.155-0.728l0.248-1.069c0.039-0.163-0.008-0.325-0.124-0.442l-1.193-1.201c-0.116-0.116-0.279-0.163-0.442-0.132l-1.038 0.232c-0.318 0.070-0.573 0.124-0.752 0.163-0.132-0.287-0.318-0.736-0.426-1.030 0.155-0.101 0.38-0.232 0.643-0.403l0.914-0.558c0.139-0.085 0.225-0.24 0.225-0.403l0.008-1.697c0-0.163-0.077-0.31-0.217-0.403l-0.922-0.597c-0.232-0.147-0.442-0.287-0.612-0.395l0.434-1.030c0.17 0.039 0.387 0.093 0.62 0.147 1.054 0.256 1.154 0.256 1.201 0.256 0.132 0 0.294 0 0.86-0.581 0.263-0.263 0.488-0.473 0.535-0.511l0.163-0.124c0.147-0.108 0.217-0.302 0.178-0.48l-0.24-1.092c-0.070-0.318-0.116-0.573-0.147-0.752 0.279-0.124 0.721-0.302 1.015-0.418 0.101 0.163 0.24 0.387 0.387 0.628l0.573 0.93c0.085 0.139 0.24 0.225 0.403 0.225l1.705 0.015c0.163 0 0.325-0.085 0.411-0.225l0.589-0.945c0.124-0.201 0.271-0.442 0.38-0.604 0.279 0.116 0.721 0.294 1.023 0.426-0.039 0.178-0.093 0.418-0.163 0.721l-0.248 1.1c-0.039 0.163 0.008 0.325 0.124 0.442l1.201 1.201c0.116 0.116 0.287 0.163 0.442 0.124l1.069-0.248c0.31-0.070 0.558-0.124 0.736-0.155 0.116 0.279 0.294 0.728 0.395 1.023-0.17 0.108-0.411 0.256-0.666 0.418l-0.907 0.566c-0.139 0.085-0.225 0.24-0.225 0.403v1.689c0 0.163 0.085 0.318 0.225 0.403l1.426 0.883c0.047 0.031 0.093 0.062 0.139 0.085-0.116 0.263-0.287 0.713-0.403 0.992z"></path>
<path fill="#fff" d="M23.624 5.284c-1.17 0-2.208 0.62-2.758 1.658-0.55 1.030-0.496 2.231 0.155 3.2 0.465 0.697 1.116 1.139 1.929 1.317 0.271 0.062 0.465 0.085 0.666 0.085 0.194 0 0.387-0.031 0.666-0.085 0.961-0.201 1.728-0.814 2.162-1.728 0.248-0.519 0.263-0.635 0.263-1.317 0-0.573-0.023-0.814-0.17-1.178-0.473-1.147-1.666-1.953-2.913-1.953zM25.584 9.329c-0.31 0.643-0.829 1.062-1.503 1.209-0.418 0.093-0.519 0.093-0.93 0-0.573-0.124-1.015-0.426-1.34-0.922-0.449-0.674-0.488-1.503-0.101-2.224s1.108-1.154 1.922-1.154c0.852 0 1.705 0.573 2.022 1.364 0.085 0.209 0.101 0.31 0.101 0.821 0 0.55 0 0.55-0.17 0.907z"></path>
</svg>
