<!-- Generated by IcoMoon.io -->
<svg version="1.1" xmlns="http://www.w3.org/2000/svg" width="32" height="32" viewBox="0 0 32 32">
<title>generic-star-rating</title>
<path fill="#fff" d="M27.297 18.882c0.558-0.535 0.248-1.472-0.519-1.588l-7.035-0.047c-0.263-0.039-0.488-0.201-0.604-0.434l-2.293-6.64c-0.349-0.69-1.34-0.69-1.689 0l-2.293 6.64c-0.116 0.232-0.341 0.395-0.604 0.434l-7.035 0.047c-0.775 0.108-1.085 1.046-0.519 1.588l5.617 4.262c0.186 0.178 0.271 0.442 0.232 0.697l-2.053 6.563c-0.132 0.759 0.674 1.34 1.364 0.984l5.765-3.905c0.232-0.124 0.511-0.124 0.744 0l5.765 3.897c0.69 0.356 1.495-0.217 1.364-0.984l-2.053-6.563c-0.047-0.256 0.039-0.519 0.232-0.697l5.617-4.254z"></path>
<path fill="#fff" d="M9.383 3.316c0.039 0.039 0.054 0.085 0.046 0.132l-0.395 1.263c-0.023 0.147 0.132 0.256 0.263 0.186l1.108-0.752c0.046-0.023 0.101-0.023 0.147 0l1.108 0.752c0.132 0.070 0.287-0.039 0.263-0.186l-0.395-1.263c-0.008-0.046 0.008-0.101 0.046-0.132l1.085-0.821c0.108-0.101 0.046-0.287-0.101-0.31l-1.356-0.008c-0.046-0.008-0.093-0.039-0.116-0.085l-0.442-1.278c-0.070-0.132-0.256-0.132-0.325 0l-0.449 1.278c-0.023 0.046-0.070 0.077-0.116 0.085l-1.356 0.008c-0.147 0.023-0.209 0.201-0.101 0.302l1.085 0.829z"></path>
<path fill="#fff" d="M15.016 3.316c0.039 0.039 0.054 0.085 0.046 0.132l-0.395 1.263c-0.023 0.147 0.132 0.256 0.263 0.186l1.116-0.752c0.047-0.023 0.101-0.023 0.147 0l1.108 0.752c0.132 0.070 0.287-0.039 0.263-0.186l-0.395-1.263c-0.008-0.046 0.008-0.101 0.047-0.132l1.085-0.821c0.108-0.101 0.047-0.287-0.101-0.31l-1.356-0.008c-0.047-0.008-0.093-0.039-0.116-0.085l-0.442-1.278c-0.070-0.132-0.256-0.132-0.325 0l-0.457 1.278c-0.023 0.046-0.070 0.077-0.116 0.085l-1.356 0.008c-0.147 0.023-0.209 0.201-0.101 0.302l1.085 0.829z"></path>
<path fill="#fff" d="M20.207 3.448l-0.38 1.232c-0.023 0.147 0.031 0.294 0.155 0.387s0.287 0.101 0.442 0.016l1.061-0.721 1.085 0.728c0.062 0.031 0.124 0.046 0.186 0.046 0.085 0 0.163-0.023 0.24-0.077 0.124-0.093 0.186-0.24 0.147-0.418l-0.38-1.201 1.054-0.798c0.108-0.108 0.147-0.263 0.101-0.411s-0.17-0.248-0.356-0.271l-1.286-0.008-0.418-1.224-0.008-0.015c-0.139-0.271-0.573-0.302-0.728 0.023l-0.418 1.216-1.325 0.008c-0.155 0.023-0.279 0.124-0.325 0.271s-0.008 0.302 0.124 0.426l1.030 0.79zM20.796 2.394c0.124-0.015 0.225-0.093 0.294-0.225l0.403-1.154 0.411 1.185c0.054 0.108 0.163 0.186 0.31 0.201l1.216 0.008-0.992 0.752c-0.085 0.085-0.132 0.209-0.101 0.356l0.356 1.139-1.023-0.69c-0.054-0.023-0.108-0.039-0.163-0.039-0.062 0-0.132 0.015-0.201 0.054l-1.007 0.682 0.364-1.162c0.023-0.124-0.015-0.24-0.124-0.349l-0.984-0.752 1.24-0.008z"></path>
</svg>
