<!-- Generated by IcoMoon.io -->
<svg version="1.1" xmlns="http://www.w3.org/2000/svg" width="32" height="32" viewBox="0 0 32 32">
<title>globe-01</title>
<path fill="#fff" d="M16 0.504c-8.546 0-15.496 6.95-15.496 15.496s6.95 15.496 15.496 15.496 15.496-6.95 15.496-15.496-6.95-15.496-15.496-15.496zM12.877 1.65l0.783 1.984c0.085 0.225 0.101 0.473 0.031 0.705l-1.449 4.905c-0.031 0.101-0.093 0.194-0.186 0.248l-3.804 2.534c-0.17 0.116-0.232 0.333-0.139 0.519l1.356 2.712c0.070 0.147 0.217 0.225 0.387 0.225 0.163-0.008 0.302-0.116 0.356-0.263 0.008-0.015 0.457-1.24 1.278-1.573 0.294-0.124 0.597-0.108 0.938 0.039 0.721 0.635 2.665 2.51 3.053 2.882 0.046 0.047 0.077 0.108 0.093 0.17l0.566 2.82c0.031 0.139 0.015 0.287-0.047 0.418l-4.323 10.080c-0.705-0.217-1.395-0.48-2.053-0.79l0.488-6.346c0.023-0.341-0.093-0.682-0.333-0.93l-2.061-2.169c-0.124-0.132-0.178-0.31-0.155-0.488l0.535-3.51c0.023-0.132-0.023-0.256-0.116-0.349l-3.092-3.061c-0.256-0.256-0.635-0.349-0.984-0.248l-1.271 0.38-0.093-2.611c1.898-4.161 5.679-7.283 10.243-8.283zM1.317 16c0-1.418 0.209-2.797 0.589-4.099l0.046 1.185c0.008 0.124 0.070 0.24 0.17 0.318 0.101 0.070 0.232 0.093 0.349 0.062l1.767-0.527c0.062-0.023 0.132 0 0.178 0.046l2.944 2.913-0.504 3.308c-0.062 0.426 0.070 0.86 0.372 1.17l2.061 2.169c0.077 0.085 0.116 0.194 0.108 0.31l-0.465 6.013c-4.54-2.503-7.616-7.338-7.616-12.87zM12.56 30.272l4.277-9.972c0.124-0.287 0.155-0.597 0.093-0.899l-0.566-2.82c-0.047-0.232-0.155-0.434-0.325-0.597-0.566-0.542-2.448-2.355-3.13-2.952-0.031-0.023-0.062-0.046-0.093-0.062-0.566-0.271-1.123-0.294-1.643-0.077-0.62 0.256-1.062 0.806-1.348 1.278l-0.829-1.658 3.502-2.332c0.248-0.163 0.426-0.411 0.511-0.697l1.449-4.905c0.116-0.403 0.101-0.845-0.054-1.232l-0.721-1.844c0.752-0.116 1.526-0.186 2.309-0.186 1.178 0 2.317 0.139 3.409 0.403l-1.247 2.107c-0.271 0.457-0.194 1.038 0.178 1.418l0.039 0.039c0.217 0.225 0.511 0.341 0.829 0.341h1.72c0.139 0 0.263-0.070 0.341-0.178l0.426-0.612 0.395 0.473-0.612 0.201c-0.062 0.023-0.116 0.054-0.163 0.101l-0.969 0.969c-0.178 0.178-0.263 0.442-0.225 0.697s0.201 0.473 0.434 0.589l0.643 0.318-0.411 0.015c-0.519 0-0.945 0.426-0.945 0.945v0.325c0 0.465 0.294 0.883 0.744 1.030l1 0.333c0.504 0.17 1.069-0.023 1.364-0.473l0.302-0.449c0.015-0.023 0.031-0.054 0.039-0.085 0-0.008 0.372-0.961 1.046-1.271 0.263-0.116 0.542-0.124 0.845 0 1.069 0.411 1.751 2.239 1.984 2.991l-5.478 0.31c-0.907 0.054-1.666 0.674-1.891 1.557-0.116 0.473-0.209 0.883-0.263 1.224-0.163 0.969 0.341 1.937 1.224 2.355l3.324 1.573c0.256 0.124 0.403 0.395 0.364 0.674l-1.24 9.553c-2.123 1.201-4.579 1.891-7.198 1.891-1.185 0-2.34-0.147-3.44-0.411zM24.089 28.242l1.154-8.903c0.085-0.635-0.248-1.24-0.829-1.511l-3.324-1.573c-0.558-0.263-0.876-0.876-0.775-1.488 0.054-0.318 0.139-0.713 0.256-1.162 0.132-0.535 0.597-0.914 1.147-0.945l5.625-0.318c0.217-0.015 0.411-0.124 0.535-0.294 0.124-0.178 0.155-0.395 0.101-0.597-0.341-1.139-1.116-3.123-2.518-3.657-0.511-0.194-1.007-0.186-1.472 0.023-0.891 0.403-1.356 1.441-1.449 1.674l-0.279 0.418c-0.093 0.139-0.271 0.201-0.434 0.147l-1-0.333c-0.108-0.039-0.186-0.139-0.186-0.256v-0.325c0-0.070 0.062-0.132 0.132-0.132h0.814c0.225 0 0.403-0.178 0.403-0.403v-0.674c0-0.155-0.085-0.294-0.225-0.364l-0.86-0.411 0.899-0.899 0.519-0.17c0.271-0.093 0.473-0.31 0.542-0.581 0.070-0.279 0-0.566-0.194-0.775l-0.403-0.442c-0.17-0.186-0.418-0.287-0.674-0.263s-0.48 0.155-0.62 0.364l-0.287 0.434h-1.495c-0.093 0-0.186-0.039-0.256-0.101l-0.039-0.039c-0.116-0.116-0.132-0.287-0.054-0.426l1.379-2.324c6.044 1.821 10.46 7.431 10.46 14.063 0 5.106-2.619 9.616-6.594 12.242z"></path>
</svg>
