<!-- Generated by IcoMoon.io -->
<svg version="1.1" xmlns="http://www.w3.org/2000/svg" width="32" height="32" viewBox="0 0 32 32">
<title>globe-02</title>
<path fill="#fff" d="M17.697 3.549c-0.395-1.736-1.953-3.045-3.804-3.045-2.154 0-3.905 1.751-3.905 3.905 0 0.116 0.015 0.248 0.031 0.38-4.75 2.255-8.050 7.082-8.050 12.676 0 7.733 6.292 14.032 14.032 14.032s14.032-6.292 14.032-14.032c0-7.159-5.393-13.079-12.335-13.916zM13.893 1.309c1.705 0 3.099 1.387 3.099 3.099 0 1.108-1.503 3.843-3.099 6.237-1.588-2.394-3.099-5.129-3.099-6.237 0-1.705 1.387-3.099 3.099-3.099zM2.704 17.464c0-1.286 0.186-2.526 0.527-3.704l0.046 1.069c0.008 0.116 0.062 0.217 0.155 0.287s0.209 0.085 0.318 0.054l1.604-0.473c0.062-0.015 0.124 0 0.163 0.039l2.665 2.642-0.457 2.991c-0.062 0.387 0.062 0.775 0.333 1.061l1.867 1.96c0.070 0.077 0.108 0.178 0.101 0.279l-0.418 5.439c-4.114-2.262-6.904-6.632-6.904-11.646zM12.885 30.388l3.874-9.027c0.108-0.256 0.139-0.542 0.085-0.814l-0.511-2.549c-0.039-0.209-0.147-0.395-0.294-0.542-0.659-0.635-2.239-2.154-2.828-2.673-0.023-0.023-0.054-0.039-0.085-0.054-0.511-0.24-1.015-0.263-1.488-0.070-0.558 0.232-0.961 0.728-1.216 1.154l-0.752-1.503 3.169-2.115c0.17-0.116 0.217-0.341 0.101-0.511s-0.341-0.217-0.511-0.101l-3.44 2.293c-0.155 0.101-0.209 0.302-0.124 0.473l1.224 2.456c0.062 0.132 0.201 0.209 0.349 0.201s0.271-0.101 0.325-0.24c0.008-0.008 0.411-1.123 1.154-1.426 0.263-0.108 0.542-0.101 0.845 0.039 0.628 0.55 2.27 2.131 2.766 2.611 0.046 0.039 0.070 0.093 0.085 0.155l0.511 2.549c0.023 0.132 0.015 0.263-0.039 0.38l-3.921 9.12c-0.643-0.194-1.263-0.434-1.852-0.713l0.442-5.749c0.023-0.31-0.085-0.62-0.302-0.845l-1.867-1.96c-0.116-0.116-0.163-0.279-0.139-0.442l0.488-3.177c0.015-0.116-0.023-0.232-0.108-0.318l-2.797-2.774c-0.232-0.232-0.573-0.318-0.891-0.225l-1.139 0.341-0.101-2.348c1.286-2.82 3.525-5.106 6.307-6.462 0.697 2.131 2.851 5.346 3.355 6.075 0.077 0.108 0.201 0.178 0.333 0.178s0.256-0.070 0.333-0.178c0.597-0.868 3.572-5.315 3.572-7.183 0-0.039-0.008-0.077-0.008-0.108 0.442 0.062 0.868 0.139 1.294 0.24l-1.131 1.914c-0.248 0.411-0.178 0.938 0.163 1.278l0.031 0.031c0.194 0.194 0.473 0.31 0.752 0.31h1.55c0.124 0 0.24-0.062 0.302-0.163l0.387-0.558 0.356 0.434-0.55 0.186c-0.054 0.016-0.101 0.046-0.147 0.093l-0.876 0.876c-0.163 0.163-0.24 0.395-0.201 0.628s0.186 0.426 0.395 0.535l0.581 0.287-0.372 0.015c-0.473 0-0.852 0.38-0.852 0.852v0.294c0 0.426 0.271 0.798 0.674 0.93l0.907 0.302c0.457 0.155 0.969-0.023 1.232-0.426l0.271-0.411c0.015-0.023 0.031-0.046 0.039-0.077 0-0.008 0.333-0.868 0.945-1.147 0.24-0.108 0.488-0.108 0.767 0 0.969 0.372 1.581 2.030 1.798 2.704l-4.959 0.279c-0.821 0.046-1.511 0.612-1.712 1.41-0.108 0.426-0.186 0.798-0.24 1.108-0.147 0.876 0.31 1.751 1.108 2.131l3.006 1.418c0.232 0.108 0.364 0.356 0.333 0.612l-1.123 8.647c-1.929 1.093-4.153 1.712-6.524 1.712-1.069 0.008-2.107-0.124-3.107-0.364zM23.33 28.552l1.046-8.058c0.077-0.573-0.225-1.123-0.752-1.371l-3.006-1.418c-0.504-0.24-0.798-0.79-0.697-1.348 0.047-0.294 0.124-0.651 0.232-1.054 0.124-0.488 0.542-0.829 1.038-0.86l5.091-0.287c0.194-0.008 0.372-0.108 0.48-0.271 0.108-0.155 0.139-0.356 0.085-0.542-0.302-1.030-1.007-2.828-2.278-3.308-0.465-0.178-0.914-0.17-1.333 0.023-0.806 0.364-1.224 1.302-1.309 1.519l-0.248 0.38c-0.085 0.124-0.248 0.186-0.387 0.132l-0.907-0.302c-0.101-0.031-0.17-0.124-0.17-0.232v-0.294c0-0.062 0.054-0.116 0.116-0.116h0.736c0.201 0 0.364-0.163 0.364-0.364v-0.612c0-0.139-0.077-0.263-0.201-0.325l-0.783-0.372 0.814-0.814 0.473-0.155c0.248-0.077 0.426-0.279 0.496-0.527 0.062-0.248 0-0.511-0.178-0.705l-0.364-0.395c-0.155-0.17-0.38-0.256-0.604-0.24-0.232 0.016-0.434 0.139-0.566 0.333l-0.263 0.387h-1.356c-0.085 0-0.17-0.031-0.225-0.093l-0.031-0.031c-0.101-0.101-0.124-0.263-0.047-0.387l1.24-2.092c5.47 1.65 9.468 6.733 9.468 12.73-0.008 4.61-2.386 8.693-5.974 11.072z"></path>
<path fill="#fff" d="M15.186 3.642c0-0.713-0.581-1.294-1.294-1.294s-1.294 0.581-1.294 1.294 0.581 1.294 1.294 1.294 1.294-0.581 1.294-1.294zM13.404 3.642c0-0.271 0.217-0.488 0.488-0.488s0.488 0.217 0.488 0.488-0.217 0.488-0.488 0.488-0.488-0.217-0.488-0.488z"></path>
</svg>
