<!-- Generated by IcoMoon.io -->
<svg version="1.1" xmlns="http://www.w3.org/2000/svg" width="32" height="32" viewBox="0 0 32 32">
<title>gloves</title>
<path fill="#fff" d="M26.181 3.107c-0.248 0-0.473 0.070-0.674 0.17v-0.225c0-0.806-0.659-1.464-1.464-1.464-0.256 0-0.488 0.070-0.697 0.186-0.093-0.713-0.705-1.271-1.441-1.271-0.744 0-1.348 0.558-1.441 1.271-0.209-0.116-0.442-0.186-0.697-0.186-0.806 0-1.464 0.659-1.464 1.464v4.478c-0.294-0.535-0.852-0.868-1.464-0.868-0.922 0-1.674 0.752-1.674 1.674 0 0.294 0.077 0.589 0.232 0.845 1.263 2.177 1.937 4.641 1.937 7.128v8.081c0 0.217 0.178 0.395 0.395 0.395h2.627c0.101 0 0.201-0.039 0.279-0.116l1.86-1.86 1.759 1.767c0.077 0.070 0.17 0.116 0.279 0.116h2.72c0.217 0 0.395-0.178 0.395-0.395v-19.727c-0.008-0.806-0.659-1.464-1.464-1.464zM26.855 23.903h-2.169l-1.922-1.929c-0.155-0.155-0.403-0.155-0.558 0l-2.022 2.022h-2.069v-7.733c-0.008-2.611-0.713-5.199-2.038-7.485-0.077-0.132-0.124-0.287-0.124-0.449 0-0.488 0.395-0.883 0.883-0.883 0.333 0 0.635 0.186 0.79 0.488 0.256 0.48 0.48 0.984 0.674 1.495v2.038c0 0.217 0.178 0.395 0.395 0.395s0.395-0.178 0.395-0.395v-8.415c0-0.372 0.302-0.674 0.674-0.674s0.674 0.302 0.674 0.674v7.028c0 0.217 0.178 0.395 0.395 0.395s0.395-0.178 0.395-0.395v-8.112c0-0.372 0.302-0.674 0.674-0.674s0.674 0.302 0.674 0.674v8.12c0 0.217 0.178 0.395 0.395 0.395s0.395-0.178 0.395-0.395v-7.035c0-0.372 0.302-0.674 0.674-0.674s0.674 0.302 0.674 0.674v7.028c0 0.217 0.178 0.395 0.395 0.395s0.395-0.178 0.395-0.395v-5.509c0-0.372 0.302-0.674 0.674-0.674s0.674 0.302 0.674 0.674v19.332z"></path>
<path fill="#fff" d="M15.155 13.381c-0.612 0-1.17 0.333-1.464 0.868v-4.486c0-0.806-0.659-1.464-1.464-1.464-0.256 0-0.488 0.070-0.697 0.186-0.093-0.713-0.705-1.271-1.441-1.271-0.744 0-1.348 0.558-1.441 1.271-0.209-0.116-0.442-0.186-0.697-0.186-0.806 0-1.464 0.659-1.464 1.464v0.225c-0.201-0.108-0.434-0.17-0.674-0.17-0.806 0-1.464 0.659-1.464 1.464v19.727c0 0.217 0.178 0.395 0.395 0.395h2.72c0.101 0 0.201-0.039 0.279-0.116l1.759-1.767 1.86 1.86c0.077 0.070 0.17 0.116 0.279 0.116h2.627c0.217 0 0.395-0.178 0.395-0.395v-8.081c0-2.487 0.666-4.951 1.937-7.128 0.147-0.256 0.232-0.55 0.232-0.845 0-0.922-0.752-1.666-1.674-1.666zM15.923 15.496c-1.325 2.278-2.038 4.866-2.038 7.485v7.733h-2.069l-2.022-2.022c-0.077-0.070-0.17-0.116-0.279-0.116s-0.201 0.039-0.279 0.116l-1.922 1.929h-2.17v-19.339c0-0.372 0.302-0.674 0.674-0.674s0.674 0.302 0.674 0.674v5.517c0 0.217 0.178 0.395 0.395 0.395s0.395-0.178 0.395-0.395v-7.035c0-0.372 0.302-0.674 0.674-0.674s0.674 0.302 0.674 0.674v7.028c0 0.217 0.178 0.395 0.395 0.395s0.395-0.178 0.395-0.395v-8.112c0-0.372 0.302-0.674 0.674-0.674s0.674 0.302 0.674 0.674v8.12c0 0.217 0.178 0.395 0.395 0.395s0.395-0.178 0.395-0.395v-7.035c0-0.372 0.302-0.674 0.674-0.674s0.674 0.302 0.674 0.674v8.415c0 0.217 0.178 0.395 0.395 0.395s0.395-0.178 0.395-0.395v-2.030c0.194-0.511 0.418-1.015 0.674-1.503 0.155-0.294 0.457-0.48 0.79-0.48 0.488 0 0.883 0.395 0.883 0.883 0 0.163-0.046 0.318-0.124 0.449z"></path>
</svg>
