<!-- Generated by IcoMoon.io -->
<svg version="1.1" xmlns="http://www.w3.org/2000/svg" width="32" height="32" viewBox="0 0 32 32">
<title>go-to-next</title>
<path fill="#fff" d="M7.307 10.964c-0.163-0.17-0.426-0.178-0.597-0.023l-4.819 4.478c-0.17 0.163-0.271 0.372-0.271 0.589 0 0.225 0.093 0.434 0.263 0.589l4.827 4.478c0.077 0.077 0.186 0.116 0.287 0.116 0.116 0 0.225-0.047 0.31-0.132 0.163-0.17 0.147-0.442-0.023-0.597l-4.788-4.447 4.788-4.455c0.17-0.155 0.186-0.426 0.023-0.597z"></path>
<path fill="#fff" d="M13.226 10.964c-0.163-0.17-0.426-0.178-0.597-0.023l-4.827 4.478c-0.17 0.163-0.271 0.372-0.271 0.589 0 0.225 0.093 0.434 0.263 0.589l4.835 4.478c0.077 0.077 0.186 0.116 0.287 0.116 0.116 0 0.225-0.047 0.31-0.132 0.163-0.17 0.147-0.442-0.023-0.597l-4.788-4.447 4.788-4.447c0.17-0.163 0.178-0.434 0.023-0.604z"></path>
<path fill="#fff" d="M0.93 10.809c-0.232 0-0.426 0.186-0.426 0.426v9.437c0 0.232 0.186 0.426 0.426 0.426s0.426-0.186 0.426-0.426v-9.437c-0.008-0.232-0.194-0.426-0.426-0.426z"></path>
<path fill="#fff" d="M25.29 10.94c-0.17-0.155-0.442-0.147-0.597 0.023-0.163 0.17-0.147 0.442 0.023 0.597l4.788 4.447-4.788 4.447c-0.17 0.163-0.178 0.426-0.023 0.597 0.085 0.093 0.194 0.132 0.31 0.132 0.101 0 0.209-0.039 0.287-0.116l4.819-4.478c0.17-0.163 0.271-0.372 0.271-0.589 0-0.225-0.093-0.434-0.263-0.589l-4.827-4.471z"></path>
<path fill="#fff" d="M19.37 10.94c-0.17-0.155-0.442-0.147-0.597 0.023-0.163 0.17-0.147 0.442 0.023 0.597l4.788 4.447-4.788 4.447c-0.17 0.163-0.178 0.426-0.023 0.597 0.085 0.093 0.194 0.132 0.31 0.132 0.101 0 0.209-0.039 0.287-0.116l4.819-4.478c0.17-0.163 0.263-0.372 0.263-0.589 0-0.225-0.093-0.434-0.263-0.589l-4.819-4.471z"></path>
<path fill="#fff" d="M31.070 10.809c-0.232 0-0.426 0.186-0.426 0.426v9.437c0 0.232 0.186 0.426 0.426 0.426s0.426-0.186 0.426-0.426v-9.437c0-0.232-0.186-0.426-0.426-0.426z"></path>
</svg>
