<!-- Generated by IcoMoon.io -->
<svg version="1.1" xmlns="http://www.w3.org/2000/svg" width="32" height="32" viewBox="0 0 32 32">
<title>google+</title>
<path fill="#fff" d="M30.629 13.056h-4.176v-4.184c0-0.558-0.457-1.007-1.007-1.007h-1.302c-0.558 0-1.015 0.457-1.015 1.007v4.184h-4.176c-0.558 0-1.007 0.457-1.007 1.015v1.302c0 0.558 0.449 1.015 1.007 1.015h4.176v4.184c0 0.558 0.457 1.007 1.015 1.007h1.302c0.558 0 1.007-0.457 1.007-1.007v-4.184h4.176c0.558 0 1.007-0.457 1.007-1.015v-1.302c0.008-0.566-0.449-1.015-1.007-1.015zM30.884 15.365c0 0.139-0.108 0.256-0.248 0.256h-4.556c-0.209 0-0.38 0.17-0.38 0.38v4.564c0 0.139-0.108 0.248-0.248 0.248h-1.302c-0.139 0-0.248-0.116-0.248-0.248v-4.564c0-0.209-0.17-0.38-0.38-0.38h-4.556c-0.139 0-0.248-0.116-0.248-0.256v-1.302c0-0.139 0.108-0.256 0.248-0.256h4.556c0.209 0 0.38-0.17 0.38-0.38v-4.564c0-0.139 0.116-0.248 0.248-0.248h1.302c0.139 0 0.248 0.116 0.248 0.248v4.564c0 0.209 0.17 0.38 0.38 0.38h4.556c0.139 0 0.248 0.116 0.248 0.256v1.302z"></path>
<path fill="#fff" d="M15.535 17.123c-0.922-0.651-1.604-1.488-1.689-1.705 0-0.403 0.031-0.589 1.154-1.464 1.712-1.34 2.65-3.115 2.65-4.99 0-1.364-0.341-2.627-0.961-3.634 0.178-0.016 0.356-0.085 0.504-0.186l1.79-1.309c0.364-0.256 0.511-0.713 0.372-1.131s-0.519-0.697-0.961-0.697h-8.019c-0.922 0-1.852 0.163-2.774 0.473-3.068 1.062-5.215 3.704-5.215 6.431 0 3.665 2.758 6.524 6.477 6.818-0.023 0.17-0.031 0.333-0.031 0.496 0 0.426 0.077 0.837 0.225 1.232-3.525 0.155-6.648 1.945-7.88 4.579-0.341 0.728-0.519 1.472-0.519 2.208 0 0.721 0.186 1.418 0.55 2.076 0.821 1.472 2.565 2.611 4.897 3.2 1.185 0.302 2.456 0.457 3.773 0.457 1.185 0 2.324-0.155 3.386-0.465 3.347-0.969 5.509-3.463 5.509-6.338-0.015-2.704-0.914-4.401-3.239-6.051zM13.040 28.785c-0.992 0.287-2.053 0.434-3.177 0.434-1.255 0-2.464-0.147-3.587-0.434v0c-2.131-0.535-3.704-1.542-4.416-2.828-0.302-0.542-0.449-1.116-0.449-1.712 0-0.628 0.147-1.255 0.449-1.883 1.17-2.495 4.246-4.153 7.678-4.153 0.031 0 0.070 0 0.101 0 0.132-0.008 0.263-0.070 0.333-0.186s0.070-0.263 0-0.38c-0.256-0.449-0.387-0.914-0.387-1.41 0-0.24 0.031-0.496 0.101-0.759 0.031-0.108 0.008-0.232-0.062-0.325s-0.178-0.147-0.294-0.147c-3.525-0.085-6.183-2.696-6.183-6.082 0-2.402 1.937-4.75 4.711-5.71 0.837-0.287 1.681-0.434 2.518-0.434h8.019c0.108 0 0.201 0.070 0.24 0.178 0.031 0.101 0 0.217-0.093 0.279l-1.79 1.302c-0.039 0.031-0.093 0.046-0.147 0.046h-0.643c-0.147 0-0.279 0.085-0.341 0.217s-0.039 0.294 0.054 0.403c0.79 0.953 1.232 2.286 1.232 3.766 0 1.643-0.837 3.2-2.355 4.393-1.255 0.984-1.449 1.348-1.441 2.123 0.031 0.566 1.201 1.705 2.007 2.278 2.146 1.519 2.906 2.944 2.906 5.424-0.023 2.526-1.968 4.726-4.982 5.602z"></path>
<path fill="#fff" d="M10.708 13.676c0.752 0 1.418-0.302 1.922-0.876 0.744-0.845 1.069-2.208 0.883-3.649-0.333-2.557-2.193-4.68-4.145-4.742h-0.085c-0.744 0-1.395 0.302-1.898 0.876-0.736 0.837-1.046 2.139-0.86 3.572v0c0.333 2.557 2.231 4.757 4.145 4.812 0.008 0.008 0.039 0.008 0.039 0.008zM7.283 8.763v0c-0.163-1.224 0.085-2.309 0.674-2.975 0.349-0.403 0.814-0.612 1.317-0.612h0.070c1.588 0.046 3.123 1.875 3.409 4.076 0.163 1.224-0.101 2.363-0.697 3.053-0.356 0.411-0.806 0.612-1.364 0.612-1.534-0.046-3.13-1.991-3.409-4.153z"></path>
<path fill="#fff" d="M12.211 19.735c-0.581-0.178-1.201-0.271-1.821-0.279h-0.077c-2.937 0-5.509 1.836-5.509 3.928 0 2.262 2.216 4.045 5.052 4.045 4.618 0 5.586-2.139 5.586-3.928 0-0.256-0.031-0.511-0.093-0.775-0.287-1.1-1.449-2.479-3.138-2.991zM9.856 26.662c-2.402 0-4.285-1.441-4.285-3.285 0-1.658 2.262-3.169 4.742-3.169h0.077c0.558 0.008 1.1 0.085 1.612 0.248 1.581 0.48 2.433 1.728 2.619 2.441 0.046 0.201 0.070 0.403 0.070 0.597-0.015 2.139-1.588 3.169-4.835 3.169z"></path>
</svg>
