<!-- Generated by IcoMoon.io -->
<svg version="1.1" xmlns="http://www.w3.org/2000/svg" width="32" height="32" viewBox="0 0 32 32">
<title>google-adwords</title>
<path fill="#fff" d="M20.819 0.674c-0.077-0.108-0.194-0.17-0.325-0.17h-8.988c-0.17 0-0.318 0.108-0.372 0.263l-10.607 30.202c-0.039 0.124-0.023 0.256 0.054 0.356 0.077 0.108 0.194 0.17 0.325 0.17h5.85c2.022 0 3.828-1.278 4.502-3.184l9.608-27.281c0.047-0.116 0.023-0.256-0.047-0.356zM10.507 28.048c-0.558 1.588-2.069 2.658-3.75 2.658h-5.3l10.328-29.412h8.151l-9.43 26.754z"></path>
<path fill="#fff" d="M31.473 30.97l-9.461-26.824c-0.054-0.155-0.209-0.263-0.372-0.263v0c-0.17 0-0.318 0.108-0.372 0.263l-4.455 12.816c-0.031 0.085-0.031 0.178 0 0.263l3.944 11.126c0.666 1.883 2.464 3.154 4.463 3.154h5.889c0.132 0 0.248-0.062 0.325-0.17 0.062-0.108 0.085-0.248 0.039-0.364zM25.213 30.706c-1.666 0-3.161-1.054-3.711-2.627l-3.897-10.995 4.037-11.615 8.903 25.228-5.331 0.008z"></path>
</svg>
