<!-- Generated by IcoMoon.io -->
<svg version="1.1" xmlns="http://www.w3.org/2000/svg" width="32" height="32" viewBox="0 0 32 32">
<title>green-energy</title>
<path fill="#fff" d="M1.929 8.825h6.315c0.248 0 0.449-0.201 0.449-0.449s-0.201-0.449-0.449-0.449h-1.054v-1.457c0-0.248-0.201-0.449-0.449-0.449s-0.449 0.201-0.449 0.449v1.457h-2.193v-1.457c0-0.248-0.201-0.449-0.449-0.449s-0.449 0.201-0.449 0.449v1.457h-1.271c-0.248 0-0.449 0.201-0.449 0.449s0.201 0.449 0.449 0.449z"></path>
<path fill="#fff" d="M25.275 7.438c-1.402-0.395-4.161-0.194-5.896 1.503-1.666 1.627-2.27 4.052-1.433 5.772 0.062 0.132 0.186 0.217 0.325 0.248 0.139 0.023 0.287-0.015 0.387-0.116 1.038-0.992 4.54-4.432 4.564-4.455 0.178-0.178 0.178-0.457 0-0.635s-0.457-0.178-0.635 0c-0.023 0.023-2.681 2.634-4.045 3.952-0.256-1.185 0.132-2.813 1.457-4.114 1.364-1.333 3.533-1.581 4.765-1.34 0.364 2.076-0.55 3.866-1.557 4.866-1.627 1.619-3.944 1.736-3.952 1.736-0.232 0-0.449 0.194-0.457 0.449 0 0.248 0.194 0.449 0.449 0.457 0.031 0 2.689-0.101 4.595-1.999 1.224-1.216 2.317-3.425 1.743-5.974-0.031-0.178-0.155-0.302-0.31-0.349z"></path>
<path fill="#fff" d="M28.862 4.602c-2.565-4.207-6.935-4.114-7.361-4.099-0.418-0.023-4.502-0.101-7.059 4.099-2.518 4.138-1.488 8.004-1.263 8.732 0.24 0.752 0.728 1.736 1.085 2.448 0.124 0.256 0.24 0.48 0.318 0.659 0.054 0.116 0.124 0.256 0.201 0.411 0.333 0.659 0.845 1.658 0.845 2.696 0 1.162 0.814 5.315 1.247 7.554 0.054 0.294 0.108 0.542 0.147 0.744h-10.011c-0.837 0-1.511-0.682-1.511-1.511v-7.973c0.449-0.163 0.736-0.558 0.736-1.085v-3.293c1.464-0.566 2.464-2.278 2.464-4.308 0-0.248-0.201-0.449-0.449-0.449h-6.323c-0.24 0-0.442 0.186-0.449 0.434-0.085 1.991 0.907 3.735 2.386 4.316v3.301c0 0.442 0.271 0.891 0.736 1.077v7.973c0 1.333 1.085 2.41 2.41 2.41h10.212c0.256 0.721 0.806 1.023 1.271 1.123 0.054 0.302 0.194 0.697 0.519 1.038 0.38 0.395 0.914 0.597 1.581 0.597h2.123c0.666 0 1.201-0.201 1.581-0.597 0.325-0.341 0.465-0.736 0.519-1.038 0.55-0.108 1.224-0.519 1.379-1.557 0.023-0.132 0.108-0.581 0.232-1.201 0.434-2.231 1.247-6.392 1.247-7.554 0-1.030 0.511-2.030 0.845-2.696 0.077-0.155 0.147-0.294 0.201-0.411 0.077-0.178 0.194-0.403 0.318-0.659 0.356-0.713 0.845-1.697 1.085-2.448 0.232-0.728 1.255-4.595-1.263-8.732zM2.379 10.127h5.4c-0.132 1.565-0.961 2.813-2.1 3.099-0.201 0.046-0.341 0.232-0.341 0.434v3.618c0 0.232-0.139 0.263-0.287 0.263-0.225 0-0.287-0.163-0.287-0.263v-3.626c0-0.201-0.139-0.387-0.341-0.434-1.286-0.333-1.968-1.736-2.046-3.092zM29.265 13.063c-0.217 0.682-0.69 1.627-1.030 2.317-0.132 0.263-0.248 0.496-0.333 0.682-0.054 0.108-0.116 0.24-0.186 0.38-0.372 0.736-0.945 1.852-0.945 3.099 0 1.077-0.829 5.331-1.224 7.384-0.124 0.643-0.217 1.108-0.232 1.24-0.124 0.806-0.697 0.837-0.868 0.829-0.124-0.008-0.256 0.039-0.349 0.124s-0.147 0.209-0.139 0.341c0 0.008 0.008 0.496-0.31 0.821-0.201 0.209-0.519 0.318-0.93 0.318h-2.123c-0.411 0-0.728-0.108-0.93-0.318-0.318-0.325-0.31-0.821-0.31-0.821 0.008-0.132-0.047-0.256-0.139-0.341-0.085-0.077-0.194-0.124-0.31-0.124-0.015 0-0.023 0-0.039 0-0.077 0.008-0.736 0.031-0.868-0.829-0.023-0.132-0.108-0.597-0.232-1.24-0.062-0.31-0.132-0.666-0.209-1.061h3.704c0.248 0 0.449-0.201 0.449-0.449s-0.201-0.449-0.449-0.449h-3.874c-0.124-0.674-0.263-1.387-0.38-2.076h6.408c0.248 0 0.449-0.201 0.449-0.449s-0.201-0.449-0.449-0.449h-6.563c-0.178-1.093-0.31-2.022-0.31-2.441 0-1.247-0.566-2.363-0.945-3.099-0.070-0.139-0.139-0.271-0.186-0.38-0.085-0.178-0.201-0.411-0.333-0.682-0.341-0.69-0.814-1.635-1.030-2.317-0.209-0.666-1.147-4.192 1.17-7.996 2.348-3.859 6.106-3.673 6.261-3.665 0.015 0 0.039 0 0.054 0 0.047-0.008 4.207-0.209 6.563 3.665 2.317 3.797 1.387 7.322 1.17 7.988z"></path>
</svg>
