<!-- Generated by IcoMoon.io -->
<svg version="1.1" xmlns="http://www.w3.org/2000/svg" width="32" height="32" viewBox="0 0 32 32">
<title>group</title>
<path fill="#fff" d="M25.755 13.807c1.782 0 3.239-1.449 3.239-3.239s-1.449-3.239-3.239-3.239-3.239 1.449-3.239 3.239 1.449 3.239 3.239 3.239zM25.755 8.159c1.325 0 2.41 1.077 2.41 2.41s-1.077 2.41-2.41 2.41-2.41-1.077-2.41-2.41 1.077-2.41 2.41-2.41z"></path>
<path fill="#fff" d="M27.545 14.001h-3.533c-1.123 0-2.185 0.449-2.952 1.224-0.566-0.201-1.17-0.31-1.79-0.31h-6.485c-0.628 0-1.24 0.108-1.821 0.31-0.721-0.775-1.805-1.232-2.975-1.232h-3.533c-2.216 0-3.952 1.736-3.952 3.944v4.114c0 0.225 0.186 0.411 0.411 0.411s0.411-0.186 0.411-0.411v-4.114c0-1.751 1.371-3.123 3.123-3.123h3.533c0.829 0 1.596 0.279 2.154 0.759-1.689 0.93-2.758 2.658-2.758 4.556v5.594c0 0.225 0.186 0.411 0.411 0.411h16.287c0.225 0 0.411-0.186 0.411-0.411v-5.594c0-1.906-1.007-3.626-2.611-4.533 0.589-0.496 1.34-0.767 2.139-0.767h3.533c1.751 0 3.123 1.371 3.123 3.123v4.114c0 0.225 0.186 0.411 0.411 0.411s0.411-0.186 0.411-0.411v-4.114c0.008-2.216-1.728-3.952-3.944-3.952zM23.663 20.13v5.176h-15.458v-5.176c0-1.759 1.092-3.347 2.797-4.037 0.566-0.232 1.162-0.349 1.782-0.349h6.493c0.612 0 1.193 0.116 1.743 0.341 1.604 0.682 2.642 2.262 2.642 4.045z"></path>
<path fill="#fff" d="M6.253 13.807c1.782 0 3.239-1.449 3.239-3.239s-1.449-3.239-3.239-3.239-3.239 1.449-3.239 3.239 1.449 3.239 3.239 3.239zM6.253 8.159c1.325 0 2.41 1.077 2.41 2.41s-1.077 2.41-2.41 2.41-2.41-1.077-2.41-2.41 1.077-2.41 2.41-2.41z"></path>
<path fill="#fff" d="M15.93 14.357c2.34 0 4.246-1.906 4.246-4.246s-1.906-4.246-4.246-4.246-4.246 1.906-4.246 4.246 1.906 4.246 4.246 4.246zM15.93 6.694c1.883 0 3.417 1.534 3.417 3.417s-1.534 3.417-3.417 3.417-3.417-1.534-3.417-3.417 1.534-3.417 3.417-3.417z"></path>
</svg>
