<!-- Generated by IcoMoon.io -->
<svg version="1.1" xmlns="http://www.w3.org/2000/svg" width="32" height="32" viewBox="0 0 32 32">
<title>ground-handlers-ground-operations</title>
<path fill="#fff" d="M31.341 3.239c-0.101-0.101-0.232-0.155-0.372-0.155h-10.212c-0.139 0-0.271 0.054-0.372 0.155l-1.968 1.968v-1.883l0.442-0.442c0.225-0.225 0.535-0.356 0.852-0.356h0.775c0.287 0 0.519-0.232 0.519-0.519s-0.232-0.519-0.519-0.519h-0.775c-0.604 0-1.162 0.232-1.588 0.659l-16.969 16.969c-0.426 0.426-0.659 0.992-0.659 1.588v0.86c0 0.287 0.232 0.519 0.519 0.519s0.519-0.232 0.519-0.519v-0.86c0-0.325 0.124-0.628 0.356-0.852l1.030-1.030v1.891l-1.798 1.798c-0.101 0.101-0.155 0.232-0.155 0.372v6.439c0 0.139 0.054 0.271 0.155 0.372s0.232 0.155 0.372 0.155v0h3.866c0.38 0.418 0.922 0.682 1.526 0.682s1.147-0.263 1.534-0.682l11.692-0.008c0.38 0.418 0.93 0.69 1.534 0.69 0.612 0 1.154-0.271 1.542-0.69h7.562c0.287 0 0.519-0.232 0.519-0.519v-2.82c0-0.023-0.008-0.047-0.015-0.077 0-0.023 0-0.047-0.008-0.070l-2.479-8.322c-0.070-0.225-0.271-0.372-0.504-0.372h-7.206c-0.139 0-0.271 0.054-0.372 0.155s-0.155 0.232-0.155 0.372v5.865h-9.042l12.521-12.521 6.911 0.008c0.287 0 0.519-0.232 0.519-0.519l0.023-7.376c0.031-0.17-0.023-0.302-0.124-0.403zM17.379 6.253l-6.261 6.268v-1.883l6.261-6.261v1.875zM3.975 17.774l6.098-6.098v1.883l-6.098 6.098c0 0 0-1.883 0-1.883zM6.896 29.466c-0.573 0-1.038-0.465-1.038-1.038s0.465-1.038 1.038-1.038 1.038 0.465 1.038 1.038-0.465 1.038-1.038 1.038zM21.656 29.466c-0.573 0-1.038-0.465-1.038-1.038s0.465-1.038 1.038-1.038 1.038 0.465 1.038 1.038-0.465 1.038-1.038 1.038zM30.427 10.468l-6.609-0.008c-0.139 0-0.271 0.054-0.372 0.155l-13.559 13.559c-0.147 0.147-0.194 0.372-0.116 0.566s0.271 0.325 0.48 0.325h10.816c0.287 0 0.519-0.232 0.519-0.519v-5.865h6.307l2.348 7.872v2.224h-6.532c0.015-0.116 0.039-0.225 0.039-0.349 0-1.147-0.93-2.084-2.084-2.084s-2.084 0.938-2.084 2.084c0 0.116 0.015 0.232 0.039 0.349l-10.669 0.008c0.023-0.116 0.039-0.232 0.039-0.356 0-1.147-0.938-2.084-2.084-2.084s-2.084 0.938-2.084 2.084c0 0.124 0.016 0.24 0.039 0.356h-2.828v-5.695l8.934-8.934c0.008-0.008 0.008-0.008 0.015-0.015l9.995-10.011h9.476l-0.023 6.338z"></path>
<path fill="#fff" d="M24.422 26.809c0.101 0.101 0.232 0.163 0.38 0.163h4.091c0.163 0 0.318-0.077 0.418-0.209s0.132-0.302 0.085-0.457l-1.767-6.168c-0.062-0.225-0.271-0.38-0.504-0.38h-3.665c-0.287 0-0.519 0.232-0.519 0.519l-0.047 4.703c0 0.132 0.047 0.263 0.139 0.364l1.387 1.464zM23.981 20.804h2.758l1.464 5.122h-3.177l-1.085-1.147 0.039-3.975z"></path>
</svg>
