<!-- Generated by IcoMoon.io -->
<svg version="1.1" xmlns="http://www.w3.org/2000/svg" width="32" height="32" viewBox="0 0 32 32">
<title>health-club</title>
<path fill="#fff" d="M16.163 8.198c-2.394 0-4.339 1.945-4.339 4.339s1.945 4.339 4.339 4.339 4.339-1.945 4.339-4.339-1.953-4.339-4.339-4.339zM16.163 15.954c-1.883 0-3.417-1.534-3.417-3.417s1.534-3.417 3.417-3.417 3.417 1.534 3.417 3.417-1.534 3.417-3.417 3.417z"></path>
<path fill="#fff" d="M3.673 2.115h-0.186c-0.597 0-1.085 0.488-1.085 1.085v2.51c0 0.597 0.488 1.085 1.085 1.085h0.186c0.597 0 1.085-0.488 1.085-1.085v-2.51c0-0.597-0.48-1.085-1.085-1.085zM3.835 5.71c0 0.093-0.070 0.163-0.163 0.163h-0.186c-0.093 0-0.163-0.070-0.163-0.163v-2.51c0-0.093 0.070-0.163 0.163-0.163h0.186c0.093 0 0.163 0.070 0.163 0.163v2.51z"></path>
<path fill="#fff" d="M25.375 0.504c-0.814 0-1.472 0.659-1.472 1.472v2.007h-2.921v-0.124c0-0.697-0.566-1.263-1.263-1.263s-1.263 0.566-1.263 1.263v0.124h-4.835v-0.124c0-0.697-0.566-1.263-1.263-1.263s-1.263 0.566-1.263 1.263v0.124h-3.006v-2.007c0-0.814-0.659-1.472-1.472-1.472s-1.472 0.659-1.472 1.472v4.967c0 0.814 0.659 1.472 1.472 1.472s1.472-0.659 1.472-1.472v-2.038h3.006c0.008 0.38 0.186 0.721 0.457 0.953l-4.649 9.251c-0.542 1.085-0.194 2.394 0.829 3.053l1.945 1.24 1.371 11.692c0.031 0.232 0.225 0.411 0.457 0.411h9.213c0.232 0 0.426-0.17 0.457-0.403l1.464-11.684 1.96-1.247c1.015-0.659 1.371-1.968 0.829-3.045l-4.765-9.414c0.194-0.217 0.31-0.496 0.318-0.814h2.921v2.038c0 0.814 0.659 1.472 1.472 1.472s1.472-0.659 1.472-1.472v-4.959c0-0.814-0.659-1.472-1.472-1.472zM6.625 7.485c-0.302 0-0.55-0.248-0.55-0.55v-4.959c0-0.302 0.248-0.55 0.55-0.55s0.55 0.248 0.55 0.55v2.379c-0.008 0.031-0.016 0.054-0.016 0.085s0.016 0.062 0.016 0.085v2.41c0 0.31-0.248 0.55-0.55 0.55zM19.719 3.518c0.186 0 0.341 0.155 0.341 0.341v0.558c0 0.008-0.008 0.016-0.008 0.031 0 0.008 0.008 0.016 0.008 0.031v0.418c0 0.186-0.155 0.341-0.341 0.341s-0.341-0.155-0.341-0.341v-0.434c0-0.008 0-0.008 0-0.008 0-0.008 0-0.008 0-0.008v-0.573c0-0.209 0.155-0.356 0.341-0.356zM12.366 3.518c0.186 0 0.341 0.155 0.341 0.341v0.527c0 0.016-0.008 0.039-0.008 0.054 0 0.023 0.008 0.039 0.008 0.054v0.387c0 0.186-0.155 0.341-0.341 0.341s-0.341-0.155-0.341-0.341v-0.38c0-0.023 0.015-0.046 0.015-0.070s-0.008-0.046-0.015-0.070v-0.519c0-0.178 0.147-0.325 0.341-0.325zM20.316 30.574h-8.399l-1.294-11.041c1.348-0.155 2.851-0.248 4.68-0.279h1.681c1.844 0.031 3.363 0.124 4.719 0.287l-1.387 11.033zM24.105 17.379l-1.999 1.271c-1.464-0.186-3.099-0.294-5.114-0.325h-1.697c-1.999 0.039-3.618 0.139-5.075 0.325l-1.984-1.263c-0.62-0.403-0.837-1.201-0.504-1.86l4.726-9.383c0.651-0.046 1.162-0.581 1.178-1.24h4.835c0.008 0.69 0.573 1.247 1.263 1.247 0.047 0 0.085-0.008 0.124-0.016l4.757 9.391c0.325 0.659 0.108 1.457-0.511 1.852zM25.925 6.935c0 0.302-0.248 0.55-0.55 0.55s-0.55-0.248-0.55-0.55v-4.959c0-0.302 0.248-0.55 0.55-0.55s0.55 0.248 0.55 0.55v4.959z"></path>
<path fill="#fff" d="M28.506 2.115h-0.186c-0.597 0-1.085 0.488-1.085 1.085v2.51c0 0.597 0.488 1.085 1.085 1.085h0.186c0.597 0 1.085-0.488 1.085-1.085v-2.51c0-0.597-0.488-1.085-1.085-1.085zM28.668 5.71c0 0.093-0.070 0.163-0.163 0.163h-0.186c-0.093 0-0.163-0.070-0.163-0.163v-2.51c0-0.093 0.070-0.163 0.163-0.163h0.186c0.093 0 0.163 0.070 0.163 0.163v2.51z"></path>
</svg>
