<!-- Generated by IcoMoon.io -->
<svg version="1.1" xmlns="http://www.w3.org/2000/svg" width="32" height="32" viewBox="0 0 32 32">
<title>heart</title>
<path fill="#fff" d="M16 29.598c-0.364 0-0.721-0.108-1.023-0.318-1.48-1.015-14.474-10.080-14.474-16.969 0-4.781 3.727-9.91 9.275-9.91 3.030 0 5.021 1.379 6.222 2.673 1.201-1.294 3.192-2.673 6.222-2.673 5.548 0 9.275 5.122 9.275 9.91 0 6.888-12.994 15.954-14.474 16.969-0.302 0.209-0.659 0.318-1.023 0.318zM9.778 3.223c-5.060 0-8.461 4.695-8.461 9.089 0 2.65 2.239 6.16 6.47 10.15 3.378 3.184 6.966 5.679 7.647 6.144 0.333 0.225 0.798 0.225 1.131 0 0.682-0.465 4.262-2.96 7.647-6.144 4.23-3.99 6.47-7.5 6.47-10.15 0-4.393-3.401-9.096-8.461-9.096-2.999 0-4.866 1.488-5.912 2.743-0.077 0.093-0.194 0.147-0.31 0.147v0c-0.124 0-0.232-0.054-0.31-0.147-1.046-1.247-2.913-2.735-5.912-2.735z"></path>
</svg>
