<!-- Generated by IcoMoon.io -->
<svg version="1.1" xmlns="http://www.w3.org/2000/svg" width="32" height="32" viewBox="0 0 32 32">
<title>helicopter</title>
<path fill="#fff" d="M31.163 8.298h-1.534c-0.147 0-0.271 0.093-0.318 0.232l-1.441 4.261-8.732 0.938c-0.705-1.906-2.596-3.123-4.897-3.123h-1.666v-1.906c0.225-0.077 0.403-0.248 0.496-0.465h10.569c0.186 0 0.333-0.147 0.333-0.333s-0.147-0.333-0.333-0.333h-10.569c-0.132-0.302-0.434-0.519-0.783-0.519s-0.651 0.217-0.783 0.519h-10.669c-0.186 0-0.333 0.147-0.333 0.333s0.147 0.333 0.333 0.333h10.662c0.077 0.186 0.225 0.333 0.403 0.418v1.945h-1.883c-0.108 0-0.209 0.008-0.318 0.015v0 0c-2.836 0.186-5.571 2.782-6.725 5.486-0.031 0.047-0.054 0.093-0.062 0.147-0.333 0.814-0.519 1.643-0.519 2.402 0 1.991 2.231 3.293 5.695 3.339l-0.527 2.286h-1.395c-0.17 0-0.31-0.139-0.31-0.31 0-0.186-0.147-0.333-0.333-0.333s-0.333 0.147-0.333 0.333c0 0.542 0.442 0.984 0.984 0.984h10.15c0.542 0 0.984-0.442 0.984-0.984 0-0.186-0.147-0.333-0.333-0.333s-0.333 0.147-0.333 0.333c0 0.17-0.139 0.31-0.31 0.31h-1.433l-0.589-2.658c2.216-0.659 4.277-2.177 4.928-4.478l11.32-2.247c0.55-0.108 0.953-0.597 0.953-1.162v-5.114c-0.015-0.17-0.163-0.318-0.349-0.318zM9.368 11.336v4.626h-5.656c1.131-2.363 3.549-4.285 5.656-4.626zM14.195 24.283h-5.951l0.527-2.286h3.053c0.589 0 1.209-0.070 1.821-0.201l0.55 2.487zM30.822 13.745c0 0.24-0.17 0.449-0.411 0.496l-11.46 2.27c-0.155 0-0.294 0.108-0.325 0.256-0.705 2.952-4.029 4.548-6.795 4.548h-3.541c-3.177 0-5.222-1.046-5.222-2.673 0-0.682 0.132-1.364 0.372-2.015h6.268c0.186 0 0.333-0.147 0.333-0.333v-5.029h4.2c2.107 0 3.812 1.147 4.347 2.921 0.047 0.163 0.209 0.256 0.372 0.232 0.015 0 0.023-0.008 0.039-0.008l9.151-0.984c0.132-0.015 0.24-0.101 0.279-0.225l1.433-4.238h0.961v4.781z"></path>
</svg>
