<!-- Generated by IcoMoon.io -->
<svg version="1.1" xmlns="http://www.w3.org/2000/svg" width="32" height="32" viewBox="0 0 32 32">
<title>hotel-02</title>
<path fill="#fff" d="M27.56 6.16h-23.121c-0.186 0-0.341 0.155-0.341 0.341s0.155 0.341 0.341 0.341h2.673v24.314c0 0.186 0.155 0.341 0.341 0.341h6.532c0.186 0 0.341-0.155 0.341-0.341v-8.345h3.277v8.345c0 0.186 0.155 0.341 0.341 0.341h6.609c0.186 0 0.341-0.155 0.341-0.341v-24.314h2.673c0.186 0 0.341-0.155 0.341-0.341-0.008-0.186-0.155-0.341-0.349-0.341zM24.213 30.815h-5.927v-8.345c0-0.186-0.155-0.341-0.341-0.341h-3.959c-0.186 0-0.341 0.155-0.341 0.341v8.345h-5.85v-23.973h16.418v23.973z"></path>
<path fill="#fff" d="M10.29 9.925h2.774c0.186 0 0.341-0.155 0.341-0.341s-0.155-0.341-0.341-0.341h-2.774c-0.186 0-0.341 0.155-0.341 0.341s0.147 0.341 0.341 0.341z"></path>
<path fill="#fff" d="M14.559 9.925h2.774c0.186 0 0.341-0.155 0.341-0.341s-0.155-0.341-0.341-0.341h-2.774c-0.186 0-0.341 0.155-0.341 0.341s0.155 0.341 0.341 0.341z"></path>
<path fill="#fff" d="M18.743 9.925h2.774c0.186 0 0.341-0.155 0.341-0.341s-0.155-0.341-0.341-0.341h-2.774c-0.186 0-0.341 0.155-0.341 0.341s0.155 0.341 0.341 0.341z"></path>
<path fill="#fff" d="M10.29 12.056h2.774c0.186 0 0.341-0.155 0.341-0.341s-0.155-0.341-0.341-0.341h-2.774c-0.186 0-0.341 0.155-0.341 0.341s0.147 0.341 0.341 0.341z"></path>
<path fill="#fff" d="M14.559 12.056h2.774c0.186 0 0.341-0.155 0.341-0.341s-0.155-0.341-0.341-0.341h-2.774c-0.186 0-0.341 0.155-0.341 0.341s0.155 0.341 0.341 0.341z"></path>
<path fill="#fff" d="M18.743 12.056h2.774c0.186 0 0.341-0.155 0.341-0.341s-0.155-0.341-0.341-0.341h-2.774c-0.186 0-0.341 0.155-0.341 0.341s0.155 0.341 0.341 0.341z"></path>
<path fill="#fff" d="M10.29 14.226h2.774c0.186 0 0.341-0.155 0.341-0.341s-0.155-0.341-0.341-0.341h-2.774c-0.186 0-0.341 0.155-0.341 0.341s0.147 0.341 0.341 0.341z"></path>
<path fill="#fff" d="M14.559 14.226h2.774c0.186 0 0.341-0.155 0.341-0.341s-0.155-0.341-0.341-0.341h-2.774c-0.186 0-0.341 0.155-0.341 0.341s0.155 0.341 0.341 0.341z"></path>
<path fill="#fff" d="M18.743 14.226h2.774c0.186 0 0.341-0.155 0.341-0.341s-0.155-0.341-0.341-0.341h-2.774c-0.186 0-0.341 0.155-0.341 0.341s0.155 0.341 0.341 0.341z"></path>
<path fill="#fff" d="M13.001 15.558h-2.774c-0.186 0-0.341 0.155-0.341 0.341s0.155 0.341 0.341 0.341h2.774c0.186 0 0.341-0.155 0.341-0.341s-0.155-0.341-0.341-0.341z"></path>
<path fill="#fff" d="M14.497 16.24h2.774c0.186 0 0.341-0.155 0.341-0.341s-0.155-0.341-0.341-0.341h-2.774c-0.186 0-0.341 0.155-0.341 0.341s0.147 0.341 0.341 0.341z"></path>
<path fill="#fff" d="M18.681 16.24h2.774c0.186 0 0.341-0.155 0.341-0.341s-0.155-0.341-0.341-0.341h-2.774c-0.186 0-0.341 0.155-0.341 0.341s0.155 0.341 0.341 0.341z"></path>
<path fill="#fff" d="M7.353 4.99h0.287c0.070 0 0.108-0.023 0.108-0.116v-1.991h1.984v1.991c0 0.085 0.039 0.116 0.124 0.116h0.287c0.077 0 0.108-0.023 0.108-0.116v-4.2c0-0.093-0.031-0.124-0.108-0.124h-0.287c-0.077 0-0.124 0.023-0.124 0.124v1.728h-1.984v-1.728c0-0.093-0.031-0.124-0.108-0.124h-0.287c-0.077 0-0.124 0.023-0.124 0.124v4.2c0 0.085 0.039 0.116 0.124 0.116z"></path>
<path fill="#fff" d="M12.831 5.052c1.588 0 1.736-1.286 1.736-2.34 0-1.085-0.209-2.208-1.728-2.208-1.534 0-1.705 1.379-1.705 2.208 0 1.054 0.132 2.34 1.697 2.34zM12.831 0.961c0.945 0 1.216 0.659 1.216 1.821 0 1.131-0.256 1.805-1.216 1.805-0.945 0-1.162-0.721-1.162-1.805 0-1.123 0.271-1.821 1.162-1.821z"></path>
<path fill="#fff" d="M15.101 1.038h1.116v3.835c0 0.085 0.039 0.116 0.124 0.116h0.287c0.070 0 0.108-0.023 0.108-0.116v-3.835h1.123c0.085 0 0.124-0.031 0.124-0.116v-0.256c0-0.070-0.031-0.108-0.116-0.108h-2.766c-0.077 0-0.116 0.031-0.116 0.108v0.263c0 0.077 0.031 0.108 0.116 0.108z"></path>
<path fill="#fff" d="M18.727 4.99h2.348c0.077 0 0.116-0.023 0.116-0.108v-0.256c0-0.077-0.023-0.116-0.108-0.116h-1.953v-1.588h1.705c0.077 0 0.116-0.023 0.116-0.108v-0.256c0-0.077-0.031-0.108-0.116-0.108h-1.705v-1.41h1.898c0.085 0 0.124-0.031 0.124-0.116v-0.256c0-0.070-0.031-0.108-0.116-0.108h-2.309c-0.077 0-0.124 0.031-0.124 0.116v4.207c0 0.077 0.039 0.108 0.124 0.108z"></path>
<path fill="#fff" d="M22.106 4.99h2.41c0.077 0 0.108-0.023 0.108-0.108v-0.256c0-0.085-0.023-0.116-0.116-0.116h-2.007v-3.835c0-0.093-0.031-0.124-0.108-0.124h-0.294c-0.070 0-0.116 0.023-0.116 0.124v4.207c0 0.077 0.031 0.108 0.124 0.108z"></path>
</svg>
