<!-- Generated by IcoMoon.io -->
<svg version="1.1" xmlns="http://www.w3.org/2000/svg" width="32" height="32" viewBox="0 0 32 32">
<title>hotel-01</title>
<path fill="#fff" d="M28.885 16.008h-17.402c0.201-0.31 0.318-0.682 0.318-1.077v-1.224c0-1.116-0.907-2.015-2.015-2.015h-5.16c-1.116 0-2.015 0.907-2.015 2.015v1.224c0 0.403 0.124 0.775 0.325 1.085-0.566 0.039-1.077 0.256-1.488 0.597v-9.863c0-0.263-0.209-0.473-0.473-0.473s-0.473 0.209-0.473 0.473v18.503c0 0.263 0.209 0.473 0.473 0.473s0.473-0.209 0.473-0.473v-4.827h29.11v4.827c0 0.263 0.209 0.473 0.473 0.473s0.473-0.209 0.473-0.473v-6.632c-0.008-1.441-1.178-2.611-2.619-2.611zM3.549 13.707c0-0.597 0.48-1.077 1.077-1.077h5.153c0.597 0 1.077 0.48 1.077 1.077v1.224c0 0.597-0.48 1.077-1.077 1.077h-5.153c-0.597 0-1.077-0.48-1.077-1.077 0 0 0-1.224 0-1.224zM1.441 19.487v-0.868c0-0.922 0.752-1.666 1.666-1.666h25.778c0.922 0 1.666 0.752 1.666 1.666v0.868h-29.11z"></path>
</svg>
