<!-- Generated by IcoMoon.io -->
<svg version="1.1" xmlns="http://www.w3.org/2000/svg" width="32" height="32" viewBox="0 0 32 32">
<title>hotel-03</title>
<path fill="#fff" d="M3.866 20.021h24.508c0.217 0 0.387-0.17 0.387-0.387 0-6.795-5.393-12.358-12.126-12.63v-1.271h2.293c0.217 0 0.387-0.17 0.387-0.387s-0.17-0.387-0.387-0.387h-6.013c-0.217 0-0.387 0.17-0.387 0.387s0.17 0.387 0.387 0.387h2.944v1.271c-6.849 0.139-12.382 5.749-12.382 12.637 0 0.209 0.17 0.38 0.387 0.38zM16.116 7.771c6.416 0 11.653 5.114 11.862 11.475h-23.717c0.201-6.361 5.447-11.475 11.855-11.475z"></path>
<path fill="#fff" d="M31.109 24.105c-1.255 0-2.332-0.899-2.549-2.139-0.031-0.186-0.194-0.318-0.38-0.318h-24.368c-0.186 0-0.349 0.132-0.38 0.318-0.217 1.232-1.294 2.131-2.541 2.139-0.217 0-0.387 0.17-0.387 0.387v1.581c0 0.535 0.434 0.969 0.969 0.969h29.056c0.535 0 0.969-0.434 0.969-0.969v-1.581c0-0.209-0.17-0.387-0.387-0.387zM30.722 26.073c0 0.108-0.085 0.194-0.194 0.194h-29.056c-0.108 0-0.194-0.085-0.194-0.194v-1.216c1.348-0.163 2.472-1.123 2.844-2.433h23.74c0.372 1.317 1.503 2.278 2.859 2.433v1.216z"></path>
</svg>
