<!-- Generated by IcoMoon.io -->
<svg version="1.1" xmlns="http://www.w3.org/2000/svg" width="32" height="32" viewBox="0 0 32 32">
<title>hotel-04</title>
<path fill="#fff" d="M16 0.504c-3.556 0-6.454 2.898-6.454 6.454v1.976c0 1.062 0.868 1.929 1.929 1.929s1.929-0.868 1.929-1.929v-1.976c0-1.426 1.162-2.588 2.588-2.588s2.588 1.162 2.588 2.588v5.044c0 1.426-1.162 2.588-2.588 2.588h-2.185c-2.913 0-4.269 2.774-4.269 4.641v11.948c0 0.178 0.147 0.325 0.325 0.325h12.258c0.178 0 0.325-0.147 0.325-0.325v-24.221c0.008-3.556-2.89-6.454-6.447-6.454zM21.803 30.846h-11.607v-11.622c0-1.255 0.914-3.998 3.618-3.998h2.185c1.782 0 3.239-1.449 3.239-3.239v-5.029c0-1.782-1.449-3.239-3.239-3.239s-3.239 1.449-3.239 3.239v1.976c0 0.705-0.573 1.286-1.286 1.286s-1.286-0.573-1.286-1.286v-1.976c0-3.2 2.603-5.803 5.803-5.803s5.803 2.603 5.803 5.803v23.888h0.008z"></path>
<path fill="#fff" d="M19.215 20.742h-6.354c-0.178 0-0.325 0.147-0.325 0.325s0.147 0.325 0.325 0.325h6.354c0.178 0 0.325-0.147 0.325-0.325-0.008-0.178-0.147-0.325-0.325-0.325z"></path>
<path fill="#fff" d="M19.215 23.764h-6.354c-0.178 0-0.325 0.147-0.325 0.325s0.147 0.325 0.325 0.325h6.354c0.178 0 0.325-0.147 0.325-0.325-0.008-0.178-0.147-0.325-0.325-0.325z"></path>
<path fill="#fff" d="M19.215 26.793h-6.354c-0.178 0-0.325 0.147-0.325 0.325s0.147 0.325 0.325 0.325h6.354c0.178 0 0.325-0.147 0.325-0.325-0.008-0.186-0.147-0.325-0.325-0.325z"></path>
</svg>
