<!-- Generated by IcoMoon.io -->
<svg version="1.1" xmlns="http://www.w3.org/2000/svg" width="32" height="32" viewBox="0 0 32 32">
<title>house</title>
<path fill="#fff" d="M31.372 17.41l-3.649-3.649c-0.008-0.008-0.008-0.015-0.015-0.023l-11.39-11.39c-0.008-0.008-0.031-0.023-0.039-0.031-0.039-0.031-0.077-0.054-0.116-0.070-0.008 0-0.015-0.008-0.023-0.008-0.023-0.008-0.047-0.015-0.070-0.015-0.008 0-0.015 0-0.031 0s-0.031-0.008-0.046-0.008c-0.023 0-0.039 0.008-0.062 0.015-0.023 0-0.054 0.008-0.077 0.015s-0.046 0.023-0.070 0.039c-0.023 0.015-0.046 0.015-0.070 0.039-0.008 0.008-0.031 0.023-0.039 0.031l-11.39 11.39c-0.008 0.008-0.008 0.015-0.016 0.023l-3.642 3.642c-0.163 0.163-0.163 0.434 0 0.597 0.085 0.085 0.186 0.124 0.294 0.124s0.217-0.039 0.294-0.124l2.952-2.952v14.311c0 0.232 0.186 0.418 0.418 0.418h6.787c0.232 0 0.418-0.186 0.418-0.418v-8.128c0-0.108 0.085-0.194 0.194-0.194h8.019c0.108 0 0.194 0.085 0.194 0.194v8.128c0 0.232 0.186 0.418 0.418 0.418h6.787c0.232 0 0.418-0.186 0.418-0.418v-14.303l2.952 2.952c0.085 0.085 0.186 0.124 0.294 0.124s0.217-0.039 0.294-0.124c0.17-0.17 0.17-0.434 0.008-0.604zM26.987 28.947h-5.943v-7.702c0-0.573-0.465-1.030-1.030-1.030h-8.019c-0.573 0-1.030 0.465-1.030 1.030v7.702h-5.951v-14.729l10.987-10.987 10.987 10.987v14.729z"></path>
</svg>
