<!-- Generated by IcoMoon.io -->
<svg version="1.1" xmlns="http://www.w3.org/2000/svg" width="32" height="32" viewBox="0 0 32 32">
<title>idea-expertise</title>
<path fill="#fff" d="M15.876 6.485c-0.341-0.016-3.634-0.085-5.695 3.308-2.030 3.339-1.201 6.454-1.015 7.051 0.194 0.604 0.589 1.402 0.876 1.976 0.101 0.209 0.194 0.387 0.256 0.527 0.046 0.101 0.101 0.209 0.163 0.333 0.271 0.535 0.682 1.34 0.682 2.177 0 0.938 0.651 4.293 1.007 6.098 0.101 0.504 0.17 0.86 0.186 0.969 0.124 0.845 0.674 1.17 1.116 1.255 0.046 0.24 0.155 0.566 0.418 0.837 0.31 0.318 0.736 0.48 1.278 0.48h1.712c0.542 0 0.969-0.163 1.278-0.48 0.263-0.271 0.372-0.597 0.418-0.837 0.442-0.093 0.984-0.418 1.116-1.255 0.015-0.108 0.085-0.465 0.186-0.969 0.349-1.805 1.007-5.16 1.007-6.098 0-0.837 0.411-1.643 0.682-2.177 0.062-0.124 0.116-0.232 0.163-0.333 0.062-0.139 0.155-0.325 0.256-0.527 0.287-0.581 0.682-1.371 0.876-1.976 0.186-0.589 1.015-3.711-1.015-7.051-2.076-3.394-5.602-3.324-5.951-3.308zM22.137 16.62c-0.178 0.55-0.558 1.317-0.829 1.875-0.108 0.217-0.201 0.403-0.263 0.55-0.039 0.093-0.093 0.194-0.155 0.31-0.302 0.597-0.759 1.495-0.759 2.503 0 0.868-0.666 4.308-0.992 5.958-0.101 0.519-0.17 0.891-0.186 1-0.101 0.651-0.566 0.674-0.697 0.666-0.101-0.008-0.201 0.031-0.279 0.101s-0.116 0.17-0.116 0.271c0 0.008 0.008 0.403-0.248 0.666-0.163 0.17-0.418 0.256-0.752 0.256h-1.712c-0.333 0-0.589-0.085-0.752-0.256-0.256-0.263-0.248-0.659-0.248-0.659 0.008-0.108-0.039-0.201-0.108-0.279-0.070-0.062-0.155-0.101-0.248-0.101-0.008 0-0.023 0-0.031 0-0.062 0-0.597 0.031-0.697-0.666-0.015-0.108-0.085-0.48-0.186-1-0.046-0.248-0.108-0.542-0.17-0.86h2.983c0.201 0 0.364-0.163 0.364-0.364s-0.163-0.364-0.364-0.364h-3.138c-0.101-0.542-0.209-1.123-0.31-1.674h5.168c0.201 0 0.364-0.163 0.364-0.364s-0.163-0.364-0.364-0.364h-5.292c-0.147-0.883-0.256-1.627-0.256-1.976 0-1.007-0.457-1.906-0.759-2.503-0.062-0.116-0.108-0.217-0.155-0.31-0.070-0.147-0.163-0.333-0.263-0.55-0.279-0.558-0.659-1.317-0.829-1.875-0.17-0.542-0.922-3.386 0.945-6.454 1.891-3.107 4.92-2.968 5.052-2.96 0.015 0 0.031 0 0.046 0 0.031-0.008 3.394-0.17 5.3 2.96 1.867 3.084 1.108 5.927 0.938 6.462z"></path>
<path fill="#fff" d="M6.911 12.048h-2.456c-0.201 0-0.364 0.163-0.364 0.364s0.163 0.364 0.364 0.364h2.464c0.201 0 0.364-0.163 0.364-0.364s-0.17-0.364-0.372-0.364z"></path>
<path fill="#fff" d="M27.545 12.048h-2.464c-0.201 0-0.364 0.163-0.364 0.364s0.163 0.364 0.364 0.364h2.464c0.201 0 0.364-0.163 0.364-0.364s-0.163-0.364-0.364-0.364z"></path>
<path fill="#fff" d="M26.313 6.462c-0.101-0.17-0.325-0.232-0.496-0.132l-2.131 1.232c-0.17 0.101-0.232 0.325-0.132 0.496 0.070 0.116 0.186 0.178 0.318 0.178 0.062 0 0.124-0.015 0.178-0.046l2.131-1.232c0.178-0.101 0.232-0.325 0.132-0.496z"></path>
<path fill="#fff" d="M20.362 4.858c0.054 0.031 0.116 0.046 0.178 0.046 0.124 0 0.248-0.062 0.318-0.178l1.232-2.131c0.101-0.17 0.039-0.395-0.132-0.496s-0.395-0.039-0.496 0.132l-1.232 2.131c-0.101 0.178-0.047 0.395 0.132 0.496z"></path>
<path fill="#fff" d="M16 3.688c0.201 0 0.364-0.163 0.364-0.364v-2.456c0-0.201-0.163-0.364-0.364-0.364s-0.364 0.163-0.364 0.364v2.464c0 0.201 0.163 0.356 0.364 0.356z"></path>
<path fill="#fff" d="M11.142 4.726c0.070 0.116 0.186 0.178 0.318 0.178 0.062 0 0.124-0.016 0.178-0.046 0.17-0.101 0.232-0.325 0.132-0.496l-1.232-2.131c-0.101-0.17-0.325-0.232-0.496-0.132s-0.232 0.325-0.132 0.496l1.232 2.131z"></path>
<path fill="#fff" d="M8.314 7.554l-2.131-1.224c-0.17-0.101-0.395-0.039-0.496 0.132s-0.039 0.395 0.132 0.496l2.131 1.232c0.054 0.031 0.116 0.046 0.178 0.046 0.124 0 0.248-0.062 0.318-0.178 0.101-0.178 0.039-0.403-0.132-0.504z"></path>
</svg>
