<!-- Generated by IcoMoon.io -->
<svg version="1.1" xmlns="http://www.w3.org/2000/svg" width="32" height="32" viewBox="0 0 32 32">
<title>in-policy-out-of-policy</title>
<path fill="#fff" d="M29.304 0.504h-26.685c-1.185 0-2.154 0.953-2.154 2.123v26.754c0 1.17 0.969 2.115 2.154 2.115h26.677c1.185 0 2.154-0.953 2.154-2.115v-26.754c0.008-1.17-0.961-2.123-2.146-2.123zM30.357 29.381c0 0.573-0.473 1.038-1.054 1.038h-26.685c-0.581 0-1.054-0.465-1.054-1.038v-26.754c0-0.573 0.473-1.038 1.054-1.038h26.677c0.581 0 1.054 0.465 1.054 1.038v26.754h0.008z"></path>
<path fill="#fff" d="M20.92 22.299h-7.4c1.867-1.891 4.169-4.331 5.501-5.734v0c1.387-1.488 2.301-2.642 2.301-5.036 0-2.975-1.898-4.486-5.633-4.486-0.938 0-3.030 0.132-4.293 0.628-0.356 0.116-0.558 0.48-0.473 0.829l0.046 0.271c0.039 0.194 0.201 0.643 0.814 0.55 1.278-0.163 3.115-0.302 3.928-0.302 2.968 0 3.572 1.139 3.572 2.859 0 1.519-0.914 2.58-1.86 3.549-0.837 0.876-1.736 1.821-2.603 2.735-1.48 1.565-2.875 3.037-3.727 3.882-0.364 0.364-0.496 0.635-0.496 1.030v0.356c0 0.449 0.31 0.759 0.759 0.759h9.561c0.465 0 0.705-0.333 0.705-0.659v-0.55c0-0.356-0.217-0.682-0.705-0.682z"></path>
</svg>
