<!-- Generated by IcoMoon.io -->
<svg version="1.1" xmlns="http://www.w3.org/2000/svg" width="32" height="32" viewBox="0 0 32 32">
<title>infant</title>
<path fill="#fff" d="M16.093 9.251c2.41 0 4.378-1.96 4.378-4.378s-1.96-4.37-4.378-4.37-4.37 1.96-4.37 4.378 1.96 4.37 4.37 4.37zM16.093 1.348c1.945 0 3.533 1.588 3.533 3.533s-1.588 3.533-3.533 3.533-3.533-1.588-3.533-3.533 1.588-3.533 3.533-3.533z"></path>
<path fill="#fff" d="M14.729 15.69c0-1.418-1.154-2.572-2.572-2.572s-2.572 1.154-2.572 2.572 1.154 2.572 2.572 2.572 2.572-1.154 2.572-2.572zM12.157 17.418c-0.953 0-1.728-0.775-1.728-1.728s0.775-1.728 1.728-1.728 1.728 0.775 1.728 1.728c0.008 0.953-0.767 1.728-1.728 1.728z"></path>
<path fill="#fff" d="M18.689 18.007c-0.984-1.193-2.758-1.364-3.952-0.38l-1.17 0.969c-0.666 0.558-1.038 1.371-1.007 2.247 0.008 0.225 0.194 0.411 0.418 0.411h7.5c0.163 0 0.31-0.093 0.38-0.24s0.047-0.325-0.054-0.449l-2.115-2.557zM13.428 20.409c0.077-0.457 0.318-0.868 0.674-1.162l1.17-0.969c0.837-0.69 2.077-0.566 2.766 0.263l1.542 1.867h-6.152z"></path>
<path fill="#fff" d="M25.228 20.354l-1.798-7.833c-0.325-1.418-1.503-2.41-2.875-2.41h-9.104c-1.371 0-2.549 0.992-2.875 2.41l-1.805 7.833c-0.225 0.992 0 2.015 0.62 2.789 0.527 0.659 1.278 1.054 2.084 1.108l-0.938 6.764c-0.015 0.124 0.023 0.24 0.101 0.333s0.194 0.147 0.318 0.147h14.272c0.124 0 0.232-0.054 0.318-0.139 0.077-0.093 0.116-0.209 0.101-0.325l-0.798-6.818c0.682-0.124 1.309-0.504 1.767-1.077 0.612-0.783 0.837-1.798 0.612-2.782zM23.95 22.609c-0.403 0.511-0.961 0.798-1.573 0.806-0.116 0-0.232 0.054-0.31 0.139-0.077 0.093-0.116 0.209-0.101 0.325l0.798 6.772h-13.319l0.938-6.764c0.015-0.124-0.023-0.24-0.101-0.333s-0.194-0.147-0.318-0.147h-0.31c-0.612 0-1.193-0.287-1.596-0.79-0.465-0.581-0.628-1.34-0.457-2.076l1.798-7.833c0.232-1.030 1.077-1.751 2.053-1.751h9.104c0.976 0 1.821 0.721 2.053 1.751l1.798 7.833c0.163 0.736 0 1.495-0.457 2.069z"></path>
</svg>
