<!-- Generated by IcoMoon.io -->
<svg version="1.1" xmlns="http://www.w3.org/2000/svg" width="32" height="32" viewBox="0 0 32 32">
<title>information</title>
<path fill="#fff" d="M15.985 6.268c-0.411 0-1.1 0.147-1.1 1.131s0.597 1.185 1.1 1.185c0.511 0 1.131-0.209 1.131-1.185 0-0.752-0.38-1.131-1.131-1.131z"></path>
<path fill="#fff" d="M16.364 10.793h-0.697c-0.364 0-0.573 0.209-0.573 0.573v13.792c0 0.364 0.209 0.573 0.573 0.573h0.666c0.132 0 0.55-0.039 0.55-0.573v-13.792c0-0.527-0.395-0.573-0.519-0.573z"></path>
<path fill="#fff" d="M16 0.504c-8.546 0-15.496 6.95-15.496 15.496s6.95 15.496 15.496 15.496 15.496-6.95 15.496-15.496-6.95-15.496-15.496-15.496zM16 30.691c-8.105 0-14.691-6.594-14.691-14.691s6.594-14.691 14.691-14.691 14.691 6.594 14.691 14.691-6.586 14.691-14.691 14.691z"></path>
</svg>
