<!-- Generated by IcoMoon.io -->
<svg version="1.1" xmlns="http://www.w3.org/2000/svg" width="32" height="32" viewBox="0 0 32 32">
<title>innovation</title>
<path fill="#fff" d="M12.087 16.356c0.062 0.124 0.116 0.24 0.155 0.325 0.031 0.062 0.062 0.132 0.101 0.209 0.17 0.325 0.395 0.783 0.395 1.24 0 0.55 0.318 2.247 0.62 3.797 0.062 0.302 0.101 0.527 0.108 0.589 0.077 0.527 0.403 0.806 0.721 0.914 0.046 0.155 0.132 0.333 0.279 0.496 0.163 0.163 0.449 0.364 0.945 0.364h1.054c0.488 0 0.783-0.194 0.945-0.364 0.147-0.155 0.232-0.333 0.279-0.496 0.318-0.108 0.643-0.387 0.721-0.914 0.008-0.062 0.054-0.279 0.108-0.589 0.302-1.55 0.62-3.247 0.62-3.797 0-0.465 0.232-0.914 0.395-1.24 0.039-0.077 0.077-0.147 0.101-0.209 0.039-0.085 0.093-0.194 0.155-0.318 0.178-0.364 0.426-0.86 0.55-1.247 0.116-0.38 0.651-2.386-0.651-4.517-1.317-2.162-3.549-2.154-3.843-2.139-0.279-0.015-2.379-0.015-3.688 2.139-1.302 2.139-0.767 4.138-0.651 4.517 0.155 0.387 0.387 0.86 0.581 1.24zM12.939 11.057c1.092-1.798 2.844-1.72 2.906-1.72 0.015 0 0.039 0 0.054 0 0.077-0.008 1.968-0.085 3.068 1.72 1.1 1.813 0.659 3.479 0.558 3.797-0.101 0.325-0.333 0.783-0.496 1.123-0.070 0.132-0.124 0.248-0.17 0.341-0.023 0.054-0.054 0.116-0.093 0.178-0.194 0.387-0.496 0.969-0.496 1.643 0 0.511-0.426 2.696-0.604 3.626-0.062 0.325-0.108 0.558-0.116 0.628s-0.031 0.225-0.194 0.225v0c-0.124-0.008-0.248 0.039-0.333 0.116-0.093 0.085-0.139 0.209-0.139 0.325 0 0 0 0.163-0.093 0.256-0.062 0.062-0.163 0.093-0.302 0.093h-1.054c-0.139 0-0.248-0.031-0.302-0.093-0.093-0.093-0.093-0.248-0.093-0.248 0.008-0.124-0.046-0.248-0.132-0.333-0.093-0.085-0.209-0.132-0.341-0.124-0.062 0.008-0.163-0.015-0.194-0.225-0.008-0.070-0.054-0.302-0.116-0.628-0.015-0.077-0.031-0.17-0.054-0.271h1.573c0.24 0 0.442-0.194 0.442-0.442 0-0.24-0.194-0.442-0.442-0.442h-1.743c-0.039-0.194-0.077-0.395-0.108-0.597h2.921c0.24 0 0.442-0.194 0.442-0.442s-0.194-0.442-0.442-0.442h-3.076c-0.070-0.449-0.124-0.821-0.124-1 0-0.674-0.294-1.255-0.496-1.643-0.031-0.070-0.062-0.132-0.093-0.178-0.039-0.093-0.101-0.209-0.17-0.349-0.163-0.333-0.395-0.79-0.496-1.116-0.116-0.302-0.558-1.968 0.55-3.781z"></path>
<path fill="#fff" d="M28.823 8.384c0-0.039-0.008-0.077-0.023-0.116-0.008-0.015-0.008-0.031-0.015-0.046-0.023-0.046-0.047-0.085-0.085-0.124 0 0 0 0 0-0.008l-7.462-7.454c-0.039-0.039-0.077-0.062-0.124-0.085-0.015-0.008-0.031-0.008-0.039-0.015-0.039-0.015-0.077-0.023-0.116-0.023-0.008 0-0.015-0.008-0.031-0.008h-14.644c-1.72 0-3.115 1.395-3.115 3.115v24.755c0 1.72 1.395 3.115 3.115 3.115h19.425c1.72 0 3.115-1.395 3.115-3.115v-19.967c0.008-0.008 0-0.015 0-0.023zM21.369 2.007l5.958 5.958h-3.812c-1.185 0-2.146-0.961-2.146-2.146v-3.812zM25.716 30.613h-19.432c-1.232 0-2.231-1-2.231-2.231v-24.763c0-1.232 1-2.231 2.231-2.231h14.195v4.432c0 1.674 1.356 3.030 3.030 3.030h4.432v19.533c0.008 1.232-0.992 2.231-2.224 2.231z"></path>
<path fill="#fff" d="M26.166 25.275c-0.24 0-0.442 0.194-0.442 0.442v1.023h-17.999v-22.625h1c0.24 0 0.442-0.194 0.442-0.442 0-0.24-0.194-0.442-0.442-0.442h-2.875c-0.24 0-0.442 0.194-0.442 0.442 0 0.24 0.194 0.442 0.442 0.442h1v22.625h-1c-0.24 0-0.442 0.194-0.442 0.442s0.194 0.442 0.442 0.442h1v0.969c0 0.24 0.194 0.442 0.442 0.442 0.24 0 0.442-0.194 0.442-0.442v-0.969h17.991v0.969c0 0.24 0.194 0.442 0.442 0.442 0.24 0 0.442-0.194 0.442-0.442v-2.875c0-0.248-0.201-0.442-0.442-0.442z"></path>
</svg>
