<!-- Generated by IcoMoon.io -->
<svg version="1.1" xmlns="http://www.w3.org/2000/svg" width="32" height="32" viewBox="0 0 32 32">
<title>insurance</title>
<path fill="#fff" d="M22.152 10.080l-7.469 10.894-3.324-4.781c-0.132-0.186-0.387-0.232-0.566-0.101-0.186 0.132-0.232 0.38-0.101 0.566l3.665 5.269c0.077 0.108 0.201 0.178 0.333 0.178v0c0.132 0 0.263-0.070 0.333-0.178l7.802-11.39c0.124-0.186 0.077-0.442-0.108-0.566-0.186-0.132-0.442-0.077-0.566 0.108z"></path>
<path fill="#fff" d="M28.707 5.687c0-0.194-0.139-0.364-0.325-0.403-0.132-0.023-0.256-0.039-0.372-0.054-0.101-0.008-0.194-0.023-0.333-0.046l-0.139-0.016c-0.728-0.093-1.48-0.186-2.231-0.364-2.944-0.659-5.858-2.007-8.903-4.114-0.077-0.077-0.209-0.186-0.403-0.186-0.108 0-0.209 0.046-0.287 0.116l-0.008 0.008c-0.031 0.008-0.054 0.023-0.077 0.046-4.2 2.859-7.996 4.324-11.955 4.602-0.217 0.016-0.38 0.201-0.38 0.411l0.225 12.97c-0.015 0.24-0.077 2.355 1.356 4.936 1.356 2.448 4.385 5.803 11.080 7.872 0.039 0.015 0.077 0.015 0.124 0.015 0.039 0 0.077-0.008 0.124-0.015 12.877-3.975 12.451-12.73 12.444-12.792l0.062-12.986zM16.085 30.66c-5.013-1.573-8.624-4.13-10.46-7.407-1.395-2.479-1.286-4.525-1.286-4.556 0-0.008 0-0.023 0-0.031l-0.217-12.606c3.944-0.356 7.733-1.844 11.878-4.657 3.115 2.139 6.098 3.518 9.12 4.2 0.79 0.186 1.565 0.287 2.317 0.38l0.108 0.016c0.124 0.023 0.232 0.039 0.349 0.054l-0.054 12.661c-0.008 0.070 0.387 8.136-11.754 11.948z"></path>
</svg>
