<!-- Generated by IcoMoon.io -->
<svg version="1.1" xmlns="http://www.w3.org/2000/svg" width="32" height="32" viewBox="0 0 32 32">
<title>internet</title>
<path fill="#fff" d="M6.121 4.564c0 0.633-0.513 1.147-1.147 1.147s-1.147-0.513-1.147-1.147c0-0.633 0.513-1.147 1.147-1.147s1.147 0.513 1.147 1.147z"></path>
<path fill="#fff" d="M10.204 4.564c0 0.633-0.513 1.147-1.147 1.147s-1.147-0.513-1.147-1.147c0-0.633 0.513-1.147 1.147-1.147s1.147 0.513 1.147 1.147z"></path>
<path fill="#fff" d="M14.288 4.564c0 0.633-0.513 1.147-1.147 1.147s-1.147-0.513-1.147-1.147c0-0.633 0.513-1.147 1.147-1.147s1.147 0.513 1.147 1.147z"></path>
<path fill="#fff" d="M30.977 10.073h-29.916c-0.287 0-0.519 0.232-0.519 0.519v14.729c0 0.225-0.008 0.465-0.015 0.713-0.039 1.147-0.085 2.448 0.566 3.417 1.007 1.488 2.495 1.557 3.851 1.557 0.070 0 0.132 0 0.201 0h22.818c1.348 0 2.534-0.674 3.107-1.767 0.387-0.744 0.426-1.48 0.426-2.108v-16.535c0-0.294-0.232-0.527-0.519-0.527zM30.458 27.142c0 0.643-0.054 1.139-0.302 1.619-0.395 0.744-1.232 1.209-2.185 1.209h-22.834c-1.364 0-2.441 0.008-3.184-1.093-0.465-0.69-0.426-1.813-0.387-2.797 0.008-0.263 0.016-0.519 0.016-0.752v-14.21h28.87v16.023h0.008z"></path>
<path fill="#fff" d="M28.079 0.992h-23.717c-0.217 0-0.434-0.008-0.651 0.008-1.805 0.155-3.169 1.627-3.169 3.425v3.247c0 0.287 0.232 0.519 0.519 0.519h29.916c0.287 0 0.519-0.232 0.519-0.519v-3.254c0-1.867-1.495-3.37-3.417-3.425zM30.458 7.152h-28.877v-2.727c0-1.255 0.953-2.286 2.216-2.394 0.178-0.015 0.356-0.008 0.542-0.008h23.733c1.34 0.039 2.386 1.085 2.386 2.386v2.743z"></path>
<path fill="#fff" d="M10.662 24.43l1.224 1.333c0.225 0.24 0.527 0.364 0.829 0.364 0.271 0 0.542-0.101 0.759-0.294l1.689-1.55 1.139 1.24c0.256 0.279 0.635 0.411 1.015 0.349s0.69-0.31 0.845-0.659l3.657-8.399c0.108-0.256 0.124-0.542 0.031-0.806-0.054-0.147-0.132-0.287-0.232-0.403-0.302-0.325-0.767-0.449-1.185-0.302l-8.686 2.929c-0.364 0.124-0.635 0.411-0.736 0.798-0.085 0.364 0.015 0.752 0.263 1.023l1.139 1.24-1.689 1.55c-0.325 0.302-0.449 0.767-0.302 1.185 0.054 0.147 0.132 0.279 0.24 0.403zM11.436 23.609l2.069-1.898c0.209-0.194 0.225-0.527 0.031-0.736l-1.488-1.627c-0.031-0.039-0.023-0.077-0.023-0.077 0.008-0.023 0.023-0.047 0.054-0.054l8.686-2.929c0.008 0 0.015-0.008 0.023-0.008 0.023 0 0.047 0.008 0.062 0.023 0.008 0.008 0.015 0.015 0.015 0.031 0.008 0.015 0.008 0.039 0 0.062l-3.665 8.399c-0.008 0.023-0.031 0.047-0.062 0.047-0.031 0.008-0.054-0.008-0.077-0.023l-1.495-1.627c-0.194-0.209-0.519-0.225-0.736-0.031l-2.069 1.898c-0.031 0.031-0.085 0.031-0.116-0.008l-1.24-1.356c0-0.023 0-0.062 0.031-0.085z"></path>
<path fill="#fff" d="M28.42 3.223c-0.201-0.201-0.535-0.201-0.736 0l-0.604 0.604-0.604-0.604c-0.201-0.201-0.535-0.201-0.736 0s-0.201 0.535 0 0.736l0.604 0.604-0.604 0.604c-0.201 0.201-0.201 0.535 0 0.736 0.101 0.101 0.232 0.155 0.364 0.155s0.263-0.054 0.364-0.155l0.604-0.604 0.604 0.604c0.101 0.101 0.232 0.155 0.364 0.155s0.263-0.054 0.364-0.155c0.201-0.201 0.201-0.535 0-0.736l-0.604-0.604 0.604-0.604c0.217-0.201 0.217-0.535 0.015-0.736z"></path>
</svg>
