<!-- Generated by IcoMoon.io -->
<svg version="1.1" xmlns="http://www.w3.org/2000/svg" width="32" height="32" viewBox="0 0 32 32">
<title>interface-02</title>
<path fill="#fff" d="M24.043 16.457h-1.278v-0.062c0-0.976-0.798-1.774-1.774-1.774h-1.495v-0.542c0-0.899-0.55-1.674-1.34-1.999 1.154-1.232 1.813-2.859 1.813-4.556 0-3.673-2.991-6.656-6.656-6.656s-6.671 2.983-6.671 6.656c0 2.743 1.681 5.191 4.215 6.191v3.254l-0.806-0.635c-1.023-0.806-2.487-0.721-3.409 0.201-0.845 0.845-1 2.154-0.364 3.169l5.741 9.251v1.697c0 0.325 0.124 0.628 0.356 0.852 0.225 0.225 0.527 0.349 0.852 0.349h0.008c1.906-0.008 6.563-0.031 8.662-0.031h0.008c0.806 0 1.511-0.48 1.805-1.232l1.24-3.177c0.783-1.999 1.178-4.099 1.178-6.245v-2.642c-0.015-1.147-0.945-2.069-2.084-2.069zM7.415 7.524c0-3.247 2.642-5.889 5.889-5.889s5.889 2.642 5.889 5.889c0 1.674-0.721 3.277-1.968 4.393h-1.441v-0.899c1.139-0.806 1.813-2.092 1.813-3.494 0-2.363-1.922-4.293-4.293-4.293s-4.293 1.922-4.293 4.293c0 1.418 0.69 2.712 1.844 3.518v1.836c-2.076-0.945-3.44-3.037-3.44-5.354zM10.855 9.383v0.659c-0.682-0.659-1.069-1.55-1.069-2.518 0-1.937 1.581-3.518 3.518-3.518s3.518 1.581 3.518 3.518c0 0.953-0.38 1.836-1.038 2.487v-0.628c0-1.356-1.1-2.456-2.456-2.456s-2.472 1.1-2.472 2.456zM25.337 21.168c0 2.053-0.38 4.060-1.123 5.966l-1.24 3.177c-0.178 0.449-0.597 0.744-1.085 0.744v0c-2.1-0.008-6.756 0.015-8.662 0.031v0c-0.116 0-0.225-0.047-0.302-0.124-0.085-0.085-0.124-0.194-0.124-0.31v-1.805c0-0.070-0.023-0.139-0.062-0.201l-5.803-9.352c-0.442-0.713-0.333-1.619 0.256-2.216 0.349-0.349 0.806-0.527 1.271-0.527 0.387 0 0.783 0.124 1.108 0.387l1.286 1.015v4.2c0 0.217 0.17 0.387 0.387 0.387s0.387-0.17 0.387-0.387v-12.769c0-0.93 0.759-1.689 1.681-1.689s1.689 0.759 1.689 1.689v7.795c0 0.217 0.17 0.387 0.387 0.387s0.387-0.17 0.387-0.387v-4.494h1.55c0.767 0 1.387 0.62 1.387 1.387v3.673c0 0.217 0.17 0.387 0.387 0.387s0.387-0.17 0.387-0.387v-2.355h1.495c0.55 0 1 0.449 1 1v2.379c0 0.217 0.17 0.387 0.387 0.387s0.387-0.17 0.387-0.387v-1.55h1.286c0.713 0 1.294 0.581 1.294 1.294v2.658z"></path>
</svg>
