<!-- Generated by IcoMoon.io -->
<svg version="1.1" xmlns="http://www.w3.org/2000/svg" width="32" height="32" viewBox="0 0 32 32">
<title>interface-01</title>
<path fill="#fff" d="M25.832 5.695h-19.68c-0.767 0-1.387 0.62-1.387 1.387v13.528c0 0.767 0.62 1.387 1.387 1.387h6.609v1.077c0 0.186-0.108 0.542-0.209 0.697l-0.55 0.821c-0.248 0.372-0.287 0.806-0.101 1.154s0.566 0.558 1.015 0.558h6.152c0.449 0 0.829-0.209 1.015-0.558s0.147-0.783-0.101-1.154l-0.55-0.821c-0.101-0.155-0.209-0.511-0.209-0.697v-1.077h6.609c0.767 0 1.387-0.62 1.387-1.387v-13.528c0-0.759-0.628-1.387-1.387-1.387zM6.152 6.501h19.68c0.318 0 0.581 0.263 0.581 0.581v10.623h-20.843v-10.623c0-0.318 0.263-0.581 0.581-0.581zM19.316 25.034c0.047 0.070 0.124 0.209 0.062 0.325-0.062 0.124-0.232 0.132-0.302 0.132h-6.152c-0.070 0-0.24-0.015-0.302-0.132s0.008-0.256 0.054-0.325l0.55-0.821c0.194-0.287 0.349-0.798 0.349-1.147v-1.077h4.85v1.077c0 0.341 0.155 0.86 0.349 1.147l0.542 0.821zM25.832 21.191h-0.883c-0.008 0-0.008 0-0.015 0h-17.705c-0.008 0-0.008 0-0.016 0h-1.061c-0.318 0-0.581-0.263-0.581-0.581v-2.1h20.843v2.1c0 0.325-0.263 0.581-0.581 0.581z"></path>
<path fill="#fff" d="M16.604 19.998c0 0.338-0.274 0.612-0.612 0.612s-0.612-0.274-0.612-0.612c0-0.338 0.274-0.612 0.612-0.612s0.612 0.274 0.612 0.612z"></path>
<path fill="#fff" d="M31.496 13.482c0-0.116-0.054-0.217-0.132-0.294-0.031-0.054-0.070-0.108-0.116-0.147l-2.557-2.371c-0.163-0.147-0.418-0.139-0.566 0.023s-0.139 0.418 0.023 0.566l1.968 1.821h-1.836c-0.225 0-0.403 0.178-0.403 0.403s0.178 0.403 0.403 0.403h1.829l-1.96 1.821c-0.163 0.147-0.17 0.403-0.023 0.566 0.077 0.085 0.186 0.132 0.294 0.132 0.101 0 0.194-0.039 0.271-0.108l2.557-2.371c0.047-0.046 0.085-0.093 0.116-0.147 0.077-0.070 0.132-0.178 0.132-0.294z"></path>
<path fill="#fff" d="M3.719 13.094h-1.829l1.968-1.821c0.163-0.147 0.17-0.403 0.023-0.566-0.155-0.163-0.403-0.17-0.566-0.023l-2.565 2.371c-0.046 0.046-0.085 0.101-0.116 0.155-0.077 0.070-0.132 0.178-0.132 0.294s0.054 0.225 0.132 0.294c0.031 0.054 0.070 0.101 0.116 0.147l2.557 2.371c0.077 0.070 0.178 0.108 0.271 0.108 0.108 0 0.217-0.047 0.294-0.132 0.147-0.163 0.139-0.418-0.023-0.566l-1.96-1.821h1.829c0.225 0 0.403-0.178 0.403-0.403 0-0.232-0.178-0.411-0.403-0.411z"></path>
</svg>
