<!-- Generated by IcoMoon.io -->
<svg version="1.1" xmlns="http://www.w3.org/2000/svg" width="32" height="32" viewBox="0 0 32 32">
<title>IT-solutions</title>
<path fill="#fff" d="M23.988 16.047h-1.24v-0.023c0-0.992-0.806-1.798-1.798-1.798h-1.449v-0.496c0-1.209-0.984-2.185-2.185-2.185h-1.503v-0.395c1.844-0.976 3.030-2.921 3.030-5.021 0-3.13-2.549-5.679-5.679-5.679s-5.687 2.534-5.687 5.672c0 2.239 1.348 4.285 3.37 5.191v5.207l-0.744-0.589c-1.030-0.814-2.503-0.721-3.432 0.201-0.852 0.852-1.007 2.169-0.372 3.2l5.703 9.182v1.681c0 0.333 0.132 0.643 0.364 0.876s0.542 0.356 0.868 0.356h0.008c0.961-0.008 5.563-0.031 8.043-0.031 0.209 0 0.403-0.015 0.566 0 0.814 0 1.534-0.488 1.829-1.247l2.371-6.090c0.015-0.047 0.031-0.101 0.031-0.155v-5.772c0.008-1.147-0.938-2.084-2.092-2.084zM8.322 6.121c0-2.665 2.17-4.843 4.843-4.843s4.843 2.17 4.843 4.843c0 1.635-0.837 3.161-2.185 4.045v-1.116c0-1.371-1.116-2.479-2.479-2.479-1.371 0-2.479 1.116-2.479 2.479v1.317c-1.542-0.837-2.541-2.472-2.541-4.246zM25.244 23.833l-2.34 6.013c-0.17 0.434-0.581 0.713-1.038 0.713v0c-2.27 0-7.578 0.023-8.616 0.031-0.093 0.015-0.201-0.039-0.279-0.116s-0.116-0.17-0.116-0.279v-1.798c0-0.077-0.023-0.155-0.062-0.225l-5.772-9.282c-0.426-0.69-0.325-1.581 0.248-2.154 0.341-0.341 0.79-0.511 1.24-0.511 0.38 0 0.759 0.124 1.077 0.372l1.426 1.123c0.124 0.101 0.302 0.116 0.442 0.047 0.147-0.070 0.24-0.217 0.24-0.38v-8.329c0-0.907 0.736-1.635 1.643-1.635s1.643 0.736 1.643 1.635v7.756c0 0.232 0.186 0.418 0.418 0.418s0.418-0.186 0.418-0.418v-4.432h1.503c0.744 0 1.348 0.604 1.348 1.348v3.634c0 0.232 0.186 0.418 0.418 0.418s0.418-0.186 0.418-0.418v-2.301h1.449c0.527 0 0.961 0.426 0.961 0.961v0.38c0 0 0 0 0 0.008v1.984c0 0.232 0.186 0.418 0.418 0.418s0.418-0.186 0.418-0.418v-1.503h1.24c0.69 0 1.255 0.566 1.255 1.255v5.687z"></path>
</svg>
