<!-- Generated by IcoMoon.io -->
<svg version="1.1" xmlns="http://www.w3.org/2000/svg" width="32" height="32" viewBox="0 0 32 32">
<title>keyboard</title>
<path fill="#fff" d="M30.102 12.653h-13.707v-0.473c0-0.395 0.325-0.721 0.721-0.721h4.633c0.783 0 1.418-0.635 1.418-1.418s-0.635-1.418-1.418-1.418h-9.987c-0.752 0-1.356-0.612-1.356-1.356 0-0.752 0.612-1.356 1.356-1.356h4.238c0.186 0 0.333-0.147 0.333-0.333s-0.147-0.333-0.333-0.333h-4.238c-1.116 0-2.022 0.907-2.022 2.022s0.907 2.022 2.022 2.022h9.987c0.411 0 0.752 0.333 0.752 0.752 0 0.411-0.333 0.752-0.752 0.752h-4.633c-0.767 0-1.387 0.62-1.387 1.387v0.473h-13.831c-0.767 0-1.395 0.628-1.395 1.395v11.312c0 0.767 0.628 1.395 1.395 1.395h28.203c0.767 0 1.395-0.628 1.395-1.395v-11.312c0-0.767-0.628-1.395-1.395-1.395zM30.83 25.36c0 0.403-0.325 0.728-0.728 0.728h-28.203c-0.403 0-0.728-0.325-0.728-0.728v-11.312c0-0.403 0.325-0.728 0.728-0.728h28.203c0.403 0 0.728 0.325 0.728 0.728v11.312z"></path>
<path fill="#fff" d="M5.253 14.365h-1.782c-0.488 0-0.883 0.395-0.883 0.883v1.139c0 0.488 0.395 0.883 0.883 0.883h1.782c0.488 0 0.883-0.395 0.883-0.883v-1.139c-0.008-0.488-0.403-0.883-0.883-0.883zM5.462 16.387c0 0.116-0.093 0.217-0.217 0.217h-1.782c-0.116 0-0.217-0.093-0.217-0.217v-1.139c0-0.116 0.093-0.217 0.217-0.217h1.782c0.116 0 0.217 0.093 0.217 0.217v1.139z"></path>
<path fill="#fff" d="M8.112 17.271h1.782c0.488 0 0.883-0.395 0.883-0.883v-1.139c0-0.488-0.395-0.883-0.883-0.883h-1.782c-0.488 0-0.883 0.395-0.883 0.883v1.139c0.008 0.488 0.403 0.883 0.883 0.883zM7.903 15.248c0-0.116 0.093-0.217 0.217-0.217h1.782c0.116 0 0.217 0.093 0.217 0.217v1.139c0 0.116-0.093 0.217-0.217 0.217h-1.782c-0.116 0-0.217-0.093-0.217-0.217v-1.139z"></path>
<path fill="#fff" d="M12.769 17.271h1.782c0.488 0 0.883-0.395 0.883-0.883v-1.139c0-0.488-0.395-0.883-0.883-0.883h-1.782c-0.488 0-0.883 0.395-0.883 0.883v1.139c0 0.488 0.395 0.883 0.883 0.883zM12.552 15.248c0-0.116 0.093-0.217 0.217-0.217h1.782c0.116 0 0.217 0.093 0.217 0.217v1.139c0 0.116-0.093 0.217-0.217 0.217h-1.782c-0.116 0-0.217-0.093-0.217-0.217v-1.139z"></path>
<path fill="#fff" d="M17.418 17.271h1.782c0.488 0 0.883-0.395 0.883-0.883v-1.139c0-0.488-0.395-0.883-0.883-0.883h-1.782c-0.488 0-0.883 0.395-0.883 0.883v1.139c0 0.488 0.395 0.883 0.883 0.883zM17.201 15.248c0-0.116 0.093-0.217 0.217-0.217h1.782c0.116 0 0.217 0.093 0.217 0.217v1.139c0 0.116-0.093 0.217-0.217 0.217h-1.782c-0.116 0-0.217-0.093-0.217-0.217v-1.139z"></path>
<path fill="#fff" d="M23.849 14.35h-1.782c-0.488 0-0.883 0.395-0.883 0.883v1.139c0 0.488 0.395 0.883 0.883 0.883h1.782c0.488 0 0.883-0.395 0.883-0.883v-1.139c0-0.488-0.395-0.883-0.883-0.883zM24.066 16.364c0 0.116-0.093 0.217-0.217 0.217h-1.782c-0.116 0-0.217-0.093-0.217-0.217v-1.139c0-0.116 0.093-0.217 0.217-0.217h1.782c0.116 0 0.217 0.093 0.217 0.217v1.139z"></path>
<path fill="#fff" d="M28.498 14.35h-1.782c-0.488 0-0.883 0.395-0.883 0.883v1.139c0 0.488 0.395 0.883 0.883 0.883h1.782c0.488 0 0.883-0.395 0.883-0.883v-1.139c0-0.488-0.395-0.883-0.883-0.883zM28.715 16.364c0 0.116-0.093 0.217-0.217 0.217h-1.782c-0.116 0-0.217-0.093-0.217-0.217v-1.139c0-0.116 0.093-0.217 0.217-0.217h1.782c0.116 0 0.217 0.093 0.217 0.217v1.139z"></path>
<path fill="#fff" d="M5.253 18.293h-1.782c-0.488 0-0.883 0.395-0.883 0.883v1.139c0 0.488 0.395 0.883 0.883 0.883h1.782c0.488 0 0.883-0.395 0.883-0.883v-1.139c-0.008-0.488-0.403-0.883-0.883-0.883zM5.462 20.316c0 0.116-0.093 0.217-0.217 0.217h-1.782c-0.116 0-0.217-0.093-0.217-0.217v-1.139c0-0.116 0.093-0.217 0.217-0.217h1.782c0.116 0 0.217 0.093 0.217 0.217v1.139z"></path>
<path fill="#fff" d="M8.112 21.199h1.782c0.488 0 0.883-0.395 0.883-0.883v-1.139c0-0.488-0.395-0.883-0.883-0.883h-1.782c-0.488 0-0.883 0.395-0.883 0.883v1.139c0.008 0.488 0.403 0.883 0.883 0.883zM7.903 19.177c0-0.116 0.093-0.217 0.217-0.217h1.782c0.116 0 0.217 0.093 0.217 0.217v1.139c0 0.116-0.093 0.217-0.217 0.217h-1.782c-0.116 0-0.217-0.093-0.217-0.217v-1.139z"></path>
<path fill="#fff" d="M12.769 21.199h1.782c0.488 0 0.883-0.395 0.883-0.883v-1.139c0-0.488-0.395-0.883-0.883-0.883h-1.782c-0.488 0-0.883 0.395-0.883 0.883v1.139c0 0.488 0.395 0.883 0.883 0.883zM12.552 19.177c0-0.116 0.093-0.217 0.217-0.217h1.782c0.116 0 0.217 0.093 0.217 0.217v1.139c0 0.116-0.093 0.217-0.217 0.217h-1.782c-0.116 0-0.217-0.093-0.217-0.217v-1.139z"></path>
<path fill="#fff" d="M17.418 21.176h1.782c0.488 0 0.883-0.395 0.883-0.883v-1.139c0-0.488-0.395-0.883-0.883-0.883h-1.782c-0.488 0-0.883 0.395-0.883 0.883v1.147c0 0.48 0.395 0.876 0.883 0.876zM17.201 19.161c0-0.116 0.093-0.217 0.217-0.217h1.782c0.116 0 0.217 0.093 0.217 0.217v1.139c0 0.116-0.093 0.217-0.217 0.217h-1.782c-0.116 0-0.217-0.093-0.217-0.217v-1.139z"></path>
<path fill="#fff" d="M23.849 18.278h-1.782c-0.488 0-0.883 0.395-0.883 0.883v1.139c0 0.488 0.395 0.883 0.883 0.883h1.782c0.488 0 0.883-0.395 0.883-0.883v-1.139c0-0.488-0.395-0.883-0.883-0.883zM24.066 20.3c0 0.116-0.093 0.217-0.217 0.217h-1.782c-0.116 0-0.217-0.093-0.217-0.217v-1.139c0-0.116 0.093-0.217 0.217-0.217h1.782c0.116 0 0.217 0.093 0.217 0.217v1.139z"></path>
<path fill="#fff" d="M28.498 18.278h-1.782c-0.488 0-0.883 0.395-0.883 0.883v1.139c0 0.488 0.395 0.883 0.883 0.883h1.782c0.488 0 0.883-0.395 0.883-0.883v-1.139c0-0.488-0.395-0.883-0.883-0.883zM28.715 20.3c0 0.116-0.093 0.217-0.217 0.217h-1.782c-0.116 0-0.217-0.093-0.217-0.217v-1.139c0-0.116 0.093-0.217 0.217-0.217h1.782c0.116 0 0.217 0.093 0.217 0.217v1.139z"></path>
<path fill="#fff" d="M5.253 22.090h-1.782c-0.488 0-0.883 0.395-0.883 0.883v1.139c0 0.488 0.395 0.883 0.883 0.883h1.782c0.488 0 0.883-0.395 0.883-0.883v-1.139c-0.008-0.488-0.403-0.883-0.883-0.883zM5.462 24.112c0 0.116-0.093 0.217-0.217 0.217h-1.782c-0.116 0-0.217-0.093-0.217-0.217v-1.139c0-0.116 0.093-0.217 0.217-0.217h1.782c0.116 0 0.217 0.093 0.217 0.217v1.139z"></path>
<path fill="#fff" d="M28.498 22.075h-1.782c-0.488 0-0.883 0.395-0.883 0.883v1.139c0 0.488 0.395 0.883 0.883 0.883h1.782c0.488 0 0.883-0.395 0.883-0.883v-1.139c0-0.488-0.395-0.883-0.883-0.883zM28.715 24.097c0 0.116-0.093 0.217-0.217 0.217h-1.782c-0.116 0-0.217-0.093-0.217-0.217v-1.139c0-0.116 0.093-0.217 0.217-0.217h1.782c0.116 0 0.217 0.093 0.217 0.217v1.139z"></path>
<path fill="#fff" d="M23.849 22.059h-15.737c-0.488 0-0.883 0.395-0.883 0.883v1.154c0 0.488 0.395 0.883 0.883 0.883h15.737c0.488 0 0.883-0.395 0.883-0.883v-1.154c0-0.488-0.395-0.883-0.883-0.883zM24.066 24.097c0 0.116-0.093 0.217-0.217 0.217h-15.737c-0.116 0-0.217-0.093-0.217-0.217v-1.154c0-0.116 0.093-0.217 0.217-0.217h15.737c0.116 0 0.217 0.093 0.217 0.217v1.154z"></path>
</svg>
