<!-- Generated by IcoMoon.io -->
<svg version="1.1" xmlns="http://www.w3.org/2000/svg" width="32" height="32" viewBox="0 0 32 32">
<title>keys</title>
<path fill="#fff" d="M22.617 8.771c0.108-0.488 0.17-0.992 0.17-1.503 0-3.727-3.037-6.764-6.764-6.764s-6.764 3.037-6.764 6.764c0 0.697 0.108 1.379 0.318 2.038-0.558 0.566-1.007 1.209-1.325 1.945-1.123 2.565-0.48 5.548 1.619 7.446l0.101 0.077-0.643 1.472-1.836 0.364c-0.116 0.023-0.225 0.101-0.279 0.201-0.062 0.108-0.070 0.232-0.023 0.349l0.682 1.751-1.395 0.108c-0.132 0.008-0.248 0.077-0.31 0.186-0.070 0.108-0.085 0.24-0.039 0.364l0.69 1.829-0.62 1.418c-0.209 0.48-0.225 1.015-0.031 1.503s0.558 0.876 1.038 1.085c0.256 0.108 0.519 0.163 0.783 0.163 0.752 0 1.472-0.434 1.798-1.162 0 0 0-0.008 0.008-0.008l3.525-8.058c0.008-0.023 0.015-0.031 0.015-0.031 0.938 0.124 1.906 0.047 2.813-0.24 0.008 0 0.015-0.015 0.031-0.015 0.387 0.232 0.806 0.426 1.255 0.573l0.124 0.031v1.612l-1.542 1.061c-0.101 0.070-0.163 0.178-0.178 0.302s0.031 0.24 0.116 0.325l1.325 1.325-1.232 0.659c-0.116 0.062-0.194 0.17-0.209 0.302-0.023 0.124 0.023 0.256 0.108 0.349l1.364 1.402v1.542c0 1.085 0.883 1.96 1.96 1.96 1.069 0 1.945-0.868 1.96-1.937 0-0.008 0-0.015 0-0.023v-8.794c0-0.023 0-0.031 0-0.039 2.782-0.79 4.719-3.355 4.719-6.245 0.015-2.448-1.333-4.579-3.332-5.687zM16.031 1.325c3.277 0 5.943 2.665 5.943 5.943 0 0.387-0.039 0.767-0.116 1.147-0.744-0.294-1.55-0.465-2.394-0.465-0.69 0-1.348 0.108-1.968 0.31-0.217-0.132-0.442-0.248-0.674-0.349-2.169-0.953-4.695-0.635-6.563 0.79-0.116-0.465-0.178-0.945-0.178-1.433 0-3.277 2.673-5.943 5.951-5.943zM13.397 19.479c-0.023 0-0.039-0.008-0.062-0.008-0.201 0-0.581 0.108-0.767 0.527l-3.525 8.058c-0.256 0.573-0.93 0.837-1.503 0.589-0.279-0.124-0.496-0.349-0.604-0.628-0.108-0.287-0.108-0.597 0.016-0.876l0.682-1.573c0.039-0.101 0.046-0.209 0.008-0.31l-0.558-1.48 1.402-0.116c0.132-0.008 0.248-0.077 0.318-0.194 0.070-0.108 0.077-0.248 0.031-0.364l-0.705-1.805 1.565-0.302c0.132-0.023 0.24-0.116 0.294-0.24l0.86-1.96c0.077-0.17 0.023-0.372-0.116-0.488l-0.325-0.263c-1.821-1.643-2.379-4.254-1.395-6.493 0.302-0.697 0.744-1.309 1.286-1.821 0.031-0.023 0.054-0.046 0.077-0.077 0.031-0.023 0.054-0.054 0.085-0.085 1.65-1.457 4.021-1.829 6.036-0.945 0.008 0 0.015 0.008 0.023 0.008-2.1 1.077-3.549 3.262-3.549 5.78 0 1.968 0.883 3.773 2.34 4.982-0.635 0.163-1.286 0.178-1.914 0.085zM20.974 19.928c-0.015 0.008-0.031 0.008-0.047 0.015-0.186 0.077-0.504 0.333-0.504 0.798v8.779c0 0.008 0 0.015 0 0.023 0 0.628-0.511 1.139-1.139 1.139s-1.139-0.511-1.139-1.139v-1.712c0-0.108-0.039-0.209-0.116-0.287l-1.1-1.131 1.24-0.666c0.116-0.062 0.194-0.17 0.209-0.302s-0.023-0.256-0.116-0.349l-1.371-1.371 1.317-0.907c0.108-0.077 0.178-0.201 0.178-0.333v-2.139c0-0.186-0.124-0.349-0.302-0.395l-0.418-0.116c-2.324-0.775-3.882-2.937-3.882-5.385 0-3.13 2.549-5.679 5.679-5.679 0.775 0 1.503 0.155 2.177 0.434-0.225 0.643-0.55 1.24-0.976 1.774-0.325-0.271-0.744-0.434-1.201-0.434-1.054 0-1.914 0.86-1.914 1.914 0 0.341 0.093 0.659 0.256 0.93v0c0.008 0.023 0.023 0.046 0.039 0.070 0.341 0.542 0.938 0.907 1.619 0.907 1.054 0 1.914-0.86 1.914-1.914 0-0.294-0.070-0.566-0.194-0.814 0.511-0.604 0.914-1.302 1.193-2.053 1.658 0.992 2.774 2.805 2.774 4.874 0 2.541-1.72 4.788-4.176 5.47zM20.556 12.451c0 0.604-0.488 1.092-1.093 1.092-0.201 0-0.387-0.062-0.55-0.155 0.597-0.287 1.147-0.651 1.627-1.085 0.008 0.046 0.015 0.093 0.015 0.147zM18.379 12.451c0-0.604 0.488-1.092 1.093-1.092 0.24 0 0.465 0.085 0.651 0.217-0.488 0.465-1.061 0.852-1.705 1.139-0.031-0.085-0.039-0.17-0.039-0.263z"></path>
</svg>
