<!-- Generated by IcoMoon.io -->
<svg version="1.1" xmlns="http://www.w3.org/2000/svg" width="32" height="32" viewBox="0 0 32 32">
<title>knowledge-sharing</title>
<path fill="#fff" d="M23.942 8.872l-2.216-0.077c-0.155 0-0.287 0.124-0.294 0.287s0.124 0.302 0.287 0.31l2.983 0.108c0.155 0 0.287-0.124 0.294-0.287l0.108-2.975c0.008-0.163-0.124-0.302-0.287-0.31-0.155 0.008-0.302 0.124-0.31 0.287l-0.085 2.309c-1.821-2.844-5.013-4.61-8.407-4.61-3.401 0-6.609 1.774-8.43 4.649l-0.085-2.355c-0.008-0.163-0.147-0.279-0.31-0.287-0.163 0.008-0.294 0.147-0.287 0.31l0.108 2.975c0.008 0.163 0.139 0.287 0.294 0.287h0.008l2.975-0.108c0.163-0.008 0.294-0.147 0.287-0.31s-0.139-0.287-0.294-0.287h-0.008l-2.185 0.077c1.736-2.735 4.672-4.362 7.926-4.362 3.247 0.008 6.191 1.635 7.926 4.37z"></path>
<path fill="#fff" d="M13.66 18.309v-0.767c0-3.626-2.952-6.578-6.578-6.578s-6.578 2.944-6.578 6.578c0 1.79 0.705 3.456 1.984 4.703v5.842h8.035v-1.984h1.519c0.891 0 1.619-0.728 1.619-1.619v-2.015h0.364c0.449 0 0.821-0.178 1.007-0.488s0.178-0.721-0.039-1.116l-1.333-2.557zM14.528 21.672c-0.077 0.124-0.256 0.201-0.496 0.201h-0.961v2.611c0 0.566-0.457 1.023-1.023 1.023h-2.115v1.984h-6.849v-5.501l-0.093-0.085c-1.216-1.147-1.891-2.696-1.891-4.362 0-3.301 2.689-5.982 5.982-5.982s5.982 2.689 5.982 5.982v0.914l1.402 2.681c0.116 0.209 0.139 0.403 0.062 0.535z"></path>
<path fill="#fff" d="M7.492 16.744h-0.341c-0.023-0.054-0.046-0.108-0.070-0.163l0.24-0.24c0.101-0.101 0.155-0.225 0.155-0.364s-0.054-0.271-0.155-0.364l-0.418-0.418c-0.201-0.201-0.535-0.201-0.736 0l-0.24 0.24c-0.054-0.023-0.108-0.046-0.163-0.070v-0.341c0-0.287-0.232-0.519-0.519-0.519h-0.589c-0.287 0-0.519 0.232-0.519 0.519v0.341c-0.054 0.023-0.108 0.046-0.163 0.070l-0.24-0.24c-0.201-0.201-0.535-0.201-0.736 0l-0.418 0.418c-0.201 0.201-0.201 0.535 0 0.736l0.24 0.24c-0.023 0.054-0.046 0.108-0.070 0.163h-0.341c-0.287 0-0.519 0.232-0.519 0.519v0.589c0 0.287 0.232 0.519 0.519 0.519h0.341c0.023 0.054 0.046 0.108 0.070 0.163l-0.24 0.24c-0.201 0.201-0.201 0.535 0 0.736l0.418 0.418c0.201 0.201 0.535 0.201 0.736 0l0.24-0.24c0.054 0.023 0.108 0.047 0.163 0.070v0.341c0 0.287 0.232 0.519 0.519 0.519h0.589c0.287 0 0.519-0.232 0.519-0.519v-0.349c0.054-0.023 0.108-0.047 0.163-0.070l0.24 0.24c0.201 0.201 0.535 0.201 0.736 0l0.418-0.418c0.101-0.101 0.155-0.225 0.155-0.364s-0.054-0.271-0.155-0.364l-0.24-0.24c0.023-0.054 0.046-0.108 0.070-0.163h0.341c0.287 0 0.519-0.232 0.519-0.519v-0.589c0-0.294-0.232-0.527-0.519-0.527zM7.415 17.774h-0.713l-0.054 0.225c-0.039 0.155-0.101 0.302-0.186 0.442l-0.116 0.201 0.504 0.504-0.31 0.31-0.504-0.504-0.201 0.116c-0.139 0.077-0.287 0.139-0.442 0.186l-0.225 0.054v0.713h-0.442v-0.713l-0.225-0.054c-0.155-0.039-0.31-0.101-0.442-0.186l-0.201-0.116-0.504 0.504-0.31-0.31 0.504-0.504-0.116-0.201c-0.077-0.139-0.139-0.287-0.186-0.442l-0.054-0.225h-0.713v-0.442h0.713l0.054-0.225c0.039-0.155 0.101-0.302 0.186-0.442l0.116-0.201-0.504-0.504 0.31-0.31 0.504 0.504 0.201-0.116c0.139-0.077 0.287-0.139 0.442-0.186l0.225-0.054v-0.713h0.442v0.713l0.225 0.054c0.155 0.039 0.302 0.101 0.442 0.186l0.201 0.116 0.504-0.504 0.31 0.31-0.504 0.504 0.116 0.194c0.085 0.139 0.139 0.287 0.186 0.442l0.054 0.225h0.713v0.449z"></path>
<path fill="#fff" d="M4.951 16.178c-0.759 0-1.371 0.62-1.371 1.371 0 0.759 0.62 1.371 1.371 1.371 0.759 0 1.371-0.62 1.371-1.371s-0.612-1.371-1.371-1.371zM4.951 18.332c-0.434 0-0.783-0.349-0.783-0.783s0.349-0.783 0.783-0.783 0.783 0.349 0.783 0.783c-0.008 0.434-0.356 0.783-0.783 0.783z"></path>
<path fill="#fff" d="M9.995 14.249h-0.194c-0.054-0.194-0.147-0.364-0.287-0.504l0.101-0.17c0.085-0.139 0.031-0.325-0.108-0.403-0.139-0.085-0.325-0.031-0.403 0.108l-0.101 0.17c-0.093-0.023-0.194-0.046-0.294-0.046-0.116 0-0.232 0.023-0.333 0.054l-0.108-0.17c-0.085-0.139-0.271-0.178-0.411-0.093s-0.178 0.271-0.093 0.411l0.108 0.163c-0.124 0.132-0.209 0.294-0.256 0.473h-0.194c-0.163 0-0.294 0.132-0.294 0.294s0.132 0.294 0.294 0.294h0.194c0.054 0.194 0.147 0.364 0.287 0.504l-0.101 0.17c-0.085 0.139-0.031 0.325 0.108 0.403 0.046 0.031 0.101 0.039 0.147 0.039 0.101 0 0.201-0.054 0.256-0.147l0.101-0.17c0.093 0.023 0.194 0.046 0.294 0.046 0.116 0 0.225-0.023 0.333-0.054l0.108 0.17c0.054 0.093 0.155 0.139 0.248 0.139 0.054 0 0.108-0.015 0.155-0.046 0.139-0.085 0.178-0.271 0.093-0.411l-0.108-0.163c0.124-0.132 0.209-0.294 0.256-0.473h0.194c0.163 0 0.294-0.132 0.294-0.294 0.008-0.163-0.124-0.294-0.287-0.294zM8.159 14.543c0-0.302 0.248-0.542 0.542-0.542 0.302 0 0.542 0.248 0.542 0.542 0 0.302-0.248 0.542-0.542 0.542-0.302 0.008-0.542-0.24-0.542-0.542z"></path>
<path fill="#fff" d="M24.918 10.964c-3.626 0-6.578 2.952-6.578 6.578v0.767l-1.333 2.549c-0.209 0.403-0.225 0.806-0.039 1.116s0.558 0.488 1.007 0.488h0.364v2.015c0 0.891 0.728 1.619 1.619 1.619h1.519v1.984h8.035v-5.842c1.278-1.247 1.984-2.913 1.984-4.703 0-3.626-2.952-6.57-6.578-6.57zM29.009 21.904l-0.093 0.085v5.501h-6.842v-1.984h-2.115c-0.566 0-1.023-0.457-1.023-1.023v-2.611h-0.961c-0.24 0-0.426-0.070-0.496-0.201-0.077-0.124-0.054-0.325 0.054-0.535l1.402-2.681v-0.914c0-3.301 2.689-5.982 5.982-5.982s5.982 2.689 5.982 5.982c0 1.666-0.666 3.215-1.891 4.362z"></path>
<path fill="#fff" d="M27.049 16.178c-0.759 0-1.371 0.62-1.371 1.371 0 0.759 0.62 1.371 1.371 1.371 0.759 0 1.371-0.62 1.371-1.371 0.008-0.752-0.612-1.371-1.371-1.371zM27.049 18.332c-0.434 0-0.783-0.349-0.783-0.783s0.349-0.783 0.783-0.783 0.783 0.349 0.783 0.783-0.349 0.783-0.783 0.783z"></path>
<path fill="#fff" d="M29.59 16.744h-0.341c-0.023-0.054-0.047-0.108-0.070-0.163l0.24-0.24c0.201-0.201 0.201-0.535 0-0.736l-0.418-0.418c-0.201-0.201-0.535-0.201-0.736 0l-0.24 0.24c-0.054-0.023-0.108-0.046-0.163-0.070v-0.341c0-0.287-0.232-0.519-0.519-0.519h-0.589c-0.287 0-0.519 0.232-0.519 0.519v0.341c-0.054 0.023-0.108 0.046-0.163 0.070l-0.24-0.24c-0.201-0.201-0.535-0.201-0.736 0l-0.418 0.418c-0.201 0.201-0.201 0.535 0 0.736l0.24 0.24c-0.023 0.054-0.047 0.108-0.070 0.163h-0.341c-0.287 0-0.519 0.232-0.519 0.519v0.589c0 0.287 0.232 0.519 0.519 0.519h0.341c0.023 0.054 0.047 0.108 0.070 0.163l-0.24 0.24c-0.201 0.201-0.201 0.535 0 0.736l0.418 0.418c0.201 0.201 0.535 0.201 0.736 0l0.24-0.24c0.054 0.023 0.108 0.047 0.163 0.070v0.341c0 0.287 0.232 0.519 0.519 0.519h0.589c0.287 0 0.519-0.232 0.519-0.519v-0.341c0.054-0.023 0.108-0.047 0.163-0.070l0.24 0.24c0.201 0.201 0.535 0.201 0.736 0l0.418-0.418c0.201-0.201 0.201-0.535 0-0.736l-0.24-0.24c0.023-0.054 0.047-0.108 0.070-0.163h0.341c0.287 0 0.519-0.232 0.519-0.519v-0.589c0-0.287-0.232-0.519-0.519-0.519zM29.521 17.774h-0.713l-0.054 0.225c-0.039 0.155-0.101 0.31-0.186 0.442l-0.116 0.201 0.504 0.504-0.31 0.31-0.504-0.504-0.201 0.116c-0.139 0.077-0.287 0.139-0.442 0.186l-0.225 0.054v0.713h-0.442v-0.713l-0.225-0.054c-0.155-0.039-0.302-0.101-0.442-0.186l-0.201-0.116-0.504 0.504-0.31-0.31 0.504-0.504-0.116-0.201c-0.077-0.139-0.139-0.287-0.186-0.442l-0.054-0.225h-0.713v-0.442h0.713l0.054-0.225c0.039-0.155 0.101-0.31 0.186-0.442l0.116-0.201-0.504-0.504 0.31-0.31 0.504 0.504 0.201-0.116c0.139-0.077 0.287-0.139 0.442-0.186l0.225-0.054v-0.713h0.442v0.713l0.225 0.054c0.155 0.039 0.31 0.101 0.442 0.186l0.201 0.116 0.504-0.504 0.31 0.31-0.504 0.504 0.116 0.201c0.077 0.139 0.139 0.287 0.186 0.442l0.054 0.225h0.713v0.442z"></path>
<path fill="#fff" d="M24.205 15.512l-0.101-0.17c0.139-0.139 0.232-0.31 0.287-0.504h0.194c0.163 0 0.294-0.132 0.294-0.294s-0.132-0.294-0.294-0.294h-0.194c-0.047-0.178-0.139-0.341-0.256-0.473l0.108-0.163c0.085-0.139 0.047-0.325-0.093-0.411s-0.325-0.046-0.411 0.093l-0.108 0.17c-0.108-0.031-0.217-0.054-0.333-0.054-0.101 0-0.201 0.015-0.294 0.046l-0.101-0.17c-0.085-0.139-0.263-0.194-0.403-0.108s-0.194 0.263-0.108 0.403l0.101 0.17c-0.139 0.139-0.232 0.31-0.287 0.504h-0.201c-0.163 0-0.294 0.132-0.294 0.294s0.132 0.294 0.294 0.294h0.194c0.047 0.178 0.139 0.341 0.256 0.473l-0.108 0.163c-0.085 0.139-0.047 0.325 0.093 0.411 0.047 0.031 0.101 0.046 0.155 0.046 0.101 0 0.194-0.046 0.248-0.139l0.108-0.17c0.108 0.031 0.217 0.054 0.333 0.054 0.101 0 0.201-0.015 0.294-0.046l0.101 0.17c0.054 0.093 0.155 0.147 0.256 0.147 0.054 0 0.101-0.015 0.147-0.039 0.155-0.077 0.201-0.256 0.124-0.403zM22.756 14.543c0-0.302 0.248-0.542 0.542-0.542 0.302 0 0.542 0.248 0.542 0.542 0 0.302-0.248 0.542-0.542 0.542-0.302 0.008-0.542-0.24-0.542-0.542z"></path>
</svg>
