<!-- Generated by IcoMoon.io -->
<svg version="1.1" xmlns="http://www.w3.org/2000/svg" width="32" height="32" viewBox="0 0 32 32">
<title>knowledge</title>
<path fill="#fff" d="M5.602 7.198c1.418 0 2.565-1.154 2.565-2.565s-1.147-2.572-2.565-2.572-2.565 1.154-2.565 2.572 1.154 2.565 2.565 2.565zM5.602 2.906c0.953 0 1.728 0.775 1.728 1.728s-0.775 1.728-1.728 1.728-1.728-0.775-1.728-1.728 0.783-1.728 1.728-1.728z"></path>
<path fill="#fff" d="M10.584 14.202l5.524-5.524c0.163-0.163 0.163-0.434 0-0.597s-0.426-0.163-0.597 0l-4.812 4.812v-2.317c0-0.891-0.256-1.596-0.767-2.092-0.752-0.736-1.782-0.728-1.805-0.721h-5.036c-0.031 0-1.062-0.016-1.821 0.721-0.511 0.496-0.767 1.201-0.767 2.092v5.749c0 0.077-0.016 0.783 0.48 1.294 0.318 0.325 0.752 0.496 1.286 0.496h0.682v9.732c0 0.039-0.046 0.922 0.527 1.534 0.349 0.372 0.829 0.558 1.433 0.558h1.356c0.604 0 1.085-0.186 1.433-0.558 0.573-0.612 0.527-1.495 0.527-1.511v-15.977c0-0.232-0.186-0.418-0.418-0.418s-0.418 0.186-0.418 0.418v16c0 0.008 0.023 0.566-0.302 0.914-0.186 0.194-0.457 0.287-0.821 0.287h-1.34c-0.364 0-0.635-0.093-0.821-0.287-0.325-0.341-0.302-0.907-0.302-0.938v-10.181c0-0.232-0.186-0.418-0.418-0.418h-1.108c-0.302 0-0.527-0.077-0.682-0.232-0.256-0.263-0.248-0.682-0.248-0.697v-5.765c0-0.651 0.17-1.154 0.511-1.488 0.496-0.488 1.193-0.488 1.224-0.488h5.052c0.015 0 0.728 0 1.216 0.488 0.341 0.333 0.511 0.837 0.511 1.488v3.324c0 0.17 0.101 0.325 0.256 0.387 0.163 0.070 0.341 0.031 0.465-0.085z"></path>
<path fill="#fff" d="M29.428 2.797h-18.859c-0.232 0-0.418 0.186-0.418 0.418s0.186 0.418 0.418 0.418h18.867c0.674 0 1.224 0.55 1.224 1.224v11.762c0 0.674-0.55 1.224-1.224 1.224h-18.867c-0.232 0-0.418 0.186-0.418 0.418s0.186 0.418 0.418 0.418h18.867c1.139 0 2.069-0.93 2.069-2.069v-11.746c-0.008-1.139-0.938-2.069-2.076-2.069z"></path>
<path fill="#fff" d="M17.488 14.357v-3.603c0-0.232-0.186-0.418-0.418-0.418s-0.418 0.186-0.418 0.418v3.603c0 0.232 0.186 0.418 0.418 0.418s0.418-0.186 0.418-0.418z"></path>
<path fill="#fff" d="M20.85 14.357v-5.594c0-0.232-0.186-0.418-0.418-0.418s-0.418 0.186-0.418 0.418v5.594c0 0.232 0.186 0.418 0.418 0.418s0.418-0.186 0.418-0.418z"></path>
<path fill="#fff" d="M24.213 14.357v-8.081c0-0.232-0.186-0.418-0.418-0.418s-0.418 0.186-0.418 0.418v8.089c0 0.232 0.186 0.418 0.418 0.418s0.418-0.194 0.418-0.426z"></path>
</svg>
