<!-- Generated by IcoMoon.io -->
<svg version="1.1" xmlns="http://www.w3.org/2000/svg" width="32" height="32" viewBox="0 0 32 32">
<title>last-minute</title>
<path fill="#fff" d="M27.274 19.68c0-6.082-4.843-11.049-10.871-11.266v-0.899h0.86c0.225 0 0.403-0.178 0.403-0.403s-0.178-0.403-0.403-0.403h-2.534c-0.225 0-0.403 0.178-0.403 0.403s0.178 0.403 0.403 0.403h0.86v0.899c-6.020 0.217-10.863 5.184-10.863 11.266 0 3.696 1.79 6.981 4.548 9.042l-1.48 2.139c-0.124 0.186-0.077 0.434 0.101 0.566 0.070 0.047 0.147 0.070 0.232 0.070 0.132 0 0.256-0.062 0.333-0.178l1.48-2.139c1.751 1.123 3.828 1.774 6.059 1.774s4.308-0.651 6.059-1.774l1.48 2.139c0.077 0.116 0.201 0.178 0.333 0.178 0.077 0 0.163-0.023 0.232-0.070 0.186-0.124 0.232-0.38 0.101-0.566l-1.48-2.139c2.758-2.061 4.548-5.346 4.548-9.042zM16 30.14c-5.772 0-10.46-4.695-10.46-10.46s4.695-10.46 10.46-10.46 10.46 4.695 10.46 10.46-4.688 10.46-10.46 10.46z"></path>
<path fill="#fff" d="M25.856 5.927c-0.69-0.395-1.426-0.666-2.162-0.806l-0.349-2.673c-0.147-1.108-1.1-1.945-2.216-1.945h-9.453c-1.085 0-2.007 0.775-2.2 1.836l-0.488 2.696c-0.938 0.077-1.914 0.372-2.844 0.899-2.751 1.565-3.998 4.579-2.782 6.725 0.054 0.093 0.139 0.163 0.248 0.194 0.039 0.008 0.070 0.015 0.108 0.015 0.070 0 0.139-0.015 0.201-0.054l9.275-5.269c0.093-0.054 0.163-0.139 0.194-0.248 0.031-0.101 0.015-0.217-0.039-0.31-0.69-1.209-2.015-1.891-3.533-1.968l0.457-2.534c0.124-0.674 0.713-1.17 1.402-1.17h9.453c0.713 0 1.317 0.535 1.41 1.24l0.325 2.464c-0.38-0.023-0.759-0.016-1.131 0.039-1.387 0.186-2.479 0.876-3.076 1.929-0.054 0.093-0.070 0.201-0.039 0.31 0.031 0.101 0.101 0.194 0.194 0.248l9.275 5.269c0.062 0.031 0.132 0.054 0.201 0.054 0.039 0 0.070-0.008 0.108-0.015 0.101-0.031 0.194-0.101 0.248-0.194 1.201-2.154-0.039-5.168-2.789-6.733zM12.42 7.043l-8.523 4.843c-0.666-1.728 0.449-3.998 2.65-5.253 0.976-0.558 2.015-0.821 2.975-0.821 1.193 0 2.262 0.426 2.898 1.232zM28.103 11.886l-8.523-4.843c0.504-0.643 1.286-1.062 2.255-1.193 1.17-0.163 2.456 0.116 3.618 0.783 2.2 1.247 3.316 3.525 2.65 5.253z"></path>
<path fill="#fff" d="M17.844 23.276h-1.805v-7.934c0-0.139 0-0.232-0.232-0.232h-0.581c-0.194 0-0.372 0.039-0.535 0.108l-1.294 0.442c-0.139 0.039-0.155 0.139-0.155 0.232v0.333c0 0.139 0.039 0.163 0.194 0.163h1.542v6.888h-1.658c-0.124 0-0.209 0.054-0.209 0.194v0.604c0 0.124 0.085 0.178 0.209 0.178h4.525c0.139 0 0.209-0.054 0.209-0.178v-0.604c-0.008-0.139-0.085-0.194-0.209-0.194z"></path>
<path fill="#fff" d="M18.472 15.427c-0.225 0-0.403 0.178-0.403 0.403v1.216c0 0.225 0.178 0.403 0.403 0.403s0.403-0.178 0.403-0.403v-1.216c0-0.225-0.178-0.403-0.403-0.403z"></path>
</svg>
