<!-- Generated by IcoMoon.io -->
<svg version="1.1" xmlns="http://www.w3.org/2000/svg" width="32" height="32" viewBox="0 0 32 32">
<title>laundry-service</title>
<path fill="#fff" d="M30.791 22.803l-12.8-9.654c-0.434-0.395-0.961-0.635-1.503-0.728v-1.139c0-0.163-0.132-0.325-0.271-0.387-0.054-0.023-0.116-0.039-0.178-0.039-1.216 0-2.208-0.992-2.208-2.208s0.984-2.216 2.208-2.216c0.829 0 1.581 0.457 1.96 1.193 0.163 0.318 0.248 0.659 0.248 1.015 0 0.225 0.186 0.411 0.411 0.411s0.411-0.186 0.411-0.411c0-0.488-0.116-0.969-0.341-1.402-0.527-1.007-1.557-1.635-2.696-1.635-1.674 0-3.037 1.364-3.037 3.037 0 1.55 1.162 2.828 2.658 3.014v0.744c-0.589 0.070-1.154 0.31-1.619 0.728l-12.854 9.701c-0.635 0.573-0.845 1.457-0.542 2.255 0.31 0.798 1.054 1.309 1.914 1.309h26.894c0.852 0 1.604-0.511 1.914-1.309s0.093-1.681-0.566-2.278zM30.59 24.786c-0.147 0.38-0.519 0.783-1.139 0.783h-26.902c-0.62 0-0.992-0.403-1.139-0.783-0.147-0.372-0.139-0.922 0.31-1.333l12.847-9.685c0.821-0.736 2.053-0.736 2.898 0.023l12.8 9.654c0.465 0.403 0.473 0.961 0.325 1.34z"></path>
</svg>
