<!-- Generated by IcoMoon.io -->
<svg version="1.1" xmlns="http://www.w3.org/2000/svg" width="32" height="32" viewBox="0 0 32 32">
<title>laurel</title>
<path fill="#fff" d="M31.489 11.336c0.023-0.147-0.031-0.294-0.147-0.387s-0.263-0.124-0.411-0.085c-1.371 0.434-2.642 1.154-3.742 2.092 1.24-2.836 1.286-6.183 0.023-9.089-0.062-0.139-0.186-0.24-0.341-0.256-0.147-0.023-0.302 0.039-0.395 0.163-0.93 1.193-1.581 2.596-1.937 4.091-0.728-2.448-2.379-4.711-4.68-6.237-0.124-0.077-0.271-0.093-0.403-0.039s-0.232 0.178-0.256 0.318c-0.752 4.060 1.976 8.089 5.067 9.972 0.008 0.008 0.023 0.015 0.031 0.015 0.116 1.092 0.387 2.177 0.814 3.223 0.008 0.023 0.023 0.046 0.031 0.062-1.023 1.433-1.767 3.115-2.131 4.928-1.774 0.69-3.293 1.743-4.432 3.099-0.031 0.039-0.062 0.085-0.077 0.132-0.953 0.039-1.813 0.155-2.627 0.333-0.744-0.163-1.526-0.271-2.379-0.318-0.015-0.054-0.046-0.101-0.077-0.147-1.131-1.364-2.658-2.41-4.432-3.107-0.364-1.813-1.108-3.494-2.131-4.928 0.016-0.023 0.023-0.039 0.031-0.062 0.411-1.007 0.674-2.053 0.798-3.107 0.077-0.008 0.147-0.031 0.209-0.070 3.030-1.976 5.633-6.090 4.742-10.119-0.031-0.139-0.132-0.256-0.263-0.31s-0.287-0.031-0.403 0.054c-2.27 1.619-3.851 3.936-4.494 6.423-0.349-1.542-1.007-2.983-1.96-4.207-0.093-0.116-0.24-0.178-0.395-0.163-0.147 0.023-0.279 0.116-0.341 0.256-1.255 2.906-1.209 6.253 0.023 9.089-1.108-0.938-2.379-1.658-3.75-2.092-0.139-0.046-0.294-0.015-0.411 0.085-0.116 0.093-0.17 0.24-0.147 0.387 0.418 2.844 2.061 5.997 4.641 7.895-1.271-0.116-2.603-0.070-3.913 0.132-0.147 0.023-0.279 0.124-0.333 0.263s-0.031 0.302 0.062 0.426c1.658 2.146 4.238 3.549 7.276 3.99-1.007 0.426-2.015 1.038-3.084 1.774-0.132 0.085-0.201 0.24-0.186 0.395s0.116 0.294 0.263 0.356c0.876 0.372 1.867 0.55 3.014 0.55 0.744 0 1.557-0.077 2.51-0.232 0.86-0.163 1.612-0.535 2.41-0.938l0.535-0.263c-0.341 0.387-0.752 0.806-1.178 1.162-1.154 0.961-2.239 1.604-2.247 1.612-0.116 0.070-0.194 0.186-0.209 0.318s0.031 0.263 0.124 0.356l1.255 1.255c0.085 0.085 0.194 0.124 0.302 0.124 0.046 0 0.093-0.008 0.139-0.023 0.039-0.015 0.945-0.333 2.503-1.674 0.752-0.643 1.216-1.201 1.503-1.604 0.287 0.403 0.759 0.969 1.503 1.604 1.565 1.34 2.472 1.658 2.503 1.674 0.155 0.054 0.325 0.015 0.442-0.101l1.255-1.255c0.093-0.093 0.139-0.225 0.124-0.356s-0.093-0.248-0.209-0.318c-0.008-0.008-1.1-0.651-2.247-1.612-0.426-0.356-0.829-0.767-1.17-1.154l0.077 0.039c0.108 0.054 0.217 0.108 0.318 0.163l0.108 0.054c0.79 0.403 1.542 0.775 2.41 0.938 0.938 0.155 1.759 0.232 2.503 0.232 1.147 0 2.139-0.178 3.014-0.55 0.147-0.062 0.248-0.194 0.263-0.356s-0.054-0.31-0.186-0.395c-1.054-0.721-2.030-1.317-3.022-1.751 3.115-0.411 5.765-1.821 7.454-4.014 0.093-0.124 0.116-0.279 0.062-0.426s-0.186-0.24-0.333-0.263c-1.302-0.201-2.642-0.24-3.913-0.132 2.588-1.898 4.238-5.052 4.649-7.895zM19.959 2.751c2.603 1.976 4.169 4.99 4.138 7.988-2.394-1.736-4.401-4.819-4.138-7.988zM11.909 2.689c0.364 3.161-1.534 6.307-3.882 8.112-0.124-2.991 1.34-6.051 3.882-8.112zM26.708 4.936c1.046 3.030 0.643 6.462-1.077 9.112-1.007-3.115-0.597-6.539 1.077-9.112zM5.292 4.936c1.674 2.572 2.076 5.997 1.069 9.104-1.712-2.65-2.115-6.075-1.069-9.104zM1.488 11.932c3.177 1.286 5.656 4.254 6.539 7.841-3.479-1.116-5.827-4.587-6.539-7.841zM2.139 20.114c0.535-0.054 1.069-0.085 1.604-0.085 3.44 0 6.493 1.147 8.5 3.169-0.628 0.085-1.263 0.132-1.906 0.132-3.347 0-6.292-1.162-8.198-3.215zM13.211 24.957c-0.108 0.054-0.209 0.101-0.318 0.155l-0.124 0.062c-0.736 0.372-1.433 0.721-2.17 0.86-1.782 0.294-3.099 0.294-4.238 0.008 1.565-1.007 2.991-1.689 4.556-1.813 1.364-0.070 2.534-0.047 3.587 0.093l-1.294 0.635zM18.712 27.506c0.744 0.628 1.457 1.116 1.898 1.402l-0.666 0.666c-0.333-0.17-1.023-0.573-1.991-1.402-1.325-1.131-1.658-1.937-1.666-1.953-0.085-0.217-0.333-0.333-0.55-0.248-0.124 0.047-0.209 0.139-0.256 0.248-0.008 0.031-0.349 0.829-1.666 1.953-0.976 0.829-1.658 1.232-1.991 1.402l-0.666-0.666c0.442-0.287 1.154-0.775 1.898-1.402 1.263-1.054 2.309-2.534 2.348-2.596 0.023-0.031 0.039-0.062 0.054-0.101l0.418-0.209 0.434 0.209c0.015 0.031 0.031 0.062 0.047 0.093 0.047 0.062 1.093 1.55 2.355 2.603zM25.399 26.042c-1.139 0.294-2.464 0.287-4.23-0.008-0.744-0.139-1.441-0.488-2.177-0.86l-0.108-0.054c-0.108-0.054-0.217-0.108-0.325-0.163l-1.302-0.643c1.054-0.132 2.224-0.163 3.58-0.093 1.573 0.132 2.991 0.806 4.564 1.821zM28.258 20.029c0.535 0 1.069 0.031 1.604 0.085-1.906 2.053-4.843 3.215-8.198 3.215-0.635 0-1.278-0.047-1.898-0.132 1.999-2.022 5.044-3.169 8.492-3.169zM23.973 19.766c0.883-3.587 3.363-6.555 6.539-7.833-0.713 3.254-3.061 6.725-6.539 7.833z"></path>
</svg>
