<!-- Generated by IcoMoon.io -->
<svg version="1.1" xmlns="http://www.w3.org/2000/svg" width="32" height="32" viewBox="0 0 32 32">
<title>lavatory</title>
<path fill="#fff" d="M29.645 13.869h-13.606v-8.143c0-0.984 0.798-1.782 1.782-1.782s1.782 0.798 1.782 1.782c0 0.217 0.178 0.403 0.403 0.403s0.403-0.178 0.403-0.403c0-1.426-1.154-2.58-2.58-2.58s-2.58 1.162-2.58 2.58v8.143h-12.893c-1.023 0-1.852 0.837-1.852 1.86s0.829 1.852 1.852 1.852h0.225l2.053 6.199c0.232 0.752 0.93 1.263 1.728 1.263h7.787v1.968c0 1.023 0.829 1.852 1.852 1.852s1.852-0.829 1.852-1.852v-1.968h7.787c0.798 0 1.488-0.504 1.728-1.255l2.053-6.199h0.225c1.023 0 1.852-0.829 1.852-1.852s-0.829-1.867-1.852-1.867zM17.054 27.002c0 0.581-0.473 1.054-1.054 1.054s-1.054-0.473-1.054-1.054v-1.968h2.115l-0.008 1.968zM26.607 23.531c0 0 0 0.008 0 0-0.132 0.426-0.519 0.705-0.969 0.705h-19.277c-0.449 0-0.837-0.279-0.969-0.705l-1.976-5.951h25.158l-1.968 5.951zM29.645 16.783h-27.289c-0.581 0-1.054-0.473-1.054-1.054s0.473-1.054 1.054-1.054h27.281c0.581 0 1.054 0.473 1.054 1.054s-0.465 1.054-1.046 1.054z"></path>
<path fill="#fff" d="M20.401 8.267c0-0.217-0.178-0.403-0.403-0.403s-0.403 0.178-0.403 0.403v0.728c0 0.217 0.178 0.403 0.403 0.403s0.403-0.178 0.403-0.403v-0.728z"></path>
<path fill="#fff" d="M19.998 11.057c-0.217 0-0.403 0.178-0.403 0.403v0.728c0 0.217 0.178 0.403 0.403 0.403s0.403-0.178 0.403-0.403v-0.728c0-0.225-0.178-0.403-0.403-0.403z"></path>
</svg>
