<!-- Generated by IcoMoon.io -->
<svg version="1.1" xmlns="http://www.w3.org/2000/svg" width="32" height="32" viewBox="0 0 32 32">
<title>learning</title>
<path fill="#fff" d="M16 10.824c2.813 0 5.098-2.286 5.098-5.098s-2.286-5.098-5.098-5.098-5.098 2.286-5.098 5.098c0 2.805 2.286 5.098 5.098 5.098zM16 1.387c2.386 0 4.331 1.945 4.331 4.331s-1.945 4.331-4.331 4.331-4.331-1.945-4.331-4.331 1.945-4.331 4.331-4.331z"></path>
<path fill="#fff" d="M29.35 20.354c-0.039-0.178-0.194-0.31-0.38-0.31h-2.565v-1.999c0-3.525-2.766-6.292-6.292-6.292h-7.988c-3.603 0-6.532 2.82-6.532 6.292v1.999h-2.565c-0.186 0-0.341 0.132-0.38 0.31l-2.139 10.569c-0.023 0.116 0.008 0.232 0.077 0.318 0.070 0.093 0.186 0.139 0.294 0.139h30.226c0.116 0 0.225-0.054 0.294-0.139 0.070-0.093 0.101-0.209 0.077-0.318l-2.131-10.569zM6.361 18.046c0-3.045 2.58-5.517 5.757-5.517h7.988c3.099 0 5.524 2.425 5.524 5.517v1.999h-2.441c-0.047-0.015-0.093-0.023-0.139-0.023h-14.109c-0.046 0-0.093 0.008-0.139 0.023h-2.441v-1.999zM15.613 20.819v7.841h-7.562l1.216-7.841h6.346zM16.387 20.819h6.346l1.216 7.841h-7.562v-7.841zM1.356 30.613l1.984-9.794h5.145l-1.263 8.159c-0.016 0.108 0.016 0.225 0.085 0.31s0.178 0.132 0.294 0.132h16.798c0.116 0 0.217-0.047 0.294-0.132 0.070-0.085 0.108-0.201 0.085-0.31l-1.263-8.167h5.145l1.984 9.794-29.288 0.008z"></path>
<path fill="#fff" d="M9.352 27.506h5.129c0.209 0 0.387-0.17 0.387-0.387 0-0.209-0.17-0.387-0.387-0.387h-5.129c-0.209 0-0.387 0.17-0.387 0.387 0.008 0.209 0.178 0.387 0.387 0.387z"></path>
<path fill="#fff" d="M22.539 26.731h-4.967c-0.209 0-0.387 0.17-0.387 0.387 0 0.209 0.17 0.387 0.387 0.387h4.967c0.209 0 0.387-0.17 0.387-0.387 0-0.209-0.178-0.387-0.387-0.387z"></path>
<path fill="#fff" d="M9.701 25.112h4.781c0.209 0 0.387-0.17 0.387-0.387 0-0.209-0.17-0.387-0.387-0.387h-4.781c-0.209 0-0.387 0.17-0.387 0.387 0.008 0.209 0.178 0.387 0.387 0.387z"></path>
<path fill="#fff" d="M17.511 25.112h4.68c0.209 0 0.387-0.17 0.387-0.387 0-0.209-0.17-0.387-0.387-0.387h-4.68c-0.209 0-0.387 0.17-0.387 0.387 0 0.209 0.17 0.387 0.387 0.387z"></path>
<path fill="#fff" d="M10.034 22.857h4.525c0.209 0 0.387-0.17 0.387-0.387 0-0.209-0.17-0.387-0.387-0.387h-4.525c-0.209 0-0.387 0.17-0.387 0.387 0 0.209 0.17 0.387 0.387 0.387z"></path>
<path fill="#fff" d="M17.402 22.857h4.463c0.209 0 0.387-0.17 0.387-0.387 0-0.209-0.17-0.387-0.387-0.387h-4.463c-0.209 0-0.387 0.17-0.387 0.387 0 0.209 0.178 0.387 0.387 0.387z"></path>
</svg>
