<!-- Generated by IcoMoon.io -->
<svg version="1.1" xmlns="http://www.w3.org/2000/svg" width="32" height="32" viewBox="0 0 32 32">
<title>leaves</title>
<path fill="#fff" d="M31.225 11.351c-0.047-0.015-0.085-0.031-0.132-0.031-0.031-0.008-0.070-0.015-0.132-0.023-3.262-0.651-11.483-1.689-17.395 2.836-3.595 2.751-5.687 7.082-6.23 12.877-4.122-4.362-6.129-8.841-5.958-13.311 0.248-6.222 4.649-10.693 6.307-12.157 5.935 4.068 5.625 10.398 5.625 10.468-0.015 0.24 0.17 0.442 0.411 0.457s0.442-0.17 0.457-0.403c0.008-0.070 0.364-7.090-6.292-11.429-0.163-0.108-0.372-0.093-0.519 0.039l-0.039 0.023c-1.534 1.309-6.539 6.106-6.818 12.955-0.194 4.951 2.1 9.863 6.834 14.613 0.085 0.085 0.194 0.124 0.31 0.124 0.085 0 0.17-0.023 0.248-0.077 1.782-1.24 15.031-10.662 15.163-10.754 0.194-0.139 0.24-0.411 0.101-0.604s-0.411-0.24-0.604-0.101c-0.124 0.085-10.987 7.818-14.357 10.197 0.527-5.524 2.503-9.639 5.889-12.234 5.501-4.215 13.203-3.347 16.48-2.72-1.007 6.911-3.649 11.994-7.864 15.093-5.935 4.37-13.017 3.239-13.087 3.231-0.232-0.039-0.457 0.116-0.504 0.356-0.039 0.232 0.116 0.457 0.356 0.504 0.101 0.015 1.030 0.163 2.448 0.163 2.704 0 7.206-0.542 11.297-3.549 4.494-3.308 7.276-8.717 8.275-16.093 0.023-0.186-0.085-0.38-0.271-0.449z"></path>
</svg>
