<!-- Generated by IcoMoon.io -->
<svg version="1.1" xmlns="http://www.w3.org/2000/svg" width="32" height="32" viewBox="0 0 32 32">
<title>legend-of-map-marker</title>
<path fill="#fff" d="M16 0.504c-5.796 0-10.507 4.719-10.507 10.507 0 5.284 9.135 18.782 10.173 20.308 0.077 0.108 0.201 0.178 0.333 0.178s0.256-0.070 0.333-0.178c1.038-1.519 10.173-15.024 10.173-20.308 0-5.788-4.711-10.507-10.507-10.507zM16 30.373c-4.548-6.718-9.701-15.628-9.701-19.363 0-5.346 4.354-9.701 9.701-9.701s9.701 4.354 9.701 9.701c0 3.735-5.153 12.645-9.701 19.363z"></path>
<path fill="#fff" d="M19.378 17.519h-5.672c1.255-1.263 2.813-2.906 4.2-4.378v0c1-1.069 1.65-1.898 1.65-3.603 0-2.107-1.348-3.177-4.014-3.177-0.682 0-2.208 0.093-3.076 0.449-0.217 0.054-0.349 0.279-0.302 0.488l0.039 0.194c0.031 0.17 0.147 0.364 0.473 0.318 0.938-0.116 2.286-0.225 2.882-0.225 1.937 0 2.72 0.635 2.72 2.193 0 1.154-0.69 1.953-1.387 2.665-0.612 0.643-1.271 1.333-1.906 2.007-1.077 1.139-2.1 2.216-2.727 2.836-0.279 0.279-0.325 0.449-0.325 0.674v0.263c0 0.263 0.186 0.442 0.442 0.442h6.997c0.271 0 0.411-0.186 0.411-0.372v-0.395c0.008-0.178-0.101-0.38-0.403-0.38z"></path>
</svg>
