<!-- Generated by IcoMoon.io -->
<svg version="1.1" xmlns="http://www.w3.org/2000/svg" width="32" height="32" viewBox="0 0 32 32">
<title>leisure-01</title>
<path fill="#fff" d="M28.653 7.678l-6.826-2.534c-0.139-0.054-0.287-0.031-0.411 0.054-0.116 0.085-0.194 0.217-0.194 0.364v6.927c0 0.008 0 0.008 0 0.015v14.9c-2.092 0.085-3.626 0.922-3.626 2.022 0 1.154 1.712 2.030 3.983 2.030s3.983-0.876 3.983-2.030c0-1.061-1.449-1.883-3.448-2.007v-14.683l6.625-4.269c0.139-0.093 0.217-0.256 0.201-0.426-0.023-0.163-0.132-0.31-0.287-0.364zM18.479 29.42c0-0.434 1.054-1.054 2.735-1.131v2.169c0 0.031 0.015 0.062 0.015 0.093-1.689-0.077-2.751-0.697-2.751-1.131zM24.67 29.42c0 0.418-0.992 1.007-2.572 1.116 0.008-0.023 0.015-0.047 0.015-0.077v-2.154c1.573 0.108 2.557 0.697 2.557 1.116zM22.113 11.677v-5.478l5.393 1.999-5.393 3.479z"></path>
<path fill="#fff" d="M15.543 21.16h-0.907v-9.104c0-0.132-0.062-0.256-0.163-0.341s-0.232-0.116-0.364-0.093l-2.069 0.38v-9.832c0-0.225-0.147-0.426-0.325-0.48l-2.867-1.162c-0.155-0.046-0.325-0.015-0.457 0.077-0.132 0.101-0.209 0.256-0.209 0.418v2.371c0 0.287 0.232 0.519 0.519 0.519h2.456v8.236l-2.534 0.457-1.379-6.222v-0.008c-0.046-0.217-0.178-0.411-0.372-0.527-0.194-0.124-0.418-0.163-0.635-0.116l-1.581 0.349c-0.449 0.101-0.837 0.372-1.062 0.744-0.271 0.449-0.271 0.945 0 1.519 0.287 0.604 0.62 0.984 1.24 0.984 0.341 0 0.775-0.116 1.333-0.38 0.263-0.124 0.473-0.248 0.651-0.364l0.922 4.184-2.278 0.411c-0.209 0.039-0.364 0.225-0.364 0.442v2.541c-1.178 0.302-2.030 1.356-2.030 2.611v6.090c0 1.255 0.852 2.309 2.030 2.611v3.58c0 0.194 0.124 0.364 0.31 0.426 0.054 0.015 0.108 0.023 0.163 0.023 0.318-0.008 6.237 0 8.515 0v0c0.116 0 0.232-0.047 0.318-0.132s0.132-0.194 0.132-0.318v-1.519h1.015c0.248 0 0.449-0.201 0.449-0.449v-7.477c-0.015-0.248-0.217-0.449-0.457-0.449zM9.065 3.022v-1.441l2.076 0.845v0.597h-2.076zM5.788 8.143c-1.069 0.504-1.147 0.333-1.395-0.178-0.194-0.411-0.101-0.566-0.039-0.674 0.101-0.163 0.279-0.287 0.496-0.333l1.534-0.341 0.217 0.992c-0.062 0.077-0.248 0.271-0.814 0.535zM3.952 24.864v-6.090c0-0.759 0.465-1.402 1.139-1.674v9.437c-0.674-0.271-1.139-0.914-1.139-1.674zM15.093 28.637h-1.015c-0.248 0-0.449 0.201-0.449 0.449v1.519l-3.82-0.008c-2.1 0-3.216 0-3.828 0.015v-16.62l7.764-1.41v9.019c0 0.248 0.201 0.449 0.449 0.449h0.907l-0.008 6.586z"></path>
<path fill="#fff" d="M9.91 15.752c-1.054 0-1.914 0.86-1.914 1.914v9.677c0 1.054 0.86 1.914 1.914 1.914s1.914-0.86 1.914-1.914v-9.677c0-1.054-0.852-1.914-1.914-1.914zM10.933 27.343c0 0.566-0.457 1.023-1.023 1.023s-1.023-0.457-1.023-1.023v-9.677c0-0.566 0.457-1.023 1.023-1.023s1.023 0.457 1.023 1.023v9.677z"></path>
<path fill="#fff" d="M9.91 17.309c-0.248 0-0.449 0.201-0.449 0.449v9.414c0 0.248 0.201 0.449 0.449 0.449s0.449-0.201 0.449-0.449v-9.422c0-0.24-0.201-0.442-0.449-0.442z"></path>
</svg>
