<!-- Generated by IcoMoon.io -->
<svg version="1.1" xmlns="http://www.w3.org/2000/svg" width="32" height="32" viewBox="0 0 32 32">
<title>leisure-02</title>
<path fill="#fff" d="M29.18 15.853l-1.1-0.713c0.132-0.558 0.062-1.17-0.24-1.712-0.31-0.55-0.821-0.945-1.426-1.108-0.604-0.17-1.247-0.085-1.79 0.225-1.131 0.643-1.526 2.084-0.883 3.223v0c0.434 0.767 1.232 1.193 2.053 1.193 0.395 0 0.798-0.101 1.162-0.31 0.395-0.225 0.697-0.55 0.907-0.922l0.992 0.643c0.108 0.070 0.101 0.17 0.093 0.217-0.008 0.039-0.039 0.139-0.163 0.17l-5.625 1.371c-0.163 0.039-0.263 0.209-0.225 0.372 0.031 0.139 0.163 0.232 0.294 0.232 0.023 0 0.047 0 0.070-0.008l5.625-1.371c0.325-0.077 0.558-0.333 0.612-0.666 0.070-0.341-0.070-0.659-0.356-0.837zM26.654 16.116c-0.403 0.232-0.876 0.287-1.325 0.163s-0.829-0.418-1.054-0.821c-0.48-0.837-0.186-1.906 0.659-2.386 0.403-0.232 0.876-0.287 1.333-0.163 0.449 0.124 0.829 0.418 1.054 0.821 0.232 0.403 0.287 0.876 0.163 1.333-0.132 0.442-0.426 0.821-0.829 1.054z"></path>
<path fill="#fff" d="M31.411 13.931c-0.116-0.124-0.31-0.124-0.434-0.008l-1.216 1.178c-0.124 0.116-0.124 0.31-0.008 0.434 0.062 0.062 0.139 0.093 0.217 0.093s0.155-0.031 0.209-0.085l1.216-1.178c0.132-0.116 0.132-0.31 0.015-0.434z"></path>
<path fill="#fff" d="M26.065 18.673l-5.641 5.462h-17.379c-0.17 0-0.302 0.139-0.302 0.302 0 0.17 0.139 0.302 0.302 0.302h1.526l-1.829 2.565c-0.101 0.139-0.070 0.325 0.070 0.426 0.054 0.039 0.116 0.054 0.178 0.054 0.093 0 0.186-0.047 0.248-0.132l2.084-2.921h6.47v2.743c0 0.17 0.139 0.302 0.302 0.302s0.302-0.139 0.302-0.302v-2.743h5.943l2.069 2.898c0.062 0.085 0.155 0.132 0.248 0.132 0.062 0 0.124-0.015 0.178-0.054 0.139-0.101 0.17-0.287 0.070-0.426l-1.813-2.541h1.449c0.077 0 0.155-0.031 0.209-0.085l5.734-5.548c0.124-0.116 0.124-0.31 0.008-0.434-0.108-0.108-0.302-0.116-0.426 0z"></path>
<path fill="#fff" d="M6.64 10.855l0.511-0.883 0.511 0.883c0.054 0.093 0.155 0.155 0.263 0.155h3.866v9.445l-4.486 0.015c-0.17 0-0.302 0.139-0.302 0.302v2.239c0 0.077 0.031 0.163 0.093 0.217 0.054 0.054 0.132 0.093 0.217 0.093v0l12.017-0.008c0.194 0 0.38-0.039 0.558-0.108 0.008 0 0.015-0.008 0.023-0.008 0.194-0.077 0.38-0.194 0.527-0.349l3.51-3.37c0.124-0.116 0.124-0.31 0.008-0.434s-0.31-0.124-0.434-0.008l-3.401 3.262-0.124 0.124c-0.047 0.047-0.101 0.093-0.155 0.124l-1.844-1.79 4.083-3.727c0.147-0.147 0.356-0.256 0.511-0.108l0.643 0.628c0.124 0.116 0.318 0.116 0.434-0.008s0.116-0.318-0.008-0.434l-0.643-0.628c-0.38-0.364-0.945-0.318-1.364 0.108l-4.223 3.851-5.029 0.015v-9.445h3.851c0.108 0 0.209-0.062 0.263-0.155l0.511-0.883 0.511 0.883c0.054 0.093 0.155 0.155 0.263 0.155h5.92c0.17 0 0.302-0.139 0.302-0.302v-0.907c0-0.395-0.17-0.775-0.473-1.030-1.263-1.069-5.819-4.564-11.452-4.564-5.641 0-9.964 3.494-11.15 4.571-0.279 0.256-0.442 0.62-0.442 1v0.93c0 0.17 0.139 0.302 0.302 0.302h5.563c0.108 0 0.209-0.054 0.263-0.155zM7.616 21.075l9.817-0.031 1.697 1.643-11.514 0.015v-1.627zM16.077 10.398h-7.973l-0.604-1.046c0.178-0.333 0.752-1.263 2.084-2.534s2.216-1.798 2.526-1.96c0.31 0.163 1.185 0.69 2.526 1.96 1.309 1.247 1.883 2.17 2.069 2.518l-0.628 1.062zM23.415 9.801v0.604h-5.431l-0.635-1.108c-0.008-0.015 0-0.039-0.008-0.054-0.023-0.046-0.519-1.185-2.286-2.867-0.728-0.69-1.325-1.17-1.782-1.503 4.889 0.426 8.763 3.401 9.894 4.362 0.155 0.139 0.248 0.341 0.248 0.566zM1.116 10.398v-0.62c0-0.209 0.085-0.411 0.24-0.55 1.069-0.961 4.734-3.928 9.585-4.354-0.457 0.333-1.054 0.806-1.782 1.503-1.666 1.588-2.208 2.681-2.278 2.844l-0.682 1.178h-5.083z"></path>
</svg>
