<!-- Generated by IcoMoon.io -->
<svg version="1.1" xmlns="http://www.w3.org/2000/svg" width="32" height="32" viewBox="0 0 32 32">
<title>lift</title>
<path fill="#fff" d="M23.973 11.452h-15.946c-1.116 0-2.030 0.914-2.030 2.030v15.946c0 1.116 0.914 2.030 2.030 2.030h15.946c1.116 0 2.030-0.914 2.030-2.030v-15.946c0-1.116-0.914-2.030-2.030-2.030zM25.275 29.428c0 0.721-0.581 1.302-1.302 1.302h-15.946c-0.721 0-1.302-0.581-1.302-1.302v-15.946c0-0.721 0.581-1.302 1.302-1.302h15.946c0.721 0 1.302 0.581 1.302 1.302v15.946z"></path>
<path fill="#fff" d="M3.084 6.47c-0.201 0-0.364 0.163-0.364 0.364v24.26c0 0.201 0.163 0.364 0.364 0.364s0.364-0.163 0.364-0.364v-24.26c0-0.201-0.163-0.364-0.364-0.364z"></path>
<path fill="#fff" d="M28.916 6.508c-0.201 0-0.364 0.163-0.364 0.364v24.26c0 0.201 0.163 0.364 0.364 0.364s0.364-0.163 0.364-0.364v-24.26c0-0.201-0.163-0.364-0.364-0.364z"></path>
<path fill="#fff" d="M9.538 4.324l2.58-2.58v7.771c0 0.201 0.163 0.364 0.364 0.364s0.364-0.163 0.364-0.364v-7.771l2.58 2.58c0.070 0.070 0.163 0.108 0.256 0.108s0.186-0.039 0.256-0.108c0.139-0.139 0.139-0.372 0-0.511l-3.2-3.2c0 0 0 0-0.008 0-0.031-0.031-0.070-0.054-0.116-0.077-0.085-0.039-0.186-0.039-0.279 0-0.039 0.015-0.077 0.046-0.116 0.077 0 0 0 0-0.008 0l-3.2 3.2c-0.139 0.139-0.139 0.372 0 0.511 0.155 0.147 0.387 0.147 0.527 0z"></path>
<path fill="#fff" d="M19.386 9.77c0 0.008 0 0.008 0 0 0.039 0.039 0.077 0.062 0.116 0.077 0.047 0.015 0.093 0.031 0.139 0.031s0.093-0.008 0.139-0.031c0.039-0.015 0.077-0.046 0.116-0.077 0 0 0 0 0.008 0l3.2-3.2c0.139-0.139 0.139-0.372 0-0.511s-0.372-0.139-0.511 0l-2.58 2.58v-7.771c0-0.201-0.163-0.364-0.364-0.364s-0.364 0.163-0.364 0.364v7.771l-2.58-2.58c-0.139-0.139-0.372-0.139-0.511 0s-0.139 0.372 0 0.511l3.192 3.2z"></path>
<path fill="#fff" d="M12.366 16.403c0.845 0 1.534-0.69 1.534-1.534s-0.69-1.534-1.534-1.534-1.534 0.69-1.534 1.534 0.69 1.534 1.534 1.534zM12.366 14.063c0.442 0 0.806 0.364 0.806 0.806s-0.364 0.806-0.806 0.806-0.806-0.364-0.806-0.806 0.364-0.806 0.806-0.806z"></path>
<path fill="#fff" d="M15.279 18.782c0-0.519-0.155-0.938-0.457-1.24-0.442-0.434-1.023-0.434-1.077-0.434h-2.743c-0.054 0-0.643 0-1.085 0.434-0.302 0.294-0.457 0.713-0.457 1.24v3.123c0 0.047-0.008 0.48 0.302 0.806 0.139 0.139 0.387 0.31 0.798 0.31h0.24v5.315c0 0.054-0.023 0.566 0.325 0.938 0.147 0.155 0.418 0.349 0.883 0.349h0.744c0.457 0 0.728-0.186 0.883-0.349 0.349-0.372 0.325-0.876 0.325-0.914v-5.338h0.24c0.411 0 0.666-0.17 0.798-0.31 0.31-0.318 0.302-0.752 0.302-0.79v-3.138h-0.023zM14.458 22.206c-0.023 0.023-0.085 0.085-0.271 0.085h-0.604c-0.201 0-0.364 0.163-0.364 0.364v5.718c0 0.070-0.015 0.279-0.132 0.395-0.077 0.077-0.186 0.116-0.349 0.116h-0.744c-0.163 0-0.271-0.039-0.349-0.116-0.116-0.116-0.132-0.325-0.132-0.418v-5.703c0-0.201-0.163-0.364-0.364-0.364h-0.604c-0.186 0-0.256-0.062-0.271-0.085-0.085-0.085-0.101-0.232-0.101-0.287v-3.138c0-0.318 0.077-0.558 0.232-0.713 0.225-0.225 0.558-0.232 0.573-0.232v0h2.758c0.008 0 0.341 0.008 0.566 0.225 0.163 0.155 0.24 0.395 0.24 0.721v3.146c0.008 0.062-0.008 0.209-0.085 0.287z"></path>
<path fill="#fff" d="M19.634 16.403c0.845 0 1.534-0.69 1.534-1.534s-0.69-1.534-1.534-1.534c-0.845 0-1.534 0.69-1.534 1.534s0.69 1.534 1.534 1.534zM19.634 14.063c0.442 0 0.806 0.364 0.806 0.806s-0.364 0.806-0.806 0.806c-0.442 0-0.806-0.364-0.806-0.806s0.364-0.806 0.806-0.806z"></path>
<path fill="#fff" d="M22.547 21.92v-3.138c0-0.519-0.155-0.938-0.457-1.24-0.442-0.434-1.023-0.434-1.077-0.434h-2.743c-0.062 0-0.643 0-1.085 0.434-0.302 0.294-0.457 0.713-0.457 1.24v3.123c0 0.047-0.008 0.48 0.302 0.806 0.077 0.085 0.201 0.178 0.372 0.24l-0.558 2.913c-0.023 0.108 0.008 0.217 0.077 0.302s0.17 0.132 0.279 0.132h0.868v2.038c0 0.054-0.023 0.566 0.325 0.938 0.147 0.155 0.418 0.349 0.883 0.349h0.744c0.457 0 0.728-0.186 0.883-0.349 0.349-0.372 0.325-0.876 0.325-0.914v-2.061h0.868c0.108 0 0.209-0.047 0.279-0.132s0.101-0.194 0.077-0.302l-0.558-2.913c0.17-0.062 0.294-0.155 0.372-0.24 0.287-0.318 0.287-0.752 0.279-0.79zM21.726 22.206c-0.023 0.023-0.085 0.085-0.271 0.085-0.108 0-0.209 0.047-0.279 0.132s-0.101 0.194-0.077 0.302l0.542 2.844h-0.79c-0.201 0-0.364 0.163-0.364 0.364v2.441c0 0.070-0.015 0.279-0.132 0.395-0.077 0.077-0.186 0.116-0.349 0.116h-0.744c-0.163 0-0.271-0.039-0.349-0.116-0.116-0.116-0.132-0.325-0.132-0.418v-2.425c0-0.201-0.163-0.364-0.364-0.364h-0.79l0.542-2.844c0.023-0.108-0.008-0.217-0.077-0.302s-0.17-0.132-0.279-0.132c-0.186 0-0.256-0.062-0.271-0.085-0.085-0.085-0.101-0.232-0.101-0.287v-3.138c0-0.318 0.077-0.558 0.232-0.713 0.232-0.232 0.573-0.232 0.573-0.232h2.758c0.008 0 0.341 0.008 0.566 0.225 0.163 0.155 0.24 0.395 0.24 0.721v3.146c0.015 0.062-0.008 0.209-0.085 0.287z"></path>
</svg>
