<!-- Generated by IcoMoon.io -->
<svg version="1.1" xmlns="http://www.w3.org/2000/svg" width="32" height="32" viewBox="0 0 32 32">
<title>light-bulb</title>
<path fill="#fff" d="M16.023 6.64c-4.571 0-8.291 3.719-8.291 8.291 0 2.596 1.232 5.052 3.308 6.617v6.787c0 0.17 0.139 0.31 0.31 0.31h1.526c0.155 1.596 1.511 2.851 3.146 2.851 1.643 0 2.991-1.255 3.146-2.851h1.402c0.17 0 0.31-0.139 0.31-0.31v-6.687c2.154-1.557 3.432-4.060 3.432-6.718 0-4.571-3.719-8.291-8.291-8.291zM16.023 30.877c-1.302 0-2.371-0.976-2.526-2.239h5.044c-0.147 1.263-1.216 2.239-2.518 2.239zM11.661 28.025v-1.898h8.6v1.898h-8.6zM20.393 21.23c-0.085 0.054-0.132 0.155-0.132 0.256v1.488h-3.944c0.008-0.023 0.015-0.039 0.015-0.062v-5.501c0-0.17-0.139-0.31-0.31-0.31-1.193 0-2.169-0.976-2.169-2.169s0.969-2.169 2.169-2.169 2.169 0.976 2.169 2.169c0 0.17 0.139 0.31 0.31 0.31s0.31-0.139 0.31-0.31c0-1.534-1.247-2.782-2.782-2.782s-2.782 1.247-2.782 2.782c0 1.433 1.085 2.611 2.479 2.766v5.215c0 0.023 0.008 0.039 0.015 0.062h-2.177c-0.17 0-0.31 0.139-0.31 0.31s0.139 0.31 0.31 0.31h6.718v1.922h-8.6v-4.114c0-0.101-0.046-0.194-0.124-0.248-1.991-1.441-3.184-3.766-3.184-6.214 0-4.231 3.44-7.671 7.671-7.671s7.671 3.44 7.671 7.671c-0.023 2.503-1.255 4.858-3.324 6.292z"></path>
<path fill="#fff" d="M29.892 14.396h-3.525c-0.17 0-0.31 0.139-0.31 0.31s0.139 0.31 0.31 0.31h3.525c0.17 0 0.31-0.139 0.31-0.31s-0.139-0.31-0.31-0.31z"></path>
<path fill="#fff" d="M5.679 14.396h-3.572c-0.17 0-0.31 0.139-0.31 0.31s0.139 0.31 0.31 0.31h3.58c0.17 0 0.31-0.139 0.31-0.31s-0.147-0.31-0.318-0.31z"></path>
<path fill="#fff" d="M28.304 7.609c-0.085-0.147-0.279-0.201-0.418-0.116l-3.076 1.774c-0.147 0.085-0.201 0.271-0.116 0.418 0.054 0.101 0.163 0.155 0.271 0.155 0.054 0 0.108-0.015 0.155-0.039l3.076-1.774c0.139-0.085 0.194-0.271 0.108-0.418z"></path>
<path fill="#fff" d="M21.005 6.036c0.047 0.031 0.101 0.039 0.155 0.039 0.108 0 0.209-0.054 0.271-0.155l1.79-3.099c0.085-0.147 0.031-0.333-0.116-0.418s-0.333-0.031-0.418 0.116l-1.79 3.099c-0.093 0.147-0.039 0.333 0.108 0.418z"></path>
<path fill="#fff" d="M16 4.719c0.17 0 0.31-0.139 0.31-0.31v-3.595c0-0.17-0.139-0.31-0.31-0.31s-0.31 0.139-0.31 0.31v3.595c0 0.17 0.139 0.31 0.31 0.31z"></path>
<path fill="#fff" d="M10.584 5.951c0.054 0.101 0.163 0.155 0.271 0.155 0.054 0 0.108-0.016 0.155-0.039 0.147-0.085 0.201-0.271 0.116-0.418l-1.805-3.123c-0.085-0.147-0.271-0.201-0.418-0.116s-0.201 0.271-0.116 0.418l1.798 3.123z"></path>
<path fill="#fff" d="M7.237 9.29l-3.115-1.798c-0.147-0.085-0.333-0.031-0.418 0.116s-0.031 0.333 0.116 0.418l3.115 1.798c0.046 0.031 0.101 0.039 0.155 0.039 0.108 0 0.209-0.054 0.271-0.155 0.070-0.139 0.023-0.333-0.124-0.418z"></path>
</svg>
