<!-- Generated by IcoMoon.io -->
<svg version="1.1" xmlns="http://www.w3.org/2000/svg" width="32" height="32" viewBox="0 0 32 32">
<title>like</title>
<path fill="#fff" d="M21.927 11.064c2.844 0 5.153-2.309 5.153-5.153s-2.309-5.153-5.153-5.153-5.153 2.309-5.153 5.153 2.317 5.153 5.153 5.153zM21.927 1.674c2.34 0 4.238 1.906 4.238 4.238 0 2.34-1.906 4.238-4.238 4.238-2.34 0-4.238-1.906-4.238-4.238 0-2.34 1.898-4.238 4.238-4.238z"></path>
<path fill="#fff" d="M25.073 11.855h-6.447c-0.248 0-0.457 0.201-0.457 0.457s0.201 0.457 0.457 0.457h6.447c3.092 0 5.517 2.417 5.517 5.509v6.95c0 0.248 0.201 0.457 0.457 0.457 0.248 0 0.457-0.201 0.457-0.457v-6.95c-0.008-3.603-2.828-6.423-6.431-6.423z"></path>
<path fill="#fff" d="M10.468 15.62c2.844 0 5.153-2.309 5.153-5.153s-2.309-5.153-5.153-5.153-5.153 2.309-5.153 5.153c0 2.836 2.309 5.153 5.153 5.153zM10.468 6.222c2.34 0 4.238 1.906 4.238 4.238 0 2.34-1.906 4.238-4.238 4.238-2.34 0-4.238-1.906-4.238-4.238s1.898-4.238 4.238-4.238z"></path>
<path fill="#fff" d="M23.407 19.324c-0.015 0-0.039 0-0.054 0-1.418 0.015-2.72 0.527-3.742 1.371-0.821-2.596-3.138-4.293-5.997-4.293h-6.447c-3.673 0-6.663 2.882-6.663 6.415v2.394c0 0.248 0.201 0.457 0.457 0.457h16.457c0.077 1.426 0.666 2.751 1.681 3.781 1.131 1.147 2.642 1.774 4.254 1.774 3.285 0 5.958-2.673 5.958-5.958 0-1.612-0.628-3.115-1.774-4.254-1.108-1.085-2.572-1.689-4.13-1.689zM1.41 22.826c0-3.037 2.58-5.509 5.749-5.509h6.447c2.603 0 4.688 1.643 5.253 4.114-0.79 0.914-1.309 2.069-1.433 3.339h-16.015v-1.945zM23.353 30.326c-1.364 0-2.65-0.535-3.611-1.503-0.945-0.953-1.449-2.208-1.433-3.533 0.031-2.758 2.293-5.021 5.052-5.052 0.015 0 0.031 0 0.047 0 1.309 0 2.549 0.511 3.494 1.441 0.969 0.961 1.503 2.239 1.503 3.603 0 2.782-2.27 5.044-5.052 5.044z"></path>
<path fill="#fff" d="M26.414 24.763h-2.572v-2.526c0-0.248-0.201-0.457-0.457-0.457-0.248 0-0.457 0.201-0.457 0.457v2.526h-2.627c-0.248 0-0.457 0.201-0.457 0.457 0 0.248 0.201 0.457 0.457 0.457h2.627v2.603c0 0.248 0.201 0.457 0.457 0.457 0.248 0 0.457-0.201 0.457-0.457v-2.611h2.572c0.248 0 0.457-0.201 0.457-0.457 0-0.248-0.209-0.449-0.457-0.449z"></path>
</svg>
