<!-- Generated by IcoMoon.io -->
<svg version="1.1" xmlns="http://www.w3.org/2000/svg" width="32" height="32" viewBox="0 0 32 32">
<title>limo</title>
<path fill="#fff" d="M31.419 16.457l-0.248-0.527c-0.225-0.488-0.682-0.829-1.209-0.907l-4.354-0.666c-0.108-0.015-0.217-0.054-0.31-0.101l-2.022-1.1c-0.411-0.225-0.876-0.341-1.348-0.341h-14.241c-0.38 0-0.752 0.093-1.085 0.263l-2.541 1.294c-0.147 0.070-0.294 0.116-0.457 0.139l-2.084 0.24c-0.349 0.039-0.628 0.294-0.697 0.635l-0.294 1.402c-0.077 0.372 0.147 0.728 0.519 0.821l1.619 0.395c0.015 0 0.031 0.008 0.039 0.008 0.077 0 0.155-0.054 0.17-0.132 0.023-0.093-0.039-0.194-0.132-0.217l-1.619-0.395c-0.178-0.047-0.294-0.225-0.256-0.403l0.294-1.402c0.039-0.194 0.201-0.333 0.395-0.356l2.084-0.24c0.201-0.023 0.395-0.085 0.581-0.17l2.541-1.294c0.287-0.147 0.604-0.225 0.93-0.225h14.233c0.411 0 0.821 0.101 1.178 0.302l2.022 1.1c0.132 0.070 0.279 0.124 0.426 0.147l4.354 0.666c0.411 0.062 0.767 0.325 0.945 0.705l0.248 0.527c0.054 0.124 0.054 0.263-0.008 0.38-0.062 0.124-0.17 0.209-0.302 0.24l-1.379 0.31c-0.008 0-0.008 0.008-0.015 0.008-0.015 0-0.023 0.008-0.031 0.015s-0.015 0.008-0.023 0.015c-0.008 0.008-0.015 0.015-0.023 0.023s-0.015 0.015-0.015 0.031c-0.008 0.008-0.008 0.023-0.015 0.031 0 0.008-0.008 0.023-0.008 0.031s0 0.008 0 0.015c0 0.62-0.504 1.131-1.131 1.131-0.62 0-1.131-0.504-1.131-1.131 0-0.62 0.504-1.131 1.131-1.131 0.101 0 0.178-0.077 0.178-0.178s-0.077-0.178-0.178-0.178c-0.821 0-1.488 0.666-1.488 1.488s0.666 1.488 1.488 1.488c0.767 0 1.402-0.589 1.48-1.34l1.247-0.279c0.24-0.054 0.434-0.209 0.542-0.426 0.101-0.248 0.108-0.496 0-0.713z"></path>
<path fill="#fff" d="M24.724 15.148c0.070 0 0.139-0.046 0.163-0.116s0.008-0.147-0.047-0.194c-0.008-0.008-0.023-0.015-0.039-0.023l-1.922-1.201c-0.325-0.178-0.697-0.271-1.069-0.271h-0.728c-0.101 0-0.178 0.077-0.178 0.178v1.449c0 0.101 0.077 0.178 0.178 0.178h3.642zM21.261 13.699h0.55c0.318 0 0.628 0.077 0.891 0.225l1.402 0.876h-2.844v-1.1z"></path>
<path fill="#fff" d="M20.533 15.148c0.101 0 0.178-0.077 0.178-0.178v-1.449c0-0.101-0.077-0.178-0.178-0.178h-4.393c-0.101 0-0.178 0.077-0.178 0.178v1.449c0 0.101 0.077 0.178 0.178 0.178h4.393zM16.318 13.699h4.037v1.092h-4.037v-1.092z"></path>
<path fill="#fff" d="M15.589 15.148c0.101 0 0.178-0.077 0.178-0.178v-1.449c0-0.101-0.077-0.178-0.178-0.178h-6.261c-0.101 0-0.178 0.077-0.178 0.178v1.449c0 0.101 0.077 0.178 0.178 0.178h6.261zM9.499 13.699h5.912v1.092h-5.912c0 0 0-1.092 0-1.092z"></path>
<path fill="#fff" d="M6.082 15.148h2.681c0.101 0 0.178-0.077 0.178-0.178v-1.449c0-0.101-0.077-0.178-0.178-0.178h-0.961c-0.302 0-0.604 0.070-0.868 0.209l-0.938 0.48c-0.062 0.031-0.101 0.093-0.101 0.155v0.783c0.008 0.101 0.093 0.178 0.186 0.178zM6.261 14.295l0.845-0.426c0.217-0.108 0.457-0.17 0.705-0.17h0.783v1.092h-2.332v-0.496z"></path>
<path fill="#fff" d="M26.049 17.526h-20.114c-0.101 0-0.178 0.077-0.178 0.178 0 0.62-0.504 1.131-1.131 1.131-0.62 0-1.131-0.504-1.131-1.131 0-0.62 0.504-1.131 1.131-1.131 0.101 0 0.178-0.077 0.178-0.178s-0.077-0.178-0.178-0.178c-0.821 0-1.488 0.666-1.488 1.488s0.666 1.488 1.488 1.488c0.759 0 1.387-0.573 1.472-1.309h19.944c0.101 0 0.178-0.077 0.178-0.178s-0.077-0.178-0.17-0.178z"></path>
</svg>
