<!-- Generated by IcoMoon.io -->
<svg version="1.1" xmlns="http://www.w3.org/2000/svg" width="32" height="32" viewBox="0 0 32 32">
<title>linkedin</title>
<path fill="#fff" d="M7.981 10.522h-7.012c-0.256 0-0.465 0.209-0.465 0.465v20.045c0 0.256 0.209 0.465 0.465 0.465h7.012c0.256 0 0.465-0.209 0.465-0.465v-20.045c0-0.256-0.209-0.465-0.465-0.465zM7.516 30.567h-6.082v-19.115h6.082v19.115z"></path>
<path fill="#fff" d="M4.478 0.504c-2.193 0-3.975 1.782-3.975 3.967 0 2.193 1.782 3.975 3.975 3.975s3.967-1.782 3.967-3.967c0-2.193-1.782-3.975-3.967-3.975zM4.478 7.516c-1.681 0-3.045-1.364-3.045-3.045s1.364-3.045 3.045-3.045 3.037 1.371 3.037 3.053c0 1.674-1.364 3.037-3.037 3.037z"></path>
<path fill="#fff" d="M23.562 10.522c-2.386 0-4.323 0.674-5.517 1.883v-1.418c0-0.256-0.209-0.465-0.465-0.465h-5.586c-0.256 0-0.465 0.209-0.465 0.465v20.045c0 0.256 0.209 0.465 0.465 0.465h5.842c0.256 0 0.465-0.209 0.465-0.465v-9.933c0-3.332 0.945-4.695 3.27-4.695 2.479 0 2.983 1.945 2.983 4.858v9.763c0 0.256 0.209 0.465 0.465 0.465h6.013c0.256 0 0.465-0.209 0.465-0.465v-11.010c0-5.695-1.348-9.492-7.934-9.492zM30.567 30.567h-5.083v-9.298c0-1.736 0-5.788-3.913-5.788-4.2 0-4.2 4.083-4.2 5.617v9.468h-4.912v-19.115h4.657v2.239c0 0.256 0.209 0.465 0.465 0.465h0.085c0.17 0 0.333-0.093 0.411-0.248 0.814-1.542 2.859-2.456 5.486-2.456 5.858 0 7.004 3.138 7.004 8.562v10.553z"></path>
</svg>
