<!-- Generated by IcoMoon.io -->
<svg version="1.1" xmlns="http://www.w3.org/2000/svg" width="32" height="32" viewBox="0 0 32 32">
<title>lost-luggage</title>
<path fill="#fff" d="M31.264 21.664v-12.273c0-1.689-1.371-3.061-3.061-3.061h-6.253v-0.992c0-1.774-1.201-3.061-2.859-3.061h-6.013c-1.736 0-3.262 1.433-3.262 3.061v0.984h-6.253c-1.689 0-3.061 1.371-3.061 3.061v14.977c0 1.697 1.371 3.068 3.061 3.068h16.651c1.17 1.402 2.929 2.293 4.897 2.293 3.518 0 6.384-2.867 6.384-6.384 0-0.581-0.085-1.139-0.232-1.674zM10.677 5.338c0-1.17 1.123-2.2 2.402-2.2h6.013c1.178 0 1.999 0.907 1.999 2.2v0.984h-10.414v-0.984zM3.564 26.569c-1.216 0-2.2-0.984-2.2-2.2v-14.977c0-1.216 0.984-2.2 2.2-2.2h24.639c1.216 0 2.2 0.984 2.2 2.2v10.383c-1.147-1.697-3.092-2.82-5.292-2.82-3.518 0-6.384 2.867-6.384 6.384 0 1.178 0.325 2.278 0.883 3.231h-16.047zM25.112 28.862c-3.045 0-5.524-2.479-5.524-5.524s2.479-5.524 5.524-5.524 5.524 2.479 5.524 5.524-2.479 5.524-5.524 5.524z"></path>
<path fill="#fff" d="M25.205 19.277c-0.449 0-0.961 0.039-1.441 0.225-0.163 0.062-0.178 0.139-0.155 0.263l0.062 0.318c0.023 0.085 0.070 0.155 0.225 0.139 0.387-0.039 0.883-0.085 1.278-0.085 0.961 0 1.371 0.271 1.371 1.007 0 0.403-0.263 0.589-0.604 0.86-0.759 0.612-1.441 1.216-1.441 2.286 0 0.186 0 0.511 0.047 0.806 0.023 0.132 0.070 0.178 0.201 0.178h0.449c0.116 0 0.139-0.085 0.139-0.201-0.015-0.178-0.015-0.519-0.015-0.659 0-0.86 0.473-1.286 1.131-1.782 0.449-0.333 0.945-0.721 0.945-1.534 0.008-1.154-0.721-1.821-2.193-1.821z"></path>
<path fill="#fff" d="M25.019 26.228c-0.434 0-0.542 0.24-0.542 0.542 0 0.31 0.062 0.566 0.542 0.566 0.465 0 0.542-0.263 0.542-0.566 0-0.318-0.093-0.542-0.542-0.542z"></path>
</svg>
