<!-- Generated by IcoMoon.io -->
<svg version="1.1" xmlns="http://www.w3.org/2000/svg" width="32" height="32" viewBox="0 0 32 32">
<title>lounge-access</title>
<path fill="#fff" d="M27.909 13.939c-0.101 0-0.194 0.008-0.294 0.015v-1.891c0-6.369-5.184-11.553-11.553-11.553s-11.553 5.176-11.553 11.545v1.906c-0.139-0.015-0.279-0.031-0.418-0.031-1.805 0-3.277 1.472-3.277 3.277 0 1.038 0.488 2.007 1.325 2.627v8.957c0 0.767 0.628 1.395 1.395 1.395h0.775v0.86c0 0.248 0.201 0.449 0.449 0.449s0.449-0.201 0.449-0.449v-0.86h21.602v0.86c0 0.248 0.201 0.449 0.449 0.449s0.449-0.201 0.449-0.449v-0.86h0.775c0.767 0 1.395-0.628 1.395-1.395v-8.957c0.837-0.62 1.325-1.581 1.325-2.627-0.015-1.805-1.488-3.27-3.293-3.27zM5.408 12.056c0-5.873 4.781-10.654 10.654-10.654s10.654 4.781 10.654 10.654v2.107c-1.224 0.48-2.092 1.666-2.092 3.053v1.836c-0.139-0.047-0.287-0.077-0.442-0.077h-16.372c-0.155 0-0.302 0.031-0.442 0.077v-1.836c0-1.34-0.806-2.495-1.96-2.999v-2.162zM24.631 22.78h-17.263v-2.472c0-0.24 0.194-0.442 0.442-0.442h16.38c0.24 0 0.442 0.201 0.442 0.442v2.472zM7.369 23.678h17.263v5.61h-17.263v-5.61zM5.447 29.288h-1.922c-0.271 0-0.496-0.225-0.496-0.496v-9.189c0-0.155-0.077-0.294-0.209-0.38-0.697-0.442-1.116-1.193-1.116-2.007 0-1.317 1.069-2.379 2.379-2.379 1.317 0 2.379 1.069 2.379 2.379v12.072h-1.015zM29.18 19.223c-0.132 0.085-0.209 0.225-0.209 0.38v9.189c0 0.271-0.225 0.496-0.496 0.496h-2.944v-12.072c0-1.317 1.069-2.379 2.379-2.379s2.379 1.069 2.379 2.379c0.008 0.814-0.411 1.565-1.108 2.007z"></path>
<path fill="#fff" d="M10.832 12.537c0.085 0.085 0.201 0.132 0.318 0.132s0.232-0.046 0.318-0.132l0.736-0.736 0.736 0.736c0.085 0.085 0.201 0.132 0.318 0.132s0.232-0.046 0.318-0.132c0.178-0.178 0.178-0.457 0-0.635l-0.736-0.736 0.736-0.736c0.178-0.178 0.178-0.457 0-0.635s-0.457-0.178-0.635 0l-0.736 0.736-0.736-0.736c-0.178-0.178-0.457-0.178-0.635 0s-0.178 0.457 0 0.635l0.736 0.736-0.736 0.736c-0.178 0.178-0.178 0.465 0 0.635z"></path>
<path fill="#fff" d="M18.402 12.537c0.085 0.085 0.201 0.132 0.318 0.132s0.232-0.046 0.318-0.132l0.736-0.736 0.736 0.736c0.085 0.085 0.201 0.132 0.318 0.132s0.232-0.046 0.318-0.132c0.178-0.178 0.178-0.457 0-0.635l-0.736-0.736 0.736-0.736c0.178-0.178 0.178-0.457 0-0.635s-0.457-0.178-0.635 0l-0.736 0.736-0.736-0.736c-0.178-0.178-0.457-0.178-0.635 0s-0.178 0.457 0 0.635l0.736 0.736-0.736 0.736c-0.178 0.178-0.178 0.465 0 0.635z"></path>
</svg>
