<!-- Generated by IcoMoon.io -->
<svg version="1.1" xmlns="http://www.w3.org/2000/svg" width="32" height="32" viewBox="0 0 32 32">
<title>luggage-02</title>
<path fill="#fff" d="M28.428 7.415h-6.323v-1.015c0-1.782-1.209-3.068-2.867-3.068h-6.067c-1.743 0-3.277 1.433-3.277 3.068v1.015h-6.323c-1.689 0-3.068 1.379-3.068 3.068v15.109c0 1.689 1.379 3.068 3.068 3.068h24.848c1.697 0 3.068-1.379 3.068-3.068v-15.109c0.008-1.689-1.371-3.068-3.061-3.068zM10.731 6.4c0-1.193 1.139-2.239 2.441-2.239h6.067c1.201 0 2.038 0.922 2.038 2.239v1.015h-10.545v-1.015zM30.667 25.6c0 1.232-1.007 2.239-2.239 2.239h-24.856c-1.232 0-2.239-1.007-2.239-2.239v-15.109c0-1.232 1.007-2.239 2.239-2.239h24.848c1.232 0 2.239 1.007 2.239 2.239l0.008 15.109z"></path>
</svg>
