<!-- Generated by IcoMoon.io -->
<svg version="1.1" xmlns="http://www.w3.org/2000/svg" width="32" height="32" viewBox="0 0 32 32">
<title>luggage-01</title>
<path fill="#fff" d="M24.593 8.693c0-2.107-1.689-3.161-3.58-3.68v-2.193h0.217c0.635 0 1.162-0.519 1.162-1.162 0-0.635-0.519-1.162-1.162-1.162h-10.437c-0.635 0-1.162 0.519-1.162 1.162 0 0.635 0.519 1.162 1.162 1.162h0.194v2.193c-1.891 0.519-3.58 1.573-3.58 3.68v17.426c0 1.131 0.914 2.046 2.046 2.046h13.102c1.131 0 2.046-0.914 2.046-2.046l-0.008-17.426zM10.793 1.968c-0.17 0-0.31-0.139-0.31-0.31s0.139-0.31 0.31-0.31h10.437c0.17 0 0.31 0.139 0.31 0.31s-0.139 0.31-0.31 0.31h-10.437zM20.169 2.82v1.999c-1.216-0.232-2.417-0.287-3.239-0.287h-1.86c-0.821 0-2.022 0.054-3.239 0.287v-1.999h8.337zM22.555 27.312h-13.11c-0.659 0-1.193-0.535-1.193-1.193v-17.426c0-2.991 4.765-3.316 6.818-3.316h1.86c2.053 0 6.818 0.325 6.818 3.316v17.426c0 0.659-0.535 1.193-1.193 1.193z"></path>
<path fill="#fff" d="M21.579 23.105h-3.735c-0.449 0-0.821 0.372-0.821 0.821v1.224c0 0.449 0.372 0.821 0.821 0.821h3.735c0.449 0 0.821-0.372 0.821-0.821v-1.224c0-0.449-0.364-0.821-0.821-0.821zM21.548 25.12l-3.68 0.031-0.031-1.193 3.704-0.031v1.193h0.008z"></path>
<path fill="#fff" d="M11.87 28.947h-0.697c-0.511 0-0.922 0.411-0.922 0.922v0.697c0 0.511 0.418 0.922 0.922 0.922h0.697c0.511 0 0.922-0.418 0.922-0.922v-0.697c0-0.504-0.411-0.922-0.922-0.922zM11.948 30.574c0 0.039-0.031 0.077-0.077 0.077h-0.697c-0.039 0-0.077-0.031-0.077-0.077v-0.697c0-0.039 0.031-0.077 0.077-0.077h0.697c0.039 0 0.077 0.031 0.077 0.077v0.697z"></path>
<path fill="#fff" d="M21.091 28.947h-0.697c-0.511 0-0.922 0.411-0.922 0.922v0.697c0 0.511 0.411 0.922 0.922 0.922h0.697c0.511 0 0.922-0.418 0.922-0.922v-0.697c0.008-0.504-0.411-0.922-0.922-0.922zM21.168 30.574c0 0.039-0.031 0.077-0.077 0.077h-0.697c-0.039 0-0.077-0.031-0.077-0.077v-0.697c0-0.039 0.031-0.077 0.077-0.077h0.697c0.039 0 0.077 0.031 0.077 0.077v0.697z"></path>
</svg>
