<!-- Generated by IcoMoon.io -->
<svg version="1.1" xmlns="http://www.w3.org/2000/svg" width="32" height="32" viewBox="0 0 32 32">
<title>machine-learning</title>
<path fill="#fff" d="M22.307 13.087c-0.558-2.417-2.115-3.75-2.441-4.014-0.070-0.256-0.178-0.511-0.349-0.759-0.612-0.876-1.813-1.317-3.556-1.317-1.736 0-2.906 0.442-3.487 1.302-0.17 0.263-0.279 0.535-0.333 0.798-0.395 0.318-1.875 1.65-2.41 3.983-0.341 1.48-0.085 2.448 0.062 2.844-0.612 0.876-1.1 2.216-1.1 4.277 0 2.975 2.107 4.719 5.78 4.781 0.008 0 0.023 0 0.031 0 0.473 0 0.922-0.186 1.271-0.519 0.070-0.070 0.132-0.147 0.186-0.225 0.054 0.077 0.116 0.155 0.186 0.225 0.341 0.341 0.79 0.519 1.271 0.519 0.008 0 0.023 0 0.031 0 3.673-0.062 5.78-1.805 5.78-4.781 0-1.976-0.442-3.301-1.015-4.176 0.124-0.287 0.473-1.302 0.093-2.937zM17.433 24.244c-0.294 0-0.558-0.108-0.759-0.31-0.217-0.209-0.333-0.496-0.333-0.806v-1.263c0.511 0.612 1.294 1.147 2.379 1.147 0.008 0 0.008 0 0.015 0 1.007-0.008 1.79-0.318 2.332-0.922 0.93-1.038 0.775-2.557 0.767-2.619-0.023-0.201-0.209-0.356-0.411-0.333s-0.356 0.209-0.333 0.411c0 0.015 0.124 1.247-0.581 2.038-0.395 0.442-0.992 0.666-1.774 0.674h-0.008c-1.751 0-2.332-1.774-2.355-1.852-0.008-0.015-0.015-0.023-0.023-0.039v-11.46c0-0.209-0.17-0.372-0.372-0.372-0.209 0-0.372 0.17-0.372 0.372v11.553c-0.101 0.279-0.728 1.805-2.34 1.805h-0.008c-0.783 0-1.379-0.232-1.774-0.666-0.705-0.783-0.589-2.022-0.581-2.046 0.023-0.201-0.124-0.387-0.333-0.411s-0.387 0.124-0.411 0.333c-0.008 0.062-0.163 1.581 0.767 2.619 0.542 0.604 1.325 0.922 2.332 0.922 0.008 0 0.008 0 0.015 0 1.062 0 1.829-0.511 2.34-1.1v1.216c0 0.31-0.116 0.597-0.333 0.806-0.209 0.201-0.473 0.302-0.759 0.31-4.169-0.070-5.044-2.231-5.044-4.037 0-3.44 1.426-4.595 2.278-4.982 0.186-0.085 0.271-0.31 0.186-0.496s-0.31-0.271-0.496-0.186c-0.302 0.139-0.666 0.356-1.030 0.697-0.085-0.418-0.124-1.085 0.077-1.991 0.341-1.488 1.123-2.534 1.666-3.107 0.054 0.356 0.155 0.604 0.163 0.628 0.077 0.194 0.294 0.279 0.488 0.201s0.287-0.294 0.209-0.488c-0.008-0.008-0.395-1.015 0.116-1.774 0.426-0.635 1.418-0.969 2.867-0.969 1.48 0 2.472 0.333 2.944 0.992 0.542 0.759 0.201 1.751 0.201 1.759-0.070 0.194 0.031 0.411 0.225 0.48 0.039 0.015 0.085 0.023 0.124 0.023 0.155 0 0.294-0.093 0.349-0.248 0.008-0.023 0.085-0.256 0.132-0.597 0.535 0.573 1.302 1.612 1.643 3.092 0.225 0.976 0.155 1.674 0.062 2.084-0.457-0.457-0.938-0.721-1.325-0.868-0.194-0.070-0.411 0.023-0.48 0.217-0.077 0.194 0.023 0.411 0.217 0.48 0.907 0.349 2.433 1.464 2.433 5.044-0.047 1.805-0.922 3.967-5.091 4.037z"></path>
<path fill="#fff" d="M14.419 12.25c0.775-0.984 0.178-2.123 0.155-2.169-0.101-0.178-0.325-0.248-0.504-0.155-0.186 0.093-0.256 0.325-0.155 0.504 0.015 0.031 0.387 0.759-0.077 1.356-0.837 1.062-1.596 0.752-1.619 0.736-0.186-0.093-0.411-0.008-0.496 0.178s-0.008 0.411 0.178 0.496c0.023 0.008 0.271 0.124 0.635 0.124 0.263 0 0.589-0.062 0.945-0.248 0.155 0.17 0.945 1.139 0.349 2.596-0.728 1.774-2.495 1.534-2.572 1.526-0.201-0.031-0.395 0.108-0.426 0.31s0.108 0.395 0.31 0.426c0.116 0.015 0.248 0.031 0.395 0.031 0.465 0 1.062-0.108 1.619-0.426 0.070 0.17 0.163 0.488 0.163 0.969 0 0.612-0.232 0.914-0.24 0.922-0.132 0.155-0.116 0.395 0.046 0.527 0.070 0.062 0.155 0.085 0.24 0.085 0.108 0 0.209-0.047 0.287-0.132 0.039-0.047 0.418-0.519 0.418-1.402 0-0.744-0.178-1.201-0.302-1.426 0.294-0.287 0.558-0.651 0.752-1.123 0.713-1.743-0.124-2.952-0.442-3.324 0.108-0.116 0.225-0.232 0.341-0.38z"></path>
<path fill="#fff" d="M20.703 17.185c-0.077 0.015-1.836 0.263-2.572-1.526-0.597-1.457 0.186-2.41 0.349-2.596 0.356 0.186 0.682 0.248 0.945 0.248 0.372 0 0.612-0.108 0.635-0.124 0.186-0.085 0.263-0.302 0.178-0.488s-0.302-0.271-0.488-0.186c-0.031 0.015-0.79 0.325-1.627-0.736-0.465-0.597-0.101-1.325-0.077-1.356 0.093-0.178 0.023-0.411-0.155-0.504-0.186-0.101-0.411-0.031-0.504 0.155-0.023 0.046-0.62 1.185 0.155 2.169 0.116 0.147 0.232 0.263 0.349 0.38-0.318 0.372-1.154 1.581-0.442 3.324 0.194 0.473 0.457 0.845 0.752 1.123-0.124 0.225-0.302 0.682-0.302 1.426 0 0.891 0.372 1.356 0.418 1.402 0.070 0.085 0.178 0.132 0.279 0.132 0.085 0 0.17-0.031 0.24-0.085 0.155-0.132 0.178-0.364 0.054-0.527-0.008-0.015-0.24-0.318-0.24-0.93 0-0.48 0.093-0.79 0.163-0.969 0.558 0.318 1.154 0.426 1.619 0.426 0.147 0 0.279-0.008 0.395-0.031 0.201-0.031 0.341-0.225 0.31-0.426s-0.225-0.325-0.434-0.302z"></path>
<path fill="#fff" d="M24.771 5.106h-17.619c-1.139 0-2.076 0.93-2.076 2.076v17.627c0 1.139 0.93 2.076 2.076 2.076h17.627c1.147 0 2.076-0.93 2.076-2.076v-17.635c-0.008-1.139-0.938-2.069-2.084-2.069zM26.096 24.802c0 0.728-0.597 1.325-1.325 1.325h-17.619c-0.728 0-1.325-0.597-1.325-1.325v-17.627c0-0.728 0.597-1.325 1.325-1.325h17.627c0.728 0 1.325 0.597 1.325 1.325v17.627h-0.008z"></path>
<path fill="#fff" d="M9.306 3.89c0.209 0 0.372-0.17 0.372-0.372v-2.642c0-0.209-0.17-0.372-0.372-0.372-0.209 0-0.372 0.17-0.372 0.372v2.642c0 0.209 0.163 0.372 0.372 0.372z"></path>
<path fill="#fff" d="M13.745 3.89c0.209 0 0.372-0.17 0.372-0.372v-2.642c0-0.209-0.17-0.372-0.372-0.372s-0.372 0.17-0.372 0.372v2.642c-0.008 0.209 0.163 0.372 0.372 0.372z"></path>
<path fill="#fff" d="M18.177 3.89c0.209 0 0.372-0.17 0.372-0.372v-2.642c0-0.209-0.17-0.372-0.372-0.372-0.209 0-0.372 0.17-0.372 0.372v2.642c0 0.209 0.163 0.372 0.372 0.372z"></path>
<path fill="#fff" d="M22.609 3.89c0.209 0 0.372-0.17 0.372-0.372v-2.642c0-0.209-0.17-0.372-0.372-0.372-0.209 0-0.372 0.17-0.372 0.372v2.642c0 0.209 0.17 0.372 0.372 0.372z"></path>
<path fill="#fff" d="M28.475 9.708h2.642c0.209 0 0.372-0.17 0.372-0.372 0-0.209-0.17-0.372-0.372-0.372h-2.642c-0.209 0-0.372 0.17-0.372 0.372-0.008 0.209 0.163 0.372 0.372 0.372z"></path>
<path fill="#fff" d="M31.109 13.397h-2.642c-0.209 0-0.372 0.17-0.372 0.372s0.17 0.372 0.372 0.372h2.642c0.209 0 0.372-0.17 0.372-0.372s-0.163-0.372-0.372-0.372z"></path>
<path fill="#fff" d="M31.109 17.836h-2.642c-0.209 0-0.372 0.17-0.372 0.372 0 0.209 0.17 0.372 0.372 0.372h2.642c0.209 0 0.372-0.17 0.372-0.372 0.008-0.209-0.163-0.372-0.372-0.372z"></path>
<path fill="#fff" d="M31.109 22.268h-2.642c-0.209 0-0.372 0.17-0.372 0.372 0 0.209 0.17 0.372 0.372 0.372h2.642c0.209 0 0.372-0.17 0.372-0.372 0.008-0.201-0.163-0.372-0.372-0.372z"></path>
<path fill="#fff" d="M3.525 8.965h-2.634c-0.209 0-0.372 0.17-0.372 0.372 0 0.209 0.17 0.372 0.372 0.372h2.642c0.209 0 0.372-0.17 0.372-0.372 0-0.209-0.17-0.372-0.38-0.372z"></path>
<path fill="#fff" d="M3.525 13.397h-2.634c-0.209 0-0.372 0.17-0.372 0.372s0.17 0.372 0.372 0.372h2.642c0.209 0 0.372-0.17 0.372-0.372s-0.17-0.372-0.38-0.372z"></path>
<path fill="#fff" d="M3.525 17.836h-2.634c-0.209 0-0.372 0.17-0.372 0.372 0 0.209 0.17 0.372 0.372 0.372h2.642c0.209 0 0.372-0.17 0.372-0.372 0-0.209-0.17-0.372-0.38-0.372z"></path>
<path fill="#fff" d="M3.525 22.268h-2.634c-0.209 0-0.372 0.17-0.372 0.372 0 0.209 0.17 0.372 0.372 0.372h2.642c0.209 0 0.372-0.17 0.372-0.372s-0.17-0.372-0.38-0.372z"></path>
<path fill="#fff" d="M22.609 28.11c-0.209 0-0.372 0.17-0.372 0.372v2.642c0 0.209 0.17 0.372 0.372 0.372 0.209 0 0.372-0.17 0.372-0.372v-2.642c0.008-0.209-0.163-0.372-0.372-0.372z"></path>
<path fill="#fff" d="M18.177 28.11c-0.209 0-0.372 0.17-0.372 0.372v2.642c0 0.209 0.17 0.372 0.372 0.372 0.209 0 0.372-0.17 0.372-0.372v-2.642c0-0.209-0.163-0.372-0.372-0.372z"></path>
<path fill="#fff" d="M13.745 28.11c-0.209 0-0.372 0.17-0.372 0.372v2.642c0 0.209 0.17 0.372 0.372 0.372s0.372-0.17 0.372-0.372v-2.642c0-0.209-0.17-0.372-0.372-0.372z"></path>
<path fill="#fff" d="M9.306 28.11c-0.209 0-0.372 0.17-0.372 0.372v2.642c0 0.209 0.17 0.372 0.372 0.372 0.209 0 0.372-0.17 0.372-0.372v-2.642c0-0.209-0.163-0.372-0.372-0.372z"></path>
</svg>
