<!-- Generated by IcoMoon.io -->
<svg version="1.1" xmlns="http://www.w3.org/2000/svg" width="32" height="32" viewBox="0 0 32 32">
<title>man</title>
<path fill="#fff" d="M16 6.075c1.534 0 2.789-1.247 2.789-2.789s-1.247-2.789-2.789-2.789-2.789 1.247-2.789 2.789 1.255 2.789 2.789 2.789zM16 1.278c1.108 0 2.015 0.907 2.015 2.015s-0.899 2.015-2.015 2.015c-1.108 0-2.015-0.907-2.015-2.015s0.907-2.015 2.015-2.015z"></path>
<path fill="#fff" d="M21.617 16.38v-6.447c0-0.976-0.279-1.743-0.837-2.278-0.821-0.798-1.929-0.783-1.968-0.783h-5.633c-0.046 0-1.154-0.016-1.976 0.783-0.55 0.542-0.837 1.309-0.837 2.278v6.431c0 0.031-0.023 0.829 0.511 1.387 0.333 0.349 0.798 0.527 1.379 0.527h0.852v10.971c0 0.039-0.054 0.992 0.566 1.65 0.372 0.395 0.891 0.597 1.55 0.597h1.519c0.651 0 1.17-0.201 1.55-0.597 0.62-0.659 0.573-1.612 0.566-1.627v-10.995h0.852c0.581 0 1.046-0.178 1.379-0.527 0.55-0.558 0.527-1.348 0.527-1.371zM20.548 17.216c-0.186 0.194-0.465 0.287-0.821 0.287h-1.24c-0.217 0-0.387 0.17-0.387 0.387v11.398c0 0.008 0.031 0.666-0.364 1.077-0.217 0.232-0.55 0.349-0.976 0.349h-1.519c-0.426 0-0.759-0.116-0.976-0.349-0.387-0.411-0.364-1.069-0.364-1.1v-11.374c0-0.217-0.17-0.387-0.387-0.387h-1.24c-0.356 0-0.635-0.093-0.821-0.287-0.31-0.318-0.302-0.821-0.302-0.837v-6.447c0-0.752 0.201-1.333 0.597-1.72 0.566-0.558 1.371-0.566 1.426-0.566v0h5.656c0.015 0 0.845 0 1.418 0.566 0.395 0.387 0.597 0.969 0.597 1.72v6.462c0 0.008 0.015 0.496-0.294 0.821z"></path>
</svg>
