<!-- Generated by IcoMoon.io -->
<svg version="1.1" xmlns="http://www.w3.org/2000/svg" width="32" height="32" viewBox="0 0 32 32">
<title>manager-01</title>
<path fill="#fff" d="M16.651 15.83c-0.116-0.046-0.387-0.108-0.651-0.108s-0.535 0.070-0.674 0.116c-0.364 0.139-0.465 0.403-0.504 0.814-0.039 0.395-0.535 7.709-0.535 7.911 0 0.248 0.023 0.395 0.209 0.651 0.17 0.232 0.938 1.093 1.007 1.178 0.046 0.054 0.209 0.232 0.488 0.232 0.263 0 0.426-0.155 0.48-0.217 0.093-0.108 0.852-0.961 1.023-1.193 0.186-0.256 0.209-0.403 0.209-0.659 0-0.186-0.496-7.5-0.535-7.903-0.039-0.418-0.132-0.682-0.519-0.821zM16.759 24.662c-0.085 0.116-0.457 0.542-0.759 0.891-0.302-0.349-0.674-0.775-0.759-0.891-0.015-0.015-0.023-0.031-0.023-0.031s0 0 0 0.008c0-0.023 0-0.047 0-0.085 0.008-0.294 0.496-7.454 0.527-7.818 0-0.031 0.008-0.054 0.008-0.077 0.132-0.031 0.372-0.031 0.504 0 0 0.023 0.008 0.047 0.008 0.077 0.039 0.372 0.519 7.523 0.527 7.826 0 0.031 0 0.062 0.008 0.039-0.008 0.023-0.023 0.039-0.039 0.062z"></path>
<path fill="#fff" d="M16.248 13.187c3.494 0 6.346-2.844 6.346-6.346s-2.851-6.338-6.346-6.338-6.346 2.844-6.346 6.346 2.851 6.338 6.346 6.338zM16.248 1.426c2.991 0 5.424 2.433 5.424 5.424s-2.433 5.424-5.424 5.424-5.424-2.433-5.424-5.424 2.433-5.424 5.424-5.424z"></path>
<path fill="#fff" d="M20.184 14.404h-8.074c-4.54 0-8.236 3.556-8.236 7.926v8.701c0 0.256 0.209 0.457 0.457 0.457h23.322c0.256 0 0.457-0.209 0.457-0.457v-8.701c0.015-4.447-3.471-7.926-7.926-7.926zM27.204 30.574h-22.408v-8.244c0-3.866 3.277-7.012 7.314-7.012h8.074c3.936 0 7.020 3.076 7.020 7.012v8.244z"></path>
</svg>
