<!-- Generated by IcoMoon.io -->
<svg version="1.1" xmlns="http://www.w3.org/2000/svg" width="32" height="32" viewBox="0 0 32 32">
<title>manager-02</title>
<path fill="#fff" d="M9.019 7.539c1.34 0 2.433-1.093 2.433-2.433s-1.092-2.433-2.433-2.433-2.433 1.092-2.433 2.433 1.093 2.433 2.433 2.433zM9.019 3.463c0.907 0 1.643 0.736 1.643 1.643s-0.736 1.643-1.643 1.643-1.643-0.736-1.643-1.643 0.736-1.643 1.643-1.643z"></path>
<path fill="#fff" d="M22.981 7.539c1.34 0 2.433-1.093 2.433-2.433s-1.093-2.433-2.433-2.433-2.433 1.092-2.433 2.433 1.093 2.433 2.433 2.433zM22.981 3.463c0.907 0 1.643 0.736 1.643 1.643s-0.736 1.643-1.643 1.643-1.643-0.736-1.643-1.643 0.736-1.643 1.643-1.643z"></path>
<path fill="#fff" d="M16 6.16c1.557 0 2.828-1.271 2.828-2.828s-1.271-2.828-2.828-2.828-2.828 1.271-2.828 2.828 1.271 2.828 2.828 2.828zM16 1.294c1.123 0 2.038 0.914 2.038 2.038s-0.914 2.030-2.038 2.030-2.038-0.914-2.038-2.038 0.914-2.030 2.038-2.030z"></path>
<path fill="#fff" d="M27.824 15.892v-5.308c0-0.845-0.248-1.511-0.728-1.991-0.713-0.697-1.681-0.69-1.72-0.682h-4.091c-0.116-0.209-0.263-0.403-0.434-0.573-0.829-0.814-1.953-0.798-1.991-0.798h-5.71c-0.046 0-1.17-0.016-1.999 0.798-0.17 0.17-0.318 0.364-0.434 0.573h-4.091c-0.031 0-1.007-0.016-1.728 0.682-0.48 0.473-0.728 1.139-0.728 1.991v5.292c0 0.077-0.016 0.736 0.457 1.224 0.302 0.31 0.713 0.465 1.224 0.465h0.659v9.53c0 0.039-0.046 0.876 0.504 1.457 0.333 0.349 0.79 0.527 1.364 0.527h1.294c0.573 0 1.030-0.178 1.364-0.527 0.55-0.581 0.504-1.418 0.504-1.433v-9.12c0.209 0.070 0.442 0.108 0.697 0.108h0.86v11.111c0 0.039-0.054 1.007 0.573 1.674 0.38 0.403 0.907 0.604 1.565 0.604h1.542c0.659 0 1.193-0.201 1.565-0.604 0.628-0.666 0.581-1.635 0.573-1.65v-11.134h0.86c0.256 0 0.488-0.039 0.697-0.108v9.104c0 0.039-0.047 0.876 0.504 1.457 0.333 0.349 0.79 0.527 1.364 0.527h1.294c0.573 0 1.030-0.178 1.364-0.527 0.55-0.581 0.504-1.418 0.504-1.433v-9.561h0.651c0.511 0 0.922-0.155 1.224-0.465 0.465-0.488 0.457-1.154 0.449-1.209zM10.452 28.010c-0.178 0.186-0.434 0.279-0.783 0.279h-1.294c-0.349 0-0.604-0.093-0.783-0.279-0.31-0.325-0.287-0.86-0.287-0.891v-9.949c0-0.217-0.178-0.395-0.395-0.395h-1.061c-0.294 0-0.504-0.070-0.651-0.225-0.248-0.248-0.24-0.651-0.24-0.666v-5.308c0-0.62 0.163-1.1 0.488-1.418 0.465-0.457 1.123-0.465 1.17-0.465v0h3.789c-0.070 0.294-0.108 0.604-0.108 0.953v6.516c0 0.031-0.015 0.736 0.434 1.294v9.685c0.008 0.008 0.031 0.535-0.279 0.868zM18.518 17.317c-0.217 0-0.395 0.178-0.395 0.395v11.553c0 0.008 0.031 0.674-0.364 1.093-0.225 0.232-0.558 0.356-0.992 0.356h-1.542c-0.434 0-0.767-0.116-0.992-0.356-0.395-0.418-0.364-1.085-0.364-1.116v-11.529c0-0.217-0.178-0.395-0.395-0.395h-1.255c-0.364 0-0.643-0.101-0.829-0.287-0.318-0.318-0.302-0.829-0.302-0.845v-6.532c0-0.759 0.201-1.348 0.604-1.743 0.573-0.566 1.387-0.573 1.441-0.573v0h5.726c0.008 0 0.845-0.008 1.433 0.573 0.403 0.395 0.604 0.984 0.604 1.751v6.539c0 0.008 0.008 0.511-0.302 0.837-0.186 0.194-0.465 0.287-0.829 0.287h-1.247v-0.008zM26.793 16.558c-0.147 0.147-0.356 0.225-0.651 0.225h-1.054c-0.217 0-0.395 0.178-0.395 0.395v9.972c0 0.008 0.023 0.535-0.287 0.86-0.178 0.186-0.434 0.279-0.783 0.279h-1.294c-0.349 0-0.604-0.093-0.783-0.279-0.31-0.325-0.287-0.86-0.287-0.891v-9.654c0.449-0.558 0.434-1.263 0.434-1.278v-6.532c0-0.341-0.039-0.659-0.108-0.953h3.797c0.015 0 0.69 0 1.162 0.465 0.325 0.318 0.488 0.798 0.488 1.418v5.315c0 0.008 0.008 0.403-0.24 0.659z"></path>
<path fill="#fff" d="M16.418 7.554c-0.070-0.031-0.263-0.085-0.473-0.085s-0.395 0.054-0.48 0.085c-0.318 0.116-0.372 0.38-0.395 0.62-0.023 0.271-0.356 5.16-0.356 5.3 0 0.186 0.023 0.302 0.155 0.48 0.116 0.155 0.597 0.697 0.674 0.79 0.039 0.046 0.17 0.186 0.395 0.186 0.209 0 0.333-0.116 0.387-0.17 0.093-0.108 0.573-0.651 0.69-0.806 0.132-0.178 0.155-0.294 0.155-0.496 0-0.124-0.333-5.021-0.356-5.292-0.023-0.232-0.070-0.496-0.395-0.612zM16.38 13.49v0c-0.054 0.070-0.256 0.302-0.442 0.519-0.17-0.194-0.356-0.411-0.442-0.519v-0.015c0.008-0.201 0.318-4.819 0.356-5.199 0.054-0.008 0.116-0.008 0.17 0 0.031 0.387 0.349 4.998 0.349 5.207l0.008 0.008z"></path>
</svg>
