<!-- Generated by IcoMoon.io -->
<svg version="1.1" xmlns="http://www.w3.org/2000/svg" width="32" height="32" viewBox="0 0 32 32">
<title>manual-transmission</title>
<path fill="#fff" d="M21.315 8.476c-0.938 0-1.705 0.767-1.705 1.705 0 0.798 0.558 1.464 1.302 1.65v3.479h-4.44v-3.479c0.744-0.178 1.302-0.852 1.302-1.65 0-0.938-0.767-1.705-1.705-1.705s-1.705 0.767-1.705 1.705c0 0.798 0.558 1.464 1.302 1.65v3.479h-4.68v-3.44c0.744-0.178 1.302-0.852 1.302-1.65 0-0.938-0.767-1.705-1.705-1.705s-1.705 0.767-1.705 1.705c0 0.798 0.558 1.472 1.302 1.65v7.895c-0.744 0.178-1.302 0.852-1.302 1.65 0 0.938 0.767 1.705 1.705 1.705s1.705-0.767 1.705-1.705c0-0.798-0.558-1.464-1.302-1.65v-3.649h4.68v3.696c-0.744 0.178-1.302 0.852-1.302 1.65 0 0.938 0.767 1.705 1.705 1.705s1.705-0.767 1.705-1.705c0-0.798-0.558-1.472-1.302-1.65v-3.696h4.835c0.225 0 0.403-0.178 0.403-0.403v-3.882c0.744-0.178 1.302-0.852 1.302-1.65 0.008-0.938-0.759-1.705-1.697-1.705zM15.171 10.181c0-0.496 0.403-0.899 0.899-0.899s0.899 0.403 0.899 0.899c0 0.496-0.403 0.899-0.899 0.899s-0.899-0.403-0.899-0.899zM9.693 10.22c0-0.496 0.403-0.899 0.899-0.899s0.899 0.403 0.899 0.899c0 0.496-0.403 0.899-0.899 0.899s-0.899-0.403-0.899-0.899zM11.491 21.416c0 0.496-0.403 0.899-0.899 0.899s-0.899-0.403-0.899-0.899 0.403-0.899 0.899-0.899c0.496 0 0.899 0.403 0.899 0.899zM16.969 21.455c0 0.496-0.403 0.899-0.899 0.899s-0.899-0.403-0.899-0.899 0.403-0.899 0.899-0.899 0.899 0.403 0.899 0.899zM21.315 11.080c-0.496 0-0.899-0.403-0.899-0.899s0.403-0.899 0.899-0.899 0.899 0.403 0.899 0.899c0 0.496-0.403 0.899-0.899 0.899z"></path>
<path fill="#fff" d="M16 0.504c-8.546 0-15.496 6.95-15.496 15.496s6.95 15.496 15.496 15.496 15.496-6.95 15.496-15.496-6.95-15.496-15.496-15.496zM16 30.691c-8.105 0-14.691-6.594-14.691-14.691s6.586-14.691 14.691-14.691 14.691 6.594 14.691 14.691-6.586 14.691-14.691 14.691z"></path>
</svg>
