<!-- Generated by IcoMoon.io -->
<svg version="1.1" xmlns="http://www.w3.org/2000/svg" width="32" height="32" viewBox="0 0 32 32">
<title>map</title>
<path fill="#fff" d="M30.574 10.638l-9.6-3.673c-0.015-0.008-0.031-0.008-0.047-0.016-0.023-0.008-0.047-0.016-0.070-0.016s-0.039 0-0.062 0-0.039 0-0.062 0-0.047 0.008-0.062 0.016c-0.015 0.008-0.031 0.008-0.054 0.016v0l-0.612 0.232c0.279-0.728 0.465-1.387 0.465-1.891 0-2.65-2.154-4.804-4.804-4.804s-4.804 2.154-4.804 4.804c0 1.108 0.852 2.96 1.821 4.695l-1.495 0.573-9.406-3.611c-0.155-0.062-0.325-0.039-0.457 0.054s-0.217 0.248-0.217 0.411v19.897c0 0.209 0.124 0.387 0.318 0.465l9.6 3.673c0.008 0 0.008 0 0.015 0 0.054 0.015 0.108 0.031 0.163 0.031s0.108-0.015 0.163-0.031c0.008 0 0.008 0 0.015 0l9.422-3.603 9.414 3.603c0.054 0.023 0.116 0.031 0.178 0.031 0.101 0 0.194-0.031 0.279-0.085 0.132-0.093 0.217-0.248 0.217-0.411v-19.897c0-0.201-0.124-0.387-0.318-0.465zM15.675 1.495c2.1 0 3.812 1.705 3.812 3.812 0 0.566-0.325 1.488-0.837 2.572 0 0 0 0.008-0.008 0.008-0.721 1.519-1.821 3.37-2.968 5.083-1.96-2.937-3.812-6.307-3.812-7.663 0-2.1 1.712-3.812 3.812-3.812zM2.1 8.151l8.608 3.293v18.836l-8.608-3.293v-18.836zM11.7 11.444l1.495-0.573c0.883 1.503 1.751 2.797 2.076 3.27 0.093 0.132 0.248 0.217 0.411 0.217s0.318-0.077 0.411-0.217c0.48-0.705 2.224-3.308 3.363-5.664l0.852-0.325v18.836l-8.608 3.293v-18.836zM29.9 30.28l-8.608-3.293v-18.836l8.608 3.293v18.836z"></path>
<path fill="#fff" d="M17.263 4.362c0-0.876-0.713-1.588-1.588-1.588s-1.588 0.713-1.588 1.588 0.713 1.588 1.588 1.588 1.588-0.713 1.588-1.588zM15.078 4.362c0-0.333 0.271-0.597 0.597-0.597s0.597 0.271 0.597 0.597-0.271 0.597-0.597 0.597-0.597-0.263-0.597-0.597z"></path>
</svg>
