<!-- Generated by IcoMoon.io -->
<svg version="1.1" xmlns="http://www.w3.org/2000/svg" width="32" height="32" viewBox="0 0 32 32">
<title>market-share</title>
<path fill="#fff" d="M26.855 17.906h-12.343v-12.792c0-0.217-0.17-0.387-0.387-0.395-3.696-0.054-7.252 1.34-9.755 3.835-5.16 5.16-5.16 13.877 0 19.037 2.58 2.58 6.051 3.866 9.523 3.866s6.942-1.286 9.523-3.866c2.417-2.417 3.781-5.71 3.835-9.29 0-0.108-0.039-0.209-0.116-0.287-0.070-0.070-0.17-0.108-0.279-0.108zM22.857 27.033c-4.858 4.858-13.063 4.858-17.922 0s-4.858-13.063 0-17.922c2.255-2.262 5.447-3.564 8.786-3.611v12.792c0 0.217 0.178 0.395 0.395 0.395h12.327c-0.139 3.215-1.41 6.168-3.587 8.345z"></path>
<path fill="#fff" d="M18.433 14.381c0.101 0 0.201-0.039 0.279-0.116l9.236-9.236c0.155-0.155 0.155-0.403 0-0.558s-0.403-0.155-0.558 0l-9.236 9.236c-0.155 0.155-0.155 0.403 0 0.558 0.077 0.077 0.178 0.116 0.279 0.116z"></path>
<path fill="#fff" d="M21.075 14.187c0.077 0.077 0.178 0.116 0.279 0.116s0.201-0.039 0.279-0.116l7.578-7.585c0.155-0.155 0.155-0.403 0-0.558s-0.403-0.155-0.558 0l-7.578 7.585c-0.155 0.155-0.155 0.403 0 0.558z"></path>
<path fill="#fff" d="M23.88 14.226c0.077 0.077 0.178 0.116 0.279 0.116s0.201-0.039 0.279-0.116l5.803-5.803c0.155-0.155 0.155-0.403 0-0.558s-0.403-0.155-0.558 0l-5.803 5.803c-0.155 0.155-0.155 0.403 0 0.558z"></path>
<path fill="#fff" d="M31.008 9.933c-0.155-0.155-0.403-0.155-0.558 0l-3.719 3.727c-0.155 0.155-0.155 0.403 0 0.558 0.077 0.077 0.178 0.116 0.279 0.116s0.201-0.039 0.279-0.116l3.727-3.727c0.147-0.155 0.147-0.403-0.008-0.558z"></path>
<path fill="#fff" d="M31.38 12.405c-0.155-0.155-0.403-0.155-0.558 0l-1.302 1.302c-0.155 0.155-0.155 0.403 0 0.558 0.077 0.077 0.178 0.116 0.279 0.116s0.201-0.039 0.279-0.116l1.302-1.302c0.155-0.155 0.155-0.403 0-0.558z"></path>
<path fill="#fff" d="M18.433 11.537c0.101 0 0.201-0.039 0.279-0.116l7.733-7.733c0.155-0.155 0.155-0.403 0-0.558s-0.403-0.155-0.558 0l-7.733 7.733c-0.155 0.155-0.155 0.403 0 0.558 0.077 0.077 0.178 0.116 0.279 0.116z"></path>
<path fill="#fff" d="M18.433 8.693c0.101 0 0.201-0.039 0.279-0.116l5.997-5.997c0.155-0.155 0.155-0.403 0-0.558s-0.403-0.155-0.558 0l-5.997 5.997c-0.155 0.155-0.155 0.403 0 0.558 0.077 0.077 0.178 0.116 0.279 0.116z"></path>
<path fill="#fff" d="M18.433 5.858c0.101 0 0.201-0.039 0.279-0.116l3.998-3.998c0.155-0.155 0.155-0.403 0-0.558s-0.403-0.155-0.558 0l-3.998 3.998c-0.155 0.155-0.155 0.403 0 0.558 0.077 0.077 0.178 0.116 0.279 0.116z"></path>
<path fill="#fff" d="M18.433 3.014c0.101 0 0.201-0.039 0.279-0.116l1.689-1.689c0.155-0.155 0.155-0.403 0-0.558s-0.403-0.155-0.558 0l-1.689 1.689c-0.155 0.155-0.155 0.403 0 0.558 0.077 0.077 0.178 0.116 0.279 0.116z"></path>
</svg>
