<!-- Generated by IcoMoon.io -->
<svg version="1.1" xmlns="http://www.w3.org/2000/svg" width="32" height="32" viewBox="0 0 32 32">
<title>meal</title>
<path fill="#fff" d="M3.603 28.149c0 0.256 0.209 0.465 0.465 0.465h23.57c0.256 0 0.465-0.209 0.465-0.465 0-0.085 0.015-0.178 0.023-0.263 0.015-0.124 0.031-0.256 0.031-0.38 0-5.811-4.153-10.677-9.685-11.862 0.077-0.256 0.116-0.519 0.116-0.783 0-1.511-1.232-2.743-2.743-2.743s-2.743 1.232-2.743 2.743c0 0.271 0.046 0.527 0.116 0.783-5.517 1.185-9.67 6.051-9.67 11.862 0 0.124 0.015 0.256 0.031 0.38 0.008 0.085 0.023 0.178 0.023 0.263zM14.047 14.853c0-1 0.814-1.813 1.813-1.813s1.813 0.814 1.813 1.813c0 0.217-0.047 0.418-0.124 0.62-0.55-0.077-1.116-0.116-1.689-0.116s-1.131 0.039-1.689 0.116c-0.077-0.194-0.124-0.403-0.124-0.62zM15.853 16.294c6.268 0 11.374 5.029 11.374 11.212 0 0.062-0.008 0.116-0.015 0.178h-22.718c-0.008-0.062-0.016-0.116-0.016-0.178 0-6.183 5.106-11.212 11.374-11.212z"></path>
<path fill="#fff" d="M6.896 26.483c0.039 0.008 0.070 0.015 0.108 0.015 0.209 0 0.403-0.147 0.449-0.356 0.008-0.015 0.442-1.829 1.612-3.603 1.534-2.317 3.556-3.494 6.005-3.494 0.256 0 0.465-0.209 0.465-0.465s-0.209-0.465-0.465-0.465c-6.617 0-8.508 7.733-8.523 7.81-0.054 0.248 0.101 0.504 0.349 0.558z"></path>
<path fill="#fff" d="M28.451 30.567h-24.903c-0.256 0-0.465 0.209-0.465 0.465s0.209 0.465 0.465 0.465h24.895c0.256 0 0.465-0.209 0.465-0.465 0.008-0.256-0.201-0.465-0.457-0.465z"></path>
<path fill="#fff" d="M15.62 6.098c-0.147 0.821-1.046 1.364-1.054 1.371-0.225 0.132-0.294 0.418-0.163 0.635 0.085 0.147 0.24 0.232 0.403 0.232 0.077 0 0.163-0.023 0.232-0.062 0.054-0.031 1.271-0.759 1.503-1.999 0.132-0.721-0.085-1.441-0.643-2.146-1.302-1.635-0.194-2.689-0.062-2.805 0.194-0.163 0.217-0.457 0.054-0.659-0.163-0.194-0.457-0.225-0.659-0.054-0.69 0.581-1.588 2.185-0.062 4.091 0.38 0.488 0.535 0.953 0.449 1.395z"></path>
<path fill="#fff" d="M21.253 8.213c-0.147 0.821-1.046 1.364-1.054 1.371-0.225 0.132-0.294 0.418-0.163 0.635 0.085 0.147 0.24 0.232 0.403 0.232 0.077 0 0.163-0.023 0.232-0.062 0.054-0.031 1.271-0.759 1.503-1.999 0.132-0.721-0.085-1.441-0.643-2.146-1.302-1.635-0.194-2.689-0.062-2.805 0.194-0.163 0.217-0.457 0.054-0.659-0.163-0.194-0.457-0.225-0.659-0.054-0.69 0.581-1.588 2.185-0.062 4.091 0.372 0.488 0.527 0.953 0.449 1.395z"></path>
<path fill="#fff" d="M10.344 10.39c-0.147 0.821-1.046 1.364-1.054 1.371-0.225 0.132-0.294 0.418-0.163 0.635 0.085 0.147 0.24 0.232 0.403 0.232 0.077 0 0.163-0.023 0.232-0.062 0.054-0.031 1.271-0.759 1.503-1.999 0.132-0.721-0.085-1.441-0.643-2.146-1.302-1.635-0.194-2.689-0.062-2.805 0.194-0.163 0.217-0.457 0.054-0.659-0.163-0.194-0.457-0.225-0.659-0.054-0.69 0.581-1.588 2.185-0.062 4.091 0.38 0.488 0.535 0.961 0.449 1.395z"></path>
</svg>
