<!-- Generated by IcoMoon.io -->
<svg version="1.1" xmlns="http://www.w3.org/2000/svg" width="32" height="32" viewBox="0 0 32 32">
<title>media-connected</title>
<path fill="#fff" d="M31.047 5.904h-1.356v-4.657c0-0.248-0.201-0.449-0.449-0.449h-15.837c-0.248 0-0.449 0.201-0.449 0.449v4.525h-9.67c-0.248 0-0.449 0.201-0.449 0.449v3.541c-0.008 0.008-0.015 0.008-0.015 0.015l-2.193 2.355c-0.17 0.186-0.163 0.465 0.023 0.635 0.178 0.17 0.465 0.163 0.635-0.023l1.542-1.666v7.121h-1.023c-0.248 0-0.449 0.201-0.449 0.449v9.863c0 0.248 0.201 0.449 0.449 0.449h7.462v1.333h-4.618c-0.248 0-0.449 0.201-0.449 0.449s0.201 0.449 0.449 0.449h10.142c0.248 0 0.449-0.201 0.449-0.449s-0.201-0.449-0.449-0.449h-4.618v-1.333h7.462c0.248 0 0.449-0.201 0.449-0.449v-4.478h4.3c0.008 0.008 0.008 0.008 0.015 0.015l2.355 2.193c0.085 0.077 0.194 0.124 0.31 0.124 0.124 0 0.24-0.047 0.333-0.147 0.17-0.186 0.163-0.465-0.023-0.635l-1.666-1.55h7.33c0.248 0 0.449-0.201 0.449-0.449v-17.232c0.008-0.248-0.194-0.449-0.442-0.449zM13.854 1.697h14.931v8.957h-14.931v-8.957zM17.185 28.064h-14.931v-8.957h14.931v8.957zM30.59 23.136h-6.88l1.666-1.542c0.186-0.17 0.194-0.457 0.023-0.635-0.17-0.186-0.457-0.194-0.635-0.023l-2.355 2.185c-0.008 0.008-0.008 0.015-0.015 0.015h-4.3v-4.478c0-0.248-0.201-0.449-0.449-0.449h-13.908v-7.128l1.542 1.666c0.085 0.093 0.209 0.147 0.333 0.147 0.108 0 0.217-0.039 0.31-0.124 0.186-0.17 0.194-0.457 0.023-0.635l-2.185-2.355c-0.008-0.008-0.015-0.008-0.015-0.015v-3.092h9.22v4.432c0 0.248 0.201 0.449 0.449 0.449h7.462v1.333h-4.618c-0.248 0-0.449 0.201-0.449 0.449s0.201 0.449 0.449 0.449h10.142c0.248 0 0.449-0.201 0.449-0.449s-0.201-0.449-0.449-0.449h-4.626v-1.333h7.462c0.248 0 0.449-0.201 0.449-0.449v-4.293h0.907v16.325z"></path>
</svg>
