<!-- Generated by IcoMoon.io -->
<svg version="1.1" xmlns="http://www.w3.org/2000/svg" width="32" height="32" viewBox="0 0 32 32">
<title>medical-assistance</title>
<path fill="#fff" d="M21.284 15.349h-2.534v-2.526c0-0.821-0.674-1.495-1.495-1.495h-2.549c-0.821 0-1.495 0.674-1.495 1.495v2.526h-2.526c-0.821 0-1.495 0.674-1.495 1.495v2.549c0 0.821 0.674 1.495 1.495 1.495h2.526v2.526c0 0.821 0.674 1.495 1.495 1.495h2.549c0.821 0 1.495-0.674 1.495-1.495v-2.526h2.526c0.829 0 1.495-0.674 1.495-1.495v-2.549c0.008-0.821-0.666-1.495-1.488-1.495zM21.703 19.401c0 0.232-0.186 0.418-0.418 0.418h-3.068c-0.294 0-0.542 0.24-0.542 0.542v3.068c0 0.232-0.186 0.418-0.418 0.418h-2.549c-0.232 0-0.418-0.186-0.418-0.418v-3.068c0-0.294-0.24-0.542-0.542-0.542h-3.068c-0.225 0-0.418-0.194-0.418-0.418v-2.549c0-0.225 0.194-0.418 0.418-0.418h3.068c0.294 0 0.542-0.24 0.542-0.542v-3.068c0-0.232 0.186-0.418 0.418-0.418h2.549c0.232 0 0.418 0.186 0.418 0.418v3.068c0 0.294 0.24 0.542 0.542 0.542h3.068c0.232 0 0.418 0.186 0.418 0.418v2.549z"></path>
<path fill="#fff" d="M28.397 7.4h-6.144v-0.876c0-1.836-1.247-3.169-2.968-3.169h-6.020c-1.798 0-3.37 1.48-3.37 3.169v0.876h-6.144c-1.751 0-3.169 1.426-3.169 3.169v14.985c0 1.751 1.426 3.169 3.169 3.169h24.647c1.751 0 3.169-1.426 3.169-3.169v-14.977c0.008-1.751-1.418-3.177-3.169-3.177zM10.971 6.524c0-1.093 1.092-2.092 2.293-2.092h6.020c1.116 0 1.891 0.86 1.891 2.092v0.876h-10.204v-0.876zM30.489 25.561c0 1.154-0.938 2.092-2.092 2.092h-24.647c-1.154 0-2.092-0.938-2.092-2.092v-14.985c0-1.154 0.938-2.092 2.092-2.092h24.655c1.154 0 2.092 0.938 2.092 2.092v14.985h-0.008z"></path>
</svg>
