<!-- Generated by IcoMoon.io -->
<svg version="1.1" xmlns="http://www.w3.org/2000/svg" width="32" height="32" viewBox="0 0 32 32">
<title>meeting-room</title>
<path fill="#fff" d="M16.426 4.261c1.038 0 1.883-0.845 1.883-1.883s-0.845-1.875-1.883-1.875-1.883 0.845-1.883 1.883 0.845 1.875 1.883 1.875zM16.426 1.216c0.643 0 1.17 0.527 1.17 1.17s-0.527 1.17-1.17 1.17-1.17-0.527-1.17-1.17 0.519-1.17 1.17-1.17z"></path>
<path fill="#fff" d="M27.181 11.235c1.038 0 1.883-0.845 1.883-1.883s-0.845-1.883-1.883-1.883-1.883 0.845-1.883 1.883c0 1.046 0.845 1.883 1.883 1.883zM27.181 8.19c0.643 0 1.17 0.527 1.17 1.17s-0.527 1.17-1.17 1.17c-0.643 0-1.17-0.527-1.17-1.17s0.527-1.17 1.17-1.17z"></path>
<path fill="#fff" d="M4.897 11.235c1.038 0 1.883-0.845 1.883-1.883s-0.845-1.883-1.883-1.883-1.883 0.845-1.883 1.883c0 1.046 0.845 1.883 1.883 1.883zM4.897 8.19c0.643 0 1.17 0.527 1.17 1.17s-0.527 1.17-1.17 1.17-1.17-0.527-1.17-1.17c0-0.643 0.527-1.17 1.17-1.17z"></path>
<path fill="#fff" d="M30.396 11.46c-0.194 0-0.356 0.163-0.356 0.356v7.384c0 1.007-0.821 1.829-1.821 1.829h-1.41c-0.008 0-0.023 0.008-0.031 0.008l-0.186-0.558h0.682c1.24 0 2.247-1.007 2.247-2.247v-4.502c0-1.271-0.814-2.262-1.86-2.262h-1.116c-1.061 0-1.922 1.015-1.922 2.262v0.86l-1.557-4.688c-0.271-0.806-1.023-1.348-1.875-1.348h-1.464v-1.798c0-1.271-1-2.262-2.27-2.262h-2.061c-1.294 0-2.34 1.015-2.34 2.262v1.805h-2.231c-0.868 0-1.619 0.55-1.883 1.379l-1.503 4.75v-0.953c0-1.247-0.86-2.262-1.922-2.262h-1.108c-1.046 0-1.86 0.992-1.86 2.262v4.502c0 1.24 1.007 2.247 2.247 2.247h0.806l-0.178 0.55h-1.635c-1.007 0-1.821-0.821-1.821-1.829v-7.384c0-0.194-0.163-0.356-0.356-0.356s-0.356 0.163-0.356 0.356v7.384c0 1.402 1.139 2.534 2.534 2.534h1.418l-1.193 3.75c-0.194 0.604-0.085 1.247 0.287 1.767 0.372 0.511 0.953 0.806 1.596 0.806h5.889v3.076c0 0.194 0.163 0.356 0.356 0.356h8.523c0.093 0 0.186-0.039 0.248-0.101 0.070-0.070 0.101-0.155 0.101-0.248v-3.076h5.362c0.643 0 1.224-0.302 1.604-0.821 0.372-0.519 0.473-1.17 0.271-1.782l-1.24-3.727h1.201c1.402 0 2.534-1.139 2.534-2.534v-7.384c0.008-0.201-0.155-0.364-0.349-0.364zM25.344 13.73c0-0.86 0.542-1.55 1.209-1.55h1.116c0.643 0 1.147 0.682 1.147 1.55v4.502c0 0.845-0.69 1.534-1.534 1.534h-0.922l-1.007-3.037v-2.999h-0.008zM13.776 6.756c0-0.86 0.728-1.55 1.627-1.55h2.061c0.876 0 1.557 0.682 1.557 1.55v1.805h-5.246v-1.805zM5.749 19.766h-0.945c-0.845 0-1.534-0.69-1.534-1.534v-4.502c0-0.868 0.504-1.55 1.147-1.55h1.116c0.666 0 1.209 0.697 1.209 1.55v3.030c0 0.039 0.008 0.070 0.023 0.101l-0.93 2.921c-0.031-0.008-0.062-0.015-0.085-0.015zM20.308 30.784h-7.81v-2.828c0-1.309 1.116-2.371 2.487-2.371h2.952c1.333 0 2.379 1.046 2.379 2.371v2.828h-0.008zM27.405 26.832c-0.24 0.333-0.612 0.527-1.023 0.527h-5.416c-0.271-1.433-1.503-2.479-3.030-2.479h-2.952c-1.55 0-2.844 1.069-3.13 2.479h-5.958c-0.411 0-0.783-0.186-1.023-0.519-0.24-0.325-0.31-0.736-0.186-1.131l4.943-15.558c0.17-0.527 0.651-0.883 1.201-0.883h10.367c0.542 0 1.023 0.349 1.201 0.868l5.176 15.558c0.132 0.387 0.070 0.806-0.17 1.139z"></path>
<path fill="#fff" d="M16.434 19.339c-1.402 0-2.534 1.139-2.534 2.534 0 1.402 1.139 2.534 2.534 2.534s2.534-1.139 2.534-2.534c0-1.395-1.139-2.534-2.534-2.534zM16.434 23.702c-1.007 0-1.821-0.821-1.821-1.829s0.821-1.829 1.821-1.829c1.007 0 1.829 0.821 1.829 1.829s-0.821 1.829-1.829 1.829z"></path>
</svg>
