<!-- Generated by IcoMoon.io -->
<svg version="1.1" xmlns="http://www.w3.org/2000/svg" width="32" height="32" viewBox="0 0 32 32">
<title>meeting-rooms</title>
<path fill="#fff" d="M31.070 10.181h-8.81c0.17-0.31 0.271-0.659 0.271-1.030v-0.736c0-0.232-0.194-0.426-0.426-0.426h-8.608c-0.077 0-0.155 0.023-0.217 0.062l-3.518 2.1h-4.943c-0.016 0-0.023-0.008-0.039-0.008h-3.851c-0.232 0-0.426 0.194-0.426 0.426v9.949c0 0.232 0.194 0.426 0.426 0.426h3.859c0.232 0 0.426-0.194 0.426-0.426v-1.495h0.961l6.687 4.269c0.821 0.488 1.712 0.728 2.689 0.728 0.682 0 1.402-0.116 2.177-0.349l4.881-1.658 0.263 0.24c0.356 0.325 0.821 0.504 1.302 0.504 0.55 0 1.077-0.232 1.441-0.643 0.349-0.38 0.527-0.876 0.496-1.395-0.023-0.519-0.256-0.992-0.635-1.34l-0.209-0.194 0.566-0.511h0.953v1.829c0 0.232 0.194 0.426 0.426 0.426h3.859c0.232 0 0.426-0.194 0.426-0.426v-9.894c0-0.232-0.194-0.426-0.426-0.426zM4.362 20.083h-3.006v-9.096h2.999v7.601l0.008 1.495zM24.98 21.54v0c-0.38 0.426-1.1 0.465-1.534 0.077l-0.449-0.411c-0.116-0.101-0.279-0.139-0.426-0.085l-5.098 1.736c-1.643 0.488-3.006 0.387-4.161-0.294l-6.78-4.331c-0.070-0.047-0.147-0.070-0.232-0.070h-1.085v-7.167h4.664c0.077 0 0.155-0.023 0.217-0.062l3.518-2.1h8.074v0.31c0 0.721-0.589 1.309-1.309 1.309h-4.223c-0.077 0-0.163 0.023-0.232 0.070l-7.423 4.719c-0.108 0.070-0.178 0.178-0.194 0.302s0.023 0.256 0.108 0.341l0.519 0.566c0.883 0.953 2.278 1.162 3.394 0.519l3.308-1.844h3.874l5.385 4.866c0.217 0.194 0.341 0.457 0.356 0.752 0.023 0.302-0.077 0.581-0.271 0.798zM25.67 17.813c-0.108 0-0.209 0.039-0.287 0.108l-0.759 0.682-3.835-3.463h1.371c0.232 0 0.426-0.194 0.426-0.426s-0.194-0.426-0.426-0.426h-6.625c-0.054 0-0.101 0.015-0.147 0.031-0.008 0.008-0.023 0.008-0.031 0.015s-0.015 0.008-0.031 0.008l-3.409 1.898c-0.775 0.449-1.743 0.302-2.348-0.356l-0.178-0.186 6.888-4.378h4.099c0.38 0 0.736-0.108 1.046-0.279h5.37v6.78l-1.123-0.008zM30.644 20.068h-2.999v-9.034h2.999v9.034z"></path>
</svg>
