<!-- Generated by IcoMoon.io -->
<svg version="1.1" xmlns="http://www.w3.org/2000/svg" width="32" height="32" viewBox="0 0 32 32">
<title>megaphone</title>
<path fill="#fff" d="M24.066 4.85c-0.047-0.341-0.263-0.643-0.566-0.806-0.31-0.163-0.674-0.163-0.984-0.008l-18.534 9.306-2.712-0.194c-0.178-0.039-0.372 0.008-0.519 0.124-0.186 0.155-0.279 0.418-0.24 0.674l1.038 7.307c0.039 0.263 0.201 0.488 0.418 0.581 0.077 0.031 0.163 0.047 0.24 0.047 0.101 0 0.201-0.023 0.287-0.077l2.549-0.945 3.022 0.558 0.659 4.633c0.085 0.62 0.411 1.17 0.914 1.542 0.411 0.31 0.899 0.473 1.402 0.473 0.108 0 0.225-0.008 0.333-0.023l6.4-0.907c0.62-0.085 1.17-0.411 1.542-0.914s0.535-1.116 0.449-1.736l-0.132-0.922 5.803 1.077c0.062 0.015 0.132 0.015 0.194 0.015 0.279 0 0.542-0.108 0.752-0.302 0.248-0.24 0.372-0.589 0.325-0.93l-2.642-18.572zM2.332 21.005l-1-7.035 2.371 0.17 0.86 6.044-2.231 0.821zM18.96 24.608c0.054 0.403-0.047 0.806-0.294 1.131s-0.604 0.542-1.007 0.597l-6.4 0.907c-0.403 0.054-0.806-0.047-1.131-0.294s-0.535-0.604-0.597-1.007l-0.62-4.37 9.879 1.829 0.17 1.209zM25.817 23.779c-0.062 0.062-0.147 0.085-0.232 0.070l-20.207-3.742-0.868-6.113 14.063-7.066 1.139 8.027c0.031 0.201 0.201 0.349 0.403 0.349 0.015 0 0.039 0 0.054-0.008 0.225-0.031 0.38-0.24 0.341-0.457l-1.178-8.298 3.541-1.774c0.077-0.039 0.17-0.039 0.248 0s0.132 0.116 0.139 0.201l2.642 18.588c0.008 0.085-0.015 0.163-0.085 0.225z"></path>
<path fill="#fff" d="M31.171 14.171c0.217-0.046 0.364-0.256 0.318-0.473s-0.256-0.364-0.473-0.318l-2.952 0.573c-0.217 0.046-0.364 0.256-0.318 0.473 0.039 0.194 0.209 0.325 0.395 0.325 0.023 0 0.054 0 0.077-0.008l2.952-0.573z"></path>
<path fill="#fff" d="M29.203 6.539c-0.186-0.124-0.442-0.077-0.566 0.108l-1.674 2.495c-0.124 0.186-0.077 0.434 0.108 0.566 0.070 0.046 0.147 0.070 0.225 0.070 0.132 0 0.256-0.062 0.333-0.178l1.681-2.495c0.124-0.186 0.077-0.442-0.108-0.566z"></path>
<path fill="#fff" d="M28.769 18.82c-0.186-0.124-0.434-0.077-0.566 0.108-0.124 0.186-0.077 0.434 0.108 0.566l2.495 1.681c0.070 0.047 0.147 0.070 0.225 0.070 0.132 0 0.256-0.062 0.333-0.178 0.124-0.186 0.077-0.434-0.108-0.566l-2.487-1.681z"></path>
</svg>
