<!-- Generated by IcoMoon.io -->
<svg version="1.1" xmlns="http://www.w3.org/2000/svg" width="32" height="32" viewBox="0 0 32 32">
<title>meta-search</title>
<path fill="#fff" d="M15.504 21.532c0 0.436-0.354 0.79-0.79 0.79s-0.79-0.354-0.79-0.79c0-0.436 0.354-0.79 0.79-0.79s0.79 0.354 0.79 0.79z"></path>
<path fill="#fff" d="M14.908 4.858c-0.008 0-0.008 0-0.015 0-1.72 0-3.332 0.666-4.548 1.883-1.224 1.216-1.898 2.836-1.906 4.564 0 1.72 0.666 3.347 1.883 4.564 1.216 1.224 2.836 1.898 4.556 1.898 0.008 0 0.008 0 0.015 0 1.72 0 3.332-0.666 4.548-1.875 1.224-1.216 1.898-2.836 1.898-4.564s-0.666-3.347-1.883-4.564c-1.209-1.224-2.828-1.898-4.548-1.906zM18.975 15.419c-1.093 1.093-2.549 1.697-4.099 1.689-1.55 0-2.999-0.612-4.091-1.705v0c-1.092-1.1-1.689-2.549-1.689-4.099s0.612-2.999 1.712-4.091c1.092-1.085 2.541-1.689 4.083-1.689 0.008 0 0.008 0 0.015 0 1.55 0 2.999 0.612 4.091 1.705s1.689 2.549 1.689 4.099-0.612 2.999-1.712 4.091z"></path>
<path fill="#fff" d="M30.946 24.724v0l-2.061-2.076c0.023-0.108 0.039-0.217 0.039-0.325v-17.348c0-0.876-0.713-1.588-1.588-1.588h-8.631c-0.031 0-0.062 0.008-0.085 0.015-2.348-1.108-5.098-1.108-7.446-0.008-0.023-0.008-0.039-0.015-0.062-0.015h-9.019c-0.876 0-1.588 0.713-1.588 1.588v17.348c0 0.876 0.713 1.588 1.588 1.588h8.655v1.565c0 0.271-0.155 0.775-0.302 1l-0.705 1.054c-0.287 0.426-0.325 0.899-0.116 1.286 0.209 0.395 0.628 0.62 1.139 0.62h7.888c0.511 0 0.93-0.225 1.139-0.62s0.17-0.86-0.116-1.286l-0.705-1.054c-0.147-0.225-0.302-0.728-0.302-1v-1.565h6.051l3.51 3.51c0.372 0.372 0.852 0.566 1.348 0.566 0.256 0 0.519-0.054 0.775-0.163 0.209-0.093 0.411-0.225 0.581-0.395 0.752-0.736 0.752-1.953 0.015-2.696zM25.701 19.44h2.557v2.572l-2.557-2.572zM27.328 4.045c0.511 0 0.93 0.418 0.93 0.93v13.807h-3.215l-2.758-2.774c2.177-3.432 1.697-7.957-1.193-10.863-0.418-0.418-0.86-0.783-1.333-1.1 0 0 7.57 0 7.57 0zM2.092 4.045h7.926c-0.465 0.31-0.899 0.666-1.309 1.069-3.417 3.401-3.432 8.957-0.023 12.374 0.504 0.504 1.062 0.938 1.65 1.294h-9.174v-13.807c0-0.511 0.418-0.93 0.93-0.93zM18.417 26.84l0.705 1.054c0.085 0.124 0.209 0.38 0.085 0.612s-0.403 0.271-0.558 0.271h-7.88c-0.155 0-0.426-0.031-0.558-0.271-0.124-0.232 0-0.48 0.085-0.612l0.705-1.054c0.225-0.333 0.411-0.961 0.411-1.364v-1.565h6.594v1.565c0 0.403 0.186 1.023 0.411 1.364zM18.34 23.252h-16.248c-0.511 0-0.93-0.418-0.93-0.93v-2.875h10.305c0.046 0 0.093-0.008 0.132-0.031 2.076 0.837 4.416 0.868 6.532 0.031h2.123l3.804 3.812h-5.718v-0.008zM19.456 18.782c0.031-0.015 0.062-0.031 0.093-0.054l0.054 0.054h-0.147zM30.474 26.956c-0.108 0.108-0.24 0.201-0.38 0.256-0.48 0.209-1.023 0.108-1.395-0.263l-8.872-8.887c-0.062-0.062-0.147-0.101-0.232-0.101-0.062 0-0.132 0.015-0.186 0.054-3.208 2.154-7.516 1.728-10.243-1.015-1.526-1.534-2.363-3.564-2.355-5.726s0.852-4.192 2.379-5.71c3.161-3.146 8.291-3.138 11.444 0.023 2.735 2.743 3.138 7.059 0.961 10.251-0.085 0.132-0.070 0.31 0.039 0.418l3.045 3.061 5.803 5.842c0.48 0.519 0.473 1.317-0.008 1.798z"></path>
<path fill="#fff" d="M11.979 12.568l-1.581-0.86v-0.015l1.573-0.852c0.039-0.023 0.070-0.031 0.070-0.093v-0.279c0-0.054-0.031-0.070-0.070-0.046l-2.053 1.1c-0.039 0.023-0.054 0.039-0.054 0.093v0.17c0 0.070 0.031 0.085 0.062 0.101l2.061 1.108c0.031 0.023 0.062 0.008 0.062-0.039v-0.294c0-0.054-0.023-0.070-0.070-0.093z"></path>
<path fill="#fff" d="M17.774 10.468v0.279c0 0.062 0.031 0.070 0.070 0.093l1.573 0.852v0.015l-1.581 0.86c-0.047 0.023-0.070 0.039-0.070 0.101v0.294c0 0.046 0.031 0.062 0.062 0.039l2.061-1.108c0.031-0.015 0.062-0.031 0.062-0.101v-0.17c0-0.054-0.015-0.070-0.054-0.093l-2.053-1.1c-0.047-0.031-0.070-0.015-0.070 0.039z"></path>
<path fill="#fff" d="M16.674 9.592h-0.256c-0.085 0-0.124 0.031-0.155 0.101l-1.054 2.162-0.31 0.682h-0.015l-0.302-0.659-1.054-2.193c-0.031-0.070-0.054-0.093-0.139-0.093h-0.279c-0.070 0-0.093 0.023-0.093 0.093v4.006c0 0.085 0.039 0.108 0.108 0.108h0.263c0.070 0 0.101-0.023 0.101-0.108v-3.006h0.015l0.194 0.418 0.969 1.968c0.023 0.054 0.054 0.077 0.132 0.077h0.186c0.054 0 0.101-0.023 0.124-0.085l0.93-1.891 0.225-0.488h0.015v3.006c0 0.085 0.039 0.108 0.116 0.108h0.271c0.070 0 0.108-0.023 0.108-0.108v-4.006c-0.008-0.062-0.039-0.093-0.101-0.093z"></path>
</svg>
