<!-- Generated by IcoMoon.io -->
<svg version="1.1" xmlns="http://www.w3.org/2000/svg" width="32" height="32" viewBox="0 0 32 32">
<title>missed-connection</title>
<path fill="#fff" d="M12.258 18.177l-1.705-1.449v-4.169l6.508 3.184c0.155 0.077 0.333 0.046 0.465-0.062 0.294-0.263 0.457-0.612 0.457-0.984 0-0.38-0.163-0.728-0.457-0.992l-6.973-6.23v-4.664c0-0.364-0.139-0.705-0.395-0.969-0.496-0.504-1.364-0.496-1.852 0.016-0.248 0.256-0.38 0.589-0.38 0.945v4.664l-6.973 6.237c-0.294 0.263-0.449 0.612-0.449 0.984 0 0.38 0.163 0.728 0.449 0.992 0.132 0.116 0.31 0.139 0.465 0.062l6.516-3.192v4.184l-1.681 1.433c-0.016 0.008-0.039 0.039-0.046 0.047-0.333 0.364-0.364 0.883-0.077 1.294 0.294 0.426 0.837 0.589 1.309 0.395l1.821-0.752 1.821 0.759c0.132 0.054 0.271 0.085 0.411 0.085 0.349 0 0.69-0.17 0.899-0.48 0.287-0.411 0.256-0.93-0.093-1.302-0.008-0.015-0.023-0.031-0.039-0.039zM11.7 19.037c-0.015 0.015-0.124 0.17-0.302 0.101l-1.984-0.821c-0.101-0.039-0.217-0.039-0.318 0l-1.984 0.821c-0.17 0.070-0.279-0.070-0.302-0.101-0.062-0.085-0.062-0.163 0-0.24l1.821-1.55c0.108-0.093 0.163-0.24 0.139-0.387v-4.974c0-0.147-0.077-0.279-0.201-0.356s-0.279-0.085-0.411-0.023l-6.803 3.332c-0.016-0.046-0.023-0.093-0.023-0.147 0-0.132 0.062-0.263 0.17-0.364l7.113-6.361c0.085-0.077 0.139-0.194 0.139-0.31v-4.85c0-0.139 0.054-0.263 0.139-0.364 0.17-0.178 0.473-0.186 0.651-0.008 0.093 0.101 0.147 0.225 0.147 0.372v4.858c0 0.116 0.054 0.232 0.139 0.31l7.113 6.354c0.108 0.101 0.17 0.232 0.17 0.364 0 0.046-0.008 0.101-0.023 0.147l-6.795-3.332c-0.132-0.062-0.287-0.054-0.411 0.023s-0.201 0.209-0.201 0.356v4.951c-0.023 0.147 0.023 0.294 0.139 0.395l1.829 1.565c0.101 0.070 0.108 0.147 0.046 0.24z"></path>
<path fill="#fff" d="M31.496 15.791c0.015-0.349-0.093-0.682-0.325-0.938-0.24-0.263-0.566-0.418-0.922-0.426-0.349-0.015-0.69 0.116-0.953 0.349l-3.471 3.115-9.298-1.023c-0.395-0.047-0.759 0.070-1.038 0.325-0.279 0.248-0.434 0.604-0.434 1 0 0.17 0.101 0.325 0.263 0.387l6.725 2.712-3.115 2.797-2.193-0.294c-0.015 0-0.054-0.008-0.070-0.008-0.504-0.008-0.899 0.318-1.015 0.806-0.116 0.504 0.124 1.015 0.581 1.24l1.774 0.852 0.659 1.86c0.17 0.48 0.651 0.775 1.17 0.713 0.496-0.062 0.86-0.434 0.907-0.945 0-0.015 0-0.031 0-0.047l-0.054-2.231 3.099-2.782 1.976 6.973c0.047 0.163 0.186 0.287 0.356 0.302 0.054 0.008 0.108 0.008 0.163 0.008 0.325 0 0.635-0.116 0.876-0.333 0.279-0.256 0.434-0.604 0.434-1l-0.023-9.352 3.471-3.123c0.271-0.24 0.434-0.573 0.457-0.938zM30.481 16.101l-3.611 3.247c-0.085 0.077-0.139 0.194-0.139 0.31l0.023 9.538c0 0.147-0.054 0.279-0.155 0.372-0.039 0.031-0.077 0.062-0.124 0.077l-2.069-7.283c-0.039-0.139-0.147-0.248-0.287-0.287-0.039-0.008-0.077-0.015-0.116-0.015-0.101 0-0.201 0.039-0.279 0.108l-3.688 3.308c-0.124 0.077-0.201 0.217-0.201 0.364l0.062 2.41c-0.008 0.093-0.070 0.155-0.17 0.163-0.023 0-0.209 0.023-0.279-0.155l-0.713-2.022c-0.039-0.108-0.116-0.194-0.217-0.24l-1.937-0.93c-0.163-0.077-0.132-0.256-0.124-0.287 0.023-0.108 0.085-0.155 0.155-0.163l2.394 0.318c0.147 0.023 0.287-0.039 0.38-0.155l3.704-3.332c0.108-0.093 0.155-0.24 0.132-0.387-0.023-0.139-0.124-0.263-0.256-0.318l-7.020-2.828c0.023-0.047 0.054-0.085 0.093-0.116 0.101-0.093 0.24-0.132 0.387-0.116l9.484 1.069c0.124 0.015 0.24-0.023 0.325-0.108l3.611-3.247c0.101-0.093 0.232-0.139 0.364-0.139 0.132 0.008 0.24 0.054 0.325 0.147 0.077 0.085 0.124 0.209 0.116 0.333 0 0.147-0.062 0.271-0.17 0.364z"></path>
<path fill="#fff" d="M25.445 15.783v0c0.232 0 0.418-0.186 0.418-0.418 0-0.248-0.008-0.488-0.023-0.728-0.015-0.232-0.217-0.411-0.442-0.395-0.232 0.015-0.411 0.209-0.395 0.442 0.015 0.225 0.023 0.449 0.015 0.682 0.008 0.232 0.194 0.418 0.426 0.418z"></path>
<path fill="#fff" d="M13.335 3.673c0.248 0 0.496 0.008 0.744 0.023 0.008 0 0.015 0 0.023 0 0.217 0 0.403-0.17 0.418-0.395 0.015-0.232-0.163-0.434-0.395-0.442-0.263-0.015-0.527-0.023-0.798-0.023-0.232 0-0.418 0.186-0.418 0.418 0.008 0.232 0.194 0.418 0.426 0.418z"></path>
<path fill="#fff" d="M15.845 3.944c0.24 0.054 0.488 0.116 0.721 0.186 0.039 0.008 0.077 0.016 0.116 0.016 0.186 0 0.349-0.116 0.403-0.302 0.062-0.225-0.062-0.457-0.287-0.519-0.256-0.070-0.511-0.139-0.775-0.194-0.225-0.046-0.449 0.093-0.504 0.318-0.046 0.217 0.101 0.442 0.325 0.496z"></path>
<path fill="#fff" d="M25.267 13.242c0.225-0.046 0.372-0.271 0.325-0.496-0.054-0.263-0.116-0.519-0.194-0.775-0.062-0.225-0.294-0.356-0.519-0.294s-0.356 0.294-0.294 0.519c0.070 0.24 0.124 0.48 0.178 0.721 0.039 0.194 0.217 0.333 0.411 0.333 0.039 0 0.070 0 0.093-0.008z"></path>
<path fill="#fff" d="M21.656 12.351c2.89 0 5.246-2.355 5.246-5.246s-2.355-5.246-5.246-5.246-5.246 2.355-5.246 5.246 2.355 5.246 5.246 5.246zM21.656 2.696c2.425 0 4.401 1.976 4.401 4.401s-1.976 4.401-4.401 4.401-4.401-1.976-4.401-4.401 1.976-4.401 4.401-4.401z"></path>
<path fill="#fff" d="M19.332 9.43c0.085 0.085 0.186 0.124 0.294 0.124s0.217-0.039 0.294-0.124l1.728-1.728 1.712 1.712c0.085 0.085 0.186 0.124 0.294 0.124s0.217-0.039 0.294-0.124c0.163-0.163 0.163-0.426 0-0.597l-1.712-1.712 1.728-1.736c0.163-0.163 0.163-0.426 0-0.597-0.163-0.163-0.426-0.163-0.597 0l-1.712 1.736-1.712-1.712c-0.163-0.163-0.426-0.163-0.597 0-0.163 0.163-0.163 0.426 0 0.597l1.712 1.712-1.728 1.728c-0.163 0.163-0.163 0.434 0 0.597z"></path>
</svg>
