<!-- Generated by IcoMoon.io -->
<svg version="1.1" xmlns="http://www.w3.org/2000/svg" width="32" height="32" viewBox="0 0 32 32">
<title>mobile-advertising</title>
<path fill="#fff" d="M24.283 0.504h-16.566c-0.666 0-1.201 0.535-1.201 1.201v28.591c0 0.659 0.535 1.201 1.201 1.201h16.573c0.62 0 1.201-0.581 1.201-1.201v-28.591c-0.008-0.62-0.589-1.201-1.209-1.201zM7.291 5.664h17.426v19.859h-17.426v-19.859zM7.717 1.278h16.573c0.194 0 0.426 0.232 0.426 0.426v3.184h-17.426v-3.184c0-0.209 0.163-0.426 0.426-0.426zM24.283 30.722h-16.566c-0.263 0-0.426-0.225-0.426-0.426v-3.998h17.426v3.998c-0.008 0.194-0.24 0.426-0.434 0.426z"></path>
<path fill="#fff" d="M17.263 28.351c0 0.676-0.548 1.224-1.224 1.224s-1.224-0.548-1.224-1.224c0-0.676 0.548-1.224 1.224-1.224s1.224 0.548 1.224 1.224z"></path>
<path fill="#fff" d="M22.501 27.963h-2.518c-0.217 0-0.387 0.17-0.387 0.387s0.17 0.387 0.387 0.387h2.518c0.217 0 0.387-0.17 0.387-0.387s-0.178-0.387-0.387-0.387z"></path>
<path fill="#fff" d="M12.017 27.963h-2.518c-0.217 0-0.387 0.17-0.387 0.387s0.17 0.387 0.387 0.387h2.518c0.217 0 0.387-0.17 0.387-0.387s-0.17-0.387-0.387-0.387z"></path>
<path fill="#fff" d="M14.21 3.549h3.572c0.217 0 0.387-0.17 0.387-0.387s-0.17-0.387-0.387-0.387h-3.572c-0.217 0-0.387 0.17-0.387 0.387 0.008 0.217 0.178 0.387 0.387 0.387z"></path>
<path fill="#fff" d="M12.707 18.185c0.077 0 0.116-0.023 0.147-0.116l0.364-1.139h1.72l0.349 1.154c0.023 0.062 0.039 0.093 0.116 0.093h0.434c0.054 0 0.070-0.039 0.054-0.101l-1.472-4.463c-0.023-0.062-0.039-0.108-0.132-0.108h-0.395c-0.077 0-0.116 0.031-0.132 0.108l-1.472 4.447c-0.031 0.077-0.008 0.116 0.054 0.116h0.364v0.008zM13.745 15.241l0.333-1.123h0.023l0.341 1.139 0.356 1.178h-1.402l0.349-1.193z"></path>
<path fill="#fff" d="M16.721 18.185h1.317c1.534 0 1.891-1.054 1.891-2.348s-0.38-2.317-1.891-2.317h-1.34c-0.093 0-0.124 0.039-0.124 0.116v4.44c0 0.070 0.039 0.108 0.147 0.108zM17.123 14.016h0.914c0.674 0 1.309 0.294 1.309 1.875 0 1.565-0.728 1.782-1.364 1.782h-0.86v-3.657z"></path>
<path fill="#fff" d="M21.78 11.537h-11.56c-0.217 0-0.387 0.17-0.387 0.387v7.779c0 0.217 0.17 0.387 0.387 0.387h11.56c0.217 0 0.387-0.17 0.387-0.387v-7.779c0-0.217-0.17-0.387-0.387-0.387zM21.393 19.316h-10.785v-7.012h10.785v7.012z"></path>
</svg>
