<!-- Generated by IcoMoon.io -->
<svg version="1.1" xmlns="http://www.w3.org/2000/svg" width="32" height="32" viewBox="0 0 32 32">
<title>mobile</title>
<path fill="#fff" d="M24.244 0.504h-16.488c-0.697 0-1.271 0.573-1.271 1.271v28.451c0 0.697 0.573 1.271 1.271 1.271h16.488c0.666 0 1.271-0.604 1.271-1.271v-28.451c0-0.666-0.604-1.271-1.271-1.271zM7.407 5.788h17.185v19.611h-17.185v-19.611zM7.756 1.426h16.488c0.147 0 0.349 0.201 0.349 0.349v3.099h-17.185v-3.099c0-0.139 0.108-0.349 0.349-0.349zM24.244 30.574h-16.488c-0.24 0-0.349-0.209-0.349-0.349v-3.905h17.185v3.905c0 0.147-0.201 0.349-0.349 0.349z"></path>
<path fill="#fff" d="M17.294 28.289c0 0.715-0.579 1.294-1.294 1.294s-1.294-0.579-1.294-1.294c0-0.715 0.579-1.294 1.294-1.294s1.294 0.579 1.294 1.294z"></path>
<path fill="#fff" d="M22.47 27.824h-2.503c-0.256 0-0.465 0.209-0.465 0.465s0.209 0.465 0.465 0.465h2.503c0.256 0 0.465-0.209 0.465-0.465s-0.217-0.465-0.465-0.465z"></path>
<path fill="#fff" d="M12.041 27.824h-2.51c-0.256 0-0.465 0.209-0.465 0.465s0.209 0.465 0.465 0.465h2.503c0.256 0 0.465-0.209 0.465-0.465s-0.201-0.465-0.457-0.465z"></path>
<path fill="#fff" d="M14.218 3.688h3.556c0.256 0 0.465-0.209 0.465-0.465s-0.209-0.465-0.465-0.465h-3.556c-0.256 0-0.465 0.209-0.465 0.465s0.217 0.465 0.465 0.465z"></path>
</svg>
