<!-- Generated by IcoMoon.io -->
<svg version="1.1" xmlns="http://www.w3.org/2000/svg" width="32" height="32" viewBox="0 0 32 32">
<title>money-bag</title>
<path fill="#fff" d="M16.465 12.839h-0.597c-0.17 0-0.248 0.077-0.248 0.232v1.154c-1.999 0.17-3.153 1.247-3.153 3.061 0 2.076 1.712 2.58 3.711 2.882 1.674 0.271 2.27 0.651 2.27 1.96 0 1.023-0.806 1.619-2.464 1.619-0.651 0-2.115-0.132-3.076-0.232-0.17-0.015-0.349 0.015-0.387 0.248l-0.077 0.426c-0.039 0.209 0 0.364 0.271 0.465 0.651 0.232 1.945 0.403 2.906 0.442v1.286c0 0.155 0.093 0.209 0.248 0.209h0.597c0.132 0 0.232-0.093 0.232-0.209v-1.309c1.829-0.17 3.293-1.023 3.293-3.138 0-2.363-1.697-2.805-3.673-3.115-1.658-0.271-2.324-0.442-2.324-1.596 0-1 0.504-1.674 2.193-1.674 1 0 2.115 0.132 2.882 0.232 0.271 0.039 0.349-0.015 0.387-0.194l0.116-0.519c0.039-0.132 0.015-0.31-0.271-0.442-0.728-0.287-1.829-0.387-2.596-0.426v-1.131c-0.008-0.132-0.085-0.232-0.24-0.232z"></path>
<path fill="#fff" d="M19.727 7.841v-0.775c0-0.108-0.085-0.194-0.194-0.194h-7.074c-0.108 0-0.194 0.085-0.194 0.194v0.775c0 0.108 0.085 0.194 0.194 0.194h7.074c0.108 0 0.194-0.085 0.194-0.194z"></path>
<path fill="#fff" d="M12.358 6.524c0.039-0.008 0.070-0.008 0.108-0.008h0.736l-2.146-4.812c0.628-0.248 2.015-0.682 3.192-0.186 0.581 0.24 0.953 0.527 1.309 0.806 0.682 0.527 1.333 1.030 2.968 0.845 0.899-0.101 1.534-0.225 1.984-0.349l-1.658 3.696h0.682c0.054 0 0.108 0.008 0.163 0.023l1.922-4.277c0.070-0.163 0.023-0.349-0.116-0.457s-0.333-0.116-0.48-0.008c-0.008 0-0.519 0.364-2.58 0.589-1.325 0.147-1.751-0.186-2.402-0.69-0.38-0.294-0.814-0.628-1.488-0.914-1.898-0.79-4.099 0.318-4.192 0.364-0.186 0.093-0.263 0.318-0.178 0.504l2.177 4.874z"></path>
<path fill="#fff" d="M23.276 12.761c-1.395-2.154-2.805-3.835-3.386-4.494-0.101 0.085-0.225 0.132-0.356 0.132h-0.542c0.015 0.031 0.031 0.054 0.047 0.085 0.070 0.077 7.136 7.795 7.136 14.303 0 7.361-7.663 7.934-10.018 7.934-4.44 0-10.352-0.86-10.352-8.267 0-7.554 7.035-13.877 7.113-13.939 0.039-0.031 0.062-0.070 0.085-0.108h-0.55c-0.155 0-0.287-0.062-0.387-0.163-1.449 1.387-7.028 7.183-7.028 14.202 0 9.050 8.376 9.050 11.126 9.050 2.534 0 10.793-0.628 10.793-8.717 0.008-2.867-1.232-6.245-3.68-10.018z"></path>
</svg>
