<!-- Generated by IcoMoon.io -->
<svg version="1.1" xmlns="http://www.w3.org/2000/svg" width="32" height="32" viewBox="0 0 32 32">
<title>monetization</title>
<path fill="#fff" d="M27.661 7.322h-7.655c-0.55-0.581-1.162-1.054-1.813-1.387 0.039-0.093 0.054-0.186 0.054-0.287v-0.093c0-0.256-0.124-0.48-0.31-0.628l1.162-3.719c0.039-0.139 0-0.287-0.108-0.38s-0.263-0.116-0.387-0.046l-1.426 0.697-0.953-0.883c-0.139-0.132-0.356-0.132-0.496 0.008l-0.945 0.945-1.433-0.581c-0.132-0.054-0.271-0.023-0.38 0.070-0.101 0.093-0.139 0.24-0.101 0.372l1.123 3.556c-0.163 0.147-0.271 0.356-0.271 0.589v0.093c0 0.124 0.031 0.24 0.085 0.349-0.597 0.325-1.162 0.775-1.674 1.325h-7.795c-0.837 0-1.526 0.682-1.526 1.526v16.023c0 0.837 0.682 1.526 1.526 1.526h7.95v1.387c0 0.24-0.139 0.69-0.271 0.891l-0.651 0.976c-0.271 0.411-0.31 0.86-0.108 1.247 0.201 0.38 0.604 0.597 1.1 0.597h7.283c0.496 0 0.891-0.217 1.1-0.597 0.201-0.38 0.163-0.837-0.108-1.247l-0.651-0.976c-0.132-0.201-0.271-0.651-0.271-0.891v-1.387h7.95c0.837 0 1.526-0.682 1.526-1.526v-16.031c-0.008-0.837-0.69-1.519-1.526-1.519zM27.661 8.035c0.449 0 0.806 0.364 0.806 0.806v12.715c-0.015 0-0.031-0.008-0.047-0.008h-24.887v-3.851l4.161-0.705c0.581-0.101 1.193 0.085 1.627 0.48l2.348 2.169c0.744 0.69 1.705 1.061 2.72 1.061h4.75c0.659 0 1.201-0.542 1.201-1.201 0-0.403-0.201-0.759-0.511-0.976 1.65-1.201 2.658-3.146 2.658-5.199 0-1.844-0.744-3.797-1.883-5.292h7.059zM10.297 12.847c0.821 0 1.612 0.349 2.162 0.953l1.643 1.79c0.225 0.248 0.333 0.566 0.302 0.899-0.023 0.232-0.108 0.442-0.248 0.612l-2.015-1.991c-0.139-0.139-0.364-0.139-0.504 0s-0.139 0.364 0 0.504l2.255 2.224c0.008 0.008 0.008 0.008 0.015 0.008l0.178 0.178c0.612 0.628 1.472 0.992 2.348 0.992h2.704c0.271 0 0.488 0.217 0.488 0.488s-0.217 0.488-0.488 0.488h-4.757c-0.829 0-1.619-0.31-2.231-0.876l-2.348-2.169c-0.597-0.55-1.433-0.798-2.231-0.666l-4.037 0.69v-4.13h6.764v0.008zM14.52 5.726c-0.039 0-0.077-0.031-0.077-0.077v-0.093c0-0.039 0.031-0.077 0.077-0.077h2.921c0.008 0 0.008 0 0.015 0 0.039 0 0.070 0.031 0.070 0.077v0.093c0 0.039-0.031 0.077-0.077 0.077h-2.929zM14.729 2.301c0.132 0.054 0.287 0.023 0.387-0.077l0.876-0.868 0.876 0.821c0.108 0.101 0.271 0.124 0.403 0.062l0.907-0.442-0.93 2.968h-2.557l-0.899-2.844 0.938 0.38zM14.474 6.462c0.015-0.008 0.023-0.016 0.039-0.023h2.944c0.039 0 0.077-0.008 0.108-0.008 2.278 0.953 4.207 4.114 4.207 6.896 0 1.999-1.069 3.882-2.789 4.905-0.031 0.023-0.062 0.047-0.085 0.077h-2.464c-0.651 0-1.286-0.256-1.759-0.697 0.256-0.294 0.411-0.666 0.449-1.054 0.046-0.527-0.132-1.054-0.488-1.449l-1.643-1.79c-0.651-0.705-1.557-1.131-2.518-1.178 0.442-2.472 2.092-4.827 3.998-5.679zM4.339 8.035h7.19c-0.883 1.17-1.542 2.619-1.782 4.091h-6.214v-3.285c0-0.442 0.364-0.806 0.806-0.806zM20.037 30.047c0.070 0.108 0.178 0.318 0.077 0.511s-0.333 0.217-0.465 0.217h-7.283c-0.132 0-0.364-0.031-0.465-0.217-0.101-0.194 0-0.403 0.077-0.511l0.651-0.976c0.209-0.318 0.387-0.907 0.387-1.294v-1.395h5.989v1.395c0 0.38 0.178 0.976 0.387 1.294l0.643 0.976zM27.661 25.677h-1.038c-0.008 0-0.008 0-0.015 0h-20.99c-0.008 0-0.008 0-0.016 0h-1.263c-0.449 0-0.806-0.364-0.806-0.806v-2.611h24.887c0.015 0 0.031-0.008 0.047-0.008v2.619c0 0.449-0.364 0.806-0.806 0.806z"></path>
<path fill="#fff" d="M16.728 24.143c0 0.402-0.326 0.728-0.728 0.728s-0.728-0.326-0.728-0.728c0-0.402 0.326-0.728 0.728-0.728s0.728 0.326 0.728 0.728z"></path>
<path fill="#fff" d="M14.125 12.002l0.38-0.008c0.085 1.046 0.511 1.906 1.821 1.906 0.287 0 0.961-0.054 1.309-0.194 0.093-0.039 0.093-0.085 0.077-0.163l-0.039-0.186c-0.015-0.054-0.047-0.101-0.147-0.085-0.341 0.046-0.759 0.101-1.209 0.101-0.876 0-1.154-0.62-1.224-1.379h1.968c0.054 0 0.062-0.023 0.062-0.054v-0.232c0-0.062-0.023-0.085-0.077-0.085h-2.921c-0.054 0-0.077 0.039-0.077 0.062v0.248c0.008 0.054 0.031 0.070 0.077 0.070z"></path>
<path fill="#fff" d="M14.125 11.297h2.944c0.054 0 0.062-0.031 0.062-0.062v-0.232c0-0.062-0.015-0.077-0.070-0.077h-1.968c0.062-0.79 0.318-1.41 1.232-1.41 0.426 0 0.891 0.054 1.216 0.101 0.093 0.015 0.124-0.031 0.139-0.077l0.047-0.201c0.015-0.062 0.008-0.116-0.093-0.163-0.387-0.155-1.015-0.186-1.302-0.186-1.325 0-1.728 0.883-1.821 1.937h-0.372c-0.054 0-0.077 0.031-0.077 0.062v0.248c-0.008 0.054 0.015 0.062 0.062 0.062z"></path>
</svg>
