<!-- Generated by IcoMoon.io -->
<svg version="1.1" xmlns="http://www.w3.org/2000/svg" width="32" height="32" viewBox="0 0 32 32">
<title>morphing</title>
<path fill="#fff" d="M31.496 17.24c0 0 0-0.008 0 0 0-0.008 0-0.015 0-0.023 0-0.031-0.008-0.062-0.015-0.101 0-0.015-0.008-0.023-0.015-0.039-0.008-0.023-0.023-0.054-0.039-0.077-0.008-0.008-0.015-0.023-0.023-0.031-0.023-0.031-0.047-0.054-0.077-0.077l-0.008-0.008c-0.031-0.023-0.070-0.039-0.108-0.054-0.008 0-0.008-0.008-0.008-0.008l-6.346-1.945c-0.124-0.039-0.256-0.015-0.356 0.054-0.449 0.186-4.068 1.247-6.284 1.891-0.008 0-0.008 0.008-0.015 0.008-0.031 0.008-0.070 0.023-0.101 0.047 0 0-0.008 0-0.008 0.008v0c-0.031 0.023-0.062 0.047-0.085 0.077-0.008 0.008-0.015 0.015-0.015 0.023-0.015 0.023-0.031 0.047-0.039 0.077-0.008 0.015-0.008 0.023-0.015 0.039-0.008 0.031-0.015 0.062-0.015 0.093 0 0.008-0.008 0.015-0.008 0.023v6.989c0 0.178 0.108 0.333 0.279 0.395l6.384 2.386c0.047 0.015 0.093 0.023 0.139 0.023s0.093-0.008 0.139-0.023h0.008l6.377-2.386c0.163-0.062 0.279-0.217 0.279-0.395v-6.973c-0.023 0.008-0.023 0.008-0.023 0.008zM24.732 15.752l5.021 1.534-5.060 1.898-5.029-1.883c3.161-0.914 4.502-1.309 5.067-1.55zM18.743 17.86l1.030 0.387 4.502 1.681v6.067l-5.532-2.069v-6.067zM25.12 25.995v-6.067l5.532-2.069v6.067l-5.532 2.069z"></path>
<path fill="#fff" d="M7.043 5.060c-0.008-0.008-0.016-0.008-0.016-0.008-0.031-0.023-0.054-0.039-0.085-0.046-0.008-0.008-0.023-0.008-0.031-0.016-0.039-0.016-0.085-0.023-0.124-0.023v0 0h-0.008c-0.039 0-0.077 0.008-0.116 0.023-0.016 0.008-0.023 0.008-0.039 0.016-0.031 0.016-0.054 0.031-0.085 0.046-0.008 0.008-0.016 0.008-0.023 0.016s-0.008 0.008-0.008 0.016c-0.023 0.023-0.054 0.054-0.070 0.085-0.008 0.008-0.008 0.016-0.016 0.016 0 0 0 0 0 0.008l-5.865 10.7c-0.070 0.132-0.070 0.294 0.008 0.418 0.077 0.132 0.217 0.209 0.364 0.209h11.739c0.054 0 0.108-0.015 0.155-0.031 0.008-0.008 0.023-0.008 0.031-0.015 0.046-0.023 0.085-0.054 0.124-0.093 0 0 0.008 0 0.008-0.008l3.107-3.51c0.077-0.085 0.116-0.201 0.108-0.318s-0.070-0.225-0.155-0.294l-9.003-7.19zM6.78 6.276l5.168 9.399h-10.305l5.137-9.399zM12.746 15.365l-4.571-8.314 6.981 5.586-2.41 2.727z"></path>
<path fill="#fff" d="M13.691 20.757c-0.17-0.155-0.442-0.147-0.597 0.023-0.163 0.17-0.147 0.442 0.023 0.597l1.255 1.162h-4.68c-1.379 0-2.503-1.123-2.503-2.503v-1.852c0-0.232-0.186-0.426-0.426-0.426-0.232 0-0.426 0.186-0.426 0.426v1.852c0 1.844 1.503 3.355 3.355 3.355h4.68l-1.255 1.162c-0.17 0.163-0.178 0.426-0.023 0.597 0.085 0.093 0.194 0.139 0.31 0.139 0.101 0 0.209-0.039 0.287-0.116l1.929-1.79c0.124-0.116 0.186-0.263 0.186-0.426s-0.070-0.31-0.186-0.426l-1.929-1.774z"></path>
</svg>
