<!-- Generated by IcoMoon.io -->
<svg version="1.1" xmlns="http://www.w3.org/2000/svg" width="32" height="32" viewBox="0 0 32 32">
<title>motocycle</title>
<path fill="#fff" d="M26.987 14.853c-0.767 0-1.48 0.194-2.115 0.527l-1.418-2.324c0.279 0.163 0.604 0.256 0.953 0.256 0.155 0 0.279-0.124 0.279-0.279v-3.308c0-0.155-0.124-0.279-0.279-0.279-1.061 0-1.929 0.868-1.929 1.937 0 0.031 0 0.054 0.008 0.077l-1.596-2.611c-0.294-0.48-0.837-0.759-1.395-0.713l-2.851 0.225c-0.155 0.015-0.263 0.147-0.256 0.294 0.015 0.155 0.147 0.271 0.294 0.256l2.851-0.225c0.356-0.023 0.69 0.139 0.876 0.449l3.99 6.532c-1.162 0.814-1.922 2.162-1.922 3.688 0 2.487 2.022 4.509 4.509 4.509s4.509-2.022 4.509-4.509c0-2.479-2.022-4.502-4.509-4.502zM24.136 10.026v2.696c-0.628-0.132-1.1-0.682-1.1-1.348 0-0.659 0.473-1.216 1.1-1.348zM26.987 23.314c-2.177 0-3.952-1.774-3.952-3.952 0-1.325 0.659-2.495 1.658-3.215l2.123 3.479c0.054 0.085 0.147 0.132 0.24 0.132 0.047 0 0.101-0.015 0.147-0.039 0.132-0.077 0.17-0.248 0.093-0.38l-2.123-3.479c0.542-0.287 1.162-0.449 1.821-0.449 2.177 0 3.952 1.774 3.952 3.952-0.008 2.177-1.774 3.952-3.959 3.952z"></path>
<path fill="#fff" d="M9.863 20.076c-0.147-0.031-0.294 0.054-0.333 0.209-0.426 1.782-2.007 3.030-3.843 3.030-2.015 0-3.704-1.503-3.928-3.502-0.016-0.155-0.147-0.263-0.31-0.248-0.155 0.015-0.263 0.155-0.248 0.31 0.256 2.278 2.185 3.99 4.478 3.99 2.092 0 3.897-1.418 4.385-3.456 0.039-0.147-0.054-0.294-0.201-0.333z"></path>
<path fill="#fff" d="M3.572 16.015c0.628-0.403 1.364-0.612 2.115-0.612 1.030 0 2.007 0.395 2.743 1.108 0.054 0.054 0.124 0.077 0.194 0.077s0.147-0.031 0.201-0.085c0.108-0.108 0.101-0.287-0.008-0.395-0.845-0.814-1.953-1.263-3.13-1.263-0.86 0-1.689 0.24-2.41 0.697-0.132 0.085-0.17 0.256-0.085 0.38 0.077 0.139 0.248 0.178 0.38 0.093z"></path>
<path fill="#fff" d="M20.618 12.692c0.062-0.349 0.17-1.271-0.372-1.976-0.418-0.542-1.1-0.814-2.038-0.814-2.301 0-4.076 1.65-4.734 2.363-0.124 0.132-0.294 0.201-0.473 0.186l-3.75-0.31c-0.31-0.015-0.488-0.031-0.535-0.046l-3.998-1.24c-0.147-0.046-0.302 0.039-0.349 0.186s0.039 0.302 0.186 0.349l3.998 1.24c0.108 0.031 0.318 0.046 0.666 0.070l3.742 0.31c0.349 0.023 0.682-0.108 0.922-0.364 0.604-0.659 2.239-2.185 4.323-2.185 0.752 0 1.294 0.201 1.596 0.597 0.387 0.496 0.325 1.201 0.271 1.495l-5.951 2.046c-0.17 0.062-0.356 0.070-0.535 0.023-0.225-0.062-0.504-0.139-0.829-0.24-1.216-0.364-3.053-0.914-5.424-1.216-3.618-0.457-5.261 1.705-5.323 1.798-0.093 0.124-0.062 0.294 0.062 0.387 0.046 0.039 0.108 0.054 0.163 0.054 0.085 0 0.17-0.039 0.225-0.116 0.015-0.023 1.511-1.999 4.819-1.581 2.324 0.294 4.138 0.837 5.331 1.193 0.333 0.101 0.62 0.186 0.845 0.248 0.279 0.077 0.581 0.062 0.852-0.031l5.912-2.030 1.356 1.813c0.132 0.17 0.17 0.403 0.101 0.612l-0.837 2.627c-0.093 0.302-0.364 0.511-0.682 0.535l-7.369 0.527-11.692-0.744 0.209-1.588 11.506 1.348c0.077 0.008 0.155-0.015 0.217-0.070s0.093-0.132 0.093-0.209v-1.379c0-0.139-0.101-0.256-0.232-0.271l-2.913-0.442c-0.155-0.023-0.294 0.077-0.318 0.232s0.077 0.294 0.232 0.318l2.673 0.411v0.829l-11.467-1.348c-0.147-0.015-0.287 0.085-0.31 0.24l-0.287 2.154c-0.008 0.077 0.015 0.155 0.062 0.209 0.046 0.062 0.116 0.093 0.194 0.101l12.010 0.767c0.008 0 0.015 0 0.015 0 0.008 0 0.015 0 0.023 0l7.392-0.527c0.542-0.039 1.007-0.403 1.17-0.922l0.837-2.627c0.116-0.38 0.047-0.79-0.186-1.108l-1.402-1.883z"></path>
</svg>
