<!-- Generated by IcoMoon.io -->
<svg version="1.1" xmlns="http://www.w3.org/2000/svg" width="32" height="32" viewBox="0 0 32 32">
<title>mountains</title>
<path fill="#fff" d="M31.241 23.43h-1.379c-0.597-1.798-5.23-15.372-9.344-15.372-2.371 0-4.835 4.866-7.206 10.445-0.837-2.038-2.371-4.912-4.308-4.912-2.464 0-4.951 5.424-6.609 9.499-0.054 0.132-0.101 0.248-0.139 0.349h-1.495c-0.139 0-0.256 0.116-0.256 0.256s0.116 0.256 0.256 0.256h30.474c0.139 0 0.256-0.116 0.256-0.256s-0.108-0.263-0.248-0.263zM15.217 15.442c0.364 0.457 0.86 0.783 1.464 0.953 0.449 0.124 0.891 0.186 1.348 0.186 0.883 0 1.813-0.24 2.913-0.736l0.473-0.217c1.736-0.79 2.27-1.030 4.223-1.216 1.178 2.286 2.433 5.276 3.673 9.019h-17.503c0.279-0.643 0.604-1.433 0.969-2.324 0.682-1.658 1.519-3.704 2.441-5.664zM20.509 8.569c1.17 0 2.913 1.705 4.866 5.338-1.875 0.194-2.495 0.473-4.176 1.24l-0.473 0.217c-1.557 0.705-2.689 0.86-3.905 0.527-0.581-0.163-1.046-0.504-1.348-0.984 1.619-3.37 3.448-6.338 5.036-6.338zM8.988 14.102c0.976 0 2.069 1.085 3.076 2.975-0.581-0.194-1.271-0.232-1.712-0.17-0.728 0.101-1.402 0.434-1.991 0.721l-0.132 0.070c-0.542 0.271-1.108 0.55-1.689 0.62s-1.023-0.194-1.201-0.387c1.402-2.541 2.627-3.828 3.649-3.828zM2.867 23.276c0.783-1.929 1.526-3.556 2.224-4.881 0.287 0.24 0.728 0.449 1.263 0.449 0.085 0 0.163-0.008 0.256-0.015 0.674-0.077 1.271-0.38 1.86-0.666l0.132-0.062c0.558-0.271 1.185-0.581 1.829-0.674 0.659-0.093 1.643 0.070 2.030 0.449 0.186 0.411 0.372 0.845 0.558 1.309-0.24 0.573-0.48 1.147-0.721 1.728-0.411 0.992-0.759 1.844-1.054 2.518h-8.438c0.015-0.054 0.039-0.101 0.062-0.155z"></path>
</svg>
