<!-- Generated by IcoMoon.io -->
<svg version="1.1" xmlns="http://www.w3.org/2000/svg" width="32" height="32" viewBox="0 0 32 32">
<title>mouse</title>
<path fill="#fff" d="M16.155 11.955c-0.93 0-1.689 0.752-1.689 1.681v3.797c0 0.93 0.759 1.681 1.689 1.681 0.922 0 1.681-0.752 1.681-1.681v-3.797c0-0.922-0.752-1.681-1.681-1.681zM17.123 17.441c0 0.535-0.434 0.969-0.961 0.969-0.535 0-0.969-0.434-0.969-0.969v-3.797c0-0.535 0.434-0.969 0.969-0.969s0.961 0.434 0.961 0.969v3.797z"></path>
<path fill="#fff" d="M16.604 7.276v-2.875c0-2.146-1.751-3.897-3.897-3.897h-4.726c-0.194 0-0.356 0.163-0.356 0.356s0.163 0.356 0.356 0.356h4.726c1.751 0 3.184 1.426 3.184 3.184v2.875c-4.486 0.139-7.957 3.828-7.957 8.515v7.307c0 4.711 3.611 8.399 8.221 8.399s8.221-3.688 8.221-8.399v-7.307c0-4.626-3.378-8.275-7.771-8.515zM23.663 23.097c0 4.385-3.231 7.686-7.508 7.686s-7.508-3.308-7.508-7.686v-7.307c0-4.378 3.301-7.802 7.508-7.802s7.508 3.432 7.508 7.802v7.307z"></path>
</svg>
