<!-- Generated by IcoMoon.io -->
<svg version="1.1" xmlns="http://www.w3.org/2000/svg" width="32" height="32" viewBox="0 0 32 32">
<title>music</title>
<path fill="#fff" d="M27.994 0.597c-0.124-0.093-0.279-0.116-0.426-0.077l-15.365 4.595c-0.209 0.062-0.349 0.248-0.349 0.465v20.083c-0.829-0.837-2.1-1.379-3.541-1.379-2.487 0-4.509 1.619-4.509 3.611s2.022 3.611 4.509 3.611c2.41 0 4.378-1.519 4.494-3.425 0-0.023 0.015-0.039 0.015-0.054v-17.495l14.388-4.3v14.404c-0.829-0.837-2.1-1.379-3.541-1.379-2.487 0-4.509 1.619-4.509 3.611s2.022 3.611 4.509 3.611c2.464 0 4.471-1.588 4.502-3.556 0-0.008 0-0.008 0-0.015v-21.912c0.015-0.155-0.054-0.302-0.178-0.395zM8.322 30.528c-1.953 0-3.541-1.185-3.541-2.634s1.588-2.634 3.541-2.634 3.541 1.185 3.541 2.634-1.588 2.634-3.541 2.634zM23.678 25.499c-1.953 0-3.541-1.185-3.541-2.634s1.588-2.634 3.541-2.634 3.541 1.185 3.541 2.634-1.588 2.634-3.541 2.634zM12.831 9.515v-3.58l14.388-4.3v3.58l-14.388 4.3z"></path>
</svg>
