<!-- Generated by IcoMoon.io -->
<svg version="1.1" xmlns="http://www.w3.org/2000/svg" width="32" height="32" viewBox="0 0 32 32">
<title>mutual-exchange</title>
<path fill="#fff" d="M19.781 11.831c0 1.743 1.418 3.153 3.154 3.153s3.154-1.418 3.154-3.154c0-1.743-1.418-3.154-3.154-3.154s-3.154 1.418-3.154 3.154zM25.352 11.831c0 1.333-1.085 2.41-2.41 2.41s-2.41-1.085-2.41-2.41c0-1.333 1.085-2.41 2.41-2.41s2.41 1.085 2.41 2.41z"></path>
<path fill="#fff" d="M24.856 15.256h-3.766c-2.208 0-3.998 1.728-3.998 3.859v2.681c0 0.201 0.163 0.372 0.372 0.372h10.886c0.201 0 0.372-0.163 0.372-0.372v-2.681c-0.008-2.162-1.705-3.859-3.866-3.859zM27.971 21.424h-10.142v-2.309c0-1.72 1.457-3.115 3.254-3.115h3.766c1.751 0 3.115 1.371 3.115 3.115l0.008 2.309z"></path>
<path fill="#fff" d="M5.982 11.831c0 1.743 1.418 3.153 3.153 3.153s3.154-1.418 3.154-3.154c0-1.743-1.418-3.154-3.154-3.154s-3.154 1.418-3.154 3.154zM11.553 11.831c0 1.333-1.085 2.41-2.41 2.41s-2.41-1.085-2.41-2.41c0-1.333 1.085-2.41 2.41-2.41s2.41 1.085 2.41 2.41z"></path>
<path fill="#fff" d="M14.915 21.796v-2.681c0-2.162-1.697-3.859-3.859-3.859h-3.773c-2.208 0-3.998 1.728-3.998 3.859v2.681c0 0.201 0.163 0.372 0.372 0.372h10.886c0.209 0 0.372-0.163 0.372-0.372zM14.171 21.424h-10.142v-2.309c0-1.72 1.457-3.115 3.254-3.115h3.766c1.751 0 3.115 1.371 3.115 3.115l0.008 2.309z"></path>
<path fill="#fff" d="M4.293 7.531c0.178 0.108 0.403 0.046 0.511-0.124 2.317-3.859 6.385-6.16 10.871-6.16 4.401 0 8.391 2.216 10.731 5.935l-3.030-0.108c-0.186-0.008-0.38 0.155-0.387 0.356s0.155 0.38 0.356 0.387l4.006 0.147c0.008 0 0.008 0 0.015 0 0.201 0 0.364-0.155 0.372-0.356l0.147-4.006c0.008-0.201-0.155-0.38-0.356-0.387-0.194 0.008-0.38 0.155-0.387 0.356l-0.116 3.208c-2.448-3.874-6.764-6.268-11.351-6.268-4.688 0-9.096 2.495-11.514 6.524-0.101 0.163-0.046 0.395 0.132 0.496z"></path>
<path fill="#fff" d="M27.707 24.469c-0.178-0.108-0.403-0.047-0.511 0.124-2.317 3.859-6.384 6.16-10.871 6.16-4.401 0-8.391-2.216-10.731-5.935l3.030 0.108c0.194 0 0.38-0.155 0.387-0.356s-0.155-0.38-0.356-0.387l-4.006-0.147c-0.101 0-0.194 0.031-0.263 0.101s-0.116 0.163-0.116 0.256l-0.147 4.006c-0.008 0.201 0.155 0.38 0.356 0.387 0.008 0 0.008 0 0.016 0 0.201 0 0.364-0.155 0.372-0.356l0.116-3.208c2.448 3.874 6.764 6.268 11.351 6.268 4.688 0 9.096-2.495 11.514-6.524 0.093-0.163 0.039-0.395-0.139-0.496z"></path>
</svg>
