<!-- Generated by IcoMoon.io -->
<svg version="1.1" xmlns="http://www.w3.org/2000/svg" width="32" height="32" viewBox="0 0 32 32">
<title>native-advertising</title>
<path fill="#fff" d="M12.327 28.351c0 0.719-0.583 1.302-1.302 1.302s-1.302-0.583-1.302-1.302c0-0.719 0.583-1.302 1.302-1.302s1.302 0.583 1.302 1.302z"></path>
<path fill="#fff" d="M17.526 27.963h-2.518c-0.209 0-0.387 0.17-0.387 0.387s0.17 0.387 0.387 0.387h2.518c0.209 0 0.387-0.17 0.387-0.387s-0.178-0.387-0.387-0.387z"></path>
<path fill="#fff" d="M7.043 27.963h-2.518c-0.209 0-0.387 0.17-0.387 0.387s0.17 0.387 0.387 0.387h2.518c0.209 0 0.387-0.17 0.387-0.387s-0.178-0.387-0.387-0.387z"></path>
<path fill="#fff" d="M9.236 3.549h3.572c0.209 0 0.387-0.17 0.387-0.387s-0.17-0.387-0.387-0.387h-3.572c-0.209 0-0.387 0.17-0.387 0.387s0.178 0.387 0.387 0.387z"></path>
<path fill="#fff" d="M17.813 7.214h-13.443c-0.209 0-0.387 0.17-0.387 0.387v16.070c0 0.209 0.17 0.387 0.387 0.387h13.443c0.209 0 0.387-0.17 0.387-0.387v-16.070c-0.008-0.217-0.178-0.387-0.387-0.387zM17.426 7.981v11.731h-0.256c-0.752-1.728-2.844-6.222-4.293-6.222-1.030 0-2.363 2.255-3.308 4.169-0.891-1.573-1.371-1.805-1.736-1.805-0.93 0-2.084 2.34-2.727 3.866h-0.349v-11.739h12.668zM8.631 19.711h-2.681c0.721-1.619 1.573-3.014 1.875-3.099 0.016 0.008 0.403 0.124 1.34 1.898-0.217 0.473-0.403 0.891-0.535 1.201zM9.956 18.642c0-0.008 0.008-0.008 0.008-0.015 1.1-2.317 2.363-4.37 2.913-4.37 0.635 0 2.239 2.727 3.448 5.455h-6.857c0.163-0.364 0.325-0.721 0.488-1.069zM4.757 23.283v-2.805h12.668v2.805h-12.668z"></path>
<path fill="#fff" d="M22.106 10.452h0.302c0.062 0 0.101-0.015 0.124-0.093l0.302-0.938h1.426l0.287 0.961c0.015 0.054 0.031 0.077 0.101 0.077h0.356c0.047 0 0.062-0.031 0.047-0.085l-1.216-3.696c-0.015-0.054-0.031-0.085-0.108-0.085h-0.325c-0.062 0-0.093 0.023-0.108 0.085l-1.216 3.68c-0.039 0.062-0.023 0.093 0.031 0.093zM23.268 8.012l0.271-0.93h0.015l0.279 0.945 0.294 0.976h-1.162l0.302-0.992z"></path>
<path fill="#fff" d="M25.724 10.452h1.093c1.263 0 1.565-0.868 1.565-1.945 0-1.069-0.318-1.922-1.565-1.922h-1.108c-0.077 0-0.108 0.031-0.108 0.093v3.673c0.008 0.070 0.031 0.101 0.124 0.101zM26.057 7.004h0.759c0.558 0 1.085 0.248 1.085 1.55 0 1.294-0.604 1.48-1.123 1.48h-0.721v-3.030z"></path>
<path fill="#fff" d="M30.078 4.889h-9.569v-3.192c0-0.612-0.581-1.193-1.193-1.193h-16.581c-0.736 0-1.193 0.62-1.193 1.193v28.599c0 0.659 0.535 1.193 1.193 1.193h16.573c0.612 0 1.193-0.581 1.193-1.193v-18.208h9.569c0.209 0 0.387-0.17 0.387-0.387v-6.431c0-0.209-0.17-0.38-0.38-0.38zM2.309 5.656h17.433v6.028c0 0.008-0.008 0.015-0.008 0.023s0.008 0.015 0.008 0.023v13.8h-17.433c0 0 0-19.874 0-19.874zM2.735 1.271h16.573c0.194 0 0.426 0.232 0.426 0.426v3.192h-17.433v-3.192c0.008-0.201 0.17-0.426 0.434-0.426zM19.308 30.729h-16.573c-0.263 0-0.426-0.225-0.426-0.426v-4.006h17.433v4.006c0 0.194-0.232 0.426-0.434 0.426zM29.691 11.328h-9.182v-5.672h9.182v5.672z"></path>
<path fill="#fff" d="M7.717 12.723c0.883 0 1.604-0.721 1.604-1.604s-0.721-1.604-1.604-1.604-1.604 0.721-1.604 1.604 0.721 1.604 1.604 1.604zM7.717 10.29c0.457 0 0.837 0.372 0.837 0.837s-0.372 0.837-0.837 0.837c-0.457 0-0.837-0.372-0.837-0.837s0.38-0.837 0.837-0.837z"></path>
</svg>
