<!-- Generated by IcoMoon.io -->
<svg version="1.1" xmlns="http://www.w3.org/2000/svg" width="32" height="32" viewBox="0 0 32 32">
<title>negotiated-rates-available</title>
<path fill="#fff" d="M26.29 0.504h-20.579c-0.93 0-1.689 0.759-1.689 1.689v21.005c0 0.93 0.759 1.689 1.689 1.689h20.579c0.93 0 1.689-0.759 1.689-1.689v-21.005c0-0.93-0.759-1.689-1.689-1.689zM27.072 23.198c0 0.434-0.349 0.783-0.783 0.783h-20.579c-0.434 0-0.783-0.349-0.783-0.783v-21.005c0-0.434 0.349-0.783 0.783-0.783h20.579c0.434 0 0.783 0.349 0.783 0.783v21.005z"></path>
<path fill="#fff" d="M20.75 25.422l-4.773 5.137-4.773-5.137c-0.17-0.186-0.457-0.194-0.643-0.023s-0.194 0.457-0.023 0.643l4.804 5.176c0.17 0.186 0.395 0.287 0.635 0.287s0.465-0.101 0.635-0.287l4.804-5.176c0.17-0.186 0.163-0.473-0.023-0.643s-0.473-0.163-0.643 0.023z"></path>
<path fill="#fff" d="M20.2 6.276h-0.434c-0.155 0-0.318 0.108-0.318 0.356v10.359l-6.78-10.499-0.031-0.039c-0.054-0.085-0.132-0.17-0.325-0.17h-0.504c-0.209 0-0.341 0.186-0.341 0.356l-0.015 12.134c0 0.209 0.147 0.356 0.356 0.356h0.449c0.155 0 0.318-0.108 0.318-0.356v-10.375l6.795 10.522c0.077 0.132 0.155 0.201 0.349 0.201h0.504c0.209 0 0.341-0.186 0.341-0.356v-12.134c-0.008-0.209-0.155-0.356-0.364-0.356zM19.58 18.844v0 0 0z"></path>
</svg>
