<!-- Generated by IcoMoon.io -->
<svg version="1.1" xmlns="http://www.w3.org/2000/svg" width="32" height="32" viewBox="0 0 32 32">
<title>network-01</title>
<path fill="#fff" d="M27.374 14.683c-1.743 0-3.2 1.232-3.556 2.875l-3.944-0.845c0.015-0.163 0.023-0.333 0.023-0.504 0-2.015-1.17-3.75-2.859-4.587l0.48-3.866c1.813-0.209 3.223-1.743 3.223-3.611 0-2.007-1.635-3.634-3.634-3.634s-3.634 1.635-3.634 3.634c0 1.829 1.356 3.339 3.115 3.595l-0.442 3.533c-0.434-0.116-0.891-0.186-1.356-0.186-1.255 0-2.41 0.457-3.301 1.216l-4.114-3.882c0.558-0.635 0.891-1.472 0.891-2.379-0.008-2.015-1.635-3.642-3.642-3.642s-3.642 1.627-3.642 3.634 1.635 3.634 3.634 3.634c0.759 0 1.457-0.232 2.038-0.628l4.153 3.921c-0.721 0.883-1.162 2.015-1.162 3.239 0 1.201 0.418 2.309 1.116 3.184l-4.122 4.122c-0.581-0.395-1.278-0.62-2.030-0.62-2.007 0-3.634 1.635-3.634 3.634 0 2.007 1.635 3.634 3.634 3.634s3.634-1.635 3.634-3.634c0-0.914-0.341-1.751-0.907-2.394l4.068-4.068c0.899 0.783 2.069 1.263 3.355 1.263 0.542 0 1.069-0.085 1.565-0.248l1.077 3.471c-1.255 0.573-2.131 1.836-2.131 3.301 0 2.007 1.635 3.634 3.634 3.634 2.007 0 3.634-1.635 3.634-3.634 0-2.007-1.635-3.634-3.634-3.634-0.209 0-0.411 0.023-0.612 0.054l-1.1-3.564c1.193-0.643 2.1-1.759 2.487-3.084l4.045 0.868c0.093 1.922 1.681 3.456 3.626 3.456 2.007 0 3.634-1.635 3.634-3.634s-1.604-3.626-3.611-3.626zM14.412 4.138c0-1.488 1.209-2.696 2.696-2.696s2.696 1.209 2.696 2.696-1.209 2.704-2.696 2.704-2.696-1.216-2.696-2.704zM21.625 27.862c0 1.488-1.209 2.696-2.696 2.696s-2.696-1.209-2.696-2.696 1.209-2.696 2.696-2.696 2.696 1.209 2.696 2.696zM1.922 6.036c0-1.488 1.209-2.696 2.696-2.696s2.696 1.209 2.696 2.696-1.209 2.696-2.696 2.696-2.696-1.209-2.696-2.696zM4.626 29.226c-1.488 0-2.696-1.209-2.696-2.696s1.209-2.696 2.696-2.696 2.696 1.209 2.696 2.696-1.209 2.696-2.696 2.696zM16.542 19.998c-0.015 0-0.031 0-0.039 0.008-0.054 0.015-0.108 0.047-0.147 0.085-0.488 0.194-1.015 0.31-1.573 0.31-2.309 0-4.184-1.875-4.184-4.184 0-1.139 0.457-2.177 1.201-2.929 0.008-0.008 0.015-0.008 0.015-0.015 0.008-0.008 0.008-0.015 0.015-0.023 0.759-0.752 1.798-1.224 2.952-1.224 2.309 0 4.184 1.875 4.184 4.184 0 1.674-0.992 3.123-2.425 3.789zM27.374 21.013c-1.488 0-2.696-1.209-2.696-2.696s1.209-2.696 2.696-2.696c1.488 0 2.696 1.209 2.696 2.696 0.008 1.488-1.209 2.696-2.696 2.696z"></path>
</svg>
