<!-- Generated by IcoMoon.io -->
<svg version="1.1" xmlns="http://www.w3.org/2000/svg" width="32" height="32" viewBox="0 0 32 32">
<title>network-02</title>
<path fill="#fff" d="M29.985 14.264c-0.039-0.039-0.085-0.070-0.132-0.085 0.256-0.387 0.504-0.783 0.744-1.193 0.139-0.24 0.225-0.504 0.248-0.783 0.070-0.814-0.488-1.604-1.325-1.867l-1.069-0.341c-1.999-4.246-5.974-7.338-10.662-8.143-0.372-0.372-1.573-1.472-2.627-1.333-0.318 0.039-0.752 0.209-1.062 0.783-0.070 0.124-0.116 0.263-0.147 0.411-0.728 0.070-1.441 0.194-2.131 0.364-0.744-0.535-1.495-0.728-2.239-0.566-0.984 0.217-1.891 1.061-2.704 2.51-0.101 0.178-0.209 0.38-0.318 0.597-1.317 1.015-2.456 2.255-3.363 3.649-0.24 0-0.48 0.008-0.705 0.015-0.511 0.023-0.976 0.271-1.278 0.697s-0.38 0.961-0.225 1.457l0.488 1.534c-0.48 1.596-0.697 3.301-0.597 5.052 0.139 2.441 0.876 4.75 2.115 6.78l-0.039 0.488c-0.077 0.922 0.225 1.79 0.837 2.441 0.581 0.612 1.379 0.953 2.255 0.953 0.031 0 0.062 0 0.093 0 0.093 0 0.194-0.008 0.302-0.008 2.549 1.999 5.648 3.076 8.895 3.076 0.248 0 0.504-0.008 0.759-0.023 0.054 0.023 0.108 0.047 0.163 0.070 1.093 0.465 2.015 0.697 2.774 0.697 0.488 0 0.914-0.093 1.278-0.287 0.643-0.341 1.069-0.953 1.302-1.875 1.542-0.744 2.952-1.759 4.169-3.022l1.534-0.108c0.031 0 0.062-0.008 0.101-0.015 1.069-0.325 1.689-1.472 1.371-2.565-0.108-0.38-0.232-0.752-0.356-1.108 0.767-1.604 1.24-3.332 1.379-5.122 0.031 0 0.070 0.008 0.101 0.008 0.504 0 0.86-0.155 1.069-0.457 0.411-0.628 0.047-1.596-1-2.681zM28.955 16.341c-0.155-0.047-0.325-0.101-0.511-0.17 0.17-0.217 0.333-0.434 0.496-0.659 0.015 0.271 0.023 0.55 0.015 0.829zM29.257 11.173c0.442 0.139 0.744 0.535 0.705 0.945-0.015 0.147-0.054 0.287-0.132 0.411-0.108 0.186-0.217 0.356-0.333 0.535-0.147-0.69-0.349-1.356-0.589-1.999l0.349 0.108zM28.808 14.148c-0.387 0.573-0.79 1.131-1.201 1.658-1.666-0.868-4.943-3.556-7.771-6.431 0.155-0.232 0.24-0.511 0.217-0.806-0.047-0.736-0.674-1.302-1.402-1.255-0.209 0.016-0.403 0.077-0.581 0.178-1.495-1.697-2.673-3.332-3.107-4.571-0.046-0.132-0.085-0.263-0.108-0.38 0.163-0.008 0.333-0.015 0.496-0.015 6.733 0 12.459 4.982 13.459 11.622zM11.56 26.018c-0.271-0.48-0.79-0.79-1.379-0.759-0.271 0.015-0.519 0.108-0.728 0.248-1.844-1.736-3.154-3.704-3.905-5.904-0.108-0.318-0.201-0.635-0.287-0.953 0.697-0.333 1.162-1.061 1.116-1.891-0.054-0.922-0.728-1.65-1.596-1.813-0.008-2.076 0.372-4.045 0.876-5.734 1.178 0.077 2.603 0.225 4.169 0.504 0.217 0.535 0.752 0.899 1.356 0.868 0.349-0.023 0.651-0.17 0.883-0.395 1.162 0.287 2.363 0.651 3.572 1.108 3.797 1.441 6.787 3.51 8.957 6.16-0.178 0.263-0.271 0.581-0.256 0.914 0.015 0.263 0.101 0.504 0.24 0.713-4.393 4.122-9.306 6.044-13.017 6.935zM26.607 17.015c-0.248-0.147-0.542-0.232-0.852-0.217-0.178 0.008-0.341 0.054-0.496 0.124-3.324-4.014-8.097-6.323-12.769-7.531 0.008-0.085 0.015-0.17 0.008-0.263-0.046-0.767-0.697-1.356-1.464-1.309-0.597 0.031-1.077 0.449-1.24 0.992-1.325-0.232-2.619-0.387-3.835-0.465 0.442-1.294 0.93-2.371 1.317-3.138 1.906-1.418 4.2-2.355 6.702-2.611 0.039 0.194 0.085 0.395 0.163 0.612 0.473 1.356 1.751 3.13 3.355 4.943-0.070 0.178-0.101 0.364-0.093 0.566 0.047 0.736 0.674 1.302 1.402 1.255 0.116-0.008 0.225-0.031 0.325-0.062 2.82 2.882 6.090 5.579 7.911 6.586-0.147 0.178-0.287 0.349-0.434 0.519zM15.287 1.395c0.24-0.031 0.542 0.085 0.852 0.263-0.395-0.023-0.798-0.023-1.201-0.016 0.124-0.186 0.248-0.232 0.349-0.248zM9.778 2.371c0.271-0.062 0.558-0.031 0.845 0.062-0.814 0.279-1.588 0.628-2.324 1.038 0.488-0.62 0.976-0.992 1.48-1.1zM5.633 6.632c-0.209 0.511-0.426 1.069-0.62 1.666-0.256-0.008-0.496-0.015-0.744-0.023 0.411-0.581 0.868-1.131 1.364-1.643zM1.836 10.173c-0.077-0.232-0.039-0.48 0.101-0.682 0.139-0.194 0.349-0.31 0.589-0.318 0.039 0 0.085 0 0.139-0.008-0.256 0.465-0.488 0.938-0.69 1.433l-0.139-0.426zM3.688 9.158c0.302 0 0.659 0.008 1.046 0.023-0.504 1.736-0.868 3.719-0.845 5.819-0.86 0.248-1.472 1.062-1.418 1.999 0.062 1.038 0.907 1.829 1.922 1.844 0.093 0.349 0.194 0.705 0.318 1.054 0.806 2.355 2.208 4.463 4.184 6.299-0.046 0.116-0.085 0.232-0.101 0.356-0.829 0.116-1.534 0.186-2.053 0.217-0.147-0.116-0.294-0.24-0.434-0.372-2.712-2.425-4.331-5.772-4.54-9.422-0.163-2.844 0.558-5.54 1.922-7.818zM3.905 25.12c0.418 0.542 0.883 1.061 1.387 1.542-0.325-0.108-0.62-0.294-0.86-0.542-0.263-0.279-0.434-0.62-0.527-1zM7.81 27.568c0.341-0.039 0.713-0.077 1.123-0.139 0.256 0.527 0.806 0.868 1.426 0.837 0.287-0.015 0.542-0.116 0.759-0.271 0.922 0.651 1.937 1.255 3.037 1.821-2.278-0.201-4.447-0.969-6.346-2.247zM19.897 30.427c-0.426 0.225-1.038 0.24-1.813 0.062 0.829-0.155 1.635-0.38 2.41-0.674-0.155 0.279-0.349 0.48-0.597 0.612zM16.263 29.831c-1.72-0.759-3.254-1.604-4.595-2.534 0.046-0.132 0.077-0.271 0.085-0.411 3.851-0.922 8.949-2.921 13.513-7.206 0.201 0.085 0.426 0.132 0.659 0.116 0.093-0.008 0.178-0.023 0.263-0.039 0.496 0.852 0.914 1.759 1.263 2.704-0.519 1.007-1.17 1.96-1.937 2.828-2.386 2.696-5.672 4.3-9.251 4.54zM27.924 23.864c0.178 0.612-0.147 1.255-0.736 1.457l-0.581 0.039c0.457-0.566 0.868-1.154 1.224-1.767 0.039 0.093 0.070 0.178 0.093 0.271zM27.963 21.346c-0.31-0.713-0.651-1.387-1.030-2.030 0.263-0.287 0.418-0.682 0.395-1.1-0.008-0.186-0.062-0.364-0.132-0.527 0.225-0.256 0.449-0.527 0.674-0.798 0.38 0.155 0.736 0.279 1.054 0.356-0.108 1.418-0.426 2.797-0.961 4.099zM30.241 16.434c-0.023 0.039-0.139 0.085-0.403 0.077 0.008-0.356 0-0.713-0.015-1.069 0.418 0.566 0.465 0.914 0.418 0.992z"></path>
</svg>
