<!-- Generated by IcoMoon.io -->
<svg version="1.1" xmlns="http://www.w3.org/2000/svg" width="32" height="32" viewBox="0 0 32 32">
<title>no-breakfast</title>
<path fill="#fff" d="M30.171 10.638c-0.852-0.852-1.984-1.325-3.192-1.325h-1.472v-2.185l5.532-5.532c0.178-0.178 0.178-0.465 0-0.643s-0.465-0.178-0.643 0l-5.083 5.083c-0.077-0.054-0.163-0.093-0.263-0.093h-24.089c-0.256 0-0.457 0.201-0.457 0.457v9.468c0 4.045 2.487 7.516 6.013 8.972l-3.401 3.401h-1.48c-0.256 0-0.457 0.201-0.457 0.457s0.201 0.457 0.457 0.457h0.566l-1.255 1.255c-0.178 0.178-0.178 0.465 0 0.643 0.093 0.093 0.209 0.132 0.325 0.132s0.232-0.047 0.325-0.132l1.898-1.898h22.973c0.256 0 0.457-0.201 0.457-0.457s-0.201-0.457-0.457-0.457h-22.059l3.068-3.068c0.868 0.256 1.782 0.403 2.735 0.403h5.594c4.494 0 8.267-3.068 9.368-7.221h1.805c2.487 0 4.517-2.022 4.517-4.517 0-1.209-0.473-2.34-1.325-3.2zM1.418 15.861v-9.003h23.074l-17.263 17.263c-3.386-1.224-5.811-4.455-5.811-8.26zM15.806 24.655h-5.594c-0.682 0-1.348-0.085-1.984-0.232l16.372-16.372v7.826c0 0.093-0.008 0.186-0.015 0.279-0.008 0.232-0.015 0.465-0.047 0.69-0.008 0.054-0.015 0.108-0.023 0.163-0.031 0.248-0.070 0.496-0.124 0.736-0.868 3.944-4.385 6.911-8.585 6.911zM26.979 17.433h-1.604c0.015-0.101 0.023-0.209 0.039-0.31 0.015-0.116 0.031-0.24 0.047-0.356 0.023-0.256 0.039-0.511 0.039-0.759 0-0.015 0-0.031 0-0.054v-5.726h1.472c0.961 0 1.867 0.372 2.541 1.054 0.682 0.682 1.054 1.588 1.054 2.541 0.015 1.991-1.596 3.611-3.587 3.611z"></path>
</svg>
