<!-- Generated by IcoMoon.io -->
<svg version="1.1" xmlns="http://www.w3.org/2000/svg" width="32" height="32" viewBox="0 0 32 32">
<title>number-of-passangers</title>
<path fill="#fff" d="M14.435 17.906c-0.070-0.163-0.225-0.263-0.411-0.263l-5.261 0.17-2.355-7.508c-0.070-0.225-0.31-0.356-0.542-0.279-0.225 0.070-0.349 0.31-0.279 0.542l2.456 7.818c0.054 0.186 0.225 0.31 0.426 0.302l5.292-0.17 2.193 5.168c0.070 0.163 0.232 0.263 0.395 0.263 0.054 0 0.116-0.008 0.17-0.031 0.217-0.093 0.318-0.349 0.225-0.566l-2.309-5.447z"></path>
<path fill="#fff" d="M6.051 8.934c1.255 0 2.286-1.023 2.286-2.286 0-1.255-1.023-2.286-2.286-2.286s-2.278 1.030-2.278 2.286c0 1.263 1.023 2.286 2.278 2.286zM6.051 5.23c0.783 0 1.426 0.635 1.426 1.426 0 0.783-0.635 1.426-1.426 1.426s-1.426-0.635-1.426-1.426c0.008-0.79 0.643-1.426 1.426-1.426z"></path>
<path fill="#fff" d="M11.576 20.378c-0.023-0.008-0.139-0.031-0.294-0.047-0.054-0.008-0.101-0.015-0.17-0.015h-0.93c0 0-0.062 0-0.155 0.015-0.054 0-0.108 0-0.163 0.008l-3.2 0.318-0.62-2.115-1.86-5.129v-3.262c0-0.744-0.488-1.844-1.844-1.844-0.744 0-1.844 0.488-1.844 1.844v3.525c0 0.031 0.008 0.302 0.108 0.62 0.023 0.116 0.054 0.217 0.085 0.318l3.277 9.003c0.008 0.031 0.108 0.287 0.325 0.558 0.225 0.325 0.666 0.713 1.472 0.721h1.534v1.875h-2.286c-0.24 0-0.434 0.194-0.434 0.426s0.194 0.426 0.434 0.426h5.315c0.24 0 0.434-0.194 0.434-0.426s-0.194-0.426-0.434-0.426h-2.162v-1.875h2.549c0.612-0.031 1.054-0.395 1.216-0.984l0.628-1.852c0.008-0.031 0.085-0.333 0.015-0.682-0.101-0.496-0.449-0.852-1-1zM11.739 21.811l-0.628 1.844c-0.070 0.248-0.194 0.364-0.411 0.372h-4.92c-0.356 0-0.612-0.116-0.775-0.356-0.008-0.008-0.016-0.023-0.023-0.031-0.132-0.163-0.201-0.325-0.201-0.325l-3.27-8.996c-0.031-0.077-0.046-0.147-0.062-0.217 0-0.023-0.008-0.039-0.016-0.062-0.070-0.201-0.077-0.372-0.077-0.372v-3.518c0-0.922 0.821-0.976 0.984-0.984 0.922 0 0.976 0.821 0.984 0.984v3.339c0 0.046 0.015 0.108 0.031 0.155l1.875 5.16 0.705 2.433c0.054 0.201 0.256 0.333 0.457 0.31l3.549-0.356c0.031 0 0.062 0 0.093 0 0.023 0 0.054 0 0.085-0.008 0.039-0.008 0.070-0.008 0.070-0.008h0.938c0.023 0.008 0.054 0.008 0.108 0.015 0.062 0 0.116 0.015 0.132 0.015 0.418 0.116 0.411 0.449 0.372 0.604z"></path>
<path fill="#fff" d="M31.465 23.345l-2.309-5.439c-0.070-0.163-0.232-0.263-0.411-0.263l-5.261 0.17-2.363-7.508c-0.070-0.225-0.31-0.356-0.542-0.279-0.225 0.070-0.349 0.31-0.279 0.542l2.456 7.818c0.062 0.186 0.24 0.31 0.426 0.302l5.292-0.17 2.193 5.168c0.070 0.163 0.232 0.263 0.395 0.263 0.054 0 0.116-0.008 0.17-0.031 0.217-0.108 0.325-0.356 0.232-0.573z"></path>
<path fill="#fff" d="M20.765 8.934c1.255 0 2.286-1.023 2.286-2.286 0-1.255-1.023-2.286-2.286-2.286s-2.286 1.023-2.286 2.286c0.008 1.263 1.030 2.286 2.286 2.286zM20.765 5.23c0.783 0 1.426 0.635 1.426 1.426 0 0.783-0.635 1.426-1.426 1.426s-1.426-0.635-1.426-1.426c0.008-0.79 0.643-1.426 1.426-1.426z"></path>
<path fill="#fff" d="M26.297 20.378c-0.023-0.008-0.139-0.031-0.294-0.047-0.054-0.008-0.108-0.015-0.17-0.015h-0.93c0 0-0.062 0-0.155 0.015-0.054 0-0.108 0-0.163 0.008l-3.2 0.318-0.62-2.115-1.867-5.122v-3.27c0-0.744-0.488-1.844-1.844-1.844-0.736 0-1.844 0.488-1.844 1.844v3.525c0 0.031 0.008 0.302 0.108 0.62 0.023 0.116 0.054 0.217 0.085 0.318l3.277 9.003c0.008 0.031 0.108 0.287 0.325 0.558 0.232 0.325 0.666 0.713 1.472 0.721h1.534v1.875h-2.301c-0.24 0-0.434 0.194-0.434 0.426s0.194 0.426 0.434 0.426h5.315c0.24 0 0.434-0.194 0.434-0.426s-0.194-0.426-0.434-0.426h-2.162v-1.875h2.549c0.612-0.031 1.061-0.395 1.216-0.984l0.628-1.852c0.008-0.031 0.085-0.333 0.015-0.682-0.085-0.496-0.434-0.852-0.976-1zM26.452 21.811l-0.628 1.852c-0.070 0.248-0.194 0.364-0.411 0.372h-4.92c-0.356 0-0.612-0.116-0.775-0.356-0.008-0.008-0.015-0.023-0.023-0.031-0.132-0.163-0.201-0.325-0.201-0.325l-3.277-9.003c-0.031-0.077-0.047-0.147-0.054-0.217 0-0.023-0.008-0.039-0.015-0.062-0.070-0.201-0.077-0.372-0.077-0.372v-3.518c0-0.922 0.821-0.976 0.984-0.984 0.922 0 0.976 0.821 0.984 0.984v3.339c0 0.046 0.015 0.108 0.031 0.155l1.875 5.16 0.705 2.433c0.054 0.201 0.256 0.333 0.457 0.31l3.549-0.356c0.031 0 0.062 0 0.093 0s0.054 0 0.085-0.008c0.039-0.008 0.070-0.008 0.070-0.008h0.938c0.023 0.008 0.054 0.008 0.108 0.015 0.062 0 0.116 0.015 0.132 0.015 0.418 0.116 0.411 0.449 0.372 0.604z"></path>
</svg>
