<!-- Generated by IcoMoon.io -->
<svg version="1.1" xmlns="http://www.w3.org/2000/svg" width="32" height="32" viewBox="0 0 32 32">
<title>observatory</title>
<path fill="#fff" d="M25.414 24.229h-1.953v-7.957c0-5.075-4.13-9.205-9.205-9.205s-9.205 4.13-9.205 9.205v7.957h-1.813c-0.186 0-0.341 0.155-0.341 0.341s0.155 0.341 0.341 0.341h1.813v6.237c0 0.186 0.155 0.341 0.341 0.341h7.578c0.186 0 0.341-0.155 0.341-0.341v-2.162c0-0.519 0.426-0.945 0.945-0.945s0.945 0.426 0.945 0.945v2.162c0 0.186 0.155 0.341 0.341 0.341h7.578c0.186 0 0.341-0.155 0.341-0.341v-6.237h1.953c0.186 0 0.341-0.155 0.341-0.341s-0.147-0.341-0.341-0.341zM5.741 16.271c0-4.695 3.82-8.523 8.523-8.523s8.523 3.82 8.523 8.523v7.957h-17.046c0 0 0-7.957 0-7.957zM22.78 30.815h-6.888v-1.821c0-0.899-0.728-1.627-1.627-1.627s-1.627 0.728-1.627 1.627v1.821h-6.896v-5.896h17.038v5.896z"></path>
<path fill="#fff" d="M29.001 4.308l-3.704-3.704c-0.070-0.070-0.17-0.108-0.263-0.101-0.101 0.008-0.186 0.054-0.248 0.132l-3.223 4.184c-0.093 0.124-0.085 0.294 0.008 0.418l-1.697 2.208c-1.627-1.038-3.549-1.635-5.617-1.635-0.186 0-0.341 0.155-0.341 0.341s0.155 0.341 0.341 0.341c5.393 0 9.778 4.385 9.778 9.778 0 0.186 0.155 0.341 0.341 0.341s0.341-0.155 0.341-0.341c0-2.541-0.914-4.874-2.425-6.687l2.076-1.557c0.047 0.023 0.101 0.039 0.155 0.039 0.070 0 0.147-0.023 0.201-0.070l4.23-3.177c0.077-0.062 0.132-0.147 0.139-0.248 0.015-0.093-0.023-0.194-0.093-0.263zM20.44 7.833l1.612-2.1 1.821 1.821-2.030 1.526c-0.434-0.465-0.899-0.876-1.402-1.247zM24.562 7.276l-2.27-2.27 2.797-3.642 3.146 3.154-3.673 2.758z"></path>
</svg>
