<!-- Generated by IcoMoon.io -->
<svg version="1.1" xmlns="http://www.w3.org/2000/svg" width="32" height="32" viewBox="0 0 32 32">
<title>offices</title>
<path fill="#fff" d="M22.183 9.894c0.232 0 0.418-0.186 0.418-0.418v-2.278c0-0.232-0.186-0.418-0.418-0.418h-6.051v-1.55c0-0.232-0.186-0.418-0.418-0.418h-4.788c-0.232 0-0.418 0.186-0.418 0.418v1.55h-0.682c-0.232 0-0.418 0.186-0.418 0.418v2.278c0 0.232 0.186 0.418 0.418 0.418h0.294v19.13h-0.294c-0.232 0-0.418 0.186-0.418 0.418v1.635c0 0.232 0.186 0.418 0.418 0.418h12.358c0.232 0 0.418-0.186 0.418-0.418v-1.635c0-0.232-0.186-0.418-0.418-0.418h-0.294v-19.13h0.294zM21.757 9.058h-0.294c-0.232 0-0.418 0.186-0.418 0.418v19.967c0 0.232 0.186 0.418 0.418 0.418h0.294v0.79h-11.514v-0.79h0.294c0.232 0 0.418-0.186 0.418-0.418v-19.967c0-0.232-0.186-0.418-0.418-0.418h-0.294v-1.441h0.682c0.232 0 0.418-0.186 0.418-0.418v-1.55h3.952v1.55c0 0.232 0.186 0.418 0.418 0.418h6.051v1.441h-0.008z"></path>
<path fill="#fff" d="M12.606 3.758c0.325 0 0.829-0.124 1.17-0.434l0.015 0.008c0.085 0.341 0.356 0.418 0.674 0.418 0.139 0 0.279-0.015 0.403-0.046 0.124-0.023 0.186-0.070 0.186-0.163v-0.411c0-0.077-0.023-0.101-0.139-0.108-0.201-0.023-0.24-0.039-0.24-0.31v-1.007c0-0.759-0.17-1.201-1.402-1.201-0.302 0-0.829 0.046-1.131 0.155-0.201 0.077-0.232 0.139-0.209 0.248l0.070 0.333c0.031 0.124 0.062 0.124 0.248 0.108 0.256-0.023 0.666-0.054 0.86-0.054 0.488 0 0.573 0.108 0.573 0.38v0.101h-0.752c-0.775 0-1.271 0.271-1.255 1.062 0.015 0.473 0.17 0.922 0.93 0.922zM13.094 2.386h0.589v0.426c-0.186 0.108-0.488 0.225-0.69 0.225-0.225 0-0.294-0.062-0.294-0.263 0-0.302 0.155-0.387 0.395-0.387z"></path>
<path fill="#fff" d="M14.838 10.158h-2.123c-0.232 0-0.418 0.186-0.418 0.418s0.186 0.418 0.418 0.418h2.123c0.232 0 0.418-0.186 0.418-0.418s-0.186-0.418-0.418-0.418z"></path>
<path fill="#fff" d="M16.961 10.995h2.123c0.232 0 0.418-0.186 0.418-0.418s-0.186-0.418-0.418-0.418h-2.123c-0.232 0-0.418 0.186-0.418 0.418s0.186 0.418 0.418 0.418z"></path>
<path fill="#fff" d="M14.838 13.079h-2.123c-0.232 0-0.418 0.186-0.418 0.418s0.186 0.418 0.418 0.418h2.123c0.232 0 0.418-0.186 0.418-0.418s-0.186-0.418-0.418-0.418z"></path>
<path fill="#fff" d="M16.961 13.924h2.123c0.232 0 0.418-0.186 0.418-0.418s-0.186-0.418-0.418-0.418h-2.123c-0.232 0-0.418 0.186-0.418 0.418s0.186 0.418 0.418 0.418z"></path>
<path fill="#fff" d="M14.838 16h-2.123c-0.232 0-0.418 0.186-0.418 0.418s0.186 0.418 0.418 0.418h2.123c0.232 0 0.418-0.186 0.418-0.418s-0.186-0.418-0.418-0.418z"></path>
<path fill="#fff" d="M16.961 16.845h2.123c0.232 0 0.418-0.186 0.418-0.418s-0.186-0.418-0.418-0.418h-2.123c-0.232 0-0.418 0.186-0.418 0.418s0.186 0.418 0.418 0.418z"></path>
<path fill="#fff" d="M14.838 18.929h-2.123c-0.232 0-0.418 0.186-0.418 0.418s0.186 0.418 0.418 0.418h2.123c0.232 0 0.418-0.186 0.418-0.418s-0.186-0.418-0.418-0.418z"></path>
<path fill="#fff" d="M16.961 19.766h2.123c0.232 0 0.418-0.186 0.418-0.418s-0.186-0.418-0.418-0.418h-2.123c-0.232 0-0.418 0.186-0.418 0.418s0.186 0.418 0.418 0.418z"></path>
<path fill="#fff" d="M14.838 21.85h-2.123c-0.232 0-0.418 0.186-0.418 0.418s0.186 0.418 0.418 0.418h2.123c0.232 0 0.418-0.186 0.418-0.418s-0.186-0.418-0.418-0.418z"></path>
<path fill="#fff" d="M16.961 22.687h2.123c0.232 0 0.418-0.186 0.418-0.418s-0.186-0.418-0.418-0.418h-2.123c-0.232 0-0.418 0.186-0.418 0.418s0.186 0.418 0.418 0.418z"></path>
<path fill="#fff" d="M14.838 24.771h-2.123c-0.232 0-0.418 0.186-0.418 0.418s0.186 0.418 0.418 0.418h2.123c0.232 0 0.418-0.186 0.418-0.418s-0.186-0.418-0.418-0.418z"></path>
<path fill="#fff" d="M16.961 25.608h2.123c0.232 0 0.418-0.186 0.418-0.418s-0.186-0.418-0.418-0.418h-2.123c-0.232 0-0.418 0.186-0.418 0.418s0.186 0.418 0.418 0.418z"></path>
</svg>
