<!-- Generated by IcoMoon.io -->
<svg version="1.1" xmlns="http://www.w3.org/2000/svg" width="32" height="32" viewBox="0 0 32 32">
<title>oil</title>
<path fill="#fff" d="M9.515 11.607c0.248-1.085 0.713-1.635 1.596-1.891 1.348-0.387 3.138 0.225 3.216 0.248 0.108 0.046 0.24 0.023 0.333-0.054 0.116-0.101 0.147-0.263 0.085-0.395-0.015-0.031-0.418-0.852-1.247-1.565-0.891-0.767-2.053-1.185-3.262-1.185-1.619 0-3.037 0.527-3.89 1.449-0.783 0.845-1.162 1.79-1.147 2.82 0.023 1.348 1.162 2.247 2.216 2.247 0.008 0 0.008 0 0.016 0h0.008c0.984-0.008 1.86-0.713 2.077-1.674zM7.438 12.622c-0.008 0-0.016 0-0.016 0-0.721 0-1.542-0.659-1.557-1.596-0.016-0.86 0.302-1.635 0.976-2.355 0.728-0.79 1.968-1.24 3.401-1.24 1.054 0 2.061 0.364 2.836 1.030 0.256 0.217 0.457 0.442 0.62 0.651-0.752-0.163-1.829-0.294-2.766-0.023-1.123 0.325-1.759 1.062-2.061 2.379-0.155 0.659-0.759 1.147-1.433 1.154z"></path>
<path fill="#fff" d="M25.646 8.221c-0.852-0.922-2.27-1.449-3.89-1.449-1.209 0-2.371 0.418-3.262 1.185-0.829 0.713-1.232 1.526-1.247 1.565-0.062 0.132-0.031 0.294 0.085 0.395 0.093 0.077 0.225 0.101 0.333 0.054 0.077-0.023 1.875-0.635 3.215-0.248 0.891 0.256 1.356 0.806 1.596 1.891 0.217 0.961 1.085 1.666 2.069 1.674v0c0.008 0 0.015 0 0.023 0 1.054 0 2.193-0.907 2.216-2.247 0.031-1.030-0.356-1.976-1.139-2.82zM24.585 12.622c-0.008 0-0.015 0-0.015 0-0.682-0.008-1.278-0.496-1.433-1.154-0.302-1.325-0.938-2.061-2.061-2.379-0.387-0.116-0.806-0.155-1.216-0.155-0.566 0-1.116 0.085-1.55 0.178 0.163-0.209 0.372-0.434 0.62-0.651 0.775-0.659 1.782-1.030 2.836-1.030 1.433 0 2.673 0.449 3.401 1.24 0.666 0.728 0.992 1.495 0.976 2.355-0.023 0.938-0.837 1.596-1.557 1.596z"></path>
<path fill="#fff" d="M14.706 5.346c0.116 0.201 0.232 0.387 0.302 0.519 0.263 0.473 0.341 0.69 0.465 1.062 0.054 0.147 0.116 0.318 0.194 0.535 0.046 0.132 0.17 0.209 0.31 0.209s0.263-0.085 0.31-0.209l0.116-0.31c0.194-0.511 0.271-0.721 0.581-1.278 0.070-0.132 0.186-0.318 0.302-0.519 0.186-0.318 0.38-0.643 0.48-0.852 0.418-0.821 0.767-1.813 0.163-2.906-0.364-0.659-1.123-1.085-1.929-1.085 0 0 0 0-0.008 0h-0.008c-0.806 0-1.565 0.426-1.929 1.085-0.612 1.092-0.263 2.076 0.163 2.906 0.108 0.194 0.302 0.527 0.488 0.845zM14.636 1.914c0.302-0.55 0.922-0.744 1.356-0.744s1.054 0.194 1.356 0.744c0.372 0.666 0.325 1.309-0.17 2.278-0.093 0.186-0.294 0.519-0.465 0.814-0.124 0.209-0.24 0.403-0.31 0.535-0.201 0.372-0.318 0.604-0.418 0.845-0.093-0.24-0.194-0.48-0.403-0.852-0.070-0.132-0.186-0.325-0.31-0.535-0.17-0.294-0.372-0.628-0.465-0.821-0.496-0.961-0.542-1.596-0.17-2.262z"></path>
<path fill="#fff" d="M23.934 30.838h-1.061c0.008-0.054 0.008-0.108-0.008-0.163l-3.533-10.15c-0.008-0.023-0.008-0.039-0.023-0.054l-2.495-7.183c0.542-0.015 0.976-0.457 0.976-1 0-0.55-0.449-1-1-1h-0.488v-0.86c0-0.186-0.147-0.333-0.333-0.333s-0.333 0.147-0.333 0.333v0.86h-0.488c-0.55 0-1 0.449-1 1s0.449 1 1 1h0.046l-6.051 17.379c-0.015 0.054-0.015 0.108-0.008 0.163h-1.062c-0.186 0-0.333 0.147-0.333 0.333s0.147 0.333 0.333 0.333h2.89c0.186 0 0.333-0.147 0.333-0.333s-0.147-0.333-0.333-0.333h-1.030c0.736-0.519 2.944-1.852 5.989-1.852 0.031 0 0.054-0.008 0.077-0.015 0.023 0.008 0.054 0.015 0.077 0.015 3.030 0 5.246 1.34 5.982 1.852h-1.030c-0.186 0-0.333 0.147-0.333 0.333s0.147 0.333 0.333 0.333h2.89c0.186 0 0.333-0.147 0.333-0.333s-0.139-0.325-0.318-0.325zM16.085 28.32c-0.031 0-0.054 0.008-0.077 0.015-0.023-0.008-0.054-0.015-0.077-0.015-2.123 0-3.843 0.597-5.013 1.178l5.098-5.292 5.091 5.292c-1.17-0.573-2.898-1.178-5.021-1.178zM13.133 21.215l2.417 2.51-5.145 5.338 2.727-7.849zM14.706 16.705l0.837 0.845-1.751 1.782 0.914-2.627zM18.216 19.316l-1.743-1.767 0.837-0.845 0.907 2.611zM18.557 20.602l-2.549 2.642-2.541-2.642 2.541-2.58 2.549 2.58zM16.473 23.725l2.41-2.503 2.727 7.841-5.137-5.338zM14.807 12.281c0-0.186 0.155-0.341 0.341-0.341h1.643c0.186 0 0.341 0.155 0.341 0.341s-0.155 0.341-0.341 0.341h-1.643c-0.186 0-0.341-0.155-0.341-0.341zM16.116 13.28l0.945 2.727-1.061 1.077-1.062-1.069 0.953-2.727 0.225-0.008z"></path>
</svg>
