<!-- Generated by IcoMoon.io -->
<svg version="1.1" xmlns="http://www.w3.org/2000/svg" width="32" height="32" viewBox="0 0 32 32">
<title>online-booking</title>
<path fill="#fff" d="M16.852 21.548c0 0.471-0.382 0.852-0.852 0.852s-0.852-0.382-0.852-0.852c0-0.471 0.382-0.852 0.852-0.852s0.852 0.382 0.852 0.852z"></path>
<path fill="#fff" d="M31.496 18.929c0-0.008 0-0.008 0 0v-15.295c0-1.015-0.829-1.844-1.844-1.844h-27.305c-1.015-0.008-1.844 0.821-1.844 1.844v18.766c0 1.015 0.829 1.844 1.844 1.844h9.244v1.565c0 0.271-0.155 0.79-0.302 1.015l-0.759 1.139c-0.333 0.496-0.38 1.061-0.132 1.519s0.744 0.736 1.34 0.736h8.531c0.589 0 1.093-0.271 1.34-0.736 0.248-0.457 0.194-1.030-0.132-1.519l-0.759-1.139c-0.147-0.225-0.302-0.744-0.302-1.015v-1.565h9.244c1.015 0 1.844-0.829 1.844-1.844l-0.008-3.471zM2.348 2.751h27.297c0.488 0 0.883 0.395 0.883 0.883v14.807h-29.063v-14.807c0-0.488 0.403-0.883 0.883-0.883zM19.913 27.359l0.759 1.139c0.077 0.116 0.186 0.333 0.085 0.527-0.108 0.194-0.349 0.225-0.488 0.225h-8.531c-0.139 0-0.387-0.031-0.488-0.225s0.008-0.418 0.085-0.535l0.759-1.139c0.256-0.38 0.465-1.093 0.465-1.55v-1.565h6.88v1.565c0 0.465 0.217 1.178 0.473 1.557zM29.652 23.283h-27.305c-0.488 0-0.883-0.395-0.883-0.883v-2.991h29.063v2.991c0 0.488-0.395 0.883-0.876 0.883z"></path>
<path fill="#fff" d="M14.311 13.404c0.093 0.132 0.24 0.209 0.395 0.209v0c0.155 0 0.31-0.077 0.395-0.209l3.518-5.129c0.147-0.217 0.093-0.519-0.124-0.666-0.217-0.155-0.519-0.093-0.666 0.124l-3.123 4.548-1.247-1.798c-0.155-0.217-0.449-0.271-0.674-0.124-0.217 0.155-0.271 0.449-0.124 0.674l1.65 2.371z"></path>
<path fill="#fff" d="M8.647 16.023h14.45c0.868 0 1.581-0.705 1.581-1.581v-7.756c0-0.868-0.705-1.581-1.581-1.581h-14.45c-0.868 0-1.581 0.705-1.581 1.581v7.756c0 0.868 0.713 1.581 1.581 1.581zM8.027 6.687c0-0.341 0.279-0.612 0.612-0.612h14.45c0.341 0 0.612 0.279 0.612 0.612v7.756c0 0.341-0.279 0.612-0.612 0.612h-14.443c-0.341 0-0.612-0.279-0.612-0.612l-0.008-7.756z"></path>
</svg>
