<!-- Generated by IcoMoon.io -->
<svg version="1.1" xmlns="http://www.w3.org/2000/svg" width="32" height="32" viewBox="0 0 32 32">
<title>online-conversion</title>
<path fill="#fff" d="M27.467 7.671h-6.144l1.472-2.007c0.294-0.217 0.473-0.473 0.473-0.767 0-0.016 0-0.031-0.008-0.054v-0.008c-0.124-1.472-4.595-1.867-7.252-1.867-0.434 0-0.868 0.008-1.294 0.031-0.209 0.008-0.372 0.186-0.356 0.387 0.008 0.209 0.194 0.356 0.387 0.356 0.411-0.015 0.837-0.023 1.263-0.023 3.828 0 6.152 0.697 6.47 1.108l-0.232 0.318c-0.589 0.333-2.139 0.728-4.455 0.876 0.139-0.186 0.232-0.418 0.232-0.666 0-0.604-0.488-1.1-1.1-1.1s-1.1 0.488-1.1 1.1c0 0.279 0.108 0.527 0.279 0.721-0.031 0-0.062 0-0.093 0-3.308 0-5.493-0.519-6.23-0.922l-0.232-0.318c0.147-0.163 0.721-0.519 2.317-0.798 0.201-0.039 0.341-0.232 0.302-0.434s-0.232-0.341-0.434-0.302c-1.922 0.333-2.921 0.852-2.975 1.542 0 0 0 0 0 0.008 0 0.016-0.008 0.039-0.008 0.054 0 0.294 0.17 0.55 0.473 0.767l1.472 2.007h-6.16c-0.837 0-1.519 0.682-1.519 1.519v15.76c0 0.837 0.682 1.519 1.519 1.519h7.795v1.34c0 0.232-0.132 0.674-0.263 0.868l-0.635 0.961c-0.271 0.411-0.318 0.868-0.108 1.247 0.201 0.38 0.604 0.604 1.1 0.604h7.167c0.496 0 0.899-0.217 1.1-0.604 0.201-0.38 0.163-0.837-0.108-1.247l-0.635-0.961c-0.132-0.194-0.263-0.628-0.263-0.868v-1.34h7.795c0.837 0 1.519-0.682 1.519-1.519v-15.76c-0.008-0.845-0.69-1.526-1.526-1.526zM16 6.826c1.596 0 3.859-0.139 5.424-0.581l-4.052 5.548c-0.039 0.054-0.062 0.108-0.070 0.17l-0.201 1.534c-0.31-0.085-0.635-0.139-0.976-0.139-0.426 0-0.837 0.077-1.216 0.217l-0.209-1.612c-0.008-0.062-0.031-0.124-0.070-0.17l-4.052-5.548c1.565 0.442 3.828 0.581 5.424 0.581zM16.124 14.117c1.565 0 2.844 1.278 2.844 2.844s-1.278 2.844-2.844 2.844-2.844-1.278-2.844-2.844 1.278-2.844 2.844-2.844zM4.533 8.422h6.702l2.735 3.742 0.232 1.767c-1 0.635-1.666 1.759-1.666 3.030 0 1.984 1.612 3.595 3.595 3.595s3.595-1.612 3.595-3.595c0-1.371-0.767-2.565-1.898-3.169l0.209-1.627 2.735-3.742h6.694c0.426 0 0.767 0.349 0.767 0.767v12.475c-0.008 0-0.015-0.008-0.023-0.008h-24.446v-12.475c0-0.411 0.349-0.759 0.767-0.759zM19.944 30.063c0.070 0.101 0.17 0.302 0.070 0.473-0.093 0.178-0.318 0.201-0.434 0.201h-7.167c-0.124 0-0.341-0.023-0.434-0.201s0.008-0.372 0.070-0.48l0.635-0.961c0.209-0.318 0.387-0.907 0.387-1.286v-1.348h5.842v1.348c0 0.38 0.178 0.969 0.387 1.286l0.643 0.969zM27.467 25.732h-22.935c-0.426 0-0.767-0.349-0.767-0.767v-2.541h24.453c0.008 0 0.015 0 0.023-0.008v2.541c-0.008 0.426-0.349 0.775-0.775 0.775z"></path>
<path fill="#fff" d="M16.713 24.244c0 0.394-0.319 0.713-0.713 0.713s-0.713-0.319-0.713-0.713c0-0.394 0.319-0.713 0.713-0.713s0.713 0.319 0.713 0.713z"></path>
<path fill="#fff" d="M19.766 1.604c0 0.608-0.493 1.1-1.1 1.1s-1.1-0.493-1.1-1.1c0-0.608 0.493-1.1 1.1-1.1s1.1 0.493 1.1 1.1z"></path>
<path fill="#fff" d="M14.125 3.386c0 0.479-0.389 0.868-0.868 0.868s-0.868-0.389-0.868-0.868c0-0.479 0.389-0.868 0.868-0.868s0.868 0.389 0.868 0.868z"></path>
<path fill="#fff" d="M14.45 16.852h2.278c0.039 0 0.054-0.023 0.054-0.054v-0.178c0-0.054-0.008-0.062-0.054-0.062h-1.526c0.054-0.612 0.248-1.092 0.961-1.092 0.333 0 0.69 0.046 0.938 0.077 0.070 0.008 0.093-0.023 0.108-0.062l0.031-0.155c0.008-0.054 0.008-0.093-0.070-0.124-0.302-0.116-0.79-0.147-1.007-0.147-1.023 0-1.34 0.69-1.41 1.503h-0.287c-0.046 0-0.062 0.023-0.062 0.054v0.194c-0.015 0.039 0.008 0.047 0.046 0.047z"></path>
<path fill="#fff" d="M14.45 17.395l0.294-0.008c0.070 0.814 0.395 1.48 1.41 1.48 0.217 0 0.744-0.039 1.015-0.155 0.070-0.031 0.070-0.070 0.062-0.124l-0.031-0.147c-0.008-0.039-0.031-0.077-0.108-0.070-0.263 0.031-0.589 0.077-0.938 0.077-0.682 0-0.899-0.48-0.953-1.069h1.526c0.039 0 0.054-0.015 0.054-0.047v-0.178c0-0.054-0.015-0.070-0.062-0.070h-2.262c-0.046 0-0.062 0.031-0.062 0.054v0.194c-0.008 0.054 0.015 0.062 0.054 0.062z"></path>
</svg>
