<!-- Generated by IcoMoon.io -->
<svg version="1.1" xmlns="http://www.w3.org/2000/svg" width="32" height="32" viewBox="0 0 32 32">
<title>optimization</title>
<path fill="#fff" d="M13.319 13.482c0.325 0.411 0.806 0.62 1.294 0.62 0.356 0 0.721-0.116 1.023-0.356v0c0.713-0.566 0.829-1.604 0.263-2.317s-1.604-0.829-2.317-0.263c-0.705 0.566-0.829 1.604-0.263 2.317zM13.738 12.358c0.023-0.232 0.139-0.442 0.325-0.589 0.163-0.124 0.356-0.186 0.542-0.186 0.256 0 0.519 0.116 0.69 0.333 0.302 0.38 0.24 0.93-0.139 1.232s-0.93 0.24-1.232-0.139c-0.147-0.194-0.209-0.418-0.186-0.651z"></path>
<path fill="#fff" d="M31.496 16c0-8.546-6.95-15.496-15.496-15.496s-15.496 6.95-15.496 15.496 6.95 15.496 15.496 15.496c2.301 0 4.525-0.496 6.594-1.464 0.015-0.008 0.023-0.023 0.039-0.031s0.031-0.015 0.047-0.023c0.008-0.008 0.008-0.015 0.015-0.015 0.023-0.023 0.039-0.047 0.054-0.070 0.008-0.015 0.023-0.031 0.031-0.054s0.015-0.054 0.023-0.077c0.008-0.023 0.008-0.047 0.008-0.062 0-0.023 0-0.047-0.008-0.070s-0.008-0.054-0.015-0.077c0-0.008 0-0.015-0.008-0.023-0.008-0.015-0.023-0.023-0.031-0.039s-0.015-0.031-0.023-0.047c-2.231-2.673-3.82-4.347-4.719-4.99-1.441-1.023-2.681-1.24-3.781-1.433-1.426-0.248-2.658-0.465-4.184-2.34-2.092-2.572-0.837-7.020-0.194-8.825l3.184 6.353c0.077 0.155 0.248 0.24 0.418 0.201l3.494-0.69c0.070-0.015 0.132-0.047 0.186-0.093l2.72-2.534c0.124-0.116 0.155-0.294 0.085-0.442l-2.836-6.245c0.969 0.201 2.913 0.914 4.866 3.432 1.867 2.402 1.619 4.246 1.379 6.020-0.116 0.883-0.232 1.712-0.070 2.557 0.093 0.496 0.589 1.627 3.766 5.788 0.008 0.008 0.023 0.015 0.031 0.023s0.015 0.023 0.023 0.031c0.008 0.008 0.023 0.015 0.031 0.023 0.023 0.015 0.047 0.031 0.070 0.039s0.047 0.015 0.070 0.023c0.023 0.008 0.047 0.008 0.077 0.008 0.023 0 0.047 0 0.070-0.008 0.023 0 0.047-0.008 0.070-0.023 0.023-0.008 0.047-0.015 0.070-0.031 0.015-0.008 0.023-0.008 0.039-0.015 0.008-0.008 0.015-0.023 0.023-0.031s0.023-0.015 0.031-0.023c2.487-2.828 3.851-6.454 3.851-10.22zM18.262 12.792l-2.076 3.030-3.642-0.325-1.689-3.363 2.123-3.099 3.727 0.333 1.557 3.425zM16.69 16.976l-3.099 0.612-0.643-1.278 3.386 0.302c0.008 0 0.023 0 0.031 0 0.124 0 0.248-0.062 0.318-0.17l1.937-2.836 0.496 1.092-2.425 2.278zM24.128 17.953c0.248-1.844 0.527-3.936-1.534-6.601-2.999-3.859-5.997-3.82-6.121-3.804-0.132 0-0.248 0.070-0.318 0.178s-0.077 0.248-0.023 0.364l0.209 0.473-3.51-0.318c-0.139-0.008-0.271 0.054-0.356 0.163l-2.007 2.937-0.318-0.628c-0.070-0.132-0.201-0.225-0.356-0.209-0.147 0-0.287 0.093-0.341 0.232-0.124 0.279-2.96 6.787-0.008 10.421 1.705 2.1 3.2 2.363 4.649 2.611 1.062 0.186 2.162 0.38 3.463 1.302 0.798 0.573 2.231 2.069 4.246 4.463-1.836 0.79-3.781 1.193-5.803 1.193-8.12 0-14.722-6.609-14.722-14.722 0-8.12 6.609-14.722 14.722-14.722s14.722 6.609 14.722 14.722c0 3.417-1.185 6.71-3.347 9.344-2.727-3.595-3.262-4.726-3.332-5.083-0.132-0.728-0.023-1.495 0.085-2.317z"></path>
</svg>
