<!-- Generated by IcoMoon.io -->
<svg version="1.1" xmlns="http://www.w3.org/2000/svg" width="32" height="32" viewBox="0 0 32 32">
<title>organ-chart</title>
<path fill="#fff" d="M31.016 22.384h-3.107v-6.253c0-0.008 0-0.008 0-0.015s0-0.008 0-0.015c0-0.263-0.217-0.48-0.48-0.48h-10.894v-6.013h3.037c0.263 0 0.48-0.217 0.48-0.48v-6.981c0-0.263-0.217-0.48-0.48-0.48h-7.167c-0.263 0-0.48 0.217-0.48 0.48v6.981c0 0.263 0.217 0.48 0.48 0.48h3.169v6.005h-11.002c-0.263 0-0.48 0.217-0.48 0.48 0 0.008 0 0.008 0 0.015s0 0.008 0 0.015v6.268h-3.099c-0.263 0-0.48 0.217-0.48 0.48v6.981c0 0.263 0.217 0.48 0.48 0.48h7.167c0.263 0 0.48-0.217 0.48-0.48v-6.981c0-0.263-0.217-0.48-0.48-0.48h-3.099v-5.819h10.514v5.819h-3.099c-0.263 0-0.48 0.217-0.48 0.48v6.981c0 0.263 0.217 0.48 0.48 0.48h7.167c0.263 0 0.48-0.217 0.48-0.48v-6.981c0-0.263-0.217-0.48-0.48-0.48h-3.099v-5.819h10.406v5.811h-3.092c-0.263 0-0.48 0.217-0.48 0.48v6.981c0 0.263 0.217 0.48 0.48 0.48h7.167c0.263 0 0.48-0.217 0.48-0.48v-6.981c-0.008-0.263-0.225-0.48-0.488-0.48zM12.893 2.627h6.199v6.013h-6.199v-6.013zM7.671 29.373h-6.199v-6.013h6.199v6.013zM19.154 29.373h-6.199v-6.013h6.199v6.013zM30.536 29.358h-6.199v-6.013h3.045c0.015 0 0.031 0.008 0.047 0.008s0.031-0.008 0.047-0.008h3.061v6.013z"></path>
</svg>
