<!-- Generated by IcoMoon.io -->
<svg version="1.1" xmlns="http://www.w3.org/2000/svg" width="32" height="32" viewBox="0 0 32 32">
<title>origin-and-destination</title>
<path fill="#fff" d="M8.67 14.063c0.124 0 0.248-0.062 0.318-0.17 0.728-1.062 4.347-6.47 4.347-8.724 0-2.572-2.092-4.664-4.664-4.664s-4.664 2.092-4.664 4.664c0 2.255 3.626 7.663 4.347 8.724 0.077 0.108 0.194 0.17 0.318 0.17zM8.67 1.271c2.146 0 3.897 1.751 3.897 3.897 0 1.395-1.906 4.85-3.897 7.818-1.984-2.968-3.89-6.415-3.89-7.818 0-2.146 1.743-3.897 3.89-3.897z"></path>
<path fill="#fff" d="M10.7 4.293c0-1.116-0.907-2.022-2.022-2.022s-2.030 0.907-2.030 2.022 0.907 2.022 2.022 2.022 2.030-0.907 2.030-2.022zM7.423 4.293c0-0.69 0.566-1.255 1.255-1.255s1.255 0.566 1.255 1.255-0.566 1.255-1.255 1.255-1.255-0.566-1.255-1.255z"></path>
<path fill="#fff" d="M23.322 17.86c-2.572 0-4.664 2.092-4.664 4.664 0 2.255 3.626 7.663 4.347 8.724 0.070 0.108 0.194 0.17 0.318 0.17s0.248-0.062 0.318-0.17c0.728-1.061 4.347-6.47 4.347-8.724 0.008-2.572-2.084-4.664-4.664-4.664zM23.322 30.35c-1.991-2.968-3.897-6.423-3.897-7.818 0-2.146 1.751-3.897 3.897-3.897s3.897 1.751 3.897 3.897c0 1.395-1.906 4.843-3.897 7.818z"></path>
<path fill="#fff" d="M23.322 19.51c-1.116 0-2.022 0.907-2.022 2.022s0.907 2.022 2.022 2.022 2.022-0.907 2.022-2.022-0.899-2.022-2.022-2.022zM23.322 22.787c-0.69 0-1.255-0.566-1.255-1.255s0.566-1.255 1.255-1.255c0.69 0 1.255 0.566 1.255 1.255s-0.558 1.255-1.255 1.255z"></path>
<path fill="#fff" d="M11.452 13.606c-0.015-0.209-0.201-0.372-0.418-0.349l-0.194 0.015c-0.209 0.023-0.364 0.209-0.349 0.418 0.015 0.201 0.186 0.349 0.38 0.349 0.015 0 0.023 0 0.039 0l0.186-0.015c0.217-0.015 0.372-0.201 0.356-0.418z"></path>
<path fill="#fff" d="M9.244 26.228c-0.031-0.116-0.062-0.232-0.085-0.349-0.039-0.209-0.24-0.349-0.449-0.302-0.209 0.039-0.349 0.24-0.302 0.449 0.023 0.139 0.062 0.271 0.093 0.411 0.046 0.17 0.201 0.287 0.372 0.287 0.031 0 0.070-0.008 0.101-0.015 0.201-0.062 0.325-0.279 0.271-0.48z"></path>
<path fill="#fff" d="M15.62 18.007c0.046 0.163 0.201 0.271 0.372 0.271 0.039 0 0.077-0.008 0.108-0.015l0.38-0.116c0.201-0.062 0.318-0.279 0.256-0.48s-0.279-0.318-0.48-0.256l-0.372 0.116c-0.209 0.062-0.325 0.271-0.263 0.48z"></path>
<path fill="#fff" d="M9.073 22.493c-0.201-0.062-0.418 0.047-0.48 0.248-0.039 0.132-0.077 0.263-0.108 0.403-0.046 0.209 0.077 0.418 0.287 0.465 0.031 0.008 0.062 0.008 0.093 0.008 0.17 0 0.333-0.116 0.372-0.294 0.031-0.116 0.062-0.232 0.101-0.349 0.046-0.194-0.062-0.411-0.263-0.48z"></path>
<path fill="#fff" d="M10.53 28.358c-0.155-0.147-0.395-0.139-0.542 0.015s-0.139 0.395 0.015 0.542c0.101 0.093 0.201 0.186 0.31 0.279 0.070 0.062 0.163 0.085 0.248 0.085 0.108 0 0.217-0.047 0.294-0.139 0.139-0.163 0.116-0.403-0.046-0.542-0.101-0.077-0.194-0.155-0.279-0.24z"></path>
<path fill="#fff" d="M9.832 27.529c-0.062-0.101-0.124-0.201-0.186-0.31-0.101-0.186-0.341-0.256-0.519-0.155-0.186 0.101-0.256 0.333-0.155 0.519 0.070 0.124 0.139 0.24 0.217 0.356 0.077 0.108 0.194 0.17 0.325 0.17 0.070 0 0.147-0.023 0.209-0.062 0.17-0.101 0.225-0.341 0.108-0.519z"></path>
<path fill="#fff" d="M9.058 24.779c0-0.124 0-0.248 0.008-0.364 0.008-0.209-0.155-0.395-0.364-0.403s-0.395 0.155-0.403 0.364c-0.008 0.132-0.008 0.263-0.008 0.411 0 0.209 0.17 0.38 0.387 0.38 0.209 0 0.38-0.178 0.38-0.387z"></path>
<path fill="#fff" d="M9.755 21.989c0.062-0.101 0.124-0.209 0.194-0.302 0.124-0.178 0.077-0.411-0.101-0.535s-0.411-0.077-0.535 0.101c-0.077 0.116-0.155 0.232-0.225 0.356-0.108 0.186-0.046 0.418 0.139 0.527 0.062 0.039 0.132 0.054 0.194 0.054 0.139-0.008 0.263-0.077 0.333-0.201z"></path>
<path fill="#fff" d="M19.301 15.582c0.015 0.201 0.186 0.349 0.38 0.349 0.008 0 0.023 0 0.031 0 0.209-0.015 0.372-0.201 0.349-0.418-0.015-0.17-0.054-0.333-0.124-0.496-0.085-0.194-0.31-0.287-0.504-0.201s-0.287 0.31-0.201 0.504c0.039 0.085 0.062 0.17 0.070 0.263z"></path>
<path fill="#fff" d="M18.278 14.543c0.108 0.046 0.217 0.101 0.318 0.155 0.062 0.031 0.124 0.046 0.186 0.046 0.132 0 0.263-0.070 0.333-0.201 0.101-0.186 0.039-0.418-0.147-0.527-0.124-0.070-0.248-0.132-0.387-0.186-0.194-0.085-0.418 0.008-0.504 0.201-0.085 0.201 0 0.434 0.201 0.511z"></path>
<path fill="#fff" d="M12.219 13.187c-0.209 0.008-0.38 0.186-0.372 0.403 0.008 0.209 0.178 0.372 0.387 0.372 0.008 0 0.008 0 0.015 0l0.387-0.015c0.209-0.008 0.38-0.186 0.372-0.395s-0.186-0.38-0.395-0.372l-0.395 0.008z"></path>
<path fill="#fff" d="M10.445 20.029c-0.108 0.085-0.209 0.178-0.31 0.279-0.155 0.147-0.163 0.387-0.015 0.542 0.077 0.077 0.178 0.116 0.279 0.116 0.093 0 0.194-0.039 0.263-0.108 0.085-0.085 0.178-0.163 0.271-0.248 0.163-0.139 0.186-0.38 0.046-0.542-0.132-0.155-0.372-0.178-0.535-0.039z"></path>
<path fill="#fff" d="M16.418 30.59c-0.124-0.015-0.256-0.031-0.38-0.047-0.217-0.031-0.403 0.124-0.434 0.333s0.124 0.403 0.333 0.434c0.132 0.015 0.263 0.031 0.395 0.047 0.015 0 0.031 0 0.047 0 0.194 0 0.356-0.147 0.38-0.341 0.015-0.217-0.132-0.403-0.341-0.426z"></path>
<path fill="#fff" d="M17.488 17.805c0.039 0 0.085-0.008 0.124-0.023 0.132-0.047 0.256-0.093 0.38-0.139 0.201-0.077 0.302-0.294 0.225-0.496s-0.294-0.302-0.496-0.225c-0.116 0.047-0.232 0.085-0.356 0.132-0.201 0.070-0.31 0.287-0.24 0.488 0.054 0.163 0.201 0.263 0.364 0.263z"></path>
<path fill="#fff" d="M12.041 29.404c-0.108-0.054-0.217-0.116-0.325-0.178-0.186-0.108-0.418-0.039-0.527 0.147s-0.039 0.418 0.147 0.527c0.116 0.070 0.24 0.132 0.364 0.194 0.054 0.031 0.116 0.039 0.17 0.039 0.139 0 0.279-0.077 0.341-0.209 0.093-0.194 0.015-0.426-0.17-0.519z"></path>
<path fill="#fff" d="M17.953 30.706c-0.124-0.008-0.256-0.015-0.387-0.023-0.217-0.015-0.395 0.147-0.411 0.364-0.015 0.209 0.147 0.395 0.364 0.411 0.132 0.008 0.271 0.015 0.395 0.023 0.008 0 0.008 0 0.015 0 0.201 0 0.372-0.163 0.387-0.372 0.008-0.217-0.155-0.395-0.364-0.403z"></path>
<path fill="#fff" d="M15.752 14.009c0.194 0 0.364-0.147 0.38-0.349 0.015-0.209-0.139-0.395-0.349-0.418-0.132-0.015-0.263-0.023-0.395-0.031-0.201-0.015-0.395 0.147-0.411 0.356s0.147 0.395 0.356 0.411c0.124 0.008 0.256 0.015 0.38 0.031 0.023 0 0.031 0 0.039 0z"></path>
<path fill="#fff" d="M19.494 30.722v0c-0.132 0-0.256 0.008-0.395 0.008-0.209 0-0.387 0.178-0.38 0.387 0 0.209 0.17 0.38 0.387 0.38v0c0.139 0 0.271 0 0.395-0.008 0.209 0 0.38-0.178 0.38-0.395 0-0.201-0.178-0.372-0.387-0.372z"></path>
<path fill="#fff" d="M19.115 17.116c0.139-0.085 0.256-0.17 0.364-0.263 0.163-0.139 0.178-0.38 0.039-0.542s-0.38-0.178-0.542-0.039c-0.077 0.062-0.163 0.132-0.271 0.194-0.178 0.108-0.232 0.349-0.124 0.527 0.070 0.116 0.201 0.178 0.325 0.178 0.077 0.008 0.147-0.015 0.209-0.054z"></path>
<path fill="#fff" d="M17.302 14.233c0.178 0 0.333-0.124 0.38-0.302 0.047-0.209-0.085-0.411-0.294-0.457-0.132-0.031-0.263-0.054-0.395-0.077-0.209-0.039-0.411 0.101-0.449 0.31s0.101 0.411 0.31 0.449c0.124 0.023 0.248 0.046 0.372 0.070 0.023 0.008 0.054 0.008 0.077 0.008z"></path>
<path fill="#fff" d="M13.428 29.97c-0.116-0.039-0.24-0.077-0.356-0.124-0.201-0.070-0.418 0.031-0.496 0.232-0.070 0.201 0.031 0.418 0.232 0.496 0.124 0.047 0.256 0.093 0.38 0.132 0.039 0.015 0.077 0.015 0.116 0.015 0.163 0 0.318-0.101 0.364-0.271 0.070-0.201-0.039-0.418-0.24-0.48z"></path>
<path fill="#fff" d="M11.793 19.107c-0.116 0.070-0.232 0.132-0.349 0.201-0.178 0.108-0.24 0.349-0.132 0.527 0.070 0.116 0.201 0.186 0.325 0.186 0.070 0 0.139-0.015 0.201-0.054 0.108-0.062 0.217-0.132 0.325-0.186 0.186-0.101 0.256-0.341 0.147-0.527-0.101-0.178-0.333-0.248-0.519-0.147z"></path>
<path fill="#fff" d="M13.249 18.417c-0.124 0.047-0.248 0.101-0.372 0.155-0.194 0.085-0.287 0.31-0.201 0.504 0.062 0.147 0.201 0.232 0.356 0.232 0.054 0 0.101-0.008 0.155-0.031 0.116-0.054 0.232-0.101 0.356-0.147 0.194-0.077 0.294-0.302 0.209-0.504-0.077-0.194-0.31-0.287-0.504-0.209z"></path>
<path fill="#fff" d="M14.753 17.875c-0.124 0.039-0.248 0.085-0.372 0.124-0.201 0.070-0.31 0.287-0.24 0.488 0.054 0.163 0.201 0.263 0.364 0.263 0.039 0 0.085-0.008 0.124-0.023 0.124-0.039 0.248-0.085 0.372-0.124 0.201-0.070 0.31-0.287 0.248-0.488-0.077-0.194-0.294-0.302-0.496-0.24z"></path>
<path fill="#fff" d="M14.9 30.35c-0.124-0.023-0.248-0.054-0.372-0.077-0.209-0.047-0.411 0.085-0.465 0.287-0.046 0.209 0.085 0.411 0.287 0.465 0.132 0.031 0.263 0.062 0.395 0.085 0.023 0.008 0.054 0.008 0.077 0.008 0.178 0 0.341-0.124 0.38-0.31 0.039-0.209-0.093-0.418-0.302-0.457z"></path>
<path fill="#fff" d="M14.195 13.931c0.209 0 0.38-0.17 0.387-0.38 0-0.209-0.163-0.387-0.38-0.395-0.132 0-0.263-0.008-0.395-0.008v0c-0.209 0-0.387 0.17-0.387 0.38s0.17 0.387 0.38 0.387c0.124 0.008 0.256 0.008 0.395 0.015-0.008 0-0.008 0 0 0z"></path>
<path fill="#fff" d="M20.866 30.652c0 0-0.070 0.008-0.178 0.015-0.209 0.015-0.372 0.201-0.356 0.411 0.015 0.201 0.186 0.356 0.387 0.356 0.008 0 0.023 0 0.031 0 0.132-0.008 0.201-0.015 0.201-0.015 0.209-0.023 0.364-0.209 0.341-0.426-0.023-0.209-0.217-0.364-0.426-0.341z"></path>
</svg>
