<!-- Generated by IcoMoon.io -->
<svg version="1.1" xmlns="http://www.w3.org/2000/svg" width="32" height="32" viewBox="0 0 32 32">
<title>paris</title>
<path fill="#fff" d="M23.64 30.915l-2.038-5.191h1.472c0.232 0 0.426-0.194 0.426-0.426s-0.194-0.426-0.426-0.426h-1.805l-2.495-6.377h1.093c0.232 0 0.426-0.194 0.426-0.426s-0.194-0.426-0.426-0.426h-1.395l-1.658-14.016h0.806c0.232 0 0.426-0.194 0.426-0.426s-0.194-0.426-0.426-0.426h-0.907l-0.225-1.891c-0.023-0.217-0.209-0.372-0.426-0.38v0c-0.217 0-0.395 0.163-0.426 0.372l-0.232 1.891h-0.682c-0.232 0-0.426 0.194-0.426 0.426s0.194 0.426 0.426 0.426h0.573l-1.72 14.024h-1.402c-0.232 0-0.426 0.194-0.426 0.426s0.194 0.426 0.426 0.426h1.108l-2.518 6.377h-1.798c-0.232 0-0.426 0.194-0.426 0.426s0.194 0.426 0.426 0.426h1.457l-2.061 5.191c-0.054 0.132-0.039 0.279 0.046 0.395 0.077 0.116 0.209 0.186 0.356 0.186h2.588c0.186 0 0.356-0.124 0.411-0.31 0.542-1.875 2.293-3.184 4.246-3.184s3.696 1.309 4.246 3.184c0.054 0.186 0.217 0.31 0.411 0.31h2.588c0.139 0 0.271-0.070 0.349-0.186 0.070-0.116 0.085-0.263 0.039-0.395zM16.054 4.502l1.55 13.149h-3.161l1.612-13.149zM14.21 18.503h3.649l2.503 6.377h-8.678l2.526-6.377zM20.967 30.644c-0.744-2.069-2.743-3.494-4.967-3.494s-4.223 1.418-4.967 3.494h-1.65l1.953-4.912h9.352l1.929 4.912h-1.65z"></path>
<path fill="#fff" d="M18.456 23.299l-1.511-3.386c-0.070-0.155-0.225-0.256-0.387-0.256h-0.938c-0.163 0-0.318 0.101-0.387 0.248l-1.565 3.386c-0.062 0.132-0.046 0.287 0.031 0.411s0.217 0.194 0.356 0.194h4.014c0.147 0 0.279-0.070 0.356-0.194 0.077-0.116 0.085-0.271 0.031-0.403zM14.714 23.051l1.17-2.534h0.387l1.131 2.534h-2.689z"></path>
</svg>
