<!-- Generated by IcoMoon.io -->
<svg version="1.1" xmlns="http://www.w3.org/2000/svg" width="32" height="32" viewBox="0 0 32 32">
<title>parking</title>
<path fill="#fff" d="M29.296 0.519h-26.669c-1.193 0-2.162 0.953-2.162 2.123v26.747c0 1.17 0.969 2.123 2.162 2.123h26.669c1.193 0 2.162-0.953 2.162-2.123v-26.747c0-1.17-0.969-2.123-2.162-2.123zM30.35 29.389c0 0.573-0.473 1.030-1.054 1.030h-26.669c-0.581 0-1.054-0.465-1.054-1.030v-26.747c0-0.573 0.473-1.030 1.054-1.030h26.669c0.581 0 1.054 0.465 1.054 1.030v26.747z"></path>
<path fill="#fff" d="M16.341 7.756h-4.44c-0.387 0-0.705 0.302-0.705 0.682v15.109c0 0.418 0.294 0.705 0.705 0.705h0.558c0.395 0 0.682-0.294 0.682-0.705v-5.966h3.27c3.378 0 4.889-2.526 4.889-5.029 0-2.96-1.898-4.796-4.959-4.796zM13.141 15.752v-6.121h2.921c1.488 0 3.27 0.511 3.27 2.968 0 2.921-2.255 3.154-2.944 3.154h-3.247z"></path>
</svg>
