<!-- Generated by IcoMoon.io -->
<svg version="1.1" xmlns="http://www.w3.org/2000/svg" width="32" height="32" viewBox="0 0 32 32">
<title>passengers</title>
<path fill="#fff" d="M23.198 8.523c1.147 0 2.076-0.93 2.076-2.076s-0.93-2.076-2.076-2.076-2.076 0.93-2.076 2.076 0.93 2.076 2.076 2.076zM23.198 4.951c0.829 0 1.495 0.674 1.495 1.495 0 0.829-0.674 1.495-1.495 1.495-0.829 0-1.495-0.674-1.495-1.495-0.008-0.821 0.666-1.495 1.495-1.495z"></path>
<path fill="#fff" d="M13.335 8.523c1.131 0 2.053-0.922 2.053-2.053s-0.922-2.053-2.053-2.053-2.053 0.922-2.053 2.053 0.914 2.053 2.053 2.053zM13.335 4.998c0.814 0 1.48 0.659 1.48 1.48s-0.659 1.48-1.48 1.48-1.48-0.674-1.48-1.488 0.659-1.472 1.48-1.472z"></path>
<path fill="#fff" d="M17.464 16.093v-4.742c0-0.713-0.209-1.278-0.612-1.681-0.604-0.589-1.418-0.581-1.449-0.581h-4.145c-0.031 0-0.852-0.008-1.457 0.581-0.411 0.395-0.612 0.961-0.612 1.681v4.726c0 0.023-0.015 0.612 0.38 1.023 0.178 0.186 0.403 0.302 0.674 0.356l-0.232 1.193h-0.558v-0.287c0-0.775-0.55-1.356-1.278-1.356h-2.433c-0.767 0-1.441 0.635-1.441 1.356v0.287h-2.433c-0.752 0-1.364 0.612-1.364 1.356v6.098c0 0.752 0.612 1.356 1.364 1.356h10.034c0.155 0 0.302-0.031 0.442-0.077 0.132 0.031 0.279 0.054 0.434 0.054h1.116c0.48 0 0.868-0.147 1.139-0.442 0.457-0.488 0.418-1.185 0.418-1.201v-3.37h1.565c0.085 0 0.17-0.039 0.225-0.101 0.054-0.070 0.077-0.155 0.062-0.24l-0.883-4.633c0.271-0.054 0.496-0.17 0.674-0.356 0.395-0.403 0.372-0.984 0.372-1zM4.874 18.371c0-0.411 0.411-0.783 0.868-0.783h2.448c0.411 0 0.697 0.325 0.697 0.783v0.287h-4.014v-0.287zM1.867 26.902c-0.434 0-0.783-0.349-0.783-0.783v-6.098c0-0.434 0.349-0.783 0.783-0.783h10.034c0.434 0 0.783 0.349 0.783 0.783v6.098c0 0.434-0.349 0.783-0.783 0.783h-10.034zM16.666 16.705c-0.132 0.139-0.341 0.209-0.604 0.209-0.085 0-0.17 0.039-0.225 0.101-0.054 0.070-0.077 0.155-0.062 0.24l0.883 4.602h-1.503c-0.163 0-0.287 0.132-0.287 0.287v3.673c0 0.008 0.023 0.488-0.263 0.79-0.163 0.17-0.403 0.256-0.721 0.256h-0.86c0.147-0.217 0.232-0.473 0.232-0.759v-6.098c0-0.752-0.612-1.356-1.356-1.356h-1.286l0.271-1.402c0.015-0.085-0.008-0.17-0.062-0.24s-0.139-0.101-0.225-0.101c-0.263 0-0.465-0.070-0.604-0.209-0.225-0.232-0.225-0.604-0.225-0.612v-4.742c0-0.55 0.147-0.976 0.434-1.263 0.426-0.418 1.038-0.418 1.046-0.418h4.153c0 0 0.62 0 1.046 0.418 0.287 0.287 0.434 0.713 0.434 1.263v4.75c0.008 0.015 0.015 0.38-0.217 0.612z"></path>
<path fill="#fff" d="M31.496 17.379c0-0.821-0.566-1.418-1.596-1.72v-1.519h0.527c0.163 0 0.287-0.132 0.287-0.287s-0.132-0.287-0.287-0.287h-3.045v-2.162c0-0.721-0.209-1.294-0.62-1.697-0.612-0.597-1.433-0.581-1.464-0.581h-4.2c-0.031 0-0.86-0.015-1.472 0.581-0.411 0.403-0.62 0.976-0.62 1.697v4.788c0 0.023-0.015 0.612 0.38 1.030 0.248 0.263 0.597 0.395 1.030 0.395h0.635v8.167c0 0.031-0.039 0.736 0.418 1.232 0.279 0.294 0.666 0.442 1.154 0.442h1.131c0.984 0 1.433-0.62 1.542-1.278h5.176c0.558 0 1.015-0.457 1.015-1.015l0.008-7.787zM29.319 14.14v1.387c-0.403-0.070-0.852-0.108-1.348-0.108-0.248 0-0.488 0.008-0.589 0v-1.286h1.937v0.008zM26.801 14.14v1.286c-0.364 0.015-0.705 0.046-1.007 0.101v-1.387h1.007zM23.764 26.871h-1.131c-0.318 0-0.566-0.085-0.728-0.263-0.294-0.31-0.271-0.798-0.271-0.821v-8.469c0-0.163-0.132-0.287-0.287-0.287h-0.922c-0.271 0-0.473-0.070-0.612-0.209-0.232-0.24-0.225-0.612-0.225-0.62v-4.796c0-0.558 0.147-0.992 0.442-1.286 0.434-0.426 1.054-0.418 1.061-0.426h4.207c0.008 0 0.62-0.008 1.054 0.418 0.294 0.294 0.449 0.721 0.449 1.286v2.162h-2.386c-0.163 0-0.287 0.132-0.287 0.287s0.132 0.287 0.287 0.287h0.806v1.519c-1.030 0.302-1.596 0.899-1.596 1.72v7.787c0 0.558 0.457 1.015 1.015 1.015h0.085c-0.085 0.341-0.325 0.697-0.961 0.697zM30.481 25.6h-5.85c-0.24 0-0.434-0.194-0.434-0.434v-7.787c0-1.247 2.061-1.379 2.944-1.379 0.225 0 0.604 0 0.829 0 0.883 0 2.944 0.132 2.944 1.379v7.787c0.008 0.232-0.194 0.434-0.434 0.434z"></path>
<path fill="#fff" d="M26.336 27.157c0 0.261-0.212 0.473-0.473 0.473s-0.473-0.212-0.473-0.473c0-0.261 0.212-0.473 0.473-0.473s0.473 0.212 0.473 0.473z"></path>
<path fill="#fff" d="M29.722 27.157c0 0.261-0.212 0.473-0.473 0.473s-0.473-0.212-0.473-0.473c0-0.261 0.212-0.473 0.473-0.473s0.473 0.212 0.473 0.473z"></path>
</svg>
