<!-- Generated by IcoMoon.io -->
<svg version="1.1" xmlns="http://www.w3.org/2000/svg" width="32" height="32" viewBox="0 0 32 32">
<title>passport</title>
<path fill="#fff" d="M27.343 3.479h-1.875v-2.479c0-0.271-0.225-0.496-0.496-0.496h-20.316c-0.271 0-0.496 0.225-0.496 0.496v30.001c0 0.271 0.225 0.496 0.496 0.496h22.679c0.271 0 0.496-0.225 0.496-0.496v-27.026c0.008-0.271-0.217-0.496-0.488-0.496zM24.469 1.495v1.984h-19.308v-1.984h19.308zM26.84 30.505h-21.679v-26.034h21.687v26.034h-0.008z"></path>
<path fill="#fff" d="M19.859 26.886h-7.562c-0.271 0-0.496 0.225-0.496 0.496s0.225 0.496 0.496 0.496h7.562c0.271 0 0.496-0.225 0.496-0.496s-0.217-0.496-0.496-0.496z"></path>
<path fill="#fff" d="M16.077 23.322c4.169 0 7.562-3.394 7.562-7.562s-3.394-7.562-7.562-7.562-7.562 3.394-7.562 7.562 3.386 7.562 7.562 7.562zM9.809 17.743c0.783 0.535 1.891 0.945 3.231 1.201 0.256 1.278 0.651 2.355 1.162 3.107-2.084-0.612-3.735-2.239-4.393-4.308zM16.101 9.236c0.767 0 1.604 1.333 2.046 3.386-0.643-0.077-1.325-0.116-2.046-0.116s-1.395 0.046-2.046 0.116c0.442-2.053 1.278-3.386 2.046-3.386zM16.101 13.497c0.79 0 1.534 0.062 2.224 0.155 0.085 0.659 0.139 1.364 0.139 2.115 0 0.821-0.062 1.588-0.17 2.301-0.682 0.093-1.418 0.155-2.193 0.155s-1.511-0.054-2.193-0.155c-0.108-0.713-0.17-1.48-0.17-2.301 0-0.752 0.054-1.457 0.139-2.115 0.69-0.093 1.433-0.155 2.224-0.155zM19.324 17.883c0.077-0.666 0.124-1.371 0.124-2.115 0-0.674-0.039-1.317-0.108-1.929 1.991 0.449 3.27 1.263 3.27 2.022 0.008 0.759-1.278 1.581-3.285 2.022zM16.101 22.307c-0.744 0-1.55-1.255-1.999-3.2 0.635 0.070 1.302 0.116 1.999 0.116s1.364-0.039 1.999-0.116c-0.449 1.945-1.255 3.2-1.999 3.2zM12.87 17.883c-1.999-0.449-3.293-1.263-3.293-2.022s1.286-1.573 3.27-2.022c-0.070 0.612-0.108 1.255-0.108 1.929 0.008 0.744 0.054 1.449 0.132 2.115zM18.007 22.036c0.504-0.759 0.907-1.821 1.154-3.092 1.294-0.248 2.386-0.643 3.161-1.154-0.666 2.022-2.278 3.618-4.316 4.246zM22.392 13.985c-0.775-0.527-1.875-0.945-3.192-1.193-0.248-1.371-0.674-2.518-1.216-3.316 2.131 0.643 3.804 2.355 4.409 4.509zM14.226 9.453c-0.55 0.798-0.976 1.945-1.232 3.332-1.364 0.263-2.487 0.697-3.262 1.247 0.604-2.193 2.317-3.936 4.494-4.579z"></path>
</svg>
