<!-- Generated by IcoMoon.io -->
<svg version="1.1" xmlns="http://www.w3.org/2000/svg" width="32" height="32" viewBox="0 0 32 32">
<title>payment</title>
<path fill="#fff" d="M30.644 12.149h-14.776c-0.023-0.085-0.054-0.186-0.093-0.287-1.023-3.053-3.99-5.098-7.376-5.098-4.347 0-7.888 3.541-7.888 7.857-0.008 0.085-0.178 2.053 1.193 2.495 0.372 0.124 1.697 0.55 3.316 1.085l-0.101 0.101c-0.666 0.666-0.666 1.743 0 2.41 0.294 0.294 0.674 0.457 1.085 0.488-0.504 0.666-0.457 1.619 0.147 2.231 0.325 0.325 0.752 0.496 1.209 0.496 0.341 0 0.674-0.101 0.953-0.294 0.023 0.403 0.186 0.79 0.488 1.1 0.333 0.333 0.767 0.496 1.209 0.496 0.434 0 0.876-0.163 1.209-0.496l1.875-1.875h17.55c0.473 0 0.852-0.38 0.852-0.852v-9.003c0-0.473-0.38-0.852-0.852-0.852zM1.131 14.652c0-4.014 3.262-7.276 7.268-7.276 3.123 0 5.858 1.883 6.803 4.695 0.008 0.023 0.015 0.054 0.031 0.077h-3.161c-0.473 0-0.852 0.38-0.852 0.852v1.511c-1.085-0.736-2.076-1.395-2.464-1.658-0.139-0.093-0.333-0.054-0.426 0.085s-0.054 0.333 0.085 0.426c2.293 1.534 6.020 4.052 6.276 4.3 0.302 0.302 0.93 0.93 0.496 2.015-0.403 1.015-1.836 0.589-1.898 0.573 0 0-10.228-3.339-11.382-3.719-0.914-0.294-0.783-1.844-0.775-1.883zM5.354 18.735l0.325-0.325c0.752 0.248 1.55 0.504 2.324 0.759l-1.108 1.108c-0.426 0.426-1.116 0.426-1.542 0-0.418-0.426-0.418-1.116 0-1.542zM6.594 22.997c-0.426-0.426-0.426-1.116 0-1.542l2.069-2.069c0.837 0.271 1.643 0.535 2.324 0.759l-2.844 2.844c-0.418 0.418-1.139 0.418-1.55 0.008zM10.778 24.306c-0.426 0.426-1.116 0.426-1.542 0s-0.426-1.116 0-1.542l1.976-1.976v1.216c0 0.473 0.38 0.852 0.852 0.852h0.163l-1.449 1.449zM30.884 22.005c0 0.132-0.108 0.24-0.24 0.24h-18.58c-0.132 0-0.24-0.108-0.24-0.24v-1.581c0.775 0.256 1.263 0.411 1.263 0.411 0.232 0.070 0.55 0.132 0.883 0.132 0.674 0 1.433-0.232 1.767-1.061 0.589-1.464-0.294-2.348-0.643-2.696-0.17-0.17-1.72-1.232-3.277-2.286v-1.929c0-0.132 0.108-0.24 0.24-0.24h18.58c0.132 0 0.24 0.108 0.24 0.24v9.011h0.008z"></path>
<path fill="#fff" d="M23.299 19.773c-0.015-0.054-0.047-0.108-0.155-0.093-0.372 0.047-0.829 0.108-1.309 0.108-0.953 0-1.255-0.674-1.333-1.503h2.139c0.054 0 0.070-0.023 0.070-0.062v-0.248c0-0.070-0.023-0.093-0.085-0.093h-3.177c-0.062 0-0.085 0.039-0.085 0.070v0.271c0 0.062 0.031 0.077 0.077 0.077l0.411-0.008c0.093 1.139 0.55 2.076 1.984 2.076 0.31 0 1.038-0.054 1.418-0.209 0.101-0.039 0.101-0.093 0.085-0.17l-0.039-0.217z"></path>
<path fill="#fff" d="M23.245 15.225c-0.418-0.163-1.108-0.201-1.41-0.201-1.433 0-1.875 0.961-1.984 2.108h-0.403c-0.062 0-0.085 0.031-0.085 0.070v0.271c0 0.062 0.031 0.070 0.077 0.070h3.192c0.054 0 0.070-0.031 0.070-0.070v-0.256c0-0.070-0.015-0.085-0.077-0.085h-2.139c0.070-0.86 0.349-1.534 1.34-1.534 0.465 0 0.969 0.062 1.317 0.108 0.101 0.015 0.132-0.031 0.147-0.085l0.047-0.225c0.023-0.070 0.015-0.124-0.093-0.17z"></path>
<path fill="#fff" d="M29.141 14.055h-1.588c-0.17 0-0.31 0.139-0.31 0.31s0.139 0.31 0.31 0.31h1.588c0.17 0 0.31-0.139 0.31-0.31s-0.139-0.31-0.31-0.31z"></path>
</svg>
