<!-- Generated by IcoMoon.io -->
<svg version="1.1" xmlns="http://www.w3.org/2000/svg" width="32" height="32" viewBox="0 0 32 32">
<title>payment-companies</title>
<path fill="#fff" d="M28.18 9.073h-2.968l-0.147-1.077c-0.124-0.876-0.573-1.658-1.278-2.193s-1.581-0.767-2.456-0.643l-17.96 2.456c-0.876 0.124-1.658 0.573-2.193 1.278s-0.767 1.581-0.643 2.456l1.519 11.064c0.225 1.658 1.658 2.867 3.285 2.867 0.147 0 0.302-0.008 0.449-0.031l1.325-0.178c0.55 1.069 1.666 1.798 2.944 1.798h18.115c1.829 0 3.316-1.488 3.316-3.316v-11.165c0.008-1.829-1.48-3.316-3.308-3.316zM7.624 14.164h22.989v2.944h-22.989v-2.944zM30.613 12.389v0.891h-22.989v-0.891c0-1.34 1.092-2.441 2.441-2.441h14.807c0.008 0 0.008 0 0.015 0v0h3.293c1.34 0.008 2.433 1.1 2.433 2.441zM1.883 9.43c0.395-0.519 0.969-0.852 1.612-0.945l17.945-2.464c0.643-0.085 1.286 0.077 1.805 0.473s0.852 0.969 0.945 1.612l0.132 0.961h-14.257c-1.612 0-2.952 1.147-3.254 2.673l-5.23 0.721-0.17-1.224c-0.093-0.643 0.077-1.286 0.473-1.805zM5.672 24.384c-1.333 0.178-2.565-0.752-2.743-2.084l-1.232-8.965 5.044-0.697v10.917c0 0.232 0.023 0.457 0.070 0.674l-1.139 0.155zM28.18 25.995h-18.123c-1.34 0-2.441-1.093-2.441-2.441v-5.563h22.989v5.563c0.008 1.348-1.085 2.441-2.425 2.441z"></path>
<path fill="#fff" d="M9.856 20.664h3.239c0.24 0 0.442-0.194 0.442-0.442 0-0.24-0.194-0.442-0.442-0.442h-3.239c-0.24 0-0.442 0.194-0.442 0.442 0 0.24 0.201 0.442 0.442 0.442z"></path>
<path fill="#fff" d="M20.827 22.338h-10.971c-0.24 0-0.442 0.194-0.442 0.442 0 0.24 0.194 0.442 0.442 0.442h10.971c0.24 0 0.442-0.194 0.442-0.442 0-0.24-0.201-0.442-0.442-0.442z"></path>
<path fill="#fff" d="M28.382 19.781h-2.557c-0.24 0-0.442 0.194-0.442 0.442v2.557c0 0.24 0.194 0.442 0.442 0.442h2.557c0.24 0 0.442-0.194 0.442-0.442v-2.557c0-0.248-0.201-0.442-0.442-0.442zM27.94 22.338h-1.674v-1.674h1.674v1.674z"></path>
</svg>
