<!-- Generated by IcoMoon.io -->
<svg version="1.1" xmlns="http://www.w3.org/2000/svg" width="32" height="32" viewBox="0 0 32 32">
<title>pc-hookup-in-room</title>
<path fill="#fff" d="M13.257 20.192c0 0.364-0.295 0.659-0.659 0.659s-0.659-0.295-0.659-0.659c0-0.364 0.295-0.659 0.659-0.659s0.659 0.295 0.659 0.659z"></path>
<path fill="#fff" d="M21.811 12.327c0.085 0.085 0.194 0.124 0.31 0.124 0.108 0 0.225-0.039 0.31-0.124 0.17-0.17 0.17-0.442 0-0.612l-4.61-4.61c-0.17-0.17-0.442-0.17-0.612 0s-0.17 0.442 0 0.612l4.602 4.61z"></path>
<path fill="#fff" d="M21.842 9.592c0.085 0.085 0.194 0.124 0.31 0.124 0.108 0 0.225-0.039 0.31-0.124 0.17-0.17 0.17-0.442 0-0.612l-2.015-2.007c-0.17-0.17-0.442-0.17-0.612 0s-0.17 0.442 0 0.612l2.007 2.007z"></path>
<path fill="#fff" d="M31.496 10.313c0-1.317-1.077-2.394-2.394-2.394s-2.394 1.077-2.394 2.394c0 1.108 0.752 2.030 1.767 2.309v8.926c0 1.929-1.581 3.51-3.525 3.518-3.030 0.015-7.175 0-8.19 0l-0.465-0.69c-0.108-0.163-0.225-0.55-0.225-0.752v-1.154h7.121c0.821 0 1.495-0.666 1.495-1.495v-14.582c0-0.821-0.666-1.495-1.495-1.495h-21.191c-0.821 0-1.495 0.666-1.495 1.495v14.574c0 0.821 0.666 1.495 1.495 1.495h7.121v1.154c0 0.201-0.116 0.589-0.225 0.752l-0.589 0.883c-0.271 0.403-0.31 0.868-0.108 1.24 0.201 0.38 0.612 0.597 1.092 0.597h6.625c0.48 0 0.891-0.225 1.092-0.597 0.093-0.178 0.132-0.372 0.124-0.566 0.814 0 2.394 0.008 4.107 0.008 1.247 0 2.572 0 3.727-0.008 2.417-0.015 4.385-1.976 4.385-4.385v-8.848c1.201-0.116 2.146-1.139 2.146-2.379zM1.999 5.765h21.199c0.349 0 0.628 0.279 0.628 0.628v11.444h-22.454v-11.444c0-0.341 0.279-0.628 0.628-0.628zM1.999 21.594c-0.349 0-0.628-0.279-0.628-0.628v-2.262h22.454v2.262c0 0.349-0.279 0.628-0.628 0.628h-21.199zM16.24 26.088c-0.070 0.132-0.256 0.147-0.325 0.147h-6.625c-0.077 0-0.263-0.015-0.325-0.139-0.070-0.124 0.008-0.271 0.062-0.356l0.589-0.883c0.209-0.31 0.372-0.86 0.372-1.232v-1.154h5.23v1.154c0 0.372 0.17 0.922 0.372 1.232l0.589 0.883c0.039 0.062 0.132 0.225 0.062 0.349zM27.568 10.313c0-0.845 0.69-1.526 1.526-1.526 0.845 0 1.526 0.69 1.526 1.526 0 0.225-0.047 0.434-0.139 0.62l-1.294-1.209c-0.124-0.116-0.31-0.147-0.465-0.077s-0.263 0.225-0.263 0.395v1.658c-0.511-0.24-0.891-0.767-0.891-1.387zM29.342 11.041l0.589 0.55c-0.178 0.116-0.372 0.186-0.589 0.225v-0.775z"></path>
</svg>
