<!-- Generated by IcoMoon.io -->
<svg version="1.1" xmlns="http://www.w3.org/2000/svg" width="32" height="32" viewBox="0 0 32 32">
<title>pc-screen</title>
<path fill="#fff" d="M16.852 21.548c0 0.471-0.382 0.852-0.852 0.852s-0.852-0.382-0.852-0.852c0-0.471 0.382-0.852 0.852-0.852s0.852 0.382 0.852 0.852z"></path>
<path fill="#fff" d="M31.496 18.929c0-0.008 0-0.008 0 0v-15.295c0-1.023-0.829-1.852-1.852-1.852h-27.289c-1.023 0-1.852 0.829-1.852 1.852v18.766c0 1.023 0.829 1.852 1.852 1.852h9.236v1.565c0 0.271-0.155 0.79-0.302 1.007l-0.759 1.139c-0.325 0.496-0.38 1.061-0.132 1.526 0.248 0.457 0.744 0.736 1.34 0.736h8.531c0.597 0 1.093-0.271 1.34-0.736 0.248-0.457 0.194-1.030-0.132-1.526l-0.759-1.139c-0.147-0.225-0.302-0.744-0.302-1.007v-1.565h9.236c1.023 0 1.852-0.829 1.852-1.852l-0.008-3.471zM2.355 2.751h27.297c0.488 0 0.883 0.395 0.883 0.883v14.807h-29.063v-14.807c0-0.488 0.395-0.883 0.883-0.883zM19.905 27.359l0.759 1.139c0.077 0.116 0.186 0.333 0.085 0.527s-0.349 0.225-0.488 0.225h-8.523c-0.139 0-0.387-0.031-0.488-0.225s0.008-0.418 0.085-0.527l0.759-1.139c0.256-0.38 0.465-1.093 0.465-1.55v-1.565h6.88v1.565c0 0.457 0.217 1.162 0.465 1.55zM29.645 23.276h-27.289c-0.488 0-0.883-0.395-0.883-0.883v-2.991h29.056v2.991c0 0.488-0.395 0.883-0.883 0.883z"></path>
<path fill="#fff" d="M28.692 8.438c0.093 0.093 0.217 0.139 0.341 0.139s0.248-0.046 0.341-0.139c0.186-0.186 0.186-0.496 0-0.682l-3.913-3.913c-0.194-0.186-0.496-0.186-0.682 0s-0.186 0.496 0 0.682l3.913 3.913z"></path>
<path fill="#fff" d="M28.42 11.258c0.093 0.093 0.217 0.139 0.341 0.139s0.248-0.046 0.341-0.139c0.186-0.186 0.186-0.496 0-0.682l-6.524-6.524c-0.194-0.186-0.496-0.186-0.682 0s-0.186 0.496 0 0.682l6.524 6.524z"></path>
</svg>
