<!-- Generated by IcoMoon.io -->
<svg version="1.1" xmlns="http://www.w3.org/2000/svg" width="32" height="32" viewBox="0 0 32 32">
<title>pencil</title>
<path fill="#fff" d="M30.745 4.083l-2.255-2.332c-0.496-0.519-1.17-0.806-1.883-0.821-0.736-0.023-1.395 0.256-1.914 0.752l-23.655 22.865c-0.008 0.008-0.008 0.015-0.016 0.023-0.031 0.039-0.062 0.077-0.085 0.116-0.008 0.015-0.015 0.023-0.015 0.039-0.023 0.054-0.039 0.108-0.039 0.163l-0.372 5.633c-0.008 0.147 0.046 0.294 0.147 0.395s0.232 0.163 0.372 0.163c0.008 0 0.008 0 0.016 0l5.641-0.186c0.054 0 0.108-0.015 0.163-0.031 0.016-0.008 0.023-0.015 0.039-0.023 0.046-0.023 0.085-0.047 0.116-0.077 0.008-0.008 0.016-0.008 0.023-0.015l23.655-22.865c0.519-0.496 0.806-1.17 0.821-1.883 0.008-0.721-0.263-1.395-0.759-1.914zM1.581 30.009l0.256-3.882 3.634 3.758-3.89 0.124zM6.679 29.629l-4.54-4.695 20.633-19.944 1.906 1.976-16.914 16.349c-0.209 0.201-0.209 0.527-0.016 0.736 0.101 0.108 0.24 0.163 0.372 0.163s0.263-0.047 0.364-0.147l16.914-16.349 1.906 1.976-20.626 19.936zM29.954 7.128l-1.891 1.829-4.548-4.695 1.898-1.829c0.31-0.302 0.713-0.465 1.139-0.465 0.008 0 0.015 0 0.031 0 0.442 0.008 0.845 0.186 1.154 0.504l2.255 2.332c0.302 0.318 0.473 0.728 0.465 1.17-0.015 0.442-0.194 0.852-0.504 1.154z"></path>
</svg>
