<!-- Generated by IcoMoon.io -->
<svg version="1.1" xmlns="http://www.w3.org/2000/svg" width="32" height="32" viewBox="0 0 32 32">
<title>percentage-tag</title>
<path fill="#fff" d="M30.613 17.054l-11.607-11.599c-1.34-1.007-3.417-2.076-5.238-2.076h-6.439c-0.263 0-0.48 0.217-0.48 0.48s0.217 0.48 0.48 0.48h6.439c1.573 0 3.471 1 4.633 1.867l11.529 11.529c0.814 0.814 0.798 2.503-0.023 3.634l-8.539 8.531c-1.131 0.829-2.526 0.829-3.657 0l-11.498-11.506c-0.976-1.317-1.867-3.518-1.867-4.633v-6.927c0-0.504 0.147-0.984 0.418-1.387l3.27 3.27c-0.449 0.597-0.69 1.317-0.69 2.076 0 1.906 1.55 3.456 3.456 3.456s3.456-1.55 3.456-3.456c0-1.666-1.185-3.099-2.82-3.394-0.263-0.046-0.511 0.124-0.566 0.387-0.046 0.263 0.124 0.511 0.387 0.566 1.178 0.217 2.030 1.24 2.030 2.441 0 1.395-1.092 2.487-2.487 2.487s-2.487-1.092-2.487-2.487c0-0.504 0.147-0.984 0.418-1.387l1.728 1.728c0.093 0.093 0.217 0.139 0.341 0.139s0.248-0.046 0.341-0.139c0.186-0.186 0.186-0.496 0-0.682l-9.809-9.809c-0.186-0.186-0.496-0.186-0.682 0s-0.186 0.496 0 0.682l3.425 3.425c-0.449 0.597-0.69 1.317-0.69 2.076v6.935c0 1.48 1.077 3.905 2.076 5.238l11.646 11.653c0.752 0.566 1.596 0.845 2.433 0.845s1.681-0.279 2.433-0.845l8.678-8.678c1.139-1.511 1.116-3.766-0.039-4.92z"></path>
<path fill="#fff" d="M14.915 18.658c-1.263 1.154-0.194 2.441 0.302 2.983 0.728 0.79 1.759 1.852 3.045 0.674 1.309-1.201 0.302-2.441-0.349-3.146-0.752-0.837-1.728-1.681-2.999-0.511zM17.813 21.819c-0.69 0.635-1.271 0.155-1.984-0.628-0.674-0.736-1.154-1.433-0.473-2.061 0.744-0.682 1.294-0.248 2.069 0.597 0.682 0.752 1.1 1.433 0.387 2.092z"></path>
<path fill="#fff" d="M17.999 15.31l-0.271 0.248c-0.077 0.070-0.070 0.124-0.039 0.24l3.076 8.081c0.047 0.101 0.124 0.116 0.201 0.047l0.271-0.248c0.062-0.054 0.070-0.124 0.031-0.217l-3.092-8.081c-0.039-0.101-0.124-0.124-0.178-0.070z"></path>
<path fill="#fff" d="M24.035 20.85c1.309-1.201 0.302-2.441-0.349-3.154-0.759-0.829-1.736-1.674-3.006-0.504-1.263 1.154-0.194 2.441 0.302 2.983 0.728 0.798 1.767 1.86 3.053 0.674zM21.122 17.674c0.744-0.682 1.294-0.248 2.069 0.597 0.69 0.752 1.108 1.433 0.395 2.084-0.69 0.635-1.271 0.155-1.984-0.628-0.682-0.728-1.162-1.426-0.48-2.053z"></path>
</svg>
