<!-- Generated by IcoMoon.io -->
<svg version="1.1" xmlns="http://www.w3.org/2000/svg" width="32" height="32" viewBox="0 0 32 32">
<title>pets-accepted</title>
<path fill="#fff" d="M30.993 8.802c-0.302-0.108-0.628-0.015-0.837 0.232l-1.015 1.216c-0.837 1-2.115 1.565-3.417 1.503l-11.646-0.55c-0.628-0.031-1.193-0.426-1.441-1l-2.603-6.129c-0.124-0.287-0.403-0.473-0.721-0.473h-0.008c-0.318 0-0.597 0.194-0.721 0.488l-0.984 2.433c-0.124 0.31-0.387 0.542-0.713 0.635l-5.455 1.557c-0.372 0.108-0.674 0.372-0.829 0.728s-0.139 0.759 0.039 1.1l0.93 1.767c0.442 0.837 1.302 1.395 2.247 1.441l3.223 0.163c0.542 0.031 0.969 0.434 1.023 0.976l1.224 11.777c0.101 0.984 0.93 1.728 1.914 1.728 0.922 0 1.72-0.659 1.891-1.565l1.123-5.889c0.077-0.395 0.411-0.69 0.814-0.721 0.395 0.101 2.441 0.573 4.455 0.604 2.069 0.023 5.346-0.736 5.85-0.852 0.333 0.015 0.635 0.209 0.798 0.504l1.844 6.803 0.031 0.085c0.302 0.62 0.945 1.023 1.643 1.023 0.488 0 0.953-0.194 1.294-0.542 0.349-0.349 0.535-0.814 0.527-1.302v-17.046c0.023-0.31-0.178-0.589-0.48-0.697zM30.559 26.561c0 0.24-0.093 0.465-0.256 0.635-0.17 0.17-0.395 0.263-0.635 0.263-0.325 0-0.628-0.178-0.783-0.465l-1.844-6.803-0.031-0.085c-0.318-0.651-1-1.061-1.705-1.061l-0.108 0.015c-0.039 0.008-3.611 0.86-5.672 0.845-2.076-0.031-4.277-0.589-4.3-0.589l-0.062-0.015h-0.062c-0.868 0.008-1.619 0.628-1.782 1.48l-1.123 5.889c-0.093 0.465-0.496 0.806-0.976 0.806-0.511 0-0.938-0.38-0.984-0.891l-1.224-11.777c-0.101-1-0.907-1.759-1.906-1.813l-3.231-0.17c-0.62-0.031-1.185-0.395-1.472-0.945l-0.93-1.767c-0.070-0.132-0.039-0.24-0.016-0.302 0.023-0.054 0.085-0.163 0.225-0.201l5.462-1.55c0.604-0.17 1.085-0.604 1.317-1.185l0.852-2.1 2.464 5.788c0.387 0.907 1.271 1.526 2.255 1.573l11.646 0.55c1.588 0.077 3.154-0.612 4.176-1.836l0.705-0.845v16.558z"></path>
<path fill="#fff" d="M12.103 12.064c-0.24-0.108-0.511 0.008-0.612 0.24-0.008 0.008-0.418 0.938-1.573 1.24-0.248 0.062-0.395 0.318-0.333 0.573 0.054 0.209 0.24 0.349 0.449 0.349 0.039 0 0.077-0.008 0.116-0.015 1.581-0.411 2.17-1.712 2.193-1.767 0.108-0.24 0-0.519-0.24-0.62z"></path>
</svg>
