<!-- Generated by IcoMoon.io -->
<svg version="1.1" xmlns="http://www.w3.org/2000/svg" width="32" height="32" viewBox="0 0 32 32">
<title>phone</title>
<path fill="#fff" d="M24.236 27.808l-2.851-5.4c-0.023-0.047-0.054-0.085-0.101-0.116-0.139-0.217-0.333-0.403-0.612-0.573-0.434-0.279-0.938-0.38-1.519-0.287l-2.1 0.527h-0.085l-0.217-0.217c-0.139-0.139-0.325-0.387-0.573-0.759-0.302-0.511-0.573-1.069-0.814-1.658-0.271-0.674-0.535-1.55-0.821-2.758-0.271-1.139-0.426-2.053-0.496-2.789-0.077-0.845-0.062-1.457-0.031-1.821 0.031-0.442 0.101-0.852 0.225-1.201 0.008-0.008 0.008-0.015 0.015-0.023 0.008-0.015 0.023-0.031 0.046-0.054l1.805-0.426c0.418-0.085 0.759-0.294 1.061-0.635s0.457-0.69 0.504-1.108l0.504-6.268c0-0.333-0.054-0.612-0.178-0.852-0.139-0.279-0.325-0.496-0.581-0.666-0.341-0.209-0.775-0.279-1.247-0.186l-4.959 1.17c-0.279 0.039-0.566 0.155-0.914 0.372-0.294 0.209-0.504 0.403-0.651 0.581-0.093 0.093-0.248 0.325-0.341 0.48-0.225 0.302-0.442 0.728-0.651 1.286-0.225 0.519-0.426 1.154-0.659 2.077-0.209 0.845-0.349 1.798-0.411 2.921-0.070 1.193-0.062 2.479 0.031 3.812 0.101 1.426 0.38 3.037 0.814 4.788 0.488 2.131 1.116 4.052 1.867 5.71 0.643 1.402 1.371 2.696 2.185 3.859 0.643 0.891 1.317 1.666 2.015 2.317 0.597 0.504 1.054 0.852 1.379 1.069 0.015 0.008 0.031 0.015 0.046 0.023 0.070 0.039 0.132 0.070 0.178 0.101s0.093 0.054 0.124 0.070l0.155 0.077c0.271 0.116 0.581 0.194 0.922 0.232 0.093 0.008 0.186 0.015 0.279 0.015 0.225 0 0.449-0.031 0.659-0.093l4.998-1.147c0.527-0.178 0.907-0.496 1.116-0.953 0-0.008 0.008-0.008 0.008-0.015 0.17-0.449 0.132-0.969-0.124-1.48zM23.609 28.978c-0.116 0.248-0.318 0.411-0.589 0.504l-4.982 1.147c-0.209 0.062-0.426 0.077-0.651 0.054-0.263-0.031-0.496-0.085-0.666-0.163l-0.139-0.070c-0.023-0.008-0.047-0.023-0.077-0.047-0.054-0.031-0.124-0.070-0.201-0.108-0.294-0.201-0.728-0.535-1.271-0.984-0.643-0.604-1.278-1.34-1.891-2.185-0.783-1.116-1.488-2.371-2.107-3.727-0.736-1.604-1.348-3.471-1.821-5.563-0.426-1.712-0.697-3.277-0.79-4.657-0.093-1.294-0.101-2.541-0.031-3.704 0.062-1.077 0.194-1.984 0.387-2.774 0.217-0.86 0.411-1.48 0.62-1.968 0.186-0.496 0.372-0.868 0.566-1.131 0.155-0.24 0.232-0.349 0.271-0.395 0.124-0.155 0.287-0.294 0.504-0.449 0.232-0.139 0.411-0.217 0.62-0.248l4.99-1.178c0.256-0.054 0.48-0.023 0.635 0.077 0.132 0.085 0.225 0.194 0.302 0.349 0.062 0.124 0.093 0.287 0.093 0.457l-0.504 6.23c-0.023 0.232-0.116 0.426-0.302 0.643-0.186 0.209-0.372 0.325-0.628 0.38l-1.821 0.426c-0.17 0.023-0.31 0.139-0.38 0.209-0.062 0.062-0.101 0.116-0.132 0.17-0.039 0.039-0.077 0.093-0.093 0.147-0.155 0.434-0.256 0.945-0.294 1.48-0.031 0.387-0.046 1.038 0.031 1.945 0.070 0.783 0.232 1.728 0.511 2.906 0.294 1.255 0.566 2.169 0.86 2.875 0.256 0.62 0.542 1.216 0.876 1.782 0.294 0.442 0.504 0.721 0.69 0.899l0.271 0.271c0.093 0.093 0.201 0.124 0.263 0.147l0.062 0.015c0.039 0.015 0.085 0.023 0.132 0.023h0.201c0.031 0 0.062-0.008 0.101-0.015l2.108-0.527c0.349-0.054 0.659 0 0.93 0.178 0.201 0.124 0.325 0.24 0.387 0.372 0.023 0.047 0.054 0.085 0.093 0.116l2.789 5.284c0.132 0.294 0.163 0.581 0.077 0.806z"></path>
</svg>
