<!-- Generated by IcoMoon.io -->
<svg version="1.1" xmlns="http://www.w3.org/2000/svg" width="32" height="32" viewBox="0 0 32 32">
<title>picture</title>
<path fill="#fff" d="M29.459 2.518h-26.917c-1.123 0-2.038 0.914-2.038 2.038v22.888c0 1.123 0.914 2.038 2.038 2.038h26.917c1.123 0 2.038-0.914 2.038-2.038v-22.888c0-1.123-0.914-2.038-2.038-2.038zM2.541 3.378h26.917c0.651 0 1.178 0.527 1.178 1.178v16.015h-4.261c-0.318-0.744-1.302-2.975-2.472-5.191-2.673-5.060-3.967-5.648-4.711-5.648s-2.046 0.589-4.757 5.648c-0.341 0.635-0.666 1.278-0.969 1.883-0.69-1.379-1.821-3.316-2.782-3.316-1.681 0-3.874 4.765-4.664 6.625h-4.657v-16.015c0-0.651 0.527-1.178 1.178-1.178zM6.966 20.571c1.557-3.572 3.123-5.765 3.727-5.765 0.387 0.023 1.464 1.643 2.301 3.44-0.504 1.054-0.891 1.914-1.069 2.324h-4.959zM13.838 18.456c0.008-0.023 0.023-0.039 0.031-0.062 1.852-3.835 4.192-7.795 5.331-7.795 1.364 0 4.378 5.648 6.245 9.98h-12.583c0.302-0.69 0.628-1.402 0.976-2.123zM29.459 28.622h-26.917c-0.651 0-1.178-0.527-1.178-1.178v-6.013h29.273v6.013c0 0.651-0.527 1.178-1.178 1.178z"></path>
<path fill="#fff" d="M8.043 10.638c1.139 0 2.061-0.922 2.061-2.061s-0.922-2.061-2.061-2.061-2.061 0.922-2.061 2.061 0.93 2.061 2.061 2.061zM8.043 7.376c0.666 0 1.201 0.542 1.201 1.201 0 0.666-0.542 1.201-1.201 1.201s-1.201-0.542-1.201-1.201c0-0.666 0.542-1.201 1.201-1.201z"></path>
</svg>
