<!-- Generated by IcoMoon.io -->
<svg version="1.1" xmlns="http://www.w3.org/2000/svg" width="32" height="32" viewBox="0 0 32 32">
<title>pictures</title>
<path fill="#fff" d="M31.031 0.643h-24.027c-0.256 0-0.465 0.209-0.465 0.465v5.571h-5.571c-0.256 0-0.465 0.209-0.465 0.465v23.748c0 0.256 0.209 0.465 0.465 0.465h24.027c0.256 0 0.465-0.209 0.465-0.465v-5.571h5.571c0.256 0 0.465-0.209 0.465-0.465v-23.748c0-0.256-0.209-0.465-0.465-0.465zM24.531 30.427h-23.090v-22.818h23.090v22.818zM30.559 24.391h-5.098v-17.247c0-0.256-0.209-0.465-0.465-0.465h-17.526v-5.106h23.090v22.818z"></path>
<path fill="#fff" d="M10.925 15.713c-0.186-0.186-0.48-0.186-0.659 0l-7.469 7.469c-0.186 0.186-0.186 0.48 0 0.659 0.186 0.186 0.48 0.186 0.659 0l7.144-7.144 8.848 8.848c0.093 0.093 0.209 0.139 0.333 0.139 0.116 0 0.24-0.047 0.333-0.139 0.186-0.186 0.186-0.48 0-0.659l-9.189-9.174z"></path>
<path fill="#fff" d="M19.123 15.837c-0.186-0.186-0.48-0.186-0.659 0l-2.851 2.851c-0.186 0.186-0.186 0.48 0 0.659 0.186 0.186 0.48 0.186 0.659 0l2.518-2.518 3.983 3.983c0.093 0.093 0.209 0.139 0.333 0.139 0.116 0 0.24-0.047 0.333-0.139 0.186-0.186 0.186-0.48 0-0.659l-4.316-4.316z"></path>
<path fill="#fff" d="M5.834 15.264c1.503 0 2.72-1.224 2.72-2.72 0-1.503-1.224-2.72-2.72-2.72s-2.72 1.224-2.72 2.72c0 1.503 1.216 2.72 2.72 2.72zM5.834 10.754c0.984 0 1.79 0.806 1.79 1.79s-0.806 1.79-1.79 1.79-1.79-0.806-1.79-1.79c0-0.984 0.806-1.79 1.79-1.79z"></path>
</svg>
