<!-- Generated by IcoMoon.io -->
<svg version="1.1" xmlns="http://www.w3.org/2000/svg" width="32" height="32" viewBox="0 0 32 32">
<title>piggy-bank</title>
<path fill="#fff" d="M28.63 15.923c-0.356-1.472-1.302-1.945-1.844-2.092-1.689-2.882-4.726-4.401-8.779-4.401-2.386 0-4.478 0.519-5.416 0.79-1.984-1.116-3.479-1.286-4.2-1.286-0.201 0-0.356 0.015-0.449 0.023-0.465 0.008-0.876 0.248-1.108 0.643-0.38 0.659-0.186 1.767 0.604 3.386-0.566 0.938-0.837 2.139-0.922 2.572-0.178 0.403-0.349 0.403-0.465 0.403-0.325 0-0.682-0.209-0.69-0.209-0.256-0.163-0.589-0.209-0.876-0.124-0.294 0.085-0.535 0.294-0.666 0.581-1.286 2.751-0.318 6.16-0.271 6.307 0.116 0.411 0.473 0.713 0.876 0.767-0.24 0.519-0.17 0.953-0.085 1.201 0.325 0.984 1.449 1.216 1.689 1.255 4.068 0.535 3.975 2.541 3.967 2.627-0.108 1.449 0.070 1.937 0.387 2.255 0.139 0.139 0.31 0.232 0.504 0.279 1.674 0.395 2.805 0.597 3.479 0.597 0.209 0 0.852 0 1.193-0.473 0.194-0.232 0.372-0.566 0.511-0.992 1.147 0.101 2.208 0.070 3.123-0.093 0.101 0.325 0.186 0.566 0.217 0.659 0.139 0.364 0.465 0.628 0.845 0.682 0.713 0.101 1.356 0.155 1.914 0.155 2.046 0 2.689-0.713 2.89-1.147 0.054-0.116 0.093-0.248 0.101-0.38 0.031-0.403 0-1.805-0.039-2.999 3.123-2.402 3.123-6.501 2.999-8.019 0.876-0.86 0.837-2.107 0.511-2.968zM27.436 18.41c-0.108 0.085-0.163 0.225-0.147 0.356 0.124 1.216 0.287 5.362-2.82 7.601-0.108 0.077-0.178 0.209-0.17 0.349 0.054 1.681 0.070 2.82 0.047 3.115 0 0.031-0.008 0.070-0.023 0.093-0.054 0.108-0.403 0.666-2.139 0.666-0.519 0-1.123-0.047-1.798-0.147-0.085-0.015-0.163-0.077-0.194-0.163-0.039-0.108-0.178-0.48-0.302-0.945-0.054-0.217-0.279-0.349-0.496-0.302-0.418 0.093-1.116 0.209-2.069 0.209-0.48 0-0.992-0.031-1.511-0.085-0.201-0.023-0.395 0.108-0.449 0.302-0.124 0.457-0.279 0.814-0.465 1.030-0.116 0.155-0.434 0.155-0.542 0.155-0.411 0-1.309-0.101-3.285-0.573-0.046-0.008-0.085-0.031-0.116-0.062-0.163-0.163-0.217-0.705-0.147-1.604 0.008-0.116 0.17-2.875-4.672-3.51-0.085-0.015-0.845-0.155-1.023-0.69-0.108-0.318 0.016-0.674 0.364-1.046 0.016-0.015 0.023-0.023 0.039-0.031 0.155-0.108 0.217-0.31 0.155-0.488-0.062-0.163-0.217-0.271-0.387-0.271-0.016 0-0.031 0-0.046 0l-0.674 0.070c-0.108 0-0.201-0.077-0.232-0.186-0.039-0.132-0.93-3.254 0.225-5.718 0.031-0.070 0.085-0.116 0.155-0.132 0.062-0.015 0.124-0.015 0.201 0.039 0.093 0.054 0.589 0.333 1.123 0.333 0.573 0 0.976-0.31 1.247-0.945 0.008-0.031 0.023-0.054 0.023-0.085 0.046-0.263 0.325-1.635 0.93-2.51 0.085-0.124 0.101-0.287 0.031-0.426-1.023-2.022-0.821-2.665-0.736-2.813 0.085-0.155 0.232-0.232 0.418-0.232 0.016 0 0.039 0 0.054 0 0.364-0.046 1.922-0.139 4.308 1.24 0.101 0.054 0.217 0.070 0.325 0.039 0.798-0.24 2.913-0.806 5.346-0.806 3.812 0 6.632 1.433 8.151 4.138 0.062 0.108 0.163 0.186 0.287 0.201 0.403 0.070 1.108 0.372 1.387 1.542 0.008 0.015 0.008 0.039 0.015 0.054 0.225 0.55 0.364 1.612-0.387 2.239z"></path>
<path fill="#fff" d="M18.813 5.679c1.395 0 2.534-1.162 2.534-2.588s-1.139-2.588-2.534-2.588-2.534 1.162-2.534 2.588 1.139 2.588 2.534 2.588zM18.813 1.333c0.938 0 1.705 0.79 1.705 1.759s-0.767 1.759-1.705 1.759-1.705-0.79-1.705-1.759c0.008-0.969 0.767-1.759 1.705-1.759z"></path>
<path fill="#fff" d="M8.988 14.861c-0.604 0-1.093 0.496-1.093 1.108s0.488 1.108 1.093 1.108 1.092-0.496 1.092-1.108-0.496-1.108-1.092-1.108z"></path>
<path fill="#fff" d="M21.098 12.304c-2.572-1.123-5.555-0.271-5.679-0.232-0.217 0.062-0.349 0.294-0.279 0.511 0.062 0.217 0.294 0.349 0.511 0.279 0.031-0.008 2.82-0.806 5.114 0.194 0.054 0.023 0.108 0.031 0.163 0.031 0.163 0 0.31-0.093 0.38-0.248 0.093-0.201 0-0.449-0.209-0.535z"></path>
</svg>
