<!-- Generated by IcoMoon.io -->
<svg version="1.1" xmlns="http://www.w3.org/2000/svg" width="32" height="32" viewBox="0 0 32 32">
<title>plug</title>
<path fill="#fff" d="M6.23 7.338c-0.186 0-0.341 0.155-0.341 0.341v3.626h-5.036c-0.186 0-0.341 0.155-0.341 0.341s0.155 0.341 0.341 0.341h5.036v7.438h-5.036c-0.186 0-0.341 0.155-0.341 0.341s0.155 0.341 0.341 0.341h5.036v4.192c0 0.186 0.155 0.341 0.341 0.341s0.341-0.155 0.341-0.341v-16.62c0-0.186-0.155-0.341-0.341-0.341z"></path>
<path fill="#fff" d="M29.459 14.040h-9.43c-1.139-3.897-5.602-6.702-10.731-6.702-0.186 0-0.341 0.155-0.341 0.341v16.62c0 0.008 0.008 0.015 0.008 0.023 0.008 0.178 0.147 0.318 0.325 0.325s0.356 0.008 0.527 0.008c4.788 0 9.058-2.727 10.189-6.539h9.453c1.123 0 2.038-0.914 2.038-2.038 0-1.116-0.914-2.038-2.038-2.038zM29.459 17.441h-9.716c-0.155 0-0.294 0.108-0.333 0.256-0.945 3.688-5.106 6.346-9.77 6.276v-15.946c4.788 0.124 8.879 2.789 9.794 6.439 0.039 0.155 0.178 0.256 0.333 0.256h9.693c0.752 0 1.356 0.612 1.356 1.356s-0.612 1.364-1.356 1.364z"></path>
</svg>
