<!-- Generated by IcoMoon.io -->
<svg version="1.1" xmlns="http://www.w3.org/2000/svg" width="32" height="32" viewBox="0 0 32 32">
<title>portal</title>
<path fill="#fff" d="M28.296 0.945h-24.593c-1.767 0-3.2 1.433-3.2 3.2v23.709c0 1.767 1.433 3.2 3.2 3.2h24.593c1.767 0 3.2-1.433 3.2-3.2v-23.709c0-1.767-1.433-3.2-3.2-3.2zM30.443 27.855c0 1.185-0.961 2.146-2.146 2.146h-24.593c-1.185 0-2.146-0.961-2.146-2.146v-23.709c0-1.185 0.961-2.146 2.146-2.146h24.593c1.185 0 2.146 0.961 2.146 2.146v23.709z"></path>
<path fill="#fff" d="M3.99 21.3h24.174c0.287 0 0.527-0.232 0.527-0.527v-13.738c0-0.287-0.232-0.527-0.527-0.527h-24.174c-0.287 0-0.527 0.232-0.527 0.527v13.745c0 0.287 0.232 0.519 0.527 0.519zM4.509 7.562h23.121v12.692h-23.121v-12.692z"></path>
<path fill="#fff" d="M15.21 22.501h-4.672c-0.287 0-0.527 0.232-0.527 0.527v4.378c0 0.287 0.232 0.527 0.527 0.527h4.672c0.287 0 0.527-0.232 0.527-0.527v-4.378c0-0.294-0.232-0.527-0.527-0.527zM14.691 26.878h-3.626v-3.332h3.626v3.332z"></path>
<path fill="#fff" d="M21.749 22.501h-4.672c-0.287 0-0.527 0.232-0.527 0.527v4.378c0 0.287 0.232 0.527 0.527 0.527h4.672c0.287 0 0.527-0.232 0.527-0.527v-4.378c0-0.294-0.232-0.527-0.527-0.527zM21.23 26.878h-3.626v-3.332h3.626v3.332z"></path>
<path fill="#fff" d="M28.289 22.501h-4.672c-0.287 0-0.527 0.232-0.527 0.527v4.378c0 0.287 0.232 0.527 0.527 0.527h4.672c0.287 0 0.527-0.232 0.527-0.527v-4.378c0-0.294-0.232-0.527-0.527-0.527zM27.77 26.878h-3.626v-3.332h3.626v3.332z"></path>
<path fill="#fff" d="M8.67 22.501h-4.672c-0.287 0-0.527 0.232-0.527 0.527v4.378c0 0.287 0.232 0.527 0.527 0.527h4.672c0.287 0 0.527-0.232 0.527-0.527v-4.378c0-0.294-0.232-0.527-0.527-0.527zM8.151 26.878h-3.626v-3.332h3.626v3.332z"></path>
</svg>
