<!-- Generated by IcoMoon.io -->
<svg version="1.1" xmlns="http://www.w3.org/2000/svg" width="32" height="32" viewBox="0 0 32 32">
<title>prediction</title>
<path fill="#fff" d="M29.001 5.927c-1.379 0-2.495 1.123-2.495 2.495 0 0.697 0.287 1.325 0.744 1.774l-7.833 11.537c-0.442-0.403-1.030-0.651-1.674-0.651-0.372 0-0.728 0.085-1.046 0.232l-3.587-5.548c0.48-0.457 0.79-1.1 0.79-1.813 0-1.379-1.123-2.495-2.495-2.495s-2.495 1.123-2.495 2.495c0 0.566 0.194 1.085 0.504 1.503l-4.998 5.447c-0.403-0.271-0.883-0.434-1.402-0.434-1.379 0-2.495 1.123-2.495 2.495 0 1.379 1.123 2.495 2.495 2.495s2.495-1.123 2.495-2.495c0-0.535-0.17-1.023-0.457-1.433l5.021-5.47c0.387 0.24 0.837 0.387 1.325 0.387 0.341 0 0.659-0.070 0.953-0.194l3.603 5.571c-0.442 0.449-0.713 1.061-0.713 1.743 0 1.379 1.123 2.495 2.495 2.495s2.495-1.123 2.495-2.495c0-0.387-0.093-0.752-0.248-1.085l8.004-11.785c0.31 0.139 0.651 0.217 1.007 0.217 1.379 0 2.495-1.123 2.495-2.495s-1.116-2.495-2.487-2.495zM2.999 24.562c-0.883 0-1.596-0.721-1.596-1.596 0-0.883 0.721-1.596 1.596-1.596s1.596 0.721 1.596 1.596c0 0.876-0.713 1.596-1.596 1.596zM9.794 13.954c0-0.883 0.721-1.596 1.596-1.596 0.883 0 1.596 0.721 1.596 1.596 0 0.883-0.721 1.596-1.596 1.596s-1.596-0.713-1.596-1.596zM17.743 25.174c-0.883 0-1.596-0.721-1.596-1.596s0.721-1.596 1.596-1.596c0.883 0 1.596 0.721 1.596 1.596s-0.721 1.596-1.596 1.596zM29.001 10.026c-0.883 0-1.596-0.721-1.596-1.596s0.721-1.596 1.596-1.596c0.883 0 1.596 0.721 1.596 1.596s-0.713 1.596-1.596 1.596z"></path>
</svg>
