<!-- Generated by IcoMoon.io -->
<svg version="1.1" xmlns="http://www.w3.org/2000/svg" width="32" height="32" viewBox="0 0 32 32">
<title>preferred</title>
<path fill="#fff" d="M7.438 30.636c-0.341 0-0.69-0.108-0.976-0.318-0.504-0.372-0.752-0.976-0.643-1.588 0-0.015 0.008-0.039 0.016-0.054l2.665-8.515c0.023-0.178-0.039-0.364-0.163-0.496l-7.291-5.532c-0.016-0.008-0.023-0.023-0.039-0.031-0.449-0.434-0.612-1.069-0.418-1.666s0.705-1.030 1.333-1.116c0.016 0 0.039-0.008 0.054-0.008l9.12-0.062c0.186-0.031 0.341-0.147 0.434-0.31l2.975-8.624c0.008-0.015 0.015-0.031 0.023-0.054 0.279-0.558 0.845-0.907 1.472-0.907s1.193 0.349 1.472 0.907c0.008 0.015 0.015 0.031 0.023 0.054l2.975 8.624c0.093 0.163 0.248 0.279 0.434 0.31l9.12 0.062c0.015 0 0.039 0 0.054 0.008 0.628 0.093 1.139 0.519 1.333 1.116s0.031 1.232-0.418 1.666c-0.015 0.008-0.023 0.023-0.039 0.031l-7.291 5.532c-0.132 0.132-0.186 0.318-0.163 0.496l2.665 8.515c0.008 0.015 0.008 0.039 0.015 0.054 0.108 0.612-0.139 1.216-0.643 1.588-0.511 0.372-1.178 0.426-1.743 0.132-0.015-0.008-0.031-0.015-0.039-0.023l-7.485-5.067c-0.17-0.085-0.372-0.085-0.542 0l-7.485 5.067c-0.015 0.008-0.031 0.015-0.039 0.023-0.24 0.124-0.504 0.186-0.767 0.186zM6.64 28.901c-0.039 0.287 0.077 0.566 0.318 0.744 0.248 0.186 0.566 0.209 0.837 0.077l7.485-5.067c0.015-0.008 0.031-0.015 0.039-0.023 0.426-0.217 0.93-0.217 1.356 0 0.015 0.008 0.031 0.015 0.039 0.023l7.485 5.067c0.279 0.132 0.589 0.108 0.837-0.077 0.24-0.178 0.356-0.449 0.318-0.744l-2.658-8.523c-0.008-0.015-0.008-0.039-0.015-0.054-0.085-0.473 0.077-0.953 0.418-1.286 0.015-0.008 0.023-0.023 0.039-0.031l7.291-5.532c0.209-0.209 0.279-0.504 0.186-0.79s-0.325-0.488-0.628-0.542l-9.12-0.054c-0.015 0-0.039 0-0.054-0.008-0.473-0.070-0.883-0.364-1.1-0.79-0.008-0.015-0.015-0.031-0.023-0.054l-2.975-8.616c-0.139-0.263-0.403-0.418-0.713-0.418s-0.573 0.155-0.713 0.418l-2.975 8.624c-0.008 0.015-0.015 0.031-0.023 0.054-0.209 0.426-0.628 0.721-1.1 0.79-0.015 0-0.039 0.008-0.054 0.008l-9.127 0.062c-0.302 0.054-0.535 0.256-0.628 0.542-0.093 0.279-0.023 0.573 0.186 0.79l7.291 5.532c0.015 0.008 0.023 0.023 0.039 0.031 0.349 0.333 0.504 0.814 0.418 1.286 0 0.015-0.008 0.039-0.015 0.054l-2.658 8.508z"></path>
</svg>
