<!-- Generated by IcoMoon.io -->
<svg version="1.1" xmlns="http://www.w3.org/2000/svg" width="32" height="32" viewBox="0 0 32 32">
<title>present</title>
<path fill="#fff" d="M29.947 6.315h-27.893c-0.752 0-1.364 0.612-1.364 1.364v3.983c0 0.752 0.612 1.364 1.364 1.364h0.38v16.356c0 1.162 0.945 2.108 2.107 2.108h22.911c1.162 0 2.108-0.945 2.108-2.108v-16.349h0.38c0.752 0 1.364-0.612 1.364-1.364v-3.99c0.008-0.752-0.604-1.364-1.356-1.364zM13.9 12.056v-4.765h4.556v4.765h-4.556zM18.456 13.032v17.488h-4.556v-17.488h4.556zM2.053 12.056c-0.217 0-0.395-0.178-0.395-0.395v-3.983c0-0.217 0.178-0.395 0.395-0.395h10.878v4.765l-10.878 0.008zM3.409 29.389v-16.356h9.515v17.488h-8.384c-0.62 0-1.131-0.504-1.131-1.131zM28.591 29.389c0 0.628-0.511 1.131-1.131 1.131h-8.027v-17.488h9.158v16.356zM30.342 11.661c0 0.217-0.178 0.395-0.395 0.395h-10.514v-4.765h10.514c0.217 0 0.395 0.178 0.395 0.395v3.975z"></path>
<path fill="#fff" d="M10.538 5.029h11.328c1.255 0 2.278-1.023 2.278-2.293 0-0.628-0.248-1.216-0.705-1.65-0.728-0.697-1.898-0.775-2.774-0.186l-4.571 3.053-4.308-2.991c-0.511-0.356-1.154-0.488-1.767-0.38-0.573 0.108-1.069 0.434-1.379 0.907-0.248 0.372-0.38 0.806-0.38 1.263 0 1.255 1.023 2.278 2.278 2.278zM21.207 1.712c0.504-0.333 1.162-0.302 1.557 0.077 0.263 0.248 0.403 0.581 0.403 0.961 0 0.721-0.581 1.302-1.302 1.302h-4.169l3.51-2.34zM9.453 2.022c0.17-0.256 0.434-0.426 0.752-0.488 0.085-0.016 0.163-0.023 0.248-0.023 0.279 0 0.55 0.085 0.783 0.248l3.301 2.293h-3.998c-0.721 0-1.302-0.581-1.302-1.302 0-0.263 0.070-0.511 0.217-0.728z"></path>
</svg>
