<!-- Generated by IcoMoon.io -->
<svg version="1.1" xmlns="http://www.w3.org/2000/svg" width="32" height="32" viewBox="0 0 32 32">
<title>price-benchmark</title>
<path fill="#fff" d="M31.101 28.924h-27.095c-0.759 0-1.348-0.209-1.751-0.62-0.666-0.69-0.651-1.751-0.651-1.774v-23.469c0-0.279-0.225-0.496-0.496-0.496s-0.496 0.225-0.496 0.496v23.454c0 0.062-0.039 1.48 0.922 2.479 0.597 0.62 1.433 0.93 2.472 0.93h27.095c0.279 0 0.496-0.225 0.496-0.496 0-0.279-0.225-0.504-0.496-0.504z"></path>
<path fill="#fff" d="M7.919 25.701c0.907 0 1.643-0.736 1.643-1.643 0-0.271-0.070-0.527-0.186-0.752l6.261-6.261c0.225 0.116 0.48 0.186 0.752 0.186s0.527-0.070 0.752-0.194l3.82 3.797c-0.116 0.225-0.186 0.473-0.186 0.744 0 0.907 0.736 1.643 1.643 1.643s1.643-0.736 1.643-1.643c0-0.511-0.24-0.961-0.604-1.263l5.904-14.908c0.039 0 0.070 0.008 0.108 0.008 0.907 0 1.643-0.736 1.643-1.643s-0.736-1.643-1.643-1.643-1.65 0.744-1.65 1.65c0 0.511 0.24 0.961 0.604 1.263l-5.904 14.907c-0.039 0-0.070-0.008-0.108-0.008-0.271 0-0.527 0.070-0.752 0.194l-3.82-3.797c0.116-0.225 0.186-0.473 0.186-0.744 0-0.907-0.736-1.643-1.643-1.643s-1.643 0.736-1.643 1.643c0 0.271 0.070 0.527 0.186 0.752l-6.261 6.261c-0.225-0.116-0.48-0.186-0.752-0.186-0.907 0-1.643 0.736-1.643 1.643s0.736 1.635 1.65 1.635z"></path>
</svg>
