<!-- Generated by IcoMoon.io -->
<svg version="1.1" xmlns="http://www.w3.org/2000/svg" width="32" height="32" viewBox="0 0 32 32">
<title>price-tag-01</title>
<path fill="#fff" d="M29.598 21.106l-1.48-1.333v-11.018c0-1.511-0.845-4.37-4.037-4.37-2.092 0-3.076 1.209-3.541 2.216-0.488 1.062-0.488 2.107-0.488 2.154v3.75l-2.139-1.922v-8.112c0-0.527-0.194-1.015-0.55-1.387-0.364-0.372-0.845-0.581-1.364-0.581-0.504 0-0.976 0.194-1.333 0.558-0.372 0.372-0.581 0.876-0.581 1.41v8.112l-11.684 10.522c-0.426 0.38-0.666 0.891-0.666 1.441s0.232 1.061 0.659 1.449c0.116 0.108 0.294 0.132 0.434 0.062l11.258-5.625v7.919c-3.030 2.673-3.030 2.673-3.045 2.689-0.457 0.504-0.504 1.224-0.101 1.798 0.418 0.604 1.178 0.829 1.836 0.558l3.223-1.34 3.223 1.34c0.186 0.077 0.38 0.116 0.573 0.116 0.488 0 0.961-0.24 1.263-0.674 0.403-0.573 0.356-1.294-0.101-1.79-0.023-0.023-0.023-0.023-3.045-2.696v-7.919l2.139 1.069v1.325c0 0.217 0.17 0.387 0.387 0.387h3.037l5.695 2.851c0.139 0.070 0.318 0.047 0.434-0.062 0.426-0.387 0.659-0.899 0.659-1.449 0-0.558-0.24-1.069-0.666-1.449zM17.697 17.449c-0.116-0.062-0.263-0.054-0.38 0.015s-0.186 0.194-0.186 0.333v8.717c0 0.108 0.047 0.217 0.132 0.294 0 0 3.068 2.704 3.123 2.751 0.325 0.349 0.108 0.721 0.039 0.821-0.178 0.256-0.527 0.442-0.907 0.287l-3.37-1.402c-0.047-0.023-0.101-0.031-0.147-0.031-0.054 0-0.101 0.008-0.147 0.031l-3.37 1.402c-0.38 0.155-0.728-0.031-0.907-0.287-0.070-0.101-0.287-0.473 0.015-0.798 0.077-0.070 3.146-2.774 3.146-2.774 0.085-0.077 0.132-0.178 0.132-0.294v-8.717c0-0.132-0.070-0.256-0.186-0.333-0.116-0.070-0.256-0.077-0.38-0.015l-11.56 5.78c-0.147-0.201-0.232-0.434-0.232-0.682 0-0.325 0.147-0.628 0.403-0.868l11.816-10.63c0.085-0.070 0.132-0.178 0.132-0.287v-8.291c0-0.325 0.124-0.635 0.349-0.86 0.426-0.426 1.162-0.426 1.588 0.016 0.217 0.225 0.333 0.527 0.333 0.852v8.283c0 0.108 0.047 0.217 0.132 0.287l2.782 2.51v5.067l-2.348-1.178zM20.827 8.755c0-0.008 0.008-0.922 0.418-1.829 0.535-1.17 1.488-1.767 2.836-1.767 3.208 0 3.254 3.448 3.254 3.595v11.669h-6.516v-11.669h0.008zM29.257 23.229l-4.045-2.022h2.518c0.217 0 0.387-0.17 0.387-0.387l0.961 0.868c0.263 0.232 0.403 0.542 0.403 0.86 0.008 0.248-0.077 0.48-0.225 0.682z"></path>
<path fill="#fff" d="M24.089 9.259c0.829 0 1.511-0.674 1.511-1.511s-0.674-1.511-1.511-1.511-1.511 0.674-1.511 1.511 0.674 1.511 1.511 1.511zM24.089 7.012c0.403 0 0.736 0.325 0.736 0.736s-0.325 0.736-0.736 0.736-0.736-0.325-0.736-0.736 0.325-0.736 0.736-0.736z"></path>
<path fill="#fff" d="M26.266 17.666c-0.015-0.070-0.062-0.139-0.194-0.116-0.457 0.062-1.023 0.139-1.619 0.139-1.178 0-1.55-0.829-1.65-1.852h2.642c0.070 0 0.085-0.031 0.085-0.077v-0.31c0-0.085-0.031-0.116-0.108-0.116h-3.921c-0.077 0-0.108 0.046-0.108 0.085v0.333c0 0.077 0.039 0.101 0.101 0.101l0.511-0.008c0.116 1.402 0.682 2.565 2.448 2.565 0.38 0 1.286-0.070 1.759-0.263 0.124-0.047 0.124-0.116 0.108-0.217l-0.054-0.263z"></path>
<path fill="#fff" d="M26.197 12.033c-0.519-0.201-1.364-0.256-1.751-0.256-1.774 0-2.324 1.193-2.448 2.603h-0.496c-0.077 0-0.108 0.039-0.108 0.085v0.333c0 0.077 0.039 0.085 0.101 0.085h3.952c0.070 0 0.085-0.039 0.085-0.085v-0.31c0-0.085-0.023-0.108-0.101-0.108h-2.642c0.085-1.062 0.426-1.891 1.658-1.891 0.573 0 1.201 0.077 1.627 0.139 0.124 0.023 0.163-0.039 0.186-0.108l0.062-0.271c0.023-0.093 0.015-0.155-0.124-0.217z"></path>
</svg>
