<!-- Generated by IcoMoon.io -->
<svg version="1.1" xmlns="http://www.w3.org/2000/svg" width="32" height="32" viewBox="0 0 32 32">
<title>price-tag-02</title>
<path fill="#fff" d="M16 0.504c-3.758 0-5.54 2.17-6.369 3.983-0.883 1.929-0.891 3.835-0.891 3.913v22.687c0 0.225 0.186 0.411 0.411 0.411h13.714c0.225 0 0.411-0.186 0.411-0.411v-22.679c-0.008-0.085-0.093-7.903-7.276-7.903zM22.447 30.683h-12.893v-22.276c0-0.015 0.015-1.829 0.829-3.595 1.069-2.309 2.96-3.487 5.617-3.487s4.548 1.17 5.617 3.487c0.821 1.774 0.829 3.58 0.829 3.595v22.276z"></path>
<path fill="#fff" d="M16 9.019c1.387 0 2.518-1.131 2.518-2.518s-1.131-2.518-2.518-2.518-2.518 1.131-2.518 2.518 1.131 2.518 2.518 2.518zM16 4.804c0.938 0 1.705 0.767 1.705 1.705s-0.767 1.705-1.705 1.705-1.705-0.767-1.705-1.705 0.767-1.705 1.705-1.705z"></path>
<path fill="#fff" d="M20.184 25.158c-0.039-0.132-0.108-0.256-0.364-0.217-0.86 0.108-1.929 0.256-3.045 0.256-2.224 0-2.921-1.557-3.107-3.487h4.974c0.132 0 0.163-0.054 0.163-0.147v-0.589c0-0.163-0.054-0.217-0.201-0.217h-7.384c-0.147 0-0.201 0.093-0.201 0.163v0.628c0 0.147 0.070 0.186 0.186 0.186l0.953-0.015c0.217 2.642 1.286 4.827 4.61 4.827 0.713 0 2.425-0.132 3.308-0.496 0.24-0.093 0.24-0.217 0.201-0.403l-0.093-0.488z"></path>
<path fill="#fff" d="M20.060 14.567c-0.976-0.387-2.572-0.48-3.285-0.48-3.339 0-4.37 2.239-4.61 4.905h-0.938c-0.147 0-0.201 0.070-0.201 0.163v0.628c0 0.147 0.070 0.163 0.186 0.163h7.438c0.132 0 0.163-0.070 0.163-0.163v-0.589c0-0.163-0.039-0.201-0.186-0.201h-4.974c0.163-1.999 0.806-3.564 3.123-3.564 1.085 0 2.262 0.147 3.068 0.256 0.24 0.039 0.31-0.070 0.349-0.201l0.108-0.511c0.031-0.163 0.015-0.294-0.24-0.403z"></path>
</svg>
