<!-- Generated by IcoMoon.io -->
<svg version="1.1" xmlns="http://www.w3.org/2000/svg" width="32" height="32" viewBox="0 0 32 32">
<title>print</title>
<path fill="#fff" d="M30.598 15.241l-2.983-5.137c-0.085-0.139-0.232-0.232-0.403-0.232h-3.363v-7.059c0-0.256-0.209-0.465-0.465-0.465h-15.039c-0.256 0-0.465 0.209-0.465 0.465v7.059h-3.208c-0.17 0-0.325 0.093-0.403 0.24l-2.898 5.191c-0.55 0.984-0.837 2.092-0.845 3.215l-0.023 8.686c0 0.124 0.046 0.24 0.132 0.325s0.209 0.139 0.325 0.139h2.952l-0.643 1.309c-0.070 0.147-0.062 0.318 0.023 0.449 0.085 0.139 0.232 0.217 0.395 0.217h24.453c0.163 0 0.31-0.085 0.395-0.217s0.093-0.302 0.023-0.449l-0.628-1.317h3.099c0.256 0 0.465-0.209 0.465-0.465l0.008-8.616c-0.008-1.17-0.318-2.324-0.907-3.339zM8.81 3.277h14.117v8.508h-14.117v-8.508zM5.106 24.872v-2.82h1.604l-1.402 2.82h-0.201zM4.432 28.723l3.316-6.671h16.48l1.581 3.324c0.008 0.116 0.062 0.225 0.139 0.294l1.449 3.053h-22.966zM26.716 24.872h-0.124l-1.34-2.82h1.464v2.82zM30.567 26.739h-3.076l-0.449-0.945h0.147c0.256 0 0.465-0.209 0.465-0.465v-3.75c0-0.256-0.209-0.465-0.465-0.465h-22.547c-0.256 0-0.465 0.209-0.465 0.465v3.758c0 0.256 0.209 0.465 0.465 0.465h0.209l-0.465 0.945h-2.952l0.023-8.229c0-0.969 0.256-1.922 0.721-2.766l2.766-4.959h2.937v0.992h-1.426c-0.256 0-0.465 0.209-0.465 0.465s0.209 0.465 0.465 0.465h1.891c0.008 0 0.015-0.008 0.023-0.008h14.993c0.008 0 0.015 0.008 0.023 0.008h1.883c0.256 0 0.465-0.209 0.465-0.465s-0.209-0.465-0.465-0.465h-1.418v-0.992h3.092l2.851 4.905c0.511 0.876 0.775 1.867 0.775 2.875v8.167z"></path>
<path fill="#fff" d="M8.531 15.512h-3.882c-0.256 0-0.465 0.209-0.465 0.465v1.86c0 0.256 0.209 0.465 0.465 0.465h3.882c0.256 0 0.465-0.209 0.465-0.465v-1.86c0-0.256-0.209-0.465-0.465-0.465zM8.066 17.371h-2.952v-0.938h2.952v0.938z"></path>
<path fill="#fff" d="M15.489 16.465h-5.168c-0.256 0-0.465 0.209-0.465 0.465s0.209 0.465 0.465 0.465h5.168c0.256 0 0.465-0.209 0.465-0.465s-0.209-0.465-0.465-0.465z"></path>
<path fill="#fff" d="M9.321 23.965h13.211c0.256 0 0.465-0.209 0.465-0.465s-0.209-0.465-0.465-0.465h-13.211c-0.256 0-0.465 0.209-0.465 0.465s0.209 0.465 0.465 0.465z"></path>
<path fill="#fff" d="M8.36 25.825h14.915c0.256 0 0.465-0.209 0.465-0.465s-0.209-0.465-0.465-0.465h-14.915c-0.256 0-0.465 0.209-0.465 0.465 0.008 0.256 0.209 0.465 0.465 0.465z"></path>
<path fill="#fff" d="M24.314 26.785h-16.852c-0.256 0-0.465 0.209-0.465 0.465s0.209 0.465 0.465 0.465h16.852c0.256 0 0.465-0.209 0.465-0.465 0-0.263-0.209-0.465-0.465-0.465z"></path>
</svg>
