<!-- Generated by IcoMoon.io -->
<svg version="1.1" xmlns="http://www.w3.org/2000/svg" width="32" height="32" viewBox="0 0 32 32">
<title>private-jet</title>
<path fill="#fff" d="M31.473 10.452c-0.093-0.372-0.395-0.612-0.744-0.597l-4.726 0.209c-0.263 0.015-0.527-0.031-0.775-0.116l-0.891-0.318c-0.868-0.31-1.782-0.318-2.642-0.031l-11.785 3.936c-0.504 0.17-1.046 0.124-1.526-0.132l-2.735-1.433c-0.721-0.38-1.542-0.449-2.301-0.194l-0.899 0.302c-0.194 0.062-0.341 0.225-0.395 0.434-0.054 0.225 0 0.457 0.147 0.62l0.449 0.496c-0.403 0.186-2.386 1.154-2.115 1.867 0.031 0.077 0.093 0.178 0.248 0.24 0.093 0.039 0.217 0.054 0.356 0.054 0.581 0 1.488-0.31 2.185-0.628 0.062-0.031 0.263-0.116 0.511-0.248l1.193 1.309-0.883 0.318c-0.062 0.023-0.108 0.070-0.139 0.124-0.031 0.062-0.031 0.124-0.008 0.186l0.86 2.379c0.039 0.101 0.132 0.163 0.232 0.163 0.031 0 0.054-0.008 0.085-0.015l2.053-0.744 0.108 0.116c0.364 0.403 0.852 0.62 1.348 0.62 0.186 0 0.364-0.031 0.55-0.093l4.122-1.379-1 3.704c-0.077 0.294 0.008 0.612 0.225 0.814 0.139 0.132 0.302 0.194 0.48 0.194 0.070 0 0.147-0.015 0.217-0.039l1.991-0.666c0.473-0.155 0.868-0.504 1.116-0.984l2.526-4.881 7.361-2.456c0.077-0.023 0.155-0.054 0.232-0.093l4.556-2.115c0.333-0.155 0.504-0.535 0.411-0.922zM3.115 14.714c-1.116 0.504-1.867 0.62-2.1 0.581 0.124-0.217 0.775-0.752 1.883-1.255 1.116-0.504 1.867-0.62 2.1-0.581-0.124 0.225-0.775 0.752-1.883 1.255zM4.533 16.914l0.992-0.356h0.008l2.239-0.806c0.558-0.201 1.116 0.101 1.309 0.612 0.194 0.527-0.085 1.116-0.612 1.309l-1.255 0.449c0 0 0 0-0.008 0l-1.976 0.705-0.697-1.914zM30.853 10.933l-4.556 2.115c-0.062 0.031-0.124 0.054-0.186 0.070l-6.888 2.301 0.457-0.891c0.062-0.116 0.015-0.263-0.101-0.325s-0.263-0.015-0.325 0.101l-3.308 6.392c-0.186 0.364-0.48 0.628-0.837 0.744l-1.991 0.666c-0.101 0.031-0.17-0.015-0.209-0.054-0.062-0.062-0.124-0.186-0.085-0.333l1.464-5.431c0.039-0.132-0.039-0.263-0.17-0.302s-0.263 0.039-0.302 0.17l-0.318 1.17-4.432 1.48c-0.473 0.155-0.984 0.015-1.348-0.364l0.907-0.325c0.783-0.279 1.193-1.147 0.907-1.929-0.279-0.759-1.123-1.193-1.929-0.907l-2.092 0.752-1.247-1.364c0.659-0.395 1.395-0.945 1.224-1.395-0.031-0.077-0.093-0.178-0.248-0.24-0.418-0.17-1.325 0.070-2.115 0.387l-0.566-0.62c-0.046-0.054-0.046-0.116-0.039-0.17 0.008-0.023 0.023-0.077 0.077-0.093l0.891-0.294c0.635-0.209 1.317-0.155 1.922 0.163l2.735 1.433c0.597 0.31 1.278 0.372 1.906 0.163l11.785-3.936c0.759-0.256 1.565-0.24 2.324 0.023l0.891 0.318c0.31 0.108 0.635 0.155 0.961 0.147l4.726-0.209c0.186-0.008 0.24 0.17 0.248 0.225 0.039 0.101 0.031 0.287-0.132 0.364z"></path>
</svg>
