<!-- Generated by IcoMoon.io -->
<svg version="1.1" xmlns="http://www.w3.org/2000/svg" width="32" height="32" viewBox="0 0 32 32">
<title>privacy</title>
<path fill="#fff" d="M31.403 16.527c-2.82-3.092-5.548-5.168-8.128-6.493l5.393-5.385c0.139-0.139 0.139-0.364 0-0.504s-0.364-0.139-0.504 0l-5.563 5.563c-2.394-1.116-4.664-1.581-6.764-1.604-0.070 0-0.147-0.008-0.217-0.008-0.008 0-0.015 0-0.015 0-4.874 0.031-8.833 2.441-11.421 4.618-1.247 1.054-2.154 2.038-2.696 2.673-1.147 1.364-1.038 1.495-0.899 1.681 1.007 1.294 2.076 2.456 3.177 3.44 0.147 0.132 0.372 0.116 0.496-0.031 0.132-0.147 0.116-0.372-0.031-0.496-1.023-0.914-2.015-1.984-2.952-3.169 0.721-1.131 5.4-6.725 12.157-7.787 1.038-0.163 2.069-0.209 3.107-0.147 1.782 0.225 3.378 1.077 4.564 2.34l-2.851 2.851c-0.604-0.488-1.371-0.79-2.2-0.79-1.922 0-3.494 1.565-3.494 3.494 0 0.837 0.294 1.604 0.79 2.2l-8.384 8.376c-0.139 0.139-0.139 0.364 0 0.504 0.070 0.070 0.163 0.101 0.248 0.101s0.178-0.031 0.248-0.101l8.384-8.384c0.604 0.488 1.371 0.79 2.2 0.79 1.922 0 3.494-1.565 3.494-3.494 0-0.837-0.294-1.604-0.79-2.2l2.813-2.813c1.046 1.34 1.674 3.045 1.674 4.889 0 3.293-2.076 6.23-5.168 7.314-0.17 0.062-0.263 0.24-0.225 0.418-0.023 0.062-0.039 0.124-0.031 0.194 0.031 0.17 0.178 0.294 0.349 0.294 0.023 0 0.039 0 0.062-0.008 6.268-1.093 11.584-5.354 13.211-7.895 0.093-0.139 0.077-0.31-0.031-0.434zM13.265 16.767c0-1.534 1.247-2.782 2.782-2.782 0.643 0 1.232 0.217 1.697 0.581l-3.897 3.897c-0.364-0.465-0.581-1.054-0.581-1.697zM18.836 16.767c0 1.534-1.247 2.782-2.782 2.782-0.643 0-1.232-0.217-1.697-0.581l3.897-3.897c0.356 0.465 0.581 1.054 0.581 1.697zM20.3 9.577c0.589 0.186 1.178 0.411 1.759 0.674l-0.457 0.457c-0.395-0.418-0.829-0.798-1.302-1.131zM20.215 23.655c2.293-1.542 3.735-4.161 3.735-7.020 0-2.046-0.705-3.921-1.875-5.393l0.674-0.674c2.681 1.325 5.331 3.401 7.95 6.23-1.511 2.154-5.548 5.4-10.483 6.857z"></path>
</svg>
