<!-- Generated by IcoMoon.io -->
<svg version="1.1" xmlns="http://www.w3.org/2000/svg" width="32" height="32" viewBox="0 0 32 32">
<title>prize</title>
<path fill="#fff" d="M28.413 3.223c-0.271-0.55-0.821-0.891-1.433-0.891h-2.627v-0.535c0-0.132-0.023-0.573-0.201-0.806-0.248-0.318-0.643-0.496-1.116-0.496h-14.071c-0.473 0-0.868 0.178-1.116 0.496-0.178 0.232-0.201 0.674-0.201 0.806v0.527h-2.627c-0.612 0-1.162 0.341-1.433 0.891s-0.209 1.193 0.163 1.681l3.905 5.114v2.813c0.054 2.565 2.448 4.44 4.192 5.803 0.527 0.442 1.131 0.938 1.193 1 0.147 0.147 0.225 0.248 0.248 0.302 0.294 0.845 1.054 3.2 1.054 4.029 0 1.356-2.665 2.177-3.355 2.177-0.457 0-0.845 0.155-1.123 0.442-0.48 0.496-0.48 1.232-0.473 1.364v1.743c0 0.697 0.403 1.34 1.038 1.635 0.24 0.108 0.488 0.17 0.744 0.17h9.685c0.256 0 0.504-0.054 0.744-0.17 0.628-0.294 1.038-0.938 1.038-1.635v-1.728c0.008-0.139 0.008-0.876-0.473-1.379-0.279-0.287-0.666-0.442-1.123-0.442-0.697 0-3.355-0.821-3.355-2.177 0-0.821 0.759-3.184 1.038-3.998 0.039-0.085 0.116-0.186 0.256-0.325 0.070-0.062 0.674-0.566 1.193-1 1.751-1.371 4.145-3.247 4.2-5.819v-2.805l3.905-5.114c0.341-0.473 0.403-1.116 0.132-1.674zM4.447 4.378c-0.17-0.225-0.201-0.511-0.077-0.767s0.372-0.403 0.651-0.403h2.627v5.369l-3.2-4.2zM23.469 12.816c-0.047 2.154-2.255 3.882-3.874 5.153-0.434 0.356-1.17 0.969-1.263 1.061-0.225 0.232-0.356 0.403-0.449 0.628-0.116 0.325-1.1 3.192-1.1 4.316 0 2.1 3.247 3.053 4.23 3.053 0.217 0 0.38 0.054 0.496 0.17 0.194 0.201 0.232 0.573 0.225 0.759v1.743c0 0.364-0.209 0.69-0.535 0.845-0.116 0.054-0.24 0.085-0.372 0.085h-9.67c-0.124 0-0.248-0.031-0.372-0.085-0.325-0.155-0.535-0.48-0.535-0.845v-1.759c-0.008-0.163 0.031-0.535 0.225-0.736 0.108-0.116 0.271-0.17 0.496-0.17 0.984 0 4.231-0.953 4.231-3.053 0-1.116-0.984-3.99-1.108-4.347-0.085-0.194-0.209-0.364-0.442-0.597-0.085-0.085-0.821-0.697-1.263-1.061-1.612-1.263-3.82-2.991-3.866-5.129v-11.010c0-0.116 0.023-0.24 0.039-0.302 0.085-0.085 0.225-0.132 0.403-0.132h14.063c0.178 0 0.318 0.046 0.403 0.132 0.015 0.054 0.039 0.186 0.039 0.294v10.987zM27.553 4.378l-3.208 4.2v-5.37h2.627c0.287 0 0.527 0.155 0.651 0.403 0.132 0.256 0.101 0.542-0.070 0.767z"></path>
</svg>
