<!-- Generated by IcoMoon.io -->
<svg version="1.1" xmlns="http://www.w3.org/2000/svg" width="32" height="32" viewBox="0 0 32 32">
<title>prize-02</title>
<path fill="#fff" d="M28.769 4.959l-5.37-4.362c-0.008-0.008-0.023-0.008-0.039-0.015-0.031-0.023-0.062-0.039-0.101-0.046-0.023-0.008-0.047-0.008-0.062-0.015-0.023 0-0.039-0.015-0.062-0.015h-14.272c-0.023 0-0.039 0.008-0.062 0.015-0.023 0-0.039 0.008-0.054 0.008-0.046 0.015-0.085 0.031-0.124 0.062-0.008 0.008-0.015 0.008-0.023 0.008l-0.031 0.023-0.008 0.008-5.331 4.331c-0.163 0.132-0.201 0.356-0.101 0.535l5.648 10.266c-1.449 1.674-2.332 3.851-2.332 6.23 0 5.246 4.269 9.515 9.515 9.515s9.515-4.269 9.515-9.515c0-2.355-0.86-4.509-2.278-6.168l5.679-10.321c0.093-0.194 0.054-0.418-0.108-0.542zM15.961 12.459c-0.085 0-0.178 0.008-0.263 0.008l-2.115-3.843h4.835l-2.115 3.843c-0.116 0-0.225-0.008-0.341-0.008zM18.882 7.779h-5.765l-3.533-6.423h12.839l-3.541 6.423zM8.74 1.573l6.028 10.964c-2.076 0.263-3.952 1.193-5.385 2.572l-5.346-9.716 4.703-3.82zM15.961 30.652c-4.781 0-8.678-3.89-8.678-8.67s3.897-8.678 8.678-8.678 8.67 3.89 8.67 8.67-3.89 8.678-8.67 8.678zM22.586 15.155c-1.433-1.387-3.293-2.332-5.362-2.611l6.036-10.971 4.703 3.812-5.377 9.77z"></path>
<path fill="#fff" d="M15.961 15.38c-3.642 0-6.601 2.96-6.601 6.601s2.96 6.601 6.601 6.601 6.601-2.96 6.601-6.601-2.968-6.601-6.601-6.601zM15.961 27.731c-3.177 0-5.757-2.58-5.757-5.757s2.58-5.757 5.757-5.757 5.757 2.58 5.757 5.757-2.588 5.757-5.757 5.757z"></path>
<path fill="#fff" d="M17.565 24.616h-0.961v-5.385c0-0.279-0.209-0.488-0.48-0.488h-0.232c-0.062 0-0.178 0-0.287 0.031l-1.069 0.256c-0.225 0.054-0.364 0.24-0.364 0.473v0.085c0 0.263 0.209 0.473 0.48 0.473h0.767v4.564h-0.992c-0.279 0-0.48 0.201-0.48 0.473v0.217c0 0.263 0.209 0.473 0.48 0.473h3.13c0.271 0 0.48-0.201 0.48-0.473v-0.217c0.008-0.287-0.194-0.48-0.473-0.48z"></path>
</svg>
