<!-- Generated by IcoMoon.io -->
<svg version="1.1" xmlns="http://www.w3.org/2000/svg" width="32" height="32" viewBox="0 0 32 32">
<title>process</title>
<path fill="#fff" d="M22.416 16.17c0.17-0.101 0.24-0.302 0.17-0.488l-0.473-1.232c-0.070-0.186-0.263-0.287-0.457-0.248l-0.759 0.163c-0.24 0.046-0.426 0.085-0.55 0.108-0.015-0.015-0.023-0.031-0.039-0.046-0.108-0.132-0.294-0.325-0.418-0.442-0.008-0.008-0.023-0.015-0.031-0.023 0.031-0.132 0.077-0.325 0.132-0.535 0.093-0.356 0.17-0.69 0.178-0.728 0.077-0.387-0.132-0.48-0.814-0.783l-0.604-0.271c-0.178-0.077-0.395-0.015-0.496 0.147l-0.403 0.628c-0.124 0.194-0.248 0.38-0.325 0.496-0.008 0-0.008 0-0.015 0-0.155-0.023-0.434-0.031-0.628-0.023h-0.077l-0.682-1.147c-0.101-0.17-0.302-0.24-0.488-0.17l-1.232 0.473c-0.178 0.070-0.287 0.263-0.248 0.449l0.256 1.309-0.101 0.093c-0.139 0.116-0.325 0.294-0.426 0.403-0.38-0.093-1.116-0.279-1.185-0.302-0.387-0.163-0.519 0.139-0.814 0.806-0.31 0.69-0.395 0.899-0.085 1.131 0.031 0.023 0.31 0.217 0.62 0.418 0.163 0.108 0.31 0.209 0.418 0.279-0.015 0.163-0.023 0.426-0.015 0.604 0 0.047 0 0.093 0 0.132-0.124 0.070-0.302 0.178-0.504 0.294l-0.643 0.38c-0.17 0.101-0.24 0.31-0.17 0.488l0.473 1.232c0.070 0.178 0.263 0.287 0.449 0.248l0.767-0.147c0.225-0.047 0.418-0.077 0.55-0.101l0.008 0.008c0.093 0.116 0.271 0.31 0.418 0.442 0.023 0.023 0.046 0.047 0.070 0.062-0.093 0.364-0.271 1.085-0.31 1.216-0.147 0.372 0.178 0.511 0.806 0.798 0.659 0.294 0.876 0.387 1.108 0.116 0.015-0.015 0.054-0.062 0.434-0.628 0.116-0.178 0.232-0.341 0.302-0.457 0.147 0.015 0.403 0.023 0.597 0.015 0.047 0 0.085 0 0.124 0 0.070 0.108 0.17 0.279 0.294 0.488l0.395 0.666c0.077 0.124 0.209 0.194 0.341 0.194 0.047 0 0.101-0.008 0.147-0.031l1.24-0.48c0.186-0.070 0.287-0.263 0.248-0.457l-0.163-0.759c-0.047-0.232-0.085-0.418-0.108-0.55 0.008-0.008 0.023-0.015 0.031-0.023 0.124-0.101 0.318-0.287 0.434-0.411 0.015-0.015 0.031-0.031 0.047-0.047 0.116 0.031 0.294 0.070 0.504 0.124 0.38 0.101 0.721 0.186 0.759 0.194 0.387 0.077 0.473-0.132 0.783-0.814l0.263-0.597c0.077-0.178 0.015-0.395-0.147-0.496l-0.62-0.403c-0.201-0.132-0.387-0.256-0.504-0.333 0-0.015 0-0.023 0-0.039 0.015-0.17 0.023-0.434 0.015-0.604 0-0.023 0-0.047 0-0.070 0.116-0.070 0.279-0.178 0.488-0.302l0.666-0.418zM21.338 15.876c-0.775 0.465-0.783 0.48-0.837 0.612-0.031 0.062-0.054 0.116-0.031 0.48 0.008 0.132 0 0.356-0.015 0.488-0.023 0.248-0.031 0.496 0.163 0.659 0.015 0.015 0.054 0.047 0.705 0.465l0.333 0.217-0.124 0.287c-0.054 0.116-0.093 0.217-0.132 0.294-0.132-0.031-0.302-0.077-0.48-0.124-0.728-0.186-0.783-0.186-0.837-0.178-0.139 0.008-0.256 0.062-0.511 0.349-0.093 0.101-0.248 0.256-0.341 0.325-0.248 0.201-0.287 0.256-0.325 0.333-0.062 0.132-0.062 0.147 0.124 1.030l0.093 0.426-0.604 0.232-0.225-0.372c-0.465-0.775-0.48-0.783-0.604-0.837-0.054-0.023-0.093-0.039-0.294-0.039-0.062 0-0.139 0-0.24 0.008-0.17 0.008-0.395 0-0.488-0.015-0.155-0.023-0.457-0.054-0.635 0.186-0.023 0.031-0.209 0.31-0.418 0.62-0.093 0.132-0.178 0.256-0.24 0.356-0.101-0.047-0.217-0.093-0.31-0.139-0.108-0.047-0.194-0.085-0.271-0.124 0.147-0.473 0.364-1.278 0.24-1.472-0.031-0.062-0.039-0.062-0.318-0.325-0.124-0.116-0.279-0.279-0.333-0.349-0.186-0.24-0.24-0.271-0.31-0.31-0.132-0.062-0.139-0.062-1.030 0.108l-0.434 0.085-0.232-0.604 0.349-0.201c0.108-0.062 0.651-0.38 0.705-0.418 0.178-0.124 0.209-0.325 0.194-0.721-0.008-0.186 0.008-0.418 0.015-0.504 0.039-0.294-0.008-0.48-0.147-0.604-0.046-0.039-0.411-0.287-0.62-0.426-0.139-0.093-0.279-0.186-0.387-0.256 0.039-0.085 0.085-0.186 0.132-0.302 0.046-0.108 0.085-0.194 0.124-0.271 0.48 0.147 1.294 0.364 1.503 0.225 0.046-0.031 0.062-0.046 0.217-0.232 0.054-0.062 0.217-0.225 0.364-0.349l0.279-0.24c0.108-0.093 0.163-0.24 0.132-0.38l-0.232-1.201 0.604-0.232 0.628 1.062c0.077 0.124 0.209 0.201 0.356 0.194l0.31-0.008c0.155-0.008 0.387 0 0.504 0.015 0.279 0.031 0.496 0.023 0.635-0.147 0.015-0.015 0.047-0.062 0.465-0.705l0.217-0.333 0.287 0.132c0.116 0.054 0.217 0.101 0.302 0.132-0.031 0.124-0.070 0.287-0.116 0.449-0.093 0.364-0.17 0.69-0.178 0.721-0.054 0.287 0.155 0.48 0.318 0.628 0.101 0.085 0.256 0.256 0.341 0.356 0.217 0.271 0.263 0.302 0.341 0.333 0.132 0.062 0.139 0.062 1.030-0.124l0.426-0.093 0.232 0.597-0.364 0.232z"></path>
<path fill="#fff" d="M17.953 15.078c-0.263-0.116-0.418-0.17-0.666-0.194-0.744-0.062-1.41 0.194-1.914 0.736-0.271 0.294-0.511 0.821-0.55 1.224-0.085 0.86 0.271 1.643 0.984 2.131 0.232 0.163 0.705 0.333 1.007 0.356 0.070 0.008 0.139 0.008 0.217 0.008 0.883 0 1.72-0.519 2.076-1.325 0.31-0.69 0.209-1.627-0.232-2.224-0.279-0.349-0.504-0.527-0.922-0.713zM18.363 17.697c-0.248 0.558-0.86 0.899-1.48 0.845v0c-0.163-0.015-0.504-0.132-0.628-0.217-0.473-0.325-0.697-0.821-0.643-1.395 0.023-0.232 0.186-0.597 0.341-0.759 0.302-0.325 0.674-0.488 1.108-0.488 0.047 0 0.101 0 0.155 0.008 0.108 0.008 0.17 0.023 0.403 0.124 0.294 0.132 0.411 0.225 0.597 0.473 0.279 0.356 0.341 0.984 0.147 1.41z"></path>
<path fill="#fff" d="M31.473 13.025c-0.085-0.24-0.263-0.287-0.883-0.403l-0.349-0.070-0.163-0.418 0.225-0.302c0.496-0.659 0.496-0.659 0.411-0.86-0.054-0.139-0.573-0.666-0.736-0.821-0.287-0.287-0.558-0.101-1.046 0.232l-0.302 0.201-0.411-0.186-0.047-0.349c-0.085-0.612-0.085-0.62-0.101-0.666-0.17-0.488-1.48-0.279-1.495-0.271-0.232 0.085-0.279 0.256-0.403 0.883l-0.070 0.341c-0.108 0.039-0.24 0.085-0.318 0.116-0.039 0.015-0.077 0.031-0.108 0.039-0.085-0.062-0.194-0.147-0.31-0.24-0.465-0.356-0.465-0.356-0.519-0.38-0.147-0.062-0.318-0.039-0.434 0.077l-0.736 0.69c-0.124 0.116-0.163 0.294-0.093 0.457 0.015 0.039 0.015 0.039 0.349 0.558l0.194 0.302-0.186 0.411-0.341 0.046c-0.604 0.085-0.628 0.093-0.674 0.108-0.279 0.108-0.279 0.349-0.294 0.868s-0.023 0.759 0.256 0.883c0.039 0.015 0.070 0.031 0.666 0.155l0.333 0.070 0.163 0.418-0.217 0.287c-0.38 0.504-0.488 0.659-0.387 0.891 0.023 0.062 0.039 0.101 0.395 0.48s0.387 0.395 0.457 0.426c0.232 0.108 0.387 0.008 0.907-0.333l0.31-0.201 0.411 0.178 0.054 0.356c0.093 0.659 0.116 0.798 0.341 0.899 0.008 0 0.387 0.085 0.767 0.085 0.325 0 0.659-0.062 0.752-0.271 0.023-0.047 0.031-0.070 0.155-0.682l0.062-0.325c0.147-0.047 0.271-0.093 0.411-0.163l0.287 0.217c0.519 0.387 0.674 0.504 0.922 0.387 0.108-0.054 0.845-0.721 0.914-0.953 0.031-0.108 0.015-0.232-0.054-0.333-0.008-0.008-0.070-0.101-0.155-0.232l-0.372-0.55 0.178-0.411 0.341-0.046c0.31-0.046 0.581-0.085 0.604-0.085 0.116-0.023 0.225-0.093 0.287-0.194 0.077-0.186 0.108-1.17 0.054-1.317zM30.683 13.784c-0.085 0.015-0.186 0.023-0.294 0.039l-0.558 0.077c-0.139 0.023-0.256 0.108-0.31 0.232l-0.364 0.814c-0.054 0.124-0.047 0.271 0.031 0.387l0.48 0.705c-0.070 0.077-0.155 0.163-0.232 0.232-0.062-0.047-0.147-0.101-0.232-0.17l-0.48-0.356c-0.116-0.085-0.279-0.101-0.411-0.039l-0.147 0.070c-0.17 0.077-0.279 0.124-0.449 0.17l-0.155 0.046c-0.139 0.047-0.248 0.163-0.279 0.31l-0.108 0.566c-0.023 0.101-0.039 0.201-0.054 0.287-0.108 0-0.225 0-0.333 0-0.015-0.077-0.023-0.17-0.039-0.271l-0.085-0.581c-0.023-0.139-0.108-0.256-0.24-0.31l-0.814-0.356c-0.124-0.054-0.271-0.039-0.38 0.031l-0.488 0.325c-0.085 0.054-0.163 0.108-0.225 0.147-0.031-0.039-0.070-0.077-0.108-0.116v0c-0.039-0.046-0.077-0.085-0.116-0.124 0.047-0.062 0.093-0.132 0.163-0.217l0.349-0.465c0.085-0.108 0.101-0.256 0.054-0.387l-0.318-0.837c-0.047-0.132-0.163-0.225-0.294-0.248l-0.55-0.116c-0.101-0.023-0.194-0.039-0.279-0.054 0-0.108 0.008-0.232 0.008-0.333 0.077-0.008 0.17-0.023 0.271-0.039l0.558-0.077c0.139-0.015 0.256-0.108 0.31-0.232l0.364-0.814c0.054-0.124 0.047-0.271-0.031-0.38l-0.318-0.488c-0.047-0.077-0.101-0.155-0.139-0.217l0.248-0.232c0.054 0.039 0.108 0.085 0.163 0.124 0.465 0.356 0.519 0.38 0.55 0.395 0.132 0.062 0.271 0.062 0.659-0.093 0.17-0.070 0.318-0.116 0.341-0.124l0.101-0.023c0.155-0.031 0.271-0.155 0.302-0.31l0.116-0.581c0.023-0.108 0.039-0.201 0.062-0.271 0.101 0 0.225 0.008 0.333 0.008 0.008 0.077 0.023 0.17 0.039 0.263l0.077 0.573c0.015 0.139 0.108 0.256 0.232 0.31l0.821 0.372c0.124 0.062 0.279 0.046 0.395-0.031l0.488-0.333c0.062-0.039 0.139-0.093 0.209-0.139 0.070 0.077 0.155 0.163 0.232 0.24-0.047 0.062-0.101 0.132-0.155 0.209l-0.356 0.473c-0.085 0.108-0.101 0.256-0.054 0.387l0.318 0.837c0.047 0.132 0.163 0.225 0.302 0.248l0.573 0.108c0.101 0.023 0.194 0.039 0.263 0.054-0.008 0.101-0.015 0.225-0.015 0.325z"></path>
<path fill="#fff" d="M27.785 11.878c-0.612-0.271-1.317-0.186-1.844 0.225-0.535 0.418-0.783 1.054-0.666 1.72 0.085 0.473 0.318 0.86 0.705 1.147 0.256 0.186 0.387 0.248 0.697 0.31 0.124 0.023 0.256 0.039 0.38 0.039 0.418 0 0.821-0.147 1.162-0.442 0.256-0.217 0.294-0.287 0.449-0.628 0.132-0.294 0.178-0.426 0.186-0.659 0.023-0.721-0.411-1.418-1.069-1.712zM27.94 13.924c-0.101 0.232-0.101 0.232-0.24 0.349-0.248 0.217-0.542 0.294-0.852 0.225-0.201-0.046-0.225-0.054-0.395-0.17-0.217-0.163-0.349-0.364-0.395-0.635-0.062-0.364 0.077-0.721 0.372-0.953s0.682-0.279 1.023-0.124c0.356 0.163 0.604 0.558 0.597 0.953 0 0.077 0 0.108-0.108 0.356z"></path>
<path fill="#fff" d="M14.187 23.981h-3.928c-0.659 0-1.201 0.535-1.201 1.201v0.55l-3.735-6.532h2.115c0.736 0 1.333-0.597 1.333-1.333v-3.673c0-0.736-0.597-1.333-1.333-1.333h-2.107l3.735-6.508v0.465c0 0.659 0.535 1.201 1.201 1.201h3.928c0.659 0 1.201-0.535 1.201-1.201v-1.565h1.395v1.565c0 0.659 0.535 1.201 1.201 1.201h3.928c0.659 0 1.201-0.535 1.201-1.201v-3.936c0-0.659-0.535-1.201-1.201-1.201h-3.928c-0.659 0-1.201 0.535-1.201 1.201v1.565h-1.395v-1.565c0-0.659-0.535-1.201-1.201-1.201h-3.928c-0.659 0-1.201 0.535-1.201 1.201v1.86l-4.664 8.128h-2.565c-0.736 0-1.333 0.597-1.333 1.333v3.673c0 0.736 0.597 1.333 1.333 1.333h2.572l4.649 8.143c0 0 0 0 0 0.008v1.759c0 0.659 0.535 1.201 1.201 1.201h3.928c0.659 0 1.201-0.535 1.201-1.201v-3.936c0-0.659-0.535-1.201-1.201-1.201zM17.581 2.882c0-0.217 0.178-0.395 0.395-0.395h3.928c0.217 0 0.395 0.178 0.395 0.395v3.936c0 0.217-0.178 0.395-0.395 0.395h-3.928c-0.217 0-0.395-0.178-0.395-0.395v-3.936zM9.863 2.882c0-0.217 0.178-0.395 0.395-0.395h3.928c0.217 0 0.395 0.178 0.395 0.395v3.936c0 0.217-0.178 0.395-0.395 0.395h-3.928c-0.217 0-0.395-0.178-0.395-0.395 0 0 0-3.936 0-3.936zM1.302 17.875v-3.673c0-0.294 0.24-0.527 0.527-0.527h5.61c0.294 0 0.527 0.24 0.527 0.527v3.673c0 0.294-0.24 0.527-0.527 0.527h-5.602c-0.294 0-0.535-0.24-0.535-0.527zM14.59 29.118c0 0.217-0.178 0.395-0.395 0.395h-3.928c-0.217 0-0.395-0.178-0.395-0.395v-3.936c0-0.217 0.178-0.395 0.395-0.395h3.928c0.217 0 0.395 0.178 0.395 0.395v3.936z"></path>
</svg>
