<!-- Generated by IcoMoon.io -->
<svg version="1.1" xmlns="http://www.w3.org/2000/svg" width="32" height="32" viewBox="0 0 32 32">
<title>profile-01</title>
<path fill="#fff" d="M28.738 4.308h-25.476c-1.519 0-2.758 1.24-2.758 2.758v17.86c0 1.519 1.24 2.758 2.758 2.758h25.468c1.519 0 2.758-1.24 2.758-2.758v-17.86c0.008-1.519-1.232-2.758-2.751-2.758zM30.543 24.934c0 1-0.814 1.805-1.805 1.805h-25.476c-1 0-1.805-0.814-1.805-1.805v-17.867c0-1 0.814-1.805 1.805-1.805h25.468c1 0 1.805 0.814 1.805 1.805v17.867h0.008z"></path>
<path fill="#fff" d="M13.11 11.893h-8.732c-0.263 0-0.473 0.217-0.473 0.473s0.217 0.473 0.473 0.473h8.732c0.263 0 0.473-0.217 0.473-0.473s-0.209-0.473-0.473-0.473z"></path>
<path fill="#fff" d="M13.11 15.543h-8.732c-0.263 0-0.473 0.217-0.473 0.473 0 0.263 0.217 0.473 0.473 0.473h8.732c0.263 0 0.473-0.217 0.473-0.473 0.008-0.256-0.209-0.473-0.473-0.473z"></path>
<path fill="#fff" d="M13.11 19.2h-8.732c-0.263 0-0.473 0.217-0.473 0.473 0 0.263 0.217 0.473 0.473 0.473h8.732c0.263 0 0.473-0.217 0.473-0.473 0.008-0.263-0.209-0.473-0.473-0.473z"></path>
<path fill="#fff" d="M22.88 14.985c1.891 0 3.432-1.542 3.432-3.432s-1.542-3.432-3.432-3.432-3.432 1.534-3.432 3.432c0 1.891 1.542 3.432 3.432 3.432zM22.88 9.065c1.371 0 2.479 1.116 2.479 2.479 0 1.371-1.116 2.487-2.479 2.487s-2.479-1.116-2.479-2.487c0-1.364 1.116-2.479 2.479-2.479z"></path>
<path fill="#fff" d="M24.918 15.109h-4.006c-2.386 0-4.331 1.875-4.331 4.184v4.316c0 0.263 0.217 0.473 0.473 0.473h11.568c0.263 0 0.473-0.217 0.473-0.473v-4.316c0.008-2.348-1.829-4.184-4.176-4.184zM28.149 23.128h-10.615v-3.843c0-1.782 1.519-3.231 3.378-3.231h4.006c1.813 0 3.231 1.418 3.231 3.231v3.843z"></path>
</svg>
