<!-- Generated by IcoMoon.io -->
<svg version="1.1" xmlns="http://www.w3.org/2000/svg" width="32" height="32" viewBox="0 0 32 32">
<title>profile-02</title>
<path fill="#fff" d="M16.085 13.288c3.525 0 6.392-2.867 6.392-6.392s-2.867-6.392-6.392-6.392-6.392 2.867-6.392 6.392 2.867 6.392 6.392 6.392zM16.085 1.441c3.006 0 5.455 2.448 5.455 5.455s-2.448 5.455-5.455 5.455-5.455-2.448-5.455-5.455 2.448-5.455 5.455-5.455z"></path>
<path fill="#fff" d="M20.153 14.497h-8.019c-4.509 0-8.182 3.541-8.182 7.888v8.639c0 0.256 0.209 0.465 0.465 0.465h23.167c0.256 0 0.465-0.209 0.465-0.465v-8.639c0-4.416-3.463-7.888-7.895-7.888zM27.111 30.559h-22.222v-8.174c0-3.835 3.254-6.95 7.252-6.95h8.019c3.905 0 6.958 3.053 6.958 6.95v8.174h-0.008z"></path>
</svg>
