<!-- Generated by IcoMoon.io -->
<svg version="1.1" xmlns="http://www.w3.org/2000/svg" width="32" height="32" viewBox="0 0 32 32">
<title>profile-03</title>
<path fill="#fff" d="M11.816 12.963c1.216 0.922 2.658 1.41 4.184 1.41s2.975-0.488 4.184-1.41c1.751-1.325 2.751-3.339 2.751-5.524 0-3.82-3.107-6.935-6.935-6.935s-6.935 3.107-6.935 6.935c0 2.185 1 4.2 2.751 5.524zM16 1.178c3.456 0 6.261 2.813 6.261 6.261 0 1.976-0.907 3.797-2.479 4.99-1.093 0.829-2.402 1.271-3.781 1.271s-2.689-0.442-3.781-1.271c-1.573-1.193-2.479-3.014-2.479-4.99 0-3.456 2.805-6.261 6.261-6.261z"></path>
<path fill="#fff" d="M20.339 13.676c-0.108-0.039-0.225-0.015-0.318 0.046-1.17 0.883-2.557 1.356-4.021 1.356s-2.859-0.465-4.021-1.356c-0.093-0.070-0.209-0.085-0.318-0.046-5.176 1.836-8.647 6.756-8.647 12.242 0 1.774 1.441 3.239 4.176 4.246 2.332 0.86 5.462 1.333 8.817 1.333 6.253 0 12.986-1.743 12.986-5.579-0.008-5.486-3.479-10.406-8.655-12.242zM16 30.822c-6.121 0-12.32-1.681-12.32-4.905 0-5.145 3.223-9.763 8.035-11.553 1.255 0.907 2.727 1.379 4.285 1.379 1.55 0 3.030-0.48 4.285-1.379 4.812 1.782 8.035 6.408 8.035 11.553 0 3.223-6.199 4.905-12.32 4.905z"></path>
</svg>
