<!-- Generated by IcoMoon.io -->
<svg version="1.1" xmlns="http://www.w3.org/2000/svg" width="32" height="32" viewBox="0 0 32 32">
<title>programmatic-advertising</title>
<path fill="#fff" d="M11.103 13.311c-0.031-0.093-0.062-0.155-0.194-0.155h-0.573c-0.116 0-0.163 0.039-0.194 0.155l-2.139 6.446c-0.039 0.108-0.008 0.163 0.085 0.163h0.535c0.116 0 0.17-0.031 0.217-0.163l0.535-1.643h2.495l0.504 1.674c0.031 0.093 0.062 0.132 0.17 0.132h0.62c0.085 0 0.101-0.062 0.085-0.139l-2.146-6.47zM9.6 17.387l0.519-1.736 0.48-1.627h0.031l0.488 1.658 0.511 1.705h-2.030z"></path>
<path fill="#fff" d="M16.349 13.156h-1.945c-0.132 0-0.186 0.054-0.186 0.163v6.431c0 0.124 0.054 0.17 0.217 0.17h1.914c2.216 0 2.743-1.526 2.743-3.401-0.008-1.867-0.558-3.363-2.743-3.363zM16.279 19.192h-1.255v-5.308h1.325c0.984 0 1.898 0.426 1.898 2.72 0 2.27-1.054 2.588-1.968 2.588z"></path>
<path fill="#fff" d="M22.508 16.070c-1.054-0.186-1.449-0.287-1.449-1.092 0-0.697 0.318-1.147 1.387-1.147 0.597 0 1.255 0.085 1.705 0.139 0.132 0.008 0.17-0.054 0.194-0.124l0.062-0.279c0.023-0.093 0.008-0.17-0.132-0.225-0.542-0.225-1.433-0.263-1.829-0.263-1.387 0-2.185 0.674-2.185 1.922 0 1.348 0.961 1.604 2.185 1.813 1.1 0.186 1.418 0.418 1.418 1.348 0 0.697-0.535 1.093-1.557 1.093-0.395 0-1.247-0.070-1.821-0.139-0.101-0.008-0.155 0.008-0.17 0.101l-0.070 0.287c-0.023 0.093-0.008 0.163 0.132 0.225 0.449 0.186 1.379 0.287 1.945 0.287 1.271 0 2.332-0.488 2.332-1.976 0.008-1.511-0.953-1.767-2.146-1.968z"></path>
<path fill="#fff" d="M4.819 12.103c0.465 0 0.914-0.186 1.232-0.527 0.387-0.418 0.542-1.1 0.372-1.627-0.101-0.318-0.217-0.504-0.473-0.736-0.163-0.147-0.256-0.225-0.418-0.294-0.511-0.225-1.046-0.209-1.534 0.054-0.263 0.139-0.558 0.457-0.69 0.736-0.271 0.589-0.209 1.224 0.178 1.743 0.124 0.17 0.418 0.403 0.628 0.496 0.225 0.101 0.465 0.155 0.705 0.155zM3.928 11.126c-0.263-0.364-0.31-0.783-0.124-1.193 0.077-0.17 0.287-0.395 0.449-0.48 0.186-0.101 0.372-0.147 0.566-0.147 0.163 0 0.325 0.039 0.496 0.108 0.077 0.039 0.124 0.062 0.271 0.194 0.178 0.17 0.248 0.279 0.325 0.504 0.108 0.341 0 0.821-0.256 1.092-0.325 0.349-0.868 0.449-1.317 0.248v0c-0.116-0.054-0.341-0.225-0.411-0.325z"></path>
<path fill="#fff" d="M31.45 21.943c-0.070-0.155-0.17-0.178-0.666-0.248l-0.287-0.039-0.163-0.349 0.163-0.256c0.341-0.519 0.341-0.519 0.263-0.643-0.039-0.093-0.465-0.465-0.589-0.581-0.209-0.186-0.38-0.054-0.744 0.232l-0.054 0.047-0.426-8.461c0 0 0 0 0-0.008-0.008-0.573-0.473-1.030-1.038-1.054h-0.008l-20.269-1.805c0.054-0.085 0.124-0.186 0.194-0.302 0.155-0.232 0.294-0.449 0.31-0.48 0.139-0.232 0.031-0.341-0.387-0.728l-0.364-0.341c-0.101-0.093-0.248-0.101-0.356-0.016l-0.449 0.349c-0.147 0.116-0.287 0.225-0.372 0.287-0.008-0.008-0.016-0.008-0.031-0.016-0.108-0.054-0.302-0.124-0.442-0.17l-0.077-0.023-0.209-1.015c-0.023-0.132-0.139-0.217-0.279-0.217l-1.007 0.039c-0.132 0.008-0.24 0.101-0.256 0.232l-0.139 1.023-0.116 0.046c-0.132 0.054-0.325 0.139-0.418 0.194-0.248-0.155-0.759-0.496-0.798-0.519-0.201-0.186-0.387 0.008-0.488 0.108-0.070 0.070-0.155 0.163-0.256 0.263-0.387 0.418-0.496 0.527-0.341 0.752 0.016 0.023 0.17 0.232 0.341 0.457 0.093 0.124 0.186 0.248 0.24 0.318-0.054 0.101-0.124 0.302-0.17 0.442-0.016 0.046-0.023 0.085-0.039 0.108-0.108 0.023-0.271 0.054-0.457 0.093l-0.558 0.116c-0.132 0.023-0.225 0.147-0.217 0.279l0.039 1.007c0.008 0.132 0.101 0.24 0.232 0.256l0.589 0.077c0.186 0.023 0.341 0.046 0.442 0.062 0 0.008 0.008 0.015 0.008 0.023 0.039 0.101 0.116 0.287 0.186 0.418 0.016 0.031 0.031 0.054 0.046 0.077-0.155 0.24-0.496 0.759-0.542 0.821-0.039 0.046-0.062 0.108-0.054 0.178 0 0.116 0.016 0.147 0.442 0.55 0.411 0.38 0.519 0.48 0.728 0.356 0.039-0.023 0.279-0.201 0.465-0.341 0.139-0.108 0.271-0.201 0.349-0.263h0.008c0 0 0.008 0 0.008 0.008l1.232 9.275c0.016 0.798 0.666 1.441 1.472 1.441v0l19.688-0.163-0.070 0.101c-0.271 0.411-0.325 0.511-0.248 0.666 0.015 0.039 0.031 0.070 0.318 0.333s0.31 0.279 0.356 0.294c0.155 0.062 0.248 0 0.643-0.294l0.24-0.178 0.356 0.132 0.062 0.287c0.101 0.496 0.124 0.589 0.279 0.643 0 0 0.186 0.023 0.403 0.023 0.287 0 0.628-0.039 0.697-0.225 0.008-0.031 0.015-0.054 0.077-0.519l0.031-0.271c0.124-0.047 0.225-0.093 0.341-0.155l0.248 0.163c0.403 0.263 0.519 0.341 0.69 0.248 0.070-0.039 0.597-0.573 0.628-0.744 0.015-0.077 0-0.163-0.047-0.225l-0.449-0.581 0.132-0.356 0.271-0.054c0.232-0.047 0.442-0.093 0.449-0.093 0.077-0.015 0.147-0.070 0.186-0.147 0.108-0.108 0.077-0.845 0.031-0.945zM25.399 20.835c0.008 0.023 0.015 0.023 0.287 0.395l0.178 0.232-0.132 0.356-0.271 0.054c-0.449 0.093-0.473 0.101-0.504 0.116-0.186 0.085-0.178 0.248-0.163 0.69 0.015 0.356 0.023 0.519 0.217 0.589 0.023 0.008 0.054 0.015 0.395 0.070l-18.1 0.155c0.201-0.256 0.325-0.573 0.325-0.922 0-0.814-0.659-1.472-1.472-1.472-0.418 0-0.79 0.178-1.061 0.457l-1.007-7.547 0.116 0.535c0.023 0.124 0.139 0.217 0.263 0.217h0.008l1.007-0.039c0.132-0.008 0.24-0.108 0.256-0.24l0.070-0.589c0.023-0.186 0.046-0.349 0.062-0.442 0.016-0.008 0.031-0.015 0.046-0.015 0.116-0.039 0.294-0.124 0.411-0.194 0.023-0.015 0.046-0.023 0.062-0.031 0.077 0.046 0.201 0.124 0.349 0.225 0.008 0 0.449 0.294 0.504 0.325 0.232 0.132 0.341 0.023 0.721-0.387l0.341-0.364c0.093-0.101 0.101-0.248 0.015-0.356l-0.349-0.449c-0.116-0.155-0.232-0.294-0.294-0.38 0.008-0.015 0.016-0.031 0.023-0.046 0.054-0.116 0.124-0.302 0.163-0.426 0.008-0.023 0.016-0.046 0.023-0.070 0.093-0.023 0.248-0.054 0.449-0.101l0.581-0.124c0.132-0.031 0.217-0.147 0.217-0.279l-0.039-1.007c-0.008-0.132-0.108-0.24-0.24-0.263l-0.589-0.077c-0.194-0.023-0.349-0.046-0.442-0.062 0-0.008-0.008-0.015-0.008-0.031l19.177 1.712c-0.116 0.17-0.186 0.38-0.186 0.604 0 0.589 0.48 1.077 1.077 1.077 0.209 0 0.411-0.062 0.573-0.17l0.38 7.477-0.047-0.217c-0.093-0.457-0.093-0.465-0.108-0.496-0.031-0.070-0.085-0.116-0.147-0.147-0.108-0.047-0.868-0.008-0.953 0.023-0.163 0.070-0.186 0.186-0.248 0.674l-0.039 0.279c-0.085 0.031-0.194 0.085-0.248 0.108-0.039 0.015-0.070 0.031-0.101 0.047-0.062-0.039-0.155-0.101-0.263-0.17-0.364-0.248-0.364-0.248-0.403-0.256-0.101-0.039-0.225-0.015-0.302 0.070l-0.527 0.566c-0.093 0.085-0.108 0.217-0.054 0.318zM28.405 11.661c0 0.294-0.24 0.527-0.527 0.527-0.294 0-0.527-0.24-0.527-0.527 0-0.294 0.24-0.527 0.527-0.527 0.294 0 0.527 0.24 0.527 0.527zM3.216 12.8c-0.023 0.015-0.232 0.17-0.457 0.341-0.108 0.085-0.209 0.155-0.287 0.217-0.062-0.054-0.147-0.132-0.209-0.194-0.077-0.070-0.139-0.132-0.186-0.178 0.217-0.302 0.589-0.845 0.55-1-0.008-0.046-0.008-0.054-0.147-0.302-0.054-0.108-0.132-0.263-0.155-0.341-0.077-0.217-0.101-0.248-0.139-0.287-0.070-0.070-0.077-0.070-0.752-0.163l-0.364-0.046-0.023-0.55 0.325-0.070c0.023-0.008 0.558-0.116 0.604-0.124 0.139-0.039 0.201-0.132 0.302-0.449 0.046-0.139 0.108-0.302 0.139-0.364 0.093-0.194 0.108-0.325 0.039-0.442-0.023-0.046-0.263-0.356-0.341-0.457-0.085-0.116-0.17-0.225-0.232-0.302 0.046-0.054 0.116-0.124 0.194-0.209 0.070-0.077 0.132-0.139 0.178-0.186 0.302 0.217 0.852 0.597 1.030 0.542 0.031-0.008 0.046-0.015 0.201-0.108 0.054-0.031 0.209-0.108 0.356-0.163l0.263-0.108c0.093-0.039 0.155-0.116 0.17-0.217l0.139-0.953 0.55-0.023 0.201 0.945c0.023 0.101 0.093 0.178 0.186 0.201l0.232 0.070c0.108 0.031 0.279 0.101 0.364 0.139 0.186 0.093 0.333 0.132 0.465 0.054 0.039-0.023 0.333-0.256 0.504-0.387l0.263-0.209 0.201 0.186c0.077 0.077 0.147 0.139 0.201 0.186-0.054 0.085-0.132 0.201-0.209 0.318-0.155 0.24-0.294 0.449-0.31 0.473-0.101 0.178-0.008 0.356 0.070 0.496 0.046 0.085 0.124 0.248 0.163 0.349 0.093 0.248 0.116 0.279 0.155 0.31 0.077 0.070 0.077 0.077 0.759 0.163l0.356 0.046 0.023 0.55-0.356 0.077c-0.666 0.139-0.674 0.155-0.736 0.217-0.031 0.039-0.062 0.062-0.139 0.325-0.031 0.101-0.093 0.263-0.132 0.349-0.077 0.163-0.139 0.333-0.046 0.48 0.023 0.039 0.256 0.333 0.387 0.504l0.209 0.263-0.186 0.194c-0.070 0.077-0.139 0.147-0.186 0.201-0.085-0.054-0.209-0.139-0.341-0.225-0.473-0.31-0.511-0.325-0.55-0.333-0.077-0.023-0.163-0.031-0.426 0.116-0.093 0.054-0.248 0.124-0.333 0.155-0.24 0.093-0.271 0.116-0.302 0.155-0.070 0.070-0.077 0.077-0.155 0.759l-0.046 0.356-0.55 0.023-0.077-0.356c-0.139-0.666-0.147-0.674-0.217-0.736-0.039-0.039-0.062-0.062-0.364-0.155-0.085-0.023-0.178-0.062-0.248-0.085 0 0-0.008 0-0.008-0.008-0.039-0.015-0.070-0.031-0.093-0.039-0.070-0.031-0.17-0.085-0.279-0.085-0.077 0.031-0.139 0.046-0.201 0.093zM5.23 22.563c0-0.511 0.418-0.93 0.93-0.93s0.93 0.418 0.93 0.93-0.418 0.93-0.93 0.93v0c-0.511 0-0.93-0.418-0.93-0.93zM30.706 22.625l-0.418 0.085c-0.093 0.015-0.17 0.085-0.201 0.17l-0.232 0.635c-0.031 0.085-0.015 0.186 0.039 0.263l0.418 0.535c-0.062 0.070-0.139 0.163-0.201 0.232-0.054-0.031-0.124-0.077-0.209-0.132l-0.387-0.248c-0.085-0.054-0.194-0.062-0.279-0.008l-0.108 0.062c-0.124 0.070-0.209 0.108-0.341 0.155l-0.116 0.047c-0.093 0.039-0.163 0.124-0.178 0.217l-0.054 0.434c-0.015 0.093-0.023 0.178-0.031 0.248-0.093 0.008-0.209 0.015-0.31 0.015-0.015-0.062-0.031-0.139-0.054-0.232l-0.093-0.442c-0.023-0.093-0.085-0.17-0.17-0.201l-0.643-0.232c-0.031-0.008-0.062-0.015-0.093-0.015-0.062 0-0.116 0.015-0.163 0.054l-0.356 0.271c-0.077 0.054-0.139 0.101-0.186 0.139-0.031-0.031-0.070-0.062-0.108-0.101s-0.077-0.077-0.116-0.108c0.031-0.054 0.077-0.116 0.124-0.194l0.24-0.372c0.054-0.077 0.062-0.178 0.023-0.263l-0.279-0.62c-0.039-0.085-0.116-0.147-0.209-0.155l-0.426-0.062c-0.085-0.015-0.17-0.023-0.24-0.031-0.008-0.093-0.008-0.217-0.015-0.31 0.070-0.015 0.147-0.031 0.232-0.047l0.418-0.085c0.093-0.015 0.17-0.085 0.201-0.17l0.24-0.643c0.031-0.085 0.015-0.186-0.039-0.256l-0.263-0.356c-0.047-0.062-0.093-0.132-0.132-0.178l0.217-0.232c0.047 0.031 0.101 0.070 0.155 0.108 0.372 0.248 0.403 0.263 0.434 0.271 0.077 0.031 0.163 0.039 0.465-0.101 0.124-0.062 0.24-0.108 0.263-0.116l0.077-0.023c0.101-0.031 0.178-0.116 0.194-0.225l0.062-0.449c0.015-0.093 0.023-0.178 0.039-0.24 0.093-0.008 0.209-0.008 0.31-0.008 0.015 0.062 0.031 0.139 0.047 0.225l0.085 0.434c0.015 0.093 0.085 0.17 0.17 0.201l0.643 0.248c0.085 0.031 0.186 0.015 0.263-0.039l0.356-0.279c0.047-0.039 0.116-0.093 0.17-0.132 0.070 0.062 0.155 0.147 0.225 0.209-0.039 0.054-0.077 0.124-0.124 0.194l-0.248 0.38c-0.054 0.077-0.062 0.178-0.023 0.263l0.287 0.62c0.039 0.085 0.116 0.147 0.217 0.155l0.442 0.054c0.093 0.015 0.17 0.023 0.232 0.031 0 0.093 0.008 0.209 0.008 0.31-0.070 0-0.155 0.023-0.248 0.039z"></path>
<path fill="#fff" d="M28.614 21.269c-0.473-0.17-0.976-0.077-1.356 0.256-0.372 0.333-0.527 0.821-0.411 1.309 0.085 0.349 0.279 0.628 0.581 0.821 0.201 0.124 0.294 0.163 0.535 0.201v0c0.070 0.008 0.132 0.015 0.201 0.015 0.341 0 0.666-0.132 0.93-0.387 0.178-0.17 0.201-0.225 0.302-0.488 0.085-0.225 0.108-0.325 0.101-0.504-0.023-0.542-0.387-1.038-0.883-1.224zM28.87 22.795c-0.070 0.194-0.070 0.194-0.17 0.287-0.186 0.186-0.418 0.256-0.666 0.225-0.163-0.023-0.186-0.031-0.318-0.116-0.178-0.116-0.294-0.271-0.341-0.488-0.070-0.287 0.023-0.573 0.248-0.775s0.527-0.256 0.806-0.155c0.294 0.108 0.511 0.411 0.519 0.721 0 0.085-0.008 0.116-0.077 0.302z"></path>
</svg>
