<!-- Generated by IcoMoon.io -->
<svg version="1.1" xmlns="http://www.w3.org/2000/svg" width="32" height="32" viewBox="0 0 32 32">
<title>prototype</title>
<path fill="#fff" d="M28.366 0.945h-24.732c-1.728 0-3.13 1.402-3.13 3.13v23.841c0 1.728 1.402 3.13 3.13 3.13h24.724c1.728 0 3.13-1.402 3.13-3.13v-23.833c0.008-1.728-1.395-3.138-3.123-3.138zM30.613 27.917c0 1.24-1.007 2.247-2.247 2.247h-24.732c-1.24 0-2.247-1.007-2.247-2.247v-23.833c0-1.24 1.007-2.247 2.247-2.247h24.724c1.24 0 2.247 1.007 2.247 2.247v23.833h0.008z"></path>
<path fill="#fff" d="M28.366 3.952h-24.36c-0.248 0-0.442 0.201-0.442 0.442v4.943c0 0.248 0.201 0.442 0.442 0.442h24.353c0.248 0 0.442-0.201 0.442-0.442v-4.943c0.008-0.248-0.194-0.442-0.434-0.442zM27.924 8.887h-23.469v-4.052h23.469v4.052z"></path>
<path fill="#fff" d="M28.366 21.199h-24.36c-0.248 0-0.442 0.201-0.442 0.442v5.989c0 0.248 0.201 0.442 0.442 0.442h24.353c0.248 0 0.442-0.201 0.442-0.442v-5.989c0.008-0.248-0.194-0.442-0.434-0.442zM27.924 27.188h-23.469v-5.106h23.469v5.106z"></path>
<path fill="#fff" d="M4.006 19.913h4.711c0.248 0 0.442-0.201 0.442-0.442v-7.431c0-0.248-0.201-0.442-0.442-0.442h-4.711c-0.248 0-0.442 0.201-0.442 0.442v7.431c0 0.24 0.201 0.442 0.442 0.442zM4.455 12.475h3.828v6.547h-3.828v-6.547z"></path>
<path fill="#fff" d="M28.335 19.913c0.248 0 0.442-0.201 0.442-0.442v-7.407c0-0.248-0.201-0.442-0.442-0.442h-16.736c-0.248 0-0.442 0.201-0.442 0.442v7.407c0 0.248 0.201 0.442 0.442 0.442h16.736zM12.041 12.506h15.853v6.516h-15.853v-6.516z"></path>
</svg>
