<!-- Generated by IcoMoon.io -->
<svg version="1.1" xmlns="http://www.w3.org/2000/svg" width="32" height="32" viewBox="0 0 32 32">
<title>publisher</title>
<path fill="#fff" d="M22.338 18.503v-6.106c0-3.339-2.665-6.059-5.982-6.152v-3.061c0-1.48-1.201-2.681-2.681-2.681h-4.347c-0.209 0-0.38 0.17-0.38 0.38s0.17 0.38 0.38 0.38h4.347c1.062 0 1.929 0.868 1.929 1.929v3.053c-3.332 0.077-6.020 2.805-6.020 6.152v6.144c0 0.023 0 0.047 0 0.070-1.147 0.945-1.666 2.487-1.286 3.952l0.163 0.643c0.077 0.294 0.194 0.573 0.356 0.829l3.099 4.99v1.41c0 0.287 0.108 0.55 0.31 0.752s0.465 0.31 0.744 0.31h0.008c3.525-0.015 6.036-0.023 7.26-0.023v0c0.697 0 1.309-0.418 1.565-1.069l2.030-5.199v-4.943c0-0.883-0.651-1.612-1.495-1.759zM21.021 18.472c0-0.845-0.69-1.534-1.542-1.534h-1.201v-0.403c0-1.030-0.837-1.867-1.867-1.867h-1.247v-1.712c0.039 0.015 0.085 0.031 0.139 0.031h6.284v5.486h-0.566zM21.579 12.234h-5.238v-5.238c2.851 0.077 5.153 2.386 5.238 5.238zM15.582 6.997v5.238h-0.279c-0.062 0-0.116 0.015-0.163 0.039-0.155-1.015-1.030-1.79-2.084-1.79-1.038 0-1.906 0.759-2.076 1.751h-0.635c0.077-2.851 2.379-5.16 5.238-5.238zM10.328 18.371v-5.385h0.604v5.602c0 0.070-0.046 0.101-0.070 0.116s-0.077 0.031-0.132-0.015l-0.403-0.318zM23.074 25.065l-1.976 5.067c-0.139 0.356-0.48 0.589-0.86 0.589v0c-1.232 0-3.742 0.008-7.268 0.023-0.070 0.008-0.163-0.031-0.217-0.093-0.062-0.062-0.093-0.139-0.093-0.217v-1.627l-3.208-5.176c-0.116-0.194-0.209-0.403-0.263-0.62l-0.163-0.643c-0.31-1.201 0.124-2.464 1.085-3.223l0.163 0.124c0.271 0.209 0.62 0.248 0.93 0.101 0.302-0.147 0.496-0.449 0.496-0.79v-5.982c0-0.752 0.612-1.364 1.364-1.364s1.364 0.612 1.364 1.364v6.539c0 0.209 0.17 0.38 0.38 0.38s0.38-0.17 0.38-0.38v-3.719h1.247c0.612 0 1.116 0.496 1.116 1.116v3.076c0 0.209 0.17 0.38 0.38 0.38s0.38-0.17 0.38-0.38v-1.922h1.201c0.434 0 0.79 0.356 0.79 0.79v1.999c0 0.209 0.17 0.38 0.38 0.38s0.38-0.17 0.38-0.38v-1.247h1.023c0.573 0 1.038 0.465 1.038 1.038v4.796h-0.047z"></path>
</svg>
