<!-- Generated by IcoMoon.io -->
<svg version="1.1" xmlns="http://www.w3.org/2000/svg" width="32" height="32" viewBox="0 0 32 32">
<title>pulse-survey</title>
<path fill="#fff" d="M19.58 12.374c0-0.201-0.163-0.364-0.364-0.364h-12.374c-0.201 0-0.364 0.163-0.364 0.364s0.163 0.364 0.364 0.364h12.382c0.201 0 0.356-0.163 0.356-0.364z"></path>
<path fill="#fff" d="M19.223 25.182h-12.382c-0.201 0-0.364 0.163-0.364 0.364s0.163 0.364 0.364 0.364h12.382c0.201 0 0.364-0.163 0.364-0.364-0.008-0.201-0.163-0.364-0.364-0.364z"></path>
<path fill="#fff" d="M21.253 23.64v3.82c0 0.201 0.163 0.364 0.364 0.364h3.82c0.201 0 0.364-0.163 0.364-0.364v-3.82c0-0.201-0.163-0.364-0.364-0.364h-3.82c-0.201 0-0.364 0.163-0.364 0.364zM21.974 23.996h3.092v3.092h-3.092v-3.092z"></path>
<path fill="#fff" d="M21.276 14.419c0.039 0.085 0.108 0.163 0.194 0.194 0.047 0.015 0.093 0.031 0.139 0.031h3.82c0.047 0 0.093-0.008 0.139-0.031 0.085-0.039 0.163-0.108 0.194-0.194 0.015-0.046 0.031-0.093 0.031-0.139v0-3.82c0-0.046-0.008-0.093-0.031-0.139-0.015-0.039-0.039-0.070-0.070-0.101 0-0.008-0.008-0.008-0.008-0.015 0 0-0.008-0.008-0.015-0.008-0.031-0.031-0.062-0.054-0.108-0.070s-0.093-0.031-0.139-0.031h-3.82c-0.047 0-0.093 0.008-0.139 0.031-0.039 0.015-0.077 0.039-0.108 0.070 0 0-0.008 0.008-0.015 0.008-0.008 0.008-0.008 0.008-0.008 0.015-0.031 0.031-0.054 0.062-0.070 0.101-0.015 0.046-0.031 0.093-0.031 0.139v3.82c0.023 0.054 0.031 0.101 0.047 0.139zM24.035 12.374l1.038-1.038v2.069l-1.038-1.030zM24.554 13.924h-2.069l1.038-1.038 1.030 1.038zM23.523 11.862l-1.038-1.038h2.069l-1.030 1.038zM23.012 12.374l-1.038 1.038v-2.069l1.038 1.030z"></path>
<path fill="#fff" d="M31.132 18.208h-3.642v-15.132c0-0.535-0.434-0.969-0.969-0.969h-14.946c-0.008 0-0.015 0.008-0.023 0.008-0.031 0-0.062 0.008-0.093 0.015-0.015 0.008-0.023 0.008-0.031 0.015-0.039 0.015-0.070 0.039-0.101 0.070l-6.702 6.702c-0.031 0.031-0.054 0.062-0.070 0.101-0.008 0.008-0.008 0.023-0.016 0.039-0.008 0.031-0.016 0.062-0.016 0.093 0 0.008-0.008 0.015-0.008 0.023v9.034h-3.642c-0.201 0-0.364 0.163-0.364 0.364s0.163 0.364 0.364 0.364h3.642v9.987c0 0.535 0.434 0.969 0.969 0.969h21.052c0.535 0 0.969-0.434 0.969-0.969v-9.987h3.642c0.201 0 0.364-0.163 0.364-0.364s-0.178-0.364-0.38-0.364zM11.212 3.347v5.47h-5.47l5.47-5.47zM5.23 9.538h6.346c0.201 0 0.364-0.163 0.364-0.364v-6.338h14.59c0.132 0 0.24 0.108 0.24 0.24v15.132h-1.937c-0.116 0-0.225 0.054-0.287 0.147l-1.588 2.123-2.813-4.649c-0.062-0.108-0.178-0.17-0.302-0.17v0c-0.124 0-0.24 0.062-0.302 0.17l-2.906 4.61-2.107-3.339c-0.132-0.209-0.48-0.209-0.612 0l-2.092 3.316-1.154-1.829c-0.070-0.108-0.178-0.17-0.302-0.17s-0.24 0.062-0.302 0.17l-1.185 1.883-1.395-2.092c-0.070-0.101-0.178-0.163-0.302-0.163h-1.953v-8.678zM26.77 28.924c0 0.132-0.108 0.24-0.24 0.24h-21.052c-0.132 0-0.24-0.108-0.24-0.24v-9.987h1.72l1.596 2.394c0.070 0.101 0.17 0.155 0.302 0.163 0.124 0 0.232-0.062 0.302-0.17l1.178-1.867 1.154 1.829c0.070 0.108 0.178 0.17 0.302 0.17s0.24-0.062 0.302-0.17l2.092-3.316 2.107 3.339c0.070 0.108 0.178 0.17 0.302 0.17s0.24-0.062 0.302-0.17l2.906-4.602 2.789 4.61c0.062 0.101 0.17 0.17 0.294 0.17 0.008 0 0.015 0 0.015 0 0.116 0 0.225-0.054 0.287-0.147l1.798-2.41h1.759v9.995h0.023z"></path>
</svg>
