<!-- Generated by IcoMoon.io -->
<svg version="1.1" xmlns="http://www.w3.org/2000/svg" width="32" height="32" viewBox="0 0 32 32">
<title>purchase</title>
<path fill="#fff" d="M30.505 11.506h-12.072c-0.031-0.101-0.062-0.217-0.108-0.333-1.193-3.556-4.657-5.951-8.608-5.951-5.075 0-9.205 4.13-9.197 9.166-0.008 0.101-0.209 2.394 1.395 2.913 0.434 0.139 1.984 0.643 3.874 1.263l-0.116 0.116c-0.775 0.775-0.775 2.038 0 2.813 0.341 0.341 0.79 0.535 1.271 0.566-0.263 0.341-0.411 0.759-0.411 1.193 0 0.535 0.209 1.030 0.581 1.41 0.387 0.387 0.899 0.581 1.41 0.581 0.387 0 0.775-0.116 1.108-0.341 0.031 0.465 0.217 0.93 0.573 1.286 0.387 0.387 0.899 0.581 1.41 0.581s1.015-0.194 1.41-0.581l2.193-2.193h15.303c0.55 0 0.992-0.449 0.992-0.992v-10.507c-0.015-0.542-0.465-0.992-1.007-0.992zM13.714 14.745v-0.387h17.062v1.604h-15.279c-0.55-0.38-1.17-0.798-1.782-1.216zM30.776 12.498v1.147h-17.061v-1.147c0-0.155 0.124-0.279 0.279-0.279h16.511c0.147 0.008 0.271 0.132 0.271 0.279zM1.232 14.427c0-4.68 3.804-8.484 8.484-8.484 3.649 0 6.834 2.193 7.934 5.478 0.008 0.031 0.023 0.062 0.031 0.093h-3.696c-0.55 0-0.992 0.449-0.992 0.992v1.767c-1.271-0.86-2.425-1.635-2.875-1.937-0.163-0.108-0.387-0.062-0.496 0.101s-0.062 0.387 0.101 0.496c2.673 1.79 7.020 4.726 7.322 5.013 0.349 0.349 1.085 1.085 0.573 2.355-0.473 1.185-2.146 0.69-2.216 0.666 0 0-11.932-3.897-13.28-4.339-1.046-0.349-0.891-2.154-0.891-2.2zM6.168 19.192l0.38-0.38c0.876 0.287 1.805 0.589 2.712 0.883l-1.286 1.286c-0.48 0.48-1.317 0.48-1.798 0-0.504-0.488-0.504-1.294-0.008-1.79zM7.609 24.167c-0.24-0.24-0.372-0.558-0.372-0.899s0.132-0.659 0.372-0.899l2.41-2.41c0.984 0.318 1.914 0.628 2.712 0.883l-3.316 3.316c-0.504 0.504-1.309 0.504-1.805 0.008zM12.498 25.685c-0.496 0.496-1.302 0.496-1.798 0s-0.496-1.302 0-1.798l2.301-2.301v1.418c0 0.55 0.449 0.992 0.992 0.992h0.194l-1.689 1.689zM30.505 23.283h-16.511c-0.155 0-0.279-0.124-0.279-0.279v-1.844c0.907 0.294 1.48 0.48 1.48 0.48 0.271 0.085 0.643 0.155 1.030 0.155 0.79 0 1.674-0.271 2.061-1.232 0.682-1.712-0.349-2.743-0.752-3.146-0.085-0.085-0.465-0.356-1.007-0.736h14.249v6.33c0 0.147-0.124 0.271-0.271 0.271z"></path>
</svg>
