<!-- Generated by IcoMoon.io -->
<svg version="1.1" xmlns="http://www.w3.org/2000/svg" width="32" height="32" viewBox="0 0 32 32">
<title>puzzle</title>
<path fill="#fff" d="M27.119 31.496h-22.237c-1.302 0-2.355-1.061-2.355-2.355v-2.689c0-1.162 0.945-2.115 2.115-2.115 0.426 0 0.829 0.124 1.185 0.364 0.504 0.325 1.077 0.496 1.666 0.496 1.681 0 3.045-1.371 3.045-3.053s-1.364-3.045-3.045-3.045c-0.589 0-1.154 0.17-1.65 0.48-0.364 0.248-0.775 0.372-1.201 0.372-1.162 0-2.115-0.945-2.115-2.115v-4.719c0-1.302 1.062-2.355 2.355-2.355h5.594c1 0 1.813-0.814 1.813-1.813 0-0.364-0.108-0.713-0.31-1.015 0 0-0.023-0.031-0.023-0.039-0.496-0.775-0.759-1.674-0.759-2.596 0-2.65 2.154-4.804 4.804-4.804s4.804 2.154 4.804 4.804c0 0.922-0.263 1.821-0.759 2.596l-0.023 0.031c-0.209 0.302-0.31 0.659-0.31 1.023 0 1 0.814 1.813 1.813 1.813h5.594c1.302 0 2.355 1.062 2.355 2.355v1.883c0 1.162-0.945 2.115-2.115 2.115-0.426 0-0.829-0.124-1.185-0.364-0.504-0.325-1.077-0.496-1.666-0.496-1.681 0-3.045 1.364-3.045 3.045s1.364 3.045 3.045 3.045c0.589 0 1.154-0.17 1.65-0.48 0.364-0.248 0.775-0.372 1.201-0.372 1.162 0 2.115 0.945 2.115 2.115v5.517c0 1.309-1.061 2.371-2.355 2.371zM4.641 25.127c-0.736 0-1.325 0.597-1.325 1.325v2.689c0 0.868 0.705 1.573 1.573 1.573h22.23c0.868 0 1.573-0.705 1.573-1.573v-5.517c0-0.736-0.597-1.325-1.325-1.325-0.263 0-0.527 0.077-0.744 0.225-0.651 0.418-1.364 0.628-2.1 0.628-2.115 0-3.835-1.72-3.835-3.835s1.72-3.835 3.835-3.835c0.736 0 1.457 0.209 2.069 0.604 0.248 0.17 0.511 0.248 0.775 0.248 0.736 0 1.325-0.597 1.325-1.325v-1.883c0-0.868-0.705-1.573-1.573-1.573h-5.594c-1.433 0-2.596-1.162-2.596-2.596 0-0.519 0.155-1.023 0.442-1.457 0.434-0.674 0.651-1.418 0.651-2.193 0-2.216-1.805-4.021-4.021-4.021s-4.021 1.805-4.021 4.021c0 0.775 0.217 1.526 0.635 2.17 0.31 0.457 0.457 0.953 0.457 1.48 0 1.433-1.162 2.596-2.596 2.596h-5.594c-0.868 0-1.573 0.705-1.573 1.573v4.719c0 0.736 0.597 1.325 1.325 1.325 0.263 0 0.527-0.077 0.744-0.225 0.651-0.418 1.364-0.628 2.1-0.628 2.115 0 3.835 1.72 3.835 3.835s-1.72 3.835-3.835 3.835c-0.736 0-1.457-0.209-2.069-0.604-0.248-0.178-0.504-0.256-0.767-0.256z"></path>
</svg>
