<!-- Generated by IcoMoon.io -->
<svg version="1.1" xmlns="http://www.w3.org/2000/svg" width="32" height="32" viewBox="0 0 32 32">
<title>Q1-expectations</title>
<path fill="#fff" d="M28.955 18.503l-2.456-4.688v-1.441c0-6.547-5.331-11.87-11.87-11.87-6.547 0-11.87 5.323-11.87 11.87 0 3.254 1.286 6.276 3.626 8.539v10.584h14.381v-3.626h2.921c1.55 0 2.813-1.263 2.813-2.813v-3.828h0.806c0.79 0 1.395-0.294 1.72-0.821 0.318-0.527 0.294-1.209-0.070-1.906zM28.343 19.998c-0.17 0.279-0.535 0.434-1.038 0.434h-1.604v4.626c0 1.108-0.907 2.015-2.015 2.015h-3.719v3.626h-12.784v-10.127l-0.124-0.116c-2.255-2.115-3.494-4.982-3.494-8.074 0-6.106 4.967-11.072 11.072-11.072s11.072 4.967 11.072 11.072v1.635l2.549 4.866c0.217 0.434 0.256 0.829 0.085 1.116z"></path>
<path fill="#fff" d="M14.365 4.664c-3.89 0-7.059 3.169-7.059 7.059s3.169 7.059 7.059 7.059 7.059-3.169 7.059-7.059-3.161-7.059-7.059-7.059zM14.365 17.984c-3.456 0-6.261-2.813-6.261-6.261s2.813-6.261 6.261-6.261c3.456 0 6.261 2.813 6.261 6.261s-2.805 6.261-6.261 6.261z"></path>
<path fill="#fff" d="M17.224 8.81l-3.913 5.703-1.658-2.386c-0.124-0.178-0.372-0.225-0.558-0.101-0.178 0.124-0.225 0.372-0.101 0.558l1.991 2.859c0.077 0.108 0.194 0.17 0.325 0.17v0c0.132 0 0.256-0.062 0.325-0.17l4.238-6.183c0.124-0.178 0.077-0.434-0.101-0.558-0.178-0.116-0.426-0.070-0.55 0.108z"></path>
</svg>
