<!-- Generated by IcoMoon.io -->
<svg version="1.1" xmlns="http://www.w3.org/2000/svg" width="32" height="32" viewBox="0 0 32 32">
<title>Q10-best-friend</title>
<path fill="#fff" d="M9.050 14.295c2.247 0 4.076-1.829 4.076-4.076s-1.829-4.076-4.076-4.076-4.076 1.829-4.076 4.076 1.829 4.076 4.076 4.076zM9.050 6.687c1.945 0 3.533 1.581 3.533 3.533s-1.581 3.533-3.533 3.533-3.525-1.588-3.525-3.533 1.581-3.533 3.525-3.533z"></path>
<path fill="#fff" d="M22.88 14.295c2.247 0 4.076-1.829 4.076-4.076s-1.829-4.076-4.076-4.076-4.076 1.829-4.076 4.076 1.821 4.076 4.076 4.076zM22.88 6.687c1.945 0 3.533 1.581 3.533 3.533s-1.581 3.533-3.533 3.533-3.533-1.581-3.533-3.533 1.581-3.533 3.533-3.533z"></path>
<path fill="#fff" d="M30.791 15.899c-0.457-0.643-1.077-1.131-1.736-1.356-0.69-0.24-1.348-0.17-1.852 0.186-0.294 0.209-0.504 0.504-0.635 0.852-0.356-0.054-0.597-0.054-0.604-0.054h-6.168c-0.070-0.008-1.689-0.023-2.882 1.147-0.426 0.418-0.744 0.938-0.945 1.55-0.201-0.612-0.519-1.131-0.945-1.55-1.193-1.17-2.82-1.147-2.875-1.147h-6.168c-0.008 0-0.225-0.008-0.55 0.039-0.132-0.341-0.333-0.635-0.628-0.837-1.007-0.713-2.619-0.194-3.587 1.17s-0.93 3.053 0.077 3.773c0.178 0.124 0.372 0.209 0.581 0.263 0 0.039 0 0.077 0 0.116v5.532c0 0.155 0.124 0.271 0.271 0.271h27.638c0.155 0 0.271-0.124 0.271-0.271v-5.532c0-0.031 0-0.062 0-0.101 0.232-0.047 0.457-0.139 0.651-0.279 0.504-0.356 0.783-0.953 0.783-1.689 0.008-0.697-0.24-1.433-0.697-2.084zM1.65 16.217c0.573-0.798 1.379-1.263 2.076-1.263 0.271 0 0.527 0.070 0.744 0.225 0.767 0.542 0.744 1.891-0.054 3.006-0.79 1.116-2.053 1.581-2.82 1.038-0.759-0.542-0.736-1.891 0.054-3.006zM2.417 20.052c0-0.023 0-0.039 0-0.062 0.86-0.031 1.805-0.566 2.456-1.488 0.55-0.775 0.775-1.65 0.682-2.394 0.248-0.031 0.403-0.031 0.411-0.031h6.183c0.008 0 1.457-0.023 2.487 0.984 0.697 0.682 1.054 1.689 1.054 2.983v5.261h-13.273v-5.253zM29.513 25.313h-13.273v-5.261c0-1.294 0.356-2.293 1.054-2.983 1.023-1.007 2.479-0.992 2.495-0.992h6.183c0 0 0.186 0 0.473 0.039-0.085 0.744 0.139 1.619 0.682 2.386 0.457 0.643 1.077 1.131 1.736 1.356 0.225 0.077 0.442 0.124 0.659 0.132 0 0.023 0 0.039 0 0.054v5.269h-0.008zM30.396 19.223c-0.356 0.256-0.837 0.294-1.356 0.116-0.55-0.194-1.069-0.597-1.464-1.154-0.527-0.736-0.705-1.581-0.55-2.216 0-0.008 0.008-0.008 0.008-0.015s0-0.008 0-0.015c0.085-0.318 0.248-0.581 0.496-0.759 0.356-0.256 0.837-0.294 1.356-0.116 0.55 0.194 1.069 0.597 1.464 1.154 0.395 0.55 0.604 1.178 0.604 1.767-0.008 0.55-0.209 0.992-0.558 1.24z"></path>
</svg>
