<!-- Generated by IcoMoon.io -->
<svg version="1.1" xmlns="http://www.w3.org/2000/svg" width="32" height="32" viewBox="0 0 32 32">
<title>Q11-progress</title>
<path fill="#fff" d="M15.992 8.484c2.208 0 4.006-1.798 4.006-4.006s-1.798-4.014-4.006-4.014-4.006 1.798-4.006 4.006 1.79 4.014 4.006 4.014zM15.992 1.201c1.805 0 3.277 1.472 3.277 3.277s-1.472 3.277-3.277 3.277-3.277-1.472-3.277-3.277 1.472-3.277 3.277-3.277z"></path>
<path fill="#fff" d="M8.786 15.768c0.201 0 0.364-0.163 0.364-0.364v-1.511c0-1.209 0.325-2.139 0.976-2.774 0.953-0.938 2.293-0.922 2.317-0.922h7.082c0.008 0 1.364-0.015 2.309 0.922 0.643 0.635 0.976 1.565 0.976 2.782l0.015 1.511c0 0.201 0.17 0.364 0.364 0.364h0.008c0.201 0 0.364-0.17 0.364-0.372l-0.015-1.511c0-1.418-0.403-2.526-1.201-3.308-1.162-1.154-2.758-1.131-2.82-1.131h-7.066c-0.070-0.008-1.658-0.023-2.836 1.123-0.798 0.775-1.201 1.891-1.201 3.308v1.511c0 0.201 0.163 0.372 0.364 0.372z"></path>
<path fill="#fff" d="M22.95 19.184h-3.99v-4.494c0-1.286-1.046-2.332-2.332-2.332-0.612 0-1.116 0.504-1.116 1.116v5.005c0 0.759-0.62 1.379-1.379 1.379h-1.356v-1.402c0-0.201-0.163-0.364-0.364-0.364h-4.757c-0.201 0-0.364 0.163-0.364 0.364v12.637c0 0.201 0.163 0.364 0.364 0.364h4.75c0.201 0 0.364-0.163 0.364-0.364s-0.163-0.364-0.364-0.364h-4.385v-11.909h4.021v1.402c0 0.201 0.163 0.364 0.364 0.364h1.72c1.17 0 2.115-0.953 2.115-2.115v-5.005c0-0.209 0.17-0.38 0.38-0.38 0.876 0 1.596 0.713 1.596 1.596v4.866c0 0.201 0.163 0.364 0.364 0.364h4.354c0.566 0 1.030 0.465 1.030 1.030v3.611c0 2.557-2.084 4.641-4.641 4.641h-5.997v-5.819c0-0.201-0.163-0.364-0.364-0.364s-0.364 0.163-0.364 0.364v6.183c0 0.201 0.163 0.364 0.364 0.364h6.377c2.968 0 5.377-2.41 5.377-5.377v-3.611c-0.008-0.961-0.798-1.751-1.767-1.751z"></path>
</svg>
