<!-- Generated by IcoMoon.io -->
<svg version="1.1" xmlns="http://www.w3.org/2000/svg" width="32" height="32" viewBox="0 0 32 32">
<title>Q12-learn-and-grow</title>
<path fill="#fff" d="M22.687 16.411h-0.566c-0.814-1.836 0.054-3.138 0.356-3.502h0.209c0.194 0 0.356-0.163 0.356-0.356s-0.163-0.356-0.356-0.356h-6.020c3.634-0.767 3.851-4.385 3.851-4.424 0.008-0.101-0.031-0.194-0.101-0.263s-0.178-0.116-0.263-0.108c-1.751 0.023-2.828 0.829-3.417 1.503-0.139 0.163-0.263 0.333-0.38 0.519v-2.999c3.936-0.62 4.161-4.447 4.161-4.486 0.008-0.101-0.031-0.194-0.101-0.263s-0.178-0.116-0.263-0.108c-1.751 0.023-2.828 0.837-3.417 1.503-0.139 0.163-0.263 0.333-0.38 0.519v-2.727c0-0.194-0.163-0.356-0.356-0.356s-0.356 0.163-0.356 0.356v6.028c-0.116-0.178-0.24-0.356-0.38-0.511-0.589-0.674-1.666-1.48-3.417-1.503-0.093 0.008-0.194 0.039-0.263 0.108s-0.108 0.17-0.101 0.263c0 0.039 0.232 3.859 4.161 4.486v2.464h-4.223c-0.659 0-1.278 0.256-1.743 0.721-0.418 0.418-0.666 0.961-0.713 1.542 0 0.015-0.008 0.031-0.008 0.054v14.21c0 1.534 1.247 2.782 2.782 2.782h10.956c0.194 0 0.356-0.163 0.356-0.356v-14.381c-0.008-0.194-0.163-0.356-0.364-0.356zM17.278 3.541c0.449-0.511 1.232-1.116 2.479-1.24-0.163 0.883-0.806 2.937-3.394 3.401 0.023-0.612 0.271-1.441 0.914-2.162zM12.242 5.61c1.247 0.124 2.030 0.728 2.479 1.24 0.635 0.728 0.883 1.55 0.914 2.162-2.58-0.473-3.231-2.526-3.394-3.401zM17.278 9.368c0.449-0.511 1.232-1.116 2.479-1.24-0.163 0.883-0.806 2.937-3.394 3.401 0.023-0.612 0.271-1.433 0.914-2.162zM10.181 13.42c0.333-0.333 0.767-0.511 1.24-0.511h4.223v1.844c0 0.194 0.163 0.356 0.356 0.356s0.356-0.163 0.356-0.356v-1.844h5.269c-0.403 0.697-0.86 1.937-0.279 3.502h-9.925c-0.829 0-1.55-0.589-1.712-1.395l-0.031-0.426c0.015-0.442 0.186-0.86 0.504-1.17zM22.33 30.784h-10.6c-1.139 0-2.069-0.93-2.069-2.069v-12.32c0.449 0.457 1.077 0.728 1.751 0.728h10.909v13.66h0.008z"></path>
</svg>
