<!-- Generated by IcoMoon.io -->
<svg version="1.1" xmlns="http://www.w3.org/2000/svg" width="32" height="32" viewBox="0 0 32 32">
<title>Q2-material-and-equipment</title>
<path fill="#fff" d="M31.132 5.153c-0.232-0.232-0.542-0.364-0.876-0.364h-1.433c-0.682 0-1.24 0.558-1.24 1.24v1.387l-0.015 13.11c0 0.008 0 0.008 0 0.015 0 0.031 0.008 0.054 0.015 0.077 0 0.008 0 0.015 0.008 0.023 0.015 0.023 0.031 0.054 0.047 0.077l1.666 1.844c0.054 0.062 0.132 0.093 0.209 0.093v0c0.077 0 0.155-0.031 0.209-0.093l1.674-1.844c0.023-0.023 0.039-0.047 0.047-0.077 0-0.008 0.008-0.015 0.008-0.023 0.008-0.023 0.015-0.054 0.015-0.077 0-0.008 0-0.008 0-0.015l0.015-13.11v-1.387c0.015-0.333-0.116-0.643-0.349-0.876zM29.528 20.246h-1.387l0.015-12.544h1.1l-0.008 10.321c0 0.155 0.124 0.287 0.287 0.287v0c0.155 0 0.287-0.124 0.287-0.287l0.008-10.321h1.1l-0.015 12.544h-1.387zM28.157 6.028c0-0.372 0.302-0.666 0.666-0.666v0h1.433c0.178 0 0.349 0.070 0.473 0.194s0.194 0.294 0.194 0.473v1.108h-2.774l0.008-1.108zM29.528 21.951l-1.030-1.139h2.061l-1.030 1.139z"></path>
<path fill="#fff" d="M11.87 18.611c0 0.329-0.267 0.597-0.597 0.597s-0.597-0.267-0.597-0.597c0-0.329 0.267-0.597 0.597-0.597s0.597 0.267 0.597 0.597z"></path>
<path fill="#fff" d="M25.91 11.196h-3.859v-5.106c0-0.682-0.558-1.24-1.24-1.24h-19.068c-0.682 0-1.24 0.558-1.24 1.24v13.11c0 0.682 0.558 1.24 1.24 1.24h6.508v1.147c0 0.201-0.116 0.573-0.225 0.736l-0.535 0.798c-0.225 0.333-0.256 0.697-0.093 1.007s0.488 0.488 0.891 0.488h5.966c0.403 0 0.728-0.178 0.891-0.488s0.132-0.674-0.093-1.007l-0.535-0.798c-0.108-0.163-0.225-0.535-0.225-0.736v-1.147h2.441v6.067c0 0.387 0.318 0.697 0.697 0.697h8.469c0.364 0 0.697-0.333 0.697-0.697v-14.613c0.008-0.364-0.325-0.697-0.69-0.697zM17.309 14.009h8.732v9.98h-8.732v-9.98zM26.042 11.893v1.542h-8.732v-1.542c0-0.054 0.039-0.132 0.132-0.132h8.469c0.054 0 0.132 0.085 0.132 0.132zM1.743 5.424h19.068c0.372 0 0.666 0.302 0.666 0.666v5.106h-4.045c-0.387 0-0.697 0.318-0.697 0.697v4.595h-15.667v-10.398c0-0.364 0.302-0.666 0.674-0.666zM1.069 19.208v-2.139h15.667v2.805h-13.954c-0.008 0-0.008 0-0.015 0h-1.023c-0.372 0-0.674-0.302-0.674-0.666zM14.582 23.438c0.062 0.093 0.147 0.263 0.062 0.426s-0.279 0.186-0.387 0.186h-5.958c-0.108 0-0.302-0.023-0.387-0.186s0-0.333 0.062-0.426l0.527-0.798c0.17-0.256 0.318-0.736 0.318-1.054v-1.147h4.912v1.147c0 0.31 0.147 0.79 0.318 1.054l0.535 0.798zM25.91 26.646h-8.469c-0.093 0-0.132-0.077-0.132-0.132v-1.96h8.732v1.96c0 0.047-0.077 0.132-0.132 0.132z"></path>
<path fill="#fff" d="M22.338 25.515c0 0.368-0.298 0.666-0.666 0.666s-0.666-0.298-0.666-0.666c0-0.368 0.298-0.666 0.666-0.666s0.666 0.298 0.666 0.666z"></path>
<path fill="#fff" d="M24.996 25.228h-1.286c-0.155 0-0.287 0.124-0.287 0.287s0.124 0.287 0.287 0.287h1.286c0.155 0 0.287-0.124 0.287-0.287s-0.132-0.287-0.287-0.287z"></path>
<path fill="#fff" d="M19.642 25.228h-1.286c-0.155 0-0.287 0.124-0.287 0.287s0.124 0.287 0.287 0.287h1.286c0.155 0 0.287-0.124 0.287-0.287s-0.132-0.287-0.287-0.287z"></path>
<path fill="#fff" d="M20.765 12.932h1.829c0.155 0 0.287-0.124 0.287-0.287s-0.124-0.287-0.287-0.287h-1.829c-0.155 0-0.287 0.124-0.287 0.287s0.124 0.287 0.287 0.287z"></path>
</svg>
