<!-- Generated by IcoMoon.io -->
<svg version="1.1" xmlns="http://www.w3.org/2000/svg" width="32" height="32" viewBox="0 0 32 32">
<title>Q3-do-best</title>
<path fill="#fff" d="M12.335 4.695v1.131c0 0.039 0.008 0.077 0.008 0.108l0.008 0.062c0 0.031 0.008 0.070 0.008 0.077l0.008 0.039c0.008 0.039 0.015 0.077 0.031 0.132 0.008 0.046 0.023 0.093 0.039 0.139 0.232 0.728 0.845 1.294 1.356 1.72l0.69 0.55c0.023 0.015 0.039 0.039 0.077 0.070 0.070 0.070 0.108 0.108 0.124 0.124l0.395 1.635c-0.008 0.039-0.031 0.116-0.124 0.201-0.318 0.318-1.030 0.496-1.201 0.496-0.403 0-0.721 0.403-0.736 0.914v0.744c0 0.271 0.116 0.535 0.333 0.713 0.046 0.039 0.101 0.077 0.155 0.101 0.046 0.023 0.101 0.046 0.163 0.070 0.070 0.023 0.116 0.031 0.194 0.039l4.161 0.008c0.132 0 0.263-0.031 0.387-0.085 0.325-0.155 0.535-0.488 0.535-0.845v-0.728l-0.008-0.070c-0.008-0.062-0.015-0.124-0.023-0.178-0.015-0.070-0.039-0.139-0.054-0.178l-0.015-0.046c-0.031-0.070-0.070-0.132-0.124-0.201-0.070-0.085-0.147-0.147-0.232-0.194-0.093-0.046-0.178-0.070-0.271-0.070-0.287 0-1.271-0.333-1.325-0.697l0.364-1.464 0.054-0.17c0.008-0.008 0.023-0.031 0.062-0.077 0.031-0.031 0.062-0.062 0.101-0.093 0.062-0.054 0.124-0.108 0.194-0.163l0.186-0.147c0.759-0.597 1.798-1.402 1.821-2.572v-1.108l1.581-2.046c0.194-0.256 0.232-0.597 0.085-0.891s-0.434-0.473-0.759-0.473h-0.914v-0.039c0-0.108-0.015-0.31-0.124-0.442-0.139-0.178-0.356-0.279-0.604-0.279h-5.865c-0.248 0-0.473 0.101-0.612 0.279-0.101 0.132-0.124 0.333-0.124 0.449v0.031h-0.907c-0.325 0-0.62 0.178-0.759 0.473-0.147 0.294-0.108 0.635 0.085 0.891l1.581 2.061zM20.579 1.991c0.070 0 0.101 0.039 0.108 0.070 0.015 0.023 0.031 0.077-0.015 0.132l-1.015 1.325v-1.526h0.922zM13.063 1.232v0h5.873v4.587c-0.015 0.814-0.899 1.503-1.542 2.007l-0.186 0.147c-0.085 0.070-0.155 0.132-0.225 0.186-0.047 0.046-0.093 0.085-0.139 0.124-0.077 0.077-0.163 0.178-0.217 0.302l-0.465 1.798-0.008 0.085c0 1.030 1.557 1.418 2.007 1.449 0.015 0.015 0.015 0.023 0.015 0.015l0.015 0.031c0.008 0.023 0.015 0.046 0.023 0.070s0.008 0.054 0.008 0.101v0.721c0 0.077-0.047 0.155-0.116 0.186-0.023 0.015-0.047 0.015-0.077 0.015h-4.091c-0.015 0-0.031-0.008-0.039-0.008-0.015-0.008-0.023-0.008-0.039-0.015-0.008-0.008-0.023-0.015-0.031-0.023-0.046-0.039-0.077-0.101-0.077-0.155v-0.736c0-0.101 0.031-0.17 0.054-0.201 0.333-0.023 1.193-0.232 1.666-0.713 0.225-0.225 0.341-0.48 0.341-0.752l-0.387-1.588-0.015-0.147-0.039-0.139c-0.054-0.116-0.147-0.232-0.318-0.395-0.031-0.023-0.054-0.054-0.093-0.085l-0.705-0.566c-0.434-0.356-0.945-0.829-1.123-1.371-0.008-0.023-0.015-0.054-0.031-0.108-0.008-0.023-0.008-0.039-0.008-0.039l-0.008-0.039c0-0.016-0.008-0.031-0.008-0.085l-0.015-4.657zM11.32 2.053c0.015-0.023 0.046-0.070 0.108-0.070h0.907v1.519l-1.007-1.317c-0.039-0.054-0.023-0.101-0.008-0.132z"></path>
<path fill="#fff" d="M18.007 16.186c-0.876-0.535-1.906-0.697-2.906-0.457-2.061 0.496-3.339 2.58-2.844 4.641 0.24 1 0.852 1.844 1.736 2.379 0.612 0.372 1.302 0.566 1.999 0.566 0.302 0 0.604-0.039 0.907-0.108 1-0.24 1.844-0.852 2.386-1.728 0.535-0.876 0.697-1.906 0.457-2.906s-0.852-1.852-1.736-2.386zM18.665 21.098c-0.434 0.713-1.123 1.209-1.929 1.402-0.814 0.194-1.65 0.062-2.363-0.372s-1.209-1.123-1.402-1.929c-0.194-0.814-0.062-1.65 0.372-2.363s1.123-1.209 1.929-1.402c0.814-0.194 1.65-0.062 2.363 0.372s1.209 1.123 1.402 1.929c0.194 0.814 0.062 1.65-0.372 2.363z"></path>
<path fill="#fff" d="M23.733 19.859l-3.952-5.788c-0.116-0.163-0.341-0.209-0.504-0.093s-0.209 0.341-0.093 0.504l3.952 5.788c0.589 0.86 0.496 2.038-0.225 2.797l-3.696 3.905v-1.054c0-0.837-0.682-1.511-1.511-1.511h-3.409c-0.837 0-1.511 0.682-1.511 1.511v1.054l-3.696-3.913c-0.713-0.759-0.806-1.937-0.225-2.797l3.952-5.788c0.116-0.163 0.070-0.395-0.093-0.504-0.163-0.116-0.395-0.070-0.504 0.093l-3.952 5.788c-0.783 1.139-0.659 2.696 0.294 3.704l4.223 4.471v3.471h6.431v-3.471l4.223-4.471c0.953-1 1.077-2.557 0.294-3.696zM18.495 30.768h-4.982v-2.867c0-0.008 0-0.008 0-0.015v-1.976c0-0.434 0.356-0.79 0.79-0.79h3.409c0.434 0 0.79 0.356 0.79 0.79l-0.008 4.858z"></path>
</svg>
