<!-- Generated by IcoMoon.io -->
<svg version="1.1" xmlns="http://www.w3.org/2000/svg" width="32" height="32" viewBox="0 0 32 32">
<title>Q4-recognition</title>
<path fill="#fff" d="M16 13.273c3.518 0 6.384-2.867 6.384-6.385s-2.867-6.385-6.384-6.385-6.384 2.867-6.384 6.385 2.867 6.385 6.384 6.385zM16 1.278c3.092 0 5.61 2.518 5.61 5.61s-2.518 5.61-5.61 5.61-5.61-2.518-5.61-5.61 2.518-5.61 5.61-5.61z"></path>
<path fill="#fff" d="M26.336 17.093c-1.875-1.829-4.409-1.79-4.502-1.79h-11.646c-0.108-0.008-2.642-0.039-4.517 1.79-1.271 1.24-1.914 3.022-1.914 5.292v8.724c0 0.217 0.17 0.387 0.387 0.387h23.717c0.217 0 0.387-0.17 0.387-0.387v-8.724c-0.008-2.27-0.651-4.052-1.914-5.292zM27.475 30.722h-22.95v-8.337c0-2.053 0.566-3.642 1.674-4.734 1.635-1.604 3.944-1.581 3.975-1.573h11.669c0.023 0 2.317-0.031 3.959 1.573 1.116 1.085 1.681 2.681 1.681 4.742v8.329h-0.008z"></path>
<path fill="#fff" d="M24.213 21.238c0 1.451-1.176 2.627-2.627 2.627s-2.627-1.176-2.627-2.627c0-1.451 1.176-2.627 2.627-2.627s2.627 1.176 2.627 2.627z"></path>
<path fill="#fff" d="M18.185 28.312l1.224-0.465 0.79 1.046 1.216-4.393c-0.69-0.031-1.317-0.287-1.821-0.682l-1.41 4.494z"></path>
<path fill="#fff" d="M21.749 24.492l1.216 4.393 0.79-1.046 1.224 0.465-1.402-4.494c-0.511 0.403-1.139 0.651-1.829 0.682z"></path>
</svg>
