<!-- Generated by IcoMoon.io -->
<svg version="1.1" xmlns="http://www.w3.org/2000/svg" width="32" height="32" viewBox="0 0 32 32">
<title>Q5-development</title>
<path fill="#fff" d="M15.992 8.81c2.286 0 4.153-1.86 4.153-4.153s-1.86-4.153-4.153-4.153-4.153 1.86-4.153 4.153 1.86 4.153 4.153 4.153zM15.992 1.255c1.875 0 3.401 1.526 3.401 3.401s-1.526 3.401-3.401 3.401-3.401-1.526-3.401-3.401 1.526-3.401 3.401-3.401z"></path>
<path fill="#fff" d="M8.523 16.356c0.209 0 0.372-0.17 0.372-0.372v-1.565c0-1.255 0.341-2.224 1.015-2.882 0.984-0.969 2.386-0.961 2.41-0.961h7.345c0.008 0.008 1.418-0.015 2.402 0.961 0.674 0.659 1.015 1.627 1.015 2.89l0.023 1.565c0 0.201 0.17 0.372 0.372 0.372h0.008c0.209 0 0.372-0.17 0.372-0.38l-0.023-1.565c0-1.464-0.418-2.619-1.247-3.425-1.216-1.193-2.867-1.162-2.929-1.162h-7.33c-0.070 0-1.72-0.023-2.937 1.162-0.829 0.806-1.247 1.96-1.247 3.425v1.565c0.008 0.209 0.17 0.372 0.38 0.372z"></path>
<path fill="#fff" d="M27.878 9.871c-0.845 0-1.526 0.682-1.526 1.526v3.696c0 0.961-0.387 1.898-1.069 2.572-0.395-0.372-0.914-0.612-1.464-0.659-0.69-0.070-1.379 0.17-1.891 0.635l-2.456 2.255c-1.007 0.922-1.581 2.231-1.581 3.603v7.624c0 0.209 0.17 0.372 0.372 0.372s0.372-0.17 0.372-0.372v-7.624c0-1.154 0.488-2.27 1.34-3.053l2.456-2.255c0.356-0.325 0.837-0.488 1.317-0.442 0.38 0.031 0.728 0.194 1 0.449l-2.813 2.851c-0.147 0.147-0.139 0.387 0.008 0.527 0.070 0.070 0.17 0.108 0.263 0.108s0.194-0.039 0.263-0.108l3.037-3.092c0.008-0.008 0.008-0.015 0.015-0.023l0.248-0.24c0.837-0.821 1.325-1.96 1.325-3.13v-3.696c0-0.434 0.349-0.783 0.783-0.783s0.783 0.349 0.783 0.783v6.508c0 1.162-0.434 2.278-1.224 3.13l-2.975 3.208c-0.728 0.79-1.061 1.898-0.883 2.952l0.589 3.828c0.031 0.201 0.217 0.341 0.426 0.31 0.201-0.031 0.341-0.225 0.31-0.426l-0.589-3.835c-0.139-0.837 0.116-1.705 0.69-2.324l2.975-3.208c0.922-0.992 1.426-2.286 1.426-3.642v-6.508c0.008-0.837-0.682-1.519-1.526-1.519z"></path>
<path fill="#fff" d="M10.073 17.643c-0.511-0.473-1.201-0.705-1.891-0.635-0.55 0.054-1.062 0.287-1.464 0.659-0.682-0.674-1.069-1.612-1.069-2.572v-3.696c0-0.845-0.682-1.526-1.526-1.526s-1.526 0.682-1.526 1.526v6.508c0 1.356 0.504 2.65 1.426 3.642l2.975 3.208c0.573 0.62 0.837 1.488 0.69 2.332l-0.589 3.828c-0.031 0.201 0.108 0.395 0.31 0.426 0.209 0.031 0.395-0.108 0.426-0.31l0.589-3.82c0.178-1.061-0.147-2.169-0.883-2.96l-2.975-3.208c-0.79-0.852-1.224-1.968-1.224-3.13v-6.508c0-0.434 0.349-0.783 0.783-0.783s0.783 0.349 0.783 0.783v3.696c0 1.17 0.48 2.309 1.325 3.13l0.248 0.24c0.008 0.008 0.008 0.015 0.016 0.023l3.037 3.092c0.070 0.077 0.17 0.108 0.263 0.108s0.186-0.039 0.263-0.108c0.147-0.147 0.147-0.38 0.008-0.527l-2.813-2.851c0.271-0.256 0.628-0.411 1-0.449 0.48-0.047 0.961 0.116 1.317 0.442l2.456 2.255c0.852 0.783 1.34 1.891 1.34 3.053v7.624c0 0.209 0.17 0.372 0.372 0.372s0.372-0.17 0.372-0.372v-7.624c0-1.364-0.573-2.681-1.581-3.603l-2.456-2.262z"></path>
</svg>
