<!-- Generated by IcoMoon.io -->
<svg version="1.1" xmlns="http://www.w3.org/2000/svg" width="32" height="32" viewBox="0 0 32 32">
<title>Q7-opinions-count</title>
<path fill="#fff" d="M8.244 17.464c2.247 0 4.076-1.829 4.076-4.076s-1.829-4.076-4.076-4.076-4.076 1.829-4.076 4.076c0 2.247 1.829 4.076 4.076 4.076zM8.244 9.964c1.891 0 3.425 1.534 3.425 3.425s-1.534 3.425-3.425 3.425-3.425-1.534-3.425-3.425c0-1.883 1.534-3.425 3.425-3.425z"></path>
<path fill="#fff" d="M11.886 18.572h-7.283c-0.070-0.008-1.689-0.023-2.882 1.139-0.806 0.79-1.216 1.922-1.216 3.37v5.455c0 0.178 0.147 0.325 0.325 0.325h14.83c0.178 0 0.325-0.147 0.325-0.325v-5.455c0-1.441-0.411-2.572-1.216-3.37-1.201-1.162-2.82-1.139-2.882-1.139zM15.334 28.211h-14.179v-5.129c0-1.263 0.341-2.231 1.023-2.898 0.992-0.976 2.41-0.961 2.425-0.961h7.291c0.023 0 1.426-0.015 2.417 0.961 0.674 0.666 1.023 1.643 1.023 2.898v5.129z"></path>
<path fill="#fff" d="M29.761 8.283v-2.882c0-1.247-1.015-2.262-2.262-2.262h-11.429c-1.247 0-2.262 1.015-2.262 2.262v5.331c0 1.247 1.015 2.262 2.262 2.262h0.62l-0.984 2.712c-0.046 0.132-0.008 0.279 0.108 0.364 0.062 0.047 0.132 0.070 0.201 0.070 0.062 0 0.124-0.015 0.178-0.054l4.556-3.092h3.254c0.581 1.418 1.976 2.417 3.603 2.417 2.146 0 3.897-1.751 3.897-3.897-0.008-1.34-0.697-2.534-1.743-3.231zM20.641 12.351c-0.062 0-0.132 0.023-0.178 0.054l-3.812 2.588 0.798-2.208c0.039-0.101 0.023-0.209-0.039-0.294s-0.163-0.139-0.263-0.139h-1.085c-0.891 0-1.619-0.728-1.619-1.619v-5.331c0-0.891 0.728-1.619 1.619-1.619h11.429c0.891 0 1.619 0.728 1.619 1.619v2.534c-0.465-0.194-0.976-0.31-1.511-0.31-2.146 0-3.897 1.751-3.897 3.897 0 0.287 0.031 0.566 0.093 0.829h-3.154zM27.599 14.776c-1.79 0-3.247-1.457-3.247-3.246s1.457-3.247 3.247-3.247 3.247 1.457 3.247 3.247c0 1.782-1.457 3.247-3.247 3.247z"></path>
<path fill="#fff" d="M29.040 9.902l-2.007 2.929-0.798-1.147c-0.101-0.147-0.302-0.186-0.449-0.077-0.147 0.101-0.186 0.302-0.077 0.449l1.069 1.534c0.062 0.085 0.163 0.139 0.263 0.139v0c0.108 0 0.209-0.054 0.263-0.139l2.27-3.316c0.101-0.147 0.062-0.349-0.085-0.449-0.147-0.108-0.349-0.077-0.449 0.077z"></path>
</svg>
