<!-- Generated by IcoMoon.io -->
<svg version="1.1" xmlns="http://www.w3.org/2000/svg" width="32" height="32" viewBox="0 0 32 32">
<title>Q8-mission-and-purpose</title>
<path fill="#fff" d="M29.125 5.757l-2.355 0.341-0.349-2.394c-0.031-0.217-0.232-0.372-0.457-0.341-0.217 0.031-0.372 0.232-0.341 0.457l0.349 2.394-2.394 0.349c-0.217 0.031-0.372 0.232-0.341 0.457 0.031 0.201 0.201 0.341 0.395 0.341 0.015 0 0.039 0 0.054-0.008l2.394-0.349 0.333 2.309c0.031 0.201 0.201 0.341 0.395 0.341 0.015 0 0.039 0 0.054-0.008 0.217-0.031 0.372-0.232 0.341-0.457l-0.318-2.293 2.348-0.341c0.217-0.031 0.372-0.232 0.341-0.457-0.023-0.217-0.232-0.372-0.449-0.341z"></path>
<path fill="#fff" d="M24.337 4.85l-0.155-3.959c-0.008-0.225-0.201-0.38-0.418-0.387-0.225 0.008-0.395 0.194-0.387 0.418l0.116 2.875c-2.185-1.356-4.695-2.076-7.276-2.076-7.609 0-13.8 6.191-13.8 13.8 0 6.687 4.703 12.335 11.227 13.559 0.046 0.79 0.465 1.55 1.178 2.015 0.418 0.271 0.899 0.411 1.387 0.411 0.186 0 0.372-0.023 0.558-0.062 0.674-0.147 1.247-0.55 1.619-1.131 0.767-1.201 0.418-2.797-0.783-3.564s-2.797-0.418-3.564 0.783c-0.147 0.232-0.256 0.488-0.325 0.744-6.098-1.185-10.491-6.485-10.491-12.754 0-7.167 5.827-12.994 12.994-12.994 2.448 0 4.827 0.69 6.888 1.976l-3.099 0.124c-0.225 0.008-0.395 0.194-0.387 0.418 0.008 0.217 0.186 0.387 0.403 0.387 0.008 0 0.008 0 0.015 0l3.921-0.163c0.217-0.008 0.395-0.194 0.38-0.418zM14.722 27.955c0.341-0.527 0.914-0.821 1.495-0.821 0.325 0 0.659 0.093 0.953 0.279 0.821 0.527 1.069 1.627 0.535 2.448-0.256 0.403-0.651 0.674-1.116 0.775s-0.938 0.015-1.34-0.24c-0.403-0.256-0.674-0.651-0.775-1.116-0.093-0.449-0.008-0.922 0.248-1.325z"></path>
</svg>
