<!-- Generated by IcoMoon.io -->
<svg version="1.1" xmlns="http://www.w3.org/2000/svg" width="32" height="32" viewBox="0 0 32 32">
<title>qr-codes</title>
<path fill="#fff" d="M12.467 4.695h-7.771v7.771h7.771v-7.771zM11.762 11.762h-6.354v-6.354h6.354v6.354z"></path>
<path fill="#fff" d="M6.818 6.818h3.533v3.533h-3.533v-3.533z"></path>
<path fill="#fff" d="M4.695 27.305h7.771v-7.771h-7.771v7.771zM5.408 20.238h6.354v6.354h-6.354v-6.354z"></path>
<path fill="#fff" d="M6.818 21.648h3.533v3.533h-3.533v-3.533z"></path>
<path fill="#fff" d="M27.305 4.695h-7.771v7.771h7.771v-7.771zM26.592 11.762h-6.354v-6.354h6.354v6.354z"></path>
<path fill="#fff" d="M21.648 6.818h3.533v3.533h-3.533v-3.533z"></path>
<path fill="#fff" d="M16.705 4.695h2.115v1.41h-2.115v-1.41z"></path>
<path fill="#fff" d="M16 6.113h0.69v0.705h-0.69v-0.705z"></path>
<path fill="#fff" d="M13.172 4.695h0.705v2.115h-0.705v-2.115z"></path>
<path fill="#fff" d="M14.59 6.818h1.41v1.41h-1.41v-1.41z"></path>
<path fill="#fff" d="M13.172 17.41v-1.41h1.418v-4.943h0.705v-1.41h1.41v1.41h0.705v0.705h-0.705v0.705h0.705v0.705h1.418v-2.115h-0.713v-2.123h0.713v-2.115h-0.713v0.705h-1.41v1.41h-3.533v5.656h-0.705v1.41h-1.41v0.705h1.41v1.418h-1.41v0.705h2.115v-0.705h2.123v-0.713z"></path>
<path fill="#fff" d="M16 11.057h0.705v0.705h-0.705v-0.705z"></path>
<path fill="#fff" d="M13.172 19.533h2.115v0.705h-2.115v-0.705z"></path>
<path fill="#fff" d="M15.295 20.238h1.41v1.41h-1.41v-1.41z"></path>
<path fill="#fff" d="M13.172 21.648h1.41v1.41h-1.41v-1.41z"></path>
<path fill="#fff" d="M14.59 23.066h2.115v1.41h-2.115v-1.41z"></path>
<path fill="#fff" d="M13.172 24.477h1.41v2.828h-1.41v-2.828z"></path>
<path fill="#fff" d="M23.066 20.238h1.41v-1.41h-2.123v2.82h-1.41v1.418h2.123z"></path>
<path fill="#fff" d="M20.238 25.182h0.705v0.705h-0.705v-0.705z"></path>
<path fill="#fff" d="M25.182 24.477h0.705v-0.705h-0.705v-0.705h-1.41v0.705h-0.705v2.115h-1.418v1.418h3.533z"></path>
<path fill="#fff" d="M25.887 25.887h1.41v1.41h-1.41v-1.41z"></path>
<path fill="#fff" d="M15.295 13.172h1.41v1.41h-1.41v-1.41z"></path>
<path fill="#fff" d="M16 15.295h1.41v1.41h-1.41v-1.41z"></path>
<path fill="#fff" d="M27.305 13.172h-2.123v2.123h1.41v2.115h-2.82v-2.115h0.705v-0.705h-0.705v-1.418h-4.943v1.418h-0.713v2.82h-1.41v0.713h-1.41v1.41h2.82v3.533h1.418v0.705h-1.418v1.41h-2.82v0.705h3.533v1.418h1.41v-1.418h-0.705v-0.705h0.705v-4.238h-0.705v0.705h-0.705v-3.525h1.41v-1.418h-1.41v-0.705h1.41v0.705h1.41v-2.115h0.705v0.705h0.713v2.115h-1.418v0.713h4.943v1.41h-1.41v1.41h1.41v0.705h-1.41v1.418h2.123z"></path>
<path fill="#fff" d="M4.695 13.172h2.828v1.41h-2.828v-1.41z"></path>
<path fill="#fff" d="M8.229 15.295h-3.533v1.41h2.828v2.123h1.41v-4.238h-0.705z"></path>
<path fill="#fff" d="M8.934 13.172h3.533v1.41h-3.533v-1.41z"></path>
<path fill="#fff" d="M1.054 7.392c0.302 0 0.55-0.248 0.55-0.55v-4.486c0-0.411 0.333-0.752 0.752-0.752h4.618c0.302 0 0.55-0.248 0.55-0.55s-0.248-0.55-0.55-0.55h-4.618c-1.023 0-1.852 0.829-1.852 1.852v4.486c0 0.302 0.248 0.55 0.55 0.55z"></path>
<path fill="#fff" d="M6.88 30.396h-4.525c-0.411 0-0.752-0.333-0.752-0.752v-4.61c0-0.302-0.248-0.55-0.55-0.55s-0.55 0.248-0.55 0.55v4.61c0 1.023 0.829 1.852 1.852 1.852h4.525c0.302 0 0.55-0.248 0.55-0.55s-0.248-0.55-0.55-0.55z"></path>
<path fill="#fff" d="M30.946 24.391c-0.302 0-0.55 0.248-0.55 0.55v4.703c0 0.411-0.333 0.752-0.752 0.752h-4.571c-0.302 0-0.55 0.248-0.55 0.55s0.248 0.55 0.55 0.55h4.571c1.023 0 1.852-0.829 1.852-1.852v-4.703c0-0.302-0.248-0.55-0.55-0.55z"></path>
<path fill="#fff" d="M29.645 0.504h-4.757c-0.302 0-0.55 0.248-0.55 0.55s0.248 0.55 0.55 0.55h4.757c0.411 0 0.752 0.333 0.752 0.752v4.579c0 0.302 0.248 0.55 0.55 0.55s0.55-0.248 0.55-0.55v-4.579c0-1.023-0.829-1.852-1.852-1.852z"></path>
</svg>
