<!-- Generated by IcoMoon.io -->
<svg version="1.1" xmlns="http://www.w3.org/2000/svg" width="32" height="32" viewBox="0 0 32 32">
<title>question</title>
<path fill="#fff" d="M16 0.504c-8.546 0-15.496 6.95-15.496 15.496s6.95 15.496 15.496 15.496 15.496-6.95 15.496-15.496-6.95-15.496-15.496-15.496zM16 30.691c-8.097 0-14.691-6.594-14.691-14.691s6.594-14.691 14.691-14.691 14.691 6.594 14.691 14.691-6.594 14.691-14.691 14.691z"></path>
<path fill="#fff" d="M14.435 23.043c-0.449 0-1.209 0.163-1.209 1.24 0 1.046 0.659 1.263 1.209 1.263s1.209-0.217 1.209-1.263c0-0.31 0-1.24-1.209-1.24z"></path>
<path fill="#fff" d="M15.38 6.431c-0.736 0-2.386 0.085-3.37 0.418-0.201 0.046-0.426 0.194-0.426 0.643l0.023 0.256c0 0.217 0.101 0.349 0.186 0.418 0.132 0.108 0.294 0.147 0.473 0.116 0.86-0.077 2.58-0.132 2.983-0.132 3.099 0 3.456 1.449 3.456 2.541 0 1.062-0.752 1.643-1.542 2.247-0.093 0.070-0.186 0.139-0.271 0.209-2.208 1.72-3.285 3.51-3.285 5.47v2.154l0.008 0.070c0.054 0.341 0.232 0.496 0.558 0.496h0.488c0.279 0 0.566-0.186 0.566-0.589v-1.852c0.023-2.247 1.441-3.595 2.968-4.726v0c0.891-0.674 2.239-1.689 2.239-3.611-0.008-3.835-3.866-4.13-5.052-4.13z"></path>
</svg>
