<!-- Generated by IcoMoon.io -->
<svg version="1.1" xmlns="http://www.w3.org/2000/svg" width="32" height="32" viewBox="0 0 32 32">
<title>rail</title>
<path fill="#fff" d="M16.062 0.511c-5.393 0.070-9.825 3.572-10.313 8.143 0 0.031-0.008 0.077 0 8.275v0.054c0.039 0.318 0.984 7.88 8.647 9.259 0.643 0.116 1.185 0.17 1.658 0.17h0.178c0.457 0 1.061-0.062 1.674-0.17 7.663-1.371 8.608-8.934 8.647-9.259v-0.054c0.008-8.205 0-8.244 0-8.283-0.488-4.571-4.92-8.074-10.305-8.143zM17.728 25.321c-0.558 0.101-1.108 0.155-1.503 0.155h-0.186c-0.411 0-0.899-0.054-1.488-0.155-6.787-1.224-7.771-7.57-7.872-8.415 0-2.766-0.008-8.004 0-8.151 0.434-4.107 4.478-7.245 9.399-7.314 0.031 0 0.062 0 0.062 0h0.077c4.92 0.062 8.957 3.208 9.391 7.276 0.008 0.186 0 5.416 0 8.182-0.070 0.542-1.023 7.19-7.88 8.422z"></path>
<path fill="#fff" d="M12.18 18.867c-1.077 0-1.96 0.876-1.96 1.96 0 1.077 0.876 1.96 1.96 1.96 1.077 0 1.96-0.876 1.96-1.96 0-1.077-0.883-1.96-1.96-1.96zM12.18 21.858c-0.566 0-1.023-0.457-1.023-1.023s0.457-1.023 1.023-1.023 1.023 0.457 1.023 1.023c0 0.558-0.457 1.023-1.023 1.023z"></path>
<path fill="#fff" d="M20.138 18.867c-1.077 0-1.96 0.876-1.96 1.96 0 1.077 0.876 1.96 1.96 1.96 1.077 0 1.96-0.876 1.96-1.96 0-1.077-0.883-1.96-1.96-1.96zM20.138 21.858c-0.566 0-1.023-0.457-1.023-1.023s0.457-1.023 1.023-1.023c0.566 0 1.023 0.457 1.023 1.023 0 0.558-0.457 1.023-1.023 1.023z"></path>
<path fill="#fff" d="M16.108 4.029c-2.867 0-5.416 0.705-6.671 1.852-1.038 0.945-1.309 2.464-0.744 4.060 0.736 2.069 3.092 4.571 7.33 4.804h0.132c4.138-0.232 6.485-2.673 7.237-4.703 0.597-1.619 0.341-3.177-0.69-4.161-1.185-1.139-3.711-1.852-6.594-1.852zM22.516 9.724c-0.651 1.759-2.72 3.89-6.384 4.091h-0.077c-3.75-0.201-5.827-2.379-6.47-4.184-0.442-1.232-0.256-2.379 0.488-3.061 1.069-0.976 3.44-1.604 6.036-1.604 2.611 0 4.943 0.628 5.951 1.588 0.752 0.728 0.922 1.906 0.457 3.169z"></path>
<path fill="#fff" d="M8.701 25.12l-5.486 5.486c-0.186 0.186-0.186 0.48 0 0.659 0.093 0.093 0.209 0.139 0.333 0.139s0.24-0.047 0.333-0.139l5.486-5.486c0.186-0.186 0.186-0.48 0-0.659-0.186-0.186-0.48-0.186-0.666 0z"></path>
<path fill="#fff" d="M28.785 30.698l-5.486-5.486c-0.186-0.186-0.48-0.186-0.659 0-0.186 0.186-0.186 0.48 0 0.659l5.486 5.486c0.093 0.093 0.209 0.139 0.333 0.139s0.24-0.047 0.333-0.139c0.178-0.178 0.178-0.48-0.008-0.659z"></path>
</svg>
