<!-- Generated by IcoMoon.io -->
<svg version="1.1" xmlns="http://www.w3.org/2000/svg" width="32" height="32" viewBox="0 0 32 32">
<title>regulatory-bodies</title>
<path fill="#fff" d="M12.048 20.262c0 0.334-0.271 0.604-0.604 0.604s-0.604-0.271-0.604-0.604c0-0.334 0.271-0.604 0.604-0.604s0.604 0.271 0.604 0.604z"></path>
<path fill="#fff" d="M11.599 7.415c-1.325 0-2.572 0.511-3.518 1.449s-1.464 2.185-1.464 3.51 0.511 2.572 1.449 3.518c0.938 0.938 2.185 1.464 3.51 1.464h0.008c1.325 0 2.565-0.511 3.502-1.449s1.464-2.185 1.464-3.51-0.511-2.58-1.449-3.518c-0.93-0.938-2.177-1.457-3.502-1.464zM14.737 15.558c-0.845 0.837-1.96 1.302-3.146 1.302h-0.008c-1.193 0-2.309-0.473-3.154-1.317v0c-0.845-0.845-1.302-1.968-1.302-3.161s0.473-2.309 1.317-3.154c0.845-0.837 1.96-1.302 3.146-1.302h0.008c1.193 0 2.317 0.473 3.153 1.317 0.845 0.845 1.302 1.968 1.302 3.161-0.008 1.185-0.473 2.309-1.317 3.154z"></path>
<path fill="#fff" d="M9.205 12.072c-0.139 0-0.256 0.116-0.256 0.256v2.286c0 0.139 0.116 0.256 0.256 0.256s0.256-0.116 0.256-0.256v-2.286c0-0.139-0.116-0.256-0.256-0.256z"></path>
<path fill="#fff" d="M11.444 10.971c-0.139 0-0.256 0.116-0.256 0.256v3.386c0 0.139 0.116 0.256 0.256 0.256s0.256-0.116 0.256-0.256v-3.386c0-0.139-0.108-0.256-0.256-0.256z"></path>
<path fill="#fff" d="M13.691 9.654c-0.139 0-0.256 0.116-0.256 0.256v4.703c0 0.139 0.116 0.256 0.256 0.256s0.256-0.116 0.256-0.256v-4.703c0-0.139-0.116-0.256-0.256-0.256z"></path>
<path fill="#fff" d="M20.525 13.954c0.17 0 0.573-0.031 0.775-0.116 0.054-0.023 0.054-0.054 0.047-0.093l-0.023-0.108c-0.008-0.031-0.023-0.062-0.085-0.054-0.209 0.023-0.457 0.062-0.721 0.062-0.635 0-0.744-0.542-0.744-1.116 0-0.628 0.070-1.178 0.744-1.178 0.256 0 0.535 0.031 0.721 0.062 0.054 0.008 0.077-0.015 0.085-0.046l0.023-0.124c0.008-0.039 0.008-0.070-0.054-0.093-0.232-0.093-0.604-0.116-0.775-0.116-0.93 0-1.1 0.736-1.1 1.495 0.015 0.736 0.201 1.426 1.108 1.426z"></path>
<path fill="#fff" d="M21.865 13.916h0.178c0.047 0 0.070-0.015 0.070-0.070v-2.185h0.015l0.248 0.411 1.154 1.782c0.031 0.046 0.054 0.070 0.116 0.070h0.163c0.047 0 0.070-0.015 0.070-0.070v-2.72c0-0.062-0.023-0.077-0.070-0.077h-0.178c-0.054 0-0.070 0.015-0.070 0.077v2.162h-0.015l-0.232-0.364-1.17-1.805c-0.023-0.039-0.047-0.070-0.108-0.070h-0.178c-0.047 0-0.070 0.023-0.070 0.062v2.727c0 0.054 0.023 0.070 0.077 0.070z"></path>
<path fill="#fff" d="M24.585 13.916h0.178c0.047 0 0.070-0.015 0.070-0.070v-2.046h0.008l0.132 0.287 0.659 1.34c0.015 0.031 0.039 0.054 0.093 0.054h0.124c0.039 0 0.070-0.015 0.085-0.054l0.628-1.286 0.155-0.333h0.015v2.046c0 0.054 0.023 0.070 0.077 0.070h0.186c0.047 0 0.077-0.015 0.077-0.070v-2.727c0-0.046-0.023-0.062-0.062-0.062h-0.17c-0.062 0-0.085 0.023-0.108 0.070l-0.721 1.472-0.209 0.465h-0.008l-0.209-0.449-0.721-1.488c-0.023-0.046-0.039-0.062-0.093-0.062h-0.194c-0.047 0-0.062 0.015-0.062 0.062v2.727c0 0.039 0.023 0.054 0.070 0.054z"></path>
<path fill="#fff" d="M28.397 13.861c0.015 0.039 0.031 0.054 0.085 0.054h0.225c0.054 0 0.070-0.015 0.085-0.062l0.907-2.727c0.015-0.046 0.008-0.070-0.031-0.070h-0.225c-0.047 0-0.070 0.015-0.085 0.062l-0.426 1.333-0.325 1.030h-0.015l-0.325-1.030-0.434-1.333c-0.015-0.046-0.031-0.062-0.085-0.062h-0.217c-0.047 0-0.054 0.023-0.039 0.062l0.907 2.743z"></path>
<path fill="#fff" d="M31.241 9.832h-8.848v-2.324c0-0.674-0.55-1.224-1.224-1.224h-6.733c-1.798-0.837-3.89-0.837-5.687 0h-7.020c-0.674 0-1.224 0.55-1.224 1.224v13.366c0 0.674 0.55 1.224 1.224 1.224h6.671v1.201c0 0.209-0.116 0.597-0.232 0.767l-0.542 0.814c-0.217 0.325-0.248 0.69-0.093 0.992 0.163 0.302 0.48 0.473 0.876 0.473h6.075c0.395 0 0.713-0.17 0.876-0.473s0.132-0.666-0.093-0.992l-0.542-0.814c-0.116-0.178-0.232-0.558-0.232-0.767v-1.201h4.664l2.704 2.704c0.287 0.287 0.659 0.434 1.038 0.434 0.201 0 0.403-0.039 0.597-0.124 0.163-0.070 0.318-0.178 0.449-0.302 0.573-0.573 0.573-1.511 0.008-2.084l-1.588-1.604c0.015-0.077 0.031-0.163 0.031-0.248v-5.765h8.848c0.139 0 0.256-0.116 0.256-0.256v-4.765c0-0.147-0.116-0.256-0.256-0.256zM21.168 6.787c0.395 0 0.721 0.325 0.721 0.721v2.324h-4.068c-0.325-0.798-0.814-1.55-1.449-2.193-0.318-0.325-0.666-0.604-1.030-0.852 0 0 5.827 0 5.827 0zM1.728 6.787h6.113c-0.356 0.24-0.697 0.511-1.007 0.829-2.634 2.619-2.642 6.896-0.016 9.53 0.387 0.387 0.821 0.721 1.271 1h-7.082v-10.638c0-0.395 0.325-0.721 0.721-0.721zM1.007 20.866v-2.216h8.097c1.588 0.628 3.37 0.643 4.982 0h1.635l2.937 2.937h-16.93c-0.395 0-0.721-0.318-0.721-0.721zM15.093 18.146c0.023-0.015 0.046-0.023 0.077-0.039l0.039 0.039h-0.116zM14.846 25.158c0.062 0.101 0.163 0.294 0.062 0.473-0.070 0.132-0.225 0.209-0.426 0.209h-6.075c-0.116 0-0.333-0.023-0.426-0.209-0.093-0.178 0-0.372 0.062-0.473l0.542-0.814c0.17-0.256 0.318-0.744 0.318-1.054v-1.201h5.083v1.201c0 0.31 0.147 0.79 0.318 1.054l0.542 0.814zM23.593 24.446c-0.085 0.085-0.186 0.155-0.294 0.201-0.372 0.163-0.79 0.085-1.077-0.201l-6.834-6.842c-0.046-0.047-0.116-0.077-0.178-0.077-0.046 0-0.101 0.015-0.139 0.047-2.472 1.658-5.788 1.333-7.895-0.783-2.425-2.433-2.417-6.392 0.016-8.817s6.392-2.417 8.817 0.023c2.108 2.115 2.417 5.439 0.744 7.895-0.070 0.101-0.054 0.232 0.031 0.318l6.818 6.865c0.364 0.38 0.364 0.992-0.008 1.371zM19.913 18.65h1.976v1.991l-1.976-1.991zM21.881 18.146h-2.479l-2.123-2.146c0.186-0.294 0.341-0.597 0.473-0.899h4.13v3.045zM30.993 14.598h-13.040c0.48-1.387 0.488-2.882 0.047-4.261h12.994v4.261z"></path>
</svg>
