<!-- Generated by IcoMoon.io -->
<svg version="1.1" xmlns="http://www.w3.org/2000/svg" width="32" height="32" viewBox="0 0 32 32">
<title>relevance</title>
<path fill="#fff" d="M15.171 13.032c-0.728 0-1.418 0.256-1.953 0.721v-4.145c0-0.907-0.736-1.643-1.643-1.643h-3.324c-0.139 0-0.263 0.093-0.294 0.225-0.039 0.132 0.023 0.279 0.139 0.349 0.728 0.434 1.162 1.201 1.162 2.053 0 0.721-0.325 1.402-0.883 1.86s-1.294 0.635-2.022 0.488c-0.945-0.194-1.712-0.992-1.86-1.953-0.155-0.984 0.287-1.945 1.131-2.448 0.116-0.070 0.178-0.217 0.139-0.349s-0.163-0.225-0.294-0.225h-3.324c-0.907 0-1.643 0.736-1.643 1.643v12.87c0 0.907 0.736 1.643 1.643 1.643h3.324c0.139 0 0.263-0.093 0.294-0.225 0.039-0.132-0.023-0.279-0.139-0.349-0.845-0.504-1.286-1.464-1.131-2.448 0.155-0.953 0.914-1.759 1.86-1.953 0.721-0.147 1.457 0.031 2.022 0.488 0.558 0.457 0.883 1.139 0.883 1.86 0 0.852-0.434 1.619-1.162 2.053-0.116 0.070-0.178 0.217-0.139 0.349s0.163 0.225 0.294 0.225h3.324c0.907 0 1.643-0.736 1.643-1.643v-4.138c0.682 0.581 1.596 0.837 2.51 0.666 1.201-0.217 2.169-1.17 2.394-2.371v0c0.17-0.899-0.062-1.813-0.635-2.51-0.566-0.697-1.41-1.092-2.317-1.092zM17.526 16.519c-0.186 0.953-0.945 1.705-1.898 1.883s-1.922-0.232-2.456-1.038c-0.077-0.116-0.217-0.163-0.349-0.124s-0.217 0.163-0.217 0.294v4.951c0 0.566-0.457 1.023-1.023 1.023h-2.464c0.488-0.542 0.767-1.247 0.767-2.007 0-0.907-0.403-1.759-1.108-2.34-0.705-0.573-1.627-0.798-2.534-0.612-1.209 0.248-2.154 1.24-2.348 2.456-0.147 0.922 0.132 1.836 0.728 2.503h-2.479c-0.566 0-1.023-0.457-1.023-1.023v-12.877c0-0.566 0.457-1.023 1.023-1.023h2.464c-0.597 0.666-0.876 1.573-0.728 2.503 0.194 1.224 1.139 2.216 2.348 2.456 0.907 0.186 1.829-0.039 2.534-0.612s1.108-1.426 1.108-2.34c0-0.759-0.279-1.464-0.767-2.007h2.464c0.566 0 1.023 0.457 1.023 1.023v4.951c0 0.139 0.093 0.256 0.225 0.294s0.271-0.015 0.349-0.124c0.442-0.682 1.193-1.085 2.007-1.085 0.721 0 1.395 0.318 1.852 0.868 0.457 0.558 0.643 1.286 0.504 2.007z"></path>
<path fill="#fff" d="M29.854 7.965h-2.619c0.449-0.519 0.697-1.185 0.697-1.898 0-0.876-0.387-1.705-1.061-2.262s-1.565-0.783-2.441-0.62c-1.17 0.217-2.108 1.162-2.317 2.34-0.163 0.899 0.085 1.79 0.651 2.448h-2.286c-0.907 0-1.643 0.736-1.643 1.643v4.951c0 0.139 0.093 0.256 0.225 0.294s0.271-0.015 0.349-0.124c0.442-0.682 1.193-1.085 2.007-1.085 0.721 0 1.395 0.318 1.852 0.868s0.643 1.286 0.504 1.999c-0.186 0.953-0.945 1.705-1.898 1.883s-1.922-0.232-2.456-1.038c-0.077-0.116-0.217-0.163-0.349-0.124s-0.217 0.163-0.217 0.294v4.951c0 0.907 0.736 1.643 1.643 1.643h2.208c-0.395 0.511-0.62 1.147-0.62 1.805 0 1.619 1.317 2.937 2.937 2.937s2.937-1.317 2.937-2.937c0-0.659-0.225-1.294-0.62-1.805h2.541c0.907 0 1.643-0.736 1.643-1.643v-12.877c-0.023-0.899-0.759-1.643-1.666-1.643zM30.877 22.477c0 0.566-0.457 1.023-1.023 1.023h-3.301c-0.132 0-0.256 0.085-0.294 0.217-0.039 0.124 0 0.263 0.108 0.349 0.589 0.434 0.945 1.131 0.945 1.867 0 1.278-1.038 2.317-2.317 2.317s-2.317-1.038-2.317-2.317c0-0.736 0.356-1.433 0.945-1.867 0.108-0.077 0.155-0.217 0.108-0.349-0.039-0.124-0.163-0.217-0.294-0.217h-2.968c-0.566 0-1.023-0.457-1.023-1.023v-4.138c0.682 0.581 1.596 0.837 2.51 0.666 1.201-0.217 2.169-1.17 2.394-2.371 0.17-0.899-0.062-1.813-0.635-2.51s-1.426-1.092-2.324-1.092c-0.728 0-1.418 0.256-1.953 0.721v-4.145c0-0.566 0.457-1.023 1.023-1.023h3.115c0.139 0 0.256-0.093 0.294-0.225s-0.015-0.271-0.132-0.349c-0.79-0.496-1.193-1.433-1.023-2.379 0.17-0.93 0.907-1.666 1.829-1.844 0.697-0.132 1.402 0.046 1.937 0.488s0.837 1.093 0.837 1.782c0 0.798-0.403 1.526-1.077 1.945-0.116 0.070-0.17 0.217-0.132 0.349s0.163 0.225 0.294 0.225h3.448c0.566 0 1.023 0.457 1.023 1.023v12.877z"></path>
</svg>
