<!-- Generated by IcoMoon.io -->
<svg version="1.1" xmlns="http://www.w3.org/2000/svg" width="32" height="32" viewBox="0 0 32 32">
<title>reply</title>
<path fill="#fff" d="M31.334 8.709l-5.3-4.765c-0.201-0.178-0.504-0.163-0.69 0.039-0.178 0.201-0.163 0.511 0.039 0.69l4.416 3.975h-12.908c-6.57 0-11.909 5.346-11.909 11.909v0.108c0 0.271 0.217 0.488 0.488 0.488s0.488-0.217 0.488-0.488v-0.108c0-6.028 4.905-10.94 10.933-10.94h12.978l-4.037 4.494c-0.178 0.201-0.163 0.511 0.039 0.69 0.093 0.085 0.209 0.124 0.325 0.124 0.132 0 0.263-0.054 0.364-0.163l4.812-5.362c0.178-0.201 0.163-0.511-0.039-0.69z"></path>
<path fill="#fff" d="M27.94 17.542c-0.271 0-0.488 0.217-0.488 0.488v9.623c0 0.659-0.535 1.201-1.201 1.201h-23.578c-0.659 0-1.201-0.535-1.201-1.201v-23.299c0-0.659 0.535-1.201 1.201-1.201h14.807c0.271 0 0.488-0.217 0.488-0.488s-0.217-0.488-0.488-0.488h-14.807c-1.201 0-2.17 0.976-2.17 2.169v23.291c0 1.201 0.976 2.169 2.17 2.169h23.578c1.201 0 2.169-0.976 2.169-2.169v-9.608c0-0.271-0.217-0.488-0.48-0.488z"></path>
</svg>
