<!-- Generated by IcoMoon.io -->
<svg version="1.1" xmlns="http://www.w3.org/2000/svg" width="32" height="32" viewBox="0 0 32 32">
<title>report</title>
<path fill="#fff" d="M28.839 8.415c0-0.046-0.015-0.093-0.031-0.132-0.008-0.015-0.008-0.031-0.015-0.046-0.023-0.054-0.054-0.101-0.101-0.147l-7.431-7.438c-0.047-0.046-0.093-0.077-0.147-0.101-0.015-0.008-0.031-0.008-0.047-0.015-0.047-0.015-0.085-0.023-0.132-0.023-0.015 0-0.023-0.008-0.031-0.008h-16.566c-0.651 0-1.178 0.527-1.178 1.178v28.63c0 0.651 0.527 1.178 1.178 1.178h23.322c0.651 0 1.178-0.527 1.178-1.178v-21.865c0-0.015 0-0.023 0-0.031zM21.416 2.247l5.679 5.679h-5.679v-5.679zM27.661 30.474h-23.322c-0.085 0-0.155-0.070-0.155-0.155v-28.637c0-0.085 0.070-0.155 0.155-0.155h16.054v6.919c0 0.279 0.232 0.511 0.511 0.511h6.911v21.362c0 0.085-0.070 0.155-0.155 0.155z"></path>
<path fill="#fff" d="M7.725 5.145h9.259c0.279 0 0.511-0.232 0.511-0.511s-0.232-0.511-0.511-0.511h-9.259c-0.279 0-0.511 0.232-0.511 0.511s0.232 0.511 0.511 0.511z"></path>
<path fill="#fff" d="M7.725 8.050h7.252c0.279 0 0.511-0.232 0.511-0.511s-0.232-0.511-0.511-0.511h-7.252c-0.279 0-0.511 0.232-0.511 0.511s0.232 0.511 0.511 0.511z"></path>
<path fill="#fff" d="M7.725 10.948h8.593c0.279 0 0.511-0.232 0.511-0.511s-0.232-0.511-0.511-0.511h-8.593c-0.279 0-0.511 0.232-0.511 0.511 0 0.287 0.232 0.511 0.511 0.511z"></path>
<path fill="#fff" d="M16.318 27.522h-8.593c-0.279 0-0.511 0.232-0.511 0.511s0.232 0.511 0.511 0.511h8.593c0.279 0 0.511-0.232 0.511-0.511s-0.232-0.511-0.511-0.511z"></path>
<path fill="#fff" d="M24.275 14.218h-16.55c-0.279 0-0.511 0.232-0.511 0.511v10.073c0 0.279 0.232 0.511 0.511 0.511h16.55c0.279 0 0.511-0.232 0.511-0.511v-10.073c0-0.279-0.232-0.511-0.511-0.511zM23.764 24.291h-15.527v-9.050h15.52v9.050h0.008z"></path>
</svg>
