<!-- Generated by IcoMoon.io -->
<svg version="1.1" xmlns="http://www.w3.org/2000/svg" width="32" height="32" viewBox="0 0 32 32">
<title>reporting</title>
<path fill="#fff" d="M19.394 12.893l1.41 0.17-5.238 3.169-2.1-2.053c-0.132-0.132-0.349-0.139-0.496-0.023l-5.455 4.385c-0.163 0.132-0.186 0.364-0.054 0.527 0.077 0.093 0.178 0.139 0.294 0.139 0.085 0 0.163-0.023 0.232-0.085l5.191-4.176 2.069 2.022c0.124 0.116 0.31 0.139 0.457 0.054l5.741-3.479-0.209 1.736c-0.023 0.201 0.124 0.395 0.325 0.418 0.015 0 0.031 0 0.047 0 0.186 0 0.349-0.139 0.372-0.325l0.302-2.503c0-0.015 0-0.031 0-0.046 0-0.023 0-0.046-0.008-0.070-0.008-0.031-0.015-0.062-0.031-0.093-0.008-0.008-0.008-0.015-0.008-0.023s-0.008-0.008-0.008-0.008c-0.023-0.039-0.054-0.062-0.085-0.093-0.008 0-0.008-0.008-0.015-0.008-0.039-0.023-0.077-0.039-0.116-0.054-0.008 0-0.008 0-0.015-0.008-0.015 0-0.023-0.008-0.039-0.015l-2.479-0.302c-0.209-0.023-0.395 0.124-0.418 0.325s0.124 0.387 0.333 0.418z"></path>
<path fill="#fff" d="M25.166 27.041h-2.882v-9.577c0-0.209-0.17-0.372-0.372-0.372s-0.372 0.17-0.372 0.372v9.577h-3.285v-8.446c0-0.209-0.17-0.372-0.372-0.372s-0.372 0.17-0.372 0.372v8.446h-3.223v-7.082c0-0.209-0.17-0.372-0.372-0.372s-0.372 0.17-0.372 0.372v7.082h-3.223v-3.665c0-0.209-0.17-0.372-0.372-0.372-0.209 0-0.372 0.17-0.372 0.372v3.665h-2.743c-0.209 0-0.372 0.17-0.372 0.372 0 0.209 0.17 0.372 0.372 0.372h18.34c0.209 0 0.372-0.17 0.372-0.372s-0.17-0.372-0.38-0.372z"></path>
<path fill="#fff" d="M28.816 8.353c0-0.031-0.008-0.070-0.023-0.101-0.008-0.015-0.008-0.023-0.015-0.039-0.015-0.039-0.039-0.077-0.070-0.108l-7.492-7.492c-0.031-0.031-0.070-0.054-0.108-0.070-0.015-0.008-0.023-0.008-0.039-0.015-0.031-0.008-0.062-0.015-0.093-0.015-0.008 0-0.015-0.008-0.023-0.008h-16.721c-0.581 0-1.046 0.473-1.046 1.046v28.901c0 0.581 0.473 1.046 1.046 1.046h23.539c0.581 0 1.046-0.473 1.046-1.046v-22.075c0-0.008 0-0.015 0-0.023zM21.323 1.782l6.222 6.222h-6.222v-6.222zM27.77 30.745h-23.539c-0.163 0-0.302-0.132-0.302-0.302v-28.893c0-0.163 0.132-0.302 0.302-0.302h16.341v7.121c0 0.209 0.17 0.372 0.372 0.372h7.121v21.695c0.008 0.178-0.132 0.31-0.294 0.31z"></path>
<path fill="#fff" d="M7.647 4.905h9.344c0.209 0 0.372-0.17 0.372-0.372s-0.17-0.372-0.372-0.372h-9.344c-0.209 0-0.372 0.17-0.372 0.372s0.17 0.372 0.372 0.372z"></path>
<path fill="#fff" d="M7.647 7.833h7.322c0.209 0 0.372-0.17 0.372-0.372 0-0.209-0.17-0.372-0.372-0.372h-7.322c-0.209 0-0.372 0.17-0.372 0.372s0.17 0.372 0.372 0.372z"></path>
<path fill="#fff" d="M7.647 10.762h8.67c0.209 0 0.372-0.17 0.372-0.372 0-0.209-0.17-0.372-0.372-0.372h-8.67c-0.209 0-0.372 0.17-0.372 0.372 0 0.209 0.17 0.372 0.372 0.372z"></path>
</svg>
