<!-- Generated by IcoMoon.io -->
<svg version="1.1" xmlns="http://www.w3.org/2000/svg" width="32" height="32" viewBox="0 0 32 32">
<title>research</title>
<path fill="#fff" d="M8.508 18.712c-1.224 0-2.216 0.992-2.216 2.216s0.992 2.216 2.216 2.216 2.216-0.992 2.216-2.216-1-2.216-2.216-2.216zM8.508 22.377c-0.798 0-1.457-0.651-1.457-1.457 0-0.798 0.651-1.457 1.457-1.457s1.457 0.651 1.457 1.457-0.659 1.457-1.457 1.457z"></path>
<path fill="#fff" d="M27.901 22.144h-13.583c0.085-0.395 0.124-0.806 0.124-1.216 0-2.766-1.891-5.137-4.548-5.772 0.147-1.17 0.535-2.27 1.147-3.277 0.093-0.147 0.070-0.333-0.046-0.457l-2.72-2.882c-0.077-0.085-0.186-0.124-0.302-0.116s-0.217 0.062-0.287 0.155c-1.588 2.17-2.448 4.734-2.495 7.423-1.65 1.108-2.627 2.937-2.627 4.936 0 2.046 1.062 3.952 2.797 5.036v1.503c-0.938 0.178-1.65 1.007-1.65 1.999 0 1.123 0.914 2.030 2.030 2.030h17.999c1.123 0 2.030-0.914 2.030-2.030 0-1.123-0.914-2.030-2.030-2.030h-2.743v-2.247h6.911c0.837 0 1.519-0.682 1.519-1.519 0-0.852-0.682-1.534-1.526-1.534zM27.901 24.422h-7.291c-0.209 0-0.38 0.17-0.38 0.38v3.014c0 0.209 0.17 0.38 0.38 0.38h3.13c0.697 0 1.271 0.573 1.271 1.271s-0.573 1.271-1.271 1.271h-17.991c-0.705 0-1.271-0.573-1.271-1.271 0-0.705 0.573-1.271 1.271-1.271 0.209 0 0.38-0.17 0.38-0.38v-2.030c0.008-0.139-0.054-0.287-0.186-0.364 0 0-0.008 0-0.008-0.008-1.604-0.922-2.603-2.642-2.603-4.486 0-1.798 0.907-3.432 2.425-4.393 0.124-0.070 0.201-0.194 0.201-0.333 0-2.448 0.721-4.796 2.084-6.803l2.2 2.34c-0.643 1.131-1.030 2.394-1.147 3.688-0.015 0.194 0.124 0.372 0.318 0.411 2.472 0.442 4.261 2.58 4.261 5.091 0 0.504-0.070 1.007-0.217 1.488-0.031 0.116-0.015 0.24 0.062 0.333 0.070 0.093 0.186 0.155 0.302 0.155h14.078c0.418 0 0.759 0.341 0.759 0.759 0.008 0.418-0.333 0.759-0.759 0.759z"></path>
<path fill="#fff" d="M20.912 16.651c-0.147 0.147-0.147 0.387 0 0.535 0.403 0.403 0.945 0.628 1.519 0.628s1.108-0.225 1.519-0.628c0.403-0.403 0.628-0.945 0.628-1.519s-0.225-1.108-0.628-1.519c-0.147-0.147-0.387-0.147-0.535 0l-2.503 2.503zM23.818 15.675c0 0.372-0.147 0.721-0.403 0.976-0.434 0.434-1.131 0.519-1.65 0.232l1.883-1.883c0.108 0.201 0.17 0.434 0.17 0.674z"></path>
<path fill="#fff" d="M7.469 4.951c0 0.434 0.17 0.845 0.465 1.139l9.468 10.158c0.341 0.341 0.79 0.527 1.271 0.527s0.93-0.186 1.271-0.527l2.991-2.991c0.674-0.674 0.697-1.767 0.070-2.472-0.015-0.031-0.039-0.062-0.070-0.085l-10.158-9.461c-0.31-0.318-0.721-0.496-1.162-0.496-0.364 0-0.713 0.124-1 0.341-0.38-0.372-0.891-0.589-1.433-0.589-1.131 0-2.053 0.922-2.053 2.053 0 0.566 0.232 1.093 0.635 1.48-0.194 0.279-0.294 0.597-0.294 0.922zM9.174 1.263c0.442 0 0.852 0.225 1.092 0.604 0.070 0.108 0.186 0.17 0.31 0.178 0.124 0.015 0.248-0.062 0.318-0.163 0.302-0.434 0.984-0.488 1.34-0.093 0.015 0.016 0.031 0.031 0.046 0.046l10.065 9.375c0.015 0.023 0.031 0.039 0.047 0.054 0.403 0.403 0.395 1.062-0.008 1.464l-2.991 2.991c-0.395 0.395-1.085 0.38-1.457 0.008l-9.453-10.158c-0.163-0.163-0.256-0.38-0.256-0.612 0-0.256 0.116-0.504 0.325-0.674 0.093-0.077 0.147-0.201 0.139-0.325s-0.077-0.232-0.186-0.302c-0.395-0.24-0.628-0.651-0.628-1.1 0-0.713 0.581-1.294 1.294-1.294z"></path>
</svg>
