<!-- Generated by IcoMoon.io -->
<svg version="1.1" xmlns="http://www.w3.org/2000/svg" width="32" height="32" viewBox="0 0 32 32">
<title>reservation</title>
<path fill="#fff" d="M31.21 24.453l-9.089-22.307c-0.263-0.651-0.767-1.162-1.418-1.433s-1.364-0.279-2.022-0.015l-4.796 1.953-0.155-0.38c-0.263-0.651-0.767-1.162-1.418-1.433s-1.364-0.279-2.022-0.015l-8.058 3.285c-0.651 0.263-1.162 0.767-1.433 1.418-0.271 0.659-0.271 1.371-0.008 2.022l9.089 22.307c0.418 1.023 1.402 1.643 2.448 1.643 0.333 0 0.666-0.062 0.992-0.194l4.796-1.953 0.155 0.38c0.263 0.651 0.767 1.162 1.418 1.433 0.333 0.139 0.674 0.209 1.023 0.209 0.333 0 0.674-0.062 1-0.194l8.058-3.285c0.651-0.263 1.162-0.767 1.433-1.418s0.271-1.371 0.008-2.022zM12.955 30.404c-0.852 0.349-1.836-0.062-2.177-0.922l-9.089-22.299c-0.17-0.411-0.163-0.868 0.008-1.278s0.496-0.728 0.914-0.899l1.767-0.721 10.344 25.406-1.767 0.713zM17.054 28.738l-10.352-25.406 3.959-1.612c0.411-0.17 0.868-0.163 1.278 0.008s0.728 0.496 0.899 0.914l0.155 0.38-2.371 0.969c-1.348 0.55-1.999 2.092-1.449 3.44l8.57 21.021-0.69 0.287zM30.303 26.096c-0.17 0.411-0.496 0.728-0.914 0.899l-8.058 3.285c-0.411 0.17-0.868 0.163-1.278-0.008s-0.728-0.496-0.899-0.914l-9.081-22.299c-0.349-0.852 0.062-1.836 0.922-2.185l2.766-1.131c0.015-0.008 0.031 0 0.054-0.008 0.015-0.008 0.031-0.023 0.046-0.031l5.191-2.115c0.209-0.085 0.418-0.124 0.628-0.124 0.659 0 1.286 0.395 1.55 1.046l9.089 22.307c0.163 0.411 0.163 0.868-0.015 1.278z"></path>
<path fill="#fff" d="M24.755 14.148l-5.122-1.829-1.023-2.51c-0.077-0.194-0.232-0.349-0.418-0.426s-0.387-0.077-0.573-0.008c-0.186 0.077-0.333 0.225-0.411 0.418-0.077 0.186-0.077 0.395 0.008 0.589l1.023 2.51-2.386 4.889c-0.101 0.201-0.108 0.426-0.023 0.628s0.24 0.356 0.457 0.434c0.093 0.031 0.194 0.008 0.256-0.070l2.813-3.146 0.922 2.262-0.604 1.178c-0.101 0.263 0 0.55 0.24 0.705 0.108 0.070 0.232 0.101 0.349 0.101 0.163 0 0.318-0.062 0.434-0.178l0.814-0.806 1.147 0.008c0.294 0 0.542-0.201 0.612-0.496 0.062-0.279-0.070-0.55-0.356-0.682l-1.232-0.411-0.914-2.247 4.207 0.287c0.093 0.008 0.186-0.046 0.232-0.132 0.101-0.201 0.108-0.426 0.031-0.628-0.101-0.209-0.263-0.364-0.48-0.442zM20.401 14.551c-0.085-0.008-0.163 0.031-0.209 0.101s-0.062 0.155-0.031 0.232l1.108 2.72c0.031 0.062 0.077 0.108 0.139 0.124l1.325 0.434c0.070 0.031 0.070 0.093 0.062 0.132 0 0.015-0.031 0.124-0.139 0.124v0l-1.247-0.008c-0.062 0-0.124 0.023-0.17 0.070l-0.883 0.876c-0.077 0.077-0.178 0.023-0.186 0.015-0.039-0.023-0.077-0.070-0.062-0.124l0.643-1.24c0.031-0.062 0.023-0.163 0-0.232l-1.093-2.689c-0.031-0.077-0.101-0.132-0.178-0.147-0.015 0-0.031 0-0.039 0-0.070 0-0.132 0.031-0.178 0.077l-2.929 3.285c-0.023-0.023-0.039-0.047-0.047-0.077-0.031-0.070-0.023-0.155 0.015-0.24l2.433-4.982c0.031-0.062 0.031-0.132 0.008-0.194l-1.061-2.611c-0.031-0.077-0.031-0.155 0-0.232 0.031-0.070 0.077-0.124 0.147-0.155 0.062-0.023 0.139-0.023 0.209 0 0.077 0.031 0.132 0.093 0.163 0.17l1.061 2.611c0.023 0.062 0.077 0.108 0.139 0.132l5.222 1.86c0.085 0.031 0.147 0.085 0.178 0.163 0.008 0.031 0.015 0.062 0.015 0.085l-4.416-0.279z"></path>
</svg>
