<!-- Generated by IcoMoon.io -->
<svg version="1.1" xmlns="http://www.w3.org/2000/svg" width="32" height="32" viewBox="0 0 32 32">
<title>response-time</title>
<path fill="#fff" d="M16 9.801c-5.982 0-10.847 4.866-10.847 10.847s4.866 10.847 10.847 10.847 10.847-4.866 10.847-10.847-4.866-10.847-10.847-10.847zM16 30.605c-5.486 0-9.956-4.471-9.956-9.956s4.471-9.956 9.956-9.956 9.956 4.471 9.956 9.956-4.471 9.956-9.956 9.956z"></path>
<path fill="#fff" d="M20.339 20.161h-3.913v-5.61c0-0.248-0.201-0.449-0.449-0.449s-0.449 0.201-0.449 0.449v6.028c0 0.201 0.132 0.364 0.31 0.418 0.062 0.031 0.132 0.062 0.209 0.062h4.285c0.248 0 0.449-0.201 0.449-0.449 0.008-0.248-0.194-0.449-0.442-0.449z"></path>
<path fill="#fff" d="M11.018 7.438c1.519 0.271 3.293 0.411 5.122 0.411 4.711 0 9.476-0.969 9.476-2.828 0-1.813-4.54-2.782-9.135-2.82l0.907-0.938c0.17-0.178 0.163-0.457-0.015-0.628s-0.457-0.163-0.628 0.015l-1.658 1.728c-0.085 0.085-0.124 0.201-0.124 0.318s0.054 0.232 0.139 0.31l1.728 1.658c0.085 0.085 0.201 0.124 0.31 0.124 0.116 0 0.232-0.046 0.325-0.139 0.17-0.178 0.163-0.457-0.015-0.628l-0.969-0.922c5.408 0.054 8.236 1.271 8.236 1.929 0 0.674-2.944 1.937-8.585 1.937-1.782 0-3.502-0.139-4.967-0.395-0.24-0.046-0.473 0.116-0.519 0.364-0.031 0.225 0.132 0.457 0.372 0.504z"></path>
</svg>
