<!-- Generated by IcoMoon.io -->
<svg version="1.1" xmlns="http://www.w3.org/2000/svg" width="32" height="32" viewBox="0 0 32 32">
<title>restaurant</title>
<path fill="#fff" d="M16.225 1.255c-0.24 0-0.434 0.194-0.434 0.434v7.888c0 1.852-1.511 3.363-3.363 3.363s-3.363-1.511-3.363-3.363v-7.888c0-0.24-0.194-0.434-0.434-0.434s-0.434 0.194-0.434 0.434v7.888c0 1.821 1.162 3.37 2.782 3.967v2.51c-0.542 0.426-0.891 1.093-0.891 1.836v11.243c0 1.294 1.054 2.34 2.34 2.34s2.34-1.054 2.34-2.34v-11.25c0-0.744-0.349-1.41-0.891-1.836v-2.518c1.612-0.597 2.766-2.146 2.766-3.959v-7.88c0.008-0.24-0.186-0.434-0.418-0.434zM12.436 30.613c-0.814 0-1.48-0.666-1.48-1.48v-10.197h2.96v10.197c0 0.821-0.659 1.48-1.48 1.48zM13.916 18.076h-2.96v-0.186c0-0.814 0.666-1.48 1.48-1.48s1.48 0.666 1.48 1.48v0.186zM13.025 15.62c-0.186-0.046-0.387-0.077-0.589-0.077s-0.403 0.031-0.589 0.077v-1.867c0.194 0.023 0.38 0.046 0.581 0.046s0.403-0.015 0.597-0.046v1.867z"></path>
<path fill="#fff" d="M11.057 10.762c0.24 0 0.434-0.194 0.434-0.434v-7.369c0-0.24-0.194-0.434-0.434-0.434s-0.434 0.194-0.434 0.434v7.369c0 0.24 0.194 0.434 0.434 0.434z"></path>
<path fill="#fff" d="M13.924 10.762c0.24 0 0.434-0.194 0.434-0.434v-7.369c0-0.24-0.194-0.434-0.434-0.434s-0.434 0.194-0.434 0.434v7.369c0 0.24 0.194 0.434 0.434 0.434z"></path>
<path fill="#fff" d="M23.795 1.79c0-0.442-0.225-0.852-0.597-1.085-0.38-0.24-0.852-0.263-1.263-0.070-2.239 1.069-3.742 4.416-3.742 8.329 0 2.41 0.589 4.664 1.635 6.315-0.566 0.449-0.93 1.139-0.93 1.914v11.855c0 1.348 1.1 2.448 2.448 2.448s2.448-1.1 2.448-2.448v-27.258zM19.053 8.965c0-3.533 1.333-6.632 3.254-7.554 0.147-0.070 0.302-0.062 0.434 0.023 0.124 0.077 0.194 0.209 0.194 0.356v13.544c-0.426-0.364-0.984-0.589-1.588-0.589-0.263 0-0.519 0.046-0.759 0.124-0.976-1.495-1.534-3.618-1.534-5.904zM21.346 15.613c0.876 0 1.581 0.713 1.581 1.581v0.225h-3.169v-0.225c0.008-0.876 0.713-1.581 1.588-1.581zM21.346 30.636c-0.876 0-1.581-0.713-1.581-1.581v-10.77h3.169v10.77c-0.008 0.868-0.713 1.581-1.588 1.581z"></path>
</svg>
