<!-- Generated by IcoMoon.io -->
<svg version="1.1" xmlns="http://www.w3.org/2000/svg" width="32" height="32" viewBox="0 0 32 32">
<title>revenues-up</title>
<path fill="#fff" d="M30.985 29.071h-26.995c-0.775 0-1.379-0.217-1.798-0.635-0.69-0.705-0.666-1.79-0.666-1.821v-24.081c0-0.287-0.232-0.511-0.511-0.511s-0.511 0.232-0.511 0.511v24.058c0 0.062-0.039 1.519 0.945 2.541 0.612 0.635 1.464 0.961 2.534 0.961h26.995c0.287 0 0.511-0.232 0.511-0.511s-0.225-0.511-0.504-0.511z"></path>
<path fill="#fff" d="M5.532 4.967h3.89c0.070 0 0.085-0.039 0.085-0.085v-0.31c0-0.085-0.015-0.108-0.093-0.108h-2.603c0.085-1.046 0.426-1.86 1.635-1.86 0.566 0 1.178 0.077 1.604 0.132 0.124 0.015 0.163-0.039 0.178-0.108l0.054-0.271c0.015-0.085 0.008-0.155-0.124-0.209-0.511-0.201-1.34-0.248-1.72-0.248-1.743 0-2.286 1.17-2.41 2.565h-0.488c-0.077 0-0.108 0.039-0.108 0.085v0.333c0.008 0.077 0.046 0.085 0.101 0.085z"></path>
<path fill="#fff" d="M5.532 5.904l0.496-0.008c0.116 1.379 0.674 2.526 2.41 2.526 0.372 0 1.263-0.070 1.728-0.256 0.124-0.046 0.124-0.116 0.108-0.209l-0.046-0.248c-0.015-0.070-0.054-0.132-0.194-0.116-0.449 0.054-1.007 0.132-1.596 0.132-1.154-0.008-1.526-0.829-1.619-1.836h2.603c0.070 0 0.085-0.031 0.085-0.077v-0.31c0-0.085-0.031-0.116-0.108-0.116h-3.859c-0.077 0-0.108 0.046-0.108 0.085v0.325c0.008 0.085 0.046 0.108 0.101 0.108z"></path>
<path fill="#fff" d="M21.044 7.105v0h3.154l-16.395 16.364c-0.201 0.201-0.201 0.527 0 0.728 0.101 0.101 0.232 0.147 0.364 0.147s0.263-0.047 0.364-0.147l16.395-16.372v3.192c0 0.287 0.232 0.511 0.511 0.511 0.287 0 0.511-0.232 0.511-0.511v-4.424c0-0.023-0.008-0.039-0.015-0.062-0.008-0.046-0.008-0.085-0.023-0.132-0.023-0.054-0.054-0.101-0.093-0.147-0.008-0.008-0.008-0.016-0.015-0.023v0 0c-0.047-0.046-0.108-0.085-0.17-0.108s-0.132-0.039-0.194-0.039v0h-4.393c-0.287 0-0.511 0.232-0.511 0.511 0 0.287 0.225 0.511 0.511 0.511z"></path>
</svg>
