<!-- Generated by IcoMoon.io -->
<svg version="1.1" xmlns="http://www.w3.org/2000/svg" width="32" height="32" viewBox="0 0 32 32">
<title>rocket</title>
<path fill="#fff" d="M31.326 1.007c-0.124-0.124-0.294-0.186-0.473-0.155-0.116 0.015-2.844 0.418-5.067 1.046-1.154 0.325-2.603 0.992-3.618 1.488-0.806 0.403-1.542 0.914-2.185 1.534l-4.323 4.161-4.835-0.589-9.143 8.802 5.803 0.705 2.758 2.867-1.1 1.054c-0.225 0.217-0.232 0.566-0.015 0.79 0.108 0.116 0.256 0.17 0.403 0.17 0.139 0 0.279-0.054 0.387-0.155l1.108-1.061 2.441 2.534 0.48 5.827 9.143-8.802-0.403-4.85 4.486-4.316c0.519-0.504 0.969-1.077 1.317-1.712 0.589-1.062 1.371-2.588 1.767-3.812 0.713-2.193 1.216-4.905 1.232-5.021 0.031-0.194-0.031-0.38-0.163-0.504zM11.219 9.662l3.394 0.411-7.066 6.803-3.394-0.411 7.066-6.803zM14.861 27.584l-0.279-3.409 7.066-6.803 0.279 3.409-7.066 6.803zM29.187 6.183c-0.387 1.201-1.216 2.782-1.681 3.618-0.294 0.542-0.674 1.030-1.116 1.449l-12.382 11.909-2.185-2.27 7.035-6.764c0.225-0.217 0.232-0.566 0.015-0.79s-0.566-0.225-0.79-0.015l-7.035 6.764-2.51-2.603 12.219-11.762c0.558-0.535 1.201-0.992 1.906-1.34 0.969-0.48 2.348-1.116 3.425-1.418 1.449-0.411 3.169-0.721 4.145-0.891-0.201 0.976-0.581 2.681-1.046 4.114z"></path>
<path fill="#fff" d="M22.547 6.051v0c-0.976 0.938-1.007 2.503-0.070 3.479 0.48 0.504 1.123 0.752 1.774 0.752 0.612 0 1.232-0.225 1.705-0.69 0.976-0.938 1.007-2.503 0.070-3.479-0.945-0.969-2.503-1-3.479-0.062zM25.182 8.794c-0.535 0.511-1.387 0.496-1.898-0.039s-0.496-1.387 0.039-1.898 1.387-0.496 1.898 0.039 0.496 1.387-0.039 1.898z"></path>
<path fill="#fff" d="M10.995 23.175c-0.302-0.008-0.566 0.24-0.573 0.542 0 0.155-0.116 3.603-3.099 5.664-0.124-0.659-0.132-1.743-0.054-2.642 0.023-0.279-0.155-0.527-0.426-0.589s-0.542 0.077-0.651 0.333c-0.046 0.139-1.387 3.347-4.564 3.549 0.186-3.324 3.587-4.602 3.735-4.657 0.263-0.093 0.411-0.364 0.356-0.635s-0.302-0.449-0.573-0.449c-0.907 0.047-1.991 0-2.642-0.147 2.1-2.805 5.4-2.882 5.749-2.882 0.023 0 0.031 0 0.039 0 0.302 0 0.55-0.24 0.558-0.55s-0.24-0.566-0.55-0.566c-0.194 0-4.649-0.039-7.113 3.959-0.147 0.24-0.093 0.558 0.132 0.736 0.395 0.302 1.1 0.457 1.805 0.535-1.24 0.922-2.634 2.518-2.619 5.005l0.008 0.24c0.008 0.287 0.24 0.527 0.535 0.535 0.093 0.008 0.186 0.008 0.279 0.008 2.324 0 3.874-1.278 4.804-2.433 0.046 0.713 0.17 1.418 0.465 1.821 0.163 0.232 0.48 0.302 0.728 0.163 4.091-2.309 4.215-6.772 4.223-6.958 0.008-0.318-0.24-0.573-0.55-0.581z"></path>
</svg>
