<!-- Generated by IcoMoon.io -->
<svg version="1.1" xmlns="http://www.w3.org/2000/svg" width="32" height="32" viewBox="0 0 32 32">
<title>sad-face</title>
<path fill="#fff" d="M15.613 19.030c-2.751 0-5.346 1.464-6.764 3.828-0.093 0.155-0.186 0.318-0.263 0.48-0.124 0.248-0.023 0.55 0.225 0.674 0.070 0.039 0.147 0.054 0.225 0.054 0.186 0 0.364-0.101 0.449-0.279 0.070-0.139 0.147-0.279 0.232-0.418 1.255-2.092 3.463-3.339 5.904-3.339 2.596 0 4.943 1.433 6.129 3.742 0.124 0.248 0.426 0.341 0.674 0.217s0.341-0.434 0.217-0.674c-1.364-2.642-4.052-4.285-7.028-4.285z"></path>
<path fill="#fff" d="M11.064 12.994c0.279 0 0.504-0.225 0.504-0.504v-3.332c0-0.279-0.225-0.504-0.504-0.504s-0.504 0.225-0.504 0.504v3.332c0 0.279 0.225 0.504 0.504 0.504z"></path>
<path fill="#fff" d="M20.525 12.994c0.279 0 0.504-0.225 0.504-0.504v-3.332c0-0.279-0.225-0.504-0.504-0.504s-0.504 0.225-0.504 0.504v3.332c0 0.279 0.225 0.504 0.504 0.504z"></path>
<path fill="#fff" d="M16 0.504c-8.546 0-15.496 6.95-15.496 15.496s6.95 15.496 15.496 15.496 15.496-6.95 15.496-15.496-6.95-15.496-15.496-15.496zM16 30.489c-7.988 0-14.489-6.501-14.489-14.489s6.501-14.489 14.489-14.489 14.489 6.501 14.489 14.489-6.501 14.489-14.489 14.489z"></path>
</svg>
