<!-- Generated by IcoMoon.io -->
<svg version="1.1" xmlns="http://www.w3.org/2000/svg" width="32" height="32" viewBox="0 0 32 32">
<title>safe-dep-box</title>
<path fill="#fff" d="M24.337 10.321h-0.093v-3.928c0-3.247-2.642-5.889-5.896-5.889h-4.703c-3.247 0-5.896 2.642-5.896 5.889v3.921h-0.093c-2.301 0-4.169 1.867-4.169 4.169v12.839c0 2.301 1.867 4.169 4.169 4.169h16.666c2.301 0 4.169-1.867 4.169-4.169v-12.831c0.015-2.301-1.86-4.169-4.153-4.169zM8.639 6.392c0-2.758 2.247-5.005 5.005-5.005h4.703c2.758 0 5.005 2.247 5.005 5.005v3.921h-14.714v-3.921zM27.615 27.328c0 1.813-1.472 3.285-3.285 3.285h-16.666c-1.813 0-3.285-1.472-3.285-3.285v-12.839c0-1.813 1.472-3.285 3.285-3.285h16.666c1.813 0 3.285 1.472 3.285 3.285v12.839z"></path>
<path fill="#fff" d="M16 16.411c-1.519 0-2.751 1.232-2.751 2.751 0 0.992 0.535 1.906 1.387 2.386v2.619c0 0.752 0.612 1.356 1.356 1.356s1.356-0.612 1.356-1.356v-2.619c0.852-0.488 1.387-1.395 1.387-2.386 0.015-1.519-1.216-2.751-2.735-2.751zM16.736 20.866c-0.163 0.070-0.271 0.232-0.271 0.411v2.89c0 0.256-0.209 0.473-0.473 0.473s-0.473-0.209-0.473-0.473v-2.89c0-0.178-0.108-0.333-0.271-0.411-0.682-0.294-1.123-0.969-1.123-1.705 0-1.023 0.837-1.86 1.86-1.86s1.86 0.837 1.86 1.86c0.015 0.736-0.426 1.41-1.108 1.705z"></path>
</svg>
