<!-- Generated by IcoMoon.io -->
<svg version="1.1" xmlns="http://www.w3.org/2000/svg" width="32" height="32" viewBox="0 0 32 32">
<title>sail</title>
<path fill="#fff" d="M31.434 22.423c-0.085-0.155-0.256-0.24-0.434-0.225-0.077 0.008-7.415 0.814-14.551 0.852v-18.417c0.783-0.201 1.356-0.907 1.356-1.743 0-1-0.814-1.805-1.805-1.805-1 0-1.805 0.814-1.805 1.805 0 0.744 0.449 1.387 1.092 1.658l-9.499 15.341c-0.085 0.139-0.093 0.31-0.008 0.457 0.077 0.139 0.225 0.232 0.387 0.232h9.383v2.479c-7.299-0.031-14.481-0.837-14.551-0.852-0.178-0.023-0.349 0.062-0.434 0.217-0.093 0.155-0.077 0.341 0.023 0.488l5.679 7.833c0.085 0.116 0.217 0.186 0.364 0.186h18.627c0.139 0 0.279-0.070 0.356-0.178l5.796-7.833c0.101-0.155 0.116-0.341 0.023-0.496zM16 1.976c0.504 0 0.914 0.411 0.914 0.914s-0.411 0.907-0.914 0.907-0.914-0.411-0.914-0.914 0.411-0.907 0.914-0.907zM6.981 19.673l8.57-13.854v13.854h-8.569zM25.027 30.024h-18.169l-4.951-6.834c2.301 0.232 8.205 0.752 14.102 0.752 5.757 0 11.754-0.527 14.086-0.752l-5.067 6.834z"></path>
</svg>
