<!-- Generated by IcoMoon.io -->
<svg version="1.1" xmlns="http://www.w3.org/2000/svg" width="32" height="32" viewBox="0 0 32 32">
<title>sales-and-revenue</title>
<path fill="#fff" d="M25.437 9.468c2.433 0 4.416-1.976 4.416-4.416s-1.984-4.416-4.416-4.416-4.416 1.976-4.416 4.416 1.984 4.416 4.416 4.416zM25.437 1.596c1.906 0 3.456 1.55 3.456 3.456s-1.55 3.456-3.456 3.456-3.456-1.55-3.456-3.456 1.55-3.456 3.456-3.456z"></path>
<path fill="#fff" d="M31.016 30.404h-3.448v-18.952c0-0.263-0.217-0.48-0.48-0.48h-3.030c-0.263 0-0.48 0.217-0.48 0.48v18.952h-2.518v-15.589c0-0.263-0.217-0.48-0.48-0.48h-3.030c-0.263 0-0.48 0.217-0.48 0.48v15.589h-2.503v-12.769c0-0.263-0.217-0.48-0.48-0.48h-3.022c-0.263 0-0.48 0.217-0.48 0.48v12.769h-2.518v-7.175c0-0.263-0.217-0.48-0.48-0.48h-3.022c-0.263 0-0.48 0.217-0.48 0.48v7.175h-3.099c-0.263 0-0.48 0.217-0.48 0.48s0.217 0.48 0.48 0.48h30.040c0.263 0 0.48-0.217 0.48-0.48-0.008-0.271-0.225-0.48-0.488-0.48zM24.546 11.924h2.069v18.472h-2.069v-18.472zM18.046 15.295h2.069v15.109h-2.069v-15.109zM11.545 18.115h2.069v12.289h-2.069v-12.289zM5.044 23.709h2.069v6.694h-2.069v-6.694z"></path>
<path fill="#fff" d="M2.053 21.617c0.124 0 0.248-0.047 0.341-0.139l15.613-15.613 0.008 2.952c0 0.263 0.217 0.48 0.48 0.48v0c0.263 0 0.48-0.217 0.48-0.48l-0.008-4.068c0.008-0.077 0-0.155-0.031-0.232-0.070-0.178-0.24-0.31-0.442-0.31v0h-4.083c-0.263 0-0.48 0.217-0.48 0.48s0.217 0.48 0.48 0.48v0h2.96l-15.659 15.636c-0.186 0.186-0.186 0.488 0 0.674 0.101 0.093 0.217 0.139 0.341 0.139z"></path>
<path fill="#fff" d="M25.36 5.3c0.364 0.070 0.504 0.124 0.504 0.364 0 0.209-0.155 0.31-0.535 0.31-0.31 0-0.752-0.046-1.038-0.077-0.17-0.016-0.209-0.016-0.248 0.147l-0.070 0.31c-0.023 0.124-0.023 0.201 0.194 0.263 0.256 0.101 0.604 0.139 0.891 0.163v0.418c0 0.077 0.031 0.124 0.132 0.124h0.488c0.101 0 0.116-0.070 0.116-0.124v-0.449c0.604-0.108 1.093-0.418 1.093-1.123 0-0.883-0.728-1.030-1.402-1.17-0.364-0.070-0.488-0.108-0.488-0.31s0.147-0.294 0.473-0.294c0.364 0 0.651 0.023 0.914 0.062 0.178 0.023 0.232 0.046 0.271-0.124l0.077-0.325c0.023-0.116 0.015-0.186-0.186-0.263-0.217-0.077-0.527-0.124-0.759-0.139v-0.457c0-0.046-0.015-0.116-0.116-0.116h-0.488c-0.108 0-0.132 0.039-0.132 0.116v0.457c-0.682 0.093-1.093 0.488-1.093 1.116 0.008 0.79 0.721 0.976 1.402 1.123z"></path>
</svg>
