<!-- Generated by IcoMoon.io -->
<svg version="1.1" xmlns="http://www.w3.org/2000/svg" width="32" height="32" viewBox="0 0 32 32">
<title>sat-nav</title>
<path fill="#fff" d="M28.73 8.523h-12.32v-4.293c0-0.225-0.186-0.411-0.411-0.411s-0.411 0.186-0.411 0.411v4.293h-12.32c-1.286 0-2.332 1.046-2.332 2.332v18.301c0 1.286 1.046 2.332 2.332 2.332h25.461c1.286 0 2.332-1.046 2.332-2.332v-18.293c0-1.286-1.046-2.34-2.332-2.34zM30.241 29.164c0 0.837-0.682 1.511-1.511 1.511h-25.461c-0.837 0-1.511-0.682-1.511-1.511v-18.301c0-0.837 0.682-1.511 1.511-1.511h25.461c0.837 0 1.511 0.682 1.511 1.511v18.301z"></path>
<path fill="#fff" d="M26.538 12.591h-21.075c-0.225 0-0.411 0.186-0.411 0.411v14.016c0 0.015 0.008 0.023 0.008 0.039 0 0.031 0.008 0.054 0.016 0.077 0.008 0.031 0.016 0.054 0.031 0.077 0.008 0.008 0.008 0.023 0.016 0.031 0.016 0.015 0.023 0.031 0.039 0.047 0.008 0.008 0.016 0.015 0.016 0.023 0.031 0.031 0.070 0.054 0.116 0.077 0.008 0.008 0.016 0.008 0.031 0.008 0.046 0.015 0.093 0.031 0.139 0.031v0h21.075c0.015 0 0.023-0.008 0.039-0.008 0.023 0 0.054-0.008 0.077-0.015s0.054-0.015 0.077-0.031c0.023-0.015 0.039-0.023 0.062-0.039s0.047-0.039 0.062-0.062c0.008-0.008 0.023-0.015 0.023-0.023 0.008-0.008 0.008-0.023 0.015-0.031 0.015-0.023 0.023-0.047 0.031-0.077 0.008-0.023 0.015-0.054 0.015-0.077 0-0.015 0.008-0.023 0.008-0.039v-14.024c0-0.225-0.186-0.411-0.411-0.411zM16 26.197c-0.225 0-0.411 0.186-0.411 0.411h-8.771l8.879-5.904c0.077 0.077 0.178 0.132 0.294 0.132s0.225-0.054 0.294-0.132l8.895 5.904h-8.771c0-0.225-0.186-0.411-0.411-0.411zM5.873 20.424h8.771l-8.771 5.827v-5.827zM17.356 20.424h8.771v5.834l-8.771-5.834zM26.127 13.412v6.191h-20.254v-6.183l20.254-0.008z"></path>
<path fill="#fff" d="M16.69 29.040c0 0.381-0.309 0.69-0.69 0.69s-0.69-0.309-0.69-0.69c0-0.381 0.309-0.69 0.69-0.69s0.69 0.309 0.69 0.69z"></path>
<path fill="#fff" d="M13.954 11.374h4.099c0.225 0 0.411-0.186 0.411-0.411s-0.186-0.411-0.411-0.411h-4.099c-0.225 0-0.411 0.186-0.411 0.411s0.178 0.411 0.411 0.411z"></path>
<path fill="#fff" d="M16 21.439c-0.225 0-0.411 0.186-0.411 0.411v0.953c0 0.225 0.186 0.411 0.411 0.411s0.411-0.186 0.411-0.411v-0.953c0-0.225-0.186-0.411-0.411-0.411z"></path>
<path fill="#fff" d="M16 23.818c-0.225 0-0.411 0.186-0.411 0.411v0.953c0 0.225 0.186 0.411 0.411 0.411s0.411-0.186 0.411-0.411v-0.953c0-0.225-0.186-0.411-0.411-0.411z"></path>
<path fill="#fff" d="M7.252 15.411h4.703c0.225 0 0.411-0.186 0.411-0.411s-0.186-0.411-0.411-0.411h-4.703c-0.225 0-0.411 0.186-0.411 0.411s0.186 0.411 0.411 0.411z"></path>
<path fill="#fff" d="M7.252 17.17h4.703c0.225 0 0.411-0.186 0.411-0.411s-0.186-0.411-0.411-0.411h-4.703c-0.225 0-0.411 0.186-0.411 0.411s0.186 0.411 0.411 0.411z"></path>
<path fill="#fff" d="M13.699 7.167c0.178 0.139 0.434 0.108 0.573-0.070s0.108-0.434-0.070-0.573c-0.705-0.558-1.108-1.395-1.108-2.293 0-1.604 1.302-2.906 2.906-2.906s2.906 1.302 2.906 2.906c0 0.899-0.403 1.736-1.116 2.286-0.178 0.139-0.209 0.395-0.070 0.573 0.085 0.101 0.201 0.155 0.325 0.155 0.085 0 0.178-0.031 0.256-0.085 0.907-0.713 1.426-1.782 1.426-2.937 0-2.053-1.674-3.727-3.727-3.727s-3.727 1.674-3.727 3.727c0 1.162 0.519 2.231 1.426 2.944z"></path>
</svg>
