<!-- Generated by IcoMoon.io -->
<svg version="1.1" xmlns="http://www.w3.org/2000/svg" width="32" height="32" viewBox="0 0 32 32">
<title>satisfaction-emoticons-very-dissatisfied</title>
<path fill="#fff" d="M16 0.504c-8.546 0-15.496 6.95-15.496 15.496s6.95 15.496 15.496 15.496 15.496-6.95 15.496-15.496-6.95-15.496-15.496-15.496zM16 30.729c-8.12 0-14.729-6.609-14.729-14.729s6.609-14.729 14.729-14.729 14.729 6.609 14.729 14.729-6.609 14.729-14.729 14.729z"></path>
<path fill="#fff" d="M16 15.62c-4.943 0-8.965 4.021-8.965 8.965 0 0.209 0.17 0.38 0.38 0.38h17.17c0.209 0 0.38-0.17 0.38-0.38 0-4.943-4.021-8.965-8.965-8.965zM7.81 24.205c0.201-4.347 3.797-7.826 8.19-7.826s7.996 3.471 8.198 7.826h-16.387z"></path>
<path fill="#fff" d="M20.564 12.521c0.845 0 1.534-0.69 1.534-1.534 0-0.364-0.132-0.697-0.349-0.961l-2.696 0.721c-0.015 0.077-0.023 0.163-0.023 0.24 0 0.845 0.682 1.534 1.534 1.534z"></path>
<path fill="#fff" d="M10.94 12.521c0.845 0 1.534-0.69 1.534-1.534 0-0.085-0.008-0.163-0.023-0.24l-2.696-0.721c-0.217 0.263-0.349 0.597-0.349 0.961 0 0.845 0.682 1.534 1.534 1.534z"></path>
</svg>
