<!-- Generated by IcoMoon.io -->
<svg version="1.1" xmlns="http://www.w3.org/2000/svg" width="32" height="32" viewBox="0 0 32 32">
<title>satisfaction-emoticons-somewhat-satisfied</title>
<path fill="#fff" d="M16 0.504c-8.546 0-15.496 6.95-15.496 15.496s6.95 15.496 15.496 15.496 15.496-6.95 15.496-15.496-6.95-15.496-15.496-15.496zM16 30.729c-8.12 0-14.729-6.609-14.729-14.729s6.609-14.729 14.729-14.729 14.729 6.609 14.729 14.729-6.609 14.729-14.729 14.729z"></path>
<path fill="#fff" d="M23.864 20.3h-13.854c-0.821 0-1.495-0.666-1.495-1.495 0-0.209-0.17-0.38-0.38-0.38s-0.38 0.17-0.38 0.38c0 1.247 1.015 2.255 2.255 2.255h13.854c0.209 0 0.38-0.17 0.38-0.38s-0.17-0.38-0.38-0.38z"></path>
<path fill="#fff" d="M12.637 10.987c0 0.847-0.687 1.534-1.534 1.534s-1.534-0.687-1.534-1.534c0-0.847 0.687-1.534 1.534-1.534s1.534 0.687 1.534 1.534z"></path>
<path fill="#fff" d="M22.261 10.987c0 0.847-0.687 1.534-1.534 1.534s-1.534-0.687-1.534-1.534c0-0.847 0.687-1.534 1.534-1.534s1.534 0.687 1.534 1.534z"></path>
</svg>
