<!-- Generated by IcoMoon.io -->
<svg version="1.1" xmlns="http://www.w3.org/2000/svg" width="32" height="32" viewBox="0 0 32 32">
<title>satisfaction-emoticons-very-satisfied</title>
<path fill="#fff" d="M16 0.504c-8.546 0-15.496 6.95-15.496 15.496s6.95 15.496 15.496 15.496 15.496-6.95 15.496-15.496-6.95-15.496-15.496-15.496zM16 30.729c-8.12 0-14.729-6.609-14.729-14.729s6.609-14.729 14.729-14.729 14.729 6.609 14.729 14.729-6.609 14.729-14.729 14.729z"></path>
<path fill="#fff" d="M24.585 17.185h-17.17c-0.209 0-0.38 0.17-0.38 0.38 0 4.943 4.021 8.965 8.965 8.965s8.972-4.021 8.972-8.965c-0.008-0.209-0.178-0.38-0.387-0.38zM16 25.77c-4.393 0-7.988-3.471-8.19-7.826h16.387c-0.201 4.354-3.804 7.826-8.198 7.826z"></path>
<path fill="#fff" d="M12.614 12.134c0.070-0.178 0.108-0.364 0.108-0.566 0-0.845-0.69-1.534-1.534-1.534s-1.534 0.69-1.534 1.534c0 0.201 0.039 0.387 0.108 0.566h2.851z"></path>
<path fill="#fff" d="M22.237 12.134c0.070-0.178 0.108-0.364 0.108-0.566 0-0.845-0.69-1.534-1.534-1.534s-1.534 0.69-1.534 1.534c0 0.201 0.039 0.387 0.108 0.566h2.851z"></path>
</svg>
