<!-- Generated by IcoMoon.io -->
<svg version="1.1" xmlns="http://www.w3.org/2000/svg" width="32" height="32" viewBox="0 0 32 32">
<title>satisfaction-emoticons-dissatisfied</title>
<path fill="#fff" d="M16.008 19.177c-2.774 0-5.284 1.418-6.71 3.797-0.093 0.155-0.178 0.318-0.263 0.473-0.093 0.186-0.023 0.418 0.17 0.511 0.054 0.031 0.116 0.039 0.17 0.039 0.139 0 0.271-0.077 0.341-0.209 0.077-0.147 0.155-0.287 0.24-0.426 1.294-2.146 3.556-3.432 6.059-3.432 2.665 0 5.075 1.472 6.292 3.843 0.093 0.186 0.325 0.263 0.511 0.163 0.186-0.093 0.263-0.325 0.163-0.511-1.356-2.611-4.029-4.246-6.973-4.246z"></path>
<path fill="#fff" d="M16 0.504c-8.546 0-15.496 6.95-15.496 15.496s6.95 15.496 15.496 15.496 15.496-6.95 15.496-15.496-6.95-15.496-15.496-15.496zM16 30.729c-8.12 0-14.729-6.609-14.729-14.729s6.609-14.729 14.729-14.729 14.729 6.609 14.729 14.729-6.609 14.729-14.729 14.729z"></path>
<path fill="#fff" d="M20.812 12.637c0.845 0 1.534-0.69 1.534-1.534 0-0.201-0.039-0.387-0.108-0.566h-2.851c-0.070 0.178-0.108 0.364-0.108 0.566 0 0.845 0.69 1.534 1.534 1.534z"></path>
<path fill="#fff" d="M11.188 12.637c0.845 0 1.534-0.69 1.534-1.534 0-0.201-0.039-0.387-0.108-0.566h-2.851c-0.070 0.178-0.108 0.364-0.108 0.566 0 0.845 0.682 1.534 1.534 1.534z"></path>
</svg>
