<!-- Generated by IcoMoon.io -->
<svg version="1.1" xmlns="http://www.w3.org/2000/svg" width="32" height="32" viewBox="0 0 32 32">
<title>satisfaction-emoticons-satisfied</title>
<path fill="#fff" d="M24.12 19.704c-0.186-0.093-0.418-0.023-0.511 0.17-0.093 0.178-0.186 0.349-0.287 0.519-1.557 2.596-4.3 4.145-7.322 4.145-3.216 0-6.129-1.782-7.601-4.641-0.101-0.186-0.325-0.263-0.511-0.163-0.186 0.093-0.263 0.325-0.163 0.511 1.604 3.123 4.773 5.060 8.283 5.060 3.293 0 6.276-1.689 7.973-4.517 0.108-0.186 0.217-0.372 0.31-0.566s0.015-0.426-0.17-0.519z"></path>
<path fill="#fff" d="M16 0.504c-8.546 0-15.496 6.95-15.496 15.496s6.95 15.496 15.496 15.496 15.496-6.95 15.496-15.496-6.95-15.496-15.496-15.496zM16 30.729c-8.12 0-14.729-6.609-14.729-14.729s6.609-14.729 14.729-14.729 14.729 6.609 14.729 14.729-6.609 14.729-14.729 14.729z"></path>
<path fill="#fff" d="M12.467 12.149c0.070-0.178 0.108-0.364 0.108-0.566 0-0.845-0.69-1.534-1.534-1.534s-1.534 0.69-1.534 1.534c0 0.201 0.039 0.387 0.108 0.566h2.851z"></path>
<path fill="#fff" d="M22.090 12.149c0.070-0.178 0.108-0.364 0.108-0.566 0-0.845-0.69-1.534-1.534-1.534s-1.534 0.69-1.534 1.534c0 0.201 0.039 0.387 0.108 0.566h2.851z"></path>
</svg>
