<!-- Generated by IcoMoon.io -->
<svg version="1.1" xmlns="http://www.w3.org/2000/svg" width="32" height="32" viewBox="0 0 32 32">
<title>save-and-confirm</title>
<path fill="#fff" d="M30.714 5.641l-4.37-4.354c-0.504-0.504-1.17-0.775-1.883-0.775h-1.178v-0.008l-20.114 0.008c-1.472 0-2.665 1.193-2.665 2.658v25.662c0 1.472 1.193 2.665 2.665 2.665h25.662c1.472 0 2.665-1.193 2.665-2.665v-21.3c0-0.705-0.287-1.395-0.783-1.891zM6.687 1.588h15.504v10.034c0 0.659-0.542 1.201-1.201 1.201h-13.094c-0.666 0-1.201-0.542-1.201-1.201l-0.008-10.034zM30.412 28.831c0 0.876-0.713 1.581-1.581 1.581h-25.662c-0.876 0-1.581-0.713-1.581-1.581v-25.662c0-0.876 0.713-1.581 1.581-1.581h2.441v10.034c0 1.255 1.023 2.278 2.278 2.278h13.11c1.255 0 2.278-1.023 2.278-2.278v-10.034h1.178c0.418 0 0.821 0.163 1.116 0.465l4.37 4.354c0.294 0.294 0.465 0.705 0.465 1.123v21.3h0.008z"></path>
<path fill="#fff" d="M16.418 10.855h3.812c0.504 0 0.907-0.411 0.907-0.907v-5.493c0-0.504-0.411-0.907-0.907-0.907h-3.812c-0.504 0-0.907 0.411-0.907 0.907v5.493c-0.008 0.504 0.403 0.907 0.907 0.907zM16.589 4.626h3.479v5.153h-3.479v-5.153z"></path>
<path fill="#fff" d="M28.118 23.369h-3.37c-0.682 0-1.232 0.558-1.232 1.232v3.533c0 0.682 0.558 1.232 1.232 1.232h3.37c0.682 0 1.232-0.558 1.232-1.232v-3.533c0-0.682-0.55-1.232-1.232-1.232zM28.273 28.141c0 0.085-0.070 0.155-0.155 0.155h-3.37c-0.085 0-0.155-0.070-0.155-0.155v-3.533c0-0.085 0.070-0.155 0.155-0.155h3.37c0.085 0 0.155 0.070 0.155 0.155v3.533z"></path>
</svg>
