<!-- Generated by IcoMoon.io -->
<svg version="1.1" xmlns="http://www.w3.org/2000/svg" width="32" height="32" viewBox="0 0 32 32">
<title>search-travel</title>
<path fill="#fff" d="M16.713 25.445c0 0.394-0.319 0.713-0.713 0.713s-0.713-0.319-0.713-0.713c0-0.394 0.319-0.713 0.713-0.713s0.713 0.319 0.713 0.713z"></path>
<path fill="#fff" d="M17.658 13.676l-1.286-0.101c-0.356 0.015-0.426 0.527-0.093 0.666l1.1 0.457 0.457 1.1c0.139 0.333 0.651 0.263 0.666-0.093l-0.101-1.286 1.929-1.937 1.364 3.99c0.294 0.015 0.527-0.209 0.511-0.511l-0.287-5.075 1.836-1.836c0.209-0.209 0.209-0.542 0-0.744v0c-0.209-0.209-0.542-0.209-0.744 0l-1.836 1.836-5.075-0.287c-0.294-0.015-0.527 0.209-0.511 0.511l3.99 1.364-1.922 1.945z"></path>
<path fill="#fff" d="M29.094 2.82h-5.424c-1.1-0.434-2.286-0.666-3.502-0.666-0.008 0-0.015 0-0.023 0-1.209 0-2.379 0.232-3.479 0.666h-13.761c-1.325 0-2.402 1.077-2.402 2.402v20.378c0 1.046 0.674 1.929 1.604 2.262 0.031 0.504 0.232 0.992 0.612 1.371v0c0.186 0.186 0.411 0.333 0.643 0.442 0.279 0.124 0.573 0.178 0.86 0.178 0.558 0 1.1-0.217 1.511-0.628l1.24-1.232h22.129c1.325 0 2.402-1.077 2.402-2.402v-20.378c-0.008-1.317-1.085-2.394-2.41-2.394zM2.712 26.204c-0.225 0.232-0.387 0.496-0.488 0.783-0.519-0.256-0.883-0.783-0.883-1.395v-20.378c0-0.86 0.697-1.557 1.557-1.557h12.134c-0.581 0.372-1.131 0.806-1.635 1.309-0.612 0.62-1.123 1.302-1.542 2.038h-6.694c-0.232 0-0.418 0.186-0.418 0.418v15.969c0 0.209 0.163 0.38 0.364 0.411l-2.394 2.402zM5.927 22.966h-0.349v-15.124h5.865c-1.255 2.844-1.085 6.206 0.628 8.941l-6.144 6.183zM5.153 28.622c-0.38 0.38-0.945 0.488-1.441 0.271-0.139-0.062-0.279-0.155-0.395-0.271-0.504-0.504-0.504-1.333 0-1.836l9.6-9.662c0.139-0.139 0.163-0.364 0.046-0.535-2.34-3.44-1.906-8.081 1.038-11.041 1.635-1.635 3.82-2.549 6.144-2.557 0.008 0 0.015 0 0.023 0 2.317 0 4.502 0.899 6.144 2.534 3.401 3.386 3.417 8.918 0.023 12.32-2.937 2.952-7.578 3.409-11.033 1.093-0.163-0.108-0.387-0.093-0.535 0.054l-4.091 4.091-5.524 5.54zM26.421 18.913v4.052l-14.427-0.008 3.13-3.138c3.564 2.208 8.159 1.821 11.297-0.907zM30.66 25.592c0 0.86-0.697 1.557-1.557 1.557h-21.292l3.347-3.355 15.682 0.008c0.108 0 0.217-0.047 0.294-0.124s0.124-0.186 0.124-0.294v-5.308c3.37-3.75 3.262-9.546-0.356-13.141-0.488-0.488-1.030-0.914-1.596-1.278h3.789c0.86 0 1.557 0.697 1.557 1.557v20.378h0.008z"></path>
<path fill="#fff" d="M15.186 16.713c1.333 1.325 3.099 2.053 4.982 2.053 0.008 0 0.008 0 0.015 0 1.891-0.008 3.657-0.744 4.99-2.076 1.333-1.34 2.061-3.115 2.061-4.998-0.008-1.883-0.744-3.657-2.084-4.99-1.333-1.325-3.099-2.053-4.974-2.053-0.008 0-0.008 0-0.015 0-1.891 0.008-3.657 0.744-4.99 2.084-1.333 1.333-2.061 3.107-2.053 4.998-0.008 1.875 0.728 3.649 2.069 4.982v0zM13.947 11.715c0-1.666 0.643-3.223 1.813-4.401s2.735-1.829 4.393-1.836c0.008 0 0.008 0 0.015 0 1.658 0 3.215 0.643 4.385 1.813 1.178 1.178 1.829 2.735 1.836 4.401 0 1.658-0.643 3.223-1.813 4.401s-2.727 1.829-4.393 1.829c-0.008 0-0.008 0-0.015 0-1.658 0-3.215-0.643-4.385-1.813-1.185-1.17-1.829-2.727-1.836-4.393z"></path>
</svg>
