<!-- Generated by IcoMoon.io -->
<svg version="1.1" xmlns="http://www.w3.org/2000/svg" width="32" height="32" viewBox="0 0 32 32">
<title>search-flight</title>
<path fill="#fff" d="M13.273 2.673c-0.008 0-0.008 0-0.015 0-1.635 0-3.177 0.635-4.339 1.79-1.17 1.162-1.813 2.704-1.813 4.347s0.635 3.192 1.798 4.354 2.704 1.805 4.347 1.813c0.008 0 0.008 0 0.015 0 1.635 0 3.177-0.635 4.339-1.79 1.162-1.162 1.805-2.704 1.813-4.347 0-1.643-0.635-3.192-1.79-4.354-1.17-1.162-2.712-1.805-4.354-1.813zM17.1 12.692c-1.023 1.023-2.386 1.581-3.835 1.581 0 0-0.008 0-0.015 0-1.457 0-2.82-0.573-3.843-1.604v0c-1.030-1.030-1.588-2.394-1.588-3.851s0.573-2.82 1.604-3.843c1.023-1.023 2.386-1.588 3.835-1.588 0.008 0 0.008 0 0.015 0 1.457 0 2.82 0.573 3.843 1.604s1.588 2.394 1.588 3.851c-0.008 1.457-0.581 2.82-1.604 3.851z"></path>
<path fill="#fff" d="M28.49 21.501v0l-8.174-8.236c2.053-3.262 1.588-7.554-1.154-10.305-1.573-1.581-3.657-2.448-5.889-2.456-0.008 0-0.015 0-0.023 0-2.216 0-4.3 0.86-5.873 2.425-3.254 3.239-3.262 8.523-0.023 11.777 2.743 2.751 7.028 3.239 10.297 1.201l8.198 8.205c0.356 0.356 0.829 0.542 1.309 0.542 0.256 0 0.504-0.054 0.752-0.155 0.201-0.093 0.395-0.225 0.566-0.387 0.728-0.713 0.736-1.891 0.015-2.611zM27.979 23.616c-0.101 0.101-0.225 0.178-0.349 0.24-0.434 0.194-0.938 0.093-1.271-0.24l-8.399-8.415c-0.070-0.070-0.163-0.101-0.256-0.101-0.070 0-0.139 0.023-0.201 0.062-3.022 2.030-7.074 1.627-9.646-0.953-2.96-2.975-2.952-7.81 0.023-10.77 1.441-1.433 3.347-2.216 5.369-2.216 0.008 0 0.015 0 0.015 0 2.038 0.008 3.944 0.798 5.377 2.247 2.572 2.588 2.952 6.64 0.907 9.654-0.093 0.139-0.077 0.333 0.039 0.449l8.376 8.438c0.465 0.434 0.457 1.162 0.015 1.604z"></path>
<path fill="#fff" d="M14.164 4.223c-1.534-0.302-3.115 0.178-4.223 1.278-0.139 0.139-0.139 0.364 0 0.504 0.070 0.070 0.163 0.108 0.256 0.108s0.178-0.031 0.248-0.101c0.938-0.93 2.278-1.34 3.58-1.085 0.194 0.039 0.38-0.085 0.418-0.279 0.039-0.201-0.085-0.387-0.279-0.426z"></path>
<path fill="#fff" d="M17.875 18.448l-9.298 0.527-3.316-3.308c-0.256-0.256-0.589-0.395-0.945-0.395v0c-0.356 0-0.697 0.139-0.953 0.395s-0.395 0.589-0.395 0.945c0 0.356 0.139 0.697 0.395 0.945l3.316 3.308-0.519 9.298c-0.023 0.372 0.108 0.713 0.356 0.961 0.232 0.232 0.55 0.364 0.891 0.364 0.023 0 0.046 0 0.077 0 0.147-0.008 0.271-0.101 0.318-0.24l2.355-6.896 3.084 3.084c-0.178 2.255-0.178 2.255-0.178 2.278 0.023 0.457 0.341 0.821 0.806 0.899 0.48 0.085 0.945-0.163 1.123-0.604l0.798-1.922 1.922-0.798c0.442-0.186 0.69-0.651 0.604-1.131-0.085-0.465-0.442-0.783-0.907-0.806-0.023 0-0.031 0-2.27 0.178l-3.084-3.084 6.896-2.363c0.139-0.047 0.232-0.17 0.24-0.318 0.023-0.372-0.108-0.713-0.364-0.969-0.248-0.24-0.589-0.372-0.953-0.349zM11.289 21.966c-0.116 0.039-0.201 0.139-0.232 0.256s0.008 0.248 0.093 0.333l3.603 3.603c0.077 0.070 0.178 0.108 0.279 0.101 0 0 2.123-0.17 2.371-0.186 0.155 0.015 0.201 0.139 0.217 0.217 0.023 0.116-0.015 0.279-0.178 0.349l-2.053 0.86c-0.085 0.039-0.155 0.108-0.194 0.194l-0.852 2.053c-0.070 0.163-0.232 0.194-0.349 0.178-0.077-0.015-0.201-0.054-0.217-0.217 0.015-0.248 0.186-2.371 0.186-2.371 0.008-0.101-0.031-0.209-0.101-0.279l-3.603-3.603c-0.085-0.085-0.209-0.124-0.333-0.093-0.116 0.031-0.217 0.116-0.256 0.232l-2.448 7.167c-0.077-0.023-0.139-0.070-0.201-0.124-0.108-0.108-0.163-0.256-0.147-0.418l0.527-9.453c0.008-0.101-0.031-0.201-0.101-0.271l-3.425-3.432c-0.116-0.116-0.186-0.279-0.186-0.442 0-0.17 0.062-0.325 0.186-0.449 0.116-0.116 0.279-0.186 0.442-0.186 0.17 0 0.325 0.062 0.442 0.186l3.425 3.425c0.070 0.070 0.163 0.108 0.271 0.101l9.453-0.535c0.163-0.008 0.318 0.047 0.418 0.147 0.054 0.054 0.101 0.124 0.124 0.201l-7.159 2.456z"></path>
</svg>
