<!-- Generated by IcoMoon.io -->
<svg version="1.1" xmlns="http://www.w3.org/2000/svg" width="32" height="32" viewBox="0 0 32 32">
<title>seater-car</title>
<path fill="#fff" d="M31.458 18.704c-0.217-1.573-1.123-3.030-2.487-3.983l-8.608-6.013c-1.705-1.185-3.696-1.813-5.772-1.813h-8.415c-0.86 0-1.627 0.542-1.914 1.356l-2.363 6.741c-0.054 0.163-0.139 0.31-0.256 0.442l-0.372 0.442c-0.116 0.139-0.209 0.294-0.279 0.465-0.17 0.442-0.558 2.084-0.473 3.355 0.008 0.17 0.163 0.302 0.325 0.287 0.17-0.008 0.294-0.155 0.287-0.325-0.077-1.162 0.287-2.704 0.434-3.099 0.039-0.101 0.101-0.201 0.17-0.287l0.372-0.442c0.101-0.124 0.186-0.263 0.256-0.403 0.178 0.015 0.434 0.039 0.721 0.039 0.542 0 1.185-0.077 1.573-0.38 0.209-0.163 0.341-0.387 0.364-0.651 0.101-1.007-1.093-1.519-1.689-1.712l1.503-4.277c0.201-0.566 0.736-0.945 1.34-0.945h8.415c1.945 0 3.82 0.589 5.416 1.705l8.608 6.013c1.232 0.86 2.046 2.154 2.231 3.564 0.023 0.155 0.031 0.294 0.031 0.426 0.015 0.713-0.116 1.364-0.225 1.774-0.054 0.194-0.225 0.325-0.426 0.325h-0.442c-0.17 0-0.31 0.139-0.31 0.31 0 1.581-1.286 2.875-2.875 2.875-1.581 0-2.875-1.286-2.875-2.875 0-1.581 1.286-2.875 2.875-2.875 0.17 0 0.31-0.139 0.31-0.31s-0.139-0.31-0.31-0.31c-1.922 0-3.487 1.565-3.487 3.487s1.565 3.487 3.487 3.487c1.821 0 3.316-1.402 3.471-3.177h0.147c0.48 0 0.899-0.325 1.023-0.783 0.116-0.457 0.256-1.162 0.24-1.945 0.015-0.147 0-0.31-0.023-0.488zM4.416 14.381c-0.008 0.093-0.046 0.163-0.132 0.225-0.318 0.248-1.093 0.271-1.689 0.225l0.535-1.519c0.519 0.163 1.34 0.535 1.286 1.069z"></path>
<path fill="#fff" d="M21.61 21.315h-13.18c-0.17 0-0.31 0.139-0.31 0.31 0 1.581-1.286 2.875-2.875 2.875s-2.867-1.294-2.867-2.882c0-1.581 1.286-2.875 2.875-2.875 0.17 0 0.31-0.139 0.31-0.31s-0.139-0.31-0.31-0.31c-1.922 0-3.487 1.565-3.487 3.487s1.565 3.487 3.487 3.487c1.821 0 3.316-1.402 3.471-3.177h12.885c0.17 0 0.31-0.139 0.31-0.31 0-0.163-0.139-0.294-0.31-0.294z"></path>
<path fill="#fff" d="M23.492 13.776c0.085-0.232 0.008-0.496-0.194-0.643l-4.974-3.634c-0.573-0.418-1.255-0.666-1.96-0.705l-6.237-0.395c-0.814-0.054-1.557 0.55-1.674 1.364l-0.302 2.092c-0.046 0.341 0.046 0.69 0.263 0.953s0.535 0.434 0.876 0.449l13.645 0.883c0.015 0 0.023 0 0.039 0 0.232 0 0.434-0.139 0.519-0.364zM9.329 12.645c-0.178-0.008-0.333-0.093-0.442-0.225-0.108-0.139-0.155-0.302-0.132-0.48l0.302-2.092c0.070-0.48 0.488-0.837 0.969-0.837 0.023 0 0.039 0 0.062 0l6.237 0.395c0.597 0.039 1.162 0.24 1.643 0.589l4.827 3.525-13.466-0.876z"></path>
</svg>
