<!-- Generated by IcoMoon.io -->
<svg version="1.1" xmlns="http://www.w3.org/2000/svg" width="32" height="32" viewBox="0 0 32 32">
<title>seat</title>
<path fill="#fff" d="M23.144 21.509c-0.015-0.008-0.17-0.047-0.364-0.054l-0.047-0.008c-0.062-0.008-0.124-0.023-0.201-0.023h-1.333c0 0-0.085 0-0.209 0.015-0.070 0-0.147 0-0.232 0.008l-4.75 0.473-0.93-3.184-2.681-7.361v-4.719c0-0.845-0.511-2.433-2.433-2.433-0.845 0-2.433 0.511-2.433 2.433v5.052c0 0.039 0.008 0.403 0.155 0.845 0.031 0.163 0.070 0.302 0.124 0.442l4.695 12.885c0.015 0.039 0.147 0.38 0.442 0.752 0.302 0.434 0.876 0.938 1.945 0.945h2.402v3.099h-3.502c-0.225 0-0.411 0.186-0.411 0.411s0.186 0.411 0.411 0.411h7.616c0.225 0 0.411-0.186 0.411-0.411s-0.186-0.411-0.411-0.411h-3.301v-3.099h3.843c0.783-0.039 1.348-0.511 1.55-1.271l0.891-2.634c0.194-0.682 0.015-1.821-1.247-2.162zM23.616 23.43l-0.891 2.634c-0.116 0.449-0.38 0.666-0.79 0.69h-7.043c-0.589-0.008-1-0.201-1.278-0.597-0.008-0.008-0.015-0.015-0.023-0.031-0.217-0.263-0.318-0.527-0.318-0.527l-4.695-12.893c-0.039-0.108-0.070-0.217-0.093-0.341 0-0.015-0.008-0.039-0.015-0.054-0.108-0.325-0.116-0.604-0.116-0.604v-5.044c0-1.55 1.449-1.612 1.612-1.612 1.55 0 1.612 1.449 1.612 1.612v4.788c0 0.046 0.015 0.108 0.031 0.155l2.696 7.4 1.015 3.487c0.054 0.194 0.232 0.318 0.434 0.294l5.083-0.504c0.054-0.008 0.108-0.008 0.163 0 0.023 0 0.054 0 0.077-0.008 0.077-0.008 0.132-0.015 0.132-0.015h1.325c0.023 0 0.039 0.008 0.054 0.008 0.031 0.008 0.062 0.008 0.124 0.015 0.132 0.008 0.217 0.031 0.232 0.031 0.852 0.225 0.705 0.992 0.674 1.116z"></path>
<path fill="#fff" d="M19.766 10.793c1.883 0 3.417-1.534 3.417-3.417v-3.456c0-1.883-1.534-3.417-3.417-3.417s-3.417 1.534-3.417 3.417v3.463c0.008 1.875 1.534 3.409 3.417 3.409zM17.178 3.921c0-1.433 1.162-2.596 2.596-2.596s2.596 1.162 2.596 2.596v3.463c0 1.433-1.162 2.596-2.596 2.596s-2.596-1.162-2.596-2.596v-3.463z"></path>
</svg>
