<!-- Generated by IcoMoon.io -->
<svg version="1.1" xmlns="http://www.w3.org/2000/svg" width="32" height="32" viewBox="0 0 32 32">
<title>select</title>
<path fill="#fff" d="M24.074 16.093h-1.24v-0.023c0-0.992-0.806-1.805-1.805-1.805h-1.449v-0.504c0-1.209-0.984-2.193-2.193-2.193h-1.503v-2.479c0-1.371-1.116-2.487-2.487-2.487s-2.487 1.116-2.487 2.487v7.469l-0.744-0.589c-1.030-0.814-2.51-0.721-3.44 0.201-0.852 0.86-1.007 2.169-0.372 3.2l5.703 9.197v1.681c0 0.333 0.132 0.643 0.364 0.876s0.542 0.356 0.868 0.356h0.008c2.379-0.015 6.656-0.031 8.624-0.031 0 0 0 0 0.008 0 0.814 0 1.534-0.488 1.829-1.255l2.402-6.168v-5.858c0.015-1.139-0.93-2.076-2.084-2.076zM25.329 23.888l-2.348 6.020c-0.17 0.434-0.581 0.713-1.046 0.713v0c-1.968-0.008-6.253 0.015-8.624 0.031v0c-0.101 0-0.201-0.039-0.271-0.116-0.077-0.077-0.116-0.17-0.116-0.279v-1.922l-5.842-9.399c-0.434-0.697-0.325-1.581 0.248-2.162 0.341-0.341 0.79-0.511 1.24-0.511 0.38 0 0.759 0.124 1.085 0.372l1.263 1v4.161c0 0.232 0.186 0.418 0.426 0.418s0.426-0.186 0.426-0.418v-12.699c0-0.907 0.736-1.643 1.643-1.643s1.643 0.736 1.643 1.643v7.771c0 0.232 0.186 0.418 0.426 0.418s0.426-0.186 0.426-0.418v-4.44h1.503c0.744 0 1.348 0.604 1.348 1.348v3.634c0 0.232 0.186 0.418 0.426 0.418s0.426-0.186 0.426-0.418v-2.301h1.449c0.527 0 0.961 0.434 0.961 0.961v0.387c0 0 0 0 0 0.008v1.976c0 0.232 0.186 0.418 0.426 0.418s0.426-0.186 0.426-0.418v-1.503h1.24c0.69 0 1.255 0.566 1.255 1.255v5.695h-0.039z"></path>
<path fill="#fff" d="M15.636 4.579c0.070 0.039 0.139 0.054 0.209 0.054 0.147 0 0.287-0.077 0.364-0.209l1.875-3.285c0.116-0.201 0.047-0.457-0.155-0.573s-0.457-0.046-0.573 0.155l-1.875 3.285c-0.116 0.201-0.046 0.457 0.155 0.573z"></path>
<path fill="#fff" d="M13.296 3.959c0.232 0 0.426-0.186 0.426-0.418v-2.193c0-0.232-0.186-0.418-0.426-0.418s-0.426 0.186-0.426 0.418v2.193c0 0.232 0.194 0.418 0.426 0.418z"></path>
<path fill="#fff" d="M10.576 4.471c0.077 0.139 0.225 0.217 0.372 0.217 0.070 0 0.139-0.016 0.201-0.054 0.201-0.116 0.279-0.372 0.163-0.573l-1.247-2.239c-0.116-0.201-0.372-0.279-0.573-0.163s-0.279 0.372-0.163 0.573l1.247 2.239z"></path>
<path fill="#fff" d="M6.253 4.734l2.813 1.612c0.070 0.039 0.139 0.054 0.209 0.054 0.147 0 0.287-0.077 0.364-0.209 0.116-0.201 0.046-0.457-0.155-0.573l-2.813-1.619c-0.201-0.116-0.457-0.046-0.573 0.155-0.124 0.209-0.054 0.465 0.155 0.581z"></path>
<path fill="#fff" d="M8.6 8.856c0.232 0 0.426-0.186 0.426-0.418s-0.186-0.418-0.426-0.418h-2.348c-0.232 0-0.426 0.186-0.426 0.418s0.186 0.418 0.426 0.418h2.348z"></path>
<path fill="#fff" d="M17.247 6.299c0.077 0.132 0.217 0.209 0.364 0.209 0.070 0 0.147-0.016 0.209-0.054l2.348-1.356c0.201-0.116 0.271-0.372 0.155-0.573s-0.372-0.271-0.573-0.155l-2.348 1.356c-0.201 0.116-0.271 0.372-0.155 0.573z"></path>
<path fill="#fff" d="M17.712 8.484c0 0.232 0.186 0.418 0.426 0.418h2.658c0.232 0 0.426-0.186 0.426-0.418s-0.186-0.418-0.426-0.418h-2.658c-0.232 0-0.426 0.186-0.426 0.418z"></path>
</svg>
