<!-- Generated by IcoMoon.io -->
<svg version="1.1" xmlns="http://www.w3.org/2000/svg" width="32" height="32" viewBox="0 0 32 32">
<title>selfie</title>
<path fill="#fff" d="M8.864 13.056c1.565 0 3.053-0.573 4.215-1.635 1.24-1.131 1.968-2.673 2.046-4.347s-0.496-3.277-1.627-4.517-2.673-1.968-4.347-2.046c-1.674-0.085-3.277 0.496-4.517 1.627-1.24 1.123-1.968 2.665-2.046 4.339-0.163 3.456 2.51 6.4 5.966 6.563 0.108 0.008 0.209 0.015 0.31 0.015zM3.463 6.524c0.139-2.89 2.534-5.145 5.393-5.145 0.085 0 0.17 0 0.256 0.008 1.441 0.070 2.774 0.697 3.742 1.759 0.969 1.069 1.464 2.448 1.402 3.89-0.070 1.441-0.697 2.774-1.759 3.742s-2.456 1.464-3.89 1.402c-2.983-0.147-5.292-2.681-5.145-5.656z"></path>
<path fill="#fff" d="M28.482 13.063l-4.92 7.198c-0.411 0.597-1.131 0.883-1.836 0.721l-6.044-1.387-0.535-4.138c-0.139-1.077-1.123-1.836-2.2-1.697l-5.455 0.697c-0.519 0.070-0.984 0.333-1.302 0.752s-0.457 0.93-0.387 1.449l1.581 12.265c0.016 0.132 0.093 0.256 0.209 0.318 2.518 1.472 5.408 2.247 8.345 2.247 0.263 0 0.527-0.008 0.798-0.015 0.124-0.008 0.232-0.062 0.31-0.155s0.116-0.217 0.101-0.333l-1.348-10.476 5.726 1.309c0.201 0.047 0.395 0.070 0.597 0.070 0.852 0 1.658-0.418 2.162-1.147l4.92-7.198c0.139-0.201 0.085-0.473-0.116-0.604-0.194-0.124-0.465-0.077-0.604 0.124zM16.217 30.621c-2.805 0.039-5.579-0.651-8.004-2.022l-1.55-12.048c-0.077-0.597 0.349-1.147 0.945-1.224l5.455-0.697c0.294-0.039 0.573 0.039 0.806 0.217s0.38 0.434 0.418 0.728l0.488 3.812-4.688-1.069c-0.232-0.054-0.465 0.093-0.519 0.325s0.093 0.465 0.325 0.519l4.998 1.147 1.325 10.313z"></path>
<path fill="#fff" d="M28.978 6.648c-0.24 0-0.434 0.194-0.434 0.434v4.827c0 0.24 0.194 0.434 0.434 0.434s0.434-0.194 0.434-0.434v-4.827c0.008-0.24-0.194-0.434-0.434-0.434z"></path>
<path fill="#fff" d="M26.731 8.236c0.085 0.085 0.194 0.124 0.31 0.124s0.225-0.039 0.31-0.132c0.17-0.17 0.17-0.449 0-0.62l-1.689-1.689c-0.17-0.17-0.449-0.17-0.62 0s-0.17 0.449 0 0.62l1.689 1.697z"></path>
<path fill="#fff" d="M26.824 10.623l-1.689 1.689c-0.17 0.17-0.17 0.449 0 0.62 0.085 0.085 0.194 0.132 0.31 0.132s0.225-0.039 0.31-0.124l1.689-1.689c0.17-0.17 0.17-0.449 0-0.62-0.178-0.178-0.449-0.178-0.62-0.008z"></path>
<path fill="#fff" d="M24.562 9.933h2.115c0.24 0 0.434-0.194 0.434-0.434s-0.194-0.434-0.434-0.434h-2.115c-0.24 0-0.434 0.194-0.434 0.434s0.194 0.434 0.434 0.434z"></path>
</svg>
