<!-- Generated by IcoMoon.io -->
<svg version="1.1" xmlns="http://www.w3.org/2000/svg" width="32" height="32" viewBox="0 0 32 32">
<title>send-email</title>
<path fill="#fff" d="M28.552 4.905h-25.104c-1.619 0-2.944 1.317-2.944 2.937v16.302c0 1.619 1.317 2.937 2.944 2.937h25.112c1.619 0 2.944-1.317 2.944-2.937v-16.294c-0.008-1.619-1.325-2.944-2.952-2.944zM30.567 24.151c0 0.325-0.085 0.628-0.225 0.899l-8.817-9.12 8.693-9.205c0.217 0.318 0.341 0.705 0.341 1.123v16.302h0.008zM28.552 5.842c0.356 0 0.682 0.101 0.976 0.263l-11.405 12.072c-0.573 0.612-1.333 0.961-2.123 0.961-0.744-0.008-1.495-0.349-2.069-0.938l-11.63-12.002c0.325-0.225 0.713-0.356 1.139-0.356h25.112zM1.433 7.849c0-0.349 0.093-0.666 0.248-0.953l8.81 9.096-8.802 9.112c-0.155-0.287-0.248-0.604-0.248-0.953l-0.008-16.302zM3.448 26.158c-0.426 0-0.814-0.132-1.139-0.356l8.841-9.143 2.123 2.193c0.744 0.767 1.736 1.209 2.774 1.216 1.007-0.008 2.015-0.465 2.758-1.255l2.084-2.208 8.856 9.158c-0.333 0.24-0.736 0.395-1.185 0.395h-25.112z"></path>
</svg>
