<!-- Generated by IcoMoon.io -->
<svg version="1.1" xmlns="http://www.w3.org/2000/svg" width="32" height="32" viewBox="0 0 32 32">
<title>server</title>
<path fill="#fff" d="M6.137 28.374h19.727c0.263 0 0.48-0.217 0.48-0.48v-6.896c0-0.263-0.217-0.48-0.48-0.48h-19.727c-0.263 0-0.48 0.217-0.48 0.48v6.896c-0.008 0.263 0.209 0.48 0.48 0.48zM6.617 21.486h18.758v5.92h-18.758v-5.92z"></path>
<path fill="#fff" d="M23.012 23.965h-8.926c-0.263 0-0.48 0.217-0.48 0.48s0.217 0.48 0.48 0.48h8.926c0.263 0 0.48-0.217 0.48-0.48s-0.217-0.48-0.48-0.48z"></path>
<path fill="#fff" d="M10.801 24.446c0 0.518-0.42 0.938-0.938 0.938s-0.938-0.42-0.938-0.938c0-0.518 0.42-0.938 0.938-0.938s0.938 0.42 0.938 0.938z"></path>
<path fill="#fff" d="M6.137 18.371h19.727c0.263 0 0.48-0.217 0.48-0.48v-6.888c0-0.263-0.217-0.48-0.48-0.48h-19.727c-0.263 0-0.48 0.217-0.48 0.48v6.888c-0.008 0.263 0.209 0.48 0.48 0.48zM6.617 11.475h18.758v5.92h-18.758v-5.92z"></path>
<path fill="#fff" d="M23.012 13.954h-8.926c-0.263 0-0.48 0.217-0.48 0.48s0.217 0.48 0.48 0.48h8.926c0.263 0 0.48-0.217 0.48-0.48s-0.217-0.48-0.48-0.48z"></path>
<path fill="#fff" d="M10.801 14.443c0 0.518-0.42 0.938-0.938 0.938s-0.938-0.42-0.938-0.938c0-0.518 0.42-0.938 0.938-0.938s0.938 0.42 0.938 0.938z"></path>
<path fill="#fff" d="M6.137 8.36h19.727c0.263 0 0.48-0.217 0.48-0.48v-6.896c0-0.263-0.217-0.48-0.48-0.48h-19.727c-0.263 0-0.48 0.217-0.48 0.48v6.888c-0.008 0.271 0.209 0.488 0.48 0.488zM6.617 1.472h18.758v5.92h-18.758v-5.92z"></path>
<path fill="#fff" d="M23.012 3.952h-8.926c-0.263 0-0.48 0.217-0.48 0.48s0.217 0.48 0.48 0.48h8.926c0.263 0 0.48-0.217 0.48-0.48s-0.217-0.48-0.48-0.48z"></path>
<path fill="#fff" d="M10.801 4.432c0 0.518-0.42 0.938-0.938 0.938s-0.938-0.42-0.938-0.938c0-0.518 0.42-0.938 0.938-0.938s0.938 0.42 0.938 0.938z"></path>
<path fill="#fff" d="M26.383 30.528h-20.765c-0.263 0-0.48 0.217-0.48 0.48s0.217 0.48 0.48 0.48h20.773c0.263 0 0.48-0.217 0.48-0.48s-0.217-0.48-0.488-0.48z"></path>
</svg>
