<!-- Generated by IcoMoon.io -->
<svg version="1.1" xmlns="http://www.w3.org/2000/svg" width="32" height="32" viewBox="0 0 32 32">
<title>server-accept</title>
<path fill="#fff" d="M4.455 8.128h19.138c0.256 0 0.473-0.209 0.473-0.473v-6.679c0-0.256-0.209-0.473-0.473-0.473h-19.138c-0.256 0-0.473 0.209-0.473 0.473v6.687c0.008 0.256 0.217 0.465 0.473 0.465zM4.928 1.441h18.2v5.749h-18.2v-5.749z"></path>
<path fill="#fff" d="M20.564 3.843h-8.662c-0.256 0-0.473 0.209-0.473 0.473 0 0.256 0.209 0.473 0.473 0.473h8.662c0.256 0 0.473-0.209 0.473-0.473-0.008-0.263-0.217-0.473-0.473-0.473z"></path>
<path fill="#fff" d="M8.717 4.316c0 0.505-0.409 0.914-0.914 0.914s-0.914-0.409-0.914-0.914c0-0.505 0.409-0.914 0.914-0.914s0.914 0.409 0.914 0.914z"></path>
<path fill="#fff" d="M4.455 17.852h19.138c0.256 0 0.473-0.209 0.473-0.473v-6.687c0-0.256-0.209-0.473-0.473-0.473h-19.138c-0.256 0-0.473 0.209-0.473 0.473v6.687c0.008 0.263 0.217 0.473 0.473 0.473zM4.928 11.165h18.2v5.749h-18.2v-5.749z"></path>
<path fill="#fff" d="M20.564 13.567h-8.662c-0.256 0-0.473 0.209-0.473 0.473s0.209 0.473 0.473 0.473h8.662c0.256 0 0.473-0.209 0.473-0.473s-0.217-0.473-0.473-0.473z"></path>
<path fill="#fff" d="M8.717 14.040c0 0.505-0.409 0.914-0.914 0.914s-0.914-0.409-0.914-0.914c0-0.505 0.409-0.914 0.914-0.914s0.914 0.409 0.914 0.914z"></path>
<path fill="#fff" d="M8.717 23.764c0 0.505-0.409 0.914-0.914 0.914s-0.914-0.409-0.914-0.914c0-0.505 0.409-0.914 0.914-0.914s0.914 0.409 0.914 0.914z"></path>
<path fill="#fff" d="M22.276 19.215c-1.054 0-2.046 0.263-2.913 0.736h-14.908c-0.256 0-0.473 0.209-0.473 0.473v6.687c0 0.256 0.209 0.473 0.473 0.473h12.095c0.31 0.79 0.767 1.495 1.348 2.092h-13.846c-0.256 0-0.473 0.209-0.473 0.473 0 0.256 0.209 0.473 0.473 0.473h15.047c0.93 0.566 2.015 0.899 3.177 0.899 3.386 0 6.144-2.758 6.144-6.144s-2.758-6.16-6.144-6.16zM4.928 26.631v-5.749h13.149c-0.697 0.659-1.247 1.48-1.573 2.402h-4.595c-0.256 0-0.473 0.209-0.473 0.473 0 0.256 0.209 0.473 0.473 0.473h4.339c-0.070 0.364-0.108 0.744-0.108 1.123 0 0.442 0.047 0.868 0.139 1.278h-11.351zM22.276 30.559c-2.867 0-5.207-2.332-5.207-5.199s2.332-5.207 5.207-5.207c2.867 0 5.199 2.332 5.199 5.207s-2.332 5.199-5.199 5.199z"></path>
<path fill="#fff" d="M24.291 22.539l-3.471 5.060-1.418-2.038c-0.147-0.209-0.442-0.263-0.651-0.116s-0.263 0.442-0.116 0.651l1.805 2.596c0.085 0.124 0.232 0.201 0.387 0.201v0c0.155 0 0.302-0.077 0.387-0.201l3.851-5.617c0.147-0.217 0.093-0.504-0.124-0.651s-0.504-0.093-0.651 0.116z"></path>
</svg>
