<!-- Generated by IcoMoon.io -->
<svg version="1.1" xmlns="http://www.w3.org/2000/svg" width="32" height="32" viewBox="0 0 32 32">
<title>server-security</title>
<path fill="#fff" d="M4.641 8.128h19.138c0.256 0 0.473-0.209 0.473-0.473v-6.679c0-0.256-0.209-0.473-0.473-0.473h-19.138c-0.256 0-0.473 0.209-0.473 0.473v6.687c0.008 0.256 0.217 0.465 0.473 0.465zM5.114 1.441h18.2v5.741h-18.2v-5.741z"></path>
<path fill="#fff" d="M20.75 3.843h-8.662c-0.256 0-0.473 0.209-0.473 0.473 0 0.256 0.209 0.473 0.473 0.473h8.662c0.256 0 0.473-0.209 0.473-0.473-0.008-0.263-0.217-0.473-0.473-0.473z"></path>
<path fill="#fff" d="M8.903 4.316c0 0.505-0.409 0.914-0.914 0.914s-0.914-0.409-0.914-0.914c0-0.505 0.409-0.914 0.914-0.914s0.914 0.409 0.914 0.914z"></path>
<path fill="#fff" d="M4.641 17.852h19.138c0.256 0 0.473-0.209 0.473-0.473v-6.687c0-0.256-0.209-0.473-0.473-0.473h-19.138c-0.256 0-0.473 0.209-0.473 0.473v6.687c0.008 0.263 0.217 0.473 0.473 0.473zM5.114 11.165h18.2v5.741h-18.2v-5.741z"></path>
<path fill="#fff" d="M20.75 13.567h-8.662c-0.256 0-0.473 0.209-0.473 0.473s0.209 0.473 0.473 0.473h8.662c0.256 0 0.473-0.209 0.473-0.473s-0.217-0.473-0.473-0.473z"></path>
<path fill="#fff" d="M8.903 14.040c0 0.505-0.409 0.914-0.914 0.914s-0.914-0.409-0.914-0.914c0-0.505 0.409-0.914 0.914-0.914s0.914 0.409 0.914 0.914z"></path>
<path fill="#fff" d="M8.903 23.764c0 0.505-0.409 0.914-0.914 0.914s-0.914-0.409-0.914-0.914c0-0.505 0.409-0.914 0.914-0.914s0.914 0.409 0.914 0.914z"></path>
<path fill="#fff" d="M22.090 19.215c-1.054 0-2.046 0.263-2.913 0.736h-14.536c-0.256 0-0.473 0.209-0.473 0.473v6.687c0 0.256 0.209 0.473 0.473 0.473h11.723c0.31 0.79 0.767 1.495 1.348 2.092h-13.482c-0.256 0-0.473 0.209-0.473 0.473 0 0.256 0.209 0.473 0.473 0.473h14.675c0.93 0.566 2.015 0.899 3.177 0.899 3.386 0 6.144-2.758 6.144-6.144 0-3.409-2.751-6.16-6.137-6.16zM5.114 26.631v-5.741h12.777c-0.697 0.659-1.247 1.48-1.573 2.402h-4.23c-0.256 0-0.473 0.209-0.473 0.473 0 0.256 0.209 0.473 0.473 0.473h3.967c-0.070 0.364-0.108 0.744-0.108 1.123 0 0.442 0.046 0.868 0.139 1.278l-10.971-0.008zM22.090 30.559c-2.867 0-5.207-2.332-5.207-5.207 0-2.867 2.332-5.199 5.207-5.199s5.207 2.332 5.207 5.199c-0.008 2.875-2.34 5.207-5.207 5.207z"></path>
<path fill="#fff" d="M24.205 23.523v-0.434c0-0.868-0.705-1.581-1.581-1.581h-0.961c-0.868 0-1.581 0.705-1.581 1.581v0.434c-0.527 0.147-0.914 0.62-0.914 1.193v2.665c0 0.682 0.558 1.24 1.24 1.24h3.456c0.682 0 1.24-0.558 1.24-1.24v-2.665c0.008-0.573-0.38-1.054-0.899-1.193zM21.664 22.447h0.961c0.356 0 0.643 0.287 0.643 0.643v0.38h-2.239v-0.38c-0.008-0.356 0.279-0.643 0.635-0.643zM24.174 27.374c0 0.17-0.139 0.302-0.302 0.302h-3.456c-0.17 0-0.302-0.139-0.302-0.302v-2.665c0-0.17 0.139-0.302 0.302-0.302h3.456c0.17 0 0.302 0.139 0.302 0.302v2.665z"></path>
</svg>
