<!-- Generated by IcoMoon.io -->
<svg version="1.1" xmlns="http://www.w3.org/2000/svg" width="32" height="32" viewBox="0 0 32 32">
<title>shared-transfer</title>
<path fill="#fff" d="M20.936 26.878h-10.212c-0.015 0-0.031 0.008-0.054 0.008-0.015 0-0.031-0.008-0.054-0.008-0.178 0-0.325 0.147-0.325 0.325 0 0.759-0.62 1.387-1.387 1.387s-1.387-0.62-1.387-1.387 0.62-1.387 1.387-1.387c0.178 0 0.325-0.147 0.325-0.325s-0.147-0.325-0.325-0.325c-1.116 0-2.030 0.907-2.030 2.030s0.907 2.030 2.030 2.030c1.007 0 1.844-0.744 1.999-1.705h10.018c0.178 0 0.325-0.147 0.325-0.325s-0.132-0.318-0.31-0.318z"></path>
<path fill="#fff" d="M27.483 24.337c-0.093-0.69-0.558-1.278-1.209-1.534l-2.797-1.108c-0.101-0.039-0.201-0.093-0.294-0.163l-2.991-2.092c-0.511-0.356-1.108-0.55-1.736-0.55h-12.072c-0.442 0-0.852 0.256-1.046 0.659-0.325 0.682-0.891 2.038-1.007 3.386-0.124 1.387-0.016 3.006 0.062 3.851 0.039 0.411 0.356 0.728 0.767 0.759l1.038 0.085c0.008 0 0.016 0 0.023 0 0.163 0 0.31-0.124 0.318-0.294 0.016-0.178-0.116-0.333-0.294-0.349l-1.038-0.085c-0.093-0.008-0.17-0.085-0.178-0.178-0.070-0.821-0.178-2.402-0.062-3.735 0.108-1.255 0.643-2.526 0.945-3.169 0.085-0.178 0.263-0.294 0.457-0.294h12.072c0.488 0 0.961 0.147 1.364 0.426l2.991 2.092c0.132 0.093 0.279 0.17 0.426 0.232l2.805 1.108c0.434 0.17 0.744 0.566 0.806 1.023l0.217 1.573c0.023 0.178-0.023 0.356-0.132 0.496s-0.263 0.232-0.442 0.256l-1.069 0.132c-0.015 0-0.023 0.008-0.039 0.015-0.023 0.008-0.047 0.008-0.062 0.023-0.015 0.008-0.031 0.023-0.047 0.031-0.015 0.015-0.031 0.023-0.047 0.039s-0.023 0.031-0.031 0.047-0.023 0.039-0.031 0.054c-0.008 0.023-0.008 0.039-0.015 0.062 0 0.015-0.008 0.031-0.008 0.047 0 0.759-0.62 1.387-1.387 1.387s-1.387-0.62-1.387-1.387 0.62-1.387 1.387-1.387c0.178 0 0.325-0.147 0.325-0.325s-0.147-0.325-0.325-0.325c-1.116 0-2.030 0.907-2.030 2.030s0.907 2.030 2.030 2.030c1.023 0 1.867-0.759 2.007-1.743l0.806-0.101c0.349-0.047 0.666-0.217 0.876-0.504 0.217-0.279 0.31-0.628 0.256-0.976l-0.201-1.542z"></path>
<path fill="#fff" d="M22.051 22.71c0.085-0.24 0.008-0.504-0.201-0.651l-2.317-1.681c-0.248-0.178-0.535-0.271-0.845-0.271h-1.387c-0.085 0-0.17 0.039-0.232 0.101s-0.093 0.147-0.093 0.232l0.047 2.286c0 0.178 0.147 0.318 0.318 0.318l4.138 0.039c0.015 0 0.031 0 0.039 0 0.24 0 0.449-0.147 0.535-0.372zM17.666 22.392l-0.031-1.643h1.061c0.17 0 0.325 0.054 0.465 0.147l2.107 1.534-3.603-0.039z"></path>
<path fill="#fff" d="M16.054 23.035c0.178 0 0.325-0.147 0.325-0.325v-2.286c0-0.178-0.147-0.325-0.325-0.325h-3.859c-0.178 0-0.325 0.147-0.325 0.325v2.286c0 0.178 0.147 0.325 0.325 0.325h3.859zM12.521 20.75h3.216v1.643h-3.216v-1.643z"></path>
<path fill="#fff" d="M11.537 22.718v-2.286c0-0.178-0.147-0.325-0.325-0.325h-4.757c-0.155 0-0.287 0.108-0.318 0.256l-0.333 1.604c-0.054 0.263 0.008 0.535 0.178 0.736 0.17 0.209 0.418 0.325 0.69 0.325h4.548c0.178 0.008 0.318-0.132 0.318-0.31zM10.894 22.392h-4.223c-0.101 0-0.163-0.054-0.186-0.085s-0.070-0.101-0.046-0.201l0.279-1.348h4.184l-0.008 1.635z"></path>
<path fill="#fff" d="M16.070 5.633c0.79 0 1.433-0.643 1.433-1.433s-0.643-1.433-1.433-1.433-1.426 0.643-1.426 1.433 0.635 1.433 1.426 1.433zM16.070 3.409c0.434 0 0.79 0.356 0.79 0.79s-0.356 0.79-0.79 0.79-0.79-0.356-0.79-0.79 0.356-0.79 0.79-0.79z"></path>
<path fill="#fff" d="M13.606 10.987c0.124 0.132 0.356 0.287 0.744 0.287h0.248v4.92c0 0.054-0.023 0.527 0.302 0.868 0.139 0.147 0.395 0.325 0.821 0.325h0.705c0.426 0 0.682-0.178 0.821-0.325 0.325-0.341 0.302-0.821 0.302-0.852v-4.943h0.248c0.387 0 0.62-0.155 0.744-0.287 0.287-0.294 0.279-0.697 0.279-0.736v-2.968c0-0.488-0.147-0.883-0.426-1.154-0.411-0.403-0.961-0.403-1.007-0.403h-2.603c-0.062-0.008-0.604 0-1.015 0.403-0.287 0.279-0.426 0.666-0.426 1.154v2.968c-0.015 0.046-0.023 0.449 0.263 0.744zM13.978 7.276c0-0.31 0.077-0.542 0.232-0.69 0.225-0.217 0.55-0.225 0.558-0.225v0h2.619c0.008 0 0.333 0 0.558 0.225 0.155 0.155 0.232 0.387 0.232 0.69v2.991c0 0.046-0.015 0.194-0.101 0.279-0.062 0.062-0.147 0.085-0.279 0.085h-0.573c-0.178 0-0.325 0.147-0.325 0.325v5.284c0 0 0.008 0.248-0.124 0.387-0.077 0.077-0.186 0.116-0.349 0.116h-0.705c-0.163 0-0.271-0.039-0.349-0.116-0.116-0.116-0.132-0.325-0.132-0.411v-5.261c0-0.178-0.147-0.325-0.325-0.325h-0.573c-0.124 0-0.217-0.031-0.279-0.085-0.085-0.085-0.101-0.232-0.101-0.287v-2.983h0.015z"></path>
<path fill="#fff" d="M23.051 5.633c0.783 0 1.418-0.635 1.418-1.418s-0.635-1.418-1.418-1.418-1.418 0.635-1.418 1.418 0.635 1.418 1.418 1.418zM23.051 3.44c0.426 0 0.775 0.349 0.775 0.775s-0.349 0.775-0.775 0.775-0.775-0.349-0.775-0.775 0.349-0.775 0.775-0.775z"></path>
<path fill="#fff" d="M20.618 10.917c0.077 0.077 0.194 0.17 0.356 0.225l-0.527 2.751c-0.015 0.093 0.008 0.194 0.070 0.263 0.062 0.077 0.155 0.116 0.248 0.116h0.829v1.929c0 0.054-0.023 0.519 0.302 0.86 0.139 0.147 0.387 0.318 0.814 0.318h0.697c0.426 0 0.674-0.17 0.814-0.318 0.318-0.341 0.302-0.814 0.302-0.845v-1.953h0.829c0.093 0 0.186-0.046 0.248-0.116 0.062-0.077 0.085-0.17 0.070-0.263l-0.527-2.751c0.163-0.054 0.279-0.147 0.356-0.225 0.287-0.294 0.279-0.697 0.279-0.728v-2.944c0-0.488-0.139-0.868-0.426-1.147-0.411-0.403-0.945-0.403-1-0.403h-2.572c-0.062-0.008-0.597 0-1.007 0.403-0.279 0.279-0.426 0.659-0.426 1.147v2.929c-0.008 0.062-0.015 0.457 0.271 0.752zM20.982 7.245c0-0.302 0.077-0.535 0.225-0.682 0.217-0.217 0.535-0.217 0.55-0.217v0h2.58c0.008 0 0.325 0 0.55 0.217 0.147 0.147 0.225 0.38 0.225 0.682v2.96c0 0 0 0.17-0.093 0.263-0.023 0.023-0.085 0.085-0.271 0.085-0.093 0-0.186 0.046-0.248 0.116-0.062 0.077-0.085 0.17-0.070 0.263l0.519 2.704h-0.759c-0.178 0-0.325 0.147-0.325 0.325v2.293c0 0 0.008 0.24-0.124 0.38-0.070 0.077-0.186 0.116-0.341 0.116h-0.697c-0.155 0-0.271-0.039-0.341-0.116-0.108-0.116-0.132-0.318-0.124-0.403v-2.27c0-0.178-0.147-0.325-0.325-0.325h-0.759l0.511-2.689c0.015-0.093-0.008-0.194-0.070-0.263-0.062-0.077-0.155-0.116-0.248-0.116-0.124 0-0.209-0.031-0.271-0.085-0.085-0.085-0.101-0.225-0.101-0.279l0.008-2.96z"></path>
<path fill="#fff" d="M8.949 5.633c0.783 0 1.418-0.635 1.418-1.418s-0.635-1.418-1.418-1.418-1.418 0.635-1.418 1.418 0.635 1.418 1.418 1.418zM8.949 3.44c0.426 0 0.775 0.349 0.775 0.775s-0.349 0.775-0.775 0.775-0.775-0.349-0.775-0.775 0.349-0.775 0.775-0.775z"></path>
<path fill="#fff" d="M6.508 10.917c0.077 0.077 0.194 0.17 0.356 0.225l-0.527 2.751c-0.016 0.093 0.008 0.194 0.070 0.263 0.062 0.077 0.155 0.116 0.248 0.116h0.829v1.929c0 0.054-0.023 0.519 0.302 0.86 0.139 0.147 0.387 0.318 0.814 0.318h0.697c0.426 0 0.674-0.17 0.814-0.318 0.318-0.341 0.302-0.814 0.302-0.845v-1.953h0.821c0.093 0 0.186-0.046 0.248-0.116 0.062-0.077 0.085-0.17 0.070-0.263l-0.527-2.751c0.163-0.054 0.279-0.147 0.356-0.225 0.287-0.294 0.279-0.697 0.279-0.728v-2.944c0-0.488-0.139-0.868-0.426-1.147-0.411-0.403-0.945-0.403-1-0.403h-2.572c-0.054-0.008-0.597 0-1.007 0.403-0.279 0.279-0.426 0.659-0.426 1.147v2.929c0 0.062-0.008 0.457 0.279 0.752zM6.88 7.245c0-0.302 0.077-0.535 0.225-0.682 0.217-0.217 0.535-0.217 0.55-0.217v0h2.58c0.008 0 0.325 0 0.55 0.217 0.147 0.147 0.225 0.38 0.225 0.682v2.952c0 0.046-0.015 0.194-0.101 0.271-0.054 0.054-0.147 0.085-0.271 0.085-0.093 0-0.186 0.046-0.248 0.116-0.062 0.077-0.085 0.17-0.070 0.263l0.527 2.704h-0.759c-0.178 0-0.325 0.147-0.325 0.325v2.293c0 0 0.008 0.24-0.124 0.38-0.070 0.077-0.186 0.116-0.341 0.116h-0.697c-0.155 0-0.271-0.039-0.341-0.116-0.108-0.116-0.132-0.318-0.124-0.403v-2.27c0-0.178-0.147-0.325-0.325-0.325h-0.759l0.511-2.689c0.016-0.093-0.008-0.194-0.070-0.263-0.062-0.077-0.155-0.116-0.248-0.116-0.124 0-0.217-0.031-0.271-0.085-0.085-0.085-0.101-0.225-0.101-0.279v-2.96h0.008z"></path>
<path fill="#fff" d="M28.831 9.383h-1.433c-0.178 0-0.325 0.147-0.325 0.325s0.147 0.325 0.325 0.325h1.433c1.116 0 2.022 0.907 2.022 2.022v11.095c0 1.116-0.907 2.022-2.022 2.022-0.178 0-0.325 0.147-0.325 0.325s0.147 0.325 0.325 0.325c1.472 0 2.665-1.201 2.665-2.665v-11.103c0-1.472-1.201-2.673-2.665-2.673z"></path>
<path fill="#fff" d="M3.169 25.174c-1.116 0-2.022-0.907-2.022-2.022v-11.095c0-1.116 0.907-2.022 2.022-2.022h1.433c0.178 0 0.325-0.147 0.325-0.325s-0.147-0.325-0.325-0.325h-1.433c-1.472 0-2.665 1.201-2.665 2.665v11.095c0 1.472 1.201 2.665 2.665 2.665 0.178 0 0.325-0.147 0.325-0.325 0-0.163-0.147-0.31-0.325-0.31z"></path>
</svg>
