<!-- Generated by IcoMoon.io -->
<svg version="1.1" xmlns="http://www.w3.org/2000/svg" width="32" height="32" viewBox="0 0 32 32">
<title>share</title>
<path fill="#fff" d="M28.459 24.833c-1.116-2.301-3.897-3.262-6.191-2.139-0.635 0.31-1.178 0.752-1.604 1.294l-8.864-5.757c0.341-0.643 0.535-1.371 0.535-2.154 0-0.79-0.201-1.542-0.55-2.193l8.786-5.834c0.403 0.496 0.914 0.922 1.519 1.232 0.659 0.325 1.364 0.496 2.076 0.496 0.488 0 0.984-0.077 1.464-0.24 1.178-0.387 2.131-1.216 2.681-2.317 0.558-1.108 0.651-2.363 0.256-3.541s-1.216-2.131-2.317-2.681c-1.108-0.558-2.363-0.651-3.541-0.256-1.178 0.387-2.131 1.216-2.681 2.317-0.705 1.402-0.628 2.983 0.062 4.269l-8.786 5.842c-0.852-1.054-2.146-1.728-3.603-1.728-2.557 0-4.633 2.076-4.633 4.633s2.076 4.633 4.633 4.633c1.472 0 2.782-0.69 3.626-1.759l8.864 5.757c-0.108 0.201-0.201 0.418-0.279 0.635-0.403 1.17-0.325 2.425 0.209 3.541 0.542 1.116 1.48 1.953 2.65 2.355 0.496 0.17 1.007 0.256 1.519 0.256 0.69 0 1.379-0.155 2.022-0.473 1.116-0.542 1.953-1.48 2.355-2.65 0.411-1.17 0.333-2.425-0.209-3.541zM20.796 3.448c0.449-0.899 1.224-1.573 2.185-1.891 0.387-0.132 0.79-0.194 1.193-0.194 0.581 0 1.154 0.132 1.689 0.403 0.899 0.449 1.573 1.224 1.891 2.185 0.318 0.953 0.24 1.976-0.209 2.882-0.449 0.899-1.224 1.573-2.185 1.891-0.953 0.318-1.976 0.24-2.882-0.209-1.86-0.938-2.611-3.208-1.681-5.067zM7.702 19.851c-2.076 0-3.773-1.689-3.773-3.773s1.689-3.773 3.773-3.773c2.076 0 3.773 1.689 3.773 3.773s-1.689 3.773-3.773 3.773zM27.862 28.095c-0.325 0.953-1.007 1.72-1.914 2.162s-1.929 0.504-2.882 0.17c-0.953-0.325-1.72-1.007-2.162-1.914-0.907-1.867-0.132-4.13 1.743-5.044 0.527-0.256 1.093-0.38 1.643-0.38 1.402 0 2.743 0.783 3.401 2.123 0.434 0.907 0.496 1.929 0.17 2.882z"></path>
</svg>
