<!-- Generated by IcoMoon.io -->
<svg version="1.1" xmlns="http://www.w3.org/2000/svg" width="32" height="32" viewBox="0 0 32 32">
<title>shopping</title>
<path fill="#fff" d="M27.986 23.446h-14.195l-1.278-4.076 17.317-3.161c0.209-0.039 0.372-0.209 0.403-0.418l1.255-8.949c0.023-0.139-0.023-0.287-0.116-0.395s-0.232-0.17-0.372-0.17h-22.563l-0.945-3.006c-0.077-0.24-0.31-0.38-0.558-0.341l-6.020 1.069c-0.271 0.046-0.449 0.302-0.403 0.573s0.302 0.449 0.573 0.403l5.602-0.992 6.276 20.114c0.062 0.209 0.256 0.349 0.473 0.349h12.428c-0.426 0.496-0.682 1.131-0.682 1.829 0 1.55 1.263 2.813 2.813 2.813s2.82-1.263 2.82-2.813c-0.008-1.565-1.271-2.828-2.828-2.828zM30.435 7.268l-0.24 1.689h-18.696c-0.271 0-0.496 0.225-0.496 0.496s0.225 0.496 0.496 0.496h18.565l-0.209 1.48h-17.364c-0.271 0-0.496 0.225-0.496 0.496s0.225 0.496 0.496 0.496h17.224l-0.403 2.89-17.085 3.123-3.487-11.165h21.695zM27.986 28.095c-1.007 0-1.829-0.821-1.829-1.829s0.821-1.829 1.829-1.829 1.829 0.821 1.829 1.829c0.008 1.007-0.814 1.829-1.829 1.829z"></path>
<path fill="#fff" d="M9.662 23.446c-1.55 0-2.82 1.263-2.82 2.813s1.263 2.813 2.82 2.813c1.55 0 2.813-1.263 2.813-2.813s-1.263-2.813-2.813-2.813zM9.662 28.095c-1.007 0-1.829-0.821-1.829-1.829s0.821-1.829 1.829-1.829 1.829 0.821 1.829 1.829-0.821 1.829-1.829 1.829z"></path>
</svg>
