<!-- Generated by IcoMoon.io -->
<svg version="1.1" xmlns="http://www.w3.org/2000/svg" width="32" height="32" viewBox="0 0 32 32">
<title>smiley</title>
<path fill="#fff" d="M24.12 19.68c-0.201-0.101-0.442-0.023-0.542 0.178-0.093 0.178-0.186 0.349-0.287 0.519-1.557 2.588-4.277 4.13-7.291 4.13-3.208 0-6.106-1.774-7.57-4.626-0.101-0.201-0.341-0.279-0.542-0.178s-0.279 0.341-0.178 0.542c1.604 3.123 4.781 5.067 8.291 5.067 3.301 0 6.284-1.689 7.981-4.517 0.108-0.186 0.217-0.372 0.318-0.566 0.093-0.209 0.015-0.449-0.178-0.55z"></path>
<path fill="#fff" d="M11.033 14.063c0.225 0 0.403-0.178 0.403-0.403v-3.355c0-0.225-0.178-0.403-0.403-0.403s-0.403 0.178-0.403 0.403v3.355c0 0.217 0.178 0.403 0.403 0.403z"></path>
<path fill="#fff" d="M20.556 14.063c0.225 0 0.403-0.178 0.403-0.403v-3.355c0-0.225-0.178-0.403-0.403-0.403s-0.403 0.178-0.403 0.403v3.355c0 0.217 0.178 0.403 0.403 0.403z"></path>
<path fill="#fff" d="M16 0.504c-8.546 0-15.496 6.95-15.496 15.496s6.95 15.496 15.496 15.496 15.496-6.95 15.496-15.496-6.95-15.496-15.496-15.496zM16 30.691c-8.097 0-14.691-6.594-14.691-14.691s6.594-14.691 14.691-14.691c8.105 0 14.691 6.594 14.691 14.691s-6.594 14.691-14.691 14.691z"></path>
</svg>
