<!-- Generated by IcoMoon.io -->
<svg version="1.1" xmlns="http://www.w3.org/2000/svg" width="32" height="32" viewBox="0 0 32 32">
<title>snack</title>
<path fill="#fff" d="M16.031 7.903c0.008 0 0.008 0 0.015 0 1.147 0 1.294-0.829 1.488-1.883 0.039-0.194 0.077-0.411 0.124-0.651 0.116-0.581 0.411-0.759 0.814-1 0.457-0.279 1.030-0.628 1.201-1.612 0.163-0.938-0.279-1.759-1.139-2.1-0.938-0.372-2.355-0.124-3.277 1.278-1.255 1.922-0.876 4.068-0.86 4.169 0.116 0.666 0.604 1.79 1.635 1.798zM15.915 2.371c0.643-0.992 1.658-1.24 2.324-0.976 0.511 0.201 0.744 0.651 0.643 1.224-0.108 0.635-0.411 0.814-0.837 1.069-0.442 0.271-0.992 0.604-1.178 1.519-0.047 0.24-0.085 0.465-0.124 0.666-0.209 1.185-0.271 1.232-0.713 1.232-0.628 0-0.86-1.131-0.86-1.147v0c0-0.016-0.341-1.929 0.744-3.587z"></path>
<path fill="#fff" d="M24.275 11.033c-0.077-0.077-0.178-0.116-0.279-0.116h-0.922c1.116-1.844 0.798-3.835 0.783-3.921-0.108-0.666-0.573-1.805-1.604-1.821-0.015 0-0.031 0-0.047 0-1.116 0-1.278 0.821-1.48 1.86-0.039 0.194-0.077 0.411-0.132 0.643-0.124 0.573-0.418 0.752-0.829 0.992-0.465 0.271-1.038 0.612-1.224 1.596-0.047 0.225-0.054 0.442-0.023 0.659h-5.664c-0.085-0.132-0.17-0.271-0.279-0.434-0.108-0.17-0.232-0.349-0.356-0.558-0.31-0.504-0.217-0.829-0.093-1.286 0.139-0.519 0.318-1.162-0.232-1.999-0.527-0.798-1.418-1.085-2.262-0.744-0.93 0.372-1.805 1.526-1.503 3.177 0.116 0.635 0.349 1.255 0.69 1.844h-0.798c-0.217 0-0.395 0.178-0.395 0.395v19.758c0 0.163 0.101 0.31 0.248 0.372s0.325 0.023 0.434-0.101l0.604-0.651 0.604 0.651c0.077 0.077 0.178 0.124 0.294 0.124 0.108 0 0.217-0.047 0.287-0.124l0.581-0.628 0.566 0.612c0.077 0.077 0.178 0.124 0.294 0.124 0.108 0 0.217-0.047 0.287-0.124l0.597-0.643 0.597 0.643c0.077 0.077 0.178 0.124 0.294 0.124s0.217-0.047 0.287-0.124l0.581-0.628 0.589 0.635c0.077 0.077 0.178 0.124 0.294 0.124 0.108 0 0.217-0.047 0.287-0.124l0.597-0.643 0.597 0.643c0.077 0.077 0.178 0.124 0.294 0.124s0.217-0.047 0.294-0.124l0.597-0.651 0.604 0.651c0.077 0.077 0.178 0.124 0.294 0.124 0.108 0 0.217-0.047 0.287-0.124l0.604-0.651 0.612 0.666c0.077 0.077 0.178 0.124 0.294 0.124 0.108 0 0.217-0.047 0.287-0.124l0.612-0.659 0.597 0.643c0.077 0.077 0.178 0.124 0.294 0.124 0.108 0 0.217-0.047 0.287-0.124l0.612-0.659 0.604 0.651c0.108 0.116 0.287 0.163 0.434 0.101 0.155-0.062 0.248-0.209 0.248-0.372v-19.758c-0.008-0.093-0.054-0.194-0.124-0.271zM19.308 10.414c0.124-0.635 0.426-0.814 0.852-1.062 0.449-0.263 1.007-0.589 1.201-1.503 0.054-0.24 0.093-0.465 0.132-0.666 0.232-1.185 0.294-1.224 0.736-1.224 0.628 0.016 0.837 1.154 0.845 1.162 0 0.016 0.31 1.945-0.798 3.58-0.054 0.077-0.108 0.147-0.17 0.217h-2.797c-0.031-0.155-0.031-0.325 0-0.504zM8.895 8.934c-0.209-1.162 0.356-2.038 1.023-2.301 0.511-0.201 0.984-0.039 1.309 0.449 0.356 0.535 0.263 0.876 0.132 1.356-0.139 0.496-0.31 1.123 0.186 1.914 0.132 0.209 0.256 0.395 0.364 0.566v0h-2.154c-0.442-0.62-0.736-1.286-0.86-1.984zM9.538 11.707v0c0.015 0 0.015 0 0.023 0h9.484c0 0 0 0 0.008 0h3.231c0.008 0 0.008 0 0.015 0s0.008 0 0.015 0h1.294v16.635h-15.194v-16.635h1.123zM23.384 29.838c-0.077-0.077-0.178-0.124-0.294-0.124-0.108 0-0.217 0.047-0.287 0.124l-0.612 0.659-0.597-0.643c-0.077-0.077-0.178-0.124-0.294-0.124-0.108 0-0.217 0.047-0.287 0.124l-0.612 0.659-0.612-0.666c-0.077-0.077-0.178-0.124-0.294-0.124-0.108 0-0.217 0.047-0.287 0.124l-0.604 0.651-0.604-0.651c-0.077-0.077-0.178-0.124-0.294-0.124s-0.217 0.047-0.294 0.124l-0.597 0.651-0.597-0.643c-0.077-0.077-0.178-0.124-0.294-0.124-0.108 0-0.217 0.047-0.287 0.124l-0.597 0.643-0.589-0.635c-0.077-0.077-0.178-0.124-0.294-0.124-0.108 0-0.217 0.047-0.287 0.124l-0.581 0.628-0.597-0.643c-0.077-0.077-0.178-0.124-0.294-0.124-0.108 0-0.217 0.047-0.287 0.124l-0.597 0.643-0.566-0.612c-0.077-0.077-0.178-0.124-0.294-0.124-0.108 0-0.217 0.047-0.287 0.124l-0.581 0.628-0.604-0.651c-0.077-0.077-0.178-0.124-0.294-0.124-0.108 0-0.217 0.047-0.294 0.124l-0.209 0.225v-0.93h15.194v0.914l-0.194-0.225z"></path>
<path fill="#fff" d="M11.994 22.632c1.077 0.527 2.503 0.814 4.006 0.821v0c3.262 0 5.811-1.34 5.819-3.045 0-0.868-0.643-1.658-1.805-2.231-1.077-0.527-2.503-0.814-4.006-0.821v0c-1.503 0-2.929 0.287-4.006 0.814-1.17 0.573-1.813 1.364-1.813 2.231s0.635 1.658 1.805 2.231zM12.343 18.882c0.969-0.473 2.27-0.736 3.657-0.736v0c1.387 0 2.689 0.263 3.657 0.736 0.868 0.426 1.364 0.976 1.364 1.519 0 1.093-2.015 2.255-5.021 2.255v0c-1.387 0-2.689-0.263-3.657-0.736-0.868-0.426-1.364-0.976-1.364-1.519s0.496-1.093 1.364-1.519z"></path>
</svg>
