<!-- Generated by IcoMoon.io -->
<svg version="1.1" xmlns="http://www.w3.org/2000/svg" width="32" height="32" viewBox="0 0 32 32">
<title>social-media</title>
<path fill="#fff" d="M31.124 4.068h-30.249c-0.209 0-0.372 0.17-0.372 0.372v18.844c0 0.209 0.17 0.372 0.372 0.372h14.745v3.525h-9.306c-0.209 0-0.372 0.17-0.372 0.372s0.17 0.372 0.372 0.372h19.378c0.209 0 0.372-0.17 0.372-0.372s-0.17-0.372-0.372-0.372h-9.321v-3.525h14.745c0.209 0 0.372-0.17 0.372-0.372v-18.844c0.008-0.201-0.163-0.372-0.364-0.372zM30.745 22.911h-29.49v-18.092h29.497v18.092h-0.008z"></path>
<path fill="#fff" d="M5.462 12.405h17.743l2.417 2.704c0.070 0.077 0.178 0.124 0.279 0.124 0.047 0 0.093-0.008 0.132-0.023 0.147-0.054 0.24-0.194 0.24-0.349v-2.456h0.411c0.984 0 1.774-0.798 1.774-1.774v-1.689c0-0.984-0.798-1.782-1.774-1.782h-21.222c-0.984 0-1.774 0.798-1.774 1.782v1.689c0 0.976 0.798 1.774 1.774 1.774zM4.432 8.934c0-0.566 0.465-1.030 1.030-1.030h21.222c0.566 0 1.030 0.465 1.030 1.030v1.689c0 0.566-0.465 1.030-1.030 1.030h-0.783c-0.209 0-0.372 0.17-0.372 0.372v1.852l-1.875-2.1c-0.070-0.077-0.17-0.124-0.279-0.124h-17.914c-0.566 0-1.030-0.465-1.030-1.030v-1.689z"></path>
<path fill="#fff" d="M5.462 18.735h0.411v2.456c0 0.155 0.093 0.294 0.24 0.349 0.046 0.015 0.085 0.023 0.132 0.023 0.101 0 0.209-0.047 0.279-0.124l2.417-2.704h10.545c0.984 0 1.774-0.798 1.774-1.774v-1.697c0-0.984-0.798-1.782-1.774-1.782h-14.024c-0.984 0-1.774 0.798-1.774 1.782v1.689c0 0.984 0.798 1.782 1.774 1.782zM4.432 15.264c0-0.566 0.465-1.030 1.030-1.030h14.024c0.566 0 1.030 0.465 1.030 1.030v1.689c0 0.566-0.465 1.030-1.030 1.030h-10.716c-0.108 0-0.209 0.047-0.279 0.124l-1.875 2.1v-1.844c0-0.209-0.17-0.372-0.372-0.372h-0.783c-0.566 0-1.030-0.465-1.030-1.030v-1.697z"></path>
</svg>
