<!-- Generated by IcoMoon.io -->
<svg version="1.1" xmlns="http://www.w3.org/2000/svg" width="32" height="32" viewBox="0 0 32 32">
<title>social-media-01</title>
<path fill="#fff" d="M16.132 12.134c-2.51 0-4.548 2.038-4.548 4.548s2.038 4.548 4.548 4.548 4.548-2.038 4.548-4.548-2.046-4.548-4.548-4.548zM16.132 20.424c-2.061 0-3.742-1.681-3.742-3.742s1.681-3.742 3.742-3.742 3.742 1.681 3.742 3.742c0 2.069-1.681 3.742-3.742 3.742z"></path>
<path fill="#fff" d="M18.906 21.927h-5.687c-3.239 0-5.881 2.541-5.881 5.664v2.115c0 0.225 0.178 0.403 0.403 0.403h16.434c0.225 0 0.403-0.178 0.403-0.403v-2.115c0-3.177-2.495-5.664-5.672-5.664zM23.771 29.304h-15.636v-1.712c0-2.681 2.278-4.858 5.075-4.858h5.695c2.727 0 4.866 2.139 4.866 4.858v1.712z"></path>
<path fill="#fff" d="M12.382 9.22h3.921l1.1 2.154c0.070 0.132 0.209 0.217 0.356 0.217 0.008 0 0.015 0 0.023 0 0.155-0.008 0.294-0.108 0.356-0.256l0.814-2.115h0.38c0.876 0 1.581-0.713 1.581-1.581v-4.169c0-0.876-0.713-1.581-1.581-1.581h-6.942c-0.876 0-1.581 0.713-1.581 1.581v4.169c-0.008 0.876 0.697 1.581 1.573 1.581zM11.607 3.471c0-0.426 0.349-0.775 0.775-0.775h6.942c0.426 0 0.775 0.349 0.775 0.775v4.169c0 0.426-0.349 0.775-0.775 0.775h-0.651c-0.163 0-0.318 0.101-0.372 0.256l-0.589 1.534-0.798-1.573c-0.070-0.132-0.209-0.217-0.356-0.217h-4.169c-0.426 0-0.775-0.349-0.775-0.775l-0.008-4.169z"></path>
<path fill="#fff" d="M29.916 13.172h-4.006l-2.472-2.27c-0.132-0.116-0.318-0.139-0.465-0.054-0.155 0.085-0.232 0.256-0.201 0.426l0.372 1.898h-0.17c-0.876 0-1.581 0.713-1.581 1.581v4.169c0 0.876 0.713 1.581 1.581 1.581h6.942c0.876 0 1.581-0.713 1.581-1.581v-4.169c0-0.876-0.713-1.581-1.581-1.581zM30.691 18.921c0 0.426-0.349 0.775-0.775 0.775h-6.942c-0.426 0-0.775-0.349-0.775-0.775v-4.169c0-0.426 0.349-0.775 0.775-0.775h0.659c0.116 0 0.232-0.054 0.31-0.147s0.108-0.217 0.085-0.333l-0.232-1.178 1.689 1.55c0.077 0.070 0.17 0.108 0.271 0.108h4.169c0.426 0 0.775 0.349 0.775 0.775l-0.008 4.169z"></path>
<path fill="#fff" d="M10.615 18.921v-4.169c0-0.876-0.713-1.581-1.581-1.581h-0.17l0.372-1.898c0.031-0.17-0.046-0.341-0.201-0.426s-0.341-0.062-0.465 0.054l-2.479 2.27h-4.006c-0.876 0-1.581 0.713-1.581 1.581v4.169c0 0.876 0.713 1.581 1.581 1.581h6.942c0.876 0 1.588-0.705 1.588-1.581zM1.309 18.921v-4.169c0-0.426 0.349-0.775 0.775-0.775h4.169c0.101 0 0.194-0.039 0.271-0.108l1.689-1.55-0.232 1.178c-0.023 0.116 0.008 0.24 0.085 0.333s0.194 0.147 0.31 0.147h0.659c0.426 0 0.775 0.349 0.775 0.775v4.169c0 0.426-0.349 0.775-0.775 0.775h-6.95c-0.426 0-0.775-0.349-0.775-0.775z"></path>
<path fill="#fff" d="M15.016 5.85v0c0.008 0.302 0.008 0.643 0.008 0.914 0 0.178 0 0.325 0 0.442v0.178c0 0.124 0.046 0.248 0.139 0.341 0.085 0.093 0.209 0.139 0.341 0.139h0.705c0.132 0 0.248-0.054 0.341-0.139 0.093-0.093 0.139-0.209 0.139-0.341l-0.008-0.891c0-0.209-0.008-0.434-0.008-0.62 0.116-0.008 0.217-0.054 0.294-0.132 0.093-0.085 0.139-0.209 0.139-0.341v-0.488c0-0.039-0.008-0.085-0.015-0.124 0 0 0 0 0.008-0.008l0.008-0.008 0.008-0.016 0.015-0.023 0.015-0.031c0-0.008 0.008-0.008 0.008-0.016l0.023-0.023 0.023-0.062c0.023-0.077 0.047-0.163 0.070-0.248 0.015-0.054 0.023-0.116 0.039-0.17 0.015-0.077 0.015-0.139 0.015-0.201 0-0.039 0-0.077-0.008-0.116-0.031-0.17-0.147-0.31-0.31-0.372-0.256-0.093-0.511-0.139-0.744-0.139v0c-0.279 0-0.527 0.062-0.752 0.194-0.132 0.077-0.248 0.178-0.333 0.302-0.108 0.147-0.178 0.318-0.217 0.527-0.101 0.016-0.201 0.062-0.279 0.132-0.093 0.093-0.147 0.217-0.139 0.341v0.519c0 0.263 0.209 0.48 0.473 0.48zM14.962 4.788c0.015-0.016 0.039-0.023 0.054-0.023v0c0 0 0.008 0 0.015 0s0.015 0 0.031 0c0.031 0 0.070 0 0.108 0 0.046 0 0.101 0 0.147 0 0.008-0.101 0.008-0.209 0.031-0.318 0.023-0.132 0.070-0.256 0.147-0.372 0.054-0.077 0.124-0.139 0.217-0.194 0.178-0.101 0.372-0.139 0.55-0.139v0c0.232 0 0.442 0.062 0.604 0.116 0.023 0.008 0.047 0.031 0.054 0.062 0 0.015 0.008 0.039 0.008 0.054 0 0.039-0.008 0.085-0.015 0.132s-0.015 0.093-0.031 0.139-0.054 0.178-0.070 0.232v0 0 0.016c0 0 0 0.008-0.008 0.008l-0.008 0.008c0 0 0 0-0.008 0.008 0 0 0 0-0.008 0.008l-0.008 0.008h-0.015c0 0 0 0-0.008 0h-0.015c0 0 0 0-0.008 0v0h-0.023c-0.116-0.046-0.209-0.062-0.271-0.062v0c-0.039 0-0.070 0.008-0.093 0.016s-0.039 0.023-0.062 0.039c-0.008 0.016-0.023 0.031-0.031 0.046-0.015 0.023-0.023 0.062-0.031 0.101s-0.015 0.085-0.015 0.139c0.023 0 0.047 0 0.077 0 0.085 0 0.186 0 0.248 0 0.031 0 0.054-0.008 0.070-0.008s0.023 0 0.023 0c0.023 0 0.039 0.016 0.054 0.031s0.023 0.039 0.023 0.062v0.488c0 0.023-0.008 0.039-0.023 0.054s-0.031 0.023-0.054 0.023v0c0 0-0.008 0-0.015 0-0.015 0-0.031 0-0.047 0-0.039 0-0.101 0-0.155 0h-0.008c-0.047 0-0.093 0-0.132 0 0 0.194 0.008 0.62 0.008 1.023 0.008 0.465 0.008 0.891 0.008 0.891 0 0.023-0.008 0.039-0.023 0.054s-0.031 0.023-0.054 0.023h-0.697c-0.023 0-0.039-0.008-0.054-0.023s-0.023-0.039-0.023-0.054c0 0 0-0.016 0-0.046s0-0.077 0-0.132c0-0.108 0-0.263 0-0.442 0-0.418 0-0.953-0.023-1.317-0.023 0-0.054 0-0.085 0-0.093 0-0.186 0-0.248 0-0.031 0-0.054 0-0.054 0-0.046 0-0.077-0.039-0.077-0.085v-0.519c0-0.008 0.008-0.031 0.023-0.046z"></path>
<path fill="#fff" d="M7.524 15.109c-0.178-0.015-0.356-0.015-0.527 0.008-0.279-0.294-0.666-0.457-1.077-0.457-0.395 0-0.744 0.155-0.969 0.434-0.163 0.201-0.333 0.558-0.225 1.116 0.031 0.163 0.046 0.302 0.046 0.434-0.542-0.015-1.17-0.31-1.178-0.31-0.070-0.031-0.147-0.023-0.209 0.023s-0.085 0.124-0.070 0.194c0.054 0.24 0.132 0.465 0.232 0.674-0.356-0.093-0.651-0.225-0.651-0.232-0.070-0.031-0.147-0.023-0.209 0.023s-0.085 0.124-0.070 0.194c0.248 1.193 1.178 1.968 2.371 1.968 0.705 0 1.371-0.287 1.829-0.798 0.356-0.395 0.752-1.1 0.635-2.239-0.016-0.116-0.031-0.232-0.062-0.341 0.147-0.209 0.271-0.356 0.279-0.356 0.046-0.054 0.062-0.139 0.039-0.209-0.046-0.070-0.116-0.116-0.186-0.124zM6.973 15.83c0.039 0.108 0.062 0.225 0.077 0.349 0.077 0.79-0.101 1.457-0.535 1.937-0.38 0.426-0.938 0.666-1.534 0.666-0.666 0-1.511-0.341-1.867-1.271 0.225 0.077 0.527 0.163 0.829 0.186 0.077 0.008 0.155-0.031 0.194-0.101s0.031-0.155-0.016-0.217c-0.124-0.155-0.225-0.333-0.302-0.527 0.318 0.108 0.775 0.225 1.17 0.186 0.093-0.008 0.163-0.077 0.178-0.17 0.031-0.209 0.016-0.449-0.039-0.728-0.062-0.318-0.016-0.589 0.139-0.783 0.147-0.186 0.387-0.287 0.666-0.287 0.325 0 0.635 0.147 0.845 0.395 0.046 0.054 0.116 0.077 0.186 0.070 0.046-0.008 0.101-0.015 0.155-0.015-0.031 0.046-0.070 0.101-0.101 0.147-0.062 0.039-0.070 0.101-0.046 0.163z"></path>
<path fill="#fff" d="M27.886 15.14h-2.882c-0.527 0-0.953 0.426-0.953 0.953v1.643c0 0.527 0.426 0.953 0.953 0.953h2.882c0.527 0 0.953-0.426 0.953-0.953v-1.643c-0.008-0.519-0.434-0.953-0.953-0.953zM28.436 17.736c0 0.302-0.248 0.55-0.55 0.55h-2.882c-0.302 0-0.55-0.248-0.55-0.55v-1.643c0-0.302 0.248-0.55 0.55-0.55h2.882c0.302 0 0.55 0.248 0.55 0.55v1.643z"></path>
<path fill="#fff" d="M27.328 16.852l-1.271-0.651c-0.085-0.039-0.178 0.015-0.178 0.108v1.302c0 0.093 0.101 0.147 0.178 0.108l1.271-0.651c0.085-0.039 0.085-0.17 0-0.217z"></path>
</svg>
