<!-- Generated by IcoMoon.io -->
<svg version="1.1" xmlns="http://www.w3.org/2000/svg" width="32" height="32" viewBox="0 0 32 32">
<title>spa</title>
<path fill="#fff" d="M16.163 17.472c2.906 0 5.455-2.169 5.951-5.052l0.015-0.054c0.666-1.774 1.542-4.959 0.232-6.911 0.039-0.178 0.039-0.395-0.015-0.666-0.341-1.627-2.875-4.478-5.579-4.269-3.719 0.287-8.050 3.502-8.322 7.655-0.201 3.138 2.030 5.672 2.386 6.059 1.038 1.96 3.115 3.239 5.331 3.239zM16.163 16.535c-1.844 0-3.572-1.046-4.447-2.681 0.101-0.488 0.504-2.084 1.65-3.696 1.030-1.441 2.355-2.495 3.959-3.146 0.55 1.24 2.177 4.626 3.812 5.548-0.542 2.293-2.619 3.975-4.974 3.975zM21.586 6.214c0.047 0 0.093-0.008 0.139-0.023 0.597 1.154 0.488 3.13-0.318 5.447-1.077-0.759-2.417-3.169-3.2-4.928 1.023-0.31 2.146-0.48 3.378-0.496zM9.383 8.229c0.232-3.572 4.13-6.524 7.461-6.78 0.070-0.008 0.147-0.008 0.217-0.008 1.79 0 3.471 1.658 4.122 2.882 0.287 0.542 0.302 0.868 0.256 0.969-1.542 0.031-2.867 0.294-4.006 0.705-0.015 0.008-0.031 0-0.039 0.008-0.008 0-0.015 0.008-0.015 0.016-4.261 1.557-5.85 5.199-6.377 6.927-0.697-0.938-1.751-2.712-1.619-4.719z"></path>
<path fill="#fff" d="M21.044 18.541h-9.817c-4.223 0-7.655 3.308-7.655 7.376v5.114c0 0.256 0.209 0.465 0.465 0.465h23.926c0.256 0 0.465-0.209 0.465-0.465v-5.114c0-4.138-3.239-7.376-7.384-7.376zM27.498 30.567h-22.997v-4.649c0-3.556 3.014-6.447 6.725-6.447h9.817c3.618 0 6.454 2.828 6.454 6.447v4.649z"></path>
</svg>
