<!-- Generated by IcoMoon.io -->
<svg version="1.1" xmlns="http://www.w3.org/2000/svg" width="32" height="32" viewBox="0 0 32 32">
<title>speed</title>
<path fill="#fff" d="M16.287 25.553c-0.155-0.155-0.411-0.155-0.573 0l-5.253 5.253c-0.116 0.116-0.147 0.287-0.085 0.442 0.062 0.147 0.209 0.248 0.372 0.248h2.937c0.225 0 0.403-0.178 0.403-0.403s-0.178-0.403-0.403-0.403h-1.96l4.277-4.277 4.285 4.277h-1.96c-0.225 0-0.403 0.178-0.403 0.403s0.178 0.403 0.403 0.403h2.937c0.163 0 0.31-0.101 0.372-0.248s0.031-0.325-0.085-0.442l-5.261-5.253z"></path>
<path fill="#fff" d="M16.287 13.985c-0.155-0.155-0.411-0.155-0.573 0l-7.934 7.926c-0.116 0.116-0.147 0.287-0.085 0.442 0.062 0.147 0.209 0.248 0.372 0.248h4.432c0.225 0 0.403-0.178 0.403-0.403s-0.178-0.403-0.403-0.403h-3.456l6.958-6.958 6.958 6.958h-3.456c-0.225 0-0.403 0.178-0.403 0.403s0.178 0.403 0.403 0.403h4.432c0.163 0 0.31-0.101 0.372-0.248s0.031-0.325-0.085-0.442l-7.934-7.926z"></path>
<path fill="#fff" d="M26.739 11.072l-10.452-10.452c-0.155-0.155-0.418-0.155-0.573 0l-10.452 10.452c-0.116 0.116-0.147 0.287-0.085 0.442 0.062 0.147 0.209 0.248 0.372 0.248h5.842c0.225 0 0.403-0.178 0.403-0.403s-0.178-0.403-0.403-0.403h-4.866l9.476-9.484 9.476 9.484h-4.866c-0.225 0-0.403 0.178-0.403 0.403s0.178 0.403 0.403 0.403h5.842c0.163 0 0.31-0.101 0.372-0.248 0.070-0.155 0.031-0.325-0.085-0.442z"></path>
</svg>
