<!-- Generated by IcoMoon.io -->
<svg version="1.1" xmlns="http://www.w3.org/2000/svg" width="32" height="32" viewBox="0 0 32 32">
<title>speedometer</title>
<path fill="#fff" d="M16 1.062c-8.546 0-15.496 6.95-15.496 15.496 0 4.138 1.612 8.027 4.54 10.956 0.155 0.155 0.411 0.155 0.573 0 0 0 0-0.008 0.008-0.008 0.016-0.008 0.031-0.015 0.046-0.031l2.146-2.146c0.155-0.155 0.155-0.411 0-0.573-0.155-0.155-0.411-0.155-0.573 0l-1.898 1.898c-1.185-1.247-2.123-2.665-2.797-4.2l2.479-1.023c0.209-0.085 0.302-0.325 0.217-0.527-0.085-0.209-0.318-0.302-0.527-0.217l-2.472 1.023c-0.573-1.534-0.883-3.161-0.922-4.843h2.681c0.225 0 0.403-0.178 0.403-0.403s-0.178-0.403-0.403-0.403h-2.681c0.054-1.697 0.403-3.324 0.992-4.827l2.487 1.030c0.054 0.023 0.101 0.031 0.155 0.031 0.155 0 0.31-0.093 0.372-0.248 0.085-0.209-0.016-0.442-0.217-0.527l-2.487-1.030c0.666-1.472 1.573-2.813 2.665-3.975l1.945 1.945c0.077 0.077 0.186 0.116 0.287 0.116s0.209-0.039 0.287-0.116c0.155-0.155 0.155-0.411 0-0.573l-1.945-1.945c1.224-1.17 2.65-2.131 4.223-2.828l1.046 2.518c0.062 0.155 0.217 0.248 0.372 0.248 0.054 0 0.101-0.008 0.155-0.031 0.209-0.085 0.302-0.325 0.217-0.527l-1.046-2.518c1.488-0.558 3.092-0.883 4.757-0.93v2.735c0 0.225 0.178 0.403 0.403 0.403s0.403-0.178 0.403-0.403v-2.735c1.743 0.046 3.409 0.395 4.951 1l-1.046 2.549c-0.085 0.209 0.015 0.442 0.217 0.527 0.054 0.023 0.101 0.031 0.155 0.031 0.155 0 0.31-0.093 0.372-0.248l1.046-2.534c1.495 0.682 2.859 1.612 4.037 2.735l-1.922 1.922c-0.155 0.155-0.155 0.411 0 0.573 0.077 0.077 0.186 0.116 0.287 0.116s0.209-0.039 0.287-0.116l1.922-1.922c1.147 1.224 2.092 2.634 2.766 4.192l-2.534 1.054c-0.209 0.085-0.302 0.325-0.217 0.527 0.062 0.155 0.217 0.248 0.372 0.248 0.054 0 0.101-0.008 0.155-0.031l2.526-1.046c0.566 1.519 0.883 3.154 0.914 4.866h-2.735c-0.225 0-0.403 0.178-0.403 0.403s0.178 0.403 0.403 0.403h2.727c-0.062 1.681-0.411 3.308-1.007 4.843l-2.518-1.046c-0.209-0.085-0.442 0.015-0.527 0.217-0.085 0.209 0.015 0.442 0.217 0.527l2.51 1.038c-0.666 1.441-1.573 2.774-2.689 3.959l-1.906-1.906c-0.155-0.155-0.411-0.155-0.573 0-0.155 0.155-0.155 0.411 0 0.573l2.146 2.146c0.015 0.015 0.039 0.023 0.054 0.031 0 0 0 0 0 0.008 0.077 0.077 0.186 0.116 0.287 0.116s0.209-0.039 0.287-0.116c2.929-2.929 4.54-6.818 4.54-10.956 0-8.546-6.95-15.496-15.496-15.496z"></path>
<path fill="#fff" d="M22.532 9.98c-0.147-0.147-0.38-0.155-0.535-0.031l-5.78 4.633c-0.62-0.085-1.247 0.124-1.697 0.573-0.387 0.387-0.612 0.899-0.612 1.449s0.201 1.069 0.589 1.457c0.403 0.411 0.93 0.612 1.464 0.612 0.519 0 1.038-0.194 1.441-0.589 0.457-0.449 0.674-1.069 0.597-1.697l4.571-5.873c0.124-0.163 0.108-0.387-0.039-0.535zM17.255 16.031c-0.070 0.093-0.101 0.217-0.077 0.333 0.093 0.418-0.039 0.852-0.341 1.147-0.24 0.232-0.542 0.349-0.883 0.356-0.333 0-0.643-0.132-0.876-0.372s-0.364-0.55-0.356-0.883c0-0.333 0.132-0.643 0.372-0.876 0.232-0.232 0.542-0.356 0.868-0.356 0.093 0 0.194 0.008 0.287 0.031 0.124 0.031 0.248 0 0.341-0.077l3.231-2.588-2.565 3.285z"></path>
<path fill="#fff" d="M21.865 26.328h-11.723c-0.612 0-1.108 0.496-1.108 1.108v2.394c0 0.612 0.496 1.108 1.108 1.108h11.723c0.612 0 1.108-0.496 1.108-1.108v-2.394c-0.008-0.612-0.504-1.108-1.108-1.108zM22.16 29.831c0 0.163-0.132 0.302-0.302 0.302h-11.715c-0.163 0-0.302-0.132-0.302-0.302v-2.394c0-0.163 0.132-0.302 0.302-0.302h11.723c0.163 0 0.302 0.132 0.302 0.302v2.394h-0.008z"></path>
</svg>
