<!-- Generated by IcoMoon.io -->
<svg version="1.1" xmlns="http://www.w3.org/2000/svg" width="32" height="32" viewBox="0 0 32 32">
<title>speech</title>
<path fill="#fff" d="M27.188 1.147h-22.377c-2.371 0-4.308 1.929-4.308 4.308v13.435c0 2.371 1.929 4.308 4.308 4.308h13.234l8.941 7.539c0.093 0.077 0.209 0.116 0.325 0.116 0.093 0 0.194-0.023 0.279-0.085 0.186-0.124 0.271-0.349 0.209-0.566l-2.046-7.012h1.441c2.371 0 4.308-1.929 4.308-4.308v-13.428c-0.008-2.379-1.937-4.308-4.316-4.308zM30.489 18.89c0 1.821-1.48 3.293-3.293 3.293h-2.115c-0.163 0-0.31 0.077-0.403 0.201s-0.124 0.294-0.077 0.442l1.767 6.051-7.802-6.578c-0.093-0.077-0.209-0.116-0.325-0.116h-13.428c-1.821 0-3.293-1.48-3.293-3.293v-13.435c0-1.821 1.48-3.293 3.293-3.293h22.384c1.821 0 3.293 1.48 3.293 3.293v13.435z"></path>
</svg>
