<!-- Generated by IcoMoon.io -->
<svg version="1.1" xmlns="http://www.w3.org/2000/svg" width="32" height="32" viewBox="0 0 32 32">
<title>sports-equipment</title>
<path fill="#fff" d="M31.427 27.568l-4.734-6.888-0.333-5.734c0 0 0 0 0-0.008 0.558-2.65-0.054-5.78-1.929-8.5-3.177-4.633-8.802-6.323-12.521-3.758-2.851 1.96-3.843 5.85-2.565 9.809-0.225 0-0.349 0.015-0.364 0.015-0.023 0-0.046 0.008-0.070 0.015-1.736 0.116-3.339 0.721-4.664 1.681-0.008 0.008-0.023 0.008-0.039 0.015s-0.132 0.093-0.302 0.232c-0.418 0.333-0.806 0.697-1.154 1.1-0.256 0.279-0.504 0.597-0.728 0.93-0.054 0.077-0.101 0.163-0.155 0.24-0.488 0.775-0.86 1.635-1.093 2.549-0.008 0.015-0.008 0.031-0.008 0.031 0 0.008 0 0.008 0 0.015-0.17 0.697-0.263 1.418-0.263 2.162 0 0.976 0.163 1.922 0.449 2.805 0 0.008 0 0.015 0.008 0.031 0 0 0.008 0.015 0.008 0.023 0.325 0.969 0.806 1.867 1.426 2.658 0.008 0.015 0.023 0.031 0.031 0.047 0.814 1.209 2.185 1.999 2.247 2.038 0.008 0.008 0.016 0.008 0.031 0.008 1.232 0.783 2.673 1.278 4.215 1.371 0.023 0.008 0.039 0.015 0.062 0.015s0.256 0.031 0.628 0.031c0.62 0 1.635-0.077 2.758-0.496 0.031-0.008 0.062-0.023 0.085-0.031 0.473-0.163 0.93-0.364 1.364-0.604 0.744-0.395 1.085-0.69 1.1-0.713l0.008-0.008c1.356-1.030 2.417-2.441 3.022-4.068 0 0 0-0.008 0.008-0.008 0 0 0.008-0.015 0.008-0.023 0.248-0.682 0.418-1.402 0.496-2.146 0.031-0.248 0.047-0.48 0.047-0.69 0-0.008 0-0.023 0-0.031 0-0.070 0.008-0.139 0.008-0.209 0-0.279-0.015-0.558-0.039-0.829l3.014 1.139c-0.643 0.248-1.216 0.635-1.681 1.139 0 0 0 0-0.008 0-0.008 0.008-0.008 0.008-0.008 0.015-0.721 0.79-1.162 1.836-1.162 2.983 0 1.139 0.434 2.177 1.147 2.968 0.008 0.008 0.015 0.023 0.023 0.039 0.008 0 0.008 0.008 0.015 0.008 0.814 0.876 1.968 1.426 3.247 1.426s2.433-0.55 3.239-1.418c0.008-0.008 0.015-0.008 0.023-0.015 0.023-0.015 0.031-0.039 0.047-0.062 0.349-0.395 0.635-0.852 0.829-1.356l1.379 2.015c0.077 0.108 0.194 0.163 0.318 0.163 0.077 0 0.147-0.023 0.217-0.070l2.239-1.542c0.085-0.054 0.139-0.147 0.163-0.248 0-0.077-0.023-0.186-0.085-0.263zM17.666 22.431c-0.008 0.077-0.023 0.147-0.031 0.225-0.047 0.271-0.108 0.542-0.17 0.798l-0.945-1.782c-0.039-0.070-0.039-0.155-0.008-0.232l0.922-2.076c0.039 0.147 0.085 0.302 0.116 0.457 0.008 0.023 0.008 0.039 0.015 0.062 0.015 0.085 0.023 0.17 0.039 0.256 0.054 0.411 0.093 0.93 0.116 1.511-0.008 0.225-0.015 0.449-0.031 0.666-0.008 0.031-0.015 0.077-0.023 0.116zM15.814 21.122c-0.015 0.039-0.023 0.070-0.031 0.108l-2.441-0.070-2.286-3.184 0.69-2.355c0.008 0 0.023 0 0.031 0l2.89-0.519c1.046 0.845 1.875 1.937 2.41 3.185l-1.263 2.836zM13.451 28.707c-0.031 0.015-0.062 0.031-0.093 0.047-0.132 0.070-0.271 0.132-0.411 0.194-0.155 0.070-0.318 0.139-0.496 0.209-0.767 0.294-1.596 0.48-2.456 0.535l1.364-1.325c0.062-0.062 0.147-0.093 0.225-0.093 0.015 0 0.031 0 0.054 0.008l1.976 0.325c-0.054 0.031-0.108 0.070-0.163 0.101zM10.824 27.824l-1.922 1.867c-1.356-0.101-2.611-0.527-3.711-1.201l-0.589-2.696c-0.008-0.023-0.016-0.039-0.023-0.062l2.022-1.65 3.68 1.216 0.651 2.448c-0.039 0.023-0.077 0.047-0.108 0.077zM2.991 26.507c-0.325-0.496-0.628-1.054-0.86-1.519l1.557 0.759c0.085 0.039 0.147 0.116 0.163 0.209l0.411 1.875c-0.473-0.387-0.891-0.837-1.271-1.325zM1.271 21.493c0-0.628 0.077-1.247 0.217-1.836l2.495-1.457c0.023-0.015 0.039-0.031 0.062-0.047l2.115 1.41-0.023 3.905-2.022 1.658c-0.031-0.023-0.062-0.047-0.093-0.062l-2.394-1.162c-0.232-0.767-0.356-1.573-0.356-2.41zM3.123 16.31c0.031-0.031 0.054-0.070 0.085-0.101 0.093-0.108 0.194-0.217 0.294-0.325 0.155-0.155 0.302-0.31 0.442-0.434l0.008-0.008-0.232 1.906c-0.008 0.077-0.054 0.147-0.124 0.194l-1.759 1.030c0.147-0.364 0.333-0.798 0.566-1.224 0.217-0.364 0.449-0.713 0.721-1.038zM8.895 13.296l2.076 2.076c0.015 0.015 0.023 0.023 0.039 0.031l-0.69 2.348-3.719 1.185-2.139-1.426c0.008-0.023 0.016-0.047 0.016-0.077l0.31-2.681c1.185-0.821 2.588-1.348 4.107-1.457zM10.615 13.35c0.046 0.008 0.101 0.015 0.147 0.023 0.186 0.031 0.387 0.070 0.604 0.116 0.868 0.201 1.674 0.542 2.41 0.992l-2.139 0.387c-0.046 0.008-0.093-0.008-0.124-0.039l-1.542-1.542c0.093 0.008 0.194 0.008 0.287 0.015 0.108 0.015 0.232 0.031 0.356 0.046zM10.452 24.546l-3.549-1.178 0.023-3.735 3.556-1.131 2.177 3.037-2.208 3.006zM19.456 19.921l5.85-4.021c-0.457 1.201-1.216 2.231-2.27 2.96-1.046 0.705-2.262 1.069-3.58 1.061zM12.343 3.308c3.37-2.317 8.515-0.721 11.46 3.564 1.736 2.526 2.324 5.431 1.821 7.872l-7.299 5.021c-0.008-0.047-0.015-0.093-0.031-0.139-0.023-0.132-0.054-0.256-0.085-0.356v-0.008c-0.085-0.341-0.201-0.674-0.325-1.007-0.023-0.054-0.031-0.093-0.031-0.101s-0.008-0.015-0.015-0.031c-0.597-1.464-1.565-2.743-2.789-3.711-0.008-0.008-0.015-0.015-0.023-0.023-0.054-0.046-1.441-1.178-3.216-1.596-0.008 0-0.023-0.008-0.031-0.008-0.48-0.124-0.976-0.209-1.488-0.256-0.039-0.008-0.085-0.008-0.124-0.015-1.309-3.719-0.449-7.4 2.177-9.205zM14.536 27.986l-2.774-0.457c-0.031-0.008-0.062 0-0.093-0.008l-0.651-2.448 2.309-3.146 2.503 0.070c0.008 0.008 0.008 0.015 0.008 0.023l1.309 2.464c-0.542 1.395-1.449 2.596-2.611 3.502zM22.749 21.47l-2.247-0.852c1.077-0.147 2.076-0.527 2.968-1.131 0.976-0.674 1.72-1.573 2.239-2.619l0.217 3.82-1.519 1.038c-0.434-0.139-0.891-0.217-1.364-0.217-0.070 0-0.139 0.008-0.209 0.008-0.031-0.015-0.054-0.039-0.085-0.047zM23.043 22.276c0.945 0 1.805 0.364 2.456 0.953-0.674 0.604-1.55 0.945-2.456 0.945-0.914 0-1.79-0.341-2.456-0.945 0.643-0.589 1.503-0.953 2.456-0.953zM20.579 28.653c0.674-0.604 1.55-0.945 2.456-0.945 0.914 0 1.79 0.341 2.456 0.945-0.651 0.589-1.511 0.953-2.456 0.953s-1.805-0.364-2.456-0.953zM26.011 28.087c-0.814-0.728-1.867-1.147-2.968-1.147s-2.162 0.411-2.968 1.147c-0.434-0.604-0.697-1.34-0.697-2.139s0.263-1.542 0.697-2.139c0.814 0.728 1.867 1.147 2.968 1.147s2.162-0.411 2.968-1.147c0.434 0.604 0.697 1.34 0.697 2.139 0 0.79-0.263 1.534-0.697 2.139zM28.97 28.785l-1.542-2.247c0.023-0.194 0.047-0.395 0.047-0.597 0-1.147-0.442-2.185-1.154-2.975-0.008-0.008-0.008-0.015-0.023-0.023 0 0-0.008 0-0.008-0.008-0.31-0.333-0.666-0.62-1.061-0.845l1.023-0.705 4.331 6.299-1.612 1.1z"></path>
</svg>
