<!-- Generated by IcoMoon.io -->
<svg version="1.1" xmlns="http://www.w3.org/2000/svg" width="32" height="32" viewBox="0 0 32 32">
<title>staircase</title>
<path fill="#fff" d="M31.086 5.021h-6.4c-0.225 0-0.411 0.186-0.411 0.411s0.186 0.411 0.411 0.411h0.054v3.401h-5.989c-0.225 0-0.411 0.186-0.411 0.411s0.186 0.411 0.411 0.411h0.062v3.425h-6.005c-0.225 0-0.411 0.186-0.411 0.411s0.186 0.411 0.411 0.411h0.062v3.409h-6.005c-0.225 0-0.411 0.186-0.411 0.411s0.186 0.411 0.411 0.411h0.077v3.409h-6.028c-0.225 0-0.411 0.186-0.411 0.411s0.186 0.411 0.411 0.411h0.101v3.82c0 0.225 0.186 0.411 0.411 0.411h29.668c0.225 0 0.411-0.186 0.411-0.411v-21.16c-0.008-0.232-0.194-0.411-0.418-0.411zM1.829 26.166v-3.409h5.524c0.225 0 0.411-0.186 0.411-0.411v-3.82h5.509c0.225 0 0.411-0.186 0.411-0.411v-3.82h5.532c0.225 0 0.411-0.186 0.411-0.411v-3.828h5.47c0.015 0 0.039 0.008 0.054 0.008 0.225 0 0.411-0.186 0.411-0.411v-3.82h5.114v20.331h-28.846z"></path>
</svg>
