<!-- Generated by IcoMoon.io -->
<svg version="1.1" xmlns="http://www.w3.org/2000/svg" width="32" height="32" viewBox="0 0 32 32">
<title>stop-watch</title>
<path fill="#fff" d="M13.319 1.364h5.284c0.24 0 0.434-0.194 0.434-0.426s-0.194-0.426-0.434-0.426h-5.284c-0.24 0-0.434 0.194-0.434 0.426s0.201 0.426 0.434 0.426z"></path>
<path fill="#fff" d="M25.832 7.245l1.263-1.271 1.395 1.395c0.085 0.085 0.194 0.124 0.302 0.124s0.217-0.039 0.302-0.124c0.17-0.17 0.17-0.442 0-0.604l-3.394-3.394c-0.17-0.17-0.442-0.17-0.612 0s-0.17 0.442 0 0.604l1.395 1.395-1.294 1.294c-2.472-2.123-5.687-3.417-9.189-3.417-7.787 0-14.125 6.338-14.125 14.125s6.338 14.125 14.125 14.125 14.125-6.338 14.125-14.125c0-3.967-1.65-7.554-4.293-10.127zM16.434 30.629v-2.673c0-0.24-0.194-0.426-0.434-0.426s-0.434 0.194-0.434 0.426v2.673c-6.973-0.225-12.599-5.85-12.823-12.823h2.735c0.24 0 0.434-0.194 0.434-0.426 0-0.24-0.194-0.426-0.434-0.426h-2.727c0.225-6.973 5.85-12.599 12.823-12.823v2.689c0 0.24 0.194 0.426 0.434 0.426s0.434-0.194 0.434-0.426v-2.696c6.973 0.225 12.599 5.85 12.823 12.823h-2.58c-0.24 0-0.434 0.194-0.434 0.426 0 0.24 0.194 0.426 0.434 0.426h2.58c-0.232 6.973-5.865 12.606-12.831 12.831z"></path>
<path fill="#fff" d="M20.835 11.824l-3.944 3.944c-0.263-0.147-0.566-0.232-0.883-0.232-1.023 0-1.852 0.829-1.852 1.852s0.829 1.852 1.852 1.852 1.852-0.829 1.852-1.852c0-0.387-0.116-0.744-0.325-1.046l3.913-3.913c0.17-0.17 0.17-0.442 0-0.604-0.178-0.17-0.449-0.17-0.612 0zM16 18.379c-0.55 0-0.992-0.449-0.992-0.992 0-0.55 0.442-0.992 0.992-0.992s0.992 0.449 0.992 0.992-0.442 0.992-0.992 0.992z"></path>
</svg>
