<!-- Generated by IcoMoon.io -->
<svg version="1.1" xmlns="http://www.w3.org/2000/svg" width="32" height="32" viewBox="0 0 32 32">
<title>strategy</title>
<path fill="#fff" d="M20.928 16.829c0.085 0.085 0.194 0.124 0.302 0.124s0.217-0.039 0.302-0.124l1.441-1.441 1.387 1.387c0.085 0.085 0.194 0.124 0.302 0.124s0.217-0.039 0.302-0.124c0.163-0.163 0.163-0.434 0-0.597l-1.41-1.387 1.41-1.41c0.163-0.163 0.163-0.434 0-0.597s-0.434-0.163-0.597 0l-1.41 1.41-1.441-1.441c-0.163-0.163-0.434-0.163-0.597 0s-0.163 0.434 0 0.597l1.441 1.441-1.441 1.441c-0.163 0.163-0.163 0.426 0.008 0.597z"></path>
<path fill="#fff" d="M14.288 16.775c0.085 0.085 0.194 0.124 0.302 0.124s0.217-0.039 0.302-0.124c0.163-0.163 0.163-0.434 0-0.597l-1.387-1.387 1.41-1.41c0.163-0.163 0.163-0.434 0-0.597s-0.434-0.163-0.597 0l-1.41 1.41-1.441-1.441c-0.163-0.163-0.434-0.163-0.597 0s-0.163 0.434 0 0.597l1.441 1.441-1.441 1.441c-0.163 0.163-0.163 0.434 0 0.597 0.085 0.085 0.194 0.124 0.302 0.124s0.217-0.039 0.302-0.124l1.441-1.441 1.371 1.387z"></path>
<path fill="#fff" d="M4.231 16.775c0.085 0.085 0.194 0.124 0.302 0.124s0.217-0.039 0.302-0.124c0.163-0.163 0.163-0.434 0-0.597l-1.387-1.387 1.41-1.41c0.163-0.163 0.163-0.434 0-0.597s-0.434-0.163-0.597 0l-1.41 1.41-1.441-1.441c-0.163-0.163-0.434-0.163-0.597 0s-0.163 0.434 0 0.597l1.433 1.441-1.441 1.441c-0.163 0.163-0.163 0.434 0 0.597 0.085 0.085 0.194 0.124 0.302 0.124s0.217-0.039 0.302-0.124l1.441-1.441 1.379 1.387z"></path>
<path fill="#fff" d="M31.117 17l-3.448-2.139 2.572-0.426c0.232-0.039 0.387-0.256 0.349-0.488s-0.256-0.387-0.488-0.349l-3.409 0.566c-0.232 0.039-0.387 0.256-0.349 0.488l0.55 3.37c0.031 0.209 0.209 0.356 0.418 0.356 0.023 0 0.047 0 0.070-0.008 0.232-0.039 0.387-0.256 0.349-0.488l-0.364-2.208 2.991 1.852c-0.519 1.216-2.627 5.563-6.508 6.594-0.418-0.628-1.123-1.046-1.937-1.046-1.278 0-2.317 1.038-2.317 2.317s1.038 2.317 2.317 2.317 2.317-1.038 2.317-2.317c0-0.163-0.015-0.325-0.047-0.48 4.85-1.356 7.004-7.159 7.097-7.415 0.077-0.186 0.008-0.395-0.163-0.496zM21.927 26.863c-0.814 0-1.472-0.659-1.472-1.472s0.659-1.472 1.472-1.472 1.472 0.659 1.472 1.472-0.666 1.472-1.472 1.472z"></path>
<path fill="#fff" d="M8.151 24.965c-0.333 0-0.659 0.077-0.945 0.201l-2.782-5.656 1.364-0.62c0.209-0.093 0.302-0.349 0.209-0.558s-0.349-0.302-0.558-0.209l-3.556 1.619c-0.209 0.093-0.302 0.349-0.209 0.558 0.070 0.155 0.225 0.248 0.387 0.248 0.062 0 0.116-0.015 0.178-0.039l1.426-0.651 2.844 5.796c-0.411 0.418-0.674 0.992-0.674 1.627 0 1.278 1.038 2.317 2.317 2.317s2.317-1.038 2.317-2.317-1.038-2.317-2.317-2.317zM8.151 28.753c-0.814 0-1.472-0.659-1.472-1.472 0-0.426 0.186-0.814 0.48-1.085 0.023-0.008 0.046-0.008 0.077-0.015 0.077-0.039 0.124-0.093 0.163-0.163 0.217-0.132 0.473-0.209 0.752-0.209 0.814 0 1.472 0.659 1.472 1.472s-0.659 1.472-1.472 1.472z"></path>
<path fill="#fff" d="M17.309 9.778c-1.72-3.688-4.967-6.4-9.662-8.089l2.092-0.349c0.232-0.039 0.387-0.256 0.349-0.488s-0.256-0.387-0.488-0.349l-3.409 0.566c-0.232 0.039-0.387 0.256-0.349 0.488l0.008 0.046c-0.016 0.093 0 0.194 0.046 0.271l0.504 3.053c0.031 0.209 0.209 0.356 0.418 0.356 0.023 0 0.046 0 0.070-0.008 0.232-0.039 0.387-0.256 0.349-0.488l-0.411-2.495c4.765 1.596 8.035 4.223 9.724 7.841 2.867 6.144 0.496 13.559-0.837 16.821-0.209-0.062-0.434-0.101-0.674-0.101-1.278 0-2.317 1.038-2.317 2.317s1.038 2.317 2.317 2.317 2.317-1.038 2.317-2.317c0-0.744-0.349-1.402-0.899-1.829 1.379-3.332 3.882-11.072 0.852-17.565zM15.039 30.652c-0.814 0-1.472-0.659-1.472-1.472s0.659-1.472 1.472-1.472 1.472 0.659 1.472 1.472-0.659 1.472-1.472 1.472z"></path>
</svg>
