<!-- Generated by IcoMoon.io -->
<svg version="1.1" xmlns="http://www.w3.org/2000/svg" width="32" height="32" viewBox="0 0 32 32">
<title>strike</title>
<path fill="#fff" d="M22.927 15.217v-4.231c0-0.86-0.697-1.557-1.557-1.557h-1.325c-0.372 0-0.705 0.132-0.976 0.349-0.279-0.511-0.814-0.868-1.433-0.868h-1.41c-0.628 0-1.17 0.356-1.441 0.876-0.271-0.225-0.612-0.364-0.984-0.364h-1.325c-0.752 0-1.379 0.535-1.526 1.247-0.201-0.108-0.426-0.178-0.666-0.178h-1.147c-0.767 0-1.395 0.628-1.395 1.395v9.267c0 1.224 0.473 2.371 1.34 3.231l0.938 0.938c-0.008 0.79 0 3.882 0 4.905 0 0.209 0.17 0.38 0.38 0.38v0c0.209 0 0.38-0.17 0.38-0.38-0.008-1.937-0.008-4.874 0-5.029 0.008-0.108-0.031-0.217-0.108-0.294l-1.054-1.054c-0.721-0.721-1.116-1.674-1.116-2.689v-3.239c0.194 0.101 0.403 0.163 0.635 0.163h1.147c0.426 0 0.806-0.194 1.062-0.496 0.287 0.302 0.682 0.496 1.131 0.496h1.325c0.48 0 0.907-0.225 1.193-0.573 0.302 0.349 0.736 0.573 1.232 0.573h1.41c0.434 0 0.821-0.17 1.116-0.442l1.449 1.449c0.147 0.147 0.387 0.147 0.542 0s0.147-0.387 0-0.542l-1.705-1.705c-0.612-0.612-0.612-1.604 0-2.216s1.604-0.612 2.216 0l3.154 3.153c0.612 0.612 0.612 1.604 0 2.216l-4.091 4.099c-0.457 0.457-1.061 0.705-1.705 0.705h-2.851c-0.209 0-0.38 0.17-0.38 0.38s0.17 0.38 0.38 0.38h2.851c0.147 0 0.294-0.015 0.434-0.031v4.695c0 0.209 0.17 0.38 0.38 0.38s0.38-0.17 0.38-0.38v-4.897c0.387-0.155 0.744-0.395 1.046-0.697l4.099-4.099c0.907-0.907 0.907-2.386 0-3.293l-2.022-2.022zM10.925 16.674c0 0.349-0.287 0.635-0.635 0.635h-1.147c-0.349 0-0.635-0.287-0.635-0.635v-4.781c0-0.349 0.287-0.635 0.635-0.635h1.147c0.349 0 0.635 0.287 0.635 0.635v4.781zM14.598 16.519c0 0.442-0.356 0.79-0.79 0.79h-1.325c-0.442 0-0.79-0.356-0.79-0.79v-5.532c0-0.442 0.356-0.79 0.79-0.79h1.325c0.442 0 0.79 0.356 0.79 0.79v5.532zM16.232 17.309c-0.48 0-0.868-0.387-0.868-0.868v-5.896c0-0.48 0.387-0.868 0.868-0.868h1.41c0.48 0 0.868 0.387 0.868 0.868v0.232c-0.008 0.070-0.023 0.139-0.023 0.209v3.123c-0.79 0.806-0.868 2.053-0.248 2.952-0.155 0.155-0.372 0.248-0.604 0.248h-1.402zM19.277 13.575v-2.766c0.077-0.356 0.395-0.62 0.775-0.62h1.325c0.442 0 0.79 0.356 0.79 0.79v3.463l-0.364-0.364c-0.682-0.674-1.689-0.845-2.526-0.504z"></path>
<path fill="#fff" d="M16 5.858c0.209 0 0.38-0.17 0.38-0.38v-3.711c0-0.209-0.17-0.38-0.38-0.38s-0.38 0.17-0.38 0.38v3.704c0 0.217 0.17 0.387 0.38 0.387z"></path>
<path fill="#fff" d="M9.964 7.198c0.070 0.124 0.201 0.194 0.333 0.194 0.062 0 0.132-0.016 0.194-0.054 0.186-0.108 0.248-0.341 0.139-0.519l-1.852-3.208c-0.108-0.186-0.341-0.248-0.519-0.139-0.186 0.108-0.248 0.341-0.139 0.519l1.844 3.208z"></path>
<path fill="#fff" d="M6.307 10.847l-3.208-1.852c-0.186-0.108-0.418-0.046-0.519 0.139-0.108 0.186-0.046 0.418 0.139 0.519l3.208 1.852c0.062 0.031 0.124 0.054 0.194 0.054 0.132 0 0.263-0.070 0.333-0.194 0.101-0.178 0.039-0.411-0.147-0.519z"></path>
<path fill="#fff" d="M4.587 16.504h-3.704c-0.209 0-0.38 0.17-0.38 0.38s0.17 0.38 0.38 0.38h3.704c0.209 0 0.38-0.17 0.38-0.38 0.008-0.209-0.163-0.38-0.38-0.38z"></path>
<path fill="#fff" d="M31.117 16.504h-3.704c-0.209 0-0.38 0.17-0.38 0.38s0.17 0.38 0.38 0.38h3.704c0.209 0 0.38-0.17 0.38-0.38s-0.17-0.38-0.38-0.38z"></path>
<path fill="#fff" d="M29.42 9.135c-0.108-0.186-0.341-0.248-0.519-0.139l-3.208 1.852c-0.186 0.108-0.248 0.341-0.139 0.519 0.070 0.124 0.201 0.194 0.333 0.194 0.062 0 0.132-0.015 0.194-0.054l3.208-1.852c0.178-0.101 0.24-0.333 0.132-0.519z"></path>
<path fill="#fff" d="M21.517 7.338c0.062 0.031 0.124 0.054 0.194 0.054 0.132 0 0.263-0.070 0.333-0.194l1.852-3.208c0.108-0.186 0.047-0.418-0.139-0.519-0.186-0.108-0.418-0.046-0.519 0.139l-1.852 3.208c-0.116 0.178-0.054 0.411 0.132 0.519z"></path>
</svg>
