<!-- Generated by IcoMoon.io -->
<svg version="1.1" xmlns="http://www.w3.org/2000/svg" width="32" height="32" viewBox="0 0 32 32">
<title>support</title>
<path fill="#fff" d="M29.187 12.986c-0.659-6.818-6.439-12.103-13.342-12.103-6.911 0-12.699 5.308-13.342 12.141-1.139 0.232-1.999 1.24-1.999 2.441v6.942c0 1.371 1.116 2.495 2.495 2.495h0.101c1.371 0 2.495-1.116 2.495-2.495v-6.942c0-1.286-0.976-2.348-2.231-2.479 0.651-6.346 6.051-11.25 12.482-11.25 6.447 0 11.855 4.936 12.482 11.305-1.1 0.256-1.929 1.247-1.929 2.425v6.942c0 1.216 0.883 2.231 2.038 2.448v0.62c0 1.774-1.441 3.215-3.215 3.215h-5.439c-0.225-0.798-0.953-1.395-1.829-1.395h-1.666c-1.046 0-1.906 0.852-1.906 1.906s0.852 1.906 1.906 1.906h1.666c0.93 0 1.705-0.674 1.867-1.557h5.4c2.247 0 4.076-1.829 4.076-4.076v-0.597c1.232-0.147 2.2-1.201 2.2-2.472v-6.942c0-1.309-1.023-2.386-2.309-2.479zM4.742 15.473v6.942c0 0.899-0.736 1.635-1.635 1.635h-0.108c-0.899 0-1.635-0.736-1.635-1.635v-6.942c0-0.899 0.736-1.635 1.635-1.635h0.101c0.907 0 1.643 0.736 1.643 1.635zM17.96 30.257h-1.666c-0.573 0-1.046-0.473-1.046-1.046s0.473-1.046 1.046-1.046h1.666c0.573 0 1.046 0.473 1.046 1.046s-0.473 1.046-1.046 1.046zM30.636 22.416c0 0.899-0.736 1.635-1.635 1.635h-0.101c-0.899 0-1.635-0.736-1.635-1.635v-6.942c0-0.868 0.682-1.573 1.542-1.627 0.008 0 0.015 0 0.023 0h0.008c0.023 0 0.047-0.008 0.070-0.008h0.108c0.899 0 1.635 0.736 1.635 1.635v6.942h-0.015z"></path>
</svg>
