<!-- Generated by IcoMoon.io -->
<svg version="1.1" xmlns="http://www.w3.org/2000/svg" width="32" height="32" viewBox="0 0 32 32">
<title>supply-side-platform</title>
<path fill="#fff" d="M19.247 12.591c0.124-0.155 0.093-0.38-0.062-0.504l-3.138-2.464c-0.077-0.062-0.17-0.085-0.263-0.077s-0.178 0.062-0.24 0.132l-4.037 5.137c-0.062 0.077-0.085 0.17-0.077 0.263s0.062 0.178 0.132 0.24l3.138 2.464c0.155 0.124 0.38 0.093 0.504-0.062l1.34-1.705 3.572 2.751c0.225 0.178 0.496 0.263 0.759 0.263 0.364 0 0.728-0.163 0.976-0.473 0.201-0.263 0.294-0.581 0.256-0.914-0.039-0.325-0.201-0.62-0.465-0.829l-3.572-2.743 1.178-1.48zM21.215 17.387c0.108 0.085 0.178 0.209 0.194 0.349s-0.023 0.271-0.108 0.387c-0.178 0.225-0.504 0.263-0.728 0.085l-3.859-2.968c-0.062-0.046-0.139-0.077-0.217-0.077-0.108 0-0.209 0.046-0.279 0.139l-1.34 1.705-2.572-2.022 3.595-4.571 2.572 2.022-1.162 1.48c-0.062 0.077-0.085 0.17-0.077 0.263 0.015 0.093 0.062 0.178 0.139 0.24l3.843 2.968z"></path>
<path fill="#fff" d="M13.792 3.843l1.782-1.782v4.060c0 0.201 0.163 0.356 0.356 0.356 0.201 0 0.356-0.163 0.356-0.356v-4.060l1.782 1.782c0.070 0.070 0.163 0.108 0.256 0.108s0.186-0.039 0.256-0.108c0.139-0.139 0.139-0.364 0-0.511l-2.394-2.394c0 0-0.008-0.008-0.015-0.008-0.031-0.031-0.062-0.054-0.101-0.070-0.085-0.039-0.186-0.039-0.271 0-0.039 0.015-0.070 0.039-0.101 0.070 0 0-0.008 0.008-0.015 0.008l-2.402 2.394c-0.139 0.139-0.139 0.364 0 0.511 0.147 0.139 0.372 0.139 0.511 0z"></path>
<path fill="#fff" d="M18.076 28.157l-1.782 1.782v-4.060c0-0.201-0.163-0.356-0.356-0.356-0.201 0-0.356 0.163-0.356 0.356v4.060l-1.782-1.782c-0.139-0.139-0.364-0.139-0.511 0-0.139 0.139-0.139 0.364 0 0.511l2.394 2.394c0 0 0.008 0.008 0.015 0.008 0.031 0.031 0.062 0.054 0.101 0.070 0.046 0.015 0.093 0.031 0.139 0.031s0.093-0.008 0.139-0.031c0.039-0.015 0.070-0.039 0.101-0.070 0 0 0.008-0.008 0.015-0.008l2.394-2.394c0.139-0.139 0.139-0.364 0-0.511-0.147-0.139-0.372-0.139-0.511 0z"></path>
<path fill="#fff" d="M31.496 16.69v0 0c0-0.047-0.008-0.093-0.031-0.139-0.015-0.047-0.047-0.085-0.077-0.116l-2.394-2.394c-0.139-0.139-0.364-0.139-0.511 0-0.139 0.139-0.139 0.364 0 0.511l1.782 1.782h-4.060c-0.201 0-0.356 0.163-0.356 0.356 0 0.201 0.163 0.356 0.356 0.356h4.060l-1.782 1.782c-0.139 0.139-0.139 0.364 0 0.511 0.070 0.070 0.163 0.108 0.256 0.108s0.186-0.039 0.256-0.108l2.394-2.394c0 0 0.008-0.008 0.008-0.015 0.031-0.031 0.054-0.062 0.070-0.101 0.023-0.047 0.031-0.093 0.031-0.139z"></path>
<path fill="#fff" d="M5.788 16.325h-4.060l1.782-1.782c0.139-0.139 0.139-0.364 0-0.511-0.139-0.139-0.364-0.139-0.511 0l-2.386 2.402c-0.031 0.031-0.062 0.070-0.077 0.116s-0.031 0.093-0.031 0.139v0 0c0 0.047 0.008 0.093 0.031 0.139 0.015 0.039 0.039 0.070 0.070 0.101 0 0.008 0.008 0.008 0.008 0.015l2.394 2.394c0.070 0.070 0.163 0.108 0.256 0.108s0.186-0.039 0.256-0.108c0.139-0.139 0.139-0.364 0-0.511l-1.782-1.782h4.060c0.201 0 0.356-0.163 0.356-0.356 0-0.201-0.163-0.364-0.364-0.364z"></path>
<path fill="#fff" d="M15.938 7.462c-4.719 0-8.562 3.843-8.562 8.562s3.843 8.562 8.562 8.562 8.562-3.843 8.562-8.562-3.843-8.562-8.562-8.562zM15.938 23.857c-4.324 0-7.841-3.518-7.841-7.841s3.518-7.841 7.841-7.841 7.841 3.518 7.841 7.841-3.518 7.841-7.841 7.841z"></path>
<path fill="#fff" d="M15.938 19.556h-5.517c-0.201 0-0.356 0.163-0.356 0.356s0.163 0.356 0.356 0.356h5.517c0.201 0 0.356-0.163 0.356-0.356s-0.163-0.356-0.356-0.356z"></path>
</svg>
