<!-- Generated by IcoMoon.io -->
<svg version="1.1" xmlns="http://www.w3.org/2000/svg" width="32" height="32" viewBox="0 0 32 32">
<title>survey</title>
<path fill="#fff" d="M27.746 0.504h-16.682c-0.008 0-0.015 0.008-0.023 0.008-0.039 0-0.070 0.008-0.108 0.023-0.015 0.008-0.023 0.008-0.039 0.015-0.039 0.023-0.085 0.046-0.116 0.077l-7.477 7.477c-0.031 0.031-0.054 0.070-0.077 0.116-0.008 0.015-0.008 0.023-0.015 0.039-0.015 0.031-0.015 0.070-0.023 0.108 0 0.008-0.008 0.015-0.008 0.023v22.028c0 0.597 0.488 1.085 1.085 1.085h23.485c0.597 0 1.085-0.488 1.085-1.085v-28.831c-0.008-0.597-0.496-1.085-1.085-1.085zM10.654 1.891v6.090h-6.090l6.090-6.090zM28.010 30.412c0 0.147-0.124 0.271-0.271 0.271h-23.485c-0.147 0-0.271-0.124-0.271-0.271v-21.617h7.074c0.225 0 0.411-0.186 0.411-0.411v-7.066h16.271c0.147 0 0.271 0.116 0.271 0.271v28.823z"></path>
<path fill="#fff" d="M19.595 12.467h-13.815c-0.225 0-0.411 0.186-0.411 0.411s0.186 0.411 0.411 0.411h13.815c0.225 0 0.411-0.186 0.411-0.411s-0.186-0.411-0.411-0.411z"></path>
<path fill="#fff" d="M26.816 10.476c-0.008-0.008-0.008-0.008-0.008-0.015-0.008-0.008-0.008-0.008-0.015-0.008-0.039-0.031-0.077-0.062-0.116-0.077-0.047-0.023-0.101-0.031-0.155-0.031h-4.261c-0.054 0-0.108 0.008-0.155 0.031-0.047 0.015-0.085 0.046-0.116 0.077-0.008 0.008-0.008 0.008-0.015 0.008-0.008 0.008-0.008 0.008-0.008 0.015-0.031 0.031-0.062 0.070-0.077 0.116-0.023 0.046-0.031 0.101-0.031 0.155v4.261c0 0.054 0.008 0.108 0.031 0.155 0.015 0.046 0.047 0.085 0.077 0.116 0.008 0.008 0.008 0.008 0.008 0.015 0.008 0.008 0.008 0.008 0.015 0.008 0.039 0.031 0.077 0.062 0.116 0.077 0.047 0.023 0.101 0.031 0.155 0.031h4.261c0.054 0 0.108-0.008 0.155-0.031 0.047-0.015 0.085-0.046 0.116-0.077 0.008-0.008 0.008-0.008 0.015-0.008 0.008-0.008 0.008-0.008 0.008-0.015 0.031-0.031 0.062-0.070 0.077-0.116 0.023-0.046 0.031-0.101 0.031-0.155v-4.261c0-0.054-0.008-0.108-0.031-0.155-0.015-0.046-0.047-0.085-0.077-0.116zM23.818 12.877l-1.147 1.147v-2.293l1.147 1.147zM23.245 11.157h2.293l-1.147 1.147-1.147-1.147zM24.391 13.451l1.147 1.147h-2.293l1.147-1.147zM24.965 12.877l1.147-1.147v2.293l-1.147-1.147z"></path>
<path fill="#fff" d="M19.595 19.355h-13.815c-0.225 0-0.411 0.186-0.411 0.411s0.186 0.411 0.411 0.411h13.815c0.225 0 0.411-0.186 0.411-0.411-0.008-0.225-0.186-0.411-0.411-0.411z"></path>
<path fill="#fff" d="M26.522 17.224h-4.262c-0.225 0-0.411 0.186-0.411 0.411v4.262c0 0.225 0.186 0.411 0.411 0.411h4.261c0.225 0 0.411-0.186 0.411-0.411v-4.261c-0.008-0.225-0.186-0.411-0.411-0.411zM26.111 21.486h-3.448v-3.448h3.448v3.448z"></path>
<path fill="#fff" d="M19.595 26.243h-13.815c-0.225 0-0.411 0.186-0.411 0.411s0.186 0.411 0.411 0.411h13.815c0.225 0 0.411-0.186 0.411-0.411-0.008-0.225-0.186-0.411-0.411-0.411z"></path>
<path fill="#fff" d="M26.522 24.112h-4.262c-0.225 0-0.411 0.186-0.411 0.411v4.262c0 0.225 0.186 0.411 0.411 0.411h4.261c0.225 0 0.411-0.186 0.411-0.411v-4.261c-0.008-0.225-0.186-0.411-0.411-0.411zM26.111 28.374h-3.448v-3.448h3.448v3.448z"></path>
</svg>
