<!-- Generated by IcoMoon.io -->
<svg version="1.1" xmlns="http://www.w3.org/2000/svg" width="32" height="32" viewBox="0 0 32 32">
<title>swimming-pool</title>
<path fill="#fff" d="M7.647 20.881c0.256 0 0.457-0.201 0.457-0.457v-2.975h10.336v2.906c0 0.256 0.201 0.457 0.457 0.457s0.457-0.201 0.457-0.457v-12.839c0-1.55 1.263-2.813 2.813-2.813s2.82 1.263 2.82 2.813v0.287c0 0.256 0.201 0.457 0.457 0.457s0.457-0.201 0.457-0.457v-0.287c0-2.053-1.674-3.727-3.727-3.727s-3.735 1.674-3.735 3.727v4.765h-10.336v-4.765c0-1.55 1.263-2.813 2.813-2.813s2.813 1.263 2.813 2.813v0.287c0 0.256 0.201 0.457 0.457 0.457s0.457-0.201 0.457-0.457v-0.287c0-2.053-1.674-3.727-3.727-3.727s-3.727 1.674-3.727 3.727v12.908c0 0.248 0.209 0.457 0.457 0.457zM18.441 13.195v3.332h-10.336v-3.332h10.336z"></path>
<path fill="#fff" d="M0.961 20.378c1.379 0 2.053 0.403 2.774 0.837 0.759 0.457 1.612 0.969 3.239 0.969s2.487-0.511 3.247-0.969c0.721-0.434 1.395-0.837 2.774-0.837s2.053 0.403 2.774 0.837c0.759 0.457 1.612 0.969 3.239 0.969s2.487-0.511 3.247-0.969c0.721-0.434 1.395-0.837 2.774-0.837s2.053 0.403 2.774 0.837c0.759 0.457 1.612 0.969 3.247 0.969 0.256 0 0.457-0.201 0.457-0.457s-0.201-0.457-0.457-0.457c-1.379 0-2.053-0.403-2.774-0.837-0.759-0.457-1.612-0.969-3.247-0.969s-2.487 0.511-3.247 0.969c-0.721 0.434-1.395 0.837-2.774 0.837s-2.053-0.403-2.774-0.837c-0.759-0.457-1.612-0.969-3.239-0.969s-2.487 0.511-3.247 0.969c-0.721 0.434-1.395 0.837-2.774 0.837s-2.053-0.403-2.774-0.837c-0.759-0.457-1.612-0.969-3.239-0.969-0.256 0-0.457 0.201-0.457 0.457s0.201 0.457 0.457 0.457z"></path>
<path fill="#fff" d="M31.039 24.283c-1.379 0-2.053-0.411-2.774-0.837-0.759-0.457-1.612-0.969-3.247-0.969s-2.487 0.511-3.247 0.969c-0.721 0.434-1.395 0.837-2.774 0.837s-2.053-0.411-2.774-0.837c-0.759-0.457-1.612-0.969-3.239-0.969s-2.487 0.511-3.247 0.969c-0.721 0.434-1.395 0.837-2.774 0.837s-2.053-0.403-2.774-0.837c-0.759-0.457-1.612-0.969-3.239-0.969-0.256 0-0.457 0.201-0.457 0.457s0.201 0.457 0.457 0.457c1.379 0 2.053 0.411 2.774 0.837 0.759 0.457 1.612 0.969 3.239 0.969s2.487-0.511 3.247-0.969c0.721-0.434 1.395-0.837 2.774-0.837s2.053 0.403 2.774 0.837c0.759 0.457 1.612 0.969 3.239 0.969s2.487-0.511 3.247-0.969c0.721-0.434 1.395-0.837 2.774-0.837s2.053 0.411 2.774 0.837c0.759 0.457 1.612 0.969 3.247 0.969 0.256 0 0.457-0.201 0.457-0.457s-0.201-0.457-0.457-0.457z"></path>
<path fill="#fff" d="M31.039 27.297c-1.379 0-2.053-0.403-2.774-0.837-0.759-0.449-1.612-0.969-3.247-0.969s-2.487 0.511-3.247 0.969c-0.721 0.434-1.395 0.837-2.774 0.837s-2.053-0.403-2.774-0.837c-0.759-0.457-1.612-0.969-3.239-0.969s-2.487 0.511-3.247 0.969c-0.721 0.434-1.395 0.837-2.774 0.837s-2.053-0.403-2.774-0.837c-0.759-0.457-1.612-0.969-3.239-0.969-0.256 0-0.457 0.201-0.457 0.457s0.201 0.457 0.457 0.457c1.379 0 2.053 0.403 2.774 0.837 0.759 0.457 1.612 0.969 3.239 0.969s2.487-0.511 3.247-0.969c0.721-0.434 1.395-0.837 2.774-0.837s2.053 0.403 2.774 0.837c0.759 0.457 1.612 0.969 3.239 0.969s2.487-0.511 3.247-0.969c0.721-0.434 1.395-0.837 2.774-0.837s2.053 0.403 2.774 0.837c0.759 0.457 1.612 0.969 3.247 0.969 0.256 0 0.457-0.201 0.457-0.457s-0.201-0.457-0.457-0.457z"></path>
</svg>
