<!-- Generated by IcoMoon.io -->
<svg version="1.1" xmlns="http://www.w3.org/2000/svg" width="32" height="32" viewBox="0 0 32 32">
<title>tablet-02</title>
<path fill="#fff" d="M26.29 0.504h-20.579c-0.752 0-1.364 0.612-1.364 1.364v28.265c0 0.752 0.612 1.364 1.364 1.364h20.579c0.752 0 1.364-0.612 1.364-1.364v-28.265c0-0.752-0.612-1.364-1.364-1.364zM27.002 30.133c0 0.395-0.318 0.713-0.713 0.713h-20.579c-0.395 0-0.713-0.318-0.713-0.713v-28.265c0-0.395 0.318-0.713 0.713-0.713h20.579c0.395 0 0.713 0.318 0.713 0.713v28.265z"></path>
<path fill="#fff" d="M25.732 3.634h-19.525c-0.178 0-0.325 0.147-0.325 0.325v24.089c0 0.178 0.147 0.325 0.325 0.325h19.525c0.178 0 0.325-0.147 0.325-0.325v-24.089c0-0.178-0.147-0.325-0.325-0.325zM25.406 27.723h-18.875v-23.438h18.875v23.438z"></path>
<path fill="#fff" d="M12.877 2.363c0 0.214-0.173 0.387-0.387 0.387s-0.387-0.173-0.387-0.387c0-0.214 0.173-0.387 0.387-0.387s0.387 0.173 0.387 0.387z"></path>
<path fill="#fff" d="M15.21 2.689h1.426c0.178 0 0.325-0.147 0.325-0.325s-0.147-0.325-0.325-0.325h-1.426c-0.178 0-0.325 0.147-0.325 0.325s0.147 0.325 0.325 0.325z"></path>
<path fill="#fff" d="M15.969 22.547c3.603 0 6.539-2.937 6.539-6.539s-2.937-6.539-6.539-6.539-6.539 2.937-6.539 6.539c0 3.603 2.929 6.539 6.539 6.539zM15.969 10.119c3.246 0 5.889 2.642 5.889 5.889s-2.642 5.889-5.889 5.889-5.889-2.642-5.889-5.889 2.642-5.889 5.889-5.889z"></path>
<path fill="#fff" d="M14.543 18.999c0.046 0.023 0.101 0.039 0.147 0.039 0.062 0 0.132-0.023 0.186-0.062l3.859-2.689c0.085-0.062 0.139-0.163 0.139-0.263 0-0.108-0.054-0.209-0.139-0.271l-3.859-2.704c-0.101-0.070-0.232-0.077-0.341-0.023s-0.178 0.17-0.178 0.287v5.393c0.015 0.132 0.077 0.24 0.186 0.294zM15.024 13.947l2.96 2.077-2.96 2.061v-4.138z"></path>
</svg>
