<!-- Generated by IcoMoon.io -->
<svg version="1.1" xmlns="http://www.w3.org/2000/svg" width="32" height="32" viewBox="0 0 32 32">
<title>tablet</title>
<path fill="#fff" d="M29.048 4.176h-26.096c-1.348 0-2.448 1.093-2.448 2.441v18.758c0 1.348 1.1 2.448 2.448 2.448h26.104c1.348 0 2.448-1.1 2.448-2.448v-18.758c-0.008-1.348-1.108-2.441-2.456-2.441zM30.543 25.383c0 0.829-0.674 1.495-1.495 1.495h-26.096c-0.821 0-1.495-0.674-1.495-1.495v-18.766c0-0.829 0.674-1.495 1.495-1.495h26.104c0.821 0 1.495 0.674 1.495 1.495l-0.008 18.766z"></path>
<path fill="#fff" d="M26.801 8.345h-21.602c-0.263 0-0.473 0.209-0.473 0.473v14.365c0 0.263 0.209 0.473 0.473 0.473h21.602c0.263 0 0.473-0.209 0.473-0.473v-14.365c0.008-0.263-0.209-0.473-0.473-0.473zM26.328 22.71h-20.657v-13.42h20.657v13.42z"></path>
<path fill="#fff" d="M16.705 25.259c0 0.389-0.316 0.705-0.705 0.705s-0.705-0.316-0.705-0.705c0-0.389 0.316-0.705 0.705-0.705s0.705 0.316 0.705 0.705z"></path>
<path fill="#fff" d="M13.9 7.198h4.2c0.263 0 0.473-0.209 0.473-0.473s-0.209-0.473-0.473-0.473h-4.2c-0.263 0-0.473 0.209-0.473 0.473s0.209 0.473 0.473 0.473z"></path>
</svg>
