<!-- Generated by IcoMoon.io -->
<svg version="1.1" xmlns="http://www.w3.org/2000/svg" width="32" height="32" viewBox="0 0 32 32">
<title>tap</title>
<path fill="#fff" d="M27.669 21.029h-0.961v-1.736c0-4.664-3.797-8.461-8.461-8.461h-4.161c-0.139-2.007-1.805-3.603-3.851-3.603v-1.1c0.674-0.31 1.201-0.852 1.488-1.534h1.511c0.488 0 0.883-0.395 0.883-0.883v-0.821c0-0.488-0.395-0.883-0.883-0.883h-1.666c-0.511-0.922-1.488-1.503-2.565-1.503s-2.053 0.581-2.572 1.503h-1.627c-0.519 0-0.945 0.426-0.945 0.945v0.697c0 0.519 0.426 0.945 0.945 0.945h1.488c0.263 0.635 0.752 1.162 1.364 1.48v1.162h-2.061c-0.256 0-0.465 0.209-0.465 0.465v11.932c0 0.256 0.209 0.465 0.465 0.465h4.641c2.123 0 3.851-1.72 3.866-3.843h4.153c1.681 0 3.045 1.364 3.045 3.045v1.728h-0.922c-0.256 0-0.465 0.209-0.465 0.465v1.937c0 0.256 0.209 0.465 0.465 0.465h7.291c0.256 0 0.465-0.209 0.465-0.465v-1.937c0.008-0.256-0.201-0.465-0.465-0.465zM8.291 5.331c-0.589-0.225-1.046-0.728-1.216-1.333-0.054-0.201-0.24-0.341-0.449-0.341l-1.829-0.008 0.008-0.705h1.922c0.186 0 0.356-0.108 0.426-0.279 0.318-0.744 1.046-1.216 1.852-1.216s1.534 0.48 1.852 1.216c0.077 0.17 0.24 0.279 0.426 0.279h1.906v0.713h-1.798c-0.209 0-0.395 0.139-0.449 0.341-0.186 0.651-0.674 1.162-1.317 1.371-0.194 0.062-0.325 0.24-0.325 0.442v1.418h-0.713v-1.464c0.008-0.194-0.116-0.364-0.294-0.434zM10.235 19.161h-4.176v-10.995h4.169c1.619 0 2.937 1.317 2.937 2.937v0.186c0 0.008 0 0.008 0 0.015s0 0.008 0 0.015v4.905c0.008 1.619-1.309 2.937-2.929 2.937zM18.255 15.318h-4.153v-3.549h4.145c4.153 0 7.523 3.378 7.523 7.524v1.728h-3.533v-1.728c0-2.193-1.79-3.975-3.983-3.975zM27.204 22.966h-6.354v-1h6.354v1z"></path>
<path fill="#fff" d="M24.012 25.298c-0.163 0.008-0.325 0.077-0.411 0.178-0.674 0.674-2.084 2.069-2.084 3.51 0 1.387 1.131 2.518 2.518 2.518s2.518-1.131 2.518-2.518c0-1.426-1.356-2.782-2.076-3.502-0.132-0.124-0.294-0.178-0.465-0.186zM24.027 30.567c-0.876 0-1.581-0.713-1.581-1.581 0-0.922 0.945-1.968 1.581-2.619 0.628 0.635 1.581 1.697 1.581 2.619 0 0.868-0.705 1.581-1.581 1.581z"></path>
</svg>
