<!-- Generated by IcoMoon.io -->
<svg version="1.1" xmlns="http://www.w3.org/2000/svg" width="32" height="32" viewBox="0 0 32 32">
<title>target-group</title>
<path fill="#fff" d="M23.051 14.536h-0.449c0.899-0.31 1.55-1.162 1.55-2.169 0-1.263-1.030-2.293-2.293-2.293s-2.293 1.030-2.293 2.293c0 1 0.651 1.86 1.55 2.169h-0.426c-0.69 0-1.348 0.24-1.867 0.666-0.209-0.031-0.411-0.054-0.628-0.054h-4.347c-0.217 0-0.434 0.023-0.643 0.054-0.504-0.434-1.17-0.674-1.891-0.674h-0.411c0.899-0.31 1.55-1.162 1.55-2.169 0-1.263-1.030-2.293-2.293-2.293s-2.293 1.030-2.293 2.293c0 1 0.651 1.86 1.55 2.169h-0.449c-1.557 0-2.774 1.216-2.774 2.774v2.758c0 0.225 0.186 0.403 0.403 0.403s0.403-0.186 0.403-0.403v-2.758c0-1.1 0.86-1.96 1.96-1.96h2.355c0.31 0 0.604 0.070 0.876 0.186-1.278 0.612-2.092 1.852-2.092 3.239v3.742c0 0.225 0.186 0.403 0.403 0.403h10.902c0.225 0 0.403-0.186 0.403-0.403v-3.742c0-1.387-0.775-2.627-1.991-3.231 0.271-0.116 0.558-0.186 0.86-0.186h2.363c1.1 0 1.96 0.86 1.96 1.96v2.758c0 0.225 0.186 0.403 0.403 0.403 0.225 0 0.403-0.186 0.403-0.403v-2.758c0.023-1.557-1.193-2.774-2.751-2.774zM20.362 12.366c0-0.821 0.666-1.48 1.48-1.48 0.821 0 1.48 0.666 1.48 1.48s-0.666 1.48-1.48 1.48c-0.814 0-1.48-0.666-1.48-1.48zM8.67 12.366c0-0.821 0.666-1.48 1.48-1.48 0.821 0 1.48 0.666 1.48 1.48s-0.666 1.48-1.48 1.48c-0.814 0-1.48-0.666-1.48-1.48zM20.998 18.766v3.339h-10.088v-3.339c0-1.123 0.705-2.139 1.79-2.58 0.364-0.147 0.752-0.225 1.147-0.225h4.347c0.387 0 0.767 0.077 1.116 0.217 1.030 0.434 1.689 1.449 1.689 2.588z"></path>
<path fill="#fff" d="M15.954 15.031c1.643 0 2.975-1.333 2.975-2.975s-1.333-2.975-2.975-2.975-2.975 1.333-2.975 2.975 1.34 2.975 2.975 2.975zM15.954 9.894c1.193 0 2.162 0.969 2.162 2.162s-0.969 2.162-2.162 2.162-2.162-0.969-2.162-2.162 0.969-2.162 2.162-2.162z"></path>
<path fill="#fff" d="M16 0.504c-0.015 0-0.023 0-0.039 0 0 0 0 0-0.008 0h-0.008c-8.515 0.031-15.442 6.966-15.442 15.496 0 8.546 6.95 15.496 15.496 15.496s15.496-6.95 15.496-15.496-6.95-15.496-15.496-15.496zM16.411 30.675v-3.983c0-0.225-0.186-0.403-0.403-0.403-0.225 0-0.403 0.186-0.403 0.403v3.983c-7.771-0.209-14.055-6.493-14.264-14.264h3.983c0.225 0 0.403-0.186 0.403-0.403s-0.186-0.403-0.403-0.403h-3.998c0.209-7.756 6.47-14.032 14.218-14.264v3.983c0 0.225 0.186 0.403 0.403 0.403 0.225 0 0.403-0.186 0.403-0.403v-3.998c7.795 0.186 14.102 6.477 14.311 14.264h-3.983c-0.225 0-0.403 0.186-0.403 0.403s0.186 0.403 0.403 0.403h3.983c-0.201 7.787-6.477 14.063-14.249 14.28z"></path>
</svg>
