<!-- Generated by IcoMoon.io -->
<svg version="1.1" xmlns="http://www.w3.org/2000/svg" width="32" height="32" viewBox="0 0 32 32">
<title>targeting</title>
<path fill="#fff" d="M28.157 25.608c2.154-2.727 3.339-6.121 3.339-9.608 0-8.546-6.95-15.496-15.496-15.496s-15.496 6.95-15.496 15.496 6.95 15.496 15.496 15.496c3.092 0 6.059-0.914 8.608-2.619l0.333 0.364c0.232 0.256 0.558 0.387 0.891 0.387 0.132 0 0.256-0.023 0.387-0.062 0.155-0.054 0.302-0.139 0.426-0.256l1.774-1.627c0.24-0.217 0.38-0.511 0.387-0.837 0.015-0.325-0.101-0.628-0.318-0.868l-0.333-0.372zM16 30.691c-8.105 0-14.691-6.594-14.691-14.691s6.586-14.691 14.691-14.691 14.691 6.594 14.691 14.691c0 3.262-1.093 6.439-3.084 9.003l-1.364-1.488 1.875-1.72c0.302-0.279 0.442-0.682 0.372-1.085s-0.333-0.744-0.705-0.907l-1.371-0.597c0.318-1.038 0.488-2.108 0.488-3.2 0-6.005-4.889-10.894-10.894-10.894s-10.902 4.881-10.902 10.886 4.889 10.894 10.894 10.894c0.806 0 1.612-0.093 2.394-0.271l0.457 1.364c0.132 0.387 0.449 0.682 0.845 0.783 0.225 0.062 0.465 0.047 0.682-0.023 0.163-0.054 0.302-0.139 0.426-0.256l1.875-1.72 1.371 1.495c-2.386 1.588-5.16 2.425-8.050 2.425zM14.946 16.403l1.65 4.905c-0.201 0.023-0.395 0.039-0.597 0.039-2.944 0-5.338-2.394-5.338-5.338s2.394-5.338 5.338-5.338 5.338 2.394 5.338 5.338c0 0.318-0.031 0.643-0.085 0.953l-4.68-2.046c-0.271-0.124-0.581-0.132-0.868-0.039v0c-0.163 0.054-0.302 0.139-0.426 0.256-0.356 0.318-0.488 0.814-0.333 1.271zM16 9.856c-3.386 0-6.144 2.758-6.144 6.144s2.758 6.144 6.144 6.144c0.287 0 0.573-0.031 0.86-0.070l1.271 3.781c-0.697 0.147-1.41 0.232-2.139 0.232-5.563 0-10.088-4.525-10.088-10.088s4.533-10.088 10.096-10.088 10.088 4.525 10.088 10.088c0 0.984-0.147 1.945-0.426 2.882l-3.657-1.596c0.093-0.418 0.139-0.852 0.139-1.286 0-3.386-2.758-6.144-6.144-6.144zM27.886 27.095l-1.774 1.627c-0.039 0.039-0.093 0.070-0.139 0.085-0.147 0.054-0.318 0.008-0.426-0.108l-2.534-2.766c-0.077-0.085-0.186-0.132-0.294-0.132-0.101 0-0.194 0.039-0.271 0.108l-2.169 1.991c-0.039 0.039-0.093 0.070-0.139 0.085-0.077 0.023-0.155 0.031-0.225 0.008-0.132-0.031-0.24-0.132-0.279-0.263l-3.905-11.591c-0.054-0.147-0.008-0.318 0.108-0.426 0.039-0.039 0.093-0.070 0.147-0.085 0.093-0.031 0.194-0.031 0.287 0.015l11.212 4.889c0.124 0.054 0.209 0.163 0.232 0.302 0.023 0.132-0.023 0.271-0.124 0.364l-2.169 1.991c-0.163 0.147-0.178 0.403-0.023 0.566l2.534 2.766c0.124 0.163 0.116 0.418-0.047 0.573z"></path>
</svg>
