<!-- Generated by IcoMoon.io -->
<svg version="1.1" xmlns="http://www.w3.org/2000/svg" width="32" height="32" viewBox="0 0 32 32">
<title>taxi</title>
<path fill="#fff" d="M31.365 21.695l-0.008-0.031c-0.271-1.588-0.922-2.913-1.185-3.409v0 0l-1.782-3.301c-0.535-0.984-1.774-1.813-2.937-1.999v-1.829c0-0.178-0.147-0.325-0.325-0.325h-4.432c-0.178 0-0.325 0.147-0.325 0.325v1.79c-0.976 0.093-2.402 0.93-2.999 2.038l-1.782 3.301c0 0 0 0 0 0.008 0 0 0 0 0 0.008-0.248 0.496-0.852 1.829-1.123 3.401l-0.008 0.031c-0.070 0.411-0.139 0.845-0.132 1.278 0 0.008-0.008 0.015-0.008 0.015v3.603c0 0.651 0.535 1.185 1.185 1.185h0.38c0.651 0 1.185-0.426 1.185-0.953v-0.922c0-0.178-0.147-0.325-0.325-0.325s-0.325 0.147-0.325 0.325v0.922c0 0.124-0.217 0.31-0.542 0.31h-0.38c-0.302 0-0.542-0.24-0.542-0.542v-2.046c1.093 1.123 3.611 1.666 7.919 1.712 4.331-0.047 6.873-0.589 7.973-1.712v2.046c0 0.302-0.24 0.542-0.542 0.542h-0.38c-0.325 0-0.542-0.186-0.542-0.31v-0.922c0-0.178-0.147-0.325-0.325-0.325s-0.325 0.147-0.325 0.325v0.922c0 0.527 0.535 0.953 1.185 0.953h0.38c0.651 0 1.185-0.535 1.185-1.185v-3.603c0.031-0.442-0.047-0.883-0.116-1.302zM24.802 11.444v1.464h-3.797v-1.464h3.797zM17.937 15.256c0.496-0.922 1.844-1.705 2.603-1.705h4.409c1.030 0 2.371 0.798 2.867 1.705l1.526 2.828h-12.932l1.526-2.828zM30.497 23.996c-0.868 1.038-3.432 1.581-7.616 1.627-4.153-0.047-6.694-0.589-7.554-1.619-0.511-0.612-0.38-1.379-0.24-2.2l0.008-0.031c0.232-1.34 0.736-2.526 0.976-3.045h13.614c0.263 0.511 0.806 1.697 1.030 3.045l0.008 0.031c0.070 0.411 0.139 0.814 0.124 1.185v0 0c-0.008 0.372-0.101 0.705-0.349 1.007z"></path>
<path fill="#fff" d="M23.128 22.199c-0.093 0-0.178 0-0.24-0.008-0.023-0.008-0.047-0.008-0.070-0.008h-0.155c-0.023 0-0.031 0-0.054 0.008-0.070 0-0.155 0.008-0.256 0.008-0.899 0.015-2.565 0.054-2.921 1.185 0 0.008-0.008 0.023-0.008 0.031-0.008 0.039-0.077 0.395 0.17 0.713s0.728 0.48 1.426 0.48h3.432c0.705 0 1.185-0.163 1.433-0.488 0.24-0.318 0.17-0.674 0.155-0.744-0.349-1.123-2.015-1.154-2.913-1.178zM25.383 23.733c-0.039 0.054-0.232 0.232-0.922 0.232h-3.432c-0.69 0-0.883-0.178-0.922-0.232-0.047-0.062-0.047-0.139-0.047-0.17 0.248-0.674 1.643-0.705 2.317-0.721 0.101 0 0.186 0 0.256-0.008 0.023 0 0.047 0 0.062-0.008h0.101c0.023 0 0.039 0.008 0.054 0.008 0.077 0 0.163 0.008 0.263 0.008 0.674 0.015 2.069 0.047 2.309 0.705 0.008 0.039 0.015 0.116-0.039 0.186z"></path>
<path fill="#fff" d="M17.162 19.285c-0.325 0-0.62 0.108-0.837 0.318-0.271 0.256-0.403 0.62-0.372 1.030 0.031 0.38 0.201 0.759 0.488 1.061 0.341 0.364 0.79 0.573 1.24 0.573 0.325 0 0.62-0.108 0.837-0.318 0.263-0.248 0.395-0.597 0.372-1-0.023-0.395-0.201-0.783-0.488-1.093-0.333-0.364-0.79-0.573-1.24-0.573zM18.084 21.478c-0.101 0.093-0.232 0.147-0.395 0.147-0.271 0-0.558-0.132-0.775-0.372-0.186-0.201-0.294-0.434-0.318-0.674-0.015-0.209 0.047-0.387 0.17-0.511 0.101-0.093 0.24-0.147 0.403-0.147 0.271 0 0.558 0.132 0.775 0.372 0.194 0.201 0.302 0.449 0.318 0.697 0.008 0.201-0.054 0.372-0.178 0.488z"></path>
<path fill="#fff" d="M28.351 19.285c-0.449 0-0.899 0.209-1.24 0.573-0.294 0.31-0.465 0.705-0.488 1.093-0.023 0.395 0.108 0.752 0.372 1 0.225 0.209 0.511 0.318 0.837 0.318 0.449 0 0.899-0.209 1.24-0.573 0.287-0.302 0.457-0.682 0.488-1.061 0.031-0.411-0.101-0.775-0.372-1.030-0.225-0.209-0.511-0.318-0.837-0.318zM28.599 21.253c-0.217 0.232-0.504 0.372-0.775 0.372-0.163 0-0.294-0.047-0.395-0.147-0.124-0.116-0.178-0.287-0.17-0.488 0.015-0.248 0.124-0.488 0.318-0.697 0.217-0.232 0.504-0.372 0.775-0.372 0.163 0 0.302 0.047 0.403 0.147 0.124 0.116 0.186 0.302 0.17 0.511-0.031 0.24-0.139 0.48-0.325 0.674z"></path>
<path fill="#fff" d="M9.925 7.5c1.294 0 2.348-1.054 2.348-2.348s-1.054-2.348-2.348-2.348-2.348 1.046-2.348 2.34 1.054 2.355 2.348 2.355zM9.925 3.44c0.945 0 1.705 0.767 1.705 1.705s-0.767 1.705-1.705 1.705-1.705-0.767-1.705-1.705 0.767-1.705 1.705-1.705z"></path>
<path fill="#fff" d="M12.351 11.196l6.237-3.347c0.558-0.302 0.775-0.984 0.496-1.55l-0.271-0.535c-0.139-0.279-0.38-0.488-0.674-0.589s-0.612-0.077-0.891 0.070l-5.819 2.937h-3.882c-0.039-0.008-0.976-0.015-1.666 0.659-0.465 0.457-0.705 1.108-0.705 1.929v2.464h-3.456c-0.178 0-0.325 0.147-0.325 0.325s0.147 0.325 0.325 0.325h0.604v1.736c-1.178 0.341-1.821 1.007-1.821 1.945v8.841c0 0.628 0.511 1.147 1.147 1.147h5.881c0.008 0.201 0.054 0.597 0.364 0.938s0.783 0.511 1.395 0.511h1.286c0.55 0 0.992-0.17 1.302-0.504 0.519-0.558 0.48-1.356 0.48-1.371v-15.93h-0.008zM2.968 13.877h2.216v1.472c-0.108 0-0.418-0.008-0.682-0.008-0.566 0-1.077 0.046-1.534 0.124 0 0 0-1.588 0-1.588zM5.827 15.349v-1.472h1.154v1.588c-0.349-0.062-0.736-0.101-1.154-0.116zM1.147 26.406v-8.841c0-1.426 2.348-1.573 3.355-1.573 0.263 0 0.697 0 0.945 0 1.007 0 3.355 0.155 3.355 1.573v8.841c0 0.279-0.225 0.504-0.504 0.504h-6.648c-0.279 0-0.504-0.225-0.504-0.504zM11.707 11.002v16.139c0 0.008 0.023 0.566-0.31 0.914-0.186 0.201-0.465 0.302-0.829 0.302h-1.286c-0.426 0-0.736-0.101-0.914-0.302-0.163-0.178-0.194-0.403-0.201-0.511h0.132c0.628 0 1.147-0.511 1.147-1.147v-8.833c0-0.938-0.643-1.604-1.821-1.953v-1.736h0.922c0.178 0 0.325-0.147 0.325-0.325s-0.147-0.325-0.325-0.325h-2.72v-2.456c0-0.635 0.17-1.131 0.504-1.464 0.496-0.488 1.193-0.48 1.209-0.48h3.959c0.054 0 0.101-0.015 0.147-0.031l5.881-2.975c0.124-0.062 0.271-0.077 0.403-0.031s0.24 0.139 0.302 0.263l0.263 0.535c0.132 0.256 0.031 0.566-0.225 0.697l-6.408 3.44c-0.085 0.054-0.155 0.163-0.155 0.279z"></path>
<path fill="#fff" d="M7.431 28.668c0 0.295-0.239 0.535-0.535 0.535s-0.535-0.239-0.535-0.535c0-0.295 0.239-0.535 0.535-0.535s0.535 0.239 0.535 0.535z"></path>
<path fill="#fff" d="M3.58 28.668c0 0.295-0.239 0.535-0.535 0.535s-0.535-0.239-0.535-0.535c0-0.295 0.239-0.535 0.535-0.535s0.535 0.239 0.535 0.535z"></path>
</svg>
