<!-- Generated by IcoMoon.io -->
<svg version="1.1" xmlns="http://www.w3.org/2000/svg" width="32" height="32" viewBox="0 0 32 32">
<title>team-work</title>
<path fill="#fff" d="M29.459 16.201l1.216-1.782c0.519-0.759 0.798-1.65 0.798-2.565v-8.6c0-0.821-0.666-1.488-1.488-1.488-0.341 0-0.651 0.124-0.907 0.318-0.263-0.442-0.736-0.736-1.278-0.736-0.349 0-0.674 0.132-0.93 0.333-0.263-0.418-0.728-0.697-1.255-0.697s-0.992 0.279-1.255 0.697c-0.256-0.201-0.573-0.333-0.93-0.333-0.55 0-1.030 0.302-1.286 0.752-0.008 0-0.015 0-0.015 0h-3.587c-0.217 0-0.395 0.178-0.395 0.395v0.449h-1.023c-0.496 0-0.969-0.147-1.379-0.426l-1.782-1.216c-0.759-0.519-1.65-0.798-2.565-0.798h-8.6c-0.821 0-1.488 0.666-1.488 1.488 0 0.341 0.124 0.651 0.318 0.907-0.442 0.263-0.736 0.736-0.736 1.278 0 0.349 0.132 0.674 0.333 0.93-0.418 0.263-0.697 0.728-0.697 1.255s0.279 0.992 0.697 1.255c-0.209 0.256-0.333 0.573-0.333 0.93 0 0.643 0.418 1.193 0.992 1.395v3.115c0 0.217 0.178 0.395 0.395 0.395h0.783v1.193c0 0.496-0.147 0.969-0.426 1.379l-1.216 1.782c-0.519 0.759-0.798 1.65-0.798 2.565v8.6c0 0.821 0.666 1.488 1.488 1.488 0.341 0 0.651-0.124 0.907-0.318 0.263 0.442 0.736 0.736 1.278 0.736 0.349 0 0.674-0.132 0.93-0.333 0.263 0.418 0.728 0.697 1.255 0.697s0.992-0.279 1.255-0.697c0.256 0.201 0.573 0.333 0.93 0.333 0.635 0 1.178-0.403 1.387-0.969h3.138c0.217 0 0.395-0.178 0.395-0.395v-0.457h1.015c0.496 0 0.969 0.147 1.379 0.426l1.782 1.216c0.759 0.519 1.65 0.798 2.565 0.798h8.6c0.821 0 1.488-0.666 1.488-1.488 0-0.341-0.124-0.651-0.318-0.907 0.442-0.263 0.736-0.736 0.736-1.278 0-0.349-0.132-0.674-0.333-0.93 0.418-0.263 0.697-0.728 0.697-1.255s-0.279-0.992-0.697-1.255c0.209-0.256 0.333-0.573 0.333-0.93 0-0.635-0.403-1.17-0.961-1.387v-3.076c0-0.217-0.178-0.395-0.395-0.395h-0.457v-1.015c0.015-0.496 0.163-0.969 0.442-1.379zM18.944 2.882h2.999v6.679h-2.999v-6.679zM22.772 18.596h-0.759c-0.217 0-0.395 0.178-0.395 0.395v1.185h-1.255c-1.232 0-2.41 0.907-3.355 1.635-0.395 0.302-0.759 0.589-1.007 0.697-0.535 0.232-1.697 0.287-2.402 0.287v-0.759c0-0.217-0.178-0.395-0.395-0.395h-1.255v-1.255c0-1.232-0.907-2.41-1.635-3.355-0.302-0.395-0.589-0.759-0.697-1.007-0.256-0.581-0.294-1.898-0.287-2.572h0.434c0.217 0 0.395-0.178 0.395-0.395v-1.24h1.224c1.232 0 2.41-0.907 3.355-1.635 0.395-0.302 0.759-0.589 1.007-0.697 0.535-0.24 1.697-0.287 2.402-0.287v0.759c0 0.217 0.178 0.395 0.395 0.395h1.619v1.472c0 1.232 0.907 2.41 1.635 3.355 0.302 0.395 0.589 0.759 0.697 1.007 0.225 0.542 0.279 1.705 0.279 2.41zM2.379 7.849h4.928c0.217 0 0.395-0.178 0.395-0.395s-0.17-0.403-0.395-0.403h-5.284c-0.38 0-0.69-0.31-0.69-0.69s0.31-0.69 0.69-0.69h5.292c0.217 0 0.395-0.178 0.395-0.395s-0.178-0.395-0.395-0.395h-4.936c-0.38 0-0.69-0.31-0.69-0.69s0.31-0.69 0.69-0.69h4.928c0.217 0 0.395-0.178 0.395-0.395s-0.178-0.395-0.395-0.395h-4.502c-0.38 0-0.69-0.31-0.69-0.69s0.31-0.69 0.69-0.69h8.6c0.759 0 1.488 0.225 2.115 0.659l1.782 1.216c0.542 0.372 1.17 0.566 1.829 0.566h1.015v4.664c-0.682 0-2.007 0.039-2.727 0.356-0.333 0.147-0.721 0.442-1.17 0.79-0.852 0.651-1.906 1.464-2.867 1.464h-1.224v-0.984h0.232c0.217 0 0.395-0.178 0.395-0.395s-0.178-0.395-0.395-0.395h-8.012c-0.38 0-0.69-0.31-0.69-0.69s0.31-0.736 0.69-0.736zM2.681 10.034h6.679v2.627h-6.679v-2.627zM9.36 29.389c0 0.38-0.31 0.69-0.69 0.69s-0.69-0.31-0.69-0.69v-4.928c0-0.217-0.178-0.395-0.395-0.395s-0.395 0.178-0.395 0.395v5.292c0 0.38-0.31 0.69-0.69 0.69s-0.69-0.31-0.69-0.69v-5.292c0-0.217-0.178-0.395-0.395-0.395s-0.395 0.178-0.395 0.395v4.928c0 0.38-0.31 0.69-0.69 0.69s-0.69-0.31-0.69-0.69v-4.928c0-0.217-0.178-0.395-0.395-0.395s-0.395 0.178-0.395 0.395v4.509c0 0.38-0.31 0.69-0.69 0.69s-0.69-0.31-0.69-0.69v-8.6c0-0.759 0.225-1.488 0.659-2.115l1.216-1.782c0.372-0.542 0.566-1.17 0.566-1.829v-1.185h4.664c-0.008 0.604 0.008 2.107 0.356 2.89 0.147 0.333 0.442 0.721 0.79 1.17 0.651 0.852 1.464 1.906 1.464 2.867v1.255h-0.984v-0.139c0-0.217-0.178-0.395-0.395-0.395s-0.395 0.178-0.395 0.395v7.888h-0.054zM12.8 29.118h-2.642v-6.679h2.642v6.679zM29.358 24.151h-4.928c-0.217 0-0.395 0.178-0.395 0.395s0.178 0.395 0.395 0.395h5.292c0.38 0 0.69 0.31 0.69 0.69s-0.31 0.69-0.69 0.69h-5.292c-0.217 0-0.395 0.178-0.395 0.395s0.178 0.395 0.395 0.395h4.928c0.38 0 0.69 0.31 0.69 0.69s-0.31 0.69-0.69 0.69h-4.928c-0.217 0-0.395 0.178-0.395 0.395s0.178 0.395 0.395 0.395h4.509c0.38 0 0.69 0.31 0.69 0.69s-0.31 0.69-0.69 0.69h-8.6c-0.759 0-1.488-0.225-2.115-0.659l-1.782-1.216c-0.542-0.372-1.17-0.566-1.829-0.566h-1.015v-4.664c0.008 0 0.015 0 0.015 0 0.69 0 1.991-0.047 2.704-0.356 0.333-0.147 0.721-0.442 1.17-0.79 0.852-0.651 1.906-1.464 2.867-1.464h1.255v0.984h-0.101c-0.217 0-0.395 0.178-0.395 0.395s0.178 0.395 0.395 0.395h7.841c0.38 0 0.69 0.31 0.69 0.69s-0.302 0.744-0.682 0.744zM29.094 21.966h-6.679v-2.572h6.679v2.572zM23.57 18.596c0-0.682-0.039-2.007-0.356-2.727-0.147-0.333-0.442-0.721-0.79-1.17-0.651-0.852-1.464-1.906-1.464-2.867v-1.472h0.984v0.132c0 0.217 0.178 0.395 0.395 0.395s0.395-0.178 0.395-0.395v-7.655c0-0.38 0.31-0.69 0.69-0.69s0.69 0.31 0.69 0.69v4.928c0 0.217 0.178 0.395 0.395 0.395s0.395-0.178 0.395-0.395v-5.292c0-0.38 0.31-0.69 0.69-0.69s0.69 0.31 0.69 0.69v5.292c0 0.217 0.178 0.395 0.395 0.395s0.395-0.178 0.395-0.395v-4.928c0-0.38 0.31-0.69 0.69-0.69s0.69 0.31 0.69 0.69v4.928c0 0.217 0.178 0.395 0.395 0.395s0.395-0.178 0.395-0.395v-4.509c0-0.38 0.31-0.69 0.69-0.69s0.69 0.31 0.69 0.69v8.6c0 0.759-0.225 1.488-0.659 2.115l-1.216 1.782c-0.372 0.542-0.566 1.17-0.566 1.829v1.015h-4.61z"></path>
</svg>
