<!-- Generated by IcoMoon.io -->
<svg version="1.1" xmlns="http://www.w3.org/2000/svg" width="32" height="32" viewBox="0 0 32 32">
<title>technology-02</title>
<path fill="#fff" d="M19.766 22.586c0 0.569-0.461 1.030-1.030 1.030s-1.030-0.461-1.030-1.030c0-0.569 0.461-1.030 1.030-1.030s1.030 0.461 1.030 1.030z"></path>
<path fill="#fff" d="M23.864 22.191h-1.991c-0.217 0-0.387 0.17-0.387 0.387s0.17 0.387 0.387 0.387h1.991c0.217 0 0.387-0.17 0.387-0.387s-0.17-0.387-0.387-0.387z"></path>
<path fill="#fff" d="M15.589 22.191h-1.991c-0.217 0-0.387 0.17-0.387 0.387s0.17 0.387 0.387 0.387h1.991c0.217 0 0.387-0.17 0.387-0.387s-0.17-0.387-0.387-0.387z"></path>
<path fill="#fff" d="M17.325 3.076h2.82c0.217 0 0.387-0.17 0.387-0.387s-0.17-0.387-0.387-0.387h-2.82c-0.217 0-0.387 0.17-0.387 0.387s0.17 0.387 0.387 0.387z"></path>
<path fill="#fff" d="M27.824 13.629c0-0.62-0.302-1.17-0.767-1.519 0.465-0.349 0.767-0.899 0.767-1.519 0-0.914-0.651-1.681-1.519-1.867v-7.206c0-0.542-0.488-1.030-1.030-1.030h-13.094c-0.566 0-1.030 0.465-1.030 1.030v7.159h-0.93c-1.898 0-3.587 1.201-4.207 2.999l-1.348 3.89c-0.333 0.961-0.504 1.96-0.504 2.975v12.552c0 0.217 0.17 0.387 0.387 0.387s0.387-0.17 0.387-0.387v-12.552c0-0.93 0.155-1.844 0.457-2.72l1.348-3.89c0.511-1.48 1.906-2.472 3.471-2.472h8.523c-0.186 1.356-1.364 2.41-2.774 2.41h-4.416c-0.217 0-0.387 0.17-0.387 0.387v11.855c0 0.566 0.465 1.030 1.030 1.030h6.687c-1.193 1.55-3.014 2.456-5.005 2.456h-0.961c-0.217 0-0.387 0.17-0.387 0.387v3.115c0 0.217 0.17 0.387 0.387 0.387s0.387-0.17 0.387-0.387v-2.727h0.573c2.425 0 4.633-1.201 5.958-3.231h5.455c0.542 0 1.030-0.488 1.030-1.030v-2.565c0.868-0.178 1.519-0.945 1.519-1.867 0-0.62-0.302-1.17-0.767-1.519 0.457-0.349 0.767-0.891 0.767-1.519 0-0.62-0.302-1.17-0.767-1.519 0.457-0.325 0.759-0.868 0.759-1.495zM27.049 10.6c0 0.62-0.504 1.123-1.123 1.123v0h-1.627c-0.62 0-1.123-0.504-1.123-1.123s0.504-1.131 1.131-1.131h1.565c0.023 0 0.039 0.015 0.062 0.015 0.015 0 0.023-0.008 0.039-0.008 0.589 0.023 1.077 0.519 1.077 1.123zM12.188 1.278h13.094c0.108 0 0.256 0.147 0.256 0.256v2.433h-13.606v-2.433c0-0.101 0.085-0.256 0.256-0.256zM19.556 9.081c0-0.217-0.17-0.387-0.387-0.387h-7.237v-3.952h13.598v3.952h-1.24c-1.054 0-1.906 0.852-1.906 1.906 0 0.62 0.302 1.17 0.767 1.519-0.465 0.349-0.767 0.899-0.767 1.519s0.302 1.17 0.767 1.519c-0.465 0.349-0.767 0.899-0.767 1.519s0.302 1.17 0.767 1.519c-0.457 0.349-0.767 0.891-0.767 1.519 0 0.201 0.039 0.387 0.101 0.573h-10.553v-7.609h4.052c1.968-0.015 3.572-1.619 3.572-3.595zM25.275 24.376h-13.094c-0.17 0-0.256-0.155-0.256-0.256v-3.076h11.018c0.341 0.341 0.821 0.558 1.34 0.558h1.24v2.526c0.008 0.101-0.139 0.248-0.248 0.248zM27.049 19.696c0 0.62-0.504 1.131-1.131 1.131h-1.627c-0.62 0-1.131-0.504-1.131-1.131 0-0.62 0.504-1.123 1.116-1.123h1.643c0.628 0 1.131 0.504 1.131 1.123zM27.049 16.666c0 0.62-0.504 1.123-1.116 1.123h-1.643c-0.62-0.008-1.116-0.511-1.116-1.123 0-0.62 0.504-1.131 1.131-1.131h1.627c0.612 0 1.116 0.511 1.116 1.131zM24.291 14.76c-0.62 0-1.131-0.504-1.131-1.131 0-0.62 0.504-1.123 1.123-1.123v0h1.627c0.62 0 1.123 0.504 1.123 1.123s-0.504 1.131-1.131 1.131h-1.612z"></path>
</svg>
