<!-- Generated by IcoMoon.io -->
<svg version="1.1" xmlns="http://www.w3.org/2000/svg" width="32" height="32" viewBox="0 0 32 32">
<title>technology</title>
<path fill="#fff" d="M12.451 16.55c0.124 0 0.248-0.015 0.38-0.039 1.015-0.178 1.751-1.062 1.751-2.1 0-0.449-0.139-0.883-0.387-1.216-0.116-0.186-0.256-0.349-0.434-0.465-0.015-0.008-0.023-0.015-0.039-0.023l-0.015-0.008c-0.364-0.263-0.798-0.411-1.247-0.411-1.178 0-2.131 0.953-2.131 2.131 0 0.24 0.039 0.48 0.124 0.713 0.294 0.852 1.1 1.418 1.999 1.418zM12.451 13.18c0.271 0 0.527 0.085 0.744 0.248 0.015 0.015 0.039 0.023 0.054 0.031l0.023 0.008c0.062 0.046 0.124 0.116 0.186 0.217 0.155 0.217 0.24 0.465 0.24 0.728 0 0.604-0.426 1.116-1.023 1.224-0.070 0.015-0.147 0.023-0.217 0.023-0.527 0-0.992-0.333-1.17-0.829-0.046-0.132-0.070-0.271-0.070-0.411-0.008-0.682 0.55-1.24 1.232-1.24z"></path>
<path fill="#fff" d="M20.091 24.802v0c0.403-0.403 0.628-0.938 0.628-1.503s-0.225-1.1-0.628-1.503c-0.403-0.403-0.938-0.62-1.503-0.62s-1.1 0.225-1.503 0.628c-0.829 0.829-0.829 2.185 0.023 3.030 0.411 0.403 0.945 0.604 1.48 0.604 0.442 0 0.883-0.139 1.263-0.418 0.077-0.070 0.163-0.139 0.24-0.217zM19.463 24.174c-0.047 0.047-0.093 0.085-0.139 0.116-0.488 0.364-1.162 0.318-1.612-0.116-0.48-0.48-0.48-1.271 0-1.759 0.232-0.232 0.542-0.364 0.876-0.364s0.643 0.132 0.876 0.364 0.364 0.542 0.364 0.876c0 0.341-0.132 0.651-0.364 0.883z"></path>
<path fill="#fff" d="M29.49 22.191h-0.736v-3.262h0.775c1.085 0 1.968-0.883 1.968-1.968s-0.883-1.968-1.968-1.968h-0.775v-2.975h0.736c1.085 0 1.968-0.883 1.968-1.968s-0.883-1.968-1.968-1.968h-0.736v-0.178c0-1.813-1.472-3.285-3.285-3.285h-0.566v-0.566c0-1.085-0.883-1.968-1.968-1.968s-1.968 0.883-1.968 1.968v0.566h-3.123v-0.566c0-1.085-0.883-1.968-1.968-1.968s-1.968 0.883-1.968 1.968v0.566h-3.115v-0.566c0-1.085-0.883-1.968-1.968-1.968s-1.968 0.883-1.968 1.968v0.566h-0.566c-1.813 0-3.285 1.472-3.285 3.285v0.186h-0.558c-1.085 0-1.968 0.883-1.968 1.968s0.883 1.968 1.968 1.968h0.558v3.115h-0.558c-1.085 0-1.968 0.883-1.968 1.968 0 1 0.752 1.836 1.743 1.953 0.015 0 0.031 0 0.046 0h1.077c0.031 0.008 0.062 0.008 0.101 0.008h4.672c0.077 0 0.147-0.008 0.225-0.015 0.023 0 0.054-0.008 0.077-0.015 0.101-0.031 0.186-0.085 0.24-0.17l1.201-1.72c0.116-0.163 0.108-0.387-0.023-0.542-0.248-0.294-0.449-0.635-0.581-1-0.147-0.387-0.217-0.783-0.217-1.185 0-1.867 1.519-3.386 3.386-3.386s3.386 1.519 3.386 3.386-1.519 3.394-3.386 3.394c-0.325 0-0.659-0.047-0.976-0.147-0.186-0.054-0.38 0.015-0.488 0.17l-1.519 2.169c-0.108 0.147-0.248 0.217-0.349 0.248-0.023 0.008-0.046 0.015-0.070 0.023-0.093 0.047-0.186 0.070-0.279 0.070h-5.277c-0.248 0-0.442 0.201-0.442 0.442v1.402h-0.558c-1.085 0-1.968 0.883-1.968 1.968s0.883 1.968 1.968 1.968h0.558v0.504c0 1.813 1.472 3.285 3.285 3.285h11.103c0.248 0 0.442-0.201 0.442-0.442v-2.526c0-0.194-0.124-0.364-0.31-0.426-0.519-0.163-0.976-0.442-1.356-0.829-0.643-0.643-0.992-1.488-0.992-2.394s0.349-1.759 0.992-2.394c0.643-0.643 1.488-0.992 2.394-0.992s1.751 0.349 2.394 0.992c0.69 0.69 1.046 1.635 0.984 2.611-0.070 0.209-0.108 0.426-0.108 0.659-0.155 0.581-0.457 1.1-0.876 1.519s-0.938 0.713-1.511 0.868c-0.194 0.054-0.325 0.225-0.325 0.426v2.479c0 0.248 0.201 0.442 0.442 0.442h5.889c1.813 0 3.285-1.472 3.285-3.285v-0.504h0.736c1.085 0 1.968-0.883 1.968-1.968s-0.891-1.96-1.976-1.96zM29.49 25.236h-1.178c-0.248 0-0.442 0.201-0.442 0.442v0.945c0 1.317-1.077 2.394-2.394 2.394h-5.447v-1.705c0.597-0.209 1.131-0.55 1.581-1 0.55-0.55 0.938-1.24 1.123-1.999 0.008-0.039 0.015-0.085 0.015-0.132v-0.039c0-0.132 0.023-0.263 0.077-0.387 0.015-0.039 0.023-0.085 0.031-0.124 0.101-1.255-0.349-2.487-1.24-3.37-0.806-0.806-1.883-1.255-3.022-1.255s-2.216 0.442-3.022 1.255c-0.806 0.806-1.255 1.883-1.255 3.022s0.442 2.216 1.255 3.022c0.403 0.403 0.876 0.721 1.402 0.93v1.774h-10.669c-1.317 0-2.394-1.077-2.394-2.394v-0.945c0-0.248-0.201-0.442-0.442-0.442h-1c-0.597 0-1.077-0.48-1.077-1.077s0.48-1.077 1.077-1.077h1c0.248 0 0.442-0.201 0.442-0.442v-1.402h4.858c0.217 0 0.426-0.047 0.635-0.139 0.318-0.101 0.597-0.31 0.79-0.581l1.34-1.922c0.302 0.070 0.612 0.101 0.922 0.101 2.355 0 4.277-1.922 4.277-4.277s-1.922-4.277-4.277-4.277-4.277 1.922-4.277 4.277c0 0.511 0.093 1.015 0.279 1.503 0.132 0.356 0.31 0.69 0.527 0.992l-0.891 1.271h-4.525c-0.031-0.008-0.062-0.008-0.101-0.008h-1.147c-0.535-0.070-0.93-0.527-0.93-1.069 0-0.597 0.48-1.077 1.077-1.077h1c0.248 0 0.442-0.201 0.442-0.442v-4.006c0-0.248-0.201-0.442-0.442-0.442h-1c-0.597 0-1.077-0.48-1.077-1.077s0.48-1.077 1.077-1.077h1c0.248 0 0.442-0.201 0.442-0.442v-0.635c0-1.317 1.077-2.394 2.394-2.394h1.007c0.248 0 0.442-0.201 0.442-0.442v-1.015c0-0.597 0.48-1.077 1.077-1.077s1.077 0.48 1.077 1.077v1.015c0 0.248 0.201 0.442 0.442 0.442h4.006c0.248 0 0.442-0.201 0.442-0.442v-1.015c0-0.597 0.48-1.077 1.077-1.077s1.077 0.48 1.077 1.077v1.015c0 0.248 0.201 0.442 0.442 0.442h4.006c0.248 0 0.442-0.201 0.442-0.442v-1.015c0-0.597 0.48-1.077 1.077-1.077s1.077 0.48 1.077 1.077v1.015c0 0.248 0.201 0.442 0.442 0.442h1.007c1.317 0 2.394 1.077 2.394 2.394v0.635c0 0.248 0.201 0.442 0.442 0.442h1.178c0.597 0 1.077 0.48 1.077 1.077s-0.48 1.077-1.077 1.077h-1.178c-0.248 0-0.442 0.201-0.442 0.442v3.859c0 0.248 0.201 0.442 0.442 0.442h1.216c0.597 0 1.077 0.48 1.077 1.077s-0.48 1.077-1.077 1.077h-1.216c-0.248 0-0.442 0.201-0.442 0.442v4.153c0 0.248 0.201 0.442 0.442 0.442h1.178c0.597 0 1.077 0.48 1.077 1.077 0.039 0.612-0.449 1.093-1.046 1.093z"></path>
</svg>
