<!-- Generated by IcoMoon.io -->
<svg version="1.1" xmlns="http://www.w3.org/2000/svg" width="32" height="32" viewBox="0 0 32 32">
<title>terminal</title>
<path fill="#fff" d="M6.121 4.564c0 0.629-0.51 1.139-1.139 1.139s-1.139-0.51-1.139-1.139c0-0.629 0.51-1.139 1.139-1.139s1.139 0.51 1.139 1.139z"></path>
<path fill="#fff" d="M10.204 4.564c0 0.629-0.51 1.139-1.139 1.139s-1.139-0.51-1.139-1.139c0-0.629 0.51-1.139 1.139-1.139s1.139 0.51 1.139 1.139z"></path>
<path fill="#fff" d="M14.28 4.564c0 0.629-0.51 1.139-1.139 1.139s-1.139-0.51-1.139-1.139c0-0.629 0.51-1.139 1.139-1.139s1.139 0.51 1.139 1.139z"></path>
<path fill="#fff" d="M30.97 10.073h-29.9c-0.287 0-0.527 0.232-0.527 0.527v14.729c0 0.225-0.008 0.465-0.015 0.713-0.039 1.147-0.085 2.448 0.566 3.417 1.007 1.488 2.503 1.557 3.859 1.557 0.070 0 0.132 0 0.201 0h22.811c1.348 0 2.541-0.674 3.115-1.767 0.387-0.744 0.426-1.48 0.426-2.107v-16.542c-0.008-0.294-0.24-0.527-0.535-0.527zM30.443 27.142c0 0.643-0.054 1.139-0.302 1.619-0.387 0.744-1.224 1.209-2.177 1.209h-22.818c-1.364 0.008-2.441 0.008-3.184-1.093-0.465-0.69-0.426-1.805-0.387-2.797 0.008-0.263 0.016-0.519 0.016-0.752v-14.202h28.854v16.015z"></path>
<path fill="#fff" d="M28.079 0.992h-23.717c-0.217 0-0.434-0.008-0.651 0.008-1.805 0.155-3.169 1.627-3.169 3.432v3.239c0 0.287 0.232 0.527 0.527 0.527h29.9c0.287 0 0.527-0.232 0.527-0.527v-3.254c0-1.867-1.495-3.37-3.417-3.425zM30.443 7.152h-28.846v-2.72c0-1.255 0.953-2.278 2.208-2.386 0.178-0.015 0.356-0.008 0.535-0.008h23.725c1.333 0.039 2.379 1.085 2.379 2.379v2.735z"></path>
<path fill="#fff" d="M28.413 3.223c-0.201-0.201-0.535-0.201-0.744 0l-0.597 0.597-0.597-0.597c-0.201-0.201-0.535-0.201-0.744 0-0.201 0.201-0.201 0.535 0 0.744l0.597 0.597-0.597 0.597c-0.201 0.201-0.201 0.535 0 0.744 0.101 0.101 0.24 0.155 0.372 0.155s0.271-0.054 0.372-0.155l0.597-0.597 0.597 0.597c0.101 0.101 0.24 0.155 0.372 0.155s0.271-0.054 0.372-0.155c0.201-0.201 0.201-0.535 0-0.744l-0.597-0.597 0.597-0.597c0.209-0.201 0.209-0.535 0-0.744z"></path>
<path fill="#fff" d="M10.545 25.825c0.101 0.108 0.248 0.17 0.387 0.17 0.132 0 0.256-0.047 0.356-0.139l5.555-5.16c0.209-0.194 0.318-0.442 0.318-0.705s-0.116-0.519-0.318-0.705l-5.555-5.16c-0.209-0.194-0.542-0.186-0.744 0.031-0.194 0.209-0.186 0.542 0.031 0.744l5.493 5.098-5.493 5.098c-0.217 0.186-0.225 0.519-0.031 0.728z"></path>
<path fill="#fff" d="M16.147 24.678c0 0.287 0.232 0.527 0.527 0.527h4.672c0.287 0 0.527-0.232 0.527-0.527s-0.232-0.527-0.527-0.527h-4.672c-0.294 0-0.527 0.24-0.527 0.527z"></path>
</svg>
