<!-- Generated by IcoMoon.io -->
<svg version="1.1" xmlns="http://www.w3.org/2000/svg" width="32" height="32" viewBox="0 0 32 32">
<title>thermometer</title>
<path fill="#fff" d="M15.194 23.152c0-0.015 0.008-0.023 0.008-0.039v-16.333c0-0.225-0.178-0.403-0.403-0.403s-0.403 0.178-0.403 0.403v16.333c0 0.015 0.008 0.023 0.008 0.039-1.023 0.186-1.805 1.085-1.805 2.162 0 1.216 0.984 2.2 2.2 2.2s2.2-0.984 2.2-2.2c0-1.077-0.775-1.976-1.805-2.162z"></path>
<path fill="#fff" d="M19.432 7.183h3.549c0.225 0 0.403-0.178 0.403-0.403s-0.178-0.403-0.403-0.403h-3.549c-0.225 0-0.403 0.178-0.403 0.403s0.178 0.403 0.403 0.403z"></path>
<path fill="#fff" d="M22.973 8.879h-3.549c-0.225 0-0.403 0.178-0.403 0.403s0.178 0.403 0.403 0.403h3.549c0.225 0 0.403-0.178 0.403-0.403s-0.178-0.403-0.403-0.403z"></path>
<path fill="#fff" d="M22.973 11.382h-3.549c-0.225 0-0.403 0.178-0.403 0.403s0.178 0.403 0.403 0.403h3.549c0.225 0 0.403-0.178 0.403-0.403s-0.178-0.403-0.403-0.403z"></path>
<path fill="#fff" d="M22.973 13.877h-3.549c-0.225 0-0.403 0.178-0.403 0.403s0.178 0.403 0.403 0.403h3.549c0.225 0 0.403-0.178 0.403-0.403s-0.178-0.403-0.403-0.403z"></path>
<path fill="#fff" d="M22.973 16.38h-3.549c-0.225 0-0.403 0.178-0.403 0.403s0.178 0.403 0.403 0.403h3.549c0.225 0 0.403-0.178 0.403-0.403 0-0.217-0.178-0.403-0.403-0.403z"></path>
<path fill="#fff" d="M17.534 19.781v-16.519c0-1.519-1.24-2.758-2.758-2.758s-2.758 1.24-2.758 2.758v16.542c-2.076 1.046-3.401 3.184-3.401 5.517 0 3.409 2.774 6.175 6.175 6.175s6.175-2.774 6.175-6.175c0.015-2.355-1.333-4.502-3.432-5.54zM14.799 30.691c-2.96 0-5.37-2.41-5.37-5.37 0-2.1 1.24-4.021 3.161-4.889l0.24-0.108v-17.061c0-1.077 0.876-1.953 1.953-1.953s1.953 0.876 1.953 1.953v17.038l0.24 0.108c1.945 0.86 3.2 2.789 3.2 4.912-0.008 2.96-2.417 5.37-5.377 5.37z"></path>
</svg>
