<!-- Generated by IcoMoon.io -->
<svg version="1.1" xmlns="http://www.w3.org/2000/svg" width="32" height="32" viewBox="0 0 32 32">
<title>thief</title>
<path fill="#fff" d="M29.769 9.786h-1.557c-1.976-4.967-6.842-8.291-12.211-8.291s-10.228 3.324-12.211 8.291h-1.557c-0.953 0-1.728 0.775-1.728 1.728v3.835c0 0.953 0.775 1.728 1.728 1.728h27.537c0.953 0 1.728-0.775 1.728-1.728v-3.835c0-0.945-0.775-1.728-1.728-1.728zM16 2.34c4.912 0 9.375 2.975 11.305 7.454h-22.609c1.929-4.486 6.392-7.454 11.305-7.454zM30.66 15.349c0 0.488-0.403 0.891-0.891 0.891h-27.537c-0.488 0-0.891-0.403-0.891-0.891v-3.835c0-0.488 0.403-0.891 0.891-0.891h27.529c0.488 0 0.891 0.403 0.891 0.891v3.835h0.008z"></path>
<path fill="#fff" d="M27.917 19.812h-23.833c-0.232 0-0.418 0.186-0.418 0.418v7.833c0 0.139 0.070 0.279 0.194 0.349l0.31 0.201c3.51 2.262 7.973 2.231 11.444-0.047l0.077 0.054c1.79 1.247 3.897 1.875 6.005 1.875 1.798 0 3.595-0.457 5.199-1.371l1.224-0.697c0.132-0.077 0.209-0.217 0.209-0.364v-7.833c0.008-0.232-0.178-0.418-0.411-0.418zM27.498 27.824l-1.015 0.581c-3.223 1.836-7.268 1.658-10.313-0.465l-0.318-0.217c-0.070-0.047-0.155-0.077-0.24-0.077s-0.17 0.023-0.24 0.077c-3.231 2.247-7.446 2.324-10.754 0.194l-0.124-0.077v-7.183h22.997v7.167h0.008z"></path>
<path fill="#fff" d="M10.073 26.762c1.457 0 2.557-0.69 2.557-1.596 0-0.914-1.1-1.596-2.557-1.596s-2.557 0.69-2.557 1.596 1.1 1.596 2.557 1.596zM10.073 24.399c1.054 0 1.72 0.449 1.72 0.759s-0.674 0.759-1.72 0.759c-1.054 0-1.72-0.449-1.72-0.759s0.666-0.759 1.72-0.759z"></path>
<path fill="#fff" d="M21.563 26.762c1.457 0 2.557-0.69 2.557-1.596 0-0.914-1.1-1.596-2.557-1.596s-2.557 0.69-2.557 1.596c0 0.907 1.1 1.596 2.557 1.596zM21.563 24.399c1.054 0 1.72 0.449 1.72 0.759s-0.674 0.759-1.72 0.759-1.72-0.449-1.72-0.759c0-0.31 0.674-0.759 1.72-0.759z"></path>
</svg>
