<!-- Generated by IcoMoon.io -->
<svg version="1.1" xmlns="http://www.w3.org/2000/svg" width="32" height="32" viewBox="0 0 32 32">
<title>thoughts</title>
<path fill="#fff" d="M28.955 18.526v0l-2.464-4.711v-1.449c0-6.539-5.323-11.862-11.862-11.862s-11.862 5.323-11.862 11.862c0 3.254 1.286 6.284 3.634 8.538v10.22c0 0.201 0.163 0.364 0.364 0.364h13.614c0.201 0 0.364-0.163 0.364-0.364v-3.262h2.96c1.534 0 2.789-1.247 2.789-2.789v-3.866h0.845c0.775 0 1.379-0.287 1.697-0.806 0.31-0.519 0.279-1.185-0.077-1.875zM28.397 20.021c-0.178 0.294-0.558 0.449-1.061 0.449h-1.209c-0.201 0-0.364 0.163-0.364 0.364v4.238c0 1.131-0.922 2.053-2.053 2.053h-3.332c-0.201 0-0.364 0.163-0.364 0.364v3.27h-12.893v-10.011c0-0.101-0.039-0.201-0.116-0.271-2.27-2.131-3.518-5.013-3.518-8.112 0.008-6.137 4.998-11.126 11.134-11.126s11.126 4.99 11.126 11.126v1.542c0 0.062 0.015 0.116 0.039 0.17l2.51 4.788c0.24 0.449 0.279 0.86 0.101 1.154z"></path>
<path fill="#fff" d="M10.716 10.057c-1.294 0-2.34 1.054-2.34 2.34s1.054 2.34 2.34 2.34 2.34-1.054 2.34-2.34-1.046-2.34-2.34-2.34zM10.716 14.001c-0.883 0-1.604-0.721-1.604-1.604s0.721-1.604 1.604-1.604 1.604 0.721 1.604 1.604-0.721 1.604-1.604 1.604z"></path>
<path fill="#fff" d="M15.365 11.080h-0.744c-0.062-0.178-0.132-0.349-0.217-0.519l0.527-0.527c0.302-0.302 0.302-0.79 0-1.092l-0.767-0.767c-0.294-0.294-0.806-0.294-1.092 0l-0.527 0.527c-0.17-0.085-0.341-0.155-0.519-0.217v-0.736c0-0.426-0.349-0.775-0.775-0.775h-1.077c-0.426 0-0.775 0.349-0.775 0.775v0.744c-0.178 0.062-0.349 0.132-0.519 0.217l-0.527-0.527c-0.294-0.294-0.806-0.294-1.093 0l-0.767 0.767c-0.302 0.302-0.302 0.79 0 1.092l0.527 0.527c-0.085 0.17-0.155 0.341-0.217 0.519h-0.744c-0.426 0-0.775 0.349-0.775 0.775v1.077c0 0.426 0.349 0.775 0.775 0.775h0.744c0.062 0.178 0.132 0.349 0.217 0.519l-0.527 0.527c-0.302 0.302-0.302 0.79 0 1.092l0.767 0.767c0.302 0.302 0.79 0.302 1.092 0l0.527-0.527c0.17 0.085 0.341 0.155 0.519 0.217v0.744c0 0.426 0.349 0.775 0.775 0.775h1.077c0.426 0 0.775-0.349 0.775-0.775v-0.744c0.178-0.062 0.349-0.132 0.519-0.217l0.527 0.527c0.302 0.302 0.79 0.302 1.092 0l0.767-0.767c0.302-0.302 0.302-0.79 0-1.092l-0.527-0.527c0.085-0.17 0.155-0.341 0.217-0.519h0.744c0.426 0 0.775-0.349 0.775-0.775v-1.085c0-0.426-0.349-0.775-0.775-0.775zM15.403 12.939c0 0.023-0.015 0.039-0.039 0.039h-1.023c-0.17 0-0.31 0.116-0.356 0.279-0.077 0.302-0.201 0.589-0.356 0.86-0.085 0.147-0.062 0.325 0.054 0.449l0.721 0.721c0.015 0.015 0.015 0.039 0 0.054l-0.767 0.767c-0.015 0.015-0.039 0.015-0.054 0l-0.721-0.721c-0.116-0.116-0.302-0.139-0.449-0.054-0.263 0.155-0.558 0.279-0.86 0.356-0.163 0.039-0.279 0.186-0.279 0.356v1c0 0.023-0.015 0.039-0.039 0.039h-1.077c-0.023 0-0.039-0.015-0.039-0.039v-1.023c0-0.17-0.116-0.31-0.279-0.356-0.302-0.077-0.589-0.201-0.86-0.356-0.062-0.031-0.124-0.054-0.186-0.054-0.093 0-0.186 0.039-0.263 0.108l-0.721 0.721c-0.016 0.015-0.039 0.015-0.054 0l-0.767-0.767c-0.016-0.015-0.016-0.039 0-0.054l0.721-0.721c0.116-0.116 0.139-0.302 0.054-0.449-0.155-0.263-0.279-0.558-0.356-0.86-0.039-0.163-0.186-0.279-0.356-0.279h-0.984c-0.023 0-0.039-0.015-0.039-0.039v-1.062c0-0.023 0.016-0.039 0.039-0.039h1.023c0.17 0 0.31-0.116 0.356-0.279 0.077-0.302 0.201-0.589 0.356-0.86 0.085-0.147 0.062-0.325-0.054-0.449l-0.721-0.721c-0.016-0.015-0.016-0.039 0-0.054l0.767-0.767h0.008c0.016 0 0.046 0 0.046 0l0.721 0.721c0.116 0.116 0.302 0.139 0.449 0.054 0.263-0.155 0.558-0.279 0.86-0.356 0.163-0.039 0.279-0.186 0.279-0.356v-1c0-0.023 0.015-0.039 0.039-0.039h1.077c0.023 0 0.039 0.016 0.039 0.039v1.023c0 0.17 0.116 0.31 0.279 0.356 0.302 0.077 0.589 0.201 0.86 0.356 0.147 0.085 0.325 0.062 0.449-0.054l0.721-0.721c0 0 0.008 0 0.015 0 0.015 0 0.039 0 0.039 0l0.767 0.767c0.015 0.015 0.015 0.039 0 0.054l-0.721 0.721c-0.116 0.116-0.139 0.302-0.054 0.449 0.155 0.263 0.279 0.558 0.356 0.86 0.039 0.163 0.186 0.279 0.356 0.279h1.023c0.023 0 0.039 0.015 0.039 0.039v1.062h-0.039z"></path>
<path fill="#fff" d="M22.501 8.934h-0.387c-0.108-0.287-0.263-0.55-0.457-0.79l0.194-0.333c0.17-0.302 0.070-0.682-0.232-0.86l-0.597-0.349c-0.147-0.085-0.318-0.108-0.48-0.062s-0.294 0.147-0.38 0.294l-0.194 0.333c-0.302-0.054-0.604-0.054-0.907 0l-0.194-0.333c-0.085-0.147-0.217-0.248-0.38-0.294s-0.333-0.023-0.48 0.062l-0.604 0.349c-0.147 0.085-0.248 0.217-0.294 0.38s-0.023 0.333 0.062 0.473l0.194 0.333c-0.194 0.232-0.349 0.504-0.457 0.79h-0.387c-0.349 0-0.628 0.279-0.628 0.628v0.69c0 0.349 0.279 0.628 0.628 0.628h0.387c0.108 0.287 0.263 0.55 0.457 0.79l-0.194 0.333c-0.085 0.147-0.108 0.318-0.062 0.48s0.147 0.294 0.294 0.38l0.597 0.349c0.101 0.054 0.201 0.085 0.31 0.085 0.054 0 0.108-0.008 0.163-0.023 0.163-0.046 0.294-0.147 0.38-0.294l0.194-0.333c0.302 0.054 0.604 0.054 0.907 0l0.194 0.333c0.085 0.147 0.217 0.248 0.38 0.294s0.333 0.023 0.48-0.062l0.604-0.349c0.302-0.17 0.403-0.558 0.232-0.86l-0.194-0.333c0.194-0.232 0.349-0.504 0.457-0.79h0.387c0.349 0 0.628-0.279 0.628-0.628v-0.69c0.008-0.341-0.271-0.62-0.62-0.62zM22.392 10.142h-0.55c-0.17 0-0.31 0.116-0.356 0.279-0.093 0.356-0.279 0.682-0.542 0.938-0.116 0.116-0.147 0.302-0.062 0.449l0.271 0.473-0.418 0.24-0.271-0.473c-0.070-0.116-0.186-0.186-0.318-0.186-0.031 0-0.062 0.008-0.101 0.015-0.364 0.101-0.721 0.101-1.085 0-0.163-0.046-0.333 0.023-0.418 0.17l-0.271 0.473-0.418-0.24 0.271-0.473c0.085-0.147 0.062-0.325-0.062-0.449-0.263-0.256-0.449-0.581-0.542-0.938-0.039-0.163-0.186-0.271-0.356-0.271h-0.55v-0.48h0.55c0.17 0 0.31-0.116 0.356-0.271 0.093-0.356 0.279-0.682 0.542-0.938 0.116-0.116 0.147-0.302 0.062-0.449l-0.271-0.473 0.418-0.24 0.271 0.473c0.085 0.147 0.256 0.217 0.418 0.17 0.364-0.101 0.721-0.101 1.085 0 0.163 0.046 0.333-0.023 0.418-0.17l0.271-0.473 0.418 0.24-0.271 0.473c-0.085 0.147-0.062 0.325 0.062 0.449 0.263 0.256 0.449 0.581 0.542 0.938 0.039 0.163 0.186 0.279 0.356 0.279h0.55v0.465z"></path>
<path fill="#fff" d="M19.518 8.415c-0.395 0-0.775 0.155-1.054 0.434s-0.434 0.659-0.434 1.054c0 0.821 0.666 1.488 1.488 1.488 0.395 0 0.775-0.155 1.054-0.434s0.434-0.659 0.434-1.054c0-0.814-0.666-1.488-1.488-1.488zM20.052 10.437c-0.139 0.139-0.333 0.225-0.535 0.225-0.418 0-0.752-0.341-0.752-0.752 0-0.201 0.077-0.387 0.217-0.535 0.139-0.139 0.333-0.225 0.535-0.225 0.418 0 0.752 0.341 0.752 0.752 0 0.209-0.077 0.395-0.217 0.535z"></path>
</svg>
