<!-- Generated by IcoMoon.io -->
<svg version="1.1" xmlns="http://www.w3.org/2000/svg" width="32" height="32" viewBox="0 0 32 32">
<title>thumbnail</title>
<path fill="#fff" d="M24.98 20.254l-2.999-6.206-0.744-10.499h0.868c0.837 0 1.519-0.682 1.519-1.526 0-0.837-0.682-1.519-1.519-1.519h-12.211c-0.837 0-1.519 0.682-1.519 1.519 0 0.845 0.682 1.526 1.519 1.526h0.868l-0.744 10.499-2.999 6.206c-0.070 0.139-0.054 0.302 0.023 0.434 0.085 0.132 0.225 0.209 0.38 0.209h8.143c-0.008 0.023-0.015 0.047-0.015 0.070v10.073c0 0.248 0.201 0.449 0.449 0.449s0.449-0.201 0.449-0.449v-10.073c0-0.023-0.008-0.047-0.015-0.070h8.143c0.155 0 0.302-0.077 0.38-0.209 0.085-0.132 0.093-0.294 0.023-0.434zM8.136 19.998l2.727-5.641c0.023-0.054 0.039-0.108 0.046-0.163l0.783-11.072c0.008-0.124-0.031-0.248-0.116-0.341s-0.201-0.147-0.325-0.147h-1.348c-0.341 0-0.62-0.279-0.62-0.628 0-0.341 0.279-0.62 0.62-0.62h12.211c0.341 0 0.62 0.279 0.62 0.62 0 0.349-0.279 0.628-0.62 0.628h-1.348c-0.124 0-0.24 0.054-0.325 0.147s-0.132 0.217-0.116 0.341l0.783 11.072c0.008 0.054 0.015 0.108 0.047 0.163l2.727 5.641h-15.744z"></path>
</svg>
