<!-- Generated by IcoMoon.io -->
<svg version="1.1" xmlns="http://www.w3.org/2000/svg" width="32" height="32" viewBox="0 0 32 32">
<title>ticket</title>
<path fill="#fff" d="M31.45 18.774l-0.775-3.022c-0.17-0.682-0.868-1.17-1.573-1.116-0.969 0.070-1.798-0.535-2.038-1.48s0.201-1.875 1.077-2.278c0.643-0.294 1.015-1.054 0.837-1.728l-0.775-3.022c-0.101-0.387-0.341-0.713-0.682-0.914s-0.744-0.263-1.131-0.163l-24.763 6.361c-0.798 0.201-1.278 1.015-1.069 1.813l0.775 3.022c0.17 0.674 0.86 1.17 1.573 1.116 0.961-0.070 1.798 0.535 2.038 1.48s-0.201 1.875-1.077 2.278c-0.643 0.294-1.015 1.054-0.837 1.728l0.775 3.022c0.101 0.387 0.341 0.713 0.682 0.914 0.232 0.139 0.496 0.209 0.759 0.209 0.124 0 0.248-0.015 0.372-0.047l24.771-6.354c0.783-0.209 1.263-1.023 1.061-1.821zM30.171 19.797l-24.771 6.354c-0.17 0.047-0.356 0.015-0.511-0.070-0.155-0.093-0.263-0.24-0.31-0.411l-0.775-3.022c-0.077-0.294 0.101-0.651 0.387-0.783 1.224-0.558 1.867-1.914 1.534-3.223-0.318-1.24-1.426-2.1-2.681-2.1-0.070 0-0.139 0-0.209 0.008-0.31 0.023-0.643-0.209-0.713-0.504l-0.775-3.022c-0.093-0.356 0.124-0.728 0.48-0.814l24.771-6.354c0.17-0.046 0.356-0.016 0.511 0.070 0.155 0.093 0.263 0.24 0.31 0.411l0.775 3.022c0.077 0.294-0.101 0.651-0.387 0.783-1.224 0.558-1.867 1.914-1.534 3.223s1.557 2.193 2.898 2.092c0.31-0.023 0.643 0.209 0.713 0.504l0.775 3.022c0.085 0.349-0.132 0.721-0.488 0.814z"></path>
<path fill="#fff" d="M9.848 13.552l-0.163 0.039c-0.116 0.023-0.178 0.108-0.186 0.225l-0.263 3.688c-0.015 0.108 0.039 0.17 0.070 0.201l0.116 0.070 0.232-0.062c0.147-0.039 0.186-0.155 0.178-0.225l0.054-0.876 1.224-0.318 0.473 0.744c0.062 0.093 0.163 0.139 0.271 0.108l0.271-0.077 0.062-0.217-2.076-3.2c-0.085-0.116-0.194-0.124-0.263-0.101zM9.933 16l0.093-1.402 0.759 1.185-0.852 0.217z"></path>
<path fill="#fff" d="M12.498 16.976c0.023 0 0.054 0 0.077-0.008v0l0.976-0.248c1.542-0.395 1.17-1.86 1.046-2.34-0.325-1.271-1.015-1.79-2.038-1.526l-0.969 0.248c-0.070 0.015-0.132 0.062-0.163 0.124l-0.046 0.093 0.891 3.479c0.015 0.093 0.101 0.178 0.225 0.178zM12.769 16.318l-0.705-2.735 0.674-0.17c0.387-0.101 0.938-0.085 1.263 1.162 0.108 0.434 0.132 0.767 0.062 1.015-0.085 0.294-0.294 0.473-0.659 0.566l-0.635 0.163z"></path>
<path fill="#fff" d="M15.357 16c0.031 0.108 0.124 0.178 0.232 0.178 0.023 0 0.039 0 0.062-0.008l0.124-0.031c0.124-0.031 0.194-0.155 0.163-0.294l-0.566-2.2 1.24 1.48c0.062 0.085 0.17 0.124 0.271 0.093l0.116-0.031c0.054-0.015 0.147-0.062 0.178-0.201l0.387-1.906 0.566 2.2c0.015 0.062 0.054 0.116 0.108 0.147l0.101 0.046 0.209-0.054c0.124-0.031 0.194-0.155 0.163-0.287l-0.868-3.394c-0.023-0.085-0.070-0.132-0.108-0.155l-0.108-0.046-0.209 0.054c-0.077 0.023-0.186 0.062-0.201 0.217l-0.504 2.518-1.65-1.968c-0.070-0.093-0.155-0.124-0.271-0.093l-0.147 0.039c-0.124 0.031-0.201 0.163-0.17 0.294l0.883 3.401z"></path>
<path fill="#fff" d="M19.301 15.171l0.093 0.039 0.217-0.054c0.077-0.023 0.124-0.070 0.139-0.101l0.039-0.101-0.883-3.487c-0.015-0.070-0.054-0.116-0.108-0.147l-0.093-0.046-0.217 0.054c-0.077 0.023-0.124 0.070-0.147 0.101l-0.039 0.101 0.899 3.494c0.015 0.070 0.047 0.116 0.101 0.147z"></path>
<path fill="#fff" d="M21.602 10.6l-0.093-0.046-2.239 0.573c-0.062 0.015-0.116 0.054-0.147 0.108l-0.047 0.101 0.054 0.194c0.031 0.132 0.147 0.201 0.287 0.163l0.783-0.201 0.79 3.076c0.031 0.108 0.116 0.178 0.225 0.178 0.023 0 0.047 0 0.070-0.008l0.124-0.031c0.132-0.031 0.201-0.147 0.163-0.287l-0.783-3.076 0.79-0.201 0.101-0.031 0.085-0.17-0.054-0.194c-0.023-0.070-0.054-0.116-0.108-0.147z"></path>
<path fill="#fff" d="M13.288 17.457c-0.666 0.17-1.371 0.705-0.961 2.301 0.116 0.442 0.271 0.938 0.558 1.278 0.248 0.294 0.573 0.442 0.961 0.442 0.147 0 0.302-0.023 0.457-0.062 0.597-0.155 0.961-0.496 1.077-1.015 0.101-0.457 0-0.984-0.108-1.395-0.139-0.535-0.496-1.929-1.984-1.55zM13.373 20.657c-0.178-0.194-0.325-0.519-0.449-0.992-0.318-1.247 0.077-1.526 0.511-1.635v0c0.108-0.031 0.209-0.039 0.302-0.039 0.201 0 0.364 0.070 0.504 0.209 0.186 0.186 0.341 0.519 0.473 1.015 0.318 1.247-0.124 1.534-0.55 1.643-0.341 0.077-0.589 0.015-0.79-0.201z"></path>
<path fill="#fff" d="M17.984 16.55c-0.031-0.132-0.163-0.209-0.294-0.178l-0.116 0.031c-0.062 0.015-0.108 0.054-0.139 0.101l-0.047 0.108 0.651 2.534-2.324-2.146c-0.070-0.062-0.147-0.077-0.232-0.054l-0.139 0.039c-0.124 0.031-0.201 0.163-0.17 0.294l0.868 3.401c0.031 0.108 0.124 0.178 0.232 0.178 0.023 0 0.039 0 0.062-0.008l0.124-0.031c0.124-0.031 0.194-0.155 0.163-0.287l-0.628-2.448 2.309 2.139c0.047 0.047 0.116 0.101 0.24 0.070l0.139-0.039c0.124-0.031 0.201-0.163 0.17-0.294l-0.868-3.409z"></path>
<path fill="#fff" d="M21.455 19.161c-0.023-0.077-0.070-0.124-0.101-0.147l-0.101-0.039-1.557 0.403-0.294-1.154 1.278-0.325c0.108-0.031 0.201-0.132 0.163-0.294l-0.062-0.201-0.17-0.085-1.364 0.349-0.256-1.007 1.441-0.372c0.077-0.023 0.124-0.070 0.147-0.101l0.039-0.101-0.054-0.194c-0.015-0.062-0.054-0.116-0.108-0.147l-0.093-0.046-1.891 0.488c-0.108 0.031-0.201 0.139-0.163 0.287l0.876 3.409 0.031 0.101 0.17 0.085 1.922-0.496c0.132-0.031 0.201-0.155 0.17-0.279l-0.023-0.132z"></path>
<path fill="#fff" d="M6.989 13.869c-0.054-0.217-0.279-0.349-0.496-0.294s-0.349 0.279-0.294 0.496l2.162 8.43c0.046 0.186 0.217 0.31 0.395 0.31 0.031 0 0.070-0.008 0.101-0.015 0.217-0.054 0.349-0.279 0.294-0.496l-2.162-8.43z"></path>
<path fill="#fff" d="M23.74 9.569c-0.054-0.217-0.279-0.349-0.496-0.294s-0.349 0.279-0.294 0.496l2.162 8.43c0.047 0.186 0.217 0.31 0.395 0.31 0.031 0 0.070-0.008 0.101-0.015 0.217-0.054 0.349-0.279 0.294-0.496l-2.162-8.43z"></path>
</svg>
