<!-- Generated by IcoMoon.io -->
<svg version="1.1" xmlns="http://www.w3.org/2000/svg" width="32" height="32" viewBox="0 0 32 32">
<title>ticket-image-01</title>
<path fill="#fff" d="M29.947 8.779h-27.893c-0.86 0-1.55 0.697-1.55 1.55v11.336c0 0.86 0.697 1.55 1.55 1.55h27.886c0.86 0 1.55-0.697 1.55-1.55v-11.336c0.008-0.852-0.69-1.55-1.542-1.55zM30.683 21.672c0 0.411-0.333 0.744-0.744 0.744h-27.886c-0.411 0-0.744-0.333-0.744-0.744v-11.343c0-0.411 0.333-0.744 0.744-0.744h27.886c0.411 0 0.744 0.333 0.744 0.744v11.343z"></path>
<path fill="#fff" d="M28.575 12.955l-0.752-0.085c-0.155-0.015-0.302 0.015-0.434 0.093l-6.586 3.804-1.379-1.023c-0.287-0.217-0.674-0.24-0.984-0.062-0.132 0.077-0.24 0.186-0.318 0.31-0.054 0.093-0.054 0.201 0 0.294l1.015 1.767c0.209 0.364 0.566 0.643 0.976 0.767 0.155 0.047 0.318 0.070 0.473 0.070 0.271 0 0.527-0.070 0.759-0.201l1.387-0.798c0.039 0.008 0.070 0.008 0.116 0.008 0.139 0 0.302-0.023 0.48-0.070 0.403-0.101 0.883-0.31 1.364-0.589s0.907-0.589 1.193-0.883c0.17-0.178 0.287-0.341 0.356-0.488l2.115-1.216c0.132-0.077 0.232-0.194 0.294-0.325l0.318-0.69c0.062-0.139 0.047-0.302-0.031-0.434-0.085-0.147-0.217-0.232-0.364-0.248zM24.407 16.744c-0.736 0.426-1.294 0.581-1.534 0.589 0.132-0.201 0.542-0.612 1.278-1.038s1.294-0.581 1.534-0.589c-0.132 0.209-0.542 0.612-1.278 1.038zM28.126 14.086c-0.015 0.023-0.031 0.046-0.054 0.062l-1.937 1.116c-0.178-0.147-0.48-0.17-0.907-0.062-0.403 0.101-0.883 0.31-1.364 0.589s-0.907 0.589-1.193 0.883c-0.31 0.318-0.442 0.589-0.403 0.821l-1.201 0.697c-0.232 0.132-0.511 0.163-0.783 0.077s-0.504-0.263-0.643-0.504l-0.922-1.588h0.008c0.108-0.062 0.248-0.054 0.356 0.023l1.534 1.139c0.093 0.070 0.217 0.077 0.318 0.015l6.749-3.897c0.023-0.015 0.054-0.023 0.085-0.015l0.628 0.070-0.271 0.573z"></path>
<path fill="#fff" d="M15.969 12.428h-12.978c-0.225 0-0.403 0.178-0.403 0.403s0.178 0.403 0.403 0.403h12.978c0.225 0 0.403-0.178 0.403-0.403 0.008-0.225-0.178-0.403-0.403-0.403z"></path>
<path fill="#fff" d="M15.969 15.589h-12.978c-0.225 0-0.403 0.178-0.403 0.403s0.178 0.403 0.403 0.403h12.978c0.225 0 0.403-0.178 0.403-0.403 0.008-0.217-0.178-0.403-0.403-0.403z"></path>
<path fill="#fff" d="M15.969 18.758h-12.978c-0.225 0-0.403 0.178-0.403 0.403s0.178 0.403 0.403 0.403h12.978c0.225 0 0.403-0.178 0.403-0.403 0.008-0.225-0.178-0.403-0.403-0.403z"></path>
</svg>
