<!-- Generated by IcoMoon.io -->
<svg version="1.1" xmlns="http://www.w3.org/2000/svg" width="32" height="32" viewBox="0 0 32 32">
<title>ticket-image-02</title>
<path fill="#fff" d="M29.947 8.779h-27.893c-0.86 0-1.55 0.697-1.55 1.55v11.336c0 0.86 0.697 1.55 1.55 1.55h27.886c0.86 0 1.55-0.697 1.55-1.55v-11.336c0.008-0.852-0.69-1.55-1.542-1.55zM30.683 21.672c0 0.411-0.333 0.744-0.744 0.744h-27.886c-0.411 0-0.744-0.333-0.744-0.744v-11.343c0-0.411 0.333-0.744 0.744-0.744h27.886c0.411 0 0.744 0.333 0.744 0.744v11.343z"></path>
<path fill="#fff" d="M28.575 12.955l-0.752-0.085c-0.147-0.015-0.302 0.015-0.434 0.093l-6.586 3.804-1.379-1.023c-0.287-0.217-0.674-0.24-0.984-0.062-0.132 0.077-0.24 0.186-0.318 0.318-0.054 0.093-0.054 0.201 0 0.294l1.015 1.759c0.31 0.535 0.883 0.837 1.449 0.837 0.263 0 0.527-0.062 0.759-0.201l1.379-0.798c0.039 0.008 0.077 0.008 0.124 0.008 0.651 0 1.604-0.527 1.844-0.666 0.48-0.279 0.907-0.589 1.193-0.883 0.17-0.178 0.287-0.341 0.356-0.488l2.115-1.216c0.132-0.077 0.232-0.194 0.294-0.325l0.318-0.69c0.062-0.139 0.047-0.294-0.031-0.434-0.085-0.139-0.217-0.225-0.364-0.24zM24.407 16.744c-0.736 0.426-1.294 0.581-1.534 0.589 0.132-0.201 0.542-0.612 1.278-1.038s1.294-0.581 1.534-0.589c-0.132 0.209-0.542 0.612-1.278 1.038zM28.126 14.086c-0.015 0.031-0.031 0.054-0.054 0.062l-1.937 1.116c-0.519-0.434-1.968 0.356-2.278 0.535-0.48 0.279-0.907 0.589-1.193 0.883-0.31 0.318-0.442 0.589-0.403 0.821l-1.201 0.697c-0.473 0.271-1.139 0.070-1.426-0.426l-0.922-1.588c0 0 0 0 0.008 0 0.108-0.062 0.248-0.054 0.356 0.023l1.534 1.139c0.093 0.070 0.217 0.077 0.318 0.015l6.749-3.897c0.023-0.015 0.054-0.023 0.085-0.015l0.628 0.070-0.263 0.566z"></path>
<path fill="#fff" d="M2.991 13.234h12.978c0.225 0 0.403-0.178 0.403-0.403s-0.178-0.403-0.403-0.403h-12.978c-0.225 0-0.403 0.178-0.403 0.403s0.178 0.403 0.403 0.403z"></path>
<path fill="#fff" d="M2.991 16.403h12.978c0.225 0 0.403-0.178 0.403-0.403s-0.178-0.403-0.403-0.403h-12.978c-0.225 0-0.403 0.178-0.403 0.403 0 0.217 0.178 0.403 0.403 0.403z"></path>
<path fill="#fff" d="M3.099 18.526c-0.488 0-0.519 0.473-0.519 0.651 0 0.263 0.031 0.69 0.519 0.69 0.504 0 0.542-0.449 0.542-0.69-0.008-0.279-0.062-0.651-0.542-0.651zM3.099 19.603c-0.178 0-0.209-0.186-0.209-0.403 0-0.232 0.039-0.403 0.209-0.403 0.194 0 0.225 0.147 0.225 0.403 0 0.24-0.046 0.403-0.225 0.403z"></path>
<path fill="#fff" d="M5.672 18.526c-0.488 0-0.519 0.473-0.519 0.651 0 0.263 0.031 0.69 0.519 0.69 0.504 0 0.542-0.449 0.542-0.69 0-0.279-0.062-0.651-0.542-0.651zM5.672 19.603c-0.178 0-0.209-0.186-0.209-0.403 0-0.232 0.039-0.403 0.209-0.403 0.194 0 0.225 0.147 0.225 0.403 0.008 0.24-0.039 0.403-0.225 0.403z"></path>
<path fill="#fff" d="M8.252 18.526c-0.488 0-0.519 0.473-0.519 0.651 0 0.263 0.031 0.69 0.519 0.69 0.504 0 0.542-0.449 0.542-0.69 0-0.279-0.062-0.651-0.542-0.651zM8.252 19.603c-0.178 0-0.209-0.186-0.209-0.403 0-0.232 0.039-0.403 0.209-0.403 0.194 0 0.225 0.147 0.225 0.403 0 0.24-0.039 0.403-0.225 0.403z"></path>
<path fill="#fff" d="M10.832 18.526c-0.488 0-0.519 0.473-0.519 0.651 0 0.263 0.031 0.69 0.519 0.69 0.504 0 0.542-0.449 0.542-0.69 0-0.279-0.062-0.651-0.542-0.651zM10.832 19.603c-0.178 0-0.209-0.186-0.209-0.403 0-0.232 0.039-0.403 0.209-0.403 0.194 0 0.225 0.147 0.225 0.403 0 0.24-0.039 0.403-0.225 0.403z"></path>
<path fill="#fff" d="M13.412 18.526c-0.488 0-0.519 0.473-0.519 0.651 0 0.263 0.031 0.69 0.519 0.69 0.504 0 0.542-0.449 0.542-0.69-0.008-0.279-0.062-0.651-0.542-0.651zM13.412 19.603c-0.178 0-0.209-0.186-0.209-0.403 0-0.232 0.039-0.403 0.209-0.403 0.194 0 0.225 0.147 0.225 0.403 0 0.24-0.046 0.403-0.225 0.403z"></path>
<path fill="#fff" d="M15.992 18.526c-0.488 0-0.519 0.473-0.519 0.651 0 0.263 0.031 0.69 0.519 0.69 0.504 0 0.542-0.449 0.542-0.69-0.008-0.279-0.062-0.651-0.542-0.651zM15.992 19.603c-0.178 0-0.209-0.186-0.209-0.403 0-0.232 0.039-0.403 0.209-0.403 0.194 0 0.225 0.147 0.225 0.403 0 0.24-0.047 0.403-0.225 0.403z"></path>
</svg>
