<!-- Generated by IcoMoon.io -->
<svg version="1.1" xmlns="http://www.w3.org/2000/svg" width="32" height="32" viewBox="0 0 32 32">
<title>tire-chain</title>
<path fill="#fff" d="M6.679 6.47c0.124 0.132 0.364 0.132 0.488 0 0.147-0.139 0.147-0.364 0.008-0.504l-0.837-0.837c-0.070-0.070-0.155-0.101-0.248-0.101-0.085 0-0.178 0.031-0.248 0.101l-0.008 0.008c-0.139 0.139-0.139 0.356 0 0.496l0.845 0.837z"></path>
<path fill="#fff" d="M17.34 6.253v1.193c0 0.287-0.085 0.55-0.24 0.767 1.34 0.194 2.572 0.713 3.611 1.488 0.039-0.279 0.17-0.542 0.372-0.752l0.845-0.837c0.387-0.387 0.953-0.488 1.433-0.302l0.736-0.744c-0.194-0.473-0.085-1.038 0.294-1.418l0.837-0.845c0.287-0.287 0.705-0.411 1.1-0.364-2.557-2.293-5.881-3.742-9.546-3.928 0.341 0.24 0.55 0.635 0.55 1.077v1.193c0 0.542-0.333 1.015-0.806 1.224v1.038c0.48 0.201 0.814 0.666 0.814 1.209z"></path>
<path fill="#fff" d="M1.72 14.621h1.193c0.542 0 1.015 0.333 1.224 0.806h1.038c0.209-0.473 0.674-0.806 1.216-0.806h1.193c0.24 0 0.457 0.062 0.651 0.17 0.232-1.503 0.883-2.851 1.836-3.944-0.294-0.031-0.566-0.17-0.775-0.38l-0.852-0.845c-0.248-0.248-0.387-0.581-0.387-0.938 0-0.17 0.031-0.333 0.093-0.488l-0.744-0.736c-0.155 0.062-0.31 0.093-0.488 0.093-0.356 0-0.69-0.139-0.938-0.395l-0.837-0.837c-0.248-0.248-0.387-0.581-0.387-0.938v-0.062c-2.51 2.65-4.099 6.175-4.246 10.073 0.209-0.457 0.674-0.775 1.209-0.775z"></path>
<path fill="#fff" d="M9.856 21.71c-0.085 0-0.178 0.031-0.248 0.101l-0.845 0.845c-0.070 0.062-0.101 0.155-0.101 0.248s0.031 0.178 0.101 0.248c0.139 0.139 0.364 0.139 0.504 0.008l0.845-0.845c0.139-0.132 0.139-0.356 0-0.496l-0.008-0.008c-0.062-0.070-0.155-0.101-0.248-0.101z"></path>
<path fill="#fff" d="M10.476 9.778c0.139-0.147 0.139-0.364 0.008-0.504l-0.837-0.837c-0.070-0.070-0.163-0.101-0.248-0.101s-0.178 0.031-0.248 0.101l-0.008 0.008c-0.062 0.062-0.101 0.155-0.101 0.248s0.031 0.178 0.101 0.248l0.845 0.845c0.132 0.124 0.349 0.124 0.488-0.008z"></path>
<path fill="#fff" d="M6.385 15.597c-0.194 0-0.349 0.155-0.349 0.356s0.155 0.356 0.349 0.356h1.193c0.194 0 0.356-0.155 0.356-0.356v-0.008c0-0.194-0.155-0.356-0.356-0.356h-1.193v0.008z"></path>
<path fill="#fff" d="M25.925 5.493l-0.845 0.845c-0.132 0.139-0.132 0.356 0.008 0.496 0.139 0.147 0.364 0.139 0.504 0.008l0.845-0.837c0.132-0.139 0.132-0.356 0-0.496l-0.008-0.008c-0.070-0.062-0.155-0.101-0.248-0.101-0.101 0-0.194 0.031-0.256 0.093z"></path>
<path fill="#fff" d="M29.141 15.644c-0.194 0-0.349 0.155-0.349 0.356s0.155 0.356 0.349 0.356h1.193c0.194 0 0.349-0.155 0.349-0.356v-0.008c0-0.194-0.155-0.356-0.349-0.356h-1.193v0.008z"></path>
<path fill="#fff" d="M26.274 7.539c-0.248 0.248-0.581 0.387-0.938 0.387-0.201 0-0.395-0.046-0.566-0.132l-0.69 0.69c0.085 0.178 0.132 0.372 0.132 0.581 0 0.356-0.139 0.69-0.395 0.938l-0.845 0.845c-0.201 0.201-0.457 0.325-0.728 0.372 0.806 1.038 1.348 2.286 1.542 3.649 0.201-0.124 0.434-0.194 0.69-0.194h1.193c0.55 0 1.023 0.333 1.224 0.806h1.038c0.201-0.473 0.674-0.806 1.216-0.806h1.193c0.496 0 0.93 0.271 1.154 0.682-0.155-3.742-1.635-7.144-3.998-9.747 0.008 0.046 0.008 0.101 0.008 0.155 0 0.356-0.139 0.69-0.387 0.938l-0.845 0.837z"></path>
<path fill="#fff" d="M24.469 15.644c-0.194 0-0.349 0.155-0.349 0.356s0.155 0.356 0.349 0.356h1.193c0.194 0 0.356-0.155 0.356-0.356v-0.008c0-0.194-0.155-0.356-0.356-0.356h-1.193v0.008z"></path>
<path fill="#fff" d="M22.989 22.787c0.139 0.132 0.356 0.132 0.496 0 0.139-0.147 0.139-0.364 0.008-0.504l-0.837-0.837c-0.070-0.070-0.163-0.101-0.248-0.101s-0.178 0.031-0.248 0.101l-0.008 0.008c-0.132 0.139-0.132 0.356 0 0.496l0.837 0.837z"></path>
<path fill="#fff" d="M23.121 9.298c0.139-0.139 0.139-0.356 0-0.496l-0.008-0.008c-0.070-0.070-0.163-0.101-0.248-0.101s-0.178 0.031-0.248 0.101l-0.845 0.845c-0.139 0.139-0.139 0.356 0 0.496s0.364 0.139 0.504 0.008l0.845-0.845z"></path>
<path fill="#fff" d="M1.72 15.597c-0.194 0-0.356 0.155-0.356 0.356s0.155 0.356 0.356 0.356h1.193c0.194 0 0.349-0.155 0.349-0.356v-0.008c0-0.194-0.155-0.356-0.349-0.356h-1.193v0.008z"></path>
<path fill="#fff" d="M16.008 1.24c-0.201 0-0.356 0.155-0.356 0.356v1.193c0 0.194 0.155 0.349 0.349 0.349h0.008c0.194 0 0.356-0.155 0.356-0.349v-1.201c-0.008-0.194-0.17-0.349-0.356-0.349z"></path>
<path fill="#fff" d="M16.008 5.912c-0.201 0-0.356 0.155-0.356 0.349v1.193c0 0.194 0.155 0.356 0.349 0.356h0.008c0.194 0 0.356-0.155 0.356-0.356v-1.201c-0.008-0.186-0.17-0.341-0.356-0.341z"></path>
<path fill="#fff" d="M25.6 26.785l-0.837-0.845c-0.256-0.248-0.395-0.589-0.395-0.938 0-0.17 0.031-0.341 0.093-0.488l-0.744-0.736c-0.155 0.062-0.318 0.093-0.488 0.093-0.341 0-0.674-0.124-0.938-0.387l-0.845-0.845c-0.178-0.178-0.302-0.403-0.356-0.651-1.116 0.953-2.503 1.596-4.021 1.805 0.163 0.217 0.256 0.488 0.256 0.783v1.193c0 0.55-0.333 1.023-0.806 1.224v1.038c0.473 0.209 0.806 0.674 0.806 1.224v1.193c0 0.434-0.209 0.806-0.519 1.046 3.866-0.194 7.353-1.813 9.964-4.331-0.077 0.015-0.155 0.023-0.24 0.023-0.341-0.015-0.674-0.155-0.93-0.403z"></path>
<path fill="#fff" d="M30.334 17.333h-1.193c-0.573 0-1.069-0.372-1.247-0.891h-0.976c-0.178 0.511-0.674 0.891-1.255 0.891h-1.193c-0.256 0-0.488-0.070-0.69-0.194-0.17 1.185-0.604 2.286-1.247 3.239 0.302 0.031 0.597 0.155 0.806 0.364l0.845 0.845c0.248 0.248 0.387 0.581 0.387 0.938 0 0.201-0.047 0.395-0.132 0.573l0.69 0.69c0.496-0.232 1.108-0.155 1.519 0.263l0.837 0.845c0.294 0.294 0.418 0.697 0.38 1.085 2.146-2.541 3.487-5.788 3.626-9.329-0.225 0.411-0.651 0.682-1.154 0.682z"></path>
<path fill="#fff" d="M25.949 24.74c-0.070-0.070-0.155-0.101-0.248-0.101-0.085 0-0.178 0.031-0.248 0.101l-0.008 0.008c-0.139 0.132-0.139 0.356 0 0.488l0.845 0.845c0.132 0.132 0.364 0.132 0.496 0 0.139-0.139 0.139-0.364 0.008-0.504l-0.845-0.837z"></path>
<path fill="#fff" d="M5.966 26.46l0.845-0.845c0.139-0.139 0.139-0.356 0-0.496l-0.008-0.008c-0.070-0.070-0.155-0.101-0.248-0.101-0.085 0-0.178 0.031-0.248 0.101l-0.845 0.845c-0.139 0.132-0.139 0.356 0 0.496 0.147 0.147 0.372 0.139 0.504 0.008z"></path>
<path fill="#fff" d="M14.667 25.763v-1.193c0-0.287 0.101-0.566 0.263-0.783-1.395-0.194-2.673-0.744-3.742-1.565-0.031 0.294-0.17 0.566-0.38 0.79l-0.845 0.845c-0.256 0.256-0.597 0.387-0.938 0.387-0.194 0-0.395-0.047-0.573-0.132l-0.69 0.69c0.085 0.178 0.132 0.364 0.132 0.566 0 0.356-0.139 0.69-0.387 0.938l-0.845 0.845c-0.256 0.248-0.589 0.395-0.938 0.395-0.023 0-0.046 0-0.070-0.008 2.557 2.301 5.881 3.766 9.546 3.952-0.318-0.24-0.527-0.62-0.527-1.054v-1.193c0-0.581 0.372-1.069 0.891-1.247v-0.976c-0.527-0.178-0.899-0.674-0.899-1.255z"></path>
<path fill="#fff" d="M7.035 24.128l0.744-0.744c-0.062-0.155-0.093-0.318-0.093-0.488 0-0.356 0.139-0.69 0.387-0.938l0.845-0.837c0.225-0.225 0.511-0.341 0.814-0.372-0.783-1.038-1.325-2.278-1.511-3.626-0.186 0.108-0.411 0.17-0.635 0.17h-1.201c-0.573 0-1.069-0.372-1.247-0.891h-0.976c-0.178 0.511-0.674 0.891-1.247 0.891h-1.193c-0.542 0-1.007-0.325-1.216-0.783 0.116 3.742 1.565 7.152 3.89 9.77-0.023-0.364 0.101-0.736 0.38-1.015l0.845-0.845c0.364-0.372 0.938-0.465 1.418-0.294z"></path>
<path fill="#fff" d="M14.667 2.782v-1.193c0-0.442 0.217-0.837 0.55-1.077-3.448 0.163-6.601 1.464-9.096 3.533 0.325 0.008 0.659 0.139 0.907 0.387l0.845 0.845c0.411 0.411 0.496 1.023 0.256 1.519l0.69 0.69c0.178-0.085 0.38-0.132 0.581-0.132 0.341 0 0.674 0.132 0.938 0.387l0.845 0.845c0.256 0.256 0.38 0.589 0.387 0.93 0.976-0.674 2.115-1.131 3.339-1.302-0.155-0.217-0.24-0.473-0.24-0.759v-1.201c0-0.573 0.372-1.069 0.891-1.247v-0.976c-0.519-0.178-0.891-0.674-0.891-1.247z"></path>
<path fill="#fff" d="M16.008 28.893c-0.201 0-0.356 0.155-0.356 0.349v1.193c0 0.194 0.155 0.349 0.349 0.349h0.008c0.194 0 0.356-0.155 0.356-0.349v-1.193c-0.008-0.186-0.17-0.349-0.356-0.349z"></path>
<path fill="#fff" d="M16.008 24.221c-0.201 0-0.356 0.155-0.356 0.349v1.193c0 0.194 0.155 0.356 0.349 0.356h0.008c0.194 0 0.356-0.155 0.356-0.356v-1.193c-0.008-0.186-0.17-0.349-0.356-0.349z"></path>
</svg>
