<!-- Generated by IcoMoon.io -->
<svg version="1.1" xmlns="http://www.w3.org/2000/svg" width="32" height="32" viewBox="0 0 32 32">
<title>toilets</title>
<path fill="#fff" d="M23.508 6.075c1.534 0 2.789-1.247 2.789-2.789s-1.247-2.789-2.789-2.789c-1.534 0-2.789 1.247-2.789 2.789s1.255 2.789 2.789 2.789zM23.508 1.278c1.108 0 2.015 0.907 2.015 2.015s-0.907 2.015-2.015 2.015-2.015-0.907-2.015-2.015 0.907-2.015 2.015-2.015z"></path>
<path fill="#fff" d="M29.133 16.38v-6.447c0-0.976-0.279-1.743-0.837-2.286-0.821-0.798-1.929-0.79-1.968-0.783h-5.633c-0.039 0-1.154-0.016-1.976 0.783-0.55 0.542-0.837 1.309-0.837 2.286v6.431c0 0.031-0.023 0.829 0.511 1.387 0.333 0.349 0.798 0.527 1.379 0.527h0.852v10.971c0 0.039-0.054 0.992 0.566 1.65 0.372 0.395 0.891 0.597 1.55 0.597h1.519c0.651 0 1.17-0.201 1.55-0.597 0.62-0.659 0.573-1.612 0.566-1.627v-10.995h0.845c0.581 0 1.046-0.178 1.379-0.527 0.558-0.558 0.535-1.348 0.535-1.371zM28.056 17.216c-0.186 0.186-0.457 0.287-0.821 0.287h-1.232c-0.217 0-0.387 0.17-0.387 0.387v11.398c0 0.008 0.031 0.666-0.364 1.077-0.217 0.232-0.55 0.349-0.976 0.349h-1.519c-0.426 0-0.759-0.116-0.976-0.349-0.387-0.411-0.364-1.069-0.356-1.1v-11.374c0-0.217-0.17-0.387-0.387-0.387h-1.24c-0.356 0-0.635-0.093-0.821-0.287-0.31-0.318-0.302-0.821-0.302-0.837v-6.447c0-0.752 0.201-1.333 0.597-1.72 0.566-0.558 1.371-0.566 1.426-0.566v0h5.648c0.039 0 0.852 0.008 1.418 0.566 0.395 0.387 0.597 0.969 0.597 1.72v6.454c0 0.008 0.008 0.511-0.302 0.829z"></path>
<path fill="#fff" d="M8.422 6.075c1.519 0 2.758-1.24 2.758-2.758s-1.24-2.758-2.758-2.758-2.758 1.24-2.758 2.758 1.24 2.758 2.758 2.758zM8.422 1.34c1.092 0 1.984 0.891 1.984 1.984s-0.891 1.984-1.984 1.984-1.984-0.891-1.984-1.991 0.891-1.976 1.984-1.976z"></path>
<path fill="#fff" d="M13.978 16.24v-6.361c0-0.961-0.279-1.72-0.829-2.255-0.806-0.79-1.906-0.783-1.945-0.775h-5.555c-0.039 0-1.147-0.016-1.953 0.775-0.55 0.535-0.829 1.294-0.829 2.255v6.354c0 0.031-0.023 0.821 0.511 1.371 0.24 0.248 0.542 0.411 0.907 0.48l-1.185 6.222c-0.023 0.116 0.008 0.232 0.085 0.318s0.186 0.139 0.302 0.139h2.092v4.502c0 0.039-0.054 0.984 0.558 1.635 0.372 0.395 0.883 0.589 1.534 0.589h1.503c0.643 0 1.162-0.201 1.534-0.589 0.612-0.651 0.566-1.596 0.566-1.612v-4.525h2.107c0.116 0 0.225-0.054 0.302-0.139 0.070-0.085 0.101-0.209 0.085-0.318l-1.193-6.23c0.364-0.070 0.666-0.232 0.907-0.48 0.519-0.55 0.496-1.333 0.496-1.356zM12.908 17.069c-0.178 0.186-0.449 0.279-0.806 0.279-0.116 0-0.225 0.054-0.302 0.139-0.070 0.085-0.101 0.209-0.085 0.318l1.185 6.183h-2.022c-0.217 0-0.387 0.17-0.387 0.387v4.936c0 0.008 0.031 0.651-0.349 1.061-0.217 0.232-0.542 0.349-0.969 0.349h-1.503c-0.418 0-0.744-0.116-0.961-0.341-0.387-0.403-0.356-1.054-0.356-1.085v-4.912c0-0.217-0.17-0.387-0.387-0.387h-2.022l1.185-6.183c0.023-0.116-0.008-0.232-0.085-0.318s-0.186-0.139-0.302-0.139c-0.356 0-0.628-0.093-0.806-0.279-0.302-0.31-0.294-0.806-0.294-0.821v-6.361c0-0.744 0.194-1.317 0.589-1.697 0.573-0.566 1.395-0.566 1.41-0.558h5.579c0 0 0.829 0 1.402 0.558 0.387 0.387 0.589 0.953 0.589 1.697v6.377c-0.008-0.015 0 0.48-0.302 0.798z"></path>
</svg>
