<!-- Generated by IcoMoon.io -->
<svg version="1.1" xmlns="http://www.w3.org/2000/svg" width="32" height="32" viewBox="0 0 32 32">
<title>tools</title>
<path fill="#fff" d="M29.079 25.096l-9.143-8.198 1.557-1.627c0.201-0.194 0.465-0.271 0.736-0.186 2.51 0.659 5.215-0.085 7.066-1.929 2.146-2.146 2.774-5.323 1.588-8.136-0.217-0.434-0.589-0.728-1.030-0.821-0.488-0.101-0.945 0.046-1.302 0.395l-3.355 3.347-1.178-1.185 3.355-3.347c0.356-0.356 0.496-0.814 0.395-1.294-0.101-0.511-0.434-0.907-0.852-1.054-3.154-1.286-6.764-0.294-8.794 2.417-1.309 1.798-1.759 4.138-1.224 6.237 0.062 0.302-0.008 0.589-0.178 0.759l-3.518 3.37-8.12-8.004 0.783-0.798c0.163-0.163 0.24-0.395 0.217-0.628s-0.155-0.434-0.349-0.566l-2.689-1.712c-0.302-0.194-0.705-0.147-0.961 0.108l-1.348 1.364c-0.256 0.256-0.294 0.659-0.093 0.961l1.751 2.665c0.132 0.194 0.333 0.318 0.566 0.341 0.023 0 0.054 0 0.077 0 0.201 0 0.403-0.077 0.55-0.232l0.783-0.798 8.097 7.988-10.22 9.809c-1.046 0.899-1.689 2.224-1.728 3.525-0.039 1.023 0.31 1.96 0.984 2.634 0.635 0.635 1.495 0.992 2.379 0.992 0.039 0 0.085 0 0.124 0 1.302-0.039 2.572-0.62 3.487-1.604l8.19-8.546 8.252 8.972c0.69 0.744 1.619 1.17 2.634 1.185 0.023 0 0.047 0 0.070 0 0.984 0 1.914-0.387 2.611-1.093 0.713-0.721 1.085-1.674 1.054-2.689-0.039-1.023-0.473-1.953-1.224-2.627zM3.076 6.431l-1.472-2.247 1.069-1.077 2.262 1.441-1.86 1.883zM6.749 29.187c-0.721 0.775-1.759 1.255-2.774 1.286-0.651 0.031-1.286-0.225-1.751-0.69v0c-0.473-0.473-0.713-1.139-0.69-1.883 0.031-1.030 0.542-2.069 1.395-2.805l14.505-13.893c0.418-0.418 0.589-1.046 0.457-1.712-0.473-1.836-0.077-3.859 1.046-5.408 1.232-1.65 3.154-2.557 5.145-2.557 0.829 0 1.674 0.163 2.487 0.488 0.147 0.046 0.194 0.225 0.209 0.294 0.031 0.147-0.008 0.271-0.116 0.38l-3.587 3.58c-0.263 0.263-0.263 0.713 0 0.976l1.643 1.65c0.263 0.263 0.713 0.263 0.976 0l3.58-3.58c0.108-0.108 0.232-0.147 0.38-0.116 0.17 0.031 0.271 0.17 0.31 0.248 1.015 2.394 0.473 5.137-1.379 6.989-1.596 1.596-3.928 2.231-6.082 1.674-0.62-0.178-1.263-0.008-1.736 0.457l-14.016 14.621zM28.513 29.691c-0.511 0.519-1.216 0.798-1.929 0.79-0.728-0.015-1.41-0.318-1.906-0.852l-8.298-9.027 1.069-1.116 1.627 1.612c0.101 0.101 0.225 0.147 0.356 0.147s0.263-0.054 0.364-0.155c0.194-0.201 0.194-0.519-0.008-0.721l-1.627-1.619 1.069-1.116 9.166 8.221c0.542 0.488 0.86 1.162 0.883 1.891 0.015 0.736-0.256 1.426-0.767 1.945z"></path>
<path fill="#fff" d="M4.703 25.894c-0.48-0.139-0.984-0.085-1.418 0.155s-0.752 0.635-0.899 1.116c-0.139 0.48-0.085 0.984 0.155 1.418s0.635 0.752 1.116 0.899c0.17 0.054 0.349 0.077 0.527 0.077 0.31 0 0.612-0.077 0.891-0.232 0.434-0.24 0.752-0.635 0.899-1.116 0.279-0.992-0.287-2.030-1.271-2.317zM4.99 27.924c-0.062 0.217-0.209 0.395-0.403 0.504-0.201 0.108-0.426 0.132-0.643 0.070s-0.395-0.209-0.504-0.403-0.132-0.426-0.070-0.643 0.209-0.395 0.403-0.504c0.124-0.070 0.263-0.101 0.403-0.101 0.077 0 0.163 0.008 0.24 0.031 0.449 0.124 0.705 0.597 0.573 1.046z"></path>
</svg>
