<!-- Generated by IcoMoon.io -->
<svg version="1.1" xmlns="http://www.w3.org/2000/svg" width="32" height="32" viewBox="0 0 32 32">
<title>traba</title>
<path fill="#fff" d="M12.459 9.267c0.217 0.139 0.465 0.209 0.713 0.209 0.434 0 0.86-0.217 1.116-0.604l0.015-0.031c0.201-0.318 0.62-0.411 0.938-0.201 0.318 0.201 0.411 0.62 0.209 0.938-0.023 0.039-0.039 0.077-0.046 0.116-0.023 0.124 0.031 0.256 0.147 0.325l1.364 0.876-0.604 0.945c-0.271 0.426-0.364 0.93-0.256 1.426 0.039 0.17 0.108 0.333 0.186 0.48l-1.185 1.852c-0.093 0.147-0.054 0.349 0.101 0.449 0.054 0.031 0.116 0.054 0.17 0.054 0.108 0 0.209-0.054 0.271-0.147l1.069-1.666c0.070 0.062 0.139 0.116 0.217 0.17l0.713 0.457c0.062 0.039 0.124 0.070 0.194 0.108l-2.999 4.657c-0.093 0.147-0.054 0.349 0.101 0.449 0.054 0.031 0.116 0.054 0.17 0.054 0.108 0 0.209-0.054 0.271-0.147l3.099-4.843c0.054 0.008 0.116 0.015 0.17 0.015 0.132 0 0.271-0.015 0.411-0.046 0.496-0.108 0.914-0.403 1.185-0.829l0.604-0.945 1.395 0.891c0.031 0.023 0.070 0.031 0.108 0.039 0.008 0 0.023 0 0.031 0.008 0.015 0 0.023 0.008 0.039 0.008 0.023 0 0.047 0 0.070-0.008 0.008 0 0.008 0 0.008-0.008 0.039-0.008 0.070-0.023 0.101-0.046s0.062-0.054 0.085-0.093c0.201-0.318 0.62-0.411 0.938-0.209 0.155 0.101 0.256 0.248 0.294 0.426s0.008 0.356-0.093 0.511v0l-0.015 0.023c-0.395 0.612-0.217 1.433 0.403 1.821 0.217 0.139 0.465 0.209 0.713 0.209 0.434 0 0.86-0.217 1.116-0.604l3.773-5.889c0.395-0.612 0.217-1.433-0.403-1.821-0.294-0.186-0.651-0.256-0.992-0.178-0.349 0.077-0.643 0.279-0.829 0.573l-0.039 0.062c-0.101 0.155-0.248 0.256-0.426 0.294s-0.356 0.008-0.511-0.093c-0.155-0.101-0.256-0.248-0.294-0.426s-0.008-0.356 0.093-0.511v0l0.015-0.023c0.093-0.147 0.054-0.349-0.101-0.449l-6.663-4.269c-0.070-0.046-0.163-0.062-0.24-0.046-0.085 0.015-0.155 0.070-0.201 0.139l-0.015 0.023c-0.101 0.155-0.248 0.256-0.426 0.294s-0.356 0.008-0.511-0.093-0.256-0.248-0.294-0.426-0.008-0.356 0.093-0.511v0l0.039-0.062c0.186-0.294 0.256-0.651 0.178-0.992-0.077-0.349-0.279-0.643-0.573-0.829s-0.651-0.256-0.992-0.178c-0.349 0.077-0.643 0.279-0.829 0.573l-3.773 5.889c-0.403 0.643-0.225 1.464 0.387 1.86zM19.657 13.978c-0.178 0.279-0.457 0.473-0.783 0.542s-0.659 0.008-0.938-0.17l-0.713-0.457c-0.279-0.178-0.473-0.457-0.542-0.783s-0.008-0.659 0.17-0.938l0.604-0.945 2.813 1.798-0.612 0.953zM28.513 9.104c0.047-0.008 0.101-0.015 0.147-0.015 0.124 0 0.248 0.039 0.364 0.108 0.31 0.201 0.403 0.62 0.201 0.93l-3.773 5.889c-0.201 0.31-0.62 0.403-0.93 0.201s-0.403-0.62-0.201-0.93l0.015-0.023 3.758-5.865c0.093-0.155 0.24-0.256 0.418-0.294zM26.22 9.863c0.201 0.132 0.434 0.201 0.674 0.209l-2.495 3.89c-0.108-0.209-0.263-0.395-0.465-0.527-0.209-0.132-0.442-0.194-0.674-0.201l2.495-3.897c0.101 0.209 0.263 0.395 0.465 0.527zM22.276 13.559l-6.113-3.913 3.386-5.284 6.113 3.921-3.386 5.277zM17.875 4.517c0.201 0.132 0.434 0.201 0.674 0.209l-2.495 3.89c-0.101-0.209-0.256-0.395-0.465-0.527s-0.442-0.194-0.674-0.201l2.495-3.897c0.101 0.209 0.263 0.395 0.465 0.527zM12.606 7.787l3.773-5.889c0.093-0.147 0.248-0.256 0.426-0.294 0.047-0.008 0.101-0.016 0.147-0.016 0.124 0 0.248 0.039 0.364 0.108 0.155 0.093 0.256 0.248 0.294 0.426s0.008 0.356-0.093 0.511l-3.773 5.889c-0.201 0.31-0.62 0.403-0.93 0.201-0.318-0.209-0.411-0.628-0.209-0.938z"></path>
<path fill="#fff" d="M12.498 23.857c-0.155-0.093-0.349-0.054-0.449 0.101l-2.867 4.478-1.131-0.721 2.572-4.014c0.093-0.147 0.054-0.349-0.101-0.449-0.155-0.093-0.349-0.054-0.449 0.101l-2.596 4.052c-0.217-0.070-0.449-0.085-0.674-0.031-0.349 0.077-0.643 0.279-0.829 0.581-0.194 0.294-0.256 0.651-0.178 1s0.279 0.643 0.581 0.829l1.674 1.069c0.217 0.139 0.457 0.209 0.713 0.209 0.093 0 0.194-0.008 0.287-0.031 0.349-0.077 0.643-0.279 0.829-0.581s0.256-0.651 0.178-1c-0.054-0.248-0.178-0.465-0.341-0.635l2.89-4.517c0.085-0.147 0.039-0.349-0.108-0.442zM9.329 30.102c-0.101 0.155-0.248 0.256-0.426 0.294s-0.356 0.008-0.511-0.093l-1.674-1.069c-0.155-0.101-0.256-0.248-0.294-0.426s-0.008-0.356 0.093-0.511c0.101-0.155 0.248-0.256 0.426-0.294s0.356-0.008 0.511 0.093l1.674 1.069c0.155 0.101 0.256 0.248 0.294 0.426s0 0.364-0.093 0.511z"></path>
<path fill="#fff" d="M18.456 20.471c-0.101-0.108-0.194-0.194-0.356-0.341-0.31-0.279-0.728-0.271-0.992-0.186-0.186 0.062-2.386 0.891-2.479 0.93-0.17 0.070-0.426 0.124-0.527 0.093l-0.845-0.271c-0.023-0.008-0.116-0.047-0.139-0.101-0.008-0.031 0.031-0.132 0.070-0.178 0 0 1.86-2.2 2.030-2.41 0.457-0.55 0.194-0.938-0.008-1.108-0.124-0.116-0.24-0.201-0.364-0.302l-0.186-0.147c-0.387-0.31-0.914-0.132-0.969-0.116-0.062 0.023-6.090 2.115-6.385 2.216-0.147 0.054-0.356 0-0.426-0.031-0.008 0-0.008 0-0.016-0.008l-4.029-1.294c-0.217-0.070-0.442-0.062-0.651 0.008l-1.232 0.411c-0.194 0.070-0.349 0.225-0.411 0.426-0.070 0.209-0.039 0.418 0.093 0.597l0.775 1.030c0.132 0.178 0.318 0.318 0.527 0.387l12.513 4.006c0.132 0.039 0.263 0.062 0.387 0.062 0.232 0 0.442-0.070 0.604-0.209 0.217-0.178 2.704-2.293 2.89-2.464 0.465-0.426 0.318-0.783 0.124-1zM17.891 21.005c-0.17 0.163-2.658 2.27-2.859 2.441-0.124 0.101-0.325 0.047-0.387 0.031l-12.513-4.006c-0.085-0.031-0.155-0.077-0.209-0.155l-0.775-1.030 0.008-0.039 1.232-0.411c0.046-0.015 0.093-0.023 0.132-0.023s0.077 0.008 0.116 0.015l4.014 1.286c0.077 0.031 0.473 0.155 0.852 0.031 0.294-0.101 6.137-2.131 6.392-2.216 0.070-0.023 0.271-0.062 0.356 0.008 0.070 0.054 0.132 0.108 0.194 0.155 0.116 0.093 0.217 0.17 0.333 0.279 0.031 0.031 0.046 0.047 0.046 0.047 0 0.008-0.015 0.062-0.108 0.178-0.17 0.209-2.022 2.402-2.038 2.417-0.031 0.047-0.325 0.442-0.163 0.829 0.155 0.364 0.527 0.473 0.55 0.473l0.829 0.263c0.372 0.116 0.868-0.070 0.953-0.101 0.79-0.294 2.317-0.868 2.464-0.922 0.085-0.031 0.248-0.039 0.349 0.054 0.147 0.132 0.232 0.209 0.31 0.294 0 0 0 0 0.008 0.008-0.008 0.015-0.039 0.047-0.085 0.093z"></path>
<path fill="#fff" d="M27.7 17.643c-0.139-0.108-0.349-0.077-0.449 0.062-0.108 0.139-0.077 0.349 0.062 0.449 2.634 1.968 3.921 3.967 3.432 5.354-0.821 2.34-6.214 2.735-12.63 0.961l1.813-1.007c0.155-0.085 0.209-0.287 0.124-0.442s-0.287-0.209-0.442-0.124l-2.495 1.379c-0.077 0.039-0.132 0.108-0.155 0.194s-0.015 0.17 0.031 0.248l1.387 2.456c0.062 0.108 0.17 0.163 0.279 0.163 0.054 0 0.108-0.015 0.155-0.039 0.155-0.085 0.209-0.287 0.124-0.442l-1-1.774c2.712 0.744 5.23 1.116 7.338 1.116 3.223 0 5.501-0.852 6.067-2.487 0.604-1.674-0.728-3.89-3.642-6.067z"></path>
<path fill="#fff" d="M3.618 14.365c0.039 0.015 0.070 0.015 0.108 0.015 0.132 0 0.256-0.085 0.302-0.217 0.504-1.441 2.89-2.2 6.385-2.030 0.178 0.015 0.325-0.132 0.341-0.31 0.008-0.178-0.132-0.333-0.31-0.341-3.851-0.194-6.408 0.705-7.020 2.464-0.062 0.17 0.023 0.356 0.194 0.418z"></path>
</svg>
