<!-- Generated by IcoMoon.io -->
<svg version="1.1" xmlns="http://www.w3.org/2000/svg" width="32" height="32" viewBox="0 0 32 32">
<title>trade-fair</title>
<path fill="#fff" d="M12.63 8.5c-1.17 0-2.115 0.953-2.115 2.115 0 1.17 0.953 2.115 2.115 2.115 1.17 0 2.115-0.953 2.115-2.115s-0.945-2.115-2.115-2.115zM12.63 11.979c-0.752 0-1.364-0.612-1.364-1.364s0.612-1.364 1.364-1.364c0.752 0 1.364 0.612 1.364 1.364 0 0.759-0.612 1.364-1.364 1.364z"></path>
<path fill="#fff" d="M15.109 14.768h-2.572c-0.31 0-0.566 0.256-0.566 0.566v1.395c0 0.31 0.256 0.566 0.566 0.566h2.572c0.31 0 0.566-0.256 0.566-0.566v-1.395c0-0.318-0.256-0.566-0.566-0.566zM14.915 16.535h-2.185v-1.007h2.185v1.007z"></path>
<path fill="#fff" d="M28.444 4.641v-1.736c0-1.325-1.077-2.402-2.402-2.402h-20.083c-1.325 0-2.402 1.077-2.402 2.402v1.736c0 1.24 0.945 2.27 2.162 2.386v12.854h-1.782c-0.209 0-0.38 0.17-0.38 0.38v10.847c0 0.209 0.17 0.38 0.38 0.38h24.12c0.209 0 0.38-0.17 0.38-0.38v-10.847c0-0.209-0.17-0.38-0.38-0.38h-1.782v-12.847c1.216-0.124 2.169-1.147 2.169-2.394zM4.316 4.641v-1.736c0-0.907 0.736-1.643 1.643-1.643h20.076c0.907 0 1.643 0.736 1.643 1.643v1.736c0 0.907-0.736 1.643-1.643 1.643h-20.076c-0.907 0-1.643-0.736-1.643-1.643zM27.684 30.737h-23.369v-10.088h4.533c0.008 0 0.015 0 0.015 0h18.82v10.088zM16.047 19.89h-6.826v-4.447c0-0.519 0.132-0.914 0.403-1.178 0.387-0.387 0.93-0.395 0.969-0.387h4.099c0.023 0 0.573 0.008 0.961 0.387 0.263 0.263 0.403 0.659 0.403 1.178l-0.008 4.447zM16.806 19.89v-4.447c0-0.736-0.217-1.309-0.635-1.728-0.628-0.612-1.464-0.597-1.495-0.597h-4.083c-0.031-0.008-0.883-0.008-1.503 0.597-0.418 0.411-0.635 0.992-0.635 1.728v4.447h-1.976v-12.847h19.045v12.839l-8.717 0.008z"></path>
</svg>
