<!-- Generated by IcoMoon.io -->
<svg version="1.1" xmlns="http://www.w3.org/2000/svg" width="32" height="32" viewBox="0 0 32 32">
<title>traffic-aquisition</title>
<path fill="#fff" d="M3.355 10.816c0.728 0 1.387-0.279 1.898-0.728l5.61 3.634-3.022 0.542c-0.209 0.039-0.349 0.24-0.31 0.449 0.031 0.186 0.194 0.318 0.38 0.318 0.023 0 0.046 0 0.070-0.008l3.913-0.705c0.209-0.039 0.349-0.24 0.31-0.449l-0.705-3.913c-0.039-0.209-0.24-0.349-0.449-0.31s-0.349 0.24-0.31 0.449l0.535 2.96-5.501-3.564c0.287-0.442 0.449-0.969 0.449-1.534 0-1.573-1.278-2.851-2.851-2.851s-2.867 1.278-2.867 2.851 1.278 2.859 2.851 2.859zM3.355 5.881c1.147 0 2.076 0.93 2.076 2.076s-0.93 2.076-2.076 2.076-2.076-0.93-2.076-2.076 0.938-2.076 2.076-2.076z"></path>
<path fill="#fff" d="M28.645 21.943c-0.86 0-1.627 0.387-2.154 0.984l-6.067-3.928 3.006-0.542c0.209-0.039 0.349-0.24 0.31-0.449s-0.24-0.349-0.449-0.31l-3.913 0.705c-0.209 0.039-0.349 0.24-0.31 0.449l0.705 3.913c0.031 0.186 0.194 0.318 0.38 0.318 0.023 0 0.047 0 0.070-0.008 0.209-0.039 0.349-0.24 0.31-0.449l-0.535-2.975 6.067 3.928c-0.178 0.372-0.279 0.783-0.279 1.216 0 1.573 1.278 2.851 2.851 2.851s2.851-1.278 2.851-2.851c0.008-1.573-1.271-2.851-2.844-2.851zM28.645 26.871c-1.147 0-2.076-0.93-2.076-2.076s0.93-2.076 2.076-2.076 2.076 0.93 2.076 2.076-0.938 2.076-2.076 2.076z"></path>
<path fill="#fff" d="M15.853 12.986c-1.573 0-2.851 1.278-2.851 2.851s1.278 2.851 2.851 2.851 2.851-1.278 2.851-2.851-1.278-2.851-2.851-2.851z"></path>
<path fill="#fff" d="M19.231 13.552l3.959-0.349c0.217-0.015 0.372-0.209 0.356-0.418-0.015-0.217-0.201-0.364-0.418-0.356l-3.107 0.271 6.989-7.004c0.465 0.325 1.030 0.527 1.643 0.527 1.573 0 2.851-1.278 2.851-2.851s-1.286-2.859-2.859-2.859-2.851 1.278-2.851 2.851c0 0.682 0.24 1.309 0.643 1.805l-6.935 6.95-0.263-2.952c-0.015-0.217-0.201-0.364-0.418-0.356-0.217 0.015-0.372 0.209-0.356 0.418l0.349 3.959c0.008 0.101 0.062 0.194 0.139 0.263 0.070 0.062 0.155 0.093 0.248 0.093 0.008 0.008 0.023 0.008 0.031 0.008zM28.645 1.286c1.147 0 2.076 0.93 2.076 2.076s-0.93 2.076-2.076 2.076-2.076-0.93-2.076-2.076 0.93-2.076 2.076-2.076z"></path>
<path fill="#fff" d="M12.939 18.782l-3.967 0.186c-0.217 0.008-0.38 0.194-0.372 0.403 0.008 0.217 0.186 0.372 0.403 0.372l3.022-0.139-6.834 6.849c-0.496-0.418-1.139-0.674-1.836-0.674-1.573 0-2.851 1.278-2.851 2.851s1.278 2.851 2.851 2.851 2.851-1.278 2.851-2.851c0-0.597-0.186-1.147-0.496-1.604l6.896-6.911 0.139 3.045c0.008 0.209 0.178 0.372 0.387 0.372 0.008 0 0.015 0 0.015 0 0.217-0.008 0.38-0.194 0.372-0.403l-0.186-3.967c0-0.217-0.17-0.38-0.395-0.38zM3.355 30.714c-1.147 0-2.076-0.93-2.076-2.076s0.93-2.076 2.076-2.076 2.076 0.93 2.076 2.076-0.93 2.076-2.076 2.076z"></path>
</svg>
