<!-- Generated by IcoMoon.io -->
<svg version="1.1" xmlns="http://www.w3.org/2000/svg" width="32" height="32" viewBox="0 0 32 32">
<title>transportation</title>
<path fill="#fff" d="M26.662 10.855c0.256 0 0.496-0.101 0.674-0.279 0.178-0.186 0.279-0.426 0.271-0.674v-1.898c0-0.031-0.008-0.070-0.015-0.101l-1.085-4.447c-0.070-0.465-0.473-0.814-0.938-0.814h-1.612c-0.527 0-0.953 0.426-0.953 0.953v6.323c0 0.527 0.426 0.953 0.953 0.953h2.704v-0.015zM23.864 9.902v-6.323c0-0.054 0.047-0.093 0.093-0.093h1.612c0.047 0 0.085 0.039 0.101 0.124l1.077 4.44v1.86c0 0.031-0.015 0.054-0.031 0.070s-0.039 0.031-0.070 0.031h-2.696c-0.047-0.008-0.085-0.054-0.085-0.108z"></path>
<path fill="#fff" d="M20.881 7.74c0.411 0 0.752-0.333 0.752-0.752v-3.611c0-0.411-0.333-0.752-0.752-0.752h-2.1c-0.411 0-0.752 0.333-0.752 0.752v3.611c0 0.411 0.333 0.752 0.752 0.752 0 0 2.1 0 2.1 0zM18.882 3.487h1.891v3.401h-1.891v-3.401z"></path>
<path fill="#fff" d="M13.885 2.634c-0.411 0-0.752 0.333-0.752 0.752v3.611c0 0.411 0.333 0.752 0.752 0.752h2.1c0.411 0 0.752-0.333 0.752-0.752v-3.618c0-0.411-0.333-0.752-0.752-0.752h-2.1v0.008zM15.876 6.888h-1.891v-3.401h1.891v3.401z"></path>
<path fill="#fff" d="M8.98 2.634c-0.411 0-0.752 0.333-0.752 0.752v3.611c0 0.411 0.333 0.752 0.752 0.752h2.1c0.411 0 0.752-0.333 0.752-0.752v-3.618c0-0.411-0.333-0.752-0.752-0.752h-2.1v0.008zM10.979 6.888h-1.891v-3.401h1.891v3.401z"></path>
<path fill="#fff" d="M6.935 6.997v-3.618c0-0.411-0.333-0.752-0.752-0.752h-2.1c-0.411 0-0.752 0.333-0.752 0.752v3.611c0 0.411 0.333 0.752 0.752 0.752h2.1c0.411 0 0.752-0.333 0.752-0.744zM6.075 6.888h-1.883v-3.401h1.891l-0.008 3.401z"></path>
<path fill="#fff" d="M10.018 13.288h5.935c0.232 0 0.426-0.194 0.426-0.426s-0.194-0.426-0.426-0.426h-6.284c-0.217 0-0.395 0.163-0.426 0.372-0.116 0.922-0.899 1.619-1.836 1.619-1.023 0-1.852-0.829-1.852-1.852s0.829-1.852 1.852-1.852c0.232 0 0.426-0.194 0.426-0.426s-0.194-0.426-0.426-0.426c-1.488 0-2.704 1.216-2.704 2.704s1.216 2.704 2.704 2.704c1.24 0.008 2.301-0.829 2.611-1.991z"></path>
<path fill="#fff" d="M3.626 12.436v0h-0.573c-0.511 0-0.922-0.411-0.922-0.922v-9.135c0-0.744 0.705-1.023 1.147-1.023h23.392c0.55 0 1.030 0.372 1.162 0.907 0.55 2.162 1.379 5.385 1.472 5.772 0 0.294 0 2.2 0 3.479 0 0.511-0.411 0.922-0.922 0.922h-6.268c-0.217 0-0.395 0.163-0.426 0.372-0.116 0.922-0.899 1.619-1.836 1.619-1.023 0-1.852-0.829-1.852-1.852s0.829-1.852 1.852-1.852c0.232 0 0.426-0.194 0.426-0.426s-0.194-0.426-0.426-0.426c-1.488 0-2.704 1.216-2.704 2.704s1.216 2.704 2.704 2.704c1.232 0 2.293-0.837 2.611-1.991h5.92c0.976 0 1.774-0.798 1.774-1.774 0.008-3.502 0-3.549 0-3.58-0.008-0.039-0.008-0.093-1.495-5.889-0.232-0.914-1.054-1.55-1.991-1.55h-23.392c-0.984 0-2.007 0.705-2.007 1.875v9.135c0 0.976 0.798 1.774 1.774 1.774h0.573c0.232 0 0.426-0.194 0.426-0.426 0.008-0.225-0.186-0.418-0.418-0.418z"></path>
<path fill="#fff" d="M18.123 24.058v-4.432c0-0.434-0.349-0.783-0.783-0.783h-2.131c-0.434 0-0.783 0.349-0.783 0.783v4.432c0 0.434 0.349 0.783 0.783 0.783h2.131c0.434 0 0.783-0.356 0.783-0.783zM17.271 23.981h-1.984v-4.285h1.984v4.285z"></path>
<path fill="#fff" d="M22.555 24.841c0.434 0 0.783-0.349 0.783-0.783v-4.432c0-0.434-0.349-0.783-0.783-0.783h-2.131c-0.434 0-0.783 0.349-0.783 0.783v4.432c0 0.434 0.349 0.783 0.783 0.783h2.131zM20.502 19.696h1.984v4.285h-1.984v-4.285z"></path>
<path fill="#fff" d="M28.552 24.058v-4.432c0-0.434-0.349-0.783-0.783-0.783h-2.123c-0.434 0-0.783 0.349-0.783 0.783v4.432c0 0.434 0.349 0.783 0.783 0.783h2.131c0.426 0 0.775-0.356 0.775-0.783zM27.7 23.981h-1.984v-4.285h1.984v4.285z"></path>
<path fill="#fff" d="M24.678 26.088c-0.232 0-0.426 0.194-0.426 0.426s0.194 0.426 0.426 0.426c1.023 0 1.852 0.829 1.852 1.852s-0.829 1.852-1.852 1.852c-0.93 0-1.72-0.697-1.836-1.619-0.023-0.217-0.209-0.372-0.426-0.372h-4.169c-0.232 0-0.426 0.194-0.426 0.426s0.194 0.426 0.426 0.426h3.82c0.31 1.162 1.371 1.991 2.611 1.991 1.488 0 2.704-1.216 2.704-2.704s-1.216-2.704-2.704-2.704z"></path>
<path fill="#fff" d="M28.723 16.713h-17.464c-0.938 0-1.759 0.635-1.991 1.55-1.48 5.796-1.488 5.85-1.495 5.889 0 0.015 0 0.031 0 0.256v0 0c0 0.349 0 1.201 0 3.316 0 0.976 0.798 1.774 1.774 1.774h2.247c0.31 1.162 1.371 1.991 2.611 1.991 1.488 0 2.704-1.216 2.704-2.704s-1.216-2.704-2.704-2.704c-0.232 0-0.426 0.194-0.426 0.426s0.194 0.426 0.426 0.426c1.023 0 1.852 0.829 1.852 1.852s-0.829 1.852-1.852 1.852c-0.93 0-1.72-0.697-1.836-1.619-0.023-0.217-0.209-0.372-0.426-0.372h-2.596c-0.511 0-0.922-0.411-0.922-0.922 0-0.914 0-2.154 0-2.89h3.471c0.527 0 0.953-0.426 0.953-0.953v-6.315h15.682c0.442 0 1.147 0.279 1.147 1.023v9.135c0 0.511-0.411 0.922-0.922 0.922h-0.573c-0.232 0-0.426 0.194-0.426 0.426s0.194 0.426 0.426 0.426h0.573c0.984 0 1.774-0.798 1.774-1.774v-9.135c0-1.17-1.023-1.875-2.007-1.875zM12.188 23.888c0 0.054-0.046 0.093-0.093 0.093h-3.401c0.225-0.899 0.922-3.618 1.402-5.509 0.132-0.535 0.612-0.907 1.162-0.907h0.93v6.323z"></path>
</svg>
