<!-- Generated by IcoMoon.io -->
<svg version="1.1" xmlns="http://www.w3.org/2000/svg" width="32" height="32" viewBox="0 0 32 32">
<title>transfer-01</title>
<path fill="#fff" d="M11.491 20.006c-0.139 0-0.279-0.031-0.418-0.085l-1.813-0.752-1.813 0.752c-0.48 0.201-1.030 0.031-1.333-0.403-0.294-0.418-0.263-0.945 0.077-1.317 0.016-0.015 0.039-0.039 0.054-0.054l1.674-1.426v-4.13l-6.47 3.169c-0.163 0.077-0.356 0.054-0.488-0.070-0.294-0.263-0.457-0.62-0.457-1.007 0-0.38 0.163-0.736 0.457-1l6.958-6.222v-4.649c0-0.364 0.139-0.705 0.387-0.961 0.496-0.519 1.371-0.527 1.883-0.016 0.256 0.263 0.403 0.604 0.403 0.976v4.649l6.958 6.214c0.294 0.263 0.465 0.62 0.457 1.007 0 0.38-0.163 0.736-0.465 1.007-0.132 0.116-0.325 0.147-0.488 0.070l-6.47-3.169v4.114l1.689 1.441c0.015 0.008 0.023 0.023 0.039 0.031 0.356 0.38 0.387 0.907 0.101 1.333-0.217 0.325-0.566 0.496-0.922 0.496zM9.267 18.255c0.054 0 0.116 0.008 0.17 0.031l1.984 0.821c0.155 0.062 0.256-0.062 0.271-0.093 0.085-0.116 0.015-0.186-0.008-0.209l-1.821-1.55c-0.101-0.085-0.155-0.209-0.155-0.341v-5.021c0-0.155 0.077-0.294 0.209-0.372s0.294-0.085 0.426-0.023l6.764 3.308c0.008-0.039 0.015-0.070 0.015-0.108 0-0.132-0.062-0.248-0.163-0.349l-7.105-6.346c-0.093-0.085-0.147-0.201-0.147-0.333v-4.85c0-0.139-0.046-0.263-0.139-0.356-0.17-0.17-0.449-0.163-0.62 0.008-0.085 0.093-0.139 0.217-0.139 0.349v4.85c0 0.124-0.054 0.248-0.147 0.333l-7.105 6.354c-0.108 0.093-0.163 0.217-0.163 0.349 0 0.039 0.008 0.077 0.016 0.108l6.764-3.316c0.139-0.070 0.302-0.062 0.426 0.023 0.132 0.077 0.209 0.225 0.209 0.372v5.044c0 0.132-0.054 0.248-0.155 0.333l-1.805 1.542c-0.031 0.039-0.070 0.101 0 0.209 0.016 0.023 0.116 0.155 0.271 0.093l1.976-0.821c0.054-0.023 0.108-0.039 0.17-0.039z"></path>
<path fill="#fff" d="M26.266 30.536c-0.054 0-0.108 0-0.163-0.008-0.178-0.023-0.325-0.147-0.38-0.318l-1.968-6.927-3.061 2.751 0.054 2.224c0 0.015 0 0.031 0 0.047-0.047 0.519-0.418 0.899-0.922 0.961-0.527 0.070-1.023-0.232-1.193-0.721l-0.651-1.852-1.767-0.845c-0.473-0.225-0.713-0.744-0.597-1.263 0.116-0.496 0.519-0.837 1.030-0.821 0.015 0 0.054 0 0.070 0.008l2.185 0.294 3.068-2.758-6.687-2.696c-0.17-0.070-0.279-0.232-0.279-0.411 0-0.395 0.155-0.759 0.442-1.015s0.659-0.372 1.054-0.325l9.275 1.015 3.456-3.107c0.279-0.248 0.628-0.372 1-0.356 0.356 0.015 0.674 0.17 0.914 0.434 0.232 0.263 0.349 0.597 0.333 0.953-0.023 0.364-0.186 0.705-0.457 0.953l-3.456 3.107 0.023 9.329c0 0.403-0.155 0.759-0.442 1.015-0.232 0.217-0.542 0.333-0.883 0.333zM23.996 22.036c0.039 0 0.085 0.008 0.124 0.015 0.147 0.039 0.263 0.155 0.302 0.302l2.061 7.245c0.031-0.015 0.062-0.039 0.093-0.062 0.093-0.085 0.147-0.209 0.147-0.356l-0.023-9.523c0-0.124 0.054-0.248 0.147-0.333l3.603-3.239c0.101-0.093 0.163-0.209 0.17-0.341 0.008-0.116-0.031-0.232-0.108-0.31-0.077-0.085-0.186-0.132-0.302-0.139-0.124-0.008-0.256 0.039-0.356 0.132l-3.603 3.239c-0.093 0.085-0.217 0.124-0.341 0.108l-9.476-1.038c-0.139-0.015-0.271 0.023-0.364 0.108-0.031 0.023-0.054 0.054-0.070 0.085l6.989 2.82c0.139 0.054 0.24 0.186 0.271 0.333 0.023 0.147-0.023 0.302-0.139 0.403l-3.804 3.386c-0.093 0.070-0.209 0.101-0.333 0.085l-2.379-0.318c0.008 0-0.093 0-0.124 0.139-0.008 0.031-0.039 0.194 0.116 0.263l1.929 0.922c0.108 0.054 0.186 0.139 0.225 0.248l0.713 2.022c0.054 0.155 0.217 0.147 0.248 0.139 0.139-0.015 0.155-0.116 0.155-0.147l-0.062-2.394c0-0.132 0.054-0.256 0.147-0.341l3.735-3.355c0.093-0.062 0.201-0.101 0.31-0.101z"></path>
<path fill="#fff" d="M14.009 3.727c-0.008 0-0.015 0-0.023 0-0.209-0.008-0.426-0.015-0.643-0.015-0.248 0-0.442-0.201-0.442-0.442s0.201-0.442 0.442-0.442c0.232 0 0.457 0.008 0.69 0.015 0.24 0.015 0.434 0.225 0.418 0.465s-0.209 0.418-0.442 0.418z"></path>
<path fill="#fff" d="M25.050 12.777c-0.194 0-0.38-0.132-0.426-0.333-0.116-0.442-0.256-0.883-0.426-1.309-0.085-0.225 0.023-0.48 0.248-0.573 0.232-0.085 0.488 0.023 0.573 0.248 0.178 0.457 0.333 0.93 0.457 1.41 0.062 0.24-0.077 0.48-0.318 0.542-0.031 0.015-0.070 0.015-0.108 0.015zM23.531 9.298c-0.147 0-0.287-0.070-0.372-0.201-0.248-0.387-0.519-0.759-0.814-1.116-0.155-0.186-0.124-0.465 0.062-0.62s0.465-0.124 0.62 0.062c0.31 0.38 0.604 0.783 0.868 1.201 0.132 0.209 0.070 0.48-0.132 0.612-0.070 0.039-0.147 0.062-0.232 0.062zM21.005 6.454c-0.101 0-0.201-0.031-0.279-0.101-0.356-0.287-0.728-0.566-1.116-0.814-0.209-0.132-0.263-0.403-0.132-0.612s0.403-0.263 0.612-0.132c0.418 0.263 0.821 0.558 1.201 0.876 0.186 0.155 0.217 0.434 0.062 0.62-0.093 0.108-0.217 0.163-0.349 0.163zM17.728 4.533c-0.054 0-0.108-0.008-0.163-0.031-0.426-0.163-0.868-0.31-1.309-0.426-0.24-0.062-0.38-0.302-0.318-0.535 0.062-0.24 0.302-0.38 0.535-0.318 0.48 0.124 0.953 0.279 1.41 0.457 0.225 0.085 0.341 0.349 0.256 0.573-0.070 0.17-0.24 0.279-0.411 0.279z"></path>
<path fill="#fff" d="M25.437 15.806c-0.248 0-0.442-0.201-0.442-0.442 0-0.217-0.008-0.426-0.015-0.643-0.015-0.248 0.17-0.449 0.418-0.465s0.449 0.17 0.465 0.418c0.015 0.225 0.015 0.457 0.015 0.69 0 0.24-0.201 0.442-0.442 0.442z"></path>
</svg>
