<!-- Generated by IcoMoon.io -->
<svg version="1.1" xmlns="http://www.w3.org/2000/svg" width="32" height="32" viewBox="0 0 32 32">
<title>transfer-02</title>
<path fill="#fff" d="M31.496 16.558v-3.409c0-0.519-0.155-0.938-0.449-1.224-0.442-0.434-1.038-0.426-1.061-0.426h-2.983c-0.023 0-0.62-0.008-1.061 0.426-0.294 0.294-0.449 0.705-0.449 1.224v3.401c0 0.047-0.008 0.457 0.279 0.752 0.186 0.194 0.434 0.287 0.752 0.287h0.418v5.772c0 0.023-0.031 0.535 0.31 0.891 0.201 0.217 0.48 0.325 0.837 0.325h0.814c0.356 0 0.635-0.108 0.837-0.325 0.333-0.356 0.31-0.876 0.31-0.883v-5.78h0.426c0.318 0 0.566-0.093 0.752-0.287 0.279-0.302 0.271-0.705 0.271-0.744zM28.304 12.583l-0.155 1.519-0.814-2.146h0.643l0.325 0.628zM28.831 14.117l-0.155-1.534 0.279-0.62h0.69l-0.814 2.154zM30.884 16.984c-0.093 0.101-0.232 0.147-0.418 0.147h-0.651c-0.132 0-0.232 0.101-0.232 0.232v6.036c0 0 0.015 0.341-0.186 0.55-0.116 0.124-0.279 0.178-0.504 0.178h-0.806c-0.225 0-0.387-0.054-0.496-0.178-0.201-0.209-0.186-0.55-0.186-0.566v-6.028c0-0.132-0.101-0.232-0.232-0.232h-0.651c-0.186 0-0.325-0.047-0.418-0.139-0.155-0.163-0.155-0.418-0.155-0.426v-3.409c0-0.387 0.101-0.69 0.31-0.891 0.186-0.186 0.426-0.256 0.581-0.279l1.433 3.758c0.031 0.093 0.124 0.147 0.217 0.147s0.186-0.062 0.217-0.147l1.433-3.766c0.155 0.023 0.395 0.093 0.581 0.279 0.201 0.201 0.31 0.504 0.31 0.891v3.417c0 0.008 0 0.263-0.147 0.426z"></path>
<path fill="#fff" d="M26.948 9.027h0.178c-0.085 0.186-0.132 0.395-0.132 0.604 0 0.829 0.674 1.503 1.503 1.503s1.503-0.674 1.503-1.503c0-0.209-0.047-0.418-0.132-0.604h0.178c0.132 0 0.232-0.101 0.232-0.232s-0.101-0.232-0.232-0.232h-0.047v-0.976c0-0.132-0.101-0.232-0.232-0.232h-2.541c-0.132 0-0.232 0.101-0.232 0.232v0.976h-0.047c-0.132 0-0.232 0.101-0.232 0.232s0.101 0.232 0.232 0.232zM28.498 10.669c-0.573 0-1.038-0.465-1.038-1.038 0-0.217 0.070-0.426 0.201-0.604h1.681c0.132 0.178 0.201 0.387 0.201 0.604-0.008 0.573-0.473 1.038-1.046 1.038zM27.46 7.818h2.076v0.744h-2.076v-0.744z"></path>
<path fill="#fff" d="M23.353 17.472c0-1.023-0.449-1.991-1.24-2.642l-0.767-0.643 1-0.139c0.449-0.062 0.775-0.465 0.736-0.922-0.031-0.403-0.349-0.736-0.752-0.783l-1.178-0.147c-0.403-0.046-0.775 0.225-0.845 0.62l-0.062 0.325-1.581-2.139c-0.511-0.69-1.302-1.116-2.154-1.17-1.309-0.077-3.649-0.201-4.641-0.201-0.93 0-3.006 0.108-4.587 0.201-0.845 0.046-1.627 0.465-2.138 1.139l-1.573 2.069-0.046-0.232c-0.077-0.395-0.449-0.666-0.845-0.62l-1.178 0.147c-0.403 0.046-0.721 0.38-0.752 0.783-0.039 0.457 0.287 0.86 0.736 0.922l0.945 0.132-0.759 0.659c-0.752 0.651-1.178 1.596-1.178 2.588v6.098c0 0.697 0.38 1.123 0.992 1.123h1.65c0.604 0 1.038-0.473 1.038-1.123 0-0.132-0.101-0.232-0.232-0.232s-0.232 0.101-0.232 0.232c0 0.318-0.178 0.659-0.581 0.659h-1.635c-0.356 0-0.535-0.225-0.535-0.659v-1.65c0.077 0.062 0.163 0.108 0.256 0.147 1.24 0.511 4.796 1.689 10.987 1.689 6.175 0 9.391-1.193 10.491-1.705 0.070-0.031 0.132-0.070 0.194-0.116v1.635c0 0.442-0.178 0.659-0.535 0.659h-1.65c-0.395 0-0.581-0.341-0.581-0.659 0-0.132-0.101-0.232-0.232-0.232s-0.232 0.101-0.232 0.232c0 0.651 0.434 1.123 1.038 1.123h1.65c0.612 0 0.992-0.434 0.992-1.123v-6.044h0.015zM20.765 12.893c0.031-0.155 0.178-0.263 0.333-0.24l1.178 0.147c0.186 0.023 0.333 0.178 0.349 0.364 0.015 0.209-0.132 0.395-0.341 0.426l-1.41 0.194-0.248-0.209c0.015-0.023 0.031-0.054 0.039-0.085l0.101-0.597zM5.509 11.25c0.434-0.566 1.085-0.914 1.798-0.961 1.286-0.070 3.595-0.194 4.564-0.194 0.976 0 3.308 0.124 4.61 0.194 0.721 0.039 1.379 0.395 1.813 0.976l1.588 2.154c-1.464 0.062-6.206 0.248-7.957 0.248 0 0 0 0-0.008 0-1.782 0-6.578-0.194-8.058-0.248l1.65-2.17zM1.557 13.583c-0.209-0.031-0.356-0.217-0.341-0.426 0.016-0.186 0.163-0.341 0.349-0.364l1.178-0.147c0.155-0.023 0.302 0.085 0.333 0.24l0.108 0.589c0 0.015 0.008 0.023 0.015 0.031l-0.294 0.256-1.348-0.178zM22.888 20.974c0 0.256-0.155 0.496-0.387 0.604-1.069 0.504-4.207 1.666-10.29 1.666-6.106 0-9.592-1.154-10.809-1.658-0.263-0.108-0.434-0.364-0.434-0.643v-3.518c0-0.86 0.372-1.674 1.023-2.239l1.511-1.317c0.79 0.031 6.454 0.263 8.43 0.263 0 0 0 0 0.008 0 1.945 0 7.547-0.232 8.322-0.263l1.565 1.309c0.682 0.566 1.069 1.402 1.069 2.293v3.502h-0.008z"></path>
<path fill="#fff" d="M16.837 16.581h-9.902c-0.163 0-0.302 0.093-0.364 0.232-0.062 0.132-0.046 0.279 0.031 0.395l0.24 0.597c0.325 0.806 1.093 1.325 1.96 1.325h6.106c0.829 0 1.588-0.488 1.929-1.247l0.318-0.697c0.077-0.108 0.093-0.256 0.039-0.38-0.070-0.132-0.201-0.225-0.356-0.225zM15.961 18.293c-0.178 0.147-0.387 0.263-0.62 0.325v-1.573h0.62v1.232c0 0.008 0 0.008 0 0.015zM7.787 18.278v-1.232h0.62v1.573c-0.232-0.054-0.442-0.163-0.628-0.31 0-0.008 0.008-0.015 0.008-0.031zM8.864 18.642v-1.596h0.62v1.627h-0.628c0-0.008 0.008-0.023 0.008-0.031zM9.941 17.046h0.62v1.627h-0.62v-1.627zM11.026 17.046h0.62v1.627h-0.62v-1.627zM12.103 17.046h0.62v1.627h-0.62v-1.627zM13.18 17.046h0.62v1.627h-0.62v-1.627zM14.264 17.046h0.62v1.588c0 0.015 0.008 0.023 0.008 0.039h-0.628v-1.627zM7.035 17.046h0.287v0.697c-0.016-0.031-0.039-0.070-0.046-0.101l-0.24-0.597zM16.426 17.681v-0.635h0.287l-0.287 0.635z"></path>
<path fill="#fff" d="M5.679 16.976c-0.341-0.465-0.837-0.806-1.395-0.953l-1.216-0.325c-0.279-0.077-0.581-0.023-0.821 0.132-0.24 0.163-0.403 0.418-0.442 0.705-0.062 0.426 0.070 0.86 0.349 1.185s0.682 0.519 1.116 0.535l2.286 0.062c0.008 0 0.008 0 0.016 0 0.209 0 0.395-0.116 0.496-0.302 0.101-0.194 0.085-0.418-0.046-0.589l-0.341-0.449zM5.648 17.805c-0.008 0.015-0.039 0.054-0.085 0.054l-2.286-0.062c-0.302-0.008-0.581-0.139-0.775-0.372-0.194-0.225-0.279-0.527-0.24-0.821 0.023-0.155 0.108-0.294 0.24-0.38 0.093-0.062 0.194-0.093 0.302-0.093 0.046 0 0.093 0.008 0.139 0.015l1.216 0.325c0.457 0.124 0.86 0.403 1.147 0.783l0.333 0.457c0.031 0.031 0.023 0.070 0.008 0.093z"></path>
<path fill="#fff" d="M18.293 18.317l2.286-0.062c0.434-0.008 0.837-0.209 1.116-0.535s0.403-0.759 0.349-1.185c-0.039-0.287-0.201-0.542-0.442-0.705s-0.542-0.209-0.821-0.132l-1.216 0.325c-0.558 0.147-1.054 0.488-1.395 0.953l-0.333 0.457c-0.124 0.17-0.147 0.395-0.047 0.589 0.093 0.186 0.287 0.302 0.496 0.302-0.008-0.008 0-0.008 0.008-0.008zM18.193 17.805c-0.008-0.023-0.023-0.062 0.008-0.101l0.333-0.457c0.279-0.38 0.69-0.659 1.147-0.783l1.216-0.325c0.047-0.015 0.093-0.015 0.139-0.015 0.108 0 0.209 0.031 0.302 0.093 0.132 0.085 0.217 0.225 0.24 0.38 0.039 0.294-0.047 0.597-0.24 0.821s-0.473 0.364-0.775 0.372l-2.286 0.062c-0.047 0.008-0.077-0.031-0.085-0.047z"></path>
<path fill="#fff" d="M12.475 15.892c0 0.128-0.271 0.232-0.604 0.232s-0.604-0.104-0.604-0.232c0-0.128 0.271-0.232 0.604-0.232s0.604 0.104 0.604 0.232z"></path>
<path fill="#fff" d="M16.752 20.401c-0.023-0.101-0.116-0.17-0.225-0.17h-9.36c-0.101 0-0.194 0.070-0.225 0.163l-0.38 1.278c-0.054 0.186-0.023 0.38 0.085 0.542 0.108 0.155 0.287 0.256 0.473 0.271 1.069 0.070 3.665 0.24 4.688 0.24 1.015 0 3.626-0.163 4.703-0.24 0.186-0.015 0.356-0.108 0.473-0.263 0.108-0.155 0.147-0.349 0.101-0.535l-0.333-1.286zM16.62 21.951c-0.015 0.023-0.054 0.062-0.124 0.070-1.069 0.070-3.665 0.24-4.672 0.24s-3.595-0.163-4.657-0.232c-0.070-0.008-0.108-0.047-0.124-0.070s-0.046-0.077-0.023-0.147l0.325-1.108h9.003l0.294 1.116c0.015 0.054-0.008 0.108-0.023 0.132z"></path>
<path fill="#fff" d="M5.098 20.246l-2.417-0.728c-0.209-0.062-0.434-0.031-0.62 0.101-0.178 0.124-0.294 0.325-0.31 0.542l-0.023 0.356c-0.039 0.535 0.333 1.007 0.868 1.1l2.138 0.356c0.039 0.008 0.077 0.008 0.116 0.008 0.325 0 0.612-0.225 0.682-0.558l0.070-0.333c0.070-0.38-0.147-0.736-0.504-0.845zM5.145 20.99l-0.070 0.333c-0.023 0.124-0.147 0.201-0.263 0.186l-2.146-0.356c-0.294-0.047-0.504-0.31-0.48-0.612l0.023-0.356c0.008-0.077 0.046-0.147 0.108-0.194 0.046-0.031 0.093-0.047 0.147-0.047 0.023 0 0.046 0 0.077 0.008l2.417 0.728c0.132 0.047 0.209 0.178 0.186 0.31z"></path>
<path fill="#fff" d="M21.749 19.611c-0.178-0.124-0.411-0.163-0.62-0.101l-2.425 0.728c-0.364 0.108-0.573 0.465-0.504 0.837l0.070 0.333c0.070 0.333 0.356 0.558 0.682 0.558 0.039 0 0.077 0 0.116-0.008l2.139-0.356c0.535-0.085 0.907-0.558 0.868-1.1l-0.023-0.356c-0.008-0.209-0.124-0.403-0.302-0.535zM21.137 21.153l-2.139 0.356c-0.124 0.023-0.24-0.062-0.263-0.186l-0.070-0.333c-0.023-0.132 0.054-0.263 0.178-0.302l2.425-0.728c0.023-0.008 0.047-0.008 0.077-0.008 0.054 0 0.101 0.015 0.147 0.047 0.062 0.047 0.108 0.116 0.108 0.194l0.023 0.356c0.015 0.294-0.194 0.558-0.488 0.604z"></path>
</svg>
