<!-- Generated by IcoMoon.io -->
<svg version="1.1" xmlns="http://www.w3.org/2000/svg" width="32" height="32" viewBox="0 0 32 32">
<title>transfers-driver</title>
<path fill="#fff" d="M31.496 16.837v-4.827c0-0.736-0.209-1.317-0.635-1.728-0.62-0.604-1.457-0.597-1.488-0.597h-4.223c-0.031 0-0.876-0.015-1.495 0.597-0.418 0.411-0.635 0.992-0.635 1.728v4.812c0 0.062-0.008 0.635 0.395 1.054 0.256 0.263 0.612 0.403 1.054 0.403h0.612v8.19c0 0.031-0.039 0.752 0.434 1.255 0.287 0.302 0.682 0.457 1.178 0.457h1.139c0.496 0 0.891-0.155 1.178-0.457 0.473-0.504 0.434-1.224 0.434-1.232v-8.213h0.612c0.442 0 0.798-0.132 1.054-0.403 0.395-0.418 0.387-0.984 0.387-1.038zM30.652 17.441c-0.132 0.139-0.333 0.209-0.604 0.209h-0.922c-0.17 0-0.31 0.139-0.31 0.31v8.539c0 0.008 0.023 0.488-0.263 0.79-0.163 0.17-0.403 0.256-0.721 0.256h-1.139c-0.318 0-0.558-0.085-0.721-0.256-0.287-0.302-0.263-0.79-0.263-0.814v-8.523c0-0.17-0.139-0.31-0.31-0.31h-0.922c-0.263 0-0.465-0.070-0.597-0.209-0.225-0.232-0.217-0.597-0.217-0.612v-4.812c0-0.558 0.147-0.984 0.442-1.271 0.418-0.411 1.015-0.418 1.054-0.418v0h4.23c0.015-0.008 0.62 0 1.046 0.418 0.294 0.287 0.442 0.713 0.442 1.271v4.835c-0.008 0.008 0 0.372-0.225 0.597z"></path>
<path fill="#fff" d="M25.073 6.16h0.279c-0.124 0.271-0.201 0.566-0.201 0.876 0 1.162 0.945 2.108 2.107 2.108s2.108-0.945 2.108-2.107c0-0.31-0.070-0.597-0.194-0.876h0.279c0.17 0 0.31-0.139 0.31-0.31s-0.139-0.31-0.31-0.31h-0.085v-1.41c0-0.17-0.139-0.31-0.31-0.31h-3.595c-0.17 0-0.31 0.139-0.31 0.31v1.402h-0.085c-0.17 0-0.31 0.139-0.31 0.31s0.147 0.318 0.318 0.318zM27.266 8.515c-0.821 0-1.488-0.666-1.488-1.488 0-0.318 0.108-0.62 0.294-0.876h2.394c0.186 0.256 0.287 0.558 0.287 0.876-0.008 0.821-0.674 1.488-1.488 1.488zM25.778 4.447h2.968v1.093h-2.851c0 0 0 0-0.008 0h-0.116v-1.093h0.008z"></path>
<path fill="#fff" d="M22.183 21.842c0.015-0.55-0.077-1.108-0.163-1.627l-0.008-0.039c-0.341-1.999-1.17-3.688-1.503-4.316v0 0l-2.27-4.207c-0.759-1.41-2.681-2.557-4.285-2.557h-0.093v-1.751c0-0.17-0.139-0.31-0.31-0.31h-4.393c-0.17 0-0.31 0.139-0.31 0.31v1.743h-0.504c-1.185 0-3.169 1.116-3.952 2.557l-2.27 4.207c0 0 0 0 0 0.008 0 0 0 0 0 0.008-0.31 0.635-1.077 2.317-1.418 4.308l-0.008 0.047c-0.085 0.511-0.178 1.061-0.17 1.604 0 0.008-0.008 0.015-0.008 0.031v4.587c0 0.783 0.635 1.41 1.41 1.41h0.473c0.783 0 1.41-0.504 1.41-1.116v-1.17c0-0.17-0.139-0.31-0.31-0.31s-0.31 0.139-0.31 0.31v1.162c0 0.232-0.341 0.488-0.79 0.488h-0.488c-0.434 0-0.79-0.356-0.79-0.79v-2.844l0.008 0.008c1.255 1.503 4.579 2.262 10.173 2.324 5.641-0.062 8.996-0.821 10.251-2.332v0 2.851c0 0.434-0.356 0.79-0.79 0.79h-0.488c-0.449 0-0.79-0.256-0.79-0.488v-1.17c0-0.17-0.139-0.31-0.31-0.31s-0.31 0.139-0.31 0.31v1.162c0 0.612 0.635 1.116 1.41 1.116h0.488c0.783 0 1.41-0.635 1.41-1.41l0.008-4.595zM9.461 7.663h3.773v1.433h-3.773c0 0 0-1.433 0-1.433zM4.928 11.94c0.666-1.232 2.402-2.224 3.401-2.224h5.617c1.348 0 3.092 1.038 3.735 2.224l2.022 3.75h-16.798l2.022-3.75zM21.563 21.842v0.031c-0.023 0.473-0.147 0.914-0.48 1.309-1.123 1.34-4.409 2.053-9.778 2.107-5.315-0.054-8.577-0.759-9.693-2.1-0.674-0.814-0.504-1.813-0.325-2.875l0.008-0.047c0.302-1.774 0.976-3.324 1.278-3.959h17.464c0.325 0.628 1.046 2.185 1.356 3.959l0.008 0.047c0.093 0.527 0.178 1.038 0.163 1.519 0 0.008 0 0.008 0 0.008z"></path>
<path fill="#fff" d="M11.622 20.936c-0.124 0-0.232-0.008-0.325-0.008-0.023-0.008-0.039-0.008-0.062-0.008h-0.201c-0.023 0-0.046 0-0.070 0.008-0.093 0.008-0.201 0.008-0.325 0.008-1.116 0.023-3.192 0.070-3.634 1.449 0 0.008-0.008 0.015-0.008 0.031-0.008 0.047-0.085 0.465 0.201 0.829 0.302 0.38 0.883 0.573 1.743 0.573h4.37c0.868 0 1.457-0.194 1.751-0.581 0.271-0.349 0.209-0.775 0.178-0.86-0.418-1.379-2.495-1.418-3.618-1.441zM14.574 22.842c-0.163 0.217-0.62 0.341-1.255 0.341h-4.37c-0.628 0-1.085-0.124-1.255-0.333-0.093-0.116-0.085-0.256-0.077-0.302 0.318-0.93 2.092-0.969 3.045-0.992 0.124 0 0.24-0.008 0.333-0.008 0.023 0 0.046 0 0.070-0.008h0.147c0.023 0 0.046 0.008 0.070 0.008 0.093 0.008 0.209 0.008 0.341 0.008 0.883 0.015 2.72 0.054 3.037 0.976 0 0.039 0.008 0.194-0.085 0.31z"></path>
<path fill="#fff" d="M4.029 17.216c-0.387 0-0.736 0.132-1 0.38-0.325 0.302-0.48 0.744-0.442 1.232 0.039 0.465 0.248 0.922 0.597 1.294 0.418 0.442 0.969 0.697 1.511 0.697 0.395 0 0.736-0.132 1-0.38 0.31-0.294 0.473-0.721 0.442-1.193-0.031-0.48-0.24-0.953-0.597-1.333-0.418-0.442-0.969-0.697-1.511-0.697zM5.269 19.99c-0.147 0.139-0.341 0.209-0.573 0.209-0.372 0-0.759-0.186-1.054-0.504-0.248-0.271-0.403-0.597-0.434-0.922-0.023-0.294 0.062-0.558 0.248-0.728 0.147-0.139 0.349-0.209 0.573-0.209 0.372 0 0.759 0.186 1.054 0.504 0.256 0.279 0.411 0.612 0.434 0.945 0.016 0.287-0.070 0.535-0.248 0.705z"></path>
<path fill="#fff" d="M18.278 17.216c-0.542 0-1.1 0.256-1.511 0.697-0.356 0.38-0.573 0.852-0.597 1.333-0.031 0.473 0.132 0.899 0.442 1.193 0.263 0.248 0.612 0.38 1 0.38 0.542 0 1.1-0.256 1.511-0.697 0.349-0.372 0.558-0.829 0.597-1.294 0.039-0.488-0.116-0.93-0.442-1.232-0.263-0.248-0.612-0.38-1-0.38zM18.665 19.696c-0.294 0.318-0.682 0.504-1.054 0.504-0.232 0-0.426-0.070-0.573-0.209-0.178-0.163-0.263-0.411-0.248-0.697 0.023-0.333 0.17-0.666 0.434-0.945 0.294-0.318 0.682-0.504 1.054-0.504 0.232 0 0.426 0.070 0.573 0.209 0.186 0.17 0.271 0.426 0.248 0.728-0.031 0.325-0.186 0.651-0.434 0.914z"></path>
</svg>
