<!-- Generated by IcoMoon.io -->
<svg version="1.1" xmlns="http://www.w3.org/2000/svg" width="32" height="32" viewBox="0 0 32 32">
<title>travel-agency-02</title>
<path fill="#fff" d="M5.633 25.213h11.731c0.17 0 0.31-0.139 0.31-0.31v-7.082c0-0.17-0.139-0.31-0.31-0.31h-0.465v-0.62c0-0.914-0.263-1.635-0.783-2.146-0.767-0.752-1.805-0.736-1.844-0.736h-5.416c-0.046 0-1.085-0.015-1.844 0.736-0.519 0.504-0.783 1.232-0.783 2.146v0.612h-0.604c-0.17 0-0.31 0.139-0.31 0.31v7.082c0.016 0.178 0.147 0.318 0.318 0.318zM6.849 17.519v-0.612c0-0.744 0.201-1.317 0.589-1.705 0.573-0.566 1.395-0.566 1.418-0.566h5.424c0 0 0.837-0.008 1.41 0.566 0.395 0.387 0.589 0.961 0.589 1.705v0.62l-9.43-0.008zM5.943 18.131h11.119v6.462h-11.119v-6.462z"></path>
<path fill="#fff" d="M4.812 26.367h13.373c0.17 0 0.31-0.139 0.31-0.31s-0.139-0.31-0.31-0.31h-13.373c-0.17 0-0.31 0.139-0.31 0.31s0.139 0.31 0.31 0.31z"></path>
<path fill="#fff" d="M31.186 26.933h-5.308c0.008-0.023 0.015-0.054 0.015-0.077v-1.581c0-0.023-0.008-0.047-0.015-0.070 2.999-0.155 5.4-2.634 5.4-5.679 0-2.557-1.728-4.819-4.192-5.493-0.163-0.046-0.333 0.054-0.38 0.217s0.054 0.333 0.217 0.38c2.2 0.604 3.742 2.619 3.742 4.905 0 2.797-2.278 5.083-5.083 5.083-1.472 0-2.867-0.643-3.835-1.751-0.108-0.132-0.302-0.139-0.434-0.031-0.124 0.108-0.139 0.302-0.031 0.434 1.023 1.178 2.464 1.867 4.006 1.953-0.008 0.023-0.015 0.047-0.015 0.070v1.581c0 0.031 0.008 0.054 0.015 0.077h-24.477c-0.17 0-0.31 0.139-0.31 0.31s0.139 0.31 0.31 0.31h30.381c0.17 0 0.31-0.139 0.31-0.31s-0.147-0.325-0.318-0.325z"></path>
<path fill="#fff" d="M21.517 20.014c0.124 1.015 0.612 1.914 1.333 2.565 0.008 0.008 0.008 0.008 0.015 0.015 0.728 0.643 1.681 1.046 2.727 1.046 2.27 0 4.114-1.844 4.114-4.114s-1.844-4.114-4.114-4.114-4.114 1.844-4.114 4.114c0 0.163 0.015 0.325 0.039 0.488 0-0.008 0 0 0 0zM22.199 20.354l0.496 0.108c0.186 0.039 0.341 0.155 0.426 0.325 0.085 0.163 0.101 0.364 0.031 0.535l-0.194 0.496c-0.356-0.418-0.62-0.914-0.759-1.464zM29.094 19.525c0 1.511-0.961 2.789-2.301 3.285l0.837-2.092c0.124-0.31 0.077-0.651-0.132-0.907-0.201-0.263-0.527-0.387-0.852-0.341l-0.333 0.047c-0.318 0.047-0.628-0.116-0.759-0.411l-0.178-0.38c-0.124-0.271-0.101-0.589 0.062-0.829l1.069-1.612c0.023-0.039 0.039-0.077 0.047-0.116 1.464 0.411 2.541 1.759 2.541 3.355zM25.592 16.023c0.116 0 0.225 0.008 0.333 0.015l-1.007 1.511c-0.279 0.418-0.325 0.969-0.108 1.433l0.178 0.38c0.248 0.542 0.814 0.845 1.402 0.759l0.333-0.047c0.155-0.023 0.248 0.070 0.287 0.116 0.031 0.039 0.101 0.155 0.047 0.302l-0.984 2.472c0 0.008 0 0.015-0.008 0.031-0.155 0.023-0.31 0.039-0.473 0.039-0.814 0-1.565-0.279-2.154-0.752l0.287-0.728c0.132-0.341 0.116-0.728-0.062-1.046-0.17-0.325-0.48-0.558-0.837-0.635l-0.721-0.155c0-0.062-0.008-0.116-0.008-0.178 0-1.945 1.573-3.518 3.494-3.518z"></path>
<path fill="#fff" d="M8.236 10.902h0.054c0.395 1.472 1.736 2.518 3.285 2.518 1.139 0 2.162-0.558 2.782-1.441 0.442-0.178 0.752-0.612 0.759-1.108 0.318-0.093 0.558-0.38 0.558-0.728v-1.875c0-0.364-0.263-0.674-0.604-0.744-0.248-1.736-1.751-3.061-3.533-3.061-1.79 0-3.301 1.34-3.533 3.084-0.302 0.101-0.527 0.38-0.527 0.721v1.875c-0.008 0.418 0.341 0.759 0.759 0.759zM8.089 10.135v-1.875c0-0.077 0.070-0.147 0.147-0.147h0.155c0.077 0 0.147 0.070 0.147 0.147v1.875c0 0.046-0.023 0.085-0.054 0.108-0.008 0-0.015 0-0.015 0-0.039 0.008-0.062 0.023-0.093 0.039h-0.139c-0.085 0-0.147-0.062-0.147-0.147zM8.872 10.723c0.17-0.139 0.279-0.349 0.279-0.581v-1.511c0.496-0.868 1.418-1.41 2.417-1.41s1.922 0.535 2.417 1.402v1.519c0 0.232 0.108 0.442 0.279 0.581-0.070 0.263-0.17 0.504-0.302 0.728-0.023 0-0.046 0.008-0.070 0.008h-1.216c-0.101-0.209-0.31-0.349-0.558-0.349h-0.527c-0.341 0-0.62 0.279-0.62 0.62v0.108c0 0.341 0.279 0.62 0.62 0.62h0.527c0.263 0 0.488-0.163 0.573-0.395h0.759c-0.504 0.457-1.162 0.736-1.891 0.736-1.271 0.008-2.371-0.86-2.689-2.076zM14.791 8.112c0.008 0 0.015 0 0.023 0h0.101c0.077 0 0.147 0.070 0.147 0.147v1.875c0 0.077-0.070 0.147-0.147 0.147h-0.139c-0.031-0.015-0.062-0.031-0.093-0.039-0.008 0-0.015 0-0.015 0-0.031-0.023-0.054-0.070-0.054-0.108v-1.875c0-0.077 0.070-0.147 0.147-0.147h0.031c-0.008 0 0 0 0 0zM11.537 5.067c1.464 0 2.696 1.077 2.921 2.495-0.124 0.054-0.225 0.139-0.302 0.24-0.643-0.744-1.581-1.193-2.58-1.193-1.007 0-1.937 0.449-2.58 1.193-0.093-0.124-0.225-0.217-0.38-0.263 0.232-1.41 1.464-2.472 2.921-2.472z"></path>
</svg>
