<!-- Generated by IcoMoon.io -->
<svg version="1.1" xmlns="http://www.w3.org/2000/svg" width="32" height="32" viewBox="0 0 32 32">
<title>traveller</title>
<path fill="#fff" d="M15.008 17.689c-0.232-0.085-0.488 0.031-0.573 0.263l-1.085 2.968c-0.085-0.062-0.17-0.108-0.271-0.147l-3.308-1.201c-0.302-0.108-0.628-0.093-0.914 0.039s-0.511 0.372-0.62 0.674l-2.1 5.772c-0.108 0.302-0.093 0.628 0.039 0.914s0.372 0.511 0.674 0.62l3.308 1.201c0.132 0.047 0.271 0.070 0.411 0.070 0.488 0 0.945-0.302 1.123-0.79l1.79-4.905 1.79-4.912c0.085-0.225-0.031-0.48-0.263-0.566zM6.989 26.6c-0.031-0.077-0.039-0.155-0.008-0.232l2.1-5.772c0.031-0.077 0.085-0.139 0.155-0.17s0.155-0.039 0.232-0.008l0.465 0.17-2.309 6.346-0.457-0.17c-0.085-0.031-0.147-0.085-0.178-0.163zM10.863 27.777c-0.054 0.155-0.232 0.24-0.387 0.186l-2.015-0.728 2.309-6.346 2.015 0.728c0.155 0.054 0.24 0.232 0.186 0.387l-0.225 0.612-0.093 0.263-1.79 4.897z"></path>
<path fill="#fff" d="M9.871 29.040c-0.659-0.24-1.379 0.101-1.619 0.759-0.116 0.318-0.101 0.659 0.039 0.969 0.139 0.302 0.395 0.535 0.713 0.651 0.139 0.054 0.287 0.077 0.434 0.077 0.186 0 0.364-0.039 0.535-0.116 0.302-0.139 0.535-0.395 0.651-0.713 0.248-0.659-0.093-1.387-0.752-1.627zM9.794 30.357c-0.031 0.093-0.101 0.17-0.194 0.209s-0.194 0.047-0.287 0.015-0.17-0.101-0.209-0.194-0.046-0.194-0.015-0.287c0.054-0.155 0.201-0.248 0.349-0.248 0.039 0 0.085 0.008 0.124 0.023 0.201 0.070 0.302 0.287 0.232 0.48z"></path>
<path fill="#fff" d="M22.214 6.439c0.232 0.054 0.473 0.085 0.705 0.085 0.55 0 1.085-0.147 1.565-0.442 0.69-0.418 1.17-1.085 1.356-1.867v0c0.387-1.612-0.612-3.239-2.224-3.626s-3.239 0.612-3.626 2.224c-0.186 0.783-0.062 1.588 0.356 2.278 0.426 0.682 1.085 1.162 1.867 1.348zM20.858 3.014c0.232-0.969 1.108-1.627 2.061-1.627 0.163 0 0.333 0.016 0.496 0.062 1.139 0.271 1.836 1.418 1.565 2.557v0c-0.132 0.55-0.473 1.015-0.953 1.309s-1.054 0.387-1.604 0.256-1.015-0.473-1.309-0.953c-0.294-0.48-0.387-1.046-0.256-1.604z"></path>
<path fill="#fff" d="M25.631 22.245l-1.596-5.408 0.721-8.213c0.054-0.651-0.426-1.224-1.077-1.286l-2.324-0.201c-0.651-0.062-1.224 0.426-1.286 1.077-0.023 0.248 0.163 0.457 0.403 0.48 0.248 0.023 0.457-0.163 0.48-0.403 0.015-0.163 0.163-0.287 0.318-0.271l0.814 0.070-5.261 4.517c-0.426 0.318-0.736 0.744-0.899 1.232l-0.876 2.402c-0.085 0.232 0.039 0.488 0.263 0.573 0.046 0.015 0.101 0.023 0.155 0.023 0.178 0 0.349-0.108 0.418-0.294l0.876-2.417c0.108-0.325 0.31-0.604 0.612-0.829l5.943-5.098 0.279 0.023c0.163 0.015 0.279 0.155 0.271 0.318l-0.69 7.849-2.751-0.24 0.364-4.246c0.023-0.248-0.163-0.457-0.403-0.48-0.248-0.023-0.457 0.163-0.48 0.403l-0.403 4.688-0.744 6.625c-0.054 0.651-0.232 1.278-0.511 1.867l-2.084 4.339c-0.015 0.023-0.023 0.054-0.031 0.077-0.085 0.333 0.085 0.682 0.411 0.798l2.231 0.837c0.178 0.070 0.38 0.054 0.55-0.031 0.155-0.077 0.271-0.217 0.325-0.387l2.309-5.176c0.147-0.325 0.232-0.674 0.263-1.030l0.054-0.697 0.186 0.736-0.093 6.253c0 0.418 0.341 0.767 0.767 0.767h2.022c0.418 0 0.767-0.341 0.767-0.767v-6.408c0.008-0.69-0.093-1.387-0.294-2.069zM25.034 30.605h-1.767l0.093-6.175c0-0.039-0.008-0.077-0.015-0.116l-0.852-3.409c-0.054-0.209-0.256-0.356-0.465-0.333-0.217 0.015-0.387 0.194-0.403 0.411l-0.279 3.386c-0.023 0.256-0.085 0.504-0.194 0.744l-2.255 5.052-1.805-0.674 1.96-4.083c0.325-0.682 0.527-1.418 0.597-2.177l0.697-6.175 2.898 0.256 1.534 5.199c0.178 0.597 0.263 1.209 0.263 1.821l-0.008 6.276z"></path>
</svg>
