<!-- Generated by IcoMoon.io -->
<svg version="1.1" xmlns="http://www.w3.org/2000/svg" width="32" height="32" viewBox="0 0 32 32">
<title>travelcast</title>
<path fill="#fff" d="M29.885 9.476h-16.79c0.488-1.185 0.736-2.154 0.736-2.89 0-3.355-2.727-6.090-6.090-6.090-3.355 0-6.090 2.727-6.090 6.090 0 0.736 0.248 1.697 0.736 2.89h-0.279c-0.721 0-1.309 0.589-1.309 1.309v19.394c0 0.721 0.589 1.309 1.309 1.309h27.77c0.721 0 1.309-0.589 1.309-1.309v-19.394c0.008-0.721-0.573-1.309-1.302-1.309zM27.56 10.104v20.765h-22.834v-16.907c0.775 1.294 1.689 2.72 2.758 4.277 0.062 0.085 0.155 0.139 0.256 0.139s0.201-0.054 0.256-0.139c2.27-3.316 3.874-6.036 4.819-8.136h14.745zM7.748 1.131c3.014 0 5.462 2.448 5.462 5.462 0 0.604-0.201 1.565-0.868 3.076 0 0 0 0 0 0.008-0.775 1.759-2.169 4.261-4.587 7.833-4.517-6.648-5.47-9.608-5.47-10.917 0-3.014 2.448-5.462 5.462-5.462zM1.433 30.187v-19.401c0-0.38 0.31-0.682 0.682-0.682h0.496c0.015 0 0.031-0.008 0.046-0.008 0.372 0.837 0.852 1.767 1.441 2.797v17.976h-1.984c-0.38 0-0.682-0.31-0.682-0.682zM30.567 30.187c0 0.38-0.31 0.682-0.682 0.682h-1.697v-20.765h1.697c0.38 0 0.682 0.31 0.682 0.682v19.401z"></path>
<path fill="#fff" d="M15.992 26.142c2.952 0 5.346-2.402 5.346-5.346 0-2.952-2.402-5.346-5.346-5.346v0c-1.426 0-2.774 0.558-3.781 1.565s-1.565 2.355-1.565 3.781c0 2.952 2.402 5.346 5.346 5.346zM12.653 17.457c0.891-0.891 2.076-1.379 3.339-1.379v0c2.603 0 4.719 2.115 4.719 4.719s-2.115 4.719-4.719 4.719-4.719-2.115-4.719-4.719c0-1.263 0.488-2.448 1.379-3.339z"></path>
<path fill="#fff" d="M14.822 23.268c0.046 0.023 0.093 0.039 0.147 0.039 0.062 0 0.124-0.015 0.178-0.054l3.13-2.177c0.085-0.062 0.132-0.155 0.132-0.256s-0.047-0.201-0.132-0.256l-3.13-2.193c-0.093-0.070-0.225-0.077-0.325-0.023s-0.17 0.163-0.17 0.279v4.37c0 0.108 0.062 0.217 0.17 0.271zM15.279 19.215l2.27 1.588-2.27 1.581v-3.169z"></path>
<path fill="#fff" d="M10.708 6.222c0-1.619-1.317-2.937-2.937-2.937s-2.937 1.317-2.937 2.937 1.317 2.937 2.937 2.937c1.619 0 2.937-1.317 2.937-2.937zM5.462 6.222c0-1.271 1.038-2.309 2.309-2.309s2.309 1.038 2.309 2.309-1.038 2.309-2.309 2.309c-1.271 0-2.309-1.030-2.309-2.309z"></path>
</svg>
