<!-- Generated by IcoMoon.io -->
<svg version="1.1" xmlns="http://www.w3.org/2000/svg" width="32" height="32" viewBox="0 0 32 32">
<title>travel-agency-01</title>
<path fill="#fff" d="M31.016 15.799h-6.617c-0.054-1.991-0.798-3.812-2.007-5.23l4.711-4.711c0.155-0.155 0.155-0.411 0-0.566s-0.411-0.155-0.566 0l-4.695 4.695c-1.41-1.364-3.293-2.224-5.377-2.332v-6.749c0-0.225-0.178-0.403-0.403-0.403s-0.403 0.178-0.403 0.403v6.741c-2.030 0.093-3.866 0.899-5.269 2.177l-4.726-4.726c-0.155-0.155-0.411-0.155-0.566 0s-0.155 0.411 0 0.566l4.726 4.726c-1.302 1.441-2.115 3.324-2.17 5.4h-6.671c-0.225 0-0.403 0.178-0.403 0.403s0.178 0.403 0.403 0.403h6.687c0.139 2.030 1.007 3.866 2.348 5.246-0.039 0.023-0.085 0.047-0.116 0.077l-4.804 4.804c-0.155 0.155-0.155 0.411 0 0.566 0.077 0.077 0.178 0.116 0.287 0.116 0.101 0 0.209-0.039 0.287-0.116l4.804-4.804c0.039-0.039 0.070-0.093 0.093-0.139 1.379 1.193 3.154 1.937 5.098 2.022v6.718c0 0.225 0.178 0.403 0.403 0.403s0.403-0.178 0.403-0.403v-6.718c1.991-0.101 3.797-0.899 5.184-2.162 0.008 0.008 0.008 0.015 0.015 0.023l4.804 4.804c0.077 0.077 0.178 0.116 0.287 0.116 0.101 0 0.209-0.039 0.287-0.116 0.155-0.155 0.155-0.411 0-0.566l-4.804-4.804c-0.008-0.008-0.015-0.008-0.023-0.015 1.24-1.356 2.038-3.115 2.169-5.052h6.64c0.225 0 0.403-0.178 0.403-0.403s-0.194-0.395-0.418-0.395zM16.023 23.593c-4.176 0-7.578-3.401-7.578-7.578s3.401-7.578 7.578-7.578 7.578 3.401 7.578 7.578-3.394 7.578-7.578 7.578z"></path>
</svg>
