<!-- Generated by IcoMoon.io -->
<svg version="1.1" xmlns="http://www.w3.org/2000/svg" width="32" height="32" viewBox="0 0 32 32">
<title>travel-search-companies</title>
<path fill="#fff" d="M18.929 6.098c-1.139-1.581-2.828-2.627-4.757-2.937s-3.859 0.147-5.439 1.286c-1.588 1.147-2.627 2.836-2.944 4.765-0.31 1.929 0.147 3.859 1.294 5.439 1.139 1.581 2.828 2.627 4.757 2.937 0.395 0.062 0.79 0.093 1.178 0.093 1.519 0 2.999-0.473 4.261-1.379 1.581-1.147 2.627-2.836 2.937-4.765s-0.147-3.859-1.286-5.439zM19.324 11.398c-0.271 1.689-1.185 3.169-2.572 4.169s-3.076 1.402-4.765 1.131-3.169-1.185-4.169-2.572v0c-1-1.387-1.402-3.076-1.131-4.765s1.185-3.169 2.572-4.169c1.1-0.798 2.394-1.216 3.727-1.216 0.341 0 0.69 0.031 1.030 0.085 1.689 0.271 3.169 1.185 4.169 2.572 1.007 1.379 1.41 3.076 1.139 4.765z"></path>
<path fill="#fff" d="M28.459 27.971v0l-8.004-11.111c2.999-3.44 3.247-8.539 0.55-12.265-3.192-4.416-9.375-5.416-13.792-2.224-2.131 1.542-3.541 3.828-3.959 6.431s0.201 5.215 1.743 7.353c2.689 3.727 7.609 5.098 11.816 3.332l8.035 11.088c0.426 0.589 1.093 0.922 1.798 0.922 0.186 0 0.38-0.023 0.566-0.070 0.256-0.070 0.511-0.186 0.744-0.349 0.992-0.721 1.216-2.115 0.504-3.107zM27.429 30.342c-0.132 0.093-0.287 0.17-0.442 0.209-0.535 0.139-1.085-0.062-1.402-0.504l-8.252-11.382c-0.085-0.124-0.225-0.186-0.364-0.186-0.062 0-0.132 0.015-0.194 0.039-3.89 1.798-8.531 0.589-11.041-2.89-1.402-1.945-1.968-4.316-1.588-6.679s1.666-4.44 3.603-5.842c4.006-2.898 9.631-1.991 12.521 2.022 2.51 3.479 2.208 8.275-0.728 11.398-0.147 0.155-0.163 0.395-0.039 0.573l8.213 11.405c0.426 0.581 0.294 1.41-0.287 1.836z"></path>
<path fill="#fff" d="M14.931 5.137c-1.751-0.643-3.688-0.372-5.191 0.713-0.201 0.147-0.248 0.426-0.101 0.635 0.085 0.124 0.225 0.186 0.364 0.186 0.093 0 0.186-0.031 0.263-0.085 1.263-0.907 2.882-1.131 4.347-0.597 0.232 0.085 0.496-0.039 0.581-0.271 0.093-0.232-0.031-0.496-0.263-0.581z"></path>
</svg>
