<!-- Generated by IcoMoon.io -->
<svg version="1.1" xmlns="http://www.w3.org/2000/svg" width="32" height="32" viewBox="0 0 32 32">
<title>travel-intent</title>
<path fill="#fff" d="M24.841 9.662l-1.216-0.473c-0.217-0.085-0.457-0.101-0.682-0.039l-12.839 3.44-1.914-2.402c-0.349-0.449-0.93-0.651-1.488-0.504-0.232 0.062-0.442 0.186-0.612 0.349-0.093 0.093-0.132 0.232-0.101 0.356l0.922 3.432c0.178 0.674 0.628 1.271 1.232 1.65 0.434 0.271 0.907 0.403 1.387 0.403 0.217 0 0.434-0.031 0.643-0.085l2.712-0.728c0.248 0.108 0.597 0.163 1.030 0.17 0.015 0 0.023 0 0.039 0 0.697 0 1.581-0.132 2.479-0.372 1.054-0.279 2.627-0.876 3.161-1.596l4.138-1.108c0.225-0.062 0.426-0.194 0.566-0.372l0.845-1.015c0.139-0.17 0.186-0.403 0.124-0.628s-0.217-0.395-0.426-0.48zM16.24 14.156c-1.782 0.48-2.867 0.372-3.099 0.225 0.132-0.24 1.007-0.876 2.797-1.348 1.79-0.48 2.867-0.372 3.099-0.225-0.132 0.232-1.007 0.868-2.797 1.348zM23.733 11.32c-0.054 0.062-0.116 0.108-0.194 0.132l-3.828 1.023c-0.442-0.837-2.658-0.504-3.952-0.155-0.914 0.248-1.759 0.581-2.363 0.938-0.674 0.395-1.007 0.79-0.984 1.178l-2.417 0.651c-1 0.271-2.084-0.395-2.363-1.449l-0.852-3.192c0.039-0.023 0.085-0.039 0.132-0.054 0.271-0.070 0.55 0.023 0.721 0.248l2.061 2.596c0.093 0.116 0.24 0.163 0.38 0.124l13.063-3.502c0.077-0.023 0.163-0.015 0.232 0.015l1.216 0.434-0.852 1.015z"></path>
<path fill="#fff" d="M11.979 22.586c-1.379 0-2.51 1.123-2.51 2.51 0 1.379 1.123 2.51 2.51 2.51s2.51-1.123 2.51-2.51-1.123-2.51-2.51-2.51zM11.979 26.871c-0.976 0-1.774-0.798-1.774-1.774s0.798-1.774 1.774-1.774 1.774 0.798 1.774 1.774-0.79 1.774-1.774 1.774z"></path>
<path fill="#fff" d="M7.252 26.135c-1.054 0-1.914 0.86-1.914 1.914s0.86 1.914 1.914 1.914 1.914-0.86 1.914-1.914c-0.008-1.054-0.86-1.914-1.914-1.914zM7.252 29.226c-0.651 0-1.178-0.527-1.178-1.178s0.527-1.178 1.178-1.178 1.178 0.527 1.178 1.178c0 0.651-0.527 1.178-1.178 1.178z"></path>
<path fill="#fff" d="M27.312 8.631c-0.573-3.386-3.533-5.904-6.997-5.904-1.054 0-2.092 0.232-3.030 0.682-1.263-0.891-2.735-1.364-4.285-1.364-3.216 0-6.082 2.1-7.051 5.137-3.115 0.473-5.439 3.161-5.439 6.354 0 3.541 2.882 6.431 6.431 6.431 0.93 0 1.852-0.201 2.689-0.589 1.573 1.937 3.882 3.037 6.384 3.037 2.627 0 5.075-1.247 6.625-3.347 0.922 0.589 1.984 0.899 3.092 0.899 3.184 0 5.772-2.588 5.772-5.772-0.008-2.611-1.72-4.858-4.192-5.563zM25.724 19.231c-1.077 0-2.1-0.333-2.968-0.969-0.077-0.062-0.186-0.085-0.279-0.062-0.101 0.015-0.186 0.077-0.24 0.155-1.395 2.084-3.719 3.324-6.23 3.324-2.371 0-4.556-1.085-5.989-2.983-0.070-0.093-0.178-0.147-0.294-0.147-0.054 0-0.116 0.015-0.17 0.039-0.814 0.426-1.697 0.635-2.627 0.635-3.138 0-5.695-2.557-5.695-5.695 0-2.898 2.162-5.331 5.036-5.656 0.147-0.016 0.271-0.124 0.31-0.263 0.814-2.844 3.456-4.835 6.423-4.835 1.464 0 2.859 0.465 4.029 1.348 0.116 0.085 0.263 0.101 0.387 0.031 0.883-0.457 1.883-0.697 2.898-0.697 3.177 0 5.889 2.371 6.307 5.517 0.023 0.147 0.132 0.271 0.279 0.31 2.278 0.542 3.866 2.557 3.866 4.905 0 2.782-2.262 5.044-5.044 5.044z"></path>
</svg>
