<!-- Generated by IcoMoon.io -->
<svg version="1.1" xmlns="http://www.w3.org/2000/svg" width="32" height="32" viewBox="0 0 32 32">
<title>travel-intelligence</title>
<path fill="#fff" d="M16.86 21.594c0 0.475-0.385 0.86-0.86 0.86s-0.86-0.385-0.86-0.86c0-0.475 0.385-0.86 0.86-0.86s0.86 0.385 0.86 0.86z"></path>
<path fill="#fff" d="M31.496 18.952v0-15.434c0-0.953-0.775-1.72-1.72-1.72h-27.553c-0.953 0-1.72 0.775-1.72 1.72v18.937c0 0.953 0.775 1.72 1.72 1.72h9.468v1.72c0 0.302-0.163 0.845-0.333 1.1l-0.767 1.147c-0.31 0.457-0.356 0.969-0.124 1.395s0.674 0.666 1.232 0.666h8.6c0.55 0 1-0.24 1.232-0.666 0.225-0.426 0.178-0.93-0.124-1.395l-0.767-1.147c-0.17-0.256-0.333-0.798-0.333-1.1v-1.72h9.461c0.953 0 1.72-0.775 1.72-1.72l0.008-3.502zM2.224 2.487h27.545c0.566 0 1.030 0.465 1.030 1.030v15.086h-29.606v-15.086c0-0.566 0.465-1.030 1.030-1.030zM20.060 27.382l0.767 1.147c0.163 0.248 0.194 0.488 0.093 0.682s-0.325 0.302-0.62 0.302h-8.608c-0.294 0-0.519-0.108-0.62-0.302s-0.070-0.434 0.093-0.682l0.767-1.147c0.24-0.364 0.449-1.046 0.449-1.48v-1.72h7.229v1.72c0 0.434 0.209 1.116 0.449 1.48zM29.769 23.485h-27.545c-0.566 0-1.030-0.465-1.030-1.030v-3.154h29.606v3.154c0 0.573-0.457 1.030-1.030 1.030z"></path>
<path fill="#fff" d="M5.734 8.794h8.624c0.194 0 0.349-0.155 0.349-0.349s-0.155-0.349-0.349-0.349h-8.624c-0.194 0-0.349 0.155-0.349 0.349s0.155 0.349 0.349 0.349z"></path>
<path fill="#fff" d="M5.734 11.088h8.624c0.194 0 0.349-0.155 0.349-0.349s-0.155-0.349-0.349-0.349h-8.624c-0.194 0-0.349 0.155-0.349 0.349s0.155 0.349 0.349 0.349z"></path>
<path fill="#fff" d="M5.734 13.373h8.624c0.194 0 0.349-0.155 0.349-0.349s-0.155-0.349-0.349-0.349h-8.624c-0.194 0-0.349 0.155-0.349 0.349s0.155 0.349 0.349 0.349z"></path>
<path fill="#fff" d="M21.858 15.078c1.953 0 3.603-1.294 4.153-3.068 0-0.008 0.008-0.008 0.008-0.015s0-0.015 0-0.023c0.116-0.387 0.178-0.806 0.178-1.232 0-2.394-1.945-4.339-4.339-4.339-1.17 0-2.231 0.465-3.014 1.216-0.023 0.016-0.047 0.023-0.070 0.046s-0.031 0.046-0.047 0.070c-0.752 0.783-1.216 1.844-1.216 3.006 0.008 2.394 1.953 4.339 4.347 4.339zM19.045 8.415l1.976 1.976h-2.797c0.077-0.744 0.372-1.426 0.821-1.976zM21.858 14.388c-1.898 0-3.456-1.449-3.634-3.301h3.58l3.425 1.038c-0.535 1.325-1.844 2.262-3.37 2.262zM25.507 10.739c0 0.248-0.023 0.488-0.070 0.721l-3.394-1.023-2.51-2.51c0.635-0.519 1.441-0.837 2.324-0.837 2.015 0 3.649 1.635 3.649 3.649z"></path>
</svg>
