<!-- Generated by IcoMoon.io -->
<svg version="1.1" xmlns="http://www.w3.org/2000/svg" width="32" height="32" viewBox="0 0 32 32">
<title>tree</title>
<path fill="#fff" d="M24.887 14.729c0-2.735-0.938-6.369-2.386-9.267-1.759-3.525-3.99-5.462-6.268-5.462-3.061 0-5.354 3.355-6.454 5.354-1.619 2.944-2.665 6.625-2.665 9.383 0 5.168 3.657 9.461 8.252 9.832v5.594h-4.672c-0.232 0-0.418 0.186-0.418 0.418s0.186 0.418 0.418 0.418h9.98c0.232 0 0.418-0.186 0.418-0.418s-0.186-0.418-0.418-0.418h-4.478v-5.571c4.796-0.124 8.693-4.533 8.693-9.863zM7.942 14.729c0-5.23 4.014-13.9 8.291-13.9 1.945 0 3.913 1.774 5.524 5.005 1.395 2.789 2.301 6.284 2.301 8.895 0 4.874-3.525 8.903-7.864 9.019v-5.377c0.023-0.015 0.054-0.031 0.077-0.054l4.447-4.951c0.155-0.17 0.139-0.434-0.031-0.589s-0.434-0.139-0.589 0.031l-3.905 4.347v-4.409l2.782-2.797c0.163-0.163 0.163-0.426 0-0.589s-0.426-0.163-0.589 0l-2.193 2.2v-1.41c0-0.232-0.186-0.418-0.418-0.418s-0.418 0.186-0.418 0.418v2.975l-1.844-2.278c-0.147-0.178-0.411-0.209-0.589-0.062s-0.209 0.411-0.062 0.589l2.495 3.076v5.129l-3.897-4.347c-0.155-0.17-0.418-0.186-0.589-0.031s-0.186 0.418-0.031 0.589l4.447 4.951c0.023 0.023 0.046 0.039 0.077 0.054v2.921c-4.138-0.372-7.423-4.285-7.423-8.988z"></path>
</svg>
