<!-- Generated by IcoMoon.io -->
<svg version="1.1" xmlns="http://www.w3.org/2000/svg" width="32" height="32" viewBox="0 0 32 32">
<title>tribe</title>
<path fill="#fff" d="M29.521 0.976c-0.093-0.077-0.209-0.101-0.325-0.077-0.062 0.015-5.029 1.123-9.662 1.596l0.116-1.581c0.008-0.108-0.031-0.209-0.101-0.287s-0.17-0.124-0.279-0.124h-6.842c-0.108 0-0.209 0.046-0.287 0.124-0.070 0.077-0.108 0.186-0.101 0.294l0.147 1.542c-4.548-0.48-9.321-1.55-9.383-1.565-0.108-0.023-0.232 0-0.318 0.070-0.093 0.070-0.147 0.178-0.147 0.294 0 0.039-0.062 3.975 0.395 8.686 0.62 6.354 1.836 11.010 3.618 13.838 3.789 6.020 9.306 7.624 9.538 7.686 0.031 0.008 0.070 0.015 0.101 0.015s0.070-0.008 0.101-0.015c0.24-0.062 5.834-1.619 9.546-7.694 3.657-5.966 3.998-21.834 4.014-22.508 0.008-0.108-0.039-0.217-0.132-0.294zM18.859 1.271l-1.1 15.233h-3.432l-1.48-15.233h6.013zM16.031 27.8c-1.139 0-2.084 0.837-2.262 1.929-0.318-0.17-0.659-0.372-1.023-0.597 0.418-1.441 1.759-2.464 3.285-2.464s2.859 1.023 3.285 2.464c-0.356 0.225-0.705 0.418-1.023 0.597-0.178-1.1-1.123-1.929-2.262-1.929zM16 30.714c-0.217-0.070-0.759-0.256-1.503-0.612v-0.008c0-0.845 0.682-1.526 1.526-1.526s1.526 0.69 1.526 1.526v0c-0.759 0.364-1.325 0.55-1.55 0.62zM27.243 16.883h-4.021v8.918c-1.077 1.224-2.2 2.169-3.247 2.89-0.581-1.643-2.162-2.789-3.944-2.789s-3.355 1.147-3.944 2.789c-1.069-0.736-2.239-1.72-3.347-2.983v-8.825h-4.153c-1.387-6.106-1.48-13.257-1.48-15.132 1.333 0.287 5.338 1.1 9.166 1.495l1.333 13.676c0.015 0.194 0.186 0.349 0.38 0.349h4.138c0.201 0 0.364-0.155 0.38-0.356l0.984-13.645c3.882-0.38 8.019-1.224 9.406-1.511-0.070 1.914-0.38 9.151-1.65 15.124z"></path>
<path fill="#fff" d="M19.603 18.588h-7.353c-0.535 0-0.969 0.434-0.969 0.969v1.093c0 0.535 0.434 0.969 0.969 0.969h7.353c0.535 0 0.969-0.434 0.969-0.969v-1.093c0-0.535-0.442-0.969-0.969-0.969z"></path>
<path fill="#fff" d="M19.983 11.196c0.992 0.411 2.108 0.612 3.231 0.589v0c1.263-0.023 2.503-0.24 3.215-0.527 0.535-0.225 0.519-0.852 0.023-1.062-0.992-0.411-2.107-0.612-3.231-0.589v0c-1.263 0.023-2.503 0.24-3.215 0.527-0.535 0.217-0.519 0.852-0.023 1.062z"></path>
<path fill="#fff" d="M11.971 10.189c-0.992-0.411-2.107-0.612-3.231-0.589v0c-1.263 0.023-2.503 0.24-3.216 0.527-0.535 0.225-0.519 0.852-0.023 1.062 0.992 0.411 2.107 0.612 3.231 0.589v0c1.263-0.023 2.503-0.24 3.216-0.527 0.535-0.217 0.519-0.852 0.023-1.062z"></path>
</svg>
