<!-- Generated by IcoMoon.io -->
<svg version="1.1" xmlns="http://www.w3.org/2000/svg" width="32" height="32" viewBox="0 0 32 32">
<title>truck</title>
<path fill="#fff" d="M31.481 18.464c0-0.015 0-0.039-0.008-0.054l-3.014-10.119c-0.147-0.504-0.62-0.852-1.139-0.852h-7.911c-0.659 0-1.193 0.535-1.193 1.193v6.989h-1.914c0.054-0.139 0.085-0.294 0.085-0.449v-5.067c0-0.728-0.597-1.325-1.325-1.325h-1.821v-0.046c0-0.728-0.597-1.325-1.325-1.325h-2.030c-0.728 0-1.325 0.597-1.325 1.325v0.046h-1.821c-0.728 0-1.325 0.597-1.325 1.325v5.067c0 0.163 0.031 0.31 0.085 0.449h-3.913c-0.597 0-1.085 0.488-1.085 1.085v4.812c0 0.597 0.488 1.085 1.085 1.085h2.534c0.201 1.139 1.201 1.999 2.394 1.999s2.185-0.86 2.394-1.999h8.105c0.209 1.131 1.201 1.999 2.394 1.999 1.201 0 2.193-0.876 2.394-2.015h8.492c0.666 0 1.209-0.542 1.209-1.209v-2.844c-0.008-0.031-0.015-0.054-0.023-0.070zM9.43 8.732c0-0.248 0.201-0.457 0.457-0.457h2.030c0.248 0 0.457 0.201 0.457 0.457v0.046h-2.944v-0.046zM6.284 15.163v-5.067c0-0.248 0.201-0.457 0.457-0.457h8.329c0.248 0 0.457 0.201 0.457 0.457v5.067c0 0.248-0.194 0.442-0.442 0.449h-8.36c-0.248 0-0.442-0.201-0.442-0.449zM6.508 23.725c-0.86 0-1.565-0.705-1.565-1.565s0.705-1.565 1.565-1.565 1.565 0.697 1.565 1.565v0 0c0 0.86-0.705 1.565-1.565 1.565zM19.401 23.725c-0.86 0-1.565-0.705-1.565-1.565s0.705-1.565 1.565-1.565c0.86 0 1.565 0.705 1.565 1.565s-0.705 1.565-1.565 1.565zM30.288 21.71h-8.5c-0.209-1.123-1.201-1.984-2.386-1.984-1.193 0-2.185 0.868-2.394 1.999h-8.105c-0.209-1.131-1.201-1.999-2.394-1.999s-2.185 0.86-2.394 1.999h-2.534c-0.116 0-0.217-0.093-0.217-0.217v-4.812c0-0.116 0.093-0.217 0.217-0.217h5.129c0.008 0 0.016 0 0.023 0s0.008 0 0.016 0h8.298c0.008 0 0.015 0 0.015 0 0.015 0 0.023 0 0.039 0h3.549c0.24 0 0.434-0.194 0.434-0.434v-7.423c0-0.178 0.147-0.325 0.325-0.325h7.911c0.147 0 0.271 0.093 0.31 0.232l2.999 10.057v2.774c0 0.194-0.155 0.349-0.341 0.349z"></path>
<path fill="#fff" d="M27.072 11.32c-0.194-0.682-0.829-1.162-1.534-1.162h-3.053c-0.697 0-1.263 0.566-1.263 1.263v5.199c0 0.108 0.047 0.217 0.116 0.302l1.774 1.875c0.085 0.085 0.194 0.139 0.318 0.139h4.2c0.387 0 0.744-0.178 0.976-0.488s0.302-0.697 0.201-1.069l-1.736-6.059zM27.909 17.922c-0.070 0.085-0.17 0.139-0.279 0.139h-4.014l-1.526-1.612v-5.029c0-0.217 0.178-0.395 0.395-0.395h3.053c0.325 0 0.612 0.217 0.697 0.527l1.736 6.059c0.031 0.108 0.008 0.217-0.062 0.31z"></path>
</svg>
