<!-- Generated by IcoMoon.io -->
<svg version="1.1" xmlns="http://www.w3.org/2000/svg" width="32" height="32" viewBox="0 0 32 32">
<title>tv</title>
<path fill="#fff" d="M14.512 16.209c0.093 0.101 0.209 0.147 0.333 0.147 0.108 0 0.225-0.039 0.31-0.124l2.898-2.689c0.147-0.132 0.225-0.31 0.225-0.504s-0.077-0.372-0.225-0.504l-2.898-2.696c-0.186-0.17-0.473-0.163-0.643 0.023s-0.163 0.473 0.023 0.643l2.72 2.526-2.72 2.526c-0.186 0.178-0.194 0.465-0.023 0.651z"></path>
<path fill="#fff" d="M29.435 3.006h-26.871c-1.139 0-2.061 0.922-2.061 2.061v15.589c0 1.139 0.922 2.061 2.061 2.061h10.646v3.843h-3.866c-0.674 0-1.216 0.55-1.216 1.216s0.542 1.216 1.216 1.216h13.42c0.674 0 1.216-0.55 1.216-1.216s-0.542-1.216-1.216-1.216h-3.789v-3.843h10.46c1.139 0 2.061-0.922 2.061-2.061v-15.589c0-1.139-0.922-2.061-2.061-2.061zM18.518 27.475h4.246c0.17 0 0.302 0.139 0.302 0.302s-0.139 0.302-0.302 0.302h-13.412c-0.17 0-0.302-0.139-0.302-0.302s0.139-0.302 0.302-0.302h4.323c0.256 0 0.457-0.201 0.457-0.457v-4.3h3.936v4.3c0 0.248 0.201 0.457 0.449 0.457zM30.582 20.649c0 0.635-0.519 1.147-1.147 1.147h-26.871c-0.635 0-1.147-0.519-1.147-1.147v-15.582c0-0.635 0.519-1.147 1.147-1.147h26.871c0.635 0 1.147 0.519 1.147 1.147v15.582z"></path>
<path fill="#fff" d="M27.39 6.199h-22.648c-0.256 0-0.457 0.201-0.457 0.457v12.405c0 0.256 0.201 0.457 0.457 0.457h22.648c0.256 0 0.457-0.201 0.457-0.457v-12.405c0-0.248-0.201-0.457-0.457-0.457zM26.933 18.603h-21.741v-11.491h21.741v11.491z"></path>
</svg>
