<!-- Generated by IcoMoon.io -->
<svg version="1.1" xmlns="http://www.w3.org/2000/svg" width="32" height="32" viewBox="0 0 32 32">
<title>twitter</title>
<path fill="#fff" d="M31.403 6.524c-0.116-0.139-0.302-0.178-0.465-0.108-0.604 0.263-1.224 0.473-1.86 0.635 0.713-0.721 1.255-1.588 1.573-2.565 0.054-0.155 0-0.333-0.132-0.434s-0.31-0.116-0.449-0.031c-1.123 0.651-2.332 1.123-3.603 1.395-1.232-1.201-2.913-1.891-4.657-1.891-3.634 0-6.594 2.913-6.594 6.501 0 0.318 0.023 0.643 0.070 0.961-4.657-0.364-8.996-2.603-11.971-6.191-0.085-0.101-0.209-0.163-0.341-0.139-0.132 0.008-0.248 0.085-0.31 0.194-0.589 0.992-0.891 2.123-0.891 3.27 0 1.681 0.659 3.277 1.805 4.471-0.442-0.124-0.868-0.294-1.263-0.511-0.124-0.070-0.271-0.070-0.395 0.008-0.124 0.070-0.194 0.201-0.194 0.341v0.077c0 2.479 1.441 4.703 3.603 5.796-0.318-0.008-0.635-0.039-0.961-0.101-0.139-0.031-0.279 0.023-0.372 0.132s-0.124 0.256-0.077 0.387c0.752 2.293 2.712 3.967 5.060 4.401-1.96 1.263-4.215 1.922-6.594 1.922-0.48 0-0.961-0.031-1.433-0.085-0.186-0.023-0.364 0.085-0.426 0.263s0.008 0.372 0.163 0.473c2.906 1.829 6.261 2.797 9.708 2.797 11.281 0 18.022-9.027 18.022-17.743 0-0.194 0-0.395-0.008-0.589 1.185-0.891 2.193-1.945 3.014-3.154 0.101-0.147 0.093-0.341-0.023-0.48zM27.777 9.616c-0.108 0.077-0.17 0.209-0.17 0.341 0.008 0.256 0.015 0.511 0.015 0.767 0 7.035-5.346 16.945-17.224 16.945-2.735 0-5.408-0.635-7.833-1.852 2.836-0.039 5.517-0.969 7.748-2.689 0.132-0.101 0.186-0.279 0.132-0.442s-0.201-0.271-0.372-0.271c-2.255-0.039-4.261-1.364-5.176-3.347 0.775 0.062 1.542-0.008 2.286-0.201 0.178-0.047 0.302-0.217 0.294-0.403s-0.139-0.341-0.325-0.38c-2.503-0.496-4.362-2.557-4.618-5.013 0.744 0.31 1.55 0.488 2.363 0.511 0.17-0.008 0.341-0.108 0.395-0.279s-0.016-0.356-0.163-0.457c-1.612-1.062-2.58-2.836-2.58-4.742 0-0.814 0.178-1.619 0.519-2.355 3.208 3.618 7.795 5.819 12.668 6.059 0.124 0.008 0.248-0.046 0.325-0.139s0.108-0.225 0.085-0.349c-0.101-0.426-0.147-0.86-0.147-1.302 0-3.138 2.596-5.695 5.796-5.695 1.596 0 3.138 0.659 4.23 1.805 0.093 0.101 0.232 0.139 0.364 0.116 1.054-0.201 2.076-0.535 3.037-0.992-0.488 0.876-1.216 1.619-2.107 2.146-0.163 0.093-0.232 0.294-0.178 0.473 0.062 0.178 0.232 0.287 0.426 0.271 0.806-0.093 1.588-0.263 2.355-0.496-0.62 0.736-1.34 1.395-2.146 1.968z"></path>
</svg>
