<!-- Generated by IcoMoon.io -->
<svg version="1.1" xmlns="http://www.w3.org/2000/svg" width="32" height="32" viewBox="0 0 32 32">
<title>umbrella</title>
<path fill="#fff" d="M16.411 2.076v-1.201c0-0.209-0.17-0.372-0.372-0.372s-0.372 0.17-0.372 0.372v1.201c-8.058 0.178-14.559 6.787-14.559 14.884 0 0.209 0.17 0.372 0.372 0.372h14.133v11.359c0 1.131-0.922 2.053-2.053 2.053s-2.053-0.922-2.053-2.053c0-0.209-0.17-0.372-0.372-0.372s-0.372 0.17-0.372 0.372c0 1.542 1.255 2.797 2.797 2.797s2.797-1.255 2.797-2.797v-11.359h14.164c0.209 0 0.372-0.17 0.372-0.372 0-8.074-6.462-14.667-14.481-14.884zM9.794 16.589c0.124-6.88 3.711-11.893 6.268-13.761 0.008 0 0.008 0 0.015 0 4.463 3.177 6.175 9.786 6.276 13.761h-12.56zM14.838 2.867c-2.898 2.549-5.672 7.554-5.78 13.722h-7.198c0.186-7.237 5.842-13.141 12.978-13.722zM23.097 16.589c-0.108-6.16-2.875-11.165-5.772-13.714 7.059 0.659 12.63 6.524 12.816 13.714h-7.043z"></path>
</svg>
