<!-- Generated by IcoMoon.io -->
<svg version="1.1" xmlns="http://www.w3.org/2000/svg" width="32" height="32" viewBox="0 0 32 32">
<title>unaccompanied-minor</title>
<path fill="#fff" d="M5.548 5.509c0.736 0 1.348-0.279 1.627-0.969 0.108-0.279 0.124-0.558 0.124-0.876l0.008-3.030c0-0.108-0.039-0.132-0.116-0.132h-0.318c-0.093 0-0.132 0.031-0.132 0.132v3.045c0 0.883-0.426 1.294-1.185 1.294-0.783 0-1.17-0.465-1.17-1.294v-3.045c0-0.108-0.046-0.132-0.124-0.132h-0.325c-0.093 0-0.124 0.031-0.124 0.132v3.030c0 0.325 0.039 0.62 0.139 0.891 0.217 0.635 0.767 0.953 1.596 0.953z"></path>
<path fill="#fff" d="M8.484 5.455h0.31c0.085 0 0.124-0.031 0.124-0.124v-3.781h0.023l0.434 0.713 1.999 3.076c0.054 0.085 0.093 0.116 0.194 0.116h0.287c0.085 0 0.116-0.031 0.116-0.116v-4.703c0-0.108-0.039-0.132-0.116-0.132h-0.318c-0.093 0-0.124 0.031-0.124 0.132v3.735h-0.023l-0.395-0.628-2.030-3.123c-0.046-0.070-0.085-0.116-0.186-0.116h-0.31c-0.077 0-0.116 0.046-0.116 0.108v4.711c0 0.101 0.046 0.132 0.132 0.132z"></path>
<path fill="#fff" d="M22.601 6.214c1.534 0 2.782-1.247 2.782-2.782s-1.247-2.789-2.782-2.789-2.782 1.247-2.782 2.782 1.247 2.789 2.782 2.789zM22.601 1.441c1.093 0 1.991 0.891 1.991 1.991s-0.891 1.991-1.991 1.991-1.991-0.891-1.991-1.991 0.899-1.991 1.991-1.991z"></path>
<path fill="#fff" d="M6.129 11.351c0 1.147 0.938 2.084 2.084 2.084s2.084-0.938 2.084-2.084-0.938-2.084-2.084-2.084-2.084 0.938-2.084 2.084zM8.205 10.065c0.713 0 1.286 0.573 1.286 1.286s-0.573 1.286-1.286 1.286-1.286-0.573-1.286-1.286 0.581-1.286 1.286-1.286z"></path>
<path fill="#fff" d="M28.203 16.449v-6.408c0-0.969-0.279-1.736-0.837-2.278-0.814-0.798-1.922-0.79-1.96-0.79h-5.602c-0.047 0-1.154-0.016-1.968 0.783-0.55 0.542-0.837 1.309-0.837 2.278v2.828l-5.013 4.819v-1.689c0-0.721-0.209-1.286-0.628-1.689-0.612-0.597-1.441-0.589-1.464-0.589h-3.657c-0.039 0-0.868-0.008-1.48 0.589-0.411 0.403-0.628 0.976-0.628 1.697v4.509c0 0.062-0.016 0.643 0.395 1.069 0.124 0.124 0.31 0.271 0.589 0.349l-0.821 4.316c-0.023 0.116 0.008 0.24 0.085 0.325 0.077 0.093 0.186 0.147 0.31 0.147h1.371v3.068c-0.008 0.077-0.031 0.759 0.434 1.255 0.287 0.302 0.682 0.457 1.178 0.457h1.069c0.496 0 0.891-0.155 1.178-0.457 0.465-0.496 0.434-1.178 0.434-1.232v-3.092h1.371c0.116 0 0.232-0.054 0.31-0.147s0.108-0.209 0.085-0.325l-1.836-9.561c-0.039-0.217-0.248-0.356-0.465-0.318s-0.356 0.248-0.318 0.465l1.743 9.089h-1.286c-0.217 0-0.395 0.178-0.395 0.395v3.518c0 0.008 0.015 0.418-0.217 0.666-0.132 0.139-0.325 0.209-0.597 0.209h-1.069c-0.271 0-0.465-0.070-0.597-0.209-0.24-0.248-0.217-0.659-0.217-0.69v-3.494c0-0.217-0.178-0.395-0.395-0.395h-1.294l0.814-4.254c0.023-0.116-0.008-0.24-0.085-0.325-0.077-0.093-0.186-0.147-0.31-0.147-0.217 0-0.38-0.054-0.488-0.163-0.178-0.186-0.178-0.488-0.178-0.504v-4.525c0-0.496 0.124-0.868 0.38-1.116 0.364-0.364 0.914-0.364 0.914-0.364h3.673c0.015 0 0.542 0.008 0.907 0.364 0.248 0.248 0.38 0.628 0.38 1.116v2.627c0 0.163 0.093 0.302 0.24 0.364s0.318 0.031 0.434-0.077l5.811-5.586c0.077-0.077 0.124-0.178 0.124-0.287v-2.999c0-0.744 0.201-1.317 0.589-1.705 0.573-0.566 1.395-0.558 1.41-0.566h5.625c0 0 0.829-0.008 1.402 0.566 0.387 0.387 0.589 0.961 0.589 1.705v6.423c0 0.008 0.008 0.496-0.294 0.806-0.178 0.186-0.457 0.287-0.814 0.287h-1.232c-0.217 0-0.395 0.178-0.395 0.395v11.343c0 0.008 0.031 0.651-0.349 1.061-0.217 0.232-0.542 0.349-0.969 0.349h-1.511c-0.527 0-0.922-0.116-1.131-0.341-0.201-0.209-0.186-0.465-0.186-0.504v-17.728c0-0.217-0.178-0.395-0.395-0.395s-0.395 0.178-0.395 0.395v17.689c-0.008 0.062-0.039 0.604 0.387 1.069 0.372 0.403 0.953 0.612 1.728 0.612h1.511c0.651 0 1.178-0.201 1.55-0.597 0.62-0.659 0.573-1.612 0.566-1.627v-10.933h0.829c0.581 0 1.046-0.178 1.387-0.527 0.535-0.558 0.511-1.356 0.511-1.371z"></path>
</svg>
