<!-- Generated by IcoMoon.io -->
<svg version="1.1" xmlns="http://www.w3.org/2000/svg" width="32" height="32" viewBox="0 0 32 32">
<title>university</title>
<path fill="#fff" d="M31.093 12.079l-15.008-5.044c-0.124-0.039-0.256-0.039-0.38 0l-14.799 5.013c-0.24 0.077-0.403 0.302-0.403 0.558s0.163 0.48 0.403 0.558l4.812 1.627v3.944c0 0.023 0.008 0.047 0.016 0.077-0.426 0.163-0.728 0.566-0.728 1.046 0 0.248 0.077 0.473 0.217 0.659l-0.62 3.184c-0.046 0.325 0.054 0.651 0.271 0.899s0.527 0.387 0.852 0.387h0.752c0.325 0 0.635-0.139 0.852-0.387s0.31-0.573 0.263-0.922l-0.62-3.076c0.17-0.194 0.279-0.449 0.279-0.728 0-0.48-0.302-0.891-0.736-1.054 0.008-0.023 0.016-0.047 0.016-0.077v-3.673l1.162 0.395v5.687c0 1.426 1.162 2.588 2.588 2.588h11.762c1.426 0 2.588-1.162 2.588-2.588v-5.811l6.454-2.139c0.24-0.077 0.403-0.302 0.403-0.558 0.008-0.263-0.155-0.488-0.395-0.566zM6.71 24.066c-0.039 0.039-0.108 0.108-0.232 0.108h-0.752c-0.124 0-0.201-0.070-0.232-0.108-0.039-0.039-0.093-0.124-0.077-0.225l0.558-2.867c0.054 0.008 0.108 0.015 0.163 0.015 0.031 0 0.062-0.008 0.093-0.008l0.558 2.836c0.008 0.124-0.046 0.209-0.077 0.248zM23.826 21.153c0 0.976-0.798 1.774-1.774 1.774h-11.762c-0.976 0-1.774-0.798-1.774-1.774v-5.408l7.19 2.433c0.062 0.023 0.124 0.031 0.186 0.031s0.124-0.008 0.186-0.031l7.74-2.572v5.548h0.008zM15.899 17.379l-8.5-2.875 6.261-2.115c0.217-0.070 0.325-0.302 0.256-0.519s-0.302-0.325-0.519-0.256l-7.276 2.456-4.324-1.464 14.094-4.773 14.295 4.804-14.288 4.742z"></path>
</svg>
