<!-- Generated by IcoMoon.io -->
<svg version="1.1" xmlns="http://www.w3.org/2000/svg" width="32" height="32" viewBox="0 0 32 32">
<title>upgrade</title>
<path fill="#fff" d="M22.532 6.439l-0.659 2.1-0.015 0.062c-0.054 0.294 0.070 0.597 0.31 0.775 0.248 0.178 0.566 0.209 0.845 0.062l1.906-1.286 1.906 1.286c0.116 0.062 0.24 0.093 0.372 0.093 0.163 0 0.333-0.054 0.473-0.155 0.248-0.178 0.364-0.473 0.31-0.775l-0.674-2.162 1.805-1.371 0.039-0.039c0.217-0.209 0.294-0.519 0.201-0.814s-0.341-0.496-0.643-0.542l-2.317-0.023-0.736-2.131-0.023-0.054c-0.132-0.271-0.411-0.442-0.713-0.442v0c-0.302 0-0.581 0.17-0.713 0.442l-0.759 2.185-2.255 0.015-0.062 0.008c-0.302 0.046-0.55 0.248-0.643 0.542-0.093 0.287-0.015 0.604 0.201 0.814l1.844 1.41zM23.624 4.602l0.062-0.008c0.24-0.039 0.449-0.186 0.566-0.403l0.666-1.914 0.643 1.852 0.023 0.054c0.108 0.217 0.318 0.372 0.566 0.403l2.007 0.016-1.55 1.178-0.039 0.039c-0.178 0.17-0.256 0.418-0.217 0.659l0.581 1.883-1.674-1.108c-0.217-0.116-0.473-0.116-0.69 0l-1.658 1.116 0.566-1.821 0.015-0.062c0.039-0.24-0.039-0.488-0.217-0.659l-1.596-1.216 1.945-0.008z"></path>
<path fill="#fff" d="M30.334 22.702c-0.023-0.008-0.155-0.039-0.333-0.047-0.062-0.008-0.116-0.023-0.186-0.023h-1.069c0 0-0.070 0-0.178 0.015-0.062 0-0.124 0-0.186 0.008l-3.68 0.364-0.713-2.441-2.139-5.865v-3.742c0-0.837-0.558-2.084-2.084-2.084-0.837 0-2.084 0.558-2.084 2.084v4.037c0 0.031 0.008 0.341 0.124 0.705 0.023 0.132 0.062 0.248 0.101 0.364l3.75 10.313c0.015 0.031 0.124 0.325 0.372 0.635 0.256 0.372 0.759 0.806 1.666 0.814h1.774v2.193h-2.65c-0.263 0-0.473 0.209-0.473 0.473s0.209 0.473 0.473 0.473h6.090c0.263 0 0.473-0.209 0.473-0.473s-0.209-0.473-0.473-0.473h-2.487v-2.193h2.937c0.69-0.031 1.193-0.449 1.371-1.116l0.721-2.115c0.155-0.604-0.008-1.604-1.116-1.906zM30.543 24.329l-0.721 2.115c-0.077 0.294-0.232 0.434-0.488 0.442h-5.633c-0.418 0-0.713-0.139-0.899-0.418-0.008-0.008-0.015-0.023-0.023-0.031-0.155-0.194-0.232-0.38-0.232-0.38l-3.75-10.305c-0.031-0.085-0.054-0.17-0.070-0.248-0.008-0.023-0.008-0.046-0.015-0.062-0.077-0.232-0.085-0.434-0.085-0.434v-4.037c0-1.077 0.953-1.139 1.147-1.147 1.077 0 1.139 0.953 1.147 1.147v3.828c0 0.054 0.015 0.124 0.031 0.17l2.154 5.904 0.814 2.789c0.062 0.217 0.271 0.364 0.496 0.341l4.068-0.403c0.039 0 0.077 0 0.108 0s0.062 0 0.085-0.008c0.047-0.008 0.085-0.008 0.085-0.008l1.077 0.008c0.031 0.008 0.054 0.008 0.124 0.015 0.077 0 0.132 0.015 0.155 0.023 0.488 0.124 0.465 0.511 0.426 0.697z"></path>
<path fill="#fff" d="M10.251 24.252c-0.023-0.008-0.132-0.031-0.263-0.039-0.054-0.008-0.101-0.015-0.163-0.015h-0.814c0 0-0.054 0-0.139 0.008-0.046 0-0.093 0-0.147 0.008l-2.696 0.271-0.511-1.767-1.612-4.432v-2.82c0-0.682-0.449-1.697-1.697-1.697-0.682 0-1.697 0.449-1.697 1.697v3.053c0 0.031 0.008 0.271 0.101 0.566 0.015 0.093 0.046 0.186 0.077 0.287l2.851 7.826c0.008 0.023 0.101 0.263 0.294 0.511 0.209 0.302 0.62 0.659 1.356 0.659h1.24v1.433h-1.906c-0.263 0-0.473 0.209-0.473 0.473s0.209 0.473 0.473 0.473h4.618c0.263 0 0.473-0.209 0.473-0.473s-0.209-0.473-0.473-0.473h-1.782v-1.433h2.123c0.581-0.031 1-0.372 1.139-0.922l0.55-1.612c0.132-0.504 0-1.333-0.922-1.581zM10.274 25.553l-0.55 1.612c-0.046 0.178-0.124 0.248-0.263 0.256h-4.269c-0.372 0-0.511-0.155-0.589-0.263-0.008-0.008-0.016-0.023-0.023-0.031-0.108-0.132-0.155-0.256-0.155-0.256v0l-2.844-7.826c-0.023-0.062-0.039-0.116-0.046-0.17-0.008-0.023-0.008-0.047-0.016-0.062-0.054-0.155-0.062-0.294-0.062-0.294v-3.061c0-0.666 0.535-0.752 0.752-0.752 0.666 0 0.752 0.535 0.752 0.752v2.906c0 0.054 0.015 0.116 0.031 0.17l1.627 4.478 0.612 2.115c0.062 0.217 0.271 0.364 0.496 0.341l3.084-0.31c0.023 0 0.046 0 0.070 0 0.031 0 0.062 0 0.085-0.008 0.031-0.008 0.046-0.008 0.046-0.008h0.798c0.023 0.008 0.085 0.015 0.108 0.015 0.046 0 0.077 0.008 0.093 0.008 0.085 0.015 0.333 0.085 0.263 0.387z"></path>
<path fill="#fff" d="M15.985 18.526c-0.023-0.054-0.062-0.108-0.101-0.155l-3.285-3.285c-0.186-0.186-0.48-0.186-0.666 0s-0.186 0.48 0 0.666l2.479 2.479h-7.748c-0.263 0-0.473 0.209-0.473 0.473s0.209 0.473 0.473 0.473h7.748l-2.479 2.479c-0.186 0.186-0.186 0.48 0 0.666 0.093 0.093 0.209 0.139 0.333 0.139s0.24-0.047 0.333-0.139l3.285-3.285c0.046-0.047 0.077-0.093 0.101-0.155 0.054-0.108 0.054-0.24 0-0.356z"></path>
</svg>
