<!-- Generated by IcoMoon.io -->
<svg version="1.1" xmlns="http://www.w3.org/2000/svg" width="32" height="32" viewBox="0 0 32 32">
<title>usb-key</title>
<path fill="#fff" d="M31.163 10.731h-7.376v-1.565c0-0.186-0.147-0.333-0.333-0.333h-16.705c-3.448 0-6.245 2.805-6.245 6.245v1.821c0 3.448 2.805 6.245 6.245 6.245h16.705c0.186 0 0.333-0.147 0.333-0.333v-1.65h7.384c0.186 0 0.333-0.147 0.333-0.333v-9.763c-0.008-0.186-0.155-0.333-0.341-0.333zM23.121 22.501h-16.372c-3.076 0-5.586-2.51-5.586-5.586v-1.821c0-3.084 2.503-5.586 5.586-5.586h16.372v12.994zM30.838 20.517h-7.051v-9.127h7.051v9.127z"></path>
<path fill="#fff" d="M25.352 15.574h2.991c0.449 0 0.814-0.364 0.814-0.814v-0.271c0-0.449-0.364-0.814-0.814-0.814h-2.991c-0.186 0-0.333 0.147-0.333 0.333v1.232c0 0.186 0.147 0.333 0.333 0.333zM25.677 14.35h2.665c0.085 0 0.147 0.070 0.147 0.147v0.271c0 0.085-0.070 0.147-0.147 0.147h-2.665v-0.566z"></path>
<path fill="#fff" d="M25.352 18.278h2.991c0.449 0 0.814-0.364 0.814-0.814v-0.263c0-0.449-0.364-0.814-0.814-0.814h-2.991c-0.186 0-0.333 0.147-0.333 0.333v1.232c0 0.178 0.147 0.325 0.333 0.325zM25.677 17.054h2.665c0.085 0 0.147 0.070 0.147 0.147v0.271c0 0.085-0.070 0.147-0.147 0.147h-2.665v-0.566z"></path>
</svg>
