<!-- Generated by IcoMoon.io -->
<svg version="1.1" xmlns="http://www.w3.org/2000/svg" width="32" height="32" viewBox="0 0 32 32">
<title>user-question</title>
<path fill="#fff" d="M16.248 13.187c3.494 0 6.346-2.844 6.346-6.346 0-3.494-2.844-6.346-6.346-6.346-3.494 0-6.346 2.844-6.346 6.346s2.851 6.346 6.346 6.346zM16.248 1.426c2.991 0 5.424 2.433 5.424 5.424s-2.433 5.424-5.424 5.424-5.424-2.433-5.424-5.424c0-2.991 2.433-5.424 5.424-5.424z"></path>
<path fill="#fff" d="M20.184 14.404h-8.074c-4.54 0-8.236 3.556-8.236 7.926v8.701c0 0.256 0.209 0.457 0.457 0.457h23.322c0.256 0 0.457-0.209 0.457-0.457v-8.701c0.015-4.447-3.471-7.926-7.926-7.926zM27.204 30.574h-22.408v-8.244c0-3.866 3.277-7.012 7.314-7.012h8.074c3.936 0 7.020 3.076 7.020 7.012v8.244z"></path>
<path fill="#fff" d="M15.659 27.026c-0.589 0-0.938 0.356-0.938 0.953 0 0.876 0.659 0.969 0.938 0.969s0.938-0.093 0.938-0.969c0.008-0.829-0.581-0.953-0.938-0.953z"></path>
<path fill="#fff" d="M16.225 17.193c-0.48 0-1.457 0.054-2.061 0.256-0.132 0.039-0.411 0.17-0.403 0.612l0.015 0.132c0 0.17 0.070 0.318 0.186 0.418 0.085 0.077 0.24 0.155 0.442 0.124 0.48-0.047 1.48-0.077 1.743-0.077 1.604 0 1.821 0.643 1.821 1.278 0 0.496-0.31 0.759-0.821 1.154l-0.163 0.124c-1.364 1.061-2.030 2.177-2.030 3.409v1.278c0 0.023 0 0.047 0.008 0.070 0.046 0.31 0.248 0.488 0.55 0.488h0.287c0.279 0 0.558-0.194 0.558-0.573v-1.093c0.015-1.162 0.674-1.891 1.666-2.619 0 0 0 0 0.008 0 0.527-0.403 1.41-1.069 1.41-2.317-0.015-1.96-1.666-2.665-3.215-2.665z"></path>
</svg>
