<!-- Generated by IcoMoon.io -->
<svg version="1.1" xmlns="http://www.w3.org/2000/svg" width="32" height="32" viewBox="0 0 32 32">
<title>value-tag-01</title>
<path fill="#fff" d="M29.598 21.106l-1.48-1.333v-11.018c0-1.511-0.845-4.37-4.037-4.37-2.092 0-3.076 1.209-3.541 2.216-0.488 1.062-0.488 2.107-0.488 2.154v3.75l-2.139-1.922v-8.112c0-0.527-0.194-1.015-0.55-1.387-0.364-0.372-0.845-0.581-1.364-0.581-0.511 0-1 0.209-1.356 0.581s-0.55 0.868-0.55 1.387v8.112l-11.692 10.522c-0.426 0.38-0.659 0.891-0.666 1.441 0 0.55 0.232 1.061 0.659 1.449 0.116 0.108 0.294 0.132 0.434 0.062l11.258-5.625v7.919c-3.022 2.665-3.022 2.673-3.045 2.689-0.457 0.504-0.504 1.224-0.101 1.798 0.418 0.604 1.178 0.829 1.836 0.558l3.223-1.34 3.223 1.34c0.186 0.077 0.38 0.116 0.573 0.116 0.488 0 0.961-0.24 1.263-0.674 0.403-0.573 0.356-1.294-0.108-1.805-0.015-0.015-0.015-0.015-3.037-2.681v-7.919l2.139 1.069v1.325c0 0.217 0.17 0.387 0.387 0.387h3.037l5.695 2.851c0.139 0.070 0.318 0.047 0.434-0.062 0.426-0.387 0.659-0.899 0.659-1.449 0-0.558-0.24-1.069-0.666-1.449zM17.697 17.449c-0.116-0.062-0.263-0.054-0.38 0.015s-0.186 0.194-0.186 0.333v8.717c0 0.108 0.047 0.217 0.132 0.294 0 0 3.076 2.712 3.123 2.751 0.325 0.349 0.108 0.721 0.039 0.821-0.178 0.256-0.527 0.442-0.907 0.287l-3.37-1.402c-0.047-0.023-0.101-0.031-0.147-0.031-0.054 0-0.101 0.008-0.147 0.031l-3.37 1.402c-0.38 0.155-0.728-0.031-0.907-0.287-0.070-0.101-0.287-0.473 0.015-0.798 0.070-0.062 3.146-2.774 3.146-2.774 0.085-0.077 0.132-0.178 0.132-0.294v-8.717c0-0.132-0.070-0.256-0.186-0.333-0.116-0.070-0.256-0.077-0.38-0.015l-11.56 5.78c-0.147-0.201-0.232-0.434-0.232-0.682 0-0.325 0.147-0.628 0.403-0.868l11.816-10.63c0.085-0.070 0.132-0.178 0.132-0.287v-8.291c0-0.318 0.116-0.62 0.333-0.845 0.426-0.442 1.17-0.449 1.604 0 0.217 0.225 0.333 0.527 0.333 0.845v8.291c0 0.108 0.047 0.217 0.132 0.287l2.789 2.51v5.067l-2.355-1.178zM20.827 8.755c0-0.147 0.047-3.595 3.254-3.595s3.254 3.448 3.254 3.595v11.669h-6.516v-11.669h0.008zM29.257 23.229l-4.045-2.022h2.518c0.217 0 0.387-0.17 0.387-0.387l0.961 0.868c0.263 0.232 0.403 0.542 0.403 0.86 0.008 0.248-0.077 0.48-0.225 0.682z"></path>
<path fill="#fff" d="M24.089 9.259c0.829 0 1.511-0.674 1.511-1.511s-0.674-1.511-1.511-1.511c-0.829 0-1.511 0.674-1.511 1.511s0.674 1.511 1.511 1.511zM24.089 7.012c0.403 0 0.736 0.325 0.736 0.736s-0.325 0.736-0.736 0.736c-0.403 0-0.736-0.325-0.736-0.736s0.325-0.736 0.736-0.736z"></path>
<path fill="#fff" d="M26.359 14.667h-1.813v-1.798c0-0.124-0.039-0.17-0.147-0.17h-0.511c-0.139 0-0.163 0.062-0.163 0.17v1.798h-1.86c-0.108 0-0.163 0.023-0.163 0.163v0.434c0 0.108 0.062 0.147 0.163 0.147h1.86v1.898c0 0.108 0.023 0.17 0.163 0.17h0.511c0.108 0 0.147-0.077 0.147-0.17v-1.898h1.813c0.124 0 0.186-0.039 0.186-0.147v-0.434c0-0.139-0.062-0.163-0.186-0.163z"></path>
</svg>
