<!-- Generated by IcoMoon.io -->
<svg version="1.1" xmlns="http://www.w3.org/2000/svg" width="32" height="32" viewBox="0 0 32 32">
<title>value-tag-02</title>
<path fill="#fff" d="M16 0.504c-3.758 0-5.54 2.17-6.369 3.983-0.883 1.929-0.891 3.835-0.891 3.913v22.687c0 0.225 0.186 0.411 0.411 0.411h13.714c0.225 0 0.411-0.186 0.411-0.411v-22.679c-0.008-0.085-0.093-7.903-7.276-7.903zM22.447 30.683h-12.893v-22.276c0-0.015 0.015-1.829 0.829-3.595 1.069-2.309 2.96-3.487 5.617-3.487s4.548 1.17 5.617 3.487c0.821 1.774 0.829 3.58 0.829 3.595v22.276z"></path>
<path fill="#fff" d="M16 9.019c1.387 0 2.518-1.131 2.518-2.518s-1.131-2.518-2.518-2.518-2.518 1.131-2.518 2.518 1.131 2.518 2.518 2.518zM16 4.804c0.938 0 1.705 0.767 1.705 1.705s-0.767 1.705-1.705 1.705-1.705-0.767-1.705-1.705 0.767-1.705 1.705-1.705z"></path>
<path fill="#fff" d="M20.285 19.51h-3.401v-3.378c0-0.232-0.070-0.325-0.279-0.325h-0.953c-0.256 0-0.302 0.116-0.302 0.325v3.378h-3.494c-0.209 0-0.302 0.047-0.302 0.302v0.814c0 0.209 0.116 0.279 0.302 0.279h3.487v3.58c0 0.209 0.046 0.325 0.302 0.325h0.953c0.209 0 0.279-0.139 0.279-0.325v-3.572h3.401c0.232 0 0.349-0.070 0.349-0.279v-0.814c0.008-0.263-0.108-0.31-0.341-0.31z"></path>
</svg>
