<!-- Generated by IcoMoon.io -->
<svg version="1.1" xmlns="http://www.w3.org/2000/svg" width="32" height="32" viewBox="0 0 32 32">
<title>video</title>
<path fill="#fff" d="M21.354 0.504c-3.905 0-7.082 3.177-7.082 7.074 0 3.905 3.177 7.082 7.082 7.082s7.074-3.177 7.074-7.082c0.008-3.897-3.169-7.074-7.074-7.074zM21.354 13.745c-3.401 0-6.168-2.766-6.168-6.168s2.766-6.16 6.168-6.16 6.168 2.766 6.168 6.16c0 3.401-2.766 6.168-6.168 6.168z"></path>
<path fill="#fff" d="M6.106 14.784c3.061 0 5.548-2.487 5.548-5.548s-2.487-5.548-5.548-5.548-5.548 2.487-5.548 5.548 2.487 5.548 5.548 5.548zM6.106 4.602c2.557 0 4.633 2.076 4.633 4.633s-2.076 4.633-4.633 4.633-4.633-2.076-4.633-4.633 2.076-4.633 4.633-4.633z"></path>
<path fill="#fff" d="M21.354 5.982c-0.883 0-1.604 0.721-1.604 1.604s0.721 1.604 1.604 1.604 1.604-0.721 1.604-1.604-0.713-1.604-1.604-1.604z"></path>
<path fill="#fff" d="M6.106 10.313c0.589 0 1.077-0.488 1.077-1.077s-0.48-1.077-1.077-1.077-1.077 0.488-1.077 1.077 0.48 1.077 1.077 1.077z"></path>
<path fill="#fff" d="M22.78 15.675h-18.154c-1.364 0-2.472 1.108-2.472 2.472v10.878c0 1.364 1.108 2.472 2.472 2.472h18.154c1.364 0 2.472-1.108 2.472-2.472v-10.878c0-1.364-1.108-2.472-2.472-2.472zM24.337 29.025c0 0.86-0.697 1.557-1.557 1.557h-18.154c-0.86 0-1.557-0.697-1.557-1.557v-10.878c0-0.86 0.697-1.557 1.557-1.557h18.154c0.86 0 1.557 0.697 1.557 1.557v10.878z"></path>
<path fill="#fff" d="M31.217 16.976c-0.139-0.085-0.31-0.085-0.449-0.015l-3.828 2.030 0.426 0.806 3.154-1.674v11.103l-3.184-1.689-0.426 0.806 3.859 2.046c0.070 0.039 0.139 0.054 0.217 0.054 0.085 0 0.163-0.023 0.232-0.062 0.139-0.085 0.225-0.232 0.225-0.395v-12.622c0-0.155-0.085-0.302-0.225-0.387z"></path>
</svg>
