<!-- Generated by IcoMoon.io -->
<svg version="1.1" xmlns="http://www.w3.org/2000/svg" width="32" height="32" viewBox="0 0 32 32">
<title>video-advertising</title>
<path fill="#fff" d="M29.187 4.215h-26.375c-1.271 0-2.309 1.038-2.309 2.309v18.96c0 1.271 1.038 2.309 2.309 2.309h26.375c1.271 0 2.309-1.038 2.309-2.309v-18.96c0-1.278-1.038-2.309-2.309-2.309zM30.861 25.476c0 0.922-0.752 1.674-1.674 1.674h-26.375c-0.922 0-1.674-0.752-1.674-1.674v-18.952c0-0.922 0.752-1.674 1.674-1.674h26.375c0.922 0 1.674 0.752 1.674 1.674v18.952z"></path>
<path fill="#fff" d="M26.917 8.422h-21.834c-0.178 0-0.318 0.139-0.318 0.318v14.52c0 0.178 0.139 0.318 0.318 0.318h21.834c0.178 0 0.318-0.139 0.318-0.318v-14.52c0-0.178-0.147-0.318-0.318-0.318zM26.6 22.942h-21.199v-13.885h21.199v13.885z"></path>
<path fill="#fff" d="M16.713 25.453c0 0.394-0.319 0.713-0.713 0.713s-0.713-0.319-0.713-0.713c0-0.394 0.319-0.713 0.713-0.713s0.713 0.319 0.713 0.713z"></path>
<path fill="#fff" d="M13.877 7.090h4.246c0.178 0 0.318-0.139 0.318-0.318s-0.139-0.318-0.318-0.318h-4.246c-0.178 0-0.318 0.139-0.318 0.318s0.147 0.318 0.318 0.318z"></path>
<path fill="#fff" d="M12.219 20.44h7.562c1.263 0 2.286-1.023 2.286-2.286v-4.316c0-1.263-1.023-2.286-2.286-2.286h-7.562c-1.263 0-2.286 1.023-2.286 2.286v4.316c0 1.263 1.023 2.286 2.286 2.286zM10.569 13.846c0-0.914 0.744-1.658 1.658-1.658h7.562c0.914 0 1.658 0.744 1.658 1.658v4.316c0 0.914-0.744 1.658-1.658 1.658h-7.562c-0.914 0-1.658-0.744-1.658-1.658v-4.316z"></path>
<path fill="#fff" d="M14.644 18.301c0.101 0.062 0.209 0.093 0.325 0.093 0.093 0 0.194-0.023 0.287-0.070l3.2-1.635c0.209-0.108 0.341-0.318 0.341-0.558 0-0.232-0.132-0.449-0.341-0.558l-3.208-1.627c-0.194-0.101-0.418-0.093-0.612 0.023-0.186 0.116-0.302 0.31-0.302 0.535v3.27c0.008 0.209 0.124 0.411 0.31 0.527zM14.977 17.767l-0.015-3.262 3.192 1.619-3.177 1.643z"></path>
</svg>
