<!-- Generated by IcoMoon.io -->
<svg version="1.1" xmlns="http://www.w3.org/2000/svg" width="32" height="32" viewBox="0 0 32 32">
<title>vip</title>
<path fill="#fff" d="M15.799 25.933h-14.892c-0.225 0-0.403 0.178-0.403 0.403s0.178 0.403 0.403 0.403h14.892c0.225 0 0.403-0.178 0.403-0.403s-0.186-0.403-0.403-0.403z"></path>
<path fill="#fff" d="M5.664 22.671c0.031 0.116 0.147 0.209 0.294 0.209h0.821c0.116 0 0.209-0.062 0.232-0.178l5.075-13.993c0.031-0.147 0.062-0.209-0.147-0.209h-0.62c-0.209 0-0.263 0.085-0.294 0.209l-4.595 13.017h-0.062l-4.68-12.986c-0.062-0.178-0.147-0.209-0.294-0.209h-0.705c-0.116 0-0.147 0.062-0.116 0.147l5.091 13.993z"></path>
<path fill="#fff" d="M15.977 22.88c0.116 0 0.147-0.031 0.147-0.178v-13.993c0-0.116 0-0.178-0.116-0.178h-0.705c-0.147 0-0.178 0.031-0.178 0.178v13.993c0 0.147 0.031 0.178 0.178 0.178h0.674z"></path>
<path fill="#fff" d="M15.62 3.936c-0.589 0-0.705 0.325-0.705 0.736s0.085 0.798 0.705 0.798 0.736-0.356 0.736-0.798-0.116-0.736-0.736-0.736z"></path>
<path fill="#fff" d="M27.258 8.236c-2.301 0-4.564 1.209-5.889 2.007v-1.565c0-0.147 0-0.178-0.147-0.178h-0.767c-0.085 0-0.085 0.031-0.085 0.178v19.208c0 0.147 0 0.178 0.085 0.178h0.736c0.147 0 0.147-0.031 0.147-0.178v-5.625l0.085-0.031c1.852 0.798 3.626 0.914 4.773 0.914 4.215 0 5.3-2.565 5.3-7.686 0-4.982-1-7.221-4.238-7.221zM26.375 22.23c-1.472 0-3.061-0.263-5.005-0.852v-10.197c1.030-0.589 3.921-2.007 5.656-2.007 2.324 0 3.417 1.441 3.417 6.183-0.008 4.843-1.007 6.873-4.068 6.873z"></path>
</svg>
