<!-- Generated by IcoMoon.io -->
<svg version="1.1" xmlns="http://www.w3.org/2000/svg" width="32" height="32" viewBox="0 0 32 32">
<title>warning</title>
<path fill="#fff" d="M31.326 27.707l-14.241-24.67c-0.225-0.395-0.635-0.628-1.085-0.628s-0.86 0.232-1.085 0.628l-14.241 24.67c-0.225 0.395-0.225 0.86 0 1.255s0.635 0.628 1.085 0.628h28.482c0.449 0 0.86-0.232 1.085-0.628s0.225-0.86 0-1.255zM30.528 28.498c-0.031 0.047-0.116 0.17-0.287 0.17h-28.482c-0.17 0-0.263-0.116-0.287-0.17-0.031-0.054-0.085-0.186 0-0.333l14.241-24.662c0.085-0.147 0.232-0.17 0.287-0.17s0.201 0.015 0.287 0.17l14.241 24.662c0.093 0.155 0.031 0.287 0 0.333z"></path>
<path fill="#fff" d="M15.861 22.625h0.24c0.263 0 0.55-0.186 0.55-0.581l0.31-10.995c0.023-0.17-0.023-0.341-0.132-0.465-0.108-0.132-0.271-0.209-0.442-0.209h-0.705c-0.364 0-0.612 0.263-0.612 0.643l0.217 11.018c0 0.333 0.248 0.589 0.573 0.589z"></path>
<path fill="#fff" d="M15.923 23.748c-0.713 0-1.116 0.418-1.116 1.139 0 1.015 0.697 1.162 1.116 1.162s1.116-0.147 1.116-1.162c0-0.945-0.604-1.139-1.116-1.139z"></path>
</svg>
