<!-- Generated by IcoMoon.io -->
<svg version="1.1" xmlns="http://www.w3.org/2000/svg" width="32" height="32" viewBox="0 0 32 32">
<title>water</title>
<path fill="#fff" d="M16.891 0.876c-0.24-0.24-0.573-0.38-0.914-0.372-0.325 0.008-0.628 0.147-0.829 0.364-3.665 3.634-11.281 11.188-11.281 18.495 0 6.694 5.447 12.134 12.134 12.134s12.134-5.447 12.134-12.134c0-7.245-7.314-14.559-11.243-18.487zM16 30.691c-6.245 0-11.328-5.083-11.328-11.328 0-6.966 7.454-14.365 11.057-17.937 0.070-0.070 0.163-0.116 0.263-0.116h0.008c0.116 0 0.232 0.046 0.318 0.132 3.851 3.851 11.010 11.010 11.010 17.914 0 6.253-5.083 11.336-11.328 11.336z"></path>
<path fill="#fff" d="M16 27.336c-4.401 0-7.981-3.58-7.981-7.981 0-0.225-0.178-0.403-0.403-0.403s-0.403 0.178-0.403 0.403c0 4.843 3.944 8.786 8.786 8.786 0.225 0 0.403-0.178 0.403-0.403s-0.178-0.403-0.403-0.403z"></path>
</svg>
