<!-- Generated by IcoMoon.io -->
<svg version="1.1" xmlns="http://www.w3.org/2000/svg" width="32" height="32" viewBox="0 0 32 32">
<title>weapons-control</title>
<path fill="#fff" d="M25.468 10.197h-17.209c-0.108 0-0.209 0.046-0.287 0.124-0.070 0.077-0.108 0.186-0.101 0.294 0.008 0.046 0.008 0.101 0.008 0.147 0 0.488-0.178 0.806-1.061 0.806-0.070 0-0.139-0.008-0.209-0.015-0.108-0.015-0.225 0.015-0.31 0.093-0.085 0.070-0.132 0.178-0.132 0.294v1.325c0 0.217 0.17 0.387 0.387 0.387h0.395c-0.031 0.054-0.062 0.108-0.093 0.17-0.318 0.736-0.504 1.247-0.519 1.278-0.163 0.519-0.124 1.619 1.201 2.069 1.085 0.364 0.976 0.682 0.752 1.379-0.101 0.31-0.318 0.93-0.566 1.658-0.442 1.278-0.992 2.867-1.24 3.688-0.271 0.891-0.085 1.41 0.124 1.681 0.217 0.294 0.558 0.465 0.914 0.465h4.029c0.945 0 1.278-0.759 1.333-1.193l0.876-3.797c2.944-0.023 4.92-0.736 5.013-3.959h5.416c0.93 0 1.488-0.558 1.488-1.488 0-0.535 0-1.472 0-1.991 0.55-0.101 0.969-0.581 0.969-1.162v-1.092c0.008-0.628-0.527-1.162-1.178-1.162zM13.931 20.3l0.573-2.479c0-0.015 0.031-0.139 0.124-0.279 0.287 0.635 0.79 1.17 1.433 1.472 0.054 0.023 0.108 0.039 0.163 0.039 0.147 0 0.287-0.085 0.349-0.217 0.093-0.194 0.008-0.426-0.186-0.511-0.504-0.24-0.891-0.666-1.092-1.178 0.062-0.008 0.132-0.023 0.209-0.023h2.495c-0.070 2.286-1.139 3.123-4.068 3.177zM24.19 16.349h-8.686c-1.193 0-1.674 0.868-1.751 1.317l-1.627 7.059c0 0.015-0.008 0.031-0.008 0.047-0.015 0.124-0.101 0.527-0.573 0.527h-4.029c-0.016 0-0.178-0.008-0.294-0.155-0.139-0.194-0.147-0.55-0.008-1 0.248-0.814 0.79-2.394 1.232-3.665 0.256-0.736 0.473-1.364 0.573-1.674 0.287-0.883 0.426-1.782-1.24-2.348-0.891-0.302-0.744-0.976-0.713-1.092 0-0.008 0.186-0.511 0.496-1.216 0.209-0.48 0.945-0.48 0.969-0.48v0 0h16.372c0 0.519 0 1.441 0 1.968 0.008 0.496-0.209 0.713-0.713 0.713zM25.879 12.475c0 0.225-0.186 0.411-0.411 0.411h-18.518v-0.535c1.325-0.046 1.643-0.806 1.697-1.379h16.821c0.225 0 0.411 0.186 0.411 0.411v1.092z"></path>
<path fill="#fff" d="M28.451 7.431h-6.369v-1.046c0-1.767-1.193-3.045-2.844-3.045h-6.075c-1.728 0-3.254 1.426-3.254 3.045v1.046h-6.361c-1.681 0-3.045 1.364-3.045 3.045v15.14c0 1.681 1.364 3.045 3.045 3.045h24.903c1.681 0 3.045-1.364 3.045-3.045v-15.14c0-1.681-1.364-3.045-3.045-3.045zM10.685 6.385c0-1.209 1.154-2.27 2.479-2.27h6.075c1.201 0 2.069 0.953 2.069 2.27v1.046h-10.623v-1.046zM30.722 25.616c0 1.255-1.023 2.27-2.27 2.27h-24.903c-1.255 0-2.27-1.023-2.27-2.27v-15.14c0-1.255 1.023-2.27 2.27-2.27h24.903c1.255 0 2.27 1.023 2.27 2.27v15.14z"></path>
</svg>
