<!-- Generated by IcoMoon.io -->
<svg version="1.1" xmlns="http://www.w3.org/2000/svg" width="32" height="32" viewBox="0 0 32 32">
<title>wheel-drive</title>
<path fill="#fff" d="M29.311 14.892l-4.076-1.147c-0.008 0-0.015-0.008-0.031-0.008-0.194-0.031-0.372-0.101-0.542-0.201l-4.432-2.758c-1.542-0.961-2.425-1.511-4.207-1.565v-1.162h1.123c0.155 0 0.279-0.124 0.279-0.279s-0.124-0.279-0.279-0.279h-13.273c-0.155 0-0.279 0.124-0.279 0.279s0.124 0.279 0.279 0.279h1.077v1.162h-0.457c-0.682 0-1.302 0.403-1.565 1.038-0.403 0.945-0.945 2.534-1.216 4.695-0.256 2.046-0.364 3.355-0.403 4.091-0.039 0.581 0.349 1.1 0.907 1.247l2.634 0.674c0.147 0.039 0.294-0.054 0.333-0.201s-0.054-0.294-0.201-0.333l-2.634-0.674c-0.302-0.077-0.511-0.364-0.496-0.682 0.046-0.728 0.155-2.022 0.403-4.052 0.263-2.092 0.783-3.626 1.17-4.54 0.178-0.426 0.597-0.697 1.062-0.697h11.258c1.813 0 2.611 0.496 4.192 1.48l4.432 2.758c0.225 0.139 0.465 0.232 0.721 0.279l4.076 1.147c0.008 0 0.015 0.008 0.031 0.008 1.007 0.17 1.743 1.038 1.743 2.061v2.727c0 0.194-0.139 0.364-0.333 0.395l-1.449 0.24c-0.008 0-0.023 0.008-0.031 0.008-0.015 0.008-0.039 0.008-0.054 0.023-0.015 0.008-0.031 0.015-0.039 0.031-0.015 0.008-0.023 0.023-0.039 0.039-0.008 0.015-0.023 0.031-0.031 0.047s-0.015 0.031-0.023 0.047c-0.008 0.015-0.008 0.039-0.008 0.054 0 0.008-0.008 0.023-0.008 0.031 0 1.557-1.263 2.82-2.82 2.82s-2.82-1.263-2.82-2.82 1.263-2.82 2.82-2.82c0.155 0 0.279-0.124 0.279-0.279s-0.124-0.279-0.279-0.279c-1.86 0-3.378 1.511-3.378 3.378s1.511 3.378 3.378 3.378c1.782 0 3.239-1.387 3.363-3.138l1.232-0.201c0.465-0.077 0.798-0.473 0.798-0.938v-2.727c0-1.317-0.922-2.41-2.185-2.634zM5.501 8.050h9.98v1.162h-9.98v-1.162z"></path>
<path fill="#fff" d="M21.842 20.85h-9.825c-0.155 0-0.279 0.124-0.279 0.279 0 1.557-1.263 2.82-2.82 2.82s-2.82-1.263-2.82-2.82 1.263-2.82 2.82-2.82c0.155 0 0.279-0.124 0.279-0.279s-0.124-0.279-0.279-0.279c-1.86 0-3.378 1.511-3.378 3.378s1.511 3.378 3.378 3.378c1.767 0 3.223-1.364 3.363-3.099h9.561c0.155 0 0.279-0.124 0.279-0.279-0.008-0.155-0.132-0.279-0.279-0.279z"></path>
<path fill="#fff" d="M22.958 14.977c0.124-0.155 0.163-0.356 0.108-0.55l-0.008-0.015c-0.124-0.442-0.411-0.821-0.798-1.062l-3.239-2.007c-0.232-0.139-0.496-0.225-0.752-0.24l-1.449-0.132c-0.194-0.015-0.387 0.062-0.527 0.201s-0.209 0.333-0.201 0.535l0.163 2.611c0.023 0.418 0.356 0.736 0.775 0.744l5.424 0.155c0.008 0 0.008 0 0.015 0 0.194 0.008 0.372-0.085 0.488-0.24zM22.524 14.644c-0.008 0.015-0.031 0.023-0.054 0.023l-5.424-0.155c-0.124 0-0.232-0.101-0.24-0.232l-0.163-2.611c0-0.054 0.023-0.093 0.039-0.108s0.047-0.039 0.093-0.039c0 0 0 0 0.008 0l1.449 0.132c0.178 0.008 0.349 0.062 0.496 0.155l3.239 2.007c0.271 0.17 0.473 0.434 0.558 0.744l0.008 0.015c0.015 0.039 0 0.054-0.008 0.070z"></path>
<path fill="#fff" d="M11.855 15.016c0.17 0.077 0.356 0.116 0.542 0.116l2.355 0.023c0.186 0 0.372-0.077 0.496-0.217 0.132-0.139 0.201-0.325 0.186-0.511l-0.178-3.061c-0.039-0.597-0.527-1.062-1.123-1.069l-3.262-0.031c0 0 0 0-0.008 0-0.426 0-0.783 0.325-0.821 0.752l-0.209 2.464c-0.031 0.387 0.186 0.744 0.542 0.899l1.48 0.635zM10.592 11.064c0.015-0.139 0.132-0.248 0.263-0.248v0l3.262 0.031c0.302 0 0.558 0.24 0.581 0.55l0.178 3.061c0 0.054-0.023 0.085-0.039 0.101s-0.046 0.039-0.101 0.039v0l-2.348-0.023c-0.116 0-0.225-0.023-0.333-0.070l-1.48-0.635c-0.139-0.062-0.217-0.201-0.209-0.349l0.225-2.456z"></path>
<path fill="#fff" d="M8.151 14.086c0.403 0 0.744-0.294 0.806-0.69l0.411-2.487c0.031-0.178-0.023-0.356-0.139-0.496s-0.287-0.217-0.465-0.217h-4.037c-0.387 0-0.728 0.263-0.829 0.635l-0.736 2.751c-0.023 0.077-0.008 0.17 0.046 0.232s0.132 0.108 0.209 0.108l4.703 0.163c0.015 0 0.023 0 0.031 0zM4.432 10.979c0.039-0.132 0.155-0.232 0.294-0.232h4.037c0.023 0 0.039 0.015 0.046 0.023s0.015 0.031 0.015 0.054l-0.411 2.487c-0.023 0.132-0.139 0.225-0.271 0.225l-4.362-0.147 0.651-2.41z"></path>
<path fill="#fff" d="M2.030 10.545c-0.147-0.039-0.294 0.054-0.333 0.201l-1.185 4.843c-0.039 0.147 0.054 0.294 0.201 0.333 0.023 0.008 0.046 0.008 0.062 0.008 0.124 0 0.24-0.085 0.271-0.209l1.185-4.843c0.031-0.147-0.054-0.294-0.201-0.333z"></path>
</svg>
