<!-- Generated by IcoMoon.io -->
<svg version="1.1" xmlns="http://www.w3.org/2000/svg" width="32" height="32" viewBox="0 0 32 32">
<title>wifi</title>
<path fill="#fff" d="M3.223 22.64c-2.309 1.123-3.277 3.921-2.154 6.23 0.542 1.123 1.495 1.96 2.665 2.371 0.496 0.17 1.015 0.256 1.526 0.256 0.697 0 1.387-0.155 2.038-0.473 1.123-0.542 1.96-1.495 2.371-2.665 0.411-1.178 0.333-2.441-0.217-3.564-1.123-2.309-3.913-3.277-6.23-2.154zM8.662 28.010c-0.318 0.907-0.961 1.643-1.829 2.061s-1.844 0.48-2.751 0.163-1.643-0.961-2.061-1.829c-0.868-1.782-0.124-3.944 1.666-4.812 0.504-0.248 1.038-0.364 1.565-0.364 1.333 0 2.619 0.744 3.247 2.022 0.418 0.868 0.48 1.852 0.163 2.758z"></path>
<path fill="#fff" d="M1.131 11.46c-0.294-0.046-0.558 0.163-0.604 0.449-0.039 0.287 0.163 0.558 0.449 0.604 9.546 1.371 17.193 8.988 18.588 18.526 0.039 0.263 0.263 0.457 0.527 0.457 0.023 0 0.054 0 0.077-0.008 0.287-0.047 0.488-0.31 0.449-0.604-1.464-9.995-9.484-17.984-19.487-19.425z"></path>
<path fill="#fff" d="M31.458 30.846c-3.456-14.908-15.318-26.809-30.21-30.326-0.287-0.070-0.573 0.108-0.635 0.395-0.070 0.287 0.108 0.566 0.395 0.635 14.505 3.425 26.049 15.016 29.42 29.536 0.054 0.248 0.271 0.411 0.519 0.411 0.039 0 0.077-0.008 0.124-0.015 0.279-0.070 0.457-0.349 0.387-0.635z"></path>
</svg>
