<!-- Generated by IcoMoon.io -->
<svg version="1.1" xmlns="http://www.w3.org/2000/svg" width="32" height="32" viewBox="0 0 32 32">
<title>wifi-available</title>
<path fill="#fff" d="M24.469 10.313h-4.695c-2.278 0-4.13 1.852-4.13 4.13v2.789c0 1.34-0.651 2.619-1.743 3.417l-0.976 0.713h11.545c2.278 0 4.13-1.852 4.13-4.13v-2.789c0-2.278-1.852-4.13-4.13-4.13zM27.808 17.232c0 1.844-1.503 3.347-3.347 3.347h-9.306c0.814-0.914 1.278-2.107 1.278-3.347v-2.789c0-1.844 1.503-3.347 3.347-3.347h4.695c1.844 0 3.347 1.503 3.347 3.347v2.789h-0.015z"></path>
<path fill="#fff" d="M25.089 9.050h-1.689c-1.991-2.324-4.874-3.657-7.942-3.657s-5.951 1.333-7.942 3.657h-1.697c-2.929 0-5.315 2.386-5.315 5.315v2.968c0 2.929 2.386 5.315 5.315 5.315h1.689c1.991 2.324 4.881 3.657 7.942 3.657 3.068 0 5.951-1.333 7.942-3.657h1.689c2.929 0 5.315-2.386 5.315-5.315v-2.968c0.008-2.937-2.379-5.315-5.308-5.315zM29.614 17.325c0 2.495-2.030 4.525-4.525 4.525h-2.061l-0.116 0.147c-1.844 2.231-4.564 3.518-7.454 3.518s-5.61-1.278-7.454-3.518l-0.116-0.147h-2.069c-2.495 0-4.525-2.030-4.525-4.525v-2.968c0-2.495 2.030-4.525 4.525-4.525h2.061l0.116-0.147c1.844-2.231 4.564-3.518 7.454-3.518s5.61 1.278 7.454 3.518l0.116 0.147h2.061c2.495 0 4.525 2.030 4.525 4.525v2.968h0.008z"></path>
<path fill="#fff" d="M17.604 18.929h1.767v-1.96h3.409v-1.495h-3.409v-1.433h3.773v-1.511h-5.54z"></path>
<path fill="#fff" d="M24.988 12.172c-0.542 0-0.945 0.333-0.945 0.798 0 0.504 0.403 0.814 0.945 0.814 0.566 0 0.961-0.31 0.961-0.814 0-0.473-0.395-0.798-0.961-0.798z"></path>
<path fill="#fff" d="M24.167 14.28h1.643v4.649h-1.643v-4.649z"></path>
<path fill="#fff" d="M30.822 10.793c-0.031-0.039-0.054-0.062-0.070-0.077s-0.039-0.023-0.070-0.039c0.085-0.008 0.147-0.039 0.194-0.093s0.070-0.108 0.070-0.178c0-0.054-0.015-0.101-0.039-0.139s-0.054-0.070-0.093-0.093-0.085-0.031-0.155-0.039c-0.023 0-0.124 0-0.31 0h-0.201v0.976h0.201v-0.403h0.054c0.054 0 0.101 0.015 0.139 0.039 0.039 0.031 0.077 0.093 0.139 0.201l0.077 0.155h0.248l-0.116-0.194c-0.039-0.070-0.062-0.108-0.070-0.116zM30.652 10.538c-0.023 0.008-0.101 0.015-0.209 0.015h-0.077v-0.263h0.077c0.108 0 0.186 0.008 0.209 0.015 0.031 0.008 0.054 0.023 0.070 0.046l0.023 0.070c0 0.031-0.008 0.054-0.023 0.077-0.023 0.015-0.047 0.031-0.070 0.039z"></path>
<path fill="#fff" d="M31.372 10.15c-0.085-0.147-0.201-0.263-0.341-0.341-0.147-0.077-0.294-0.116-0.457-0.116-0.155 0-0.31 0.039-0.457 0.116s-0.263 0.194-0.341 0.341c-0.085 0.147-0.124 0.302-0.124 0.465s0.039 0.31 0.124 0.457 0.194 0.263 0.341 0.341c0.147 0.085 0.302 0.124 0.457 0.124 0.163 0 0.318-0.039 0.457-0.124 0.147-0.077 0.263-0.194 0.341-0.341s0.124-0.294 0.124-0.457c0-0.163-0.039-0.318-0.124-0.465zM31.217 10.987c-0.062 0.116-0.155 0.209-0.271 0.271s-0.24 0.101-0.372 0.101c-0.132 0-0.248-0.031-0.372-0.101-0.116-0.070-0.209-0.155-0.271-0.271s-0.101-0.24-0.101-0.372 0.031-0.256 0.101-0.372 0.163-0.209 0.279-0.271 0.24-0.093 0.364-0.093 0.248 0.031 0.364 0.093c0.116 0.062 0.209 0.155 0.279 0.271s0.101 0.24 0.101 0.372c0 0.132-0.039 0.256-0.101 0.372z"></path>
<path fill="#fff" d="M8.422 13.598c-0.147 0.907-0.318 2.022-0.387 2.782-0.077-0.752-0.279-1.86-0.473-2.774l-0.217-1.077h-1.627l-0.217 1.077c-0.201 0.914-0.403 2.022-0.473 2.774-0.062-0.759-0.24-1.875-0.387-2.782l-0.178-1.069h-1.829l1.526 6.4h1.619l0.294-1.395c0.209-0.984 0.403-2.185 0.442-2.65 0.039 0.465 0.225 1.666 0.442 2.65l0.294 1.395h1.635l1.526-6.4h-1.813l-0.178 1.069z"></path>
<path fill="#fff" d="M11.188 14.28h1.643v4.649h-1.643v-4.649z"></path>
<path fill="#fff" d="M12.017 13.784c0.566 0 0.961-0.31 0.961-0.814 0-0.465-0.395-0.798-0.961-0.798-0.542 0-0.945 0.333-0.945 0.798 0 0.504 0.403 0.814 0.945 0.814z"></path>
</svg>
