<!-- Generated by IcoMoon.io -->
<svg version="1.1" xmlns="http://www.w3.org/2000/svg" width="32" height="32" viewBox="0 0 32 32">
<title>woman</title>
<path fill="#fff" d="M16 6.028c1.526 0 2.766-1.24 2.766-2.766s-1.24-2.766-2.766-2.766-2.766 1.24-2.766 2.766 1.24 2.766 2.766 2.766zM16 1.278c1.093 0 1.984 0.891 1.984 1.984s-0.891 1.984-1.984 1.984-1.984-0.891-1.984-1.984 0.891-1.984 1.984-1.984z"></path>
<path fill="#fff" d="M21.052 17.573c0.535-0.558 0.511-1.34 0.511-1.364v-6.377c0-0.961-0.279-1.728-0.829-2.262-0.814-0.79-1.914-0.783-1.945-0.775h-5.579c-0.039 0-1.147-0.016-1.953 0.775-0.55 0.535-0.829 1.294-0.829 2.262v6.361c0 0.031-0.023 0.821 0.511 1.371 0.24 0.248 0.542 0.411 0.914 0.48l-1.193 6.237c-0.023 0.116 0.008 0.232 0.085 0.318 0.077 0.093 0.186 0.139 0.302 0.139h2.107v4.509c0 0.039-0.054 0.984 0.566 1.635 0.372 0.395 0.883 0.597 1.534 0.597h1.503c0.651 0 1.162-0.201 1.534-0.597 0.612-0.651 0.566-1.596 0.566-1.612v-4.533h2.107c0.116 0 0.225-0.054 0.302-0.139 0.070-0.093 0.101-0.209 0.085-0.318l-1.209-6.23c0.364-0.070 0.674-0.232 0.907-0.48zM20.486 23.981h-2.030c-0.217 0-0.387 0.17-0.387 0.387v4.943c0 0.008 0.031 0.651-0.356 1.061-0.217 0.232-0.542 0.349-0.969 0.349h-1.503c-0.426 0-0.744-0.116-0.969-0.349-0.387-0.403-0.356-1.061-0.356-1.085v-4.92c0-0.101-0.039-0.201-0.116-0.271-0.070-0.070-0.17-0.116-0.271-0.116h-2.030l1.185-6.199c0.023-0.116-0.008-0.232-0.085-0.318-0.077-0.093-0.186-0.139-0.302-0.139-0.356 0-0.628-0.093-0.806-0.279-0.31-0.31-0.294-0.806-0.294-0.829v-6.377c0-0.744 0.201-1.317 0.589-1.705 0.573-0.566 1.387-0.566 1.41-0.566h5.594c0.039 0 0.845 0.008 1.402 0.566 0.387 0.387 0.589 0.961 0.589 1.705v6.392c0 0.008 0.008 0.504-0.294 0.814-0.186 0.186-0.457 0.279-0.806 0.279-0.116 0-0.225 0.054-0.302 0.139-0.070 0.093-0.101 0.209-0.085 0.318l1.193 6.199z"></path>
</svg>
