<!-- Generated by IcoMoon.io -->
<svg version="1.1" xmlns="http://www.w3.org/2000/svg" width="32" height="32" viewBox="0 0 32 32">
<title>working</title>
<path fill="#fff" d="M12.343 14.117l3.161 0.752c0.023 0.008 0.046 0.008 0.070 0.008 0.093 0.008 0.178 0.015 0.271 0.015 0.519 0 1.023-0.132 1.48-0.395l6.423-3.711c0.225-0.124 0.294-0.411 0.17-0.635-0.132-0.225-0.411-0.302-0.635-0.17l-6.423 3.704c-0.356 0.201-0.759 0.294-1.17 0.263l-3.123-0.744c-0.248-0.062-0.496 0.093-0.558 0.341-0.070 0.263 0.085 0.511 0.333 0.573z"></path>
<path fill="#fff" d="M18.588 5.013c0.387 1.604 1.829 2.689 3.417 2.689 0.271 0 0.542-0.031 0.821-0.101 0.914-0.217 1.681-0.783 2.177-1.581s0.635-1.743 0.418-2.658c-0.449-1.883-2.348-3.045-4.238-2.596-1.891 0.465-3.053 2.363-2.596 4.246v0zM21.393 1.681c1.387-0.333 2.782 0.527 3.115 1.906 0.333 1.387-0.527 2.782-1.906 3.115-1.387 0.333-2.782-0.519-3.115-1.906v0c-0.333-1.387 0.527-2.782 1.906-3.115z"></path>
<path fill="#fff" d="M31.117 8.779c-0.256-0.046-0.496 0.124-0.542 0.372l-2.658 14.83h-6.539c-0.256 0-0.465 0.209-0.465 0.465s0.209 0.465 0.465 0.465h3.208v5.586c0 0.256 0.209 0.465 0.465 0.465s0.465-0.209 0.465-0.465v-5.586h2.789c0.225 0 0.418-0.163 0.457-0.38l2.727-15.217c0.047-0.248-0.124-0.488-0.372-0.535z"></path>
<path fill="#fff" d="M25.941 21.153l-0.132-2.487-0.473-9.143c0-0.031-0.008-0.054-0.008-0.077-0.108-0.457-0.767-0.945-1.449-0.883l-2.766 0.24c-0.783 0.070-1.278 0.752-1.209 1.666 0.023 0.256 0.248 0.449 0.496 0.426 0.256-0.023 0.449-0.24 0.426-0.496-0.023-0.302 0.062-0.643 0.364-0.666l2.766-0.24c0.217-0.023 0.418 0.132 0.457 0.163l0.449 8.662-3.432 0.635-0.333-4.726c-0.015-0.256-0.24-0.457-0.496-0.434-0.256 0.015-0.449 0.24-0.434 0.496l0.341 4.827-2.441 0.449c-0.558 0.101-1.007 0.504-1.185 1.038l-3.068 9.352c-0.070 0.209-0.039 0.434 0.070 0.628 0.116 0.186 0.302 0.318 0.519 0.349l2.332 0.372c0.039 0.008 0.077 0.008 0.116 0.008 0.325 0 0.628-0.217 0.721-0.542l2.177-7.438 4.943-0.682c0.744-0.093 1.286-0.752 1.247-1.495zM19.549 22.431c-0.31 0.039-0.566 0.263-0.659 0.566l-2.154 7.369-1.976-0.318 2.999-9.151c0.070-0.217 0.248-0.372 0.473-0.411l6.671-1.24 0.108 1.96c0.015 0.263-0.17 0.496-0.442 0.535l-5.021 0.69z"></path>
<path fill="#fff" d="M13.497 17.495c0.256 0 0.465-0.209 0.465-0.465s-0.209-0.465-0.465-0.465h-12.529c-0.256 0-0.465 0.209-0.465 0.465s0.209 0.465 0.465 0.465h6.051v12.537h-3.045c-0.256 0-0.465 0.209-0.465 0.465s0.209 0.465 0.465 0.465h7.020c0.256 0 0.465-0.209 0.465-0.465s-0.209-0.465-0.465-0.465h-3.053v-12.537h5.555z"></path>
<path fill="#fff" d="M5.889 15.341c0.077 0.155 0.24 0.256 0.411 0.256h5.338c0.256 0 0.465-0.209 0.465-0.465s-0.209-0.465-0.465-0.465h-5.052l-2.293-4.494c-0.116-0.225-0.395-0.318-0.628-0.201-0.225 0.116-0.318 0.395-0.201 0.628l2.425 4.742z"></path>
</svg>
