<!-- Generated by IcoMoon.io -->
<svg version="1.1" xmlns="http://www.w3.org/2000/svg" width="32" height="32" viewBox="0 0 32 32">
<title>worldwide</title>
<path fill="#fff" d="M16 0.504c-0.023 0-0.046 0-0.070 0-0.015 0-0.023 0-0.039 0-0.046 0-0.093 0.008-0.139 0.008-8.43 0.132-15.248 7.028-15.248 15.489s6.818 15.357 15.241 15.489c0.046 0 0.093 0.008 0.139 0.008 0.015 0 0.023 0 0.039 0 0.023 0 0.046 0 0.070 0 8.546 0 15.496-6.95 15.496-15.496s-6.942-15.496-15.489-15.496zM30.683 15.597h-6.168c-0.039-2.813-0.496-5.439-1.263-7.686 1.139-0.604 2.208-1.356 3.184-2.247 2.541 2.572 4.138 6.067 4.246 9.933zM15.93 30.691c-0.054 0-0.108 0-0.163-0.008-2.603-0.077-4.905-2.557-6.299-6.315 1.991-0.984 4.2-1.503 6.477-1.503 2.247 0 4.416 0.504 6.384 1.457-1.402 3.828-3.75 6.346-6.4 6.369zM15.946 22.067c-2.371 0-4.664 0.535-6.749 1.542-0.682-2.115-1.092-4.579-1.131-7.206h15.644c-0.039 2.611-0.442 5.060-1.116 7.159-2.053-0.976-4.316-1.495-6.648-1.495zM8.066 15.597c0.039-2.72 0.473-5.261 1.201-7.423 2.076 1 4.362 1.534 6.733 1.534 2.293 0 4.509-0.496 6.539-1.441 0.705 2.139 1.131 4.649 1.17 7.33h-15.644zM15.93 1.309c2.611 0.023 4.928 2.464 6.338 6.199-1.937 0.914-4.068 1.402-6.268 1.402-2.27 0-4.471-0.519-6.454-1.495 1.402-3.634 3.657-6.020 6.214-6.098 0.054-0.008 0.108-0.008 0.17-0.008zM25.848 5.106c-0.883 0.798-1.852 1.488-2.882 2.046-0.945-2.441-2.278-4.362-3.828-5.501 2.549 0.55 4.85 1.767 6.71 3.456zM8.848 7.051c-0.961-0.535-1.867-1.185-2.704-1.945 1.782-1.619 3.967-2.797 6.385-3.386-1.48 1.139-2.758 2.999-3.68 5.331zM5.571 5.664c0.922 0.837 1.929 1.557 2.999 2.146-0.79 2.27-1.263 4.936-1.302 7.787h-5.951c0.108-3.866 1.705-7.361 4.254-9.933zM1.317 16.403h5.951c0.039 2.766 0.48 5.346 1.224 7.57-1.1 0.604-2.123 1.34-3.068 2.216-2.456-2.557-4.006-5.989-4.107-9.786zM6.005 26.754c0.852-0.783 1.782-1.457 2.766-2.015 0.93 2.433 2.231 4.37 3.766 5.532-2.487-0.597-4.726-1.836-6.532-3.518zM23.028 24.693c1.046 0.573 2.022 1.286 2.913 2.115-1.883 1.736-4.215 2.983-6.803 3.549 1.588-1.17 2.937-3.154 3.89-5.664zM26.522 26.243c-0.984-0.922-2.061-1.697-3.215-2.324 0.736-2.208 1.17-4.781 1.209-7.516h6.168c-0.101 3.82-1.674 7.283-4.161 9.84z"></path>
</svg>
