<!-- Generated by IcoMoon.io -->
<svg version="1.1" xmlns="http://www.w3.org/2000/svg" width="32" height="32" viewBox="0 0 32 32">
<title>world-travel-02</title>
<path fill="#fff" d="M31.101 12.227c-0.457-0.457-1.154-0.511-1.674-0.178-1.736-6.214-7.438-10.785-14.187-10.785-8.128 0-14.737 6.609-14.737 14.737 0 6.733 4.548 12.428 10.731 14.179 0.015 0.008 0.023 0.023 0.039 0.031 0.046 0.023 0.101 0.031 0.147 0.031h0.008c1.216 0.325 2.487 0.504 3.804 0.504 4.37 0 8.306-1.922 11.002-4.959l0.511 1.503c0.054 0.155 0.194 0.256 0.356 0.263 0.023 0 0.047 0 0.070 0 0.341 0 0.659-0.132 0.899-0.364 0.256-0.256 0.38-0.597 0.356-0.969l-0.186-3.324c1.093-2.061 1.72-4.401 1.72-6.896 0-0.24-0.008-0.48-0.023-0.721l1.154-1.154c0.535-0.519 0.535-1.371 0.008-1.898zM12.265 2.379l0.736 1.875c0.085 0.209 0.093 0.449 0.031 0.666l-1.379 4.657c-0.031 0.093-0.093 0.178-0.17 0.232l-3.611 2.41c-0.163 0.108-0.225 0.325-0.132 0.504l1.286 2.572c0.070 0.139 0.225 0.225 0.38 0.217s0.294-0.108 0.349-0.263c0.116-0.325 0.558-1.224 1.209-1.488 0.279-0.116 0.566-0.101 0.883 0.039 0.411 0.364 1.193 1.162 1.829 1.813 0.387 0.395 0.728 0.744 0.922 0.93 0.046 0.039 0.077 0.101 0.085 0.163l0.535 2.681c0.023 0.132 0.015 0.271-0.046 0.403l-3.959 9.561c-0.666-0.201-1.309-0.449-1.929-0.744l0.465-6.028c0.023-0.325-0.093-0.651-0.318-0.891l-1.953-2.061c-0.116-0.124-0.17-0.294-0.147-0.457l0.511-3.339c0.016-0.124-0.023-0.248-0.116-0.341l-2.937-2.906c-0.248-0.248-0.612-0.341-0.945-0.24l-1.193 0.356-0.101-2.456c1.798-3.952 5.385-6.919 9.716-7.864zM1.294 16c0-1.333 0.194-2.619 0.542-3.835l0.046 1.069c0.008 0.124 0.070 0.232 0.163 0.302 0.101 0.070 0.225 0.093 0.341 0.054l1.681-0.496c0.054-0.015 0.124 0 0.163 0.039l2.789 2.766-0.48 3.138c-0.062 0.403 0.070 0.821 0.349 1.123l1.953 2.061c0.070 0.077 0.108 0.178 0.101 0.287l-0.442 5.695c-4.285-2.371-7.206-6.95-7.206-12.203zM15.241 29.947c-1.123 0-2.216-0.139-3.262-0.387l3.921-9.461c0.116-0.271 0.147-0.573 0.093-0.86l-0.535-2.681c-0.046-0.217-0.155-0.418-0.31-0.573-0.194-0.186-0.527-0.527-0.907-0.914-0.705-0.713-1.495-1.526-1.914-1.891-0.031-0.023-0.062-0.046-0.093-0.062-0.542-0.256-1.069-0.279-1.573-0.077-0.581 0.24-1.007 0.759-1.278 1.201l-0.775-1.557 3.324-2.216c0.24-0.155 0.411-0.395 0.496-0.666l1.364-4.657c0.116-0.387 0.093-0.806-0.054-1.178l-0.682-1.743c0.713-0.108 1.441-0.17 2.185-0.17 1.108 0 2.193 0.132 3.223 0.38l-1.185 1.999c-0.256 0.434-0.186 0.992 0.17 1.356l0.039 0.039c0.209 0.209 0.496 0.325 0.79 0.325h1.627c0.132 0 0.256-0.070 0.325-0.178l0.395-0.581 0.38 0.442-0.581 0.194c-0.062 0.016-0.108 0.054-0.155 0.093l-0.922 0.922c-0.17 0.178-0.256 0.426-0.217 0.666s0.194 0.457 0.418 0.566l0.604 0.302h-0.38c-0.496 0-0.907 0.403-0.907 0.907v0.31c0 0.449 0.287 0.845 0.713 0.984l0.953 0.318c0.488 0.163 1.023-0.023 1.309-0.449l0.287-0.426c0.015-0.023 0.031-0.054 0.039-0.077 0-0.008 0.349-0.914 0.992-1.201 0.248-0.108 0.511-0.116 0.798 0 1.007 0.387 1.65 2.107 1.875 2.82l-5.191 0.294c-0.868 0.046-1.596 0.643-1.805 1.488-0.054 0.209 0.077 0.426 0.287 0.48 0.031 0.008 0.062 0.015 0.093 0.015 0.178 0 0.341-0.116 0.38-0.302 0.124-0.504 0.566-0.86 1.085-0.891l5.338-0.302c0.209-0.008 0.395-0.116 0.511-0.287s0.155-0.38 0.093-0.573c-0.325-1.077-1.061-2.968-2.394-3.479-0.488-0.186-0.961-0.178-1.41 0.023-0.845 0.387-1.286 1.364-1.379 1.596l-0.263 0.395c-0.085 0.132-0.248 0.186-0.403 0.139l-0.953-0.318c-0.101-0.031-0.17-0.132-0.17-0.232v-0.31c0-0.062 0.054-0.116 0.116-0.116h0.775c0.217 0 0.395-0.178 0.395-0.395v-0.643c0-0.147-0.085-0.287-0.217-0.356l-0.806-0.387 0.852-0.852 0.488-0.163c0.256-0.085 0.457-0.294 0.527-0.558s0-0.542-0.186-0.744l-0.387-0.418c-0.163-0.178-0.403-0.271-0.643-0.256s-0.465 0.147-0.597 0.349l-0.271 0.403h-1.418c-0.085 0-0.17-0.031-0.232-0.101l-0.039-0.039c-0.108-0.108-0.124-0.263-0.047-0.395l1.294-2.185c4.688 1.41 8.337 5.23 9.515 10.011l-2.735 2.743-8.918-0.496c-0.372-0.023-0.713 0.108-0.969 0.356-0.256 0.256-0.38 0.597-0.364 0.969 0.008 0.163 0.116 0.302 0.263 0.356l6.555 2.247-2.89 2.89c-2.162-0.17-2.146-0.17-2.177-0.17-0.465 0.023-0.837 0.349-0.914 0.814-0.085 0.488 0.163 0.953 0.612 1.139l1.829 0.759 0.759 1.829c0.186 0.449 0.659 0.697 1.139 0.612 0.465-0.085 0.798-0.449 0.814-0.938 0-0.023 0-0.023-0.17-2.154l2.89-2.89 1.433 4.192c-2.541 3.068-6.384 5.036-10.685 5.036zM28.157 21.246l-0.225-3.944 1.247-1.247c-0.008 1.829-0.372 3.587-1.023 5.191zM30.543 13.567l-3.293 3.293c-0.077 0.077-0.124 0.186-0.116 0.302l0.511 9.096c0.008 0.147-0.039 0.271-0.132 0.364-0.039 0.039-0.077 0.062-0.124 0.085l-2.34-6.842c-0.047-0.132-0.155-0.225-0.287-0.256-0.031-0.008-0.062-0.008-0.085-0.008-0.101 0-0.201 0.039-0.279 0.116l-3.463 3.471c-0.085 0.085-0.124 0.194-0.116 0.31 0 0 0.155 2.015 0.178 2.278-0.015 0.108-0.093 0.147-0.163 0.155-0.031 0.008-0.209 0.031-0.279-0.139l-0.821-1.976c-0.039-0.093-0.116-0.17-0.209-0.209l-1.976-0.821c-0.17-0.070-0.139-0.256-0.139-0.271 0.015-0.070 0.047-0.147 0.155-0.163 0.256 0.023 2.278 0.178 2.278 0.178 0.108 0.008 0.225-0.031 0.31-0.116l3.471-3.463c0.093-0.093 0.139-0.232 0.108-0.372-0.031-0.132-0.132-0.24-0.256-0.287l-6.842-2.34c0.023-0.046 0.047-0.085 0.085-0.124 0.093-0.093 0.225-0.139 0.364-0.132l9.096 0.511c0.116 0.008 0.225-0.039 0.302-0.116l3.293-3.293c0.217-0.217 0.566-0.217 0.783 0.008 0.201 0.194 0.201 0.542-0.015 0.759z"></path>
</svg>
