<!-- Generated by IcoMoon.io -->
<svg version="1.1" xmlns="http://www.w3.org/2000/svg" width="32" height="32" viewBox="0 0 32 32">
<title>world-travel-01</title>
<path fill="#fff" d="M31.086 11.955c-0.395-0.395-1.007-0.496-1.511-0.302-1.86-6.082-7.523-10.514-14.21-10.514-3.587 0-6.88 1.278-9.445 3.394-0.016 0.008-0.023 0.016-0.039 0.031-3.285 2.727-5.377 6.842-5.377 11.436 0 8.198 6.671 14.861 14.861 14.861 4.176 0 7.957-1.736 10.654-4.517l0.504 1.48c0.054 0.155 0.194 0.256 0.356 0.271 0.023 0 0.054 0 0.077 0 0.356 0 0.69-0.132 0.93-0.38 0.263-0.263 0.395-0.62 0.372-1.007l-0.17-3.053c1.348-2.239 2.139-4.85 2.139-7.655 0-0.387-0.023-0.775-0.054-1.154l0.914-0.914c0.55-0.542 0.55-1.426 0-1.976zM27.103 8.26c-2.836-1.612-6.013-2.479-9.306-2.534-0.023-0.093-0.054-0.186-0.085-0.271 1.116-0.86 2.324-1.596 3.618-2.193 2.355 1.108 4.354 2.844 5.772 4.998zM8.693 13.079c0.077 0.209 0.31 0.31 0.511 0.232l2.007-0.744c-1.046 2.425-1.612 5.067-1.612 7.756 0 0.992 0.077 1.991 0.232 2.983-0.023 0.008-0.039 0.023-0.062 0.031-1.007-1.216-1.86-2.541-2.526-3.944 0-0.008 0.008-0.008 0.008-0.015l1.054-2.634c0.077-0.201-0.015-0.434-0.225-0.519-0.201-0.085-0.434 0.015-0.519 0.225l-0.767 1.929c-0.79-1.953-1.24-4.045-1.333-6.191 0.697-0.186 1.216-0.821 1.216-1.581 0-0.209-0.046-0.411-0.116-0.597 1.077-0.767 2.208-1.433 3.409-1.953l-0.752 1.953c-0.077 0.201 0.023 0.434 0.225 0.511 0.046 0.015 0.093 0.023 0.139 0.023 0.163 0 0.31-0.093 0.372-0.256l1.015-2.634c1.193-0.442 2.441-0.752 3.719-0.938 0.039 0.101 0.085 0.194 0.147 0.279-1.271 1.371-2.332 2.906-3.153 4.556-0.031 0.008-0.062 0.015-0.093 0.023l-2.658 0.984c-0.209 0.085-0.318 0.318-0.24 0.519zM10.561 25.608c-0.465 0-0.845-0.38-0.845-0.845s0.38-0.845 0.845-0.845 0.845 0.38 0.845 0.845-0.372 0.845-0.845 0.845zM4.192 10.607c0-0.465 0.38-0.845 0.845-0.845s0.845 0.38 0.845 0.845-0.38 0.845-0.845 0.845c-0.465 0.008-0.845-0.372-0.845-0.845zM15.365 6.113c0-0.465 0.38-0.845 0.845-0.845s0.845 0.38 0.845 0.845-0.38 0.845-0.845 0.845-0.845-0.38-0.845-0.845zM6.516 5.075c2.417-1.968 5.501-3.146 8.856-3.146 1.759 0 3.44 0.325 4.99 0.914-1.108 0.558-2.154 1.232-3.13 1.984-0.279-0.225-0.628-0.364-1.015-0.364-0.845 0-1.534 0.643-1.619 1.464-1.348 0.194-2.665 0.519-3.928 0.992-0.015-0.008-0.023-0.016-0.039-0.023l-2.712-0.821c-0.209-0.062-0.434 0.054-0.496 0.263s0.054 0.434 0.263 0.496l1.829 0.55c-1.193 0.535-2.324 1.193-3.401 1.968-0.147-0.124-0.318-0.225-0.504-0.294 0.147-1.356 0.449-2.696 0.907-3.983zM5.346 6.137c-0.256 0.938-0.442 1.891-0.558 2.859-0.79 0.116-1.395 0.798-1.395 1.612 0 0.302 0.093 0.589 0.232 0.837-0.806 0.806-1.542 1.666-2.2 2.596 0.442-3.061 1.852-5.803 3.921-7.903zM1.294 16c0-0.101 0.008-0.201 0.008-0.294 0.806-1.356 1.782-2.58 2.898-3.688 0.147 0.085 0.302 0.155 0.473 0.194 0.093 2.208 0.55 4.354 1.348 6.369l-1.712-0.837c-0.201-0.093-0.434-0.015-0.527 0.186-0.093 0.194-0.015 0.434 0.186 0.527l2.526 1.224h0.008c0.705 1.495 1.612 2.898 2.689 4.184-0.17 0.256-0.271 0.566-0.271 0.899 0 0.907 0.736 1.643 1.643 1.643 0.008 0 0.008 0 0.015 0 0.364 1.123 0.821 2.208 1.387 3.247-6.121-1.526-10.669-7.066-10.669-13.652zM15.365 30.071c-0.806 0-1.596-0.070-2.371-0.201-0.682-1.162-1.24-2.386-1.658-3.665 0.031-0.015 0.054-0.031 0.085-0.047 1.883 1.635 4.060 2.882 6.408 3.696-0.798 0.139-1.619 0.217-2.464 0.217zM19.347 29.49c-2.72-0.728-5.23-2.076-7.369-3.921 0.139-0.24 0.225-0.511 0.225-0.814 0-0.891-0.713-1.612-1.596-1.635-0.139-0.93-0.217-1.867-0.217-2.805 0-2.495 0.504-4.936 1.441-7.19l0.511 1.767c0.046 0.17 0.209 0.287 0.38 0.287 0.039 0 0.070-0.008 0.108-0.015 0.209-0.062 0.333-0.279 0.271-0.488l-0.767-2.665c0.798-1.627 1.844-3.13 3.084-4.471 0.232 0.132 0.504 0.209 0.79 0.209 0.767 0 1.402-0.527 1.581-1.24 3.642 0.062 7.136 1.17 10.15 3.2 0.387 0.783 0.713 1.596 0.953 2.448l-3.138 3.138-9.422-0.527c-0.387-0.023-0.744 0.108-1.007 0.372s-0.395 0.62-0.38 1.007c0.008 0.163 0.116 0.302 0.271 0.356l6.95 2.379-3.084 3.076c-2.27-0.178-2.27-0.178-2.301-0.178-0.48 0.023-0.86 0.356-0.953 0.845-0.093 0.504 0.17 0.992 0.635 1.185l1.937 0.806 0.806 1.937c0.194 0.465 0.682 0.728 1.185 0.635 0.488-0.085 0.821-0.465 0.845-0.938 0-0.031 0-0.031-0.178-2.309l3.076-3.084 1.581 4.626c-1.689 1.867-3.882 3.27-6.369 4.006zM28.010 22.16l-0.271-4.874 1.681-1.681c0.008 0.132 0.015 0.263 0.015 0.403 0 2.2-0.511 4.293-1.426 6.152zM30.528 13.373l-3.479 3.479c-0.077 0.077-0.124 0.194-0.116 0.302l0.535 9.6c0.008 0.155-0.039 0.302-0.139 0.403-0.047 0.047-0.093 0.077-0.155 0.101l-2.479-7.245c-0.047-0.132-0.155-0.225-0.287-0.256-0.031-0.008-0.062-0.008-0.093-0.008-0.101 0-0.201 0.039-0.279 0.116l-3.657 3.649c-0.085 0.085-0.124 0.194-0.116 0.31 0 0 0.17 2.146 0.186 2.402-0.015 0.124-0.108 0.17-0.186 0.186-0.023 0-0.232 0.039-0.31-0.155l-0.868-2.084c-0.039-0.093-0.116-0.17-0.217-0.217l-2.092-0.868c-0.194-0.077-0.163-0.287-0.155-0.31 0.015-0.077 0.054-0.178 0.186-0.186 0.263 0.023 2.402 0.186 2.402 0.186 0.108 0.008 0.232-0.031 0.31-0.116l3.657-3.657c0.101-0.093 0.139-0.24 0.108-0.372s-0.132-0.24-0.256-0.287l-7.245-2.479c0.023-0.054 0.062-0.108 0.101-0.155 0.101-0.101 0.24-0.155 0.403-0.139l9.6 0.535c0.108 0.008 0.225-0.039 0.302-0.116l3.479-3.479c0.225-0.225 0.62-0.232 0.852 0.008 0.24 0.232 0.24 0.612 0.008 0.852z"></path>
</svg>
