<!-- Generated by IcoMoon.io -->
<svg version="1.1" xmlns="http://www.w3.org/2000/svg" width="32" height="32" viewBox="0 0 32 32">
<title>worldwide-connection</title>
<path fill="#fff" d="M31.496 16c0-6.679-4.246-12.382-10.181-14.559v0c-1.658-0.604-3.448-0.938-5.315-0.938-8.546 0-15.496 6.95-15.496 15.496 0 3.037 0.883 5.873 2.402 8.267 0.023 0.047 0.046 0.085 0.077 0.116 2.758 4.269 7.562 7.105 13.017 7.105 3.843 0 7.361-1.41 10.073-3.735 0.031-0.023 0.062-0.047 0.085-0.077 3.27-2.836 5.338-7.020 5.338-11.677zM28.808 22.896c-0.147-0.271-0.294-0.542-0.457-0.806 0.356-0.325 0.581-0.783 0.581-1.302 0-0.976-0.79-1.767-1.767-1.767-0.31 0-0.604 0.085-0.868 0.24-0.666-0.775-1.395-1.511-2.177-2.2-2.727-3.13-4.703-6.811-5.796-10.816 0.209-0.194 0.372-0.442 0.465-0.721 4.378 0.418 8.019 2.247 10.84 5.455 0.008 0.008 0.015 0.008 0.023 0.015 0.573 1.565 0.891 3.247 0.891 5.005 0.008 2.495-0.628 4.843-1.736 6.896zM3.618 9.949c0.449 0 0.814 0.364 0.814 0.814s-0.364 0.814-0.814 0.814-0.814-0.364-0.814-0.814c0-0.449 0.364-0.814 0.814-0.814zM15.45 5.455c0.054 0.178 0.132 0.349 0.232 0.504-1.154 1.34-2.146 2.828-2.944 4.432-0.17-0.054-0.349-0.093-0.535-0.093-0.496 0-0.945 0.209-1.263 0.535-1.852-0.372-3.711-0.581-5.656-0.628-0.054-0.155-0.116-0.294-0.201-0.426 2.944-2.58 6.508-4.068 10.367-4.324zM13.893 11.553c-0.070-0.24-0.194-0.457-0.356-0.643 0.775-1.581 1.743-3.037 2.882-4.347 0.217 0.101 0.465 0.155 0.721 0.155 0.116 0 0.225-0.016 0.333-0.031 0.821 2.944 2.115 5.718 3.812 8.236-2.185-1.426-4.672-2.557-7.392-3.37zM13.025 12.056c0 0.449-0.364 0.814-0.814 0.814h-0.008c-0.008 0-0.008-0.008-0.015-0.008-0.062-0.023-0.132-0.031-0.194-0.023-0.341-0.093-0.597-0.411-0.597-0.783 0-0.449 0.364-0.814 0.814-0.814 0.403 0 0.736 0.294 0.806 0.682 0 0.039 0 0.070 0.008 0.108 0 0.008 0 0.015 0 0.023zM17.953 4.951c0 0.449-0.364 0.814-0.814 0.814s-0.814-0.364-0.814-0.814 0.364-0.814 0.814-0.814 0.814 0.364 0.814 0.814zM5.338 11.157c1.767 0.046 3.456 0.225 5.137 0.55-0.023 0.116-0.039 0.232-0.039 0.349 0 0.69 0.403 1.286 0.984 1.573-0.666 2.115-1.007 4.316-1.007 6.555 0 1.643 0.194 3.324 0.542 4.905-4.169-2.867-6.694-7.531-6.849-12.637 0.612-0.178 1.093-0.666 1.232-1.294zM11.39 26.468c0-0.248 0.108-0.465 0.294-0.62 0.062-0.023 0.108-0.054 0.155-0.101 0.116-0.054 0.232-0.093 0.364-0.093 0.449 0 0.814 0.364 0.814 0.814s-0.364 0.814-0.814 0.814-0.814-0.364-0.814-0.814zM13.947 26.259c-0.101-0.876-0.845-1.557-1.743-1.557-0.116 0-0.232 0.015-0.349 0.039-0.318-1.464-0.488-3.022-0.488-4.548 0-2.185 0.341-4.331 1-6.384 0.728-0.070 1.325-0.573 1.526-1.263 3.711 1.147 6.958 2.906 9.553 5.176 0.682 0.783 1.402 1.526 2.177 2.231-0.139 0.256-0.217 0.535-0.217 0.829 0 0.31 0.085 0.597 0.232 0.86-3.030 2.82-7.152 4.447-11.692 4.618zM26.6 21.369c-0.155-0.155-0.248-0.364-0.248-0.581s0.085-0.418 0.232-0.573c0.155-0.163 0.364-0.248 0.589-0.248 0.449 0 0.814 0.364 0.814 0.814s-0.364 0.814-0.814 0.814c-0.217 0.008-0.418-0.070-0.573-0.225zM28.459 8.492c-2.673-2.255-5.889-3.572-9.6-3.921-0.023-0.116-0.062-0.225-0.108-0.333 0.783-0.659 1.604-1.255 2.495-1.813 3.022 1.178 5.555 3.332 7.214 6.067zM16 1.449c1.426 0 2.797 0.209 4.099 0.589-0.682 0.457-1.325 0.945-1.945 1.472-0.287-0.201-0.635-0.325-1.015-0.325-0.821 0-1.503 0.558-1.697 1.317-4.138 0.271-7.95 1.875-11.088 4.657-0.225-0.101-0.465-0.163-0.728-0.163-0.139 0-0.271 0.023-0.395 0.046 2.464-4.517 7.26-7.593 12.769-7.593zM2.107 11.669c0.232 0.387 0.604 0.674 1.054 0.798 0.155 5.455 2.875 10.437 7.361 13.482-0.015 0.054-0.031 0.101-0.039 0.155-2.41-0.325-4.688-1.116-6.795-2.363-1.41-2.239-2.231-4.897-2.231-7.733-0.008-1.519 0.225-2.968 0.651-4.339zM4.982 25.484c1.767 0.814 3.626 1.34 5.571 1.581 0.217 0.597 0.744 1.046 1.395 1.139 0.271 0.682 0.581 1.34 0.938 1.999-3.13-0.682-5.881-2.371-7.903-4.719zM14.086 30.419c-0.465-0.79-0.845-1.55-1.17-2.34 0.248-0.108 0.465-0.279 0.643-0.488 2.046 0.86 4.231 1.302 6.508 1.302 1.1 0 2.169-0.101 3.215-0.31-2.146 1.247-4.626 1.96-7.283 1.96-0.651 0.008-1.286-0.039-1.914-0.124zM25.538 26.971c-1.774 0.659-3.564 0.976-5.47 0.976-1.743 0-3.425-0.271-5.029-0.806 4.362-0.38 8.306-2.061 11.266-4.827 0.263 0.147 0.558 0.232 0.868 0.232 0.116 0 0.225-0.015 0.333-0.031 0.263 0.434 0.504 0.868 0.736 1.333-0.752 1.17-1.666 2.216-2.704 3.123z"></path>
</svg>
