<!-- Generated by IcoMoon.io -->
<svg version="1.1" xmlns="http://www.w3.org/2000/svg" width="32" height="32" viewBox="0 0 32 32">
<title>writting-set</title>
<path fill="#fff" d="M27.669 9.112l0.449-3.649c0.015-0.132-0.031-0.256-0.116-0.349-0.093-0.093-0.225-0.139-0.349-0.116l-3.649 0.449c-0.031 0.008-0.062 0.016-0.093 0.023-0.008 0-0.008 0-0.015 0.008-0.047 0.016-0.085 0.046-0.124 0.077-0.008 0.008-0.008 0.008-0.015 0.008l-9.089 9.096h-0.062v-13.738c0-0.232-0.186-0.418-0.418-0.418h-5.842c-0.232 0-0.418 0.186-0.418 0.418v13.738h-3.626c-0.232 0-0.418 0.186-0.418 0.418v11.514c0 2.704 2.658 4.905 5.927 4.905h10.77c3.27 0 5.927-2.2 5.927-4.905v-11.514c0-0.232-0.186-0.418-0.418-0.418h-3.835l5.3-5.3c0.008-0.008 0.008-0.008 0.008-0.015 0.031-0.039 0.062-0.077 0.077-0.116 0-0.008 0-0.008 0-0.015 0.015-0.031 0.023-0.062 0.031-0.101zM27.219 5.896l-0.279 2.262-1.984-1.984 2.262-0.279zM8.771 1.34h5.005v2.255h-2.503c-0.232 0-0.418 0.186-0.418 0.418s0.186 0.418 0.418 0.418h2.503v1.317h-1.317c-0.232 0-0.418 0.186-0.418 0.418s0.186 0.418 0.418 0.418h1.317v1.317h-2.503c-0.232 0-0.418 0.186-0.418 0.418s0.186 0.418 0.418 0.418h2.503v1.333h-1.317c-0.232 0-0.418 0.186-0.418 0.418s0.186 0.418 0.418 0.418h1.317v1.317h-2.503c-0.232 0-0.418 0.186-0.418 0.418s0.186 0.418 0.418 0.418h2.503v1.588h-5.005c0 0 0-13.311 0-13.311zM25.67 26.592c0 2.239-2.286 4.060-5.091 4.060h-10.77c-2.805 0-5.091-1.821-5.091-4.060v-11.095h20.951v11.095zM21.067 14.66h-2.015l5.749-5.749c0.163-0.163 0.163-0.426 0-0.597-0.163-0.163-0.426-0.163-0.597 0l-6.346 6.346h-2.015l8.205-8.198 2.603 2.603-5.586 5.594z"></path>
</svg>
