<!-- Generated by IcoMoon.io -->
<svg version="1.1" xmlns="http://www.w3.org/2000/svg" width="32" height="32" viewBox="0 0 32 32">
<title>xml-feed</title>
<path fill="#fff" d="M31.489 8.872c0-0.031-0.008-0.062-0.023-0.093-0.008-0.015-0.008-0.023-0.015-0.031-0.015-0.039-0.039-0.077-0.070-0.108l-6.989-6.989c-0.031-0.031-0.070-0.054-0.108-0.070-0.015-0.008-0.023-0.008-0.039-0.016-0.031-0.008-0.062-0.016-0.093-0.016-0.008 0-0.015-0.008-0.023-0.008h-15.566c-0.55 0-1 0.449-1 1v6.005h-6.694c-0.201 0-0.364 0.163-0.364 0.364v6.663c0 0.201 0.163 0.364 0.364 0.364h6.694v13.521c0 0.55 0.449 1 1 1h21.935c0.55 0 1-0.449 1-1v-20.564c0-0.008-0.008-0.015-0.008-0.023zM24.508 2.789l5.734 5.734h-5.734v-5.734zM1.24 9.282h13.389v5.927h-13.389v-5.927zM30.497 29.73h-21.935c-0.139 0-0.263-0.116-0.263-0.263v-13.528h6.694c0.201 0 0.364-0.163 0.364-0.364v-6.663c0-0.201-0.163-0.364-0.364-0.364h-6.694v-6.013c0-0.139 0.116-0.263 0.263-0.263h15.21v6.617c0 0.201 0.163 0.364 0.364 0.364h6.625v20.2c0 0.155-0.116 0.279-0.263 0.279z"></path>
<path fill="#fff" d="M4.354 12.196l1.108-1.852c0.023-0.039 0.008-0.093-0.054-0.093h-0.325c-0.077 0-0.108 0.015-0.139 0.077l-0.465 0.798-0.372 0.659-0.372-0.643-0.473-0.821c-0.031-0.046-0.039-0.077-0.124-0.077h-0.349c-0.054 0-0.070 0.046-0.039 0.093l1.108 1.852-1.201 1.968c-0.031 0.046-0.015 0.093 0.039 0.093h0.341c0.093 0 0.101-0.023 0.139-0.085l0.566-0.945 0.364-0.628 0.395 0.674 0.535 0.899c0.039 0.062 0.062 0.085 0.132 0.085h0.341c0.054 0 0.077-0.039 0.046-0.085l-1.201-1.968z"></path>
<path fill="#fff" d="M9.616 10.251h-0.24c-0.085 0-0.116 0.031-0.147 0.093l-1.007 2.053-0.294 0.651h-0.016l-0.287-0.628-1-2.084c-0.031-0.070-0.054-0.093-0.132-0.093h-0.263c-0.070 0-0.093 0.023-0.093 0.093v3.812c0 0.077 0.039 0.101 0.101 0.101h0.256c0.070 0 0.093-0.023 0.093-0.101v-2.867h0.016l0.186 0.395 0.914 1.883c0.023 0.046 0.054 0.070 0.124 0.070h0.178c0.054 0 0.093-0.023 0.124-0.077l0.883-1.798 0.209-0.465h0.015v2.867c0 0.077 0.039 0.101 0.108 0.101h0.263c0.070 0 0.101-0.023 0.101-0.101v-3.812c0-0.062-0.031-0.093-0.093-0.093z"></path>
<path fill="#fff" d="M12.877 13.823h-1.813v-3.471c0-0.085-0.031-0.108-0.093-0.108h-0.263c-0.070 0-0.101 0.023-0.101 0.108v3.797c0 0.070 0.031 0.093 0.108 0.093h2.177c0.070 0 0.093-0.023 0.093-0.093v-0.232c0-0.070-0.023-0.093-0.108-0.093z"></path>
<path fill="#fff" d="M13.102 21.989l3.076-3.076c0.147-0.147 0.147-0.38 0-0.519-0.147-0.147-0.38-0.147-0.519 0l-3.339 3.332c-0.070 0.070-0.108 0.163-0.108 0.263s0.039 0.194 0.108 0.263l3.417 3.417c0.070 0.070 0.163 0.108 0.263 0.108s0.186-0.039 0.263-0.108c0.147-0.147 0.147-0.38 0-0.519l-3.161-3.161z"></path>
<path fill="#fff" d="M23.152 18.394c-0.147-0.147-0.372-0.147-0.519 0s-0.147 0.38 0 0.519l3.161 3.161-3.076 3.076c-0.147 0.147-0.147 0.38 0 0.519 0.070 0.070 0.163 0.108 0.263 0.108 0.093 0 0.186-0.039 0.263-0.108l3.339-3.339c0.147-0.147 0.147-0.38 0-0.519l-3.432-3.417z"></path>
<path fill="#fff" d="M21.238 17.139c-0.194-0.070-0.403 0.023-0.473 0.217l-3.378 9.089c-0.070 0.194 0.023 0.403 0.217 0.473 0.039 0.015 0.085 0.023 0.132 0.023 0.147 0 0.287-0.093 0.341-0.24l3.378-9.089c0.070-0.186-0.031-0.403-0.217-0.473z"></path>
</svg>
