<!-- Generated by IcoMoon.io -->
<svg version="1.1" xmlns="http://www.w3.org/2000/svg" width="32" height="32" viewBox="0 0 32 32">
<title>you</title>
<path fill="#fff" d="M21.346 6.338l0.070 1.038c0.008 0.17 0.101 0.318 0.24 0.418 0.124 0.085 0.287 0.132 0.473 0.132 0.116 0 0.232-0.016 0.356-0.054l2.999-0.876c0.318-0.093 0.566-0.287 0.659-0.511 0.070-0.163 0.062-0.333-0.023-0.488l-0.496-0.907c-0.17-0.31-0.597-0.418-1.069-0.279l-2.456 0.721c-0.48 0.124-0.775 0.457-0.752 0.806zM22.33 6.33l2.456-0.721c0.062-0.016 0.108-0.023 0.147-0.023l0.325 0.589c-0.008 0-0.008 0-0.015 0l-2.999 0.876c-0.008 0-0.008 0-0.015 0l-0.047-0.674c0.039-0.008 0.085-0.031 0.147-0.046z"></path>
<path fill="#fff" d="M18.689 24.825c-0.070-0.248-0.248-0.449-0.48-0.558s-0.496-0.116-0.736-0.015l-1.883 0.775c-0.449 0.186-0.69 0.682-0.55 1.154l0.721 2.456c0.124 0.418 0.504 0.69 0.922 0.69 0.054 0 0.108-0.008 0.17-0.015l2.007-0.356c0.256-0.047 0.473-0.194 0.612-0.411s0.17-0.48 0.101-0.728l-0.883-2.991zM18.751 28.11c-0.008 0.015-0.023 0.023-0.039 0.031l-2.007 0.356c-0.062 0.015-0.116-0.023-0.132-0.085l-0.721-2.456c-0.015-0.054 0.015-0.116 0.070-0.139l1.883-0.783c0.008 0 0.015-0.008 0.023-0.008s0.015 0 0.023 0.008 0.023 0.023 0.031 0.039l0.876 2.999c0 0.008 0 0.023-0.008 0.039z"></path>
<path fill="#fff" d="M31.163 18.076l-3.014-10.29c-0.023-0.132-0.054-0.256-0.085-0.387l-0.589-2.007c-0.015-0.054-0.039-0.108-0.054-0.163h0.008c-0.852-2.875-3.866-4.633-6.601-3.835l-14.032 4.107c-2.239 0.659-4.091 2.146-5.215 4.192-1.123 2.053-1.379 4.416-0.721 6.656l0.705 2.402 1.286 4.385c0.496 1.697 2.053 2.797 3.742 2.797 0.364 0 0.728-0.054 1.093-0.155 1.263-0.372 2.193-1.333 2.588-2.495 0.705 1.154 1.976 1.86 3.324 1.86 0.054 0 0.116-0.008 0.17-0.015-0.558 0.868-0.744 1.96-0.434 3.022 0.271 0.938 0.899 1.712 1.759 2.185 0.542 0.302 1.147 0.449 1.751 0.449 0.349 0 0.697-0.047 1.038-0.147l7.709-2.379c2.107-0.612 3.843-2.015 4.897-3.936 1.046-1.922 1.286-4.138 0.674-6.245zM26.662 5.633l0.589 2.007c0.411 1.41-0.403 2.898-1.813 3.308l-0.736 0.217c-1.41 0.411-2.898-0.403-3.308-1.813l-0.589-2.007c-0.411-1.41 0.395-2.898 1.813-3.308l0.736-0.217c0.248-0.070 0.504-0.108 0.744-0.108 1.154 0.008 2.224 0.759 2.565 1.922zM17.41 21.974c0.279 0.294 0.604 0.55 0.969 0.752 0.077 0.047 0.163 0.077 0.24 0.116l-1.759 0.519c0.047-0.077 0.093-0.147 0.139-0.225 0.201-0.372 0.341-0.767 0.411-1.162zM29.745 23.919c-0.945 1.728-2.503 2.983-4.401 3.533l-7.709 2.379c-0.721 0.209-1.488 0.132-2.146-0.232s-1.139-0.961-1.356-1.681c-0.387-1.309 0.217-2.696 1.433-3.308l4.858-1.418c0.31-0.015 0.62-0.054 0.93-0.147 2.061-0.604 3.247-2.766 2.642-4.827l-1.294-4.393c-0.062-0.225-0.302-0.356-0.527-0.287-0.225 0.062-0.349 0.302-0.287 0.519l1.286 4.393c0.473 1.612-0.457 3.308-2.069 3.781-0.783 0.232-1.604 0.139-2.317-0.256s-1.232-1.038-1.464-1.821l-1.286-4.378c-0.062-0.225-0.302-0.356-0.527-0.287-0.225 0.062-0.349 0.302-0.287 0.519l0.364 1.247 0.922 3.146c0.232 0.783 0.139 1.604-0.248 2.324-0.287 0.527-0.721 0.945-1.24 1.224-0.008 0.008-0.023 0.015-0.031 0.015-0.17 0.093-0.356 0.163-0.55 0.217-0.783 0.225-1.604 0.139-2.324-0.256-0.713-0.387-1.232-1.038-1.464-1.821l-0.341-1.162-0.922-3.146-0.023-0.085c-0.062-0.225-0.302-0.356-0.527-0.287-0.225 0.062-0.349 0.302-0.287 0.519l0.945 3.231c0.473 1.612-0.457 3.308-2.069 3.781s-3.308-0.457-3.781-2.069l-1.286-4.393-0.705-2.402c-0.589-2.022-0.364-4.161 0.651-6.013 1.023-1.829 2.696-3.177 4.719-3.766l14.032-4.107c1.278-0.372 2.658-0.046 3.75 0.744-0.542-0.116-1.123-0.101-1.697 0.070l-0.736 0.217c-1.86 0.542-2.929 2.495-2.379 4.354l0.589 2.007c0.449 1.526 1.852 2.526 3.37 2.526 0.325 0 0.659-0.046 0.984-0.139l0.736-0.217c1.015-0.294 1.79-1.015 2.2-1.898l2.479 8.461c0.55 1.875 0.333 3.866-0.612 5.586z"></path>
</svg>
