<!-- Generated by IcoMoon.io -->
<svg version="1.1" xmlns="http://www.w3.org/2000/svg" width="32" height="32" viewBox="0 0 32 32">
<title>youtube</title>
<path fill="#fff" d="M25.902 4.757h-19.804c-3.084 0-5.594 2.51-5.594 5.594v11.297c0 3.084 2.51 5.594 5.594 5.594h19.797c3.084 0 5.594-2.51 5.594-5.594v-11.297c0.008-3.084-2.503-5.594-5.586-5.594zM30.621 21.648c0 2.603-2.123 4.726-4.726 4.726h-19.797c-2.603 0-4.726-2.123-4.726-4.726v-11.297c0-2.603 2.123-4.726 4.726-4.726h19.797c2.603 0 4.726 2.123 4.726 4.726v11.297z"></path>
<path fill="#fff" d="M22.23 15.248l-8.368-4.277c-0.387-0.201-0.845-0.178-1.216 0.046s-0.597 0.62-0.597 1.062v8.554c0 0.434 0.225 0.829 0.597 1.061 0.201 0.124 0.426 0.186 0.651 0.186 0.194 0 0.387-0.047 0.566-0.139l8.368-4.277c0.418-0.217 0.674-0.635 0.674-1.108s-0.256-0.899-0.674-1.108zM21.834 16.682l-8.368 4.277c-0.17 0.085-0.31 0.015-0.364-0.015s-0.178-0.132-0.178-0.318v-8.554c0-0.186 0.124-0.287 0.178-0.318 0.031-0.023 0.108-0.054 0.194-0.054 0.054 0 0.108 0.008 0.17 0.039l8.368 4.277c0.178 0.093 0.201 0.263 0.201 0.333s-0.015 0.24-0.201 0.333z"></path>
</svg>
